<svg width="650" height="677" viewBox="0 0 650 677" fill="none" xmlns="http://www.w3.org/2000/svg">
<path d="M447.193 299.939C448.274 300.225 448.617 301.476 447.88 302.333C447.727 302.512 447.238 302.437 447.164 302.599C447.09 302.761 447.486 303.115 447.43 303.315C447.047 304.738 446.613 306.334 445.632 307.246L446.768 308.657C446.463 309.831 445.881 310.129 444.774 310.419C444.686 310.61 445.514 312.047 445.573 312.567C445.786 314.53 444.062 316.688 443.367 318.688C443.3 318.871 443.692 319.211 443.633 319.404C443.357 320.306 442.723 321.198 442.397 322.106L443.625 322.668L444.333 325.666L442.942 327.407L443.208 328.123L442.267 328.881L442.8 330.313L441.41 332.053C441.265 333.265 440.328 337.013 439.919 337.908C439.845 338.07 439.356 337.995 439.203 338.174C438.501 338.994 439.268 340.212 438.458 341.101C440.028 341.695 439.558 342.942 438.807 344.232L439.79 344.682C439.564 345.06 439.466 345.585 439.228 345.91C438.96 346.275 437.712 347.457 437.612 348.142C438.408 349.623 437.195 350.963 437.021 352.031C436.946 352.507 438.079 353.68 436.992 354.692L436.009 354.242L436.163 355.204C435.953 355.494 435.93 355.935 435.714 356.186C434.045 358.132 433.043 361.061 433.815 364.231L431.933 365.746L432.508 368.386L430.359 369.185C430.405 370.371 431.225 371.941 430.484 372.808C430.331 372.987 429.842 372.912 429.768 373.074C429.694 373.237 430.085 373.588 430.034 373.791C429.7 375.04 429.146 375.523 427.928 375.797L428.727 377.946L426.62 379.953C427.177 380.683 426.895 381.392 426.928 381.876C427.035 383.292 427.498 383.617 426.295 384.558L426.562 385.274C425.462 385.496 425.364 386.8 424.834 387.752L423.851 387.302L423.668 389.001L425.142 389.675L424.509 392.357L423.035 391.682C423.002 392.742 421.802 393.079 421.757 393.177C421.683 393.339 422.079 393.693 422.023 393.893C421.788 394.772 421.087 395.693 420.787 396.595L422.527 397.986L422.232 399.93L420.574 400.955L420.728 401.917L419.746 401.467L418.888 404.64L419.871 405.089C419.299 406.052 419.005 407.397 418.409 408.283C418.207 408.582 417.299 408.203 417.96 409.265L416.527 409.798L416.09 414.649L417.073 415.099L416.623 416.082L418.097 416.756C417.076 418.987 413.613 417.36 413.125 419.829L411.876 418.663L411.356 421.099L409.249 423.106C408.675 423.152 406.45 423.845 406.251 423.814C405.804 423.74 405.28 423.274 404.777 423.139C404.575 423.088 404.223 423.48 404.061 423.405C403.899 423.331 403.966 422.809 403.795 422.689C402.725 421.962 402.315 422.404 401.338 421.565C400.284 420.661 399.124 421.741 398.923 421.648L396.67 419.429L396.6 420.882L395.525 421.282L393.335 420.874C392.834 419.581 391.189 418.305 389.854 418.093C389.577 418.049 388.847 418.594 388.422 418.626C388.133 418.648 387.821 418.238 387.685 418.288C387.592 418.323 387.194 419.478 386.274 419.425L386.007 418.709L384.575 419.242L383.059 417.36C381.566 417.871 380.244 417.408 378.925 416.656L378.475 417.639L377.963 416.81L377.247 417.077L376.222 415.419C374.055 415.818 371.112 416.082 370.593 413.438L370.102 413.213C368.49 414.228 367.062 412.636 365.272 413.379C364.747 411.98 362.627 411.783 361.32 410.977L360.871 411.959L358.393 410.231L356.982 411.368L355.037 411.073L352.273 408.025C351.891 408.118 350.49 408.362 350.349 408.333C347.143 407.626 345.227 405.579 342.263 405.227C340.853 405.062 339.157 404.287 337.841 403.203C337.664 403.057 337.737 402.561 337.575 402.487L335.63 402.191L335.18 403.174C333.414 402.775 330.519 403.958 329.572 401.796L327.648 402.104L327.382 401.388C325.999 401.955 324.932 400.962 324.659 399.547L322.244 399.631C321.992 398.297 319.997 398.632 319.746 397.299C318.721 397.591 317.794 398.408 316.86 397.761L316.186 399.235C315.355 399.544 314.336 395.578 312.909 395.359C312.68 395.325 312.362 395.697 312.193 395.625C312.109 395.587 312.04 394.634 311.189 394.572L310.494 395.442L309.736 394.501C307.953 395.242 307.294 392.955 305.56 392.59L304.66 394.555L302.183 392.827C301.915 391.439 301.237 391.051 299.93 390.608C299.539 391.944 298.053 391.918 297.045 391.07C296.534 390.64 296.818 388.684 295.263 388.472C294.966 388.431 294.494 389.035 293.81 388.401L293.36 389.384L290.699 389.354L290.637 387.543C290.548 387.205 289.858 387.739 289.675 387.697C288.49 387.417 285.929 386.197 285.478 385.182L282.347 385.532C281.405 383.111 277.104 384.927 275.51 383.592C275.274 383.395 275.214 382.357 274.977 382.16C274.024 381.361 272.147 381.423 271.517 379.982L270.843 381.456C269.416 380.536 266.937 380.043 265.684 379.095C265.48 378.942 265.585 378.117 264.926 378.154L261.795 378.504L257.906 377.913L257.373 376.48L256.39 376.031C255.186 376.662 253.942 375.213 252.726 374.948C252.132 374.819 250.269 375.553 250.086 375.523C249.085 375.361 247.585 373.808 247.097 372.966L244.457 373.541L243.474 373.091C243.052 371.507 241.417 372.03 240.281 371.629L239.606 373.103L236.392 371.038C237.023 370.347 236.428 369.908 236.463 369.585C236.497 369.262 236.852 368.955 236.912 368.602C237.079 367.627 237.564 366.803 237.77 365.43C238.296 361.969 239.591 358.205 240.302 354.704C241.188 350.338 242.154 346.371 243.999 342.729L244.365 339.331L245.798 338.798C246.83 337.595 245.34 336.331 245.448 335.667C245.685 334.189 247.497 331.905 247.921 330.263C248.412 328.36 247.051 327.256 249.945 325.841C249.968 324.206 249.614 321.72 250.719 320.253C252.03 318.518 253.146 317.08 252.21 314.399L253.151 313.641C252.81 311.762 254.479 311.195 254.683 308.995C254.715 308.665 254.123 308.233 254.754 307.541L255.737 307.991L255.541 305.822C256.641 305.6 256.738 304.296 257.269 303.344L256.132 301.933C257.169 301.861 257.038 300.772 257.523 300.192C257.834 299.824 259.231 300.017 259.292 298.922L258.31 298.473L258.605 296.528L260.263 295.504C259.665 293.305 260.296 291.717 262.399 290.836L261.416 290.387C262.204 289.625 261.145 288.694 261.22 288.218C261.434 286.907 262.393 286.758 262.611 286.477C262.914 286.087 262.984 285.364 263.285 285.003C263.483 284.767 264.513 284.709 264.718 284.47C265.675 283.352 264.512 282.415 264.368 281.339C264.18 279.958 266.185 277.94 266.125 276.201L268.007 274.685C266.921 272.566 269.121 270.043 268.74 267.89L270.172 267.357L270.622 266.375C270.017 265.527 270.875 264.951 271.03 264.184C271.425 262.256 272.27 261.941 272.379 261.237C272.668 259.307 274.218 257.271 274.586 255.116C275.078 252.222 278.113 248.94 277.875 245.331L278.325 244.348C279.691 243.803 279.6 241.497 281.527 242.546L282.651 240.089L283.634 240.539L284.083 239.556C284.835 240.667 286.467 241.71 287.768 241.242L288.301 242.675L289.284 243.124L290.716 242.591C291.159 242.871 291.813 242.974 292.19 243.266C293.266 244.097 295.585 245.729 297.103 245.514C297.393 246.621 297.691 247.203 298.865 247.509L299.314 246.526C300.234 246.62 300.119 247.429 300.318 247.58C301.313 248.338 302.177 248.282 303.224 247.721L303.02 248.816C303.682 249.446 304.266 248.834 304.473 248.887C306.654 249.457 308.015 252.118 310.594 251.094L311.576 251.543C311.836 253.183 313.618 252.549 314.033 252.668C316.392 253.355 318.374 255.011 321.095 254.117L321.586 254.341C322.056 255.626 323.709 255.402 323.859 257.164L325.313 257.235L325.987 255.761C326.596 255.535 327.443 257.527 327.748 257.756C328.364 258.216 330.358 259.051 331.188 259.33C331.373 259.391 331.711 259.005 331.904 259.063C333.514 259.569 334.6 260.975 336.284 259.879L336.55 260.595C338.345 259.634 338.793 262.668 340.256 262.885C340.567 262.933 342.93 262.392 343.879 262.761C344.026 262.828 343.976 263.275 344.145 263.477C345.183 264.701 348.687 265.68 350.491 265.192L351.515 266.849C352.62 267.551 353.294 267.598 354.421 266.991L354.688 267.707L356.611 267.399C357.194 268.943 359.261 269.152 360.767 268.706L361.749 269.156C362.742 271.506 365.007 269.738 366.846 269.706L368.361 271.588C371.728 271.256 375.163 273.708 378.554 272.687C378.788 273.436 382.285 275.987 382.772 275.806L383.222 274.823C383.479 274.727 385.248 275.952 385.924 276.059C386.4 276.135 387.573 275.002 388.585 276.089L388.135 277.071L393.539 279.545L393.989 278.562L396.242 280.781C396.463 280.817 396.751 280.473 396.958 280.515C399.871 281.135 402.604 283.2 405.535 283.846C405.718 283.888 407.276 283.496 407.459 283.538C409.807 284.054 409.454 285.449 409.957 285.869C410.928 286.682 417.534 289.646 418.801 289.916C419.819 290.133 424.258 291.469 425.413 292.348C427.424 293.874 429.946 294.036 432.291 295.496C432.452 295.599 433.124 296.988 434.277 296.999C435.22 294.614 438.025 297.003 438.799 294.909L441.972 295.766L442.422 294.784L447.539 295.937L448.963 298.669L447.193 299.939ZM442.138 300.596L440.868 298.827L438.495 300.118L436.509 298.614C435.99 300.112 433.893 299.865 432.662 299.231L432.212 300.213C431.084 299.121 429.252 298.437 427.545 298.077C426.877 297.938 425.904 297.82 425.354 297.669C424.63 297.474 423.885 296.908 423.143 296.657L422.694 297.64C421.387 297.197 420.709 296.809 420.441 295.421L418.518 295.729C417.585 294.572 417.593 295.139 417.044 295.054C415.576 294.834 416.06 293.178 414.791 292.835L414.341 293.818C413.82 293.502 413.076 293.363 412.622 293.031C412.448 292.904 412.526 292.435 412.355 292.315C411.572 291.754 410.281 291.823 410.123 290.699L407.484 291.274C407.091 290.197 405.844 290.143 405.702 288.676C404.329 289.622 402.97 287.425 402.754 287.327C402.636 287.273 401.01 288.008 400.788 286.427C399.231 287.272 397.817 286.648 396.204 286.706C397.019 284.055 394.709 283.027 393.256 285.357L388.281 281.297C388.057 281.266 387.79 281.59 387.564 281.564C386.334 281.423 386.142 281.127 385.599 280.665C384.528 279.746 382.99 280.95 381.752 281.281L380.503 280.115C379.44 280.775 379.82 279.868 379.52 279.665C378.703 279.113 377.455 279.166 377.288 278.05L374.424 279.116C374.15 277.701 373.083 276.708 371.701 277.275C371.671 276.055 370.11 276.999 369.51 276.867C368.095 276.558 367.867 275.771 367.279 275.252C366.453 274.523 365.734 275.109 365.58 275.069C364.865 274.89 364.108 274.3 363.369 274.057L361.978 275.797C361.064 275.705 361.151 274.866 360.975 274.744C359.204 273.523 354.026 271.1 352.173 271.904C347.871 269.074 341.794 267.511 336.267 266.408C332.333 263.787 326.681 262.764 322.061 261.095C320.21 260.426 318.565 259.84 316.923 259.338C316.026 259.064 315.131 258.423 314.22 258.101L314.67 257.119C313.52 257.27 312.285 257.097 311.968 255.882L311.476 255.657C309.081 257.021 307.536 254.686 305.622 254.167C304.18 253.774 302.774 252.275 300.976 252.634L299.951 250.977C298.017 252.113 298.065 250.958 297.27 250.344C296.892 250.053 296.238 249.949 295.796 249.67L294.364 250.203C293.506 249.026 293.219 249.614 292.89 249.528C292.094 249.319 291.545 248.545 290.699 249.12C290.078 246.946 287.974 247.207 286.236 245.889C286.069 245.759 286.141 245.317 285.969 245.173L285.478 244.948C284.14 245.34 282.809 245.782 283.505 247.313L282.788 247.58L283.321 249.012L282.605 249.278L282.759 250.24L281.777 249.79L281.214 251.019L281.523 252.942C280.287 253.137 281.167 253.576 281.073 253.925C280.61 255.638 279.597 256.696 278.179 257.652L279.162 258.101C278.381 258.885 278.912 259.698 278.866 260.046C278.674 261.491 277.061 260.99 276.647 262.298L278.121 262.973C276.727 263.85 276.326 264.921 277.151 266.391C276.074 266.784 276.02 268.031 274.553 268.173L274.103 269.156L274.677 271.796C272.098 273.277 274.061 277.129 270.281 277.508L269.76 279.944L270.743 280.394L269.997 283.321C268.478 283.642 269.232 284.902 268.761 286.023L267.666 285.819C268.049 286.708 268.048 287.711 269.069 287.947C269.007 289.042 267.611 288.848 267.299 289.217C266.909 289.68 266.791 290.666 266.4 291.182C266.27 291.349 265.828 291.277 265.684 291.449C265.057 292.196 266.206 295.176 264.909 297.036C264.789 297.207 264.313 297.132 264.193 297.303C263.594 298.158 263.231 299.976 263.111 300.967C263.082 301.185 263.602 301.84 263.265 301.929L262.282 301.479L261.649 304.16L262.632 304.61C262.049 305.52 261.772 307.009 261.17 307.804C261.041 307.97 260.598 307.898 260.454 308.07C260.243 308.324 259.148 313.314 259.455 314.149L257.011 316.893L257.993 317.343C256.605 319.025 257.46 321.716 255.632 322.502L255.408 322.993L256.544 324.404C255.738 325.711 255.541 327.831 254.142 328.356L254.338 330.525L253.243 330.321L253.592 333.452L251.485 335.459C252.409 336.987 249.914 338.893 249.687 339.39C249.612 339.552 250.004 339.903 249.953 340.106C249.669 341.182 249.312 342.195 249.095 343.279L249.966 343.974L248.646 344.261C248.692 344.538 248.956 344.831 248.912 344.977C248.443 346.522 247.533 348.304 247.871 349.849L246.93 350.607L247.28 353.738C246.243 354.784 245.632 356.65 245.481 357.668C245.317 358.782 244.354 358.834 244.315 358.918C244.241 359.08 244.638 359.434 244.582 359.634C244.387 360.359 243.82 361.103 243.57 361.845L244.553 362.294L242.937 364.526L243.92 364.976L242.08 367.699L245.19 366.745L247.667 368.473C247.642 367.166 250.863 367.203 251.023 367.632L250.574 368.615L252.539 369.514L252.989 368.532L254.442 368.602C255.126 370.366 256.777 370.913 258.414 371.609L259.825 370.472C261.544 371.104 262.365 372.609 264.268 373.099C264.422 373.14 265.353 372.586 265.967 373.282L268.115 372.483C269.651 373.346 271.832 375.592 273.745 374.465L277.226 377.246L278.637 376.11L282.792 377.417L282.118 378.891C283.69 378.261 284.106 378.91 285.27 379.145C285.482 379.188 285.774 378.835 285.986 378.879C286.909 379.069 287.717 380.146 288.667 379.511L288.463 380.606L290.92 381.731L292.332 380.594L295.096 383.642L299.435 383.25C300.681 385.229 302.651 384.312 304.348 385.499C304.519 385.619 304.444 386.095 304.615 386.215C306.272 387.372 307.596 386.7 309.24 387.144L308.791 388.126C309.458 388.758 310.037 388.144 310.244 388.197C311.671 388.571 312.524 389.876 314.133 388.788L314.891 389.729L318.022 389.379C319.294 390.235 320.297 391.288 321.973 391.782L321.523 392.765L322.506 393.214L322.956 392.232L325.904 393.581L325.454 394.563L326.437 395.013L326.886 394.03C327.948 394.385 329.05 395.211 330.08 395.492C331.735 395.94 333.759 397.437 335.976 398.19C336.604 398.4 339.14 398.586 339.865 398.781C341.9 399.32 344.417 401.001 346.435 400.005L348.421 401.508L349.096 400.034C350.347 400.714 351.717 400.254 353.005 401.229C353.226 401.396 354.177 403.447 354.767 403.224L355.462 402.354C355.569 403.977 358.509 403.421 358.656 403.815L358.206 404.798C358.432 405.407 360.494 404.745 360.867 404.827C361.941 405.063 363.231 406.165 364.306 406.401C364.501 406.442 366.141 406.052 366.229 406.093C366.563 406.246 365.844 406.546 367.703 406.767C368.64 406.875 369.531 407.734 370.097 406.08C371.192 406.142 370.999 407.539 371.367 407.85C372.338 408.663 373.361 408.168 374.295 408.595C374.595 407.639 374.929 407.156 375.931 406.967L375.727 408.062C376.389 408.692 376.973 408.08 377.18 408.133C378.273 408.419 381.116 409.167 381.827 409.665C382.065 409.833 382.203 410.764 383.567 411.056L386.698 410.706L388.193 411.984L388.643 411.002C390.03 411.464 392.217 412.436 393.535 412.646C393.839 412.696 394.663 412.064 394.967 412.113C396.594 412.377 398.246 413.715 400.597 414.095C401.326 414.215 401.173 414.9 401.355 415.036C403.068 416.355 403.701 415.011 404.977 414.911C405.717 414.852 405.443 415.464 406.767 414.245L408.129 415.165L407.596 413.733C407.65 412.641 408.715 412.445 408.874 412.238C409.761 411.093 409.454 409.075 409.69 407.858C409.91 406.729 411.054 405.475 410.282 403.969L412.051 402.699L410.915 401.288L412.418 399.302L413.4 399.751C413.669 398.514 413.657 397.32 414.483 396.087C412.595 395.342 413.811 394.336 414.021 393.202C414.074 392.929 413.528 392.02 414.316 391.257L415.299 391.707L415.595 389.763L416.311 389.496C414.909 386.353 417.489 385.817 417.31 383.417L417.76 382.434C418.166 382.222 419.522 381.09 419.642 380.919C420.066 380.317 420.253 379.375 420.653 378.708L419.671 378.258C421.649 376.585 421.62 374.194 421.99 371.892C422.018 371.714 422.409 371.353 422.665 370.418C423.179 368.514 424.839 366.641 424.155 364.564L426.978 362.29L425.842 360.879C426.348 359.447 427.051 358.236 428.51 357.644L428.735 357.152C428.085 355.886 428.581 354.295 428.835 353.039C429.023 352.096 429.609 351.556 430.338 351.052L429.356 350.603C429.729 349.579 430.652 348.653 430.101 347.676L431.758 346.651C431.123 345.701 432.196 344.891 432.391 343.97C432.587 343.049 431.496 340.952 431.55 340.614C431.755 339.347 432.774 337.769 434.107 337.624C433.17 336.126 434.231 333.73 435.639 332.978L435.247 328.639L436.975 326.162L435.993 325.712L438.212 323.459L437.075 322.048C438.162 321.036 437.029 319.864 437.104 319.387C437.222 318.651 438.111 317.667 438.229 316.931C438.279 316.627 437.646 315.802 437.696 315.498C437.945 313.954 439.71 310.941 440.015 309.132L439.032 308.682L440.535 306.696C439.784 304.469 441.312 302.637 442.138 300.596Z" fill="#101111"/>
<path d="M416.791 315.736L415.808 315.286C414.983 316.518 414.995 317.712 414.726 318.95C416.379 319.647 416.594 321.386 418.635 320.145L420.376 321.536C420.604 321.569 420.885 321.228 421.092 321.269C422.974 321.649 422.803 322.658 423.007 324.225L422.079 328.851C423.882 329.456 422.427 332.231 424.394 332.882L421.95 335.626L423.086 337.037L421.104 342.667L420.122 342.217C419.46 343.507 421.186 345.021 419.152 345.635C419.631 350.977 415.222 355.507 415.804 360.741C414.194 361.65 414.628 363.013 413.514 364.447C413.181 364.877 413.05 365.655 412.727 366.167L413.71 366.616L412.094 368.848L410.283 368.91C410.341 369.329 410.857 370.071 410.816 370.343C410.492 372.506 409.288 373.007 409.017 374.273C408.978 374.463 409.367 376.014 409.325 376.197C409.071 377.364 406.379 381.973 406.515 382.339L407.497 382.788L406.219 384.283C407.334 386.261 404.562 388.67 404.462 389.421C404.306 390.568 404.5 392.338 402.888 392.86L403.196 394.784C401.847 394.927 401.861 395.664 401.314 396.299C401.226 396.402 398.941 397.252 398.808 397.232C398.375 397.165 396.775 396.403 396.351 396.108C396.225 396.02 396.193 395.091 395.102 394.942C393.171 394.682 391.135 394.808 389.269 394.055L388.819 395.038C387.513 394.595 386.834 394.207 386.566 392.819C384.97 392.932 383.048 392.236 381.449 391.665L380.999 392.648C380.417 392.453 379.843 392.006 379.28 391.861C378.924 391.769 378.497 392.65 378.297 391.411C376.381 392.507 375.305 392.003 373.446 390.974L373.65 389.879C372.918 390.453 372.397 389.709 371.952 389.696C371.601 389.684 370.228 390.048 370.028 390.004C368.501 389.679 366.726 386.728 364.623 387.531L364.132 387.306C363.873 385.405 362.368 385.096 361.367 384.258C361.295 384.195 360.727 382.711 360.701 382.468C360.687 382.33 360.925 382.16 360.926 381.976C360.925 381.72 360.618 381.455 360.66 381.26C360.79 380.637 361.393 379.944 361.559 379.295C361.796 378.375 361.942 376.368 362.15 375.406C362.509 373.752 362.94 372.707 363.949 371.475L363.753 369.306L364.736 369.756C365.524 368.993 364.465 368.063 364.54 367.586C364.905 365.335 366.65 362.289 367.913 360.217C370.038 352.222 373.152 343.367 377.006 336.45C375.995 334.959 377.049 334.318 377.373 333.052C377.428 332.84 376.811 332.267 377.444 331.599L378.426 332.049L378.272 331.087L378.988 330.821L378.68 328.897L380.337 327.873C379.255 324.044 383.038 321.193 382.644 317.638L382.869 317.147C385.062 316.51 384.808 313.768 386.725 313.266L386.991 313.983C388.195 313.131 389.051 314.04 390.122 313.633L391.617 314.911C392.077 313.802 394.125 313.04 395.198 313.579L395.647 312.596L397.879 314.212C398.195 313.691 398.331 312.951 398.666 312.492C398.793 312.318 399.27 312.394 399.382 312.225C400.234 310.922 400.695 309.344 400.198 307.845L402.214 306.688C404.136 307.253 405.924 306.657 407.822 308.066L408.272 307.083C408.793 307.399 409.538 307.538 409.992 307.87C410.312 308.106 410.571 309.603 411.957 308.77L413.206 309.935L415.846 309.361C416.433 311.584 418.322 313.649 416.791 315.736ZM412.594 313.221C412.082 312.897 411.304 312.767 410.874 312.434C410.703 312.302 410.78 311.862 410.608 311.718C410.471 311.601 409.05 311.201 408.151 310.593C405.173 308.583 403.704 309.016 402.78 312.592C402.731 312.789 403.075 313.077 403.046 313.308C403.007 313.641 402.65 313.941 402.597 314.291C402.435 315.358 404.91 316.389 405.944 316.714C406.137 316.773 406.477 316.381 406.661 316.448C408.06 316.934 409.435 317.824 410.837 318.359L411.89 317.355C411.379 315.862 411.841 314.54 412.594 313.221ZM383.073 333.581C382.337 334.813 381.535 334.357 380.966 335.588L381.836 336.284C379.791 336.975 380.537 339.967 379.588 341.197C377.565 343.812 377.757 346.86 375.274 349.324L375.807 350.757C374.326 353.448 372.031 356.242 372.251 359.825L371.31 360.583L372.11 362.732C371.006 363.106 370.097 365.091 370.536 366.171L368.879 367.195C369.178 367.891 368.313 368.808 368.246 369.876C368.225 370.247 368.448 371.318 368.554 371.8L366.672 373.316L367.471 375.464L366.306 376.713L366.572 377.429L365.406 378.679C366.31 379.639 365.132 381.536 365.889 382.168C366.646 382.799 367.753 382.64 367.896 384.275L370.311 384.191L371.827 386.073C374.425 384.422 376.342 386.66 378.888 387.522C379.872 387.854 383.04 388.591 384.251 388.788C384.604 388.848 385.842 388.066 386.4 387.989L388.161 389.983L389.777 387.751C390.647 387.823 390.677 388.758 390.78 388.805C390.996 388.904 393.547 388.497 393.728 390.154L395.181 390.225L395.631 389.242L397.863 390.857L399.366 388.871C399.204 386.51 398.978 382.538 401.039 381.318L401.139 377.205C402.635 376.974 403.283 375.636 403.696 374.215C403.752 374.015 403.371 373.692 403.429 373.499C403.955 371.844 405.26 370.551 404.47 368.627L407.181 366.6L406.198 366.15L407.027 365.638C406.726 364.205 407.994 361.434 409.275 360.725L408.659 356.877C410.962 354.17 411.372 349.521 413.606 346.068C413.725 345.885 414.707 345.687 414.996 344.328C413.36 341.06 416.912 338.544 417.161 337C417.211 336.696 416.579 335.871 416.628 335.567C416.746 334.831 417.635 333.847 417.753 333.111C417.916 332.104 416.697 331.796 418.119 329.713C419.148 328.205 418.491 328.018 418.261 326.807C418.225 326.624 418.611 325.82 418.086 325.241L415.896 324.833L415.629 324.117L414.913 324.384L413.664 323.218L412.007 324.242C411.794 322.083 409.399 322.579 408.751 320.969L408.259 320.744C405.782 321.821 403.48 319.139 401.423 318.804C400.953 318.726 399.767 319.865 398.762 318.775L398.804 319.983C398.119 319.206 396.945 319.732 396.859 319.687C396.329 319.403 395.228 317.877 393.645 317.622C393.341 317.572 392.516 318.205 392.212 318.155C391.466 318.033 389.993 317.525 389.04 317.297C388.486 317.168 387.9 316.698 387.32 316.51L386.87 317.493L385.888 317.043C385.318 317.911 385.688 318.907 386.687 319.191L385.338 322.139L386.321 322.589L386.025 324.533C385.881 324.705 385.434 324.631 385.309 324.8C384.183 326.352 384.114 326.761 383.735 328.239C383.488 329.196 381.492 332.62 381.599 332.907L383.073 333.581Z" fill="#111312"/>
<path d="M337.396 376.26L335.431 375.36L334.082 378.308C333.046 378.298 332.678 377.065 332.587 377.03C332.339 376.934 329.74 376.565 329.189 376.663L326.958 375.048L325.546 376.185C324.009 375.713 322.982 374.607 322.536 373.024L322.044 372.799C319.707 374.22 317.089 372.915 315.924 370.593L314.941 370.143L313.53 371.28L311.094 370.759C310.972 369.402 310.157 369.404 309.578 368.877C308.24 367.659 307.669 367.843 306.855 367.037C305.628 367.705 304.392 366.147 303.191 365.954C302.887 365.904 302.063 366.537 301.759 366.487C300.978 366.362 299.923 365.487 299.056 365.251C299.609 364.458 299.307 363.416 298.257 363.102L298.053 364.197C297.216 364.741 296.893 364.082 296.354 364.014C296.123 363.986 295.835 364.329 295.638 364.28C294.923 364.102 294.166 363.512 293.427 363.269L294.102 361.795C293.199 361.495 292.278 360.794 291.399 360.558C289.972 360.172 288.301 359.33 286.261 358.801C283.648 358.122 281.555 356.047 279.424 356.861L277.909 354.979L276.701 355.02C276.24 353.288 275.777 352.47 273.937 351.972C273.588 351.878 273.149 352.759 272.954 351.523L272.238 351.789L271.53 348.791L273.033 346.805L274.016 347.255L274.465 346.272L278.13 347.355L277.68 348.338C278.595 348.429 278.507 349.269 278.683 349.391C279.243 349.778 282.06 351.102 282.614 351.19C282.967 351.25 284.204 350.468 284.762 350.39L286.053 352.764L288.959 352.905C289.847 354.25 293.671 355.335 295.305 354.621L297.045 356.011L298.12 355.612L298.682 354.383L301.138 355.507L300.689 356.49C301.451 357.279 302.381 356.219 302.858 356.294C304.091 356.496 305.552 357.991 307.238 357.111L307.729 357.335C308.447 360.195 312 359.819 314.137 360.862L314.587 359.879C315.167 361.47 315.823 361.36 316.84 362.099C317.013 362.226 316.868 362.92 317.597 363.04C318.738 363.223 319.973 363.146 321.262 364.122C323.228 365.616 325.34 366.559 328.14 367.27C329.589 367.636 331.02 368.534 330.168 369.981L331.642 370.655L332.091 369.672C333.502 370.55 335.339 368.211 336.676 369.394C336.906 370.058 338.221 371.366 338.1 372.125C338.006 372.718 337.338 373.452 337.2 374.09C337.155 374.307 337.621 376.196 337.396 376.26Z" fill="#101211"/>
<path d="M333.29 355.366L333.353 357.177L336.259 357.319C336.673 359.309 339.887 360.779 341.664 359.792L342.155 360.017C342.492 362.085 344.699 362.197 346.373 363.135C346.363 364.171 345.13 364.54 345.095 364.63C345.05 364.741 345.553 365.785 344.687 366.82C344.375 367.189 342.978 366.995 342.917 368.09C341.703 367.184 340.805 367.861 339.54 368.328L339.274 367.611C337.413 368.561 337.48 366.363 337.042 365.996C336.046 365.16 334.093 364.468 333.561 363.215C332.446 363.988 331.975 363.422 331.146 363.298C330.835 363.251 330.018 363.881 329.714 363.831C328.021 363.555 327.395 361.807 325.762 361.428L325.966 360.333L322.344 360.458C321.788 359.051 320.011 358.558 318.68 359.376L317.922 358.435L317.206 358.701L316.448 357.76C314.352 357.965 312.095 356.677 310.594 356.269C307.411 355.407 304.177 352.127 300.809 352.98L301.013 351.885L299.027 350.382L297.616 351.519C296.963 351.113 295.971 350.932 295.405 350.507C294.913 350.139 294.607 348.341 293.664 349.116L293.398 348.4L291.945 348.329L291.495 349.312L289.734 347.317C286.78 346.916 286.275 345.033 282.855 344.17C279.436 343.306 279.132 342.644 276.693 340.755C275.587 339.899 274.613 340.392 274.503 340.347C274.419 340.309 274.35 339.356 273.499 339.294L275.34 336.571C275.597 336.475 279.074 338.434 280.007 338.707C281.04 339.007 282.914 338.51 283.671 339.789L285.104 339.256C286.365 339.46 287.487 341.476 289.301 341.771C290.042 341.891 291.257 340.248 292.923 341.646C293.16 341.844 293.22 342.881 293.456 343.079C295.328 344.649 299.366 343.929 301.521 345.581L301.971 344.599L302.953 345.048C302.443 345.658 302.717 346.966 303.507 347.084C304.247 346.532 304.662 347.185 305.206 347.267C305.991 347.383 307.995 345.353 308.604 347.634C310.128 346.757 311.809 346.783 313.209 347.959C313.445 348.156 313.505 349.194 313.742 349.391C315.089 350.524 317.306 350.25 318.164 351.415C318.917 350.625 324.467 352.404 324.734 352.639C325.572 353.379 326.184 354.247 327.703 354.591L327.253 355.574L328.236 356.024C328.746 354.219 331.039 355.78 331.55 353.975L333.29 355.366Z" fill="#101211"/>
<path d="M355.867 322.914L355.417 323.896L356.891 324.571L355.583 328.726L353.127 327.602L352.565 328.83C352.223 328.876 351.717 329.268 351.49 329.23C350.002 328.989 348.938 326.368 347.069 327.207L345.778 324.833L344.346 325.366L341.847 323.035C341.619 323.001 341.336 323.347 341.131 323.301C338.752 322.747 337.25 321.757 334.765 320.982L334.315 321.964C332.836 321.573 332.209 320.555 331.326 319.408L330.876 320.391L329.423 320.32L328.398 318.663L324.98 317.692L325.43 316.71L322.032 316.343L321.582 317.326C321.183 316.46 320.536 316.431 320.088 316.048C319.729 315.741 319.679 314.928 318.347 314.657C315.291 314.037 314.427 313.641 311.96 311.734C310.35 310.486 309.124 312.076 308.071 311.143C305.724 309.065 301.169 306.255 298.02 307.137L297.487 305.705C297.325 305.631 297.004 306.007 296.771 305.972C295.993 305.853 294.145 303.944 294.006 302.924L293.29 303.19C293.128 303.116 293.203 302.627 293.023 302.474C292.286 301.839 290.983 302.491 289.851 301.616C288.236 300.366 286.293 300.262 285.612 297.894L284.896 298.16L283.401 296.882L284.792 295.142C285.054 295.048 288.521 297.003 289.459 297.278C290.561 297.598 293.086 298.117 294.106 298.81C295.364 299.671 297.035 300.929 299.244 300.567L301.251 302.674C304.125 300.965 305.317 305.45 307.821 303.898C308.043 304.998 309.347 305.095 310.299 305.626L310.095 306.721C312.316 306.567 313.992 306.306 316.174 307.72C316.344 307.828 316.264 308.302 316.44 308.437C317.551 309.295 320.893 309.393 322.253 308.72L322.786 310.152L324.197 309.015C325.112 309.107 325.02 309.944 325.201 310.069C326.499 310.972 327.491 311.414 328.64 311.643C329.173 311.75 329.78 312.254 330.36 312.43L329.91 313.412C331.165 314.189 331.859 312.516 332.591 314.045C333.093 312.611 334.823 312.571 335.252 314.074L337.442 314.482C337.81 315.471 340.028 316.48 341.148 316.772C342.663 317.163 343.666 318.061 344.096 318.121C344.409 318.164 345.224 317.538 345.528 317.588C347.198 317.86 348.381 319.34 349.234 319.878C350.027 320.378 351.097 320.636 351.936 321.115L352.386 320.132C353.72 320.904 354.087 322.557 355.867 322.914Z" fill="#0F1110"/>
<path d="M324.43 322.789C325.228 323.564 325.972 323.043 326.375 323.084C326.705 323.117 327.007 323.481 327.357 323.534C327.841 323.607 328.688 322.521 329.772 323.451C330.011 323.655 330.069 324.686 330.305 324.883C332.182 326.455 335.649 326.372 337.184 328.031L338.616 327.498L339.64 329.155L343.284 329.634L342.834 330.617C343.926 330.671 344.122 331.735 344.329 331.895C345.894 333.11 346.673 331.952 347.235 332.036C348.681 332.253 348.807 334.509 349.417 335.709L348.251 336.958L348.068 338.657C347.98 338.848 346.094 339.114 345.786 339.098C345.478 339.082 345.158 338.692 344.803 338.648C342.944 338.427 343.644 338.118 343.329 337.974C343.167 337.9 342.813 338.296 342.613 338.24C341.159 337.848 339.737 336.995 340.585 335.53C340.006 335.342 339.414 334.869 338.866 334.743C336.753 334.257 335.523 333.243 333.503 333.477L331.005 331.145C330.048 331.587 328.624 330.894 327.607 330.779C327.301 330.746 326.758 331.323 325.908 330.596C325.328 330.098 325.582 329.971 324.189 329.809L324.638 328.826C323.41 328.407 322.16 327.49 320.953 327.14C320.697 327.064 319.632 326.963 318.763 326.732C318.561 326.681 318.209 327.073 318.047 326.998C317.949 326.953 317.613 325.754 316.552 325.72L317.002 324.737C316.423 324.562 315.816 324.058 315.282 323.95C314.934 323.88 314.11 324.786 313.808 323.276L310.881 322.531L310.432 323.513L308.691 322.123L308.242 323.105C307.371 323.034 307.341 322.099 307.238 322.052C307.076 321.978 306.748 322.356 306.522 322.318C305.96 322.222 305.566 321.59 304.823 322.135L303.041 319.537L297.945 318.987C295.371 316.068 289.661 316.611 287.585 313.058L286.378 313.1C286.306 312.063 285.217 312.194 284.637 311.709C284.269 311.398 284.462 310.001 283.367 309.94L283.817 308.957L282.835 308.507L283.397 307.279L284.471 306.879C285.091 309.082 287.072 307.648 287.644 307.737C289.022 307.958 291.088 309.676 292.557 309.985C293.619 310.21 294.323 310.384 295.505 311.334C295.726 311.513 295.905 312.551 297 312.613L297.449 311.63C298.538 312.366 299.475 310.917 300.601 311.884C301.025 312.244 300.59 312.61 302.075 312.559L302.608 313.991C305.145 313.031 308.896 314.236 310.203 316.872L311.185 317.322C313.969 317.497 318.502 318.888 320.479 320.386C320.797 320.627 322.084 321.228 322.444 321.286C322.865 321.353 323.818 320.387 324.368 320.978L324.43 322.789Z" fill="#101111"/>
<path d="M309.042 290.195C308.074 292.557 310.834 293.071 312.319 294.072C312.492 294.187 312.423 294.714 312.586 294.788C312.748 294.862 313.102 294.465 313.302 294.521C315.723 295.178 317.956 297.335 320.405 297.178L324.327 302.241L322.824 304.227C322.091 303.44 321.077 303.98 320.88 303.931C319.648 303.623 318.528 302.617 316.991 303.34C316.824 303.264 316.895 302.744 316.724 302.624C315.615 301.867 314.814 302.267 313.797 301.879L313.347 302.861L310.912 302.341L309.13 299.743L307.718 300.879L305.915 297.678C304.825 296.84 304.095 297.344 303.725 297.269C302.284 296.978 300.635 294.869 298.545 294.305C296.305 293.696 294.463 293.631 291.933 291.873C291.762 291.753 291.838 291.289 291.667 291.157C290.246 290.055 288.232 291.237 286.304 289.891C286.007 289.684 285.722 288.151 284.339 288.992L283.897 286.71L284.347 285.728L285.779 285.195L285.625 284.233C286.752 284.939 287.982 285.121 289.269 284.712L290.518 285.878L291.234 285.611L292.974 287.002L294.386 285.865L298.029 286.344L300.036 288.451L301.468 287.918L303.475 290.025C305.459 289.066 307.122 288.99 309.042 290.195Z" fill="#0F1110"/>
<path d="M366.534 295.708L366.73 297.877L364.581 298.677L364.623 299.884L361.604 299.988C361.177 300.922 361.672 301.944 360.859 302.915C360.478 303.371 357.386 303.376 356.633 303.061L355.059 306.5L354.076 306.051L353.177 308.016L349.963 305.951L349.759 307.046L348.039 306.259L347.589 307.242L346.136 307.171C345.276 305.232 344.804 302.954 345.682 301.021L344.208 300.346C345.069 299.504 343.649 298.076 343.746 297.461C343.904 296.493 344.848 295.885 343.888 294.555L346.844 292.639L349.525 293.272L349.588 295.084L350.57 295.533C350.001 296.401 350.371 297.397 351.37 297.682L350.92 298.664L352.394 299.339L354.01 297.107C354.487 297.7 357.721 296.541 357.969 296.245C358.871 295.172 359.764 293.584 360.863 292.519L361.846 292.968C362.268 290.63 363.997 291.059 365.497 290.183C365.661 290.085 366.015 289.273 366.797 289.292C368.412 289.877 369.891 290.672 370.411 292.431L370.186 292.923C369.174 293.161 368.58 294.458 369.062 295.379C368.138 295.67 367.38 296.327 366.534 295.708Z" fill="#111312"/>
<path d="M304.095 336.063L303 335.859C303.551 336.836 302.628 337.762 302.255 338.786C300.772 337.585 300.225 338.404 299.103 338.532C297.879 338.673 295.435 338.327 294.722 337.716C293.868 336.986 293.23 337.574 293.024 337.533C288.972 336.7 284.11 335.325 282.173 331.379C281.239 331.718 278.308 330.501 277.526 329.846C277.29 329.649 277.23 328.611 276.993 328.414C276.495 327.996 274.94 327.784 275.12 326.665C275.195 326.201 275.697 325.676 275.794 325.191C275.843 324.941 275.228 324.415 275.865 323.738L279.017 323.992C279.189 324.136 279.112 324.577 279.283 324.708C280.756 325.84 282.689 324.615 284.155 325.749C286.098 327.256 285.606 326.746 287.594 327.323C289.582 327.9 290.546 329.547 292.528 330.175C293.81 328.231 295.887 328.367 297.829 329.63C298.002 329.745 297.927 330.246 298.095 330.346C299.206 331.009 301.161 332.034 302.25 331.654C302.453 333.38 305.007 334.264 304.095 336.063Z" fill="#111211"/>
<path d="M404.815 347.097L404.366 348.079L405.348 348.529C404.664 349.713 405.377 350.545 406.639 350.902L405.29 353.85L406.273 354.3L405.078 358.21L406.452 362.998L405.173 364.493L404.191 364.043L403.741 365.026L402.021 364.239C400.841 364.637 399.811 365.473 399.444 366.625C398.668 365.841 397.828 366.378 397.5 366.329C394.778 365.927 391.863 363.441 388.248 364.472L386.999 363.306C385.719 363.79 384.808 362.393 383.376 363.431C382.259 361.185 380.941 362.364 379.263 363.331C379.19 362.412 378.454 362.527 378.013 362.165C377.842 362.021 377.913 361.567 377.747 361.449C377.145 361.025 376.203 360.837 375.536 360.437C376.795 359.308 375.186 357.734 375.299 357.061C375.372 356.601 375.874 356.076 375.973 355.587C376.012 355.385 375.426 354.718 376.156 353.888C377.474 352.399 377.488 351.562 378.446 350.182C378.534 350.056 379.464 350.024 379.612 348.933C379.645 348.705 379.305 348.424 379.346 348.217C379.584 347.06 380.754 346.074 378.884 345.331C378.941 343.842 380.55 343.949 380.878 343.57C381.106 343.306 381.1 342.852 381.328 342.587C381.762 342.079 383.6 342.504 384.326 341.88C385.614 342.089 386.351 343.817 388.031 344.17C388.236 344.216 389.606 343.845 389.955 343.862C392.209 343.96 392.792 346.075 394.827 344.902C394.989 344.977 394.914 345.465 395.093 345.619C396.13 346.509 397.7 345.272 398.715 345.494C399.639 345.696 400.8 346.703 401.663 346.843C402.157 346.92 403.583 345.778 404.815 347.097ZM399.619 350.661L397.654 349.762L397.204 350.744L396.221 350.294L394.81 351.431L392.312 349.1C391.073 349.43 389.536 350.634 388.464 349.716L387.931 348.283L385.65 348.725C384.718 349.838 384.661 352.456 383.135 352.922L383.401 353.638C381.793 353.918 381.08 354.97 382.635 355.961C383.416 356.461 384.117 356.437 384.621 357.464L385.071 356.482C386.198 357.188 387.427 357.37 388.714 356.961L390.188 357.635L391.212 359.292L397.117 358.726L398.732 356.494C398.555 355.765 398.668 353.595 399.099 353.097C399.252 352.917 399.74 352.992 399.815 352.83L399.619 350.661Z" fill="#101211"/>
<path d="M383.073 333.581C383.432 332.979 383.633 332.239 383.972 331.616L385.783 331.554L385.896 331.308C384.498 330.817 384.644 329.576 385.434 328.422C385.553 328.252 386.076 328.318 386.15 328.156C386.224 327.994 386.058 326.111 387.008 324.983C387.319 324.615 388.947 324.706 389.002 323.222L390.476 323.897L391.887 322.76L392.87 323.21C393.208 324.796 394.598 324.226 395.327 324.334C397.196 324.613 398.154 325.818 398.766 325.908C399.167 325.966 400.528 325.044 400.914 325.108C402.077 325.295 402.913 326.427 403.413 327.44C404.743 326.48 405.351 327.424 406.319 327.581C406.623 327.631 407.44 327.001 407.751 327.048C408.74 327.198 409.575 327.984 410.145 326.361L411.128 326.811C410.558 327.679 410.929 328.675 411.927 328.96L410.762 330.209C410.812 330.345 411.326 330.313 411.499 330.546C412.275 331.602 411.981 334.231 411.911 335.488L412.893 335.938C412.567 337.417 411.446 337.492 410.183 337.966L409.958 338.457L410.308 341.588C407.643 342.71 405.047 346.032 403.421 341.705L402.93 341.48C400.709 342.698 398.372 340.155 396.093 339.54C395.485 339.374 394.316 339.047 393.411 338.907C393.212 338.875 391.41 339.566 390.772 339.481L389.747 337.824L387.824 338.132L385.346 336.404L384.897 337.387C383.743 336.675 382.486 335.422 383.452 334.052L383.073 333.581ZM404.624 334.531C405.155 333.579 405.252 332.275 406.352 332.053L405.195 330.038L403.783 331.175L401.593 330.767L400.919 332.241L395.76 329.88L392.608 329.626L392.158 330.608L390.193 329.709L389.785 331.899C388.992 331.346 387.951 331.648 387.636 332.699C389.459 333.117 391.347 333.238 393.203 332.869C394.634 335.248 395.994 333.808 396.867 333.952C397.47 334.05 398.23 334.754 398.833 334.851C399.088 334.891 399.869 334.559 401.247 334.768C401.943 334.872 403.488 333.274 404.624 334.531Z" fill="#111312"/>
<path d="M396.337 374.711L397.32 375.16C396.894 376.623 394.637 376.012 394.385 377.679C394.431 378.408 395.528 381.518 395.492 381.751C395.273 383.113 394.151 383.384 394.101 383.492C394.054 383.595 394.643 384.322 394.031 384.945L392.557 384.27L391.657 386.236L385.986 383.046L385.537 384.029L383.367 384.225C382.532 382.077 379.74 383.997 379.395 381.218L377.205 380.81L376.938 380.094C375.961 380.645 375.035 379.722 374.011 379.349L373.562 380.332L372.333 379.769L370.572 377.775L371.472 375.81L370.489 375.36C370.932 374.054 371.32 373.375 372.708 373.107L372.442 372.391L373.158 372.125C371.751 370.019 374.41 369.233 374.199 367.253C375.587 366.985 375.975 366.307 376.418 365.001C376.662 364.91 380.166 366.847 381.086 367.137C381.267 367.196 382.761 366.786 383.521 367.657L383.971 366.674C384.553 366.87 385.127 367.316 385.691 367.461C387.15 367.844 389.564 368.438 391.545 368.952C392.496 369.197 393.27 370.193 394.226 369.585L394.718 369.81C394.994 371.647 397.182 372.97 396.337 374.711ZM391.199 372.953C390.192 371.869 389.015 373 388.539 372.924C386.703 372.637 384.95 372.078 383.667 371.883C382.554 371.719 382.501 370.756 382.418 370.717C382.32 370.673 381.192 371.202 380.474 370.422C380.189 371.421 379.193 371.791 378.325 371.221C377.533 372.445 376.672 374.678 378.696 374.956C378.931 374.987 379.255 374.618 379.412 374.69L380.436 376.347C382.957 375.07 385.089 378.541 387.947 376.813L388.705 377.754C390.887 377.374 389.242 375.593 389.542 373.978L390.279 374.315L391.199 372.953Z" fill="#0F1110"/>
</svg>
