<svg width="407" height="407" viewBox="0 0 407 407" fill="none" xmlns="http://www.w3.org/2000/svg">
<path d="M95.2189 255.791C95.476 255.395 95.3464 255.03 96.1062 255.603C96.4543 254.954 97.6539 254.699 98.2357 255.15L99.1497 254.214C101.643 254.671 103.544 252.565 106.248 252.706C106.402 252.714 106.561 253.01 106.678 252.986C106.796 252.961 106.828 252.605 106.958 252.555C107.427 252.37 108.055 252.378 108.555 252.216L108.706 252.926L110.432 251.446L110.76 252.118C111.505 252.082 111.445 251.29 112.002 251.854L112.916 250.918L114.132 251.402C115.086 250.376 117.258 251.19 118.746 250.422C119.033 250.272 119.211 249.191 120.192 249.373L120.343 250.082C121.737 250.357 121.999 248.747 122.424 248.527C122.815 248.326 123.55 248.366 124.021 248.188C124.18 249.304 125.066 249.179 126.022 248.876L125.871 248.166C126.366 248.209 127.1 248.135 127.543 248.182C127.725 248.199 127.891 248.612 128.329 248.386C129.104 247.984 130.806 246.865 131.727 246.922C132.043 246.94 132.468 247.788 133.298 247.33C133.503 247.216 133.729 246.6 134.464 246.711L134.314 246.001L136.416 246.296C137.289 245.147 138.676 246.139 139.713 245.225L139.864 245.935C140.563 246.068 140.931 245.352 141.03 245.316C142.196 244.883 143.331 244.987 144.225 244.637C144.899 244.372 146.251 244.066 146.785 244.464L147.344 243.604C148.923 244.385 151.542 243.828 152.667 242.473L153.022 242.397C154.418 243.551 156.045 242.397 157.281 241.492C158.696 242.334 161.227 242.305 162.326 240.792L163.036 240.641C164.253 241.202 165.985 240.151 167.37 240.091C167.811 240.071 169.923 239.745 170.564 239.412C170.852 239.262 171.03 238.182 172.011 238.363L172.162 239.073C173.072 239.065 174.248 238.507 173.672 237.453C173.405 236.965 172.133 237.072 172.155 235.55C172.157 235.383 172.639 235.121 172.321 234.587L171.612 234.738L170.993 233.571L171.756 231.926L170.389 230.732L170.594 229.947L170.163 229.667L170.534 227.919L169.469 228.146L168.85 226.979C169.246 226.361 169.082 225.449 169.108 224.698C169.113 224.549 169.391 224.408 169.387 224.268C169.327 222.5 167.477 221.109 168.686 219.224L167.939 219.197C167.766 218.715 167.795 218.03 167.599 217.6C167.537 217.465 167.065 217.461 167.094 216.966C167.102 216.815 167.37 216.677 167.373 216.535C167.377 216.063 167.072 215.449 167.034 214.938L166.324 215.089L166.845 214.051L166.415 213.771C167.036 212.104 165.2 210.394 166.854 208.856L165.262 206.597C165.64 205.935 165.456 205.087 166.417 205.053L165.089 204.037L165.217 202.897L164.281 201.983C165.263 200.914 164.657 199.611 163.603 198.789C164.107 197.443 164.154 195.868 162.773 194.885L163.332 194.024L162.396 193.11L162.804 191.54L161.567 189.206C162.132 188.322 161.106 187.386 162.104 186.496C161.264 185.984 160.567 185.705 160.586 184.592C160.587 184.44 161.018 184.248 160.79 183.807C160.635 183.51 160.173 183.415 160.134 182.463C160.123 182.22 160.765 182.065 159.983 181.753L160.822 180.462C160.192 179.735 159.281 179.372 159.267 178.381L154.981 180.034L155.008 179.286L154.449 180.147C153.846 180.382 153.412 179.792 152.776 180.131C151.813 180.644 151.615 180.129 150.926 180.153C150.37 180.171 149.68 180.537 149.151 180.53C148.393 180.521 147.967 180.541 147.022 180.983C146.415 181.267 146.274 182.036 145.172 181.005L144.258 181.941L142.23 182.001L142.08 181.291C141.896 181.144 141.738 181.708 141.623 181.759C140.668 182.17 139.897 182.296 139.138 182.287C138.469 182.28 137.555 182.727 136.831 182.777L136.982 183.487L135.917 183.713C135.607 182.377 134.408 182.546 133.89 183.773L133.535 183.848C133.388 183.839 133.26 183.584 133.105 183.569C132.043 183.46 129.024 184.195 127.781 184.7C127.009 185.012 126.413 185.194 125.727 185.507C124.223 186.198 123.388 185.184 122.306 185.121C121.799 185.092 121.268 185.597 120.811 185.068L118.198 186.736L117.439 185.784L116.729 185.935L116.88 186.645L115.358 187.339L114.498 186.78L114.218 187.21C114.101 187.235 113.927 186.924 113.788 186.931C111.609 187.027 108.126 188.164 106.233 188.907L106.082 188.197C105.57 188.235 104.956 188.54 104.485 188.537C104.336 188.535 104.141 188.105 103.699 188.332C103.048 188.671 99.0217 190.183 98.5263 190.173C96.3282 190.129 94.8877 190.891 93.127 190.95C91.5393 191.001 90.4446 192.117 88.9434 192.209C87.5631 192.295 86.5413 192.13 85.3188 192.609C84.4043 192.966 83.1801 192.651 82.77 193.707L82.5126 195.987C83.5774 197.734 82.7248 199.989 84.074 201.59L84.1494 201.945C83.1695 202.955 83.9919 204.189 84.156 205.468L85.2207 205.242L85.2051 206.914L86.1412 207.828C85.7269 208.951 86.3931 210.323 86.1855 211.528L85.2338 212.287C85.3068 213.276 86.5398 213.964 85.7994 214.949L86.66 215.508L86.4026 217.788L87.5805 218.094C87.8971 218.624 87.4095 218.913 87.4141 219.057C87.4649 220.448 88.504 221.708 88.1682 222.606C89.1084 222.911 88.9617 223.74 89.61 224.154C89.2285 224.681 89.0826 225.339 88.3788 225.343C88.1516 226.456 89.6492 226.661 89.8584 227.069C90.3057 227.935 89.8372 229.047 89.9559 229.274C90.0251 229.408 90.3249 229.422 90.3862 229.554C90.7879 230.414 90.1955 231.1 90.5214 231.936L89.8116 232.087C89.731 232.668 90.3392 232.824 90.355 232.899C90.3701 232.97 89.8578 233.631 90.2641 234.216L91.4419 234.523L91.2378 235.308L91.7813 236.12L91.0714 236.271L91.7657 237.792L91.5083 240.073L92.9124 241.444L92.2026 241.594L92.746 242.406L92.187 243.267L92.6173 243.546L92.3378 243.977L92.8435 244.611C92.3804 245.4 92.7892 246.73 92.7369 247.601C92.715 247.97 91.8388 248.315 92.4041 249.527C92.7672 250.31 92.8875 250.964 93.2869 251.936C93.7707 253.113 93.2284 254.244 93.2935 255.458L94.4336 255.587C93.4739 255.609 93.5396 256.163 94.2672 256.55L94.3426 256.905C94.3102 257.468 92.7289 257.882 93.2623 258.804L90.9819 258.546C90.9515 257.67 89.773 257.727 89.8574 256.745C89.8742 256.545 90.3391 256.324 90.0238 255.782L89.3139 255.933C89.0265 255.226 89.6982 254.739 90.0393 254.11L89.0279 252.841L89.1566 251.701L88.6131 250.889L89.2853 250.56L88.7795 249.926L89.059 249.496L88.4779 248.506C89.2 247.837 88.9783 246.375 88.5845 245.516C87.8925 244.005 88.2329 242.657 87.755 241.612C86.9526 239.861 87.8853 239.833 87.937 238.977C87.9886 238.12 87.3933 237.134 86.6992 236.643L87.1075 235.073C86.3861 234.733 86.01 234.289 86.0206 233.449C86.0221 233.282 86.5043 233.02 86.187 232.486L85.4771 232.637L85.6435 231.674L84.3525 230.836L84.8362 229.62L84.3681 229.163L85.3198 228.404C85.2949 228.287 84.9637 228.265 84.8894 228.125C84.4512 227.302 85.3286 226.7 85.2977 226.554L84.8673 226.275L84.996 225.135L84.1354 224.576L84.3395 223.79L83.4034 222.877L83.6608 220.596L81.7132 218.413C82.4932 217.58 82.1481 216.095 81.7444 215.068C81.6702 214.876 81.075 213.96 81.0879 213.724C81.0967 213.574 81.3676 213.435 81.3674 213.294C81.3576 212.235 80.769 211.577 82.4477 211.395C82.4211 210.659 81.6205 210.714 82.1838 210.153C81.8429 209.02 81.2378 208.109 80.1608 207.615L80.8486 205.614L79.6108 203.28L80.4494 201.989L79.7174 200.29C79.4668 198.552 80.3498 196.038 79.2961 194.816L79.7798 193.6L79.1232 192.256L79.5425 191.61L80.6826 191.739C81.324 190.916 82.2665 191.18 83.0917 190.856C84.2732 190.394 85.2819 190.183 86.286 190.177C86.6638 190.175 87.1209 189.952 87.5282 189.914L87.3774 189.204L88.0872 189.053L88.2381 189.763L89.3028 189.536L89.152 188.827L92.6746 188.82L93.8681 187.454L94.5779 187.303C97.7455 187.669 100.771 185.88 103.677 186.482C103.811 186.413 103.828 186.109 103.957 186.052C105.21 185.508 106.227 185.388 107.43 184.943C108.221 184.649 109.262 184.643 110.092 184.378L110.243 185.087L111.867 184.001L112.018 184.71C112.518 184.549 113.145 184.552 113.615 184.371C113.745 184.321 113.765 183.994 113.895 183.941C114.695 183.607 115.565 183.508 116.304 183.058L117.621 183.149L117.772 183.859C118.645 182.991 119.729 182.49 120.993 182.433C123.834 182.307 128.031 181.375 131.286 180.246L132.501 180.729L134.125 179.642L135.975 179.62C136.422 179.384 138.269 178.981 139.169 178.942C139.96 178.907 142.024 178.984 143.149 178.467C143.747 178.192 145.697 177.347 146.623 177.358C146.853 177.361 147.269 178.078 147.688 177.132L148.016 177.804C148.753 177.903 148.833 176.97 149.107 176.83C149.97 176.387 150.69 176.824 150.957 176.808C152.363 176.721 153.497 175.771 155.039 175.941L155.19 176.651C155.819 176.191 156.773 176.685 156.862 176.666C156.979 176.641 157.012 176.289 157.142 176.236C158.007 175.893 158.2 176.275 159.271 175.783C159.745 175.568 160.512 175.598 161.046 175.406C162.339 176.345 163.663 176.534 163.714 178.363C163.735 179.09 163.054 179.832 164.522 180.418L164.113 181.988L164.34 183.053L166.212 184.881C166.113 185.147 165.663 185.561 165.653 185.741C165.582 186.91 166.228 188.709 165.772 189.796L166.709 190.71L166.429 191.141L167.086 192.485C166.549 193.348 166.995 194.504 167.968 194.894C167.159 196.583 167.884 198.25 167.884 199.734C168.731 200.422 168.87 202.21 169.348 203.133C169.504 203.43 170.69 203.741 170.472 204.934L169.763 205.085C170.542 205.906 170.788 206.944 169.973 207.822L170.667 209.344L171.415 209.37C171.054 209.625 171.249 210.055 171.211 210.156C171.067 210.527 170.387 211.217 170.372 211.447C170.294 212.736 171.831 212.899 171.723 214.313L171.013 214.463C171.258 215.317 171.312 216.288 171.579 217.125C171.801 217.824 172.223 219.04 172.537 219.889C172.573 219.989 173.289 220.356 173.156 221.056L172.446 221.207L173.571 223.008C172.716 223.876 173.213 224.731 173.426 225.821C174.071 225.539 174.472 226.081 175.035 226.407L175.11 226.762C174.919 227.188 174.405 227.653 174.271 228.053C174.244 228.133 174.069 228.793 174.067 228.838C174.05 230.258 175.153 231.712 176.317 232.44L176.376 234.468L177.086 234.317L177.63 235.129L177.576 236.624C178.205 236.928 178.404 237.865 177.953 238.399L178.701 238.425L178.648 239.92C178.264 240.054 177.739 240.028 177.405 240.184C177.027 240.357 176.322 241.494 176.212 241.551C175.697 241.816 174.687 241.756 174.082 242.003C172.556 242.624 170.398 243.098 168.759 243.134L168.2 243.995L167.49 244.146C165 243.25 162.714 244.975 160.241 244.944L159.402 246.235L158.262 246.106L156.563 246.838C155.757 246.279 155.212 245.753 154.207 246.226C152.595 246.984 152.905 246.733 151.367 246.829C149.452 246.947 148.671 248.526 146.904 248.519C146.778 248.52 145.815 248.035 145.689 248.036C145.255 248.035 142.473 248.615 142.139 248.79C141.842 248.946 141.531 250.132 140.338 249.914L141.221 252.323L141.931 252.173C142.248 252.706 141.766 252.968 141.764 253.135C141.752 254.039 142.801 254.959 142.798 256.254C142.798 256.533 142.065 257.712 142.428 258.002L143.594 257.383C144.411 258.312 145.108 257.596 145.875 257.641C146.209 257.662 146.977 258.62 147.978 257.936L147.827 257.226L148.892 257L148.741 256.29L151.021 256.547L151.172 257.257L153.86 255.944C153.969 256.003 153.316 256.753 154.264 256.971L155.813 255.529C156.537 256.162 157.458 255.751 158.093 255.787C158.656 255.819 159.07 257.4 159.992 256.867C159.412 258.048 158.961 258.548 159.53 259.933C159.477 260.014 159.145 259.918 158.998 260.046C158.726 260.285 158.207 261.23 157.804 261.412C157.144 261.708 156.255 261.819 155.739 261.295L155.981 260.687C155.461 260.738 154.877 261.01 154.384 261.026C154.078 261.035 152.837 260.85 152.458 260.693L151.19 261.705C149.878 260.963 148.537 261.248 147.64 262.459L146.5 262.33L145.231 263.342L143.585 262.579C143.246 262.691 142.835 262.679 142.521 262.805C141.45 263.232 141.059 262.945 139.961 262.978C138.714 263.013 137.44 264.244 135.954 264.2L136.105 264.91L135.293 265.453L133.217 264.41C131.557 264.541 130.487 265.547 128.856 265.708C128.739 264.72 127.905 264.634 127.033 264.983C126.086 265.362 124.96 265.163 123.914 266.016L122.698 265.533L120.822 266.302L120.972 267.012L120.16 267.555C119.902 267.195 119.484 267.391 119.375 267.351C118.586 267.059 117.87 265.891 116.944 266.384C116.757 266.483 116.569 267.15 116.385 267.245C115.296 267.81 114.19 267.581 113.319 266.783C112.37 267.467 109.732 268.143 108.426 268.194C108.282 268.199 107.99 267.712 107.463 268.028C106.99 266.867 107.506 265.889 107.139 264.758L108.231 263.784C108.538 264.094 108.984 264.117 109.371 263.913C110.111 263.518 112.102 262.591 113.275 263.083L113.63 263.008C114.211 261.779 115.592 262.15 116.092 260.63L116.447 260.555C117.192 261.038 118.25 260.747 119.083 260.737C119.915 260.727 121.676 260.861 122.428 260.768C123.429 260.644 124.445 260.276 125.445 260.127C125.191 259.283 125.16 258.281 124.879 257.465C124.833 257.337 124.502 257.315 124.449 257.185C123.888 255.821 125.033 254.401 123.34 253.712L123.786 252.318C123.398 252.449 122.89 252.431 122.543 252.582C122.411 252.64 122.391 252.964 122.264 253.013C120.253 253.763 119.375 252.124 117.65 253.993C116.842 253.527 115.878 253.457 115.015 253.811C114.885 253.865 114.867 254.18 114.735 254.241C114.09 254.542 113.462 254.289 113.111 255.328C112.753 255.197 112.065 254.508 111.82 254.49C111.203 254.447 110.504 254.858 110.352 253.689L109.68 254.017C109.744 254.389 110.537 254.929 109.766 255.297C108.995 255.665 108.109 255.649 107.486 255.04C106.251 256.244 103.441 255.888 101.882 256.601C100.564 257.204 100.698 256.664 99.6775 256.699C98.0201 256.754 96.973 257.744 95.1279 257.109C94.2919 256.823 95.013 256.603 95.0148 256.577L95.7246 256.426L95.6115 255.893L95.2189 255.791ZM115.997 184.236L115.288 184.387L115.438 185.096L116.148 184.946L115.997 184.236ZM137.703 249.732C136.779 249.818 135.707 250.483 134.966 249.943L133.062 251.46L130.707 250.848C129.743 251.602 128.513 251.663 127.233 251.957L126.534 253.033C126.545 253.698 127.87 254.381 127.976 254.581C128.233 255.076 128.21 256.086 128.428 256.711C128.474 256.838 128.817 256.866 128.859 256.99C129.125 257.828 129.18 258.799 129.424 259.652L128.79 260.158L130.311 259.464L131.78 260.265C131.573 259.57 132.165 259.404 131.478 258.845L134.673 258.166L134.823 258.876L136.598 258.499L136.749 259.209L137.814 258.983L137.663 258.273L139.082 257.971L138.184 257.235C138.635 256.701 138.435 255.764 137.807 255.46L138.291 254.244C136.863 253.672 137.578 253.109 137.559 252.545C137.524 251.473 136.885 250.878 137.703 249.732Z" fill="#192A33"/>
<path d="M312.433 150.29L312.686 150.607L313.573 150.419C314.105 150.651 314.593 151.029 315.144 150.827C315.254 151.293 315.328 151.782 315.445 152.247L314.305 152.118L314.252 153.613L315.596 152.956L316.607 154.225L315.898 154.376C316.717 155.526 317.922 157.129 316.765 158.458C317.257 158.642 317.528 159.642 317.497 160.157C317.478 160.472 316.63 160.897 317.089 161.727C317.16 161.853 317.423 161.871 317.519 162.007C317.614 162.142 317.572 162.378 317.632 162.539C316.936 162.58 316.547 163.178 316.793 163.83L317.503 163.679L317.585 167.557L318.053 168.014L317.343 168.165C317.543 168.771 317.534 169.549 317.758 170.117C317.808 170.247 318.164 170.279 318.189 170.396C318.306 170.95 317.534 172.657 319.147 173.16C317.989 174.834 319.977 176.493 317.997 178.227L318.579 179.216C317.728 180.309 319.452 181.319 318.827 182.131L319.688 182.69L319.838 183.4C319.312 184.413 320.32 185.683 319.452 186.82L320.615 188.799L320.131 190.015C320.921 190.466 321.648 190.972 322.003 191.842L321.052 192.601C321.103 193.121 321.379 193.704 321.391 194.198C321.395 194.305 320.906 194.691 321.262 195.338C321.336 195.475 321.632 195.49 321.693 195.618C322.12 196.532 322.313 197.701 323.043 198.484L322.333 198.635C322.59 199.422 322.435 200.49 323.179 200.866L323.254 201.221C322.393 202.146 323.001 204.046 323.374 205.276C323.411 205.402 323.766 205.43 323.804 205.556C324.098 206.521 324.175 207.599 324.445 208.573L323.735 208.723C323.661 209.336 324.224 209.402 324.279 209.535C325.258 211.964 324.667 214.245 325.787 216.634C326.26 217.639 325.734 218.184 325.174 218.989L326.019 221.221L326.729 221.07C327.304 223.6 327.161 226.02 327.958 228.599L328.668 228.448C328.957 229.548 329.236 230.598 328.599 231.616L329.18 232.605L329.051 233.745C330.569 235.426 329.717 237.892 331.398 239.553L330.71 241.554C331.584 242.155 331.863 243.052 331.986 244.065L333.051 243.839C333.366 244.484 332.808 244.758 332.605 245.232C332.461 245.566 332.69 246.367 331.728 246.345L332.74 247.614L333.805 247.388L333.283 248.426C334.027 248.802 333.872 249.87 334.128 250.657L332.048 252.212C331.449 252.276 330.799 252.255 330.198 252.234C328.614 252.182 327.97 251.981 326.573 252.634C325.865 252.966 322.113 253.815 321.249 253.765C320.884 253.742 320.528 252.868 319.324 253.432C318.386 253.872 317.61 254.041 316.915 254.315C316.014 254.669 314.643 254.43 314.151 255.273L312.505 254.51L311.591 255.446L310.526 255.672C309.558 254.798 308.216 255.083 307.687 256.275L306.369 256.184L306.218 255.475L305.331 255.663L304.137 257.029L299.701 257.972L299.905 257.187C299.054 257.267 298.06 257.723 297.243 257.752C297.099 257.757 296.81 257.269 296.28 257.586L296.13 256.876C295.372 256.714 294.728 257.526 294.608 257.57C292.605 258.27 290.311 257.652 288.725 259.562C285.623 259.105 282.31 259.749 279.422 261.168L278.206 260.684L277.013 262.051C276.589 262.011 275.491 261.295 275.367 261.288C274.623 261.245 273.69 261.844 272.807 261.46C271.946 262.89 270.929 262.345 270.043 262.419C269.299 262.48 268.495 262.814 267.736 262.909L267.585 262.199C267.423 262.259 267.188 262.217 267.053 262.312C266.264 262.858 266.527 262.668 265.455 262.651L265.606 263.361C264.826 263.215 264.037 264.147 263.73 264.131C263.579 264.122 263.44 263.851 263.299 263.851C262.644 263.857 262.256 264.336 261.589 263.658C261.528 263.597 261.59 263.402 261.514 263.303C261.415 263.172 261.17 263.15 261.083 263.024C260.965 262.849 261.048 262.527 260.932 262.314C260.86 262.181 260.563 262.163 260.502 262.035C260.149 261.279 260.317 260.709 260.835 260.109L260.216 258.942L259.506 259.093L259.28 258.028L260.345 257.802C260.312 257.104 259.679 256.712 259.054 256.964L259.704 254.785L259.198 254.151C259.869 252.191 258.518 250.393 258.346 248.397C258.156 246.208 257.63 244.606 257.774 242.212L256.838 241.298L257.224 237.878C256.25 237.358 256.352 236.13 255.632 235.62L255.556 235.265L256.508 234.506L255.459 233.06L255.942 231.844L255.512 231.565L255.603 230.247C254.711 230.607 254.535 229.758 253.919 229.306L254.177 227.026L253.09 225.402L253.702 223.046L252.578 221.245L253.529 220.487L252.593 219.573L252.964 217.825L252.216 217.798L252.829 215.442L251.968 214.883L251.817 214.173C251.887 212.667 251.423 211.653 251.622 209.764C251.644 209.555 252.1 209.291 251.751 208.623C251.607 208.346 250.678 208.269 250.777 207.532L251.842 207.306L250.868 206.214L251.072 205.429L250.491 204.44L251.609 202.718L250.673 201.804C251.971 200.249 250.76 198.336 250.682 196.609C250.643 195.727 250.838 195.319 250.154 194.125C250.077 193.989 249.792 193.975 249.724 193.845L249.648 193.49L250.6 192.732C250.467 192.348 250.492 191.824 250.336 191.49C250.083 190.946 249.15 190.692 249.174 189.511C249.176 189.366 249.451 189.226 249.453 189.081C249.47 188.287 249.106 187.915 249.748 186.978L249.039 187.128L248.269 185.252C248.971 184.364 249.55 183.355 248.451 182.617C249.226 180.575 249.977 178.468 247.675 177.217C248.441 176.283 248.552 174.868 248.061 173.797C247.999 173.662 247.527 173.658 247.555 173.162C247.564 173.012 247.831 172.874 247.835 172.732C247.851 171.308 247.094 170.693 248.576 169.236L248.07 168.602L249.199 167.805L250.894 169.671L251.603 169.52L251.308 171.623L252.395 173.247L251.836 174.107L252.267 174.387C251.459 176.154 253.089 177.751 253.602 178.926C253.753 179.272 253.735 179.78 253.866 180.168L253.156 180.319C253.031 181.042 253.7 181.327 253.775 181.485C254.338 182.69 253.465 183.046 253.442 183.411C253.387 184.305 253.703 185.881 253.803 186.858L253.094 187.009L253.244 187.719L253.954 187.568C253.874 188.149 254.482 188.305 254.498 188.38C254.522 188.497 254.214 188.67 254.218 188.81C254.256 189.74 254.684 189.761 254.671 190.94C254.667 191.359 254.938 191.899 254.972 192.359L253.779 193.726C254.165 194.808 255.523 195.091 255.447 196.339C255.42 196.771 254.263 197.403 254.759 198.34C254.95 198.7 255.715 198.823 256.114 198.608C257.145 199.146 255.599 200.546 255.642 200.749L256.072 201.028L256.132 203.056L255.422 203.207L256.396 204.298C256.783 205.143 256.349 205.528 256.343 205.793C256.301 207.516 256.994 208.704 256.893 210.127C256.865 210.523 255.661 211.35 256.915 211.978L256.899 213.65L257.647 213.677L257.443 214.462L257.873 214.741L257.593 215.172L258.175 216.161L257.487 218.162L258.068 219.151C257.514 220.055 257.624 220.989 257.924 221.964L257.214 222.115C257.605 222.384 257.743 223.071 257.795 223.104C257.851 223.141 258.633 222.893 258.973 223.41L259.048 223.765C258.886 224.204 257.952 225.189 257.93 225.487C257.905 225.856 258.272 226.223 257.802 226.627L258.722 229.213L259.432 229.063L260.202 230.939C259.568 232.48 260.992 234.121 260.789 235.451L261.499 235.3C262.021 236.254 261.042 237.389 262.065 237.962L261.581 239.178L262.162 240.167L261.21 240.926C261.495 241.707 261.457 242.888 261.776 243.588C261.874 243.804 262.817 244.42 262.788 244.857L262.024 246.502C262.619 246.68 262.432 247.165 262.606 247.492C262.741 247.745 264.265 248.653 264.644 248.357C265.268 248.762 263.384 250.617 263.36 251.041C263.329 251.593 263.965 254.258 264.189 254.945C264.306 255.302 265.007 255.932 264.996 256.999C264.986 258.066 265.41 258.336 265.374 258.774C265.353 259.008 264.882 259.464 265.283 260.092C265.909 260.144 265.972 259.444 266.449 259.473C268.076 259.569 270.605 259.183 271.849 258.696C272.92 258.276 274.465 258.126 275.473 258.297L276.285 257.754L276.134 257.044L278.313 257.694L278.592 257.264L280.163 257.672L281.356 256.306C282.977 256.095 284.743 256.584 285.895 254.97C286.634 255.778 287.112 255.287 287.82 255.303C287.965 255.306 288.105 255.58 288.25 255.583C289.658 255.61 289.915 253.883 291.396 253.801L291.724 254.474C291.854 254.353 291.9 254.08 292.004 254.043C293.634 253.478 297.461 253.752 297.833 253.547C298.009 253.45 298.022 252.935 298.645 253.003L298.796 253.713C299.409 253.787 299.471 253.225 299.608 253.17C300.471 252.816 301.436 252.885 302.243 253.352L303.792 251.91L305.109 252.001L305.26 252.711C305.756 252.546 306.4 252.561 306.857 252.371C307.485 252.112 308.309 251.365 308.836 251.209L310.761 251.542L312.132 250.138L312.891 251.089L313.601 250.938C314.126 250.148 315.819 250.241 316.795 250.26C318.571 250.291 320.595 249.779 322.27 249.839C322.456 249.843 322.972 250.335 323.587 249.929L323.436 249.22C324.738 248.835 325.91 248.657 327.034 249.568L328.723 247.911L328.217 247.277C328.733 246.195 328.121 244.537 327.108 243.803L327.946 242.512L327.796 241.802C327.127 241.395 326.822 239.961 327.268 239.318L325.826 237.769L325.955 236.629L325.524 236.349L326.008 235.134C325.554 234.637 324.689 233.114 324.695 232.445C324.697 232.282 325.179 232.016 324.861 231.483L323.796 231.709C323.389 231.12 323.896 230.501 323.887 230.391C323.828 229.38 323.238 228.433 323.994 227.401L323.337 226.057C323.937 225.124 323.222 223.926 322.379 223.293L322.228 222.583C323.146 221.628 321.369 220.284 321.27 219.819C321.254 219.741 321.725 219.184 321.324 218.324C320.447 216.451 320.12 213.13 320.095 210.795C320.095 210.654 320.365 210.515 320.374 210.365L319.137 208.031L320.164 207.627L319.303 207.068C319.104 206.462 319.113 205.684 318.888 205.116C318.838 204.986 318.483 204.954 318.458 204.837C318.433 204.72 318.83 203.114 318.323 202.454L319.033 202.304C319.206 201.48 318.101 199.909 318.112 199.717C318.18 198.568 317.972 197.974 317.939 197.157C317.903 196.289 317.611 195.892 316.852 195.533C317.712 194.62 317.337 193.309 316.566 192.441L317.276 192.29C317.36 191.724 316.742 191.54 316.733 191.478C316.71 191.335 317.006 189.432 316.99 189.198C316.942 188.57 316.653 187.89 316.575 187.246L315.865 187.397C315.373 186.285 315.973 185.564 316.365 184.509L314.847 182.605L315.406 181.745L314.976 181.465C314.947 180.526 315.406 179.768 315.943 179.034L315.196 179.007L314.97 177.943L314.222 177.916L315.695 176.119L314.947 176.093C314.677 175.397 315.426 175.13 314.684 174.85L314.888 174.065L314.231 172.721L314.511 172.291L313.967 171.479L314.677 171.328L313.832 169.096L314.784 168.338C314.077 166.933 314.966 165.112 313.916 164.256L314.604 162.255L313.834 160.379L314.507 160.05L314.001 159.416L314.13 158.276C313.313 157.733 314.881 156.157 313.526 155.436L314.01 154.221C313.3 153.919 313.817 153.82 313.821 153.333L311.692 153.786L311.843 154.496C311.289 154.613 310.973 154.399 310.348 154.442L310.197 153.733L309.487 153.883L309.638 154.593C309.408 154.631 309.049 154.774 308.928 154.744C308.909 154.741 308.896 154.365 308.675 154.427C308.548 154.665 308.477 154.788 308.218 154.895C308.109 154.94 307.977 154.931 307.863 154.97C307.092 155.234 307.087 155.002 306.519 155.627C305.981 156.22 303.15 157.578 302.663 157.559C302.405 157.547 302.429 157.241 302.411 157.242L302.158 156.924L301.803 157L301.701 157.392C301.232 157.473 300.742 157.577 300.281 157.694L300.028 157.377L298.963 157.603L298.861 157.996C297.767 158.395 296.882 158.368 295.995 159.346C295.452 158.865 294.689 159.275 293.968 159.406L293.855 158.874L293.032 158.492L293.258 159.557C292.099 159.918 292.069 160.366 291.457 160.682C291.286 160.77 290.788 160.868 290.569 160.87L290.343 159.805C289.569 159.777 289.748 160.284 289.709 160.311C288.95 160.877 288.104 160.878 287.3 161.194L287.149 160.484L286.084 160.71L286.16 161.065L286.945 161.269C286.522 161.426 285.456 162.064 285.144 162.394L283.573 161.986C282.111 163.643 276.468 163.236 275.308 164.113L274.243 164.339C273.833 164.244 273.05 164.904 272.57 164.323L270.769 165.448L270.086 164.851L268.995 165.825C268.442 166.054 267.717 165.837 267.473 166.519L267.118 166.595C266.771 166.394 266.518 166.092 266.08 166.073L265.827 165.756L265.472 165.832L265.37 166.224C264.304 166.74 263.258 167.493 262.224 168.005L261.084 167.877L259.74 168.533L259.31 168.254L257.965 168.91L257.003 168.744L256.271 167.045C256.856 166.779 258.388 166.795 258.755 166.517L259.642 166.328L259.745 165.936C260.031 165.853 260.34 165.824 260.632 165.747L260.938 164.569L261.293 164.494L261.444 165.204C261.952 165.062 262.292 164.764 262.788 164.547C263.403 164.279 264.047 164.031 264.665 163.777L264.767 163.385C264.997 163.336 265.289 163.222 265.477 163.234C265.495 163.234 265.471 163.539 265.729 163.551L267.251 162.857C267.333 162.895 267.719 162.861 267.859 163.099L268.569 162.948L269.762 161.582L271.865 161.877L273.107 161.613L273.209 161.22C273.554 161.132 273.923 161.054 274.274 160.994L274.527 161.311L275.769 161.047C276.457 161.209 276.764 160.524 276.936 160.428C277.082 160.349 279.151 160.358 280.028 160.142L280.281 160.459L280.636 160.384L280.738 159.991C283.053 159.277 284.236 158.592 286.696 158.355L286.949 158.672L288.014 158.446L288.116 158.053C289.588 157.807 290.128 157.607 291.563 157.692C292.059 157.72 292.069 157.243 292.198 157.186C292.5 157.055 292.927 157.075 293.263 156.96C293.492 156.851 293.344 156.66 293.365 156.567L294.429 156.341C294.585 156.408 295.183 156.604 295.215 156.545L295.064 155.835C295.787 155.607 296.683 155.599 297.371 155.345C298.282 155.007 300.592 154.742 300.743 154.628L302.34 154.289L302.442 153.896C302.677 153.854 302.947 153.745 303.152 153.746L303.582 154.025C303.804 154.022 304.082 153.867 304.292 153.874C304.4 153.877 304.523 153.81 304.647 153.799C304.679 154.144 304.825 154.08 305.077 154.078C305.181 154.079 305.315 154.028 305.432 154.003L307.788 154.615L307.561 153.551C308.94 153.439 307.569 153.045 307.615 152.055C307.63 152.041 307.488 151.774 307.717 151.663L309.11 152.109L308.959 151.399L310.126 150.78L311.976 150.758C312.095 150.517 312.179 150.403 312.433 150.29ZM296.355 156.673L295.645 156.824L295.796 157.534L296.506 157.383L296.355 156.673Z" fill="#192A33"/>
<path d="M224.094 148.286L224.804 148.135L224.584 150.593C225.981 151.613 225.073 154.466 225.64 155.562C225.815 155.9 227.304 156.83 227.233 157.82C227.218 158.031 226.685 158.475 226.674 158.681C226.638 159.301 227.13 160.287 227.164 160.988L228.342 161.294L228.719 163.069L228.046 163.397L228.832 163.601L228.801 166.946L229.978 167.253C230.003 167.37 229.695 167.543 229.699 167.683C229.743 168.779 230.26 169.396 228.619 169.582C228.546 170.202 229.088 170.239 229.162 170.394C229.499 171.105 229.257 172.113 230.566 171.764C230.401 173.239 231.518 173.855 231.917 174.63C232.15 175.082 231.904 175.772 232.574 175.975L231.901 176.303L232.8 177.04L232.187 179.395C232.779 179.577 232.596 180.043 232.769 180.385C233.508 181.838 232.87 181.42 232.866 182.59C232.862 183.881 233.911 184.59 233.545 185.784L235.024 187.51L234.073 188.268L234.563 190.575C235.465 190.265 235.985 191.037 235.967 191.946C235.952 192.68 235.325 193.429 236.064 194.151C235.327 195.079 235.044 195.688 235.528 196.862C235.581 196.991 235.896 197.01 235.958 197.141C236.185 197.635 236.431 198.094 236.614 198.486C236.999 199.302 236.597 199.628 236.561 199.981C236.538 200.204 236.728 200.453 236.712 200.691C236.664 201.391 235.495 202.084 234.771 202.03L234.922 202.74C234.309 202.666 234.247 203.229 234.11 203.284C232.83 203.808 231.756 203.205 230.614 202.543L229.42 203.909C228.221 203.047 226.942 204.169 225.925 203.168L225.011 204.104L223.795 203.62L222.956 204.911L221.816 204.783L220.827 205.364C219.892 205.295 218.165 204.62 217.406 204.978C216.003 205.636 214.305 205.57 212.868 206.313L212.007 205.754C211.413 206.451 210.194 206.718 209.319 207.067C208.84 207.258 208.23 207.547 207.619 207.799C206.486 208.262 205.585 207.619 204.603 208.44L204.452 207.73L203.489 207.564L201.51 208.726L200.752 207.774L199.23 208.469L198.267 208.302L198.116 207.592L197.407 207.743L197.218 206.856L196.04 206.55C195.803 206.396 196.598 204.551 195.55 204.243L195.475 203.888C195.956 203.289 196.15 202.895 195.845 202.14L196.555 201.989C196.558 200.972 195.834 200.759 195.075 200.263L195.484 198.693L195.053 198.413L195.182 197.273C194.372 196.881 193.549 195.524 193.514 194.66C193.498 194.255 193.655 193.996 193.212 193.24L193.696 192.025C193.279 190.552 191.739 188.542 192.21 186.776L190.617 184.518L191.456 183.227L191.026 182.948L191.154 181.807L190.724 181.528L190.966 180.92L190.256 181.071C189.942 180.867 190.887 178.874 191.185 178.462L191.148 178.285C189.779 178.442 188.762 177.2 188.77 175.822L189.48 175.672L189.178 174.252L188.468 174.403C188.181 173.696 188.852 173.208 189.194 172.579L189.118 172.224C188.49 171.92 188.291 170.983 188.741 170.45L187.843 169.713L188.553 169.563L188.644 168.245L187.557 166.621L188.32 164.975C188.295 164.858 187.939 164.826 187.89 164.696C187.274 163.127 186.848 161.296 186.834 159.727C186.834 159.586 187.104 159.447 187.113 159.296L187.038 158.942C186.682 158.787 186.288 158.344 185.962 158.243C185.776 158.186 185.511 158.409 185.43 158.356C185.378 158.322 185.24 157.636 184.849 157.366C185.231 157.404 185.781 156.935 185.8 156.608C185.868 155.477 184.292 154.903 185.552 153.693L184.54 152.424C184.55 152.278 184.805 152.149 184.82 151.994C184.922 150.993 184.634 149.756 184.217 149.155C184.768 148.626 184.192 147.939 184.194 147.305C184.194 147.164 184.669 146.254 184.678 146.089C184.696 145.77 184.434 145.343 184.452 145.024C184.478 144.57 186.202 142.909 185.661 141.985C186.73 141.535 187.327 140.589 188.704 140.597L188.855 141.307L190.528 141.322L191.442 140.386L192.759 140.477L192.609 139.767L194.738 139.315L194.889 140.025L196.26 138.62L199.605 138.652C200.455 137.607 202.083 138.478 203.509 137.822C203.719 137.726 203.807 136.902 204.574 137.596C204.93 136.463 205.981 136.852 206.477 136.079C206.832 136.211 207.528 136.905 207.768 136.917C208.128 136.937 210.587 136.407 210.962 136.239C211.338 136.07 212.046 134.929 212.156 134.872C213.456 134.199 213.992 135.45 214.512 135.484C214.896 135.51 215.589 135.615 215.652 135.613C216.359 135.589 217.217 135.192 217.959 135.123L217.695 133.881C218.081 133.691 217.617 132.621 218.394 132.805C218.686 132.873 219.125 133.366 219.47 133.504L220.632 135.482L220.148 136.698C221.274 137.301 221.008 138.7 221.816 139.311C221 140.182 221.433 141.577 221.785 142.656C222.162 143.804 222.769 144.495 222.819 145.775C222.865 146.952 223.806 147.313 224.094 148.286ZM218.056 137.328C217.376 137.183 216.954 137.937 216.89 137.947C216.767 137.965 216.614 137.679 216.459 137.667C215.647 137.614 215.228 138.578 214.835 138.754C213.755 139.24 212.543 138.599 211.388 139.116L211.539 139.825L209.662 140.595C208.204 140.471 206.941 141.177 205.328 141.145C205.008 141.139 204.614 141.345 204.263 141.371C203.655 142.613 202.86 142.081 201.575 142.684C200.981 142.963 199.216 142.792 198.584 142.578L198.229 142.653C197.498 143.769 196.068 143.636 195.337 144.752L194.046 143.913C193.271 145.677 191.531 144.544 190.04 145.135L190.19 145.845C189.068 146.444 188.587 145.559 187.555 145.663C187.863 146.202 187.242 146.564 187.464 146.981C187.953 147.904 187.876 148.184 188.272 149.035C188.627 149.798 188.22 150.329 188.331 151.062L189.079 151.089C188.489 151.786 189.256 152.813 189.252 153.649C189.253 153.775 188.767 154.738 188.768 154.864C188.764 155.492 189.178 156.321 189.221 156.994C189.228 157.1 188.723 157.727 189.13 158.312L190.308 158.618C190.398 159.322 190.703 160.058 190.76 160.747C190.859 161.928 190.717 163.268 191.869 164.221C191.168 166.874 193.065 169.676 193.173 172.105C193.222 173.226 193.918 173.723 194.094 174.691L193.384 174.842L193.406 176.692C194.43 176.311 194.624 177.554 195.52 177.912L195.429 179.23L194.719 179.381C195.045 180.217 194.453 180.906 194.854 181.763C194.916 181.898 195.239 181.915 195.285 182.043C195.538 182.731 195.547 183.626 195.775 184.35L196.839 184.123C197.155 184.665 196.685 184.898 196.673 185.086C196.649 185.462 197.94 186.405 197.126 187.216L197.782 188.56C197.187 189.161 197.135 190.088 197.525 190.84C197.619 191.024 198.291 191.215 198.385 191.399C198.675 191.961 199.009 193.811 198.634 194.314L199.721 195.938L199.335 199.358L200.346 200.627C200.271 201.708 200.405 201.727 200.723 202.402C200.879 202.732 200.85 203.261 200.987 203.644C201.996 202.962 202.739 203.913 203.09 203.939C203.459 203.965 203.826 203.597 204.23 204.068L205.144 203.132C207.059 203.957 209.243 202.261 210.898 202.28C211.418 202.285 212.107 201.946 212.673 201.903L212.979 200.725C213.509 200.409 213.798 200.896 213.942 200.892C214.652 200.867 215.507 200.474 216.249 200.402L216.399 201.111L217.211 200.568C218.984 200.481 220.744 200.033 222.686 200.147C222.874 200.159 223.272 200.616 223.547 200.706L223.724 200.668C223.414 199.766 224.186 199.246 225.095 199.264C226.514 199.292 226.192 199.502 227.579 198.736C227.695 198.671 229.598 198.6 230.139 198.563C230.38 198.545 230.875 199.301 231.344 198.122L229.977 196.928L230.31 195.003L229.299 193.734L230.341 191.658L229.33 190.389L229.587 188.108L228.259 187.092L228.968 186.942L228.425 186.13C229.122 184.958 228.593 183.709 228.773 182.532L228.064 182.683C228.175 181.95 227.549 181.709 227.445 181.516C227.302 181.246 227.665 181.105 227.143 180.096C227.029 179.872 227.051 179.489 226.955 179.209L227.906 178.45C227.005 177.963 228.17 176.339 226.948 175.686L227.228 175.256C226.187 174.846 226.185 174.402 225.786 173.707C225.709 173.572 225.424 173.558 225.355 173.428C225.215 173.154 225.746 172.054 225.296 171.4L226.005 171.25L225.311 169.728L225.87 168.867C225.337 168.19 225.589 168.066 225.531 167.27L224.821 167.421L224.127 165.899C225.405 164.53 223.502 162.541 224.211 161.059L222.845 159.866L223.291 158.472L222.581 158.623L222.43 157.913L223.14 157.763C223.112 156.949 222.774 156.668 222.091 156.316C222.409 155.473 221.525 153.654 220.627 152.918C220.961 151.804 220.174 150.788 221.088 149.852L220.937 149.142L220.077 148.583L220.281 147.798L219.345 146.884C219.147 146.496 219.755 146.055 219.398 145.389C219.324 145.249 218.993 145.227 218.968 145.11L219.247 144.679L218.742 144.045C219.973 142.333 217.978 140.486 217.89 138.291C217.885 138.147 218.372 137.854 218.056 137.328Z" fill="#192A33"/>
<path d="M226.907 234.86L227.134 235.925L227.843 235.774L228.296 237.904L229.006 237.753C229.69 238.754 228.732 239.521 228.711 239.856C228.694 240.126 229.038 241.745 229.163 241.985C229.258 242.169 229.929 242.36 230.024 242.544C230.255 242.988 230.169 243.875 230.401 244.319C230.496 244.503 231.162 244.691 231.261 244.878C231.668 245.637 230.951 246.227 230.574 246.879L231.004 247.158L230.8 247.943C231.357 248.311 231.874 250.379 231.834 251.062C231.824 251.243 231.374 251.657 231.275 251.923L232.452 252.229C233.017 253.051 232.102 253.654 232.082 253.977C232.035 254.785 232.478 255.28 233.169 255.601L232.889 256.031C233.985 256.581 233.427 258.299 233.493 258.871C233.888 262.27 236.124 265.493 235.249 268.884L235.83 269.873L235.411 270.519C234.544 270.577 233.98 270.923 233.357 271.326L231.711 270.563L230.722 271.144L229.963 270.192C229.566 270.247 229.437 270.983 229.226 271.091C228.294 271.574 225.759 271.917 224.817 271.286L224.462 271.361C224.101 272.421 222.488 271.781 222.332 271.814C222.243 271.833 221.572 272.673 220.81 272.508L220.66 271.798C220.38 271.898 219.996 271.869 219.772 271.987C218.714 272.538 218.15 272.383 217.008 272.945C216.117 271.947 215.182 272.973 214.298 272.408L212.953 273.065L212.157 271.935C212.173 271.784 212.421 271.657 212.437 271.505C212.537 270.545 212.178 270.15 212.339 269.3C210.388 268.535 211.363 265.142 210.853 264.052C210.081 262.409 209.637 260.649 208.657 258.954C208.27 258.287 207.138 254.596 207.096 253.351C207.076 252.787 207.791 252.224 206.364 251.652L206.772 250.081C206.059 249.52 205.67 247.689 206.093 246.887L205.082 245.618C205.538 244.519 204.664 242.605 204.252 241.714C203.97 241.102 203.98 240.484 204.445 240.003L205.763 240.094L205.612 239.385C206.095 239.212 206.78 239.24 207.209 239.045C208.213 238.584 209.318 238.445 210.683 237.936C213.093 237.039 215.976 236.626 218.34 235.567L219.911 235.976C221.237 234.885 223.678 235.287 225.31 235.199C225.817 235.173 226.382 234.92 226.907 234.86ZM224.143 235.818C223.409 235.87 223.059 236.509 223.305 237.109C221.303 237.657 219.064 237.84 217.094 238.429C216.383 238.643 214.805 239.475 214.05 239.817C213.505 240.063 213.154 240.242 212.706 240.474C212.468 240.595 210.799 240.226 210.426 240.217C209.885 240.202 209.432 240.587 208.753 240.201L208.904 240.911L207.737 241.53L207.129 241.288L207.824 242.81L207.453 244.558L208.163 244.407C208.223 245.11 209.123 245.75 209.884 245.525L209.858 246.272L208.97 246.461C209.007 247.262 208.736 247.943 209.105 248.843C209.772 250.464 211.109 252.654 210.667 254.447L210.818 255.157L212.335 257.06C211.884 257.642 212.139 258.841 212.787 259.189L212.583 259.975L213.24 261.319L212.96 261.749L214.402 263.298C213.623 263.997 214.032 266.095 214.446 266.998C214.507 267.126 214.808 267.143 214.877 267.277C215.104 267.719 214.674 267.914 214.673 268.062C214.669 268.482 214.94 269.022 214.974 269.482L216.405 270.105L217.927 269.411L218.078 270.121C218.66 269.912 219.509 269.943 220.03 269.706C220.158 269.646 220.175 269.345 220.309 269.276C220.66 269.094 221.355 269.695 221.982 269.292C222.107 269.358 221.395 270.076 222.385 270.319L222.767 269.496C223.758 269.252 224.436 268.952 225.225 269.715L226.849 268.628C227.948 268.654 227.881 268.635 228.623 268.251C228.847 268.133 229.231 268.163 229.51 268.063L229.661 268.773C230.427 268.64 231.016 268.637 231.323 267.863C230.39 267.438 231.067 267.098 231.097 266.799C231.134 266.449 230.75 266.06 231.225 265.658C230.358 264.7 230.817 263.23 229.482 262.69L230.32 261.399L229.702 260.233L228.992 260.383C228.983 259.139 228.69 258.285 228.63 256.936C228.614 256.546 228.676 255.91 228.684 255.441C228.704 254.264 227.052 253.454 228.36 252.171L227.929 251.892L228.134 251.107L226.261 249.279L226.934 248.95L226.39 248.139L226.67 247.708L225.809 247.149L226.217 245.579L225.281 244.665L225.969 242.664C225.286 242.312 224.948 242.031 224.92 241.218L225.629 241.067L225.011 239.9L225.215 239.115C223.836 238.525 224.079 237.123 224.143 235.818Z" fill="#192A33"/>
<path d="M191.833 265.311C192.354 265.233 192.948 264.989 193.43 264.971C193.577 264.966 193.866 265.454 194.393 265.138C194.538 265.942 193.859 266.657 194.807 267.09L194.388 267.735L193.501 267.924L193.727 268.989L193.017 269.139L193.243 270.204L191.824 270.506L192.012 271.393C191.849 271.584 191.755 271.878 191.593 272.039C191.204 272.425 190.453 272.559 190.184 273.265C190.117 273.439 190.123 274.232 190.056 274.405C189.815 275.035 189.397 275.18 188.749 275.239C189.091 276.343 188.326 276.253 187.733 276.568C187.447 276.722 186.891 277.823 187.147 278.176L185.297 278.199C185.371 277.586 184.809 277.523 184.754 277.387C184.335 276.355 184.785 275.596 184.543 274.649L185.963 274.348L185.812 273.638L186.522 273.487L186.575 271.992C187.429 271.855 188.709 271.19 188.403 270.12L187.376 270.523C185.265 270.156 182.888 271.748 180.772 271.741C180.646 271.742 179.687 271.259 179.557 271.257C178.498 271.249 177.838 272.246 177.223 272.495C176.663 272.722 175.874 272.708 175.271 272.91L175.12 272.2L174.233 272.389L173.319 273.325C172.567 272.594 171.33 272.657 170.759 273.498L169.366 273.052C170.295 273.967 169.587 273.428 169.06 274.23L168.705 274.305C168.304 273.83 167.911 274.214 167.565 274.176C166.73 274.087 166.472 273.607 165.866 274.908L165.156 275.059L164.295 274.5L164.016 274.93L162.521 274.877C161.706 275.688 160.147 275.14 158.616 275.707C157.086 276.273 155.741 276.366 154.433 276.966C153.868 277.224 152.937 277.188 152.303 277.419L151.545 276.467C150.896 276.486 150.455 277.066 150.706 277.758C149.824 278.042 149.303 278.104 148.603 277.463L148.324 277.893L146.651 277.878L146.979 278.55L145.737 278.814L145.586 278.104L142.618 279.847L142.392 278.783L140.946 279.832C140.544 279.357 140.155 279.74 139.806 279.703C138.573 279.576 138.635 280.163 137.676 280.156C137.546 280.154 136.586 279.671 136.46 279.672C135.881 279.669 135.129 280.04 134.508 280.087C134.335 279.601 134.364 278.919 134.169 278.49C134.107 278.354 133.635 278.351 133.663 277.855C133.672 277.705 133.943 277.566 133.943 277.425C133.941 277.084 133.697 276.668 133.717 276.36C133.752 275.741 134.983 275.041 133.189 273.876C133.761 273.339 133.131 272.627 133.167 272.026C133.204 271.38 134.025 271.387 134.296 271.229C134.513 271.101 134.725 270.508 135.463 270.61L135.613 271.32C136.516 271.01 137.036 271.782 137.017 272.691C137.015 272.836 136.74 272.976 136.738 273.122C136.714 274.369 138.223 274.995 138.164 276.342L138.976 275.799L139.406 276.079L140.041 275.573L141.536 275.626L142.095 274.765L142.805 274.615C144.237 275.82 146.569 274.175 148.279 274.193C149.361 274.205 149.792 273.894 151.194 273.945C153.344 274.026 155.012 273.178 156.948 273.093C157.088 273.086 157.262 273.398 157.379 273.373C157.496 273.348 158.909 272.072 159.18 272.248L159.331 272.958C159.512 273.076 161.731 272.311 162.348 272.317C162.622 272.318 164.436 272.282 164.553 272.22C164.719 272.132 164.742 271.608 165.364 271.676L165.515 272.386C166.242 272.506 166.32 271.562 166.607 271.412C167.118 271.148 171.184 270.329 171.931 270.281C172.077 270.272 172.589 270.727 173.426 270.334C175.261 269.473 175.695 269.455 177.685 269.43C178.051 269.426 178.513 269.031 178.647 269.596L177.938 269.747L178.088 270.457L178.798 270.306L178.647 269.596C179.374 269.716 179.452 268.772 179.739 268.622C180.026 268.472 181.468 268.188 181.868 268.17C182.008 268.162 182.182 268.474 182.299 268.449C182.416 268.424 182.448 268.069 182.578 268.019C183.794 267.542 185.175 267.638 186.127 267.265C186.596 267.08 187.225 267.087 187.725 266.925L185.32 265.211L184.686 265.716L184.04 265.297L183.852 264.41C183.081 264.692 182.506 263.906 181.813 263.545C181.938 263.244 182.482 263.098 182.765 262.786L183.829 262.56C184.095 262.622 184.707 262.273 185.072 262.296C185.391 262.313 185.919 263.192 186.642 262.704L189.757 264.268L189.703 265.763C190.412 265.642 191.121 265.417 191.833 265.311Z" fill="#192A33"/>
<path d="M247.009 130.434C247.063 131.194 247.584 131.829 248.134 132.236L248.08 133.731L249.635 135.811C250.043 135.773 250.496 135.551 250.877 135.548C251.018 135.547 251.163 135.824 251.308 135.827C252.598 135.857 253.555 135.491 254.577 135.503C255.351 135.513 257.278 135.052 257.696 134.47L259.342 135.233L260.256 134.297C260.522 134.396 260.937 134.846 261.117 134.856C262.109 134.916 263.761 134.45 264.742 134.457C265.128 134.46 265.32 134.946 266.161 134.155L267.958 135.628C269.023 134.897 269.893 135.866 270.238 135.885C270.557 135.903 270.984 135.642 271.303 135.659C272.096 135.706 272.288 137.119 271.933 137.751C272.518 137.345 273.18 137.857 273.251 137.842C273.368 137.817 273.4 137.462 273.53 137.412C274.15 137.169 275.627 136.858 275.95 137.454C276.273 138.049 275.617 138.801 276.01 139.481L277.075 139.255L277.226 139.965L277.935 139.814C278.072 140.197 278.044 140.726 278.199 141.056C278.913 142.563 280.443 144.196 281.105 146.003L282.396 146.842C282.658 147.461 281.725 148.605 281.708 148.842C281.677 149.305 282.04 149.633 281.44 150.198C281.211 150.413 280.65 150.039 281.058 151.021L278.439 149.166L278.643 148.381C276.949 147.235 276.565 144.972 274.393 144.091L274.672 143.66L273.548 141.859C272.405 142.451 272.123 141.772 271.445 141.564C271.258 141.507 270.994 141.73 270.912 141.677C270.831 141.624 270.927 141.292 270.799 141.145C270.446 140.738 269.584 140.261 269.003 139.672C268.539 139.203 268.018 139.403 267.572 139.048L266.228 139.705C265.187 139.032 264.552 138.28 263.264 138.851C262.597 136.986 261.266 138.244 260.425 139.454L260.021 138.427L259.032 139.008L257.741 138.17L256.396 138.826L255.536 138.267C254.941 138.906 253.465 139.712 252.492 139.656C252.06 139.629 251.424 138.469 250.491 138.968C250.131 139.16 250.005 139.928 250.223 140.323C250.326 140.513 250.989 140.699 251.084 140.882C251.285 141.274 251.245 142.009 251.423 142.48L250.713 142.63C250.966 143.367 250.223 144.445 249.418 144.389C249.12 144.367 248.135 143.434 247.696 143.271C247.346 143.298 246.948 143.504 246.631 143.498C245.264 143.469 244.309 142.952 243.06 142.402L242.426 142.907C241.512 142.241 240.56 141.705 239.462 142.053L238.692 140.177C239.004 139.584 239.701 139.091 239.418 138.353L240.456 138.875C241.054 138.388 240.69 137.934 240.724 137.519C240.731 137.429 241.623 136.056 241.703 136.013C241.987 135.867 242.483 135.933 242.768 135.787C242.857 135.738 243.526 134.261 243.67 133.926C243.725 133.799 243.563 133.37 244.014 132.925C244.827 132.122 244.678 131.649 245.132 131.204C245.193 131.143 245.385 131.206 245.487 131.129C245.625 131.025 245.645 130.754 245.767 130.698C246.097 130.543 246.626 130.571 247.009 130.434ZM245.58 135.931L244.629 136.69L245.097 137.147C244.706 137.141 243.251 138.585 243.231 138.841C243.199 139.23 243.447 139.615 243.14 140.159C243.679 139.852 244.041 140.472 244.458 140.25C245.411 139.743 245.365 140.295 245.953 140.303C246.321 140.31 246.79 140.073 247.195 140.039C247.058 139.657 247.087 139.128 246.931 138.797C246.87 138.665 246.57 138.651 246.501 138.518C246.23 137.993 247.081 138.02 246.199 137.098C245.837 136.719 245.569 136.627 245.58 135.931Z" fill="#192A33"/>
<path d="M130.823 198.149C130.776 198.222 130.974 198.473 130.937 198.682C130.785 199.485 130.165 200.778 131.109 201.241L130.067 203.318L130.61 204.13C129.914 204.17 129.525 204.768 129.772 205.421L129.062 205.571L129.53 206.028L128.336 207.395L128.563 208.459L126.81 210.687C128.125 211.568 126.995 213.615 125.601 213.726C125.659 214.522 125.407 214.646 125.94 215.323C124.775 217.31 125.459 218.712 125.576 220.593C125.584 220.699 125.079 221.326 125.485 221.911L123.964 222.605L122.114 222.627C121.81 222.365 121.298 222.192 121.038 221.928C120.669 221.554 120.483 220.733 119.811 220.52C119.624 220.459 119.361 220.686 119.279 220.633C119.214 220.591 118.994 219.644 118.305 219.542L118.434 218.401L117.573 217.842L118.057 216.627L117.551 215.992L117.793 215.385C116.875 215.743 116.71 214.862 116.109 214.444L116.313 213.659L114.366 211.476C114.918 211.017 114.811 209.975 115.269 209.615C115.726 209.254 115.977 209.754 115.952 210.211C117.518 210.075 118.147 210.628 118.254 212.319L118.964 212.168L120.164 214.324L121.251 215.948L122.176 215.937L123.079 214.076L122.498 213.087C122.505 212.948 122.745 212.819 122.777 212.656C122.818 212.447 122.614 212.201 122.664 212.124C122.717 212.042 123.05 212.142 123.197 212.011C123.359 211.869 123.451 211.549 123.616 211.365C122.787 209.698 123.913 209.114 123.964 207.767L124.674 207.616L124.69 205.944L125.641 205.185L125.098 204.373L125.861 202.727L125.431 202.448C125.912 201.849 126.106 201.455 125.801 200.7L126.511 200.549C126.707 198.975 127.414 197.709 127.773 196.015C127.935 195.257 128.632 194.575 128.423 193.837C128.831 193.798 129.288 193.575 129.666 193.573C129.921 193.571 130.241 193.959 131.161 193.626C131.22 193.606 131.678 192.812 132.086 193.615C132.454 194.338 132.258 194.966 131.753 195.541L132.259 196.175C131.941 196.721 131.913 197.55 131.356 198.036C131.209 198.164 130.877 198.067 130.823 198.149Z" fill="#192A33"/>
<path d="M117.003 232.616C116.983 232.379 116.888 232.143 116.853 231.906C117.477 231.966 117.457 231.503 117.664 231.362C118.018 231.124 118.693 231.226 118.933 230.351L119.719 230.555L121.063 229.899C122.56 230.745 123.71 228.88 124.816 228.359C125.605 227.988 127.841 228.488 129.151 227.809C129.956 227.393 128.875 227.141 130.85 227.077C132.224 227.034 133.041 226.041 134.399 226.323L135.211 225.78C135.173 225.372 134.95 224.919 134.947 224.537C134.947 224.397 135.224 224.252 135.227 224.107C135.247 223.209 135.057 222.786 135.484 221.827C134.608 221.249 135.165 219.977 133.891 219.569L134.563 219.24C134.539 218.426 134.188 218.137 133.514 217.794L134.073 216.933L133.137 216.019L133.341 215.234L132.911 214.955L133.04 213.814L132.609 213.535L132.738 212.395C131.571 211.86 131.361 210.873 132.21 209.91L131.554 208.566L132.241 206.565L131.811 206.286C132.168 205.275 132.966 205.261 133.499 204.629C134.571 204.646 135.596 204.947 135.511 206.241C135.496 206.449 134.967 206.891 134.952 207.102C134.936 207.339 135.13 207.591 135.103 207.812C135.076 208.033 134.624 208.229 134.936 208.775L135.646 208.624C135.577 209.432 137.06 210.442 137.201 210.705C137.375 211.031 137.188 211.516 137.782 211.694C137.651 212.052 136.962 212.74 136.944 212.985C136.918 213.354 137.286 213.721 136.815 214.125L138.612 215.598C137.722 216.384 138.504 217.186 138 217.954L138.936 218.868L138.452 220.083L138.882 220.363L138.791 221.681L139.577 221.885L138.904 222.213C138.94 223.062 139.553 224.305 139.508 225.052C139.496 225.259 138.96 225.706 138.949 225.913C138.931 226.232 139.198 226.665 139.175 226.978C139.161 227.174 138.693 227.399 139.009 227.94C138.279 228.207 137.725 228.796 136.777 228.785C135.07 228.766 134.453 229.632 132.873 229.615C131.293 229.598 130.465 231.217 129.248 230.014L128.538 230.165L127.345 231.531L125.065 231.274L124.506 232.135L123.796 232.285L122.935 231.726L122.021 232.663L119.741 232.405L117.939 233.53C117.934 232.997 117.557 232.639 117.003 232.616Z" fill="#192A33"/>
<path d="M129.822 162.009C129.468 162.07 129.11 162.168 128.757 162.236L128.606 161.526L125.918 162.839C125.96 163.353 126.26 163.961 126.257 164.436C126.258 164.562 125.773 165.526 125.774 165.652C125.773 166.086 126.08 166.64 126.075 167.071C126.073 167.22 125.644 167.415 125.871 167.857C125.94 167.99 126.24 168.004 126.301 168.136C126.552 168.669 126.302 169.342 127.173 169.62L128.646 167.823C129.709 167.694 130.59 166.724 131.765 166.79C132.575 166.833 132.657 168.511 132.825 169.161C131.653 169.232 130.736 170.644 131.148 171.743L129.449 172.475L129.6 173.185C129.08 173.132 127.112 174.659 126.987 174.853C126.95 174.909 127.198 175.691 126.68 176.031L126.326 176.106C125.508 175.419 124.071 175.064 123.846 174.037C122.845 174.13 121.194 173.413 120.097 172.978C119.822 172.87 117.797 171.564 117.73 171.441C117.56 171.128 117.752 170.639 117.149 170.452C117.607 169.03 118.84 169.506 119.547 168.644L122.155 169.573L122.005 168.864L122.956 168.105L122.526 167.825C123.236 167.274 122.854 166.61 122.934 166.255C123.097 165.553 123.628 164.946 123.229 164.152C122.12 164.503 121.504 163.243 122.105 162.351L121.637 161.894L122.701 161.668L122.513 160.78C123.105 159.449 124.244 160.305 125.315 160L125.465 160.709L126.277 160.166L126.681 161.193C127.641 161.171 127.575 160.617 126.847 160.23L127.267 159.585L128.052 159.789L129.041 159.208C129.245 159.383 129.376 159.441 129.649 159.45L129.875 160.514L130.23 160.439C129.967 159.935 130.338 159.741 130.359 159.299C130.746 159.113 130.858 158.629 131.526 158.68C131.922 159.011 132.479 158.926 132.919 159.126C132.955 159.14 133.089 159.683 133.527 159.368L133.629 158.975L136.823 158.296L136.898 158.651L135.705 160.018L137.555 159.996L137.608 158.5L137.812 157.715C138.048 157.672 138.284 157.596 138.522 157.564L138.775 157.882L139.307 157.768C139.418 157.767 139.539 157.708 139.662 157.693L139.915 158.01L140.27 157.935L140.372 157.542C140.609 157.507 140.845 157.431 141.082 157.391L141.335 157.709L142.577 157.445C143.946 157.692 144.164 157.475 145.239 156.879C146.046 156.433 146.145 157.039 146.202 157.046L146.503 158.465C146.429 158.537 146.219 158.47 146.148 158.541L145.896 158.223L144.653 158.487L144.729 158.842L146.148 158.541C146.115 158.574 146.048 159.219 145.767 159.364C145.042 159.74 143.752 159.395 143.358 160.246C143.138 160.312 143.124 159.932 143.105 159.929L142.879 158.864L142.169 159.015L142.637 159.472L142.75 160.005C141.382 160.202 140.372 159.568 139.582 159.936C138.566 160.408 137.62 160.304 136.211 160.652L135.958 160.335L135.603 160.41L135.501 160.803C135.484 160.81 135.63 161.08 135.399 161.196C134.862 161.462 133.413 160.861 132.661 161.406L132.129 161.519L131.747 162.342C131.384 162.36 131.032 162.116 130.887 161.783C130.756 161.484 130.773 161.054 130.661 160.718L130.306 160.794L130.456 161.504L129.822 162.009Z" fill="#192A33"/>
<path d="M271.882 181.162L273.022 181.291L273.075 179.796L273.936 180.355L274.985 181.801C274.551 182.532 274.414 183.688 274.803 184.436C275.023 184.861 276.633 185.123 276.358 186.517C274.884 186.808 275.27 188.625 276.735 188.292C277.14 188.907 276.649 189.423 276.644 189.609C276.621 190.301 277.127 190.798 276.311 191.535L276.742 191.814L276.726 193.487C275.681 193.876 275.189 194.841 273.86 194.838C273.734 194.839 272.775 194.356 272.645 194.354C271.697 194.344 271.283 195.07 269.45 195.033C268.486 195.015 268.067 195.872 267.396 195.84L266.788 195.598L266.939 196.308L266.127 196.852C265.83 196.588 265.292 196.413 265.051 196.153C264.093 195.114 264.1 193.873 263.588 192.755C263.11 191.71 262.943 190.766 262.909 189.56C262.861 187.938 261.524 187.688 261.596 186.872C261.609 186.724 261.859 186.593 261.875 186.441C261.949 185.758 261.703 184.723 262.133 184.161L261.665 183.704C262.645 183.885 262.824 182.805 263.111 182.655C264.434 181.969 266.035 182.26 266.789 180.761L267.65 181.32L271.048 179.856L271.693 180.275L271.882 181.162ZM271.119 182.808C270.731 182.939 270.223 182.921 269.877 183.072C269.283 183.332 268.277 183.905 267.973 184.589L266.048 184.256L264.715 185.838C265.497 186.15 264.858 186.301 264.865 186.548C264.887 187.137 265.214 187.542 264.85 188.22L265.597 188.247L264.985 190.603L265.642 191.947C265.078 192.505 265.87 192.444 265.906 193.189C266.376 193.012 267.112 193.052 267.503 192.85C267.79 192.7 267.868 191.756 268.594 191.876L268.745 192.586C269.133 192.455 269.641 192.474 269.987 192.322C270.12 192.264 270.14 191.941 270.267 191.892C271.064 191.593 272.083 191.866 272.461 190.869L271.487 189.778L272.438 189.019L271.578 188.46C272.882 187.178 271.243 186.376 271.254 185.191L271.738 183.975L271.119 182.808Z" fill="#192A33"/>
<path d="M279.179 225.98L279.33 226.69L280.293 226.856L281.029 225.958C281.337 226.497 280.716 226.859 280.938 227.275C281.012 227.412 281.311 227.426 281.368 227.555C281.668 228.248 281.687 229.105 282.531 229.534L281.972 230.394L282.832 230.953L282.295 233.664C283.042 233.999 282.834 234.996 283.103 235.718C283.155 235.859 283.774 236.136 283.759 237.062C283.754 237.297 283.04 237.709 283.986 238.127L283.362 239.558C282.724 239.786 281.805 239.755 281.233 240.01C281.117 240.061 280.434 240.896 280.319 240.946C279.506 241.312 277.769 241.15 276.974 240.915L275.35 242.002C274.482 241.148 273.627 241.645 272.537 241.858L272.779 241.25L272.085 239.728L271.02 239.955L271.073 238.459L270.186 238.648L269.465 237.874L270.024 237.013C269.911 236.674 269.924 236.263 269.798 235.948C269.629 235.52 269.449 235.44 269.496 234.529C269.504 234.375 269.798 234.22 269.776 234.098C269.763 234.038 269.149 233.853 269.232 233.286L269.942 233.136C269.538 232.698 269.233 232.259 269.248 231.614C269.264 230.817 269.686 230.427 268.795 229.484L268.962 228.522C270.148 227.925 270.644 229.366 271.672 229.058C271.391 228.414 271.932 228.013 272.258 227.45L272.688 227.73C273.33 226.366 274.81 227.783 275.248 227.557C275.44 227.323 276.397 226.593 276.517 226.545C277.272 226.24 278.37 226.256 279.179 225.98ZM274.738 229.52L271.748 229.413L272.291 230.225L271.732 231.086C272.373 231.536 271.586 233.243 272.69 233.85C271.658 235.92 272.846 235.612 273.218 236.334C273.679 237.227 273.164 238.141 273.429 239.072C273.955 238.756 274.248 239.243 274.392 239.238C276.032 239.172 277.404 237.545 279.006 238.258L279.818 237.714C279.58 237.416 279.461 237.26 279.274 236.902C278.855 236.098 278.993 235.927 278.972 235.483C278.951 234.979 278.688 234.408 278.633 233.886L277.923 234.036C277.618 233.281 277.813 232.888 278.294 232.288L277.713 231.299C278.389 230.569 277.452 230.457 277.373 229.702C276.788 230.108 276.127 229.596 276.056 229.611C275.939 229.636 275.909 229.984 275.776 230.041C275.528 230.15 275.17 230.137 274.889 230.23L274.738 229.52Z" fill="#192A33"/>
<path d="M278.763 203.07C279.066 204.025 279.191 204.911 278.075 205.071C277.948 205.869 279.286 206.071 279.479 206.441C279.712 206.893 279.467 207.587 280.136 207.786L280.211 208.141C279.323 208.971 279.937 209.557 279.954 210.421C279.959 210.635 279.482 211.43 279.938 212.094L280.648 211.943L281.101 214.072C280.374 213.952 280.296 214.896 280.009 215.046C279.722 215.196 278.611 215.399 278.235 215.423C278.099 215.43 277.944 215.14 277.804 215.144C277.078 215.164 276.42 215.419 275.928 215.913L275.777 215.203C274.687 215.416 273.832 215.913 272.964 215.059L271.975 215.64L270.759 215.157C270.36 216.299 269.593 215.987 268.78 216.319C268.644 216.374 268.581 216.936 267.968 216.862C268.036 216.24 267.517 216.224 267.425 216.05C267.277 215.774 267.345 215.27 267.199 214.986C266.998 214.598 266.017 214.61 266.036 213.007C266.056 211.404 265.032 209.622 265.691 207.887L265.034 206.543L267.002 204.456L267.787 204.66C268.3 203.497 270.59 203.185 271.895 203.045C273.201 202.905 275.47 203.599 276.305 202.85L277.596 203.689L278.763 203.07ZM275.87 205.168C275.375 205.333 274.73 205.318 274.273 205.507C273.015 206.027 271.914 206.398 270.369 206.337C270.219 206.332 270.079 206.054 269.939 206.057C269.444 206.07 268.861 206.346 268.341 206.397C268.76 207.617 268.744 209.338 269.209 210.478C269.261 210.604 269.562 210.622 269.639 210.758L269.661 212.608L270.205 213.42C270.615 213.377 271.056 213.168 271.447 213.156C271.59 213.151 271.76 213.46 271.877 213.435C272.055 213.398 271.999 212.682 272.587 213.285L273.931 212.628C274.535 213.167 274.362 212.685 274.641 212.477C274.743 212.4 274.935 212.463 274.996 212.402C275.698 211.707 275.154 211.293 275.189 210.691C275.206 210.406 275.899 208.794 275.877 208.691L275.371 208.056L275.93 207.196L275.424 206.561L275.87 205.168Z" fill="#192A33"/>
<path d="M108.76 221.755L107.13 219.319L107.689 218.459L107.538 217.749C105.958 216.371 105.863 213.635 105.901 211.791C105.921 210.714 104.521 209.973 105.298 208.951L104.437 208.392L104.001 204.59L105.092 203.616L105.953 204.175L107.931 203.013L108.717 203.217L109.631 202.281C109.748 202.256 109.903 202.55 110.061 202.561C110.67 202.602 114.03 200.779 114.879 200.795C116.182 200.819 118.137 200.54 119.063 199.535L120.203 199.664L121.724 198.97C121.87 199.866 121.452 200.674 120.935 201.363L120.504 201.084C120.302 201.282 120.112 201.853 119.945 201.944C118.458 202.75 116.961 203.331 115.558 203.989C114.694 204.395 113.763 203.747 112.82 204.2L112.971 204.91L111.653 204.819C111.305 205.468 110.106 205.723 109.524 205.271C109.147 206.204 107.17 206.328 107.126 207.079L107.201 207.434C108.05 207.921 107.799 209.306 108.16 210.198C108.214 210.331 108.777 210.397 108.703 211.01L109.413 210.859C109.946 211.781 108.365 212.195 108.332 212.758L108.408 213.113C109.301 213.72 109.148 215.059 109.011 215.952L110.098 217.576L109.539 218.437C110.192 218.61 110.218 220.618 110.105 221.098C110.092 221.146 109.56 221.188 109.9 221.884L110.61 221.733L110.761 222.443L110.406 222.518L109.976 222.239L110.127 222.948C109.35 223.395 109.051 222.828 108.987 222.82L109.304 222.567L109.319 220.894L108.964 220.97C109.307 221.672 108.769 221.709 108.76 221.755Z" fill="#192A33"/>
<path d="M311.254 230.293L311.745 232.6L310.793 233.359L310.944 234.069L308.433 235.344L307.217 234.86L306.228 235.442L305.442 235.237C305.033 236.311 303.65 235.514 303.313 235.69L302.119 237.056L299.688 236.089C299.224 236.592 299.237 236.986 299.457 237.622C299.053 237.656 298.584 237.893 298.215 237.886C297.356 237.875 296.749 236.765 295.505 237.349C295.373 237.41 295.357 237.718 295.225 237.779C294.402 238.166 293.485 238.004 293.402 237.054C292.819 237.263 291.971 237.232 291.45 237.469C291.314 237.531 291.311 238.003 290.815 237.974C290.32 237.946 289.78 237.957 289.32 237.921C289.124 237.907 288.899 237.439 288.357 237.755C288.362 237.268 288.878 237.169 288.169 236.867L289.072 235.006C289.938 234.77 290.422 234.17 291.481 234.123C291.62 234.116 291.794 234.428 291.911 234.403C292.028 234.378 292.061 234.026 292.191 233.973C293.063 233.624 293.897 233.71 294.014 234.698C294.41 234.643 294.54 233.908 294.751 233.8C295.583 233.371 296.376 234.014 296.955 233.702L298.504 232.26L300.074 232.669L300.633 231.808C302.308 231.678 305.983 231.792 307.528 231.085C308.86 230.476 309.3 231.079 309.733 230.987C309.85 230.963 309.879 230.611 310.012 230.557C310.374 230.41 310.862 230.421 311.254 230.293Z" fill="#192A33"/>
<path d="M294.308 211.637L294.157 210.927C293.544 210.853 293.482 211.416 293.345 211.471C291.991 212.026 290.501 212.576 289.29 211.59L287.742 213.032L286.349 212.586L286.176 210.026C286.564 209.896 287.072 209.914 287.418 209.762C287.931 209.539 288.04 208.952 289.193 209.385C290.482 207.98 292.868 208.159 294.215 206.835L295.786 207.243L296.345 206.382L297.485 206.511C298.981 205.611 301.166 205.521 302.809 205.38C303.665 205.305 304.93 204.732 305.648 204.776C305.738 204.783 307.111 205.675 307.154 205.755C307.393 206.216 307.426 207.225 306.961 207.465C306.677 207.611 306.181 207.546 305.896 207.691C305.766 207.76 305.747 208.053 305.617 208.122C304.783 208.544 304.156 208.629 303.563 208.929C302.18 209.631 301.015 209.125 299.659 209.758C298.815 210.153 297.807 209.529 296.744 210.007C296.371 210.175 295.661 211.316 295.55 211.373C295.239 211.532 294.683 211.498 294.308 211.637Z" fill="#192A33"/>
<path d="M308.93 226.336L309.081 227.046C308.153 227.462 307.663 226.887 306.902 226.396L304.569 227.633L303.353 227.15C303.146 227.134 301.935 227.718 301.654 227.882C300.845 228.35 298.482 228.682 297.319 228.432L296.406 229.368L295.341 229.594L294.125 229.11C292.957 230.316 290.114 229.718 288.801 230.241C288.672 230.295 288.639 230.647 288.522 230.672L287.446 229.973L287.65 229.188L287.031 228.021C287.419 227.89 287.924 227.909 288.273 227.757C288.47 227.671 288.691 227.086 289.618 227.1C292.581 227.15 296.097 225.034 299.351 225.774C299.762 224.756 300.504 224.754 301.508 224.574L301.658 225.284L302.546 225.096L302.852 223.918C303.734 223.634 304.255 223.571 304.955 224.213C305.28 223.65 305.822 223.249 305.54 222.605C306.57 222.089 306.939 222.919 307.719 223.255C307.809 223.295 307.984 223.139 308.074 223.179C308.653 223.427 309.33 223.821 309.935 224.082L310.236 225.502L309.817 226.147L308.93 226.336Z" fill="#192A33"/>
<path d="M307.329 199.597C306.48 199.844 305.496 199.89 304.667 200.162C303.443 200.563 303.874 200.724 302.183 200.69C300.965 200.667 299.888 202.828 297.999 201.95L297.085 202.886L296.224 202.327L295.514 202.478L294.955 203.338L294.246 203.489L293.385 202.93L292.675 203.081C292.135 203.838 291.394 203.583 290.621 203.888C289.58 204.299 288.362 204.098 287.502 204.922L285.044 204.702L284.743 203.283L288.168 201.071L289.383 201.555C289.69 200.867 290.559 200.994 291.26 200.785L291.109 200.075C291.632 200.02 292.203 199.758 292.706 199.736C293.629 199.696 294.603 199.478 295.621 199.488C297.22 199.504 298.388 198.247 299.982 198.19L299.831 197.48C300.006 197.465 300.198 197.339 300.364 197.367C301.146 197.505 301.649 198.092 302.644 197.625C302.776 197.563 302.792 197.256 302.924 197.194C303.116 197.105 305.414 196.94 305.838 196.946C306.028 196.946 306.981 197.363 307.269 197.569C306.765 198.129 307.234 198.871 307.329 199.597Z" fill="#192A33"/>
<path d="M302.397 179.872L302.774 181.647L303.559 181.851C302.822 181.752 302.742 182.685 302.468 182.825C302.11 183.008 301.464 182.956 301.048 183.126C300.417 183.387 299.358 184.023 298.714 184.364C297.664 184.921 296.95 184.683 296.128 185.285L295.977 184.575C295.477 184.737 294.849 184.729 294.38 184.914C292.822 185.527 290.106 185.715 288.142 186.981L287.281 186.422L286.292 187.003L285.431 186.444C285.046 187.179 284.028 187.258 283.442 186.682L283.721 186.251L282.86 185.692L283.99 184.896L284.42 185.176C285.252 184.045 286.316 183.853 287.539 184.142C288.257 182.669 289.785 183.294 290.303 183.184C290.374 183.169 290.77 182.432 291.47 182.565L291.319 181.855C291.939 181.809 292.692 181.437 293.271 181.44C293.679 181.443 294.793 182.196 294.917 182.203C296.141 182.274 297.133 180.798 297.885 180.46C298.39 180.234 300.841 179.728 301.434 179.706C301.578 179.701 301.867 180.189 302.397 179.872Z" fill="#192A33"/>
<path d="M283.52 178.319L283.369 177.609L284.509 177.737L284.66 178.447L286.004 177.791L285.854 177.081C287.209 177.331 287.934 175.663 288.72 175.73C289.453 175.793 290.39 176.017 291.28 175.557C291.564 175.411 291.592 174.478 292.548 174.546C292.759 174.56 293.203 175.093 293.409 175.105C293.68 175.121 295.298 174.777 295.539 174.652C295.753 174.544 296.107 173.626 296.377 173.361L296.705 174.033C297.452 173.411 298.013 172.836 299.039 172.796L299.19 173.505L299.9 173.355L300.051 174.064L300.76 173.914L300.61 173.204L302.18 173.612C302.722 174.836 302.106 176.18 300.68 176.156C299.255 176.133 298.579 177.178 297.916 177.114C297.553 177.08 295.757 176.831 295.636 176.857C295.533 176.879 294.233 177.849 294.012 177.944C293.666 178.095 293.158 178.077 292.77 178.208L292.619 177.498C291.893 177.378 291.815 178.322 291.528 178.472C290.662 178.919 289.55 178.451 289.323 178.569C287.739 179.392 287.557 178.744 286.484 179.173C286.251 179.267 285.728 179.578 285.494 179.754C285.306 179.898 284.663 180.346 284.505 180.335L282.568 179.077C282.504 178.861 282.872 178.846 282.886 178.824L283.418 178.711L283.52 178.319Z" fill="#192A33"/>
<path d="M160.013 157.45C159.757 157.397 159.157 157.698 158.77 157.714C158.469 157.726 158.251 157.449 157.528 157.978C157.262 156.532 156.29 157.298 155.35 157.328C155.24 157.332 154.873 156.846 154.21 157.199L153.904 158.377L152.156 158.006L148.935 159.432L148.746 158.545C148.134 157.918 147.374 158.599 147.417 157.529L148.482 157.303C148.262 156.667 148.249 156.273 148.713 155.77L149.041 156.442C149.429 156.312 149.937 156.33 150.283 156.178C150.395 156.129 150.533 155.536 151.273 155.597C153.396 155.78 154.932 154.801 156.672 154.821C156.821 154.823 157.016 155.252 157.457 155.025C157.645 154.93 157.891 154.291 158.624 154.406L158.775 155.116C159.273 154.806 159.663 155.298 159.738 155.282C159.851 155.258 160.995 154.285 161.792 154.475L163.109 154.566C163.068 154.616 162.683 154.601 162.83 154.996L163.056 156.061C162.652 156.169 162.226 156.223 161.814 156.325L161.712 156.718C161.517 156.707 161.234 156.845 161.002 156.869C160.803 156.473 160.386 156.447 160.421 155.879L160.066 155.955L160.013 157.45Z" fill="#192A33"/>
<path d="M163.744 154.06C163.744 154.06 163.617 153.779 163.846 153.668L164.556 153.517C166.195 153.97 168.316 152.9 170.132 152.703L169.981 151.993C170.982 151.309 171.75 152.267 172.084 152.288C172.588 152.319 173.764 151.657 174.149 152.406C174.535 153.155 174.077 153.742 174.209 154.433C173.727 154.606 173.042 154.578 172.612 154.773C172.477 154.835 172.473 155.307 171.978 155.278C169.148 155.108 166.944 156.5 164.019 156.228C163.542 156.184 163.142 156.796 161.712 156.718L161.814 156.325C162.226 156.223 162.652 156.169 163.056 156.061C163.404 155.969 163.772 155.92 164.121 155.835C164.154 155.783 163.956 155.058 163.894 154.77L163.744 154.06Z" fill="#192A33"/>
<path d="M114.949 233.423C114.629 233.365 113.957 233.715 113.529 233.725L113.303 232.66L112.238 232.886L111.695 232.074L111.786 230.757L110.608 230.451L110.586 228.601L110.08 227.966L111.741 227.057L111.333 228.627L112.398 228.401L113.281 230.81L112.571 230.961C112.611 231.657 113.209 232.046 113.862 231.799L114.013 232.509C114.477 232.388 114.971 232.339 115.432 232.208L114.873 233.068L114.949 233.423Z" fill="#192A33"/>
<path d="M307.615 152.055C307.569 153.044 308.941 153.439 307.562 153.551L307.788 154.615L305.432 154.003C305.666 153.95 305.908 153.902 306.142 153.852L305.992 153.142C306.275 153.027 307.405 152.289 307.615 152.055Z" fill="#192A33"/>
<path d="M110.406 222.518C110.457 222.986 110.685 223.483 110.708 223.938L110.428 224.368C110.416 224.575 110.598 224.888 110.579 225.078L110.224 225.153L110.149 224.798C110.057 224.402 109.369 224.497 108.933 224.315C108.761 223.784 108.806 223.366 108.277 222.971C108.51 222.951 108.808 222.798 108.986 222.82C109.051 222.828 109.35 223.395 110.127 222.948L109.976 222.239L110.406 222.518Z" fill="#192A33"/>
<path d="M191.832 265.311C191.12 265.418 190.411 265.642 189.702 265.763L189.756 264.268L191.1 263.612L191.832 265.311Z" fill="#192A33"/>
<path d="M137.608 158.5L137.555 159.996L135.705 160.018L136.898 158.651L137.608 158.5Z" fill="#192A33"/>
<path d="M315.445 152.247C315.502 152.479 315.543 152.723 315.596 152.956L314.252 153.613L314.305 152.118L315.445 152.247Z" fill="#192A33"/>
<path d="M110.225 225.153L110.58 225.078C110.535 225.477 110.236 225.659 110.414 226.041L111.199 226.245C110.925 226.874 110.57 227.02 109.892 227.079C109.779 227.017 110.588 225.866 109.591 225.659L109.693 225.266L110.225 225.153Z" fill="#192A33"/>
<path d="M161.002 156.869L160.265 157.767C160.046 157.832 160.032 157.453 160.013 157.45L160.066 155.955L160.421 155.879C160.386 156.447 160.803 156.473 161.002 156.869Z" fill="#192A33"/>
<path d="M108.986 222.82C108.807 222.798 108.509 222.951 108.276 222.971C108.254 222.957 107.868 223.109 107.846 222.691L108.91 222.465C108.895 222.234 108.735 221.92 108.76 221.755C108.768 221.709 109.306 221.672 108.964 220.97L109.319 220.894L109.303 222.567L108.986 222.82Z" fill="#192A33"/>
<path d="M305.991 153.142L306.142 153.852C305.908 153.902 305.666 153.95 305.432 154.003C305.315 154.028 305.181 154.079 305.077 154.078C305.046 153.755 304.921 153.778 304.647 153.799C304.523 153.81 304.4 153.877 304.292 153.874L304.394 153.482C304.897 153.316 305.53 153.329 305.991 153.142Z" fill="#192A33"/>
<path d="M116.292 232.767C116.528 232.742 116.8 232.607 117.002 232.616C117.023 232.852 117.117 233.088 117.153 233.326C116.57 233.39 115.937 233.677 115.378 233.703L115.48 233.31L116.013 233.197L115.937 232.842L114.873 233.068L115.432 232.208C115.554 232.174 115.7 232.18 115.787 232.132L116.292 232.767Z" fill="#192A33"/>
<path d="M110.106 221.098L110.815 220.947L111.079 222.19L110.762 222.443L110.611 221.733L109.901 221.883C109.561 221.188 110.093 221.145 110.106 221.098Z" fill="#192A33"/>
<path d="M146.201 157.046C146.377 157.068 146.678 156.915 146.911 156.895C147.23 157.784 147.092 157.902 146.503 158.465L146.201 157.046Z" fill="#192A33"/>
<path d="M136.823 158.296L134.338 158.824L134.44 158.432L136.57 157.979L136.823 158.296Z" fill="#192A33"/>
<path d="M293.968 159.406C293.736 159.448 293.485 159.487 293.258 159.557L293.032 158.492L293.855 158.874L293.968 159.406Z" fill="#192A33"/>
<path d="M308.928 154.744L309.079 155.454L308.369 155.605L308.218 154.895C308.477 154.788 308.548 154.665 308.675 154.427C308.896 154.365 308.909 154.741 308.928 154.744Z" fill="#192A33"/>
<path d="M115.787 232.132C115.803 232.121 115.657 231.889 115.889 231.74L116.421 231.627L116.293 232.767L115.787 232.132Z" fill="#192A33"/>
<path d="M302.442 153.897L302.34 154.289L300.743 154.629C301.366 154.155 301.407 154.087 302.442 153.897Z" fill="#192A33"/>
<path d="M130.887 161.783C130.534 161.851 130.176 161.949 129.822 162.009L130.456 161.504L130.306 160.794L130.66 160.718C130.773 161.054 130.756 161.484 130.887 161.783Z" fill="#192A33"/>
<path d="M289.709 160.311C289.748 160.284 289.569 159.777 290.343 159.805L290.569 160.87C290.229 160.872 289.81 160.649 289.709 160.311Z" fill="#192A33"/>
<path d="M286.945 161.269L286.159 161.065L286.084 160.71L287.149 160.484L287.3 161.194C287.19 161.236 287.058 161.227 286.945 161.269Z" fill="#192A33"/>
<path d="M130.359 159.299C130.338 159.741 129.968 159.935 130.231 160.439L129.876 160.514L129.649 159.45C129.825 159.453 130.204 159.372 130.359 159.299Z" fill="#192A33"/>
<path d="M300.281 157.694C299.82 157.811 299.282 157.843 298.862 157.996L298.964 157.603L300.028 157.377L300.281 157.694Z" fill="#192A33"/>
<path d="M307.863 154.97L307.761 155.363L306.519 155.627C307.087 155.002 307.092 155.234 307.863 154.97Z" fill="#192A33"/>
<path d="M309.638 154.594L309.487 153.883L310.198 153.732L310.349 154.443C310.118 154.459 309.875 154.555 309.638 154.594Z" fill="#192A33"/>
<path d="M142.577 157.445L141.335 157.709L141.082 157.391C142.036 157.237 141.999 157.341 142.577 157.445Z" fill="#192A33"/>
<path d="M110.149 224.798L109.084 225.025C109.007 224.8 109.007 224.54 108.933 224.315C109.369 224.497 110.057 224.402 110.149 224.798Z" fill="#192A33"/>
<path d="M163.894 154.77L162.829 154.997C162.682 154.601 163.068 154.616 163.109 154.566C163.21 154.448 163.629 154.185 163.743 154.06L163.894 154.77Z" fill="#192A33"/>
<path d="M110.149 224.798L110.224 225.153L109.692 225.266L109.59 225.659C109.501 225.641 109.341 225.779 109.197 225.557C109.138 225.384 109.143 225.194 109.084 225.025L110.149 224.798Z" fill="#192A33"/>
<path d="M288.116 158.053L288.014 158.446L286.949 158.672L286.696 158.355C287.157 158.308 287.643 158.131 288.116 158.053Z" fill="#192A33"/>
<path d="M275.77 161.047L274.527 161.311L274.274 160.994C275.217 160.838 275.134 160.9 275.77 161.047Z" fill="#192A33"/>
<path d="M273.209 161.22L273.107 161.613L271.865 161.877C271.775 161.299 272.664 161.362 273.209 161.22Z" fill="#192A33"/>
<path d="M142.75 160.005L142.637 159.472L142.169 159.015L142.879 158.864L143.105 159.929C143.014 159.919 142.876 159.985 142.75 160.005Z" fill="#192A33"/>
<path d="M114.873 233.068L115.938 232.842L116.014 233.197L115.481 233.31L115.379 233.703C114.88 233.727 114.976 233.429 114.949 233.423L114.873 233.068Z" fill="#192A33"/>
<path d="M132.661 161.406C132.604 161.448 132.657 162.294 131.747 162.342L132.129 161.519L132.661 161.406Z" fill="#192A33"/>
<path d="M95.2183 255.791L95.6114 255.893L95.7246 256.426L95.0139 256.578C95.0362 256.42 94.8412 256.202 94.9006 256.044C95.0105 255.757 95.2071 255.808 95.2183 255.791Z" fill="#192A33"/>
<path d="M270.769 165.448L270.135 165.954L270.339 165.169C269.807 165.3 269.554 165.595 268.995 165.825L270.086 164.851L270.769 165.448Z" fill="#192A33"/>
<path d="M275.308 164.113C275.292 164.124 275.435 164.397 275.206 164.505C274.345 164.907 274.298 164.353 274.243 164.339L275.308 164.113Z" fill="#192A33"/>
<path d="M259.744 165.936L259.642 166.328L258.755 166.517C259.03 166.31 258.836 166.199 259.744 165.936Z" fill="#192A33"/>
<path d="M183.829 262.56L182.764 262.786C182.839 262.704 182.69 262.227 183.576 262.243C183.829 262.248 183.809 262.557 183.829 262.56Z" fill="#192A33"/>
<path d="M264.767 163.385L264.665 163.777C264.048 164.031 263.403 164.279 262.789 164.547L262.891 164.154C263.651 163.978 263.918 163.576 264.767 163.385Z" fill="#192A33"/>
<path d="M267.252 162.857L265.73 163.551C265.472 163.539 265.496 163.234 265.477 163.234L266.999 162.54C267.253 162.549 267.232 162.85 267.252 162.857Z" fill="#192A33"/>
<path d="M294.429 156.341L293.364 156.567C293.387 156.462 293.239 156.293 293.466 156.174C294.256 155.788 294.34 156.304 294.429 156.341Z" fill="#192A33"/>
<path d="M313.573 150.419L312.686 150.607L312.433 150.29C312.68 150.178 313.04 150.198 313.32 150.102C313.574 150.111 313.553 150.412 313.573 150.419Z" fill="#192A33"/>
<path d="M266.081 166.074C265.912 166.065 265.526 166.151 265.37 166.225L265.473 165.832L265.828 165.756L266.081 166.074Z" fill="#192A33"/>
<path d="M136.212 160.652C135.983 160.709 135.672 160.715 135.501 160.803L135.603 160.41L135.959 160.335L136.212 160.652Z" fill="#192A33"/>
<path d="M280.739 159.991L280.637 160.384L280.282 160.46L280.029 160.142C280.262 160.085 280.513 160.061 280.739 159.991Z" fill="#192A33"/>
<path d="M140.374 157.542L140.271 157.935L139.916 158.011L139.663 157.693C139.898 157.665 140.136 157.578 140.374 157.542Z" fill="#192A33"/>
<path d="M283.52 178.319L283.418 178.712L282.885 178.825C282.968 178.692 282.789 178.27 283.52 178.319Z" fill="#192A33"/>
<path d="M133.63 158.975L133.528 159.368C133.09 159.684 132.955 159.14 132.919 159.126L133.63 158.975Z" fill="#192A33"/>
<path d="M139.309 157.769L138.776 157.882L138.522 157.564C139.442 157.436 139.26 157.768 139.309 157.769Z" fill="#192A33"/>
<path d="M302.411 157.242C302.219 157.231 301.933 157.351 301.701 157.393L301.803 157L302.158 156.924L302.411 157.242Z" fill="#192A33"/>
<path d="M303.582 154.025L303.151 153.746C303.665 153.752 303.557 154.027 303.582 154.025Z" fill="#192A33"/>
<path d="M110.428 224.369L110.708 223.938C110.732 224.438 110.43 224.342 110.428 224.369Z" fill="#192A33"/>
<path d="M115.998 184.236L115.287 184.387L115.438 185.097L116.149 184.946L115.998 184.236Z" fill="#192A33"/>
<path d="M296.356 156.673L295.646 156.824L295.797 157.535L296.507 157.384L296.356 156.673Z" fill="#192A33"/>
<path d="M305.079 154.079C304.826 154.08 304.68 154.145 304.648 153.799C304.922 153.778 305.047 153.755 305.079 154.079Z" fill="#192A33"/>
<path d="M178.647 269.596L177.937 269.747L178.088 270.458L178.798 270.307L178.647 269.596Z" fill="#192A33"/>
<path d="M146.148 158.541L144.729 158.842L144.653 158.487L145.896 158.223L146.148 158.541Z" fill="#192A33"/>
<path d="M163.895 154.77C163.956 155.058 164.155 155.783 164.121 155.835C163.772 155.92 163.404 155.969 163.056 156.061L162.83 154.996L163.895 154.77Z" fill="#192A33"/>
</svg>
