<svg width="465" height="465" viewBox="0 0 465 465" fill="none" xmlns="http://www.w3.org/2000/svg">
<path d="M213.028 179.194C213.073 179.288 212.799 179.537 212.839 179.743C212.95 180.325 215.258 182.113 215.929 182.646L215.552 183.743L217.128 185.103L216.991 186.692L219.02 185.549L219.826 184.395C220.133 184.452 220.487 184.709 220.74 184.71C220.944 184.711 221.946 184.34 222.088 184.356C223.125 184.48 224.241 185.088 223.722 186.145L225.676 186.408L225.424 187.139L227.252 187.768L227.001 188.5C227.481 188.685 229.793 191.08 229.726 191.277L229.234 191.517C229.385 191.733 229.444 192.084 229.594 192.254C229.733 192.409 230.097 192.35 230.142 192.443C230.188 192.536 229.918 192.787 229.954 192.991C230.065 193.606 230.766 193.982 230.119 194.888C231.39 195.211 231.952 195.421 232.364 196.683C232.673 197.628 233.302 198.961 232.883 199.929L233.791 200.854L233.237 201.277L233.968 201.529L233.819 204.34L235.281 204.843C234.97 205.558 234.992 206.494 234.224 206.728L235.132 207.654L234.755 208.751L236.457 209.746L236.206 210.477C237.991 211.017 236.184 212.584 236.725 213.722L235.616 214.568C236.087 215.707 237.092 216.221 238.227 216.488L237.672 216.911C238.133 217.568 237.54 218.293 237.346 219.048L236.249 218.67C235.849 219.203 236.299 219.477 236.3 219.71C236.302 219.944 236.062 220.189 236.049 220.442C236.019 221.016 237.249 221.648 236.391 223.013C236.311 223.137 235.679 223.193 235.648 223.984L235.699 225.024L237.161 225.527L236.721 226.807C237.138 227.282 235.985 228.696 235.966 229.001C235.906 229.961 236.046 230.979 236.183 231.938C236.269 232.544 236.667 233.253 236.348 233.834L237.445 234.212L236.147 235.606C236.65 236.155 236.044 236.654 236.01 237.194C235.996 237.414 236.504 237.957 236.49 238.177C236.398 239.654 236.332 241.12 236.203 242.576C236.102 243.736 236.306 244.653 234.957 245.01C236.01 246.808 234.636 248.543 236.006 250.278L234.029 252.46C234.799 253.372 233.33 254.493 233.274 254.654C233.233 254.775 233.538 254.994 233.514 255.146C233.45 255.557 233.172 255.997 233.074 256.426L234.536 256.929C234.438 257.357 234.16 257.797 234.096 258.208C234.073 258.36 234.377 258.579 234.336 258.7C234.294 258.821 233.918 258.81 233.844 258.94C233.176 260.157 233.083 260.322 232.964 261.499C232.818 262.933 230.949 263.325 230.369 264.287C229.908 265.044 229.813 266.402 229.363 267.212C229.309 267.308 228.649 267.396 228.62 268.183C228.565 269.673 228.303 270.9 227.727 271.965C227.152 273.031 227.318 273.869 227.515 274.959L226.784 274.708L226.709 276.113C225.749 276.384 225.389 277.074 225.223 278.055C225.026 279.223 223.75 280.746 223.725 281.22C223.641 282.844 221.053 283.593 221.485 285.357L220.376 286.202L220.175 287.973L219.444 287.721C218.722 288.643 219.96 289.49 219.358 290.35C219.229 290.534 218.499 290.647 218.375 290.829C217.74 291.76 217.176 292.519 216.637 293.503C216.243 294.222 216.452 294.04 216.386 294.234C216.345 294.351 216.007 294.337 215.894 294.474C215.751 294.654 215.789 294.982 215.705 295.023L214.974 294.771L214.774 296.542C214.085 296.951 213.505 297.52 213.351 298.302L212.254 297.924L211.385 299.261L209.317 298.141L209.82 296.678L209.089 296.426L210.134 295.764L210.032 293.684C210.757 293.218 211.421 292.215 212.426 292.668C212.763 291.581 213.492 291.497 213.244 290.291C214.472 289.278 214.632 287.064 214.879 285.538C215.006 284.755 215.118 282.528 215.898 281.39C216.022 281.208 216.756 281.092 216.88 280.91C217.259 280.357 217.281 279.367 218.001 278.842L217.647 277.493C218.826 275.801 220.042 273.149 219.786 271.278L221.637 269.461L221.523 268.604L222.632 267.759L221.912 266.284C222.73 266.108 222.545 265.112 222.907 264.582C223.031 264.4 223.766 264.285 223.89 264.102C224.397 263.365 224.591 261.718 225.388 260.937C224.951 260.268 225.239 259.516 225.285 258.857C225.31 258.49 224.898 258.499 225.663 257.761C225.044 257.028 225.294 255.708 225.812 254.949C225.936 254.767 226.671 254.652 226.795 254.47C227.755 253.07 226.917 251.097 227.636 249.648L226.905 249.396L226.854 248.356L228.202 248.002C228.389 247.175 229.262 246.883 229.323 245.934C229.326 245.866 228.833 244.825 228.723 244.706C228.584 244.551 228.22 244.61 228.175 244.517C227.904 243.962 228.674 242.305 228.752 241.649C228.868 240.67 227.412 237.7 229.165 236.884C228.029 235.454 228.853 234.903 229.074 233.581C229.1 233.435 228.793 233.21 228.835 233.09C228.876 232.969 229.256 232.981 229.326 232.85C230.044 231.523 229.854 230.198 228.316 229.844C228.283 229.06 229.015 228.858 229.121 228.69C229.313 228.396 229.309 227.872 229.499 227.593C229.689 227.315 230.834 227.182 231.036 226.691C230.002 226.523 230.254 225.007 229.22 224.839C229.41 224.451 229.451 223.893 229.66 223.56C229.734 223.438 230.7 222.83 230.769 222.714C231.66 221.242 230.767 220.759 230.792 220.269C230.863 218.886 231.374 218.257 231.559 216.852C231.578 216.7 231.293 216.507 231.319 216.361C231.417 215.777 231.809 215.139 231.948 214.533C231.995 213.776 229.706 212.858 230.446 211.767L229.714 211.515C230.676 209.932 229.746 209.023 229.447 207.538L230.316 206.202L229.836 205.219L230.39 204.796C229.722 204.779 229.803 204.291 229.602 204.116C229.436 203.969 229.085 204.016 228.871 203.864C227.892 203.18 230.12 200.769 228.232 200.373C229.33 198.678 227.929 198.507 227.764 198.167C227.718 198.074 227.989 197.824 227.953 197.619C227.808 196.792 226.998 195.843 227.673 194.865L226.759 194.55L226.4 193.813L226.777 192.716C226.676 191.892 225.933 191.96 225.686 191.728C224.994 191.077 225.117 190.53 223.983 190.733C223.263 189.761 222.465 188.8 221.253 188.567L220.573 189.355C221.263 190.153 220.676 190.826 221.041 191.561L219.932 192.406L219.732 194.177L220.463 194.429C219.877 196.108 220.964 198.094 220.656 199.811L221.387 200.063C219.844 201.147 220.878 202.468 221.289 203.914C221.457 204.507 221.76 205.229 221.883 205.754C221.992 206.221 221.695 207.439 221.254 207.582L222.339 209.182C221.682 210.355 222.003 211.454 221.572 212.599C221.88 213.453 222.74 214.268 222.343 215.113L223.074 215.364C222.249 217.015 222.548 218.606 221.804 220.244C222.825 220.345 222.478 221.162 222.587 221.535C222.803 222.284 223.378 223.112 222.992 223.923L222.261 223.672L221.14 225.74L222.048 226.666L221.368 227.454L222.277 228.38L221.408 229.717L221.887 230.7L221.207 231.488L221.939 231.74C221.9 232.303 221.776 232.96 221.738 233.511C221.674 234.409 221.381 234.275 221.361 234.608C221.349 234.808 221.816 235.116 221.412 235.648C220.487 235.186 219.692 236.201 219.32 236.973L217.378 235.486L218.121 234.515L216.659 234.012C217.79 232.803 216.098 231.411 216.139 230.767C216.164 230.35 216.619 228.944 216.466 228.63L215.734 228.378C215.699 226.996 217.363 226.853 217.409 225.888C217.431 225.408 216.808 224.176 216.815 224.048C216.894 222.832 218.157 221.823 218.187 221.248C218.208 220.891 217.318 220.152 218.022 219.351L216.56 218.848C216.509 218.091 217.34 217.767 217.366 217.694C217.407 217.573 217.104 217.35 217.126 217.203C217.34 215.89 217.341 214.484 217.287 213.169C217.21 211.278 217.181 209.113 216.123 207.043L216.803 206.255C215.791 206.095 216.095 205.222 215.781 204.472C217.01 203.955 216.288 202.962 215.804 202.027L216.547 201.056C216.034 200.421 216.731 199.773 216.811 199.102C216.862 198.666 216.081 197.62 216.948 197.513L215.509 194.565L216.315 193.411L215.584 193.159C215.61 192.489 216.358 192.514 216.39 192.005C216.421 191.497 215.906 190.522 217.019 190.177C217.191 189.083 216.683 188.168 216.191 187.234L215.151 187.285L215.528 186.188L214.854 186.365L214.614 185.874C213.477 186.529 212.909 185.136 211.872 184.93L212.186 184.016C212.039 183.197 211.488 183.302 211.095 183.028C210.911 182.899 210.799 182.177 210.616 182.045C210.225 181.767 208.618 181.848 208.17 182.021L207.142 180.85C206.469 181.951 207.678 182.621 206.993 183.661L206.262 183.409C206.223 183.592 206.065 183.779 206.073 183.958C206.12 184.902 206.029 184.311 205.821 184.689C205.103 186.004 205.948 186.352 205.924 186.769C205.861 187.77 205.407 188.901 206.014 190.071L205.397 190.677C205.799 191.993 206.155 192.872 205.425 194.162C207.456 196.161 206.602 200.333 206.439 203.098L207.17 203.35L206.793 204.447L208.621 205.076L208.672 206.116L207.741 207.635L208.472 207.887L207.969 209.35L206.986 209.829L208.449 210.333L207.894 210.755C208.355 211.413 207.762 212.137 207.568 212.892L208.299 213.144L208.036 215.098L208.767 215.349L208.869 217.429L208.138 217.177L208.315 217.852L207.698 218.457L208.058 219.194L208.972 219.509C208.567 220.032 209.043 220.372 209.023 220.549C208.923 221.48 208.229 221.727 207.965 222.434C208.917 222.663 208.996 223.443 208.559 224.274L210.022 224.777C209.626 225.487 210.273 226.09 210.553 226.8L209.758 226.731L208.764 228.434L209.495 228.685C209.256 229.38 209.68 230.074 209.169 230.822C209.045 231.004 208.31 231.119 208.186 231.302C207.684 232.037 207.915 233.527 206.397 232.935L206.145 233.667L205.357 232.986L204.5 233.1C204.366 232.694 203.99 232.254 203.9 231.872C203.732 231.16 204.012 230.941 204.404 230.409L203.318 228.809L203.81 228.569L203.57 228.078L204.187 227.472L203.947 226.981L204.565 226.376L204.514 225.336L203.782 225.084L204.462 224.296L204.223 223.804L204.714 223.564L204.663 222.525L203.932 222.273L204.183 221.542C203.596 221.642 202.046 219.731 202.064 219.381C202.095 218.779 202.465 218.407 201.836 217.667L202.579 216.696L201.62 214.73C202.055 213.678 202.127 212.435 203.054 211.748C202.999 211.66 202.676 211.708 202.506 211.559C201.588 210.745 201.557 209.278 201.307 209.102C201.103 208.958 200.78 208.994 200.575 208.851C200.487 208.787 199.857 206.874 199.862 206.765C199.895 206.277 200.64 204.931 200.554 204.754L199.822 204.502L200.137 203.588L201.863 202.137C201.574 200.754 200.401 201.43 200.28 201.388C200.16 201.347 200.178 201.01 200.04 200.897C199.861 200.753 199.533 200.792 199.492 200.708C199.446 200.615 199.717 200.364 199.681 200.16C199.437 198.788 197.665 197.712 198.065 196.537L196.728 195.668L197.105 194.571C196.248 194.436 195.995 194.042 195.711 193.274L195.22 193.514C194.962 192.611 194.371 192.023 193.895 191.422C193.367 190.758 193.68 189.075 193.187 188.725C192.465 188.211 191.169 188.861 191.039 189.622L189.953 188.021L189.879 189.427L188.77 190.272L188.393 191.369C189.263 193.963 188.054 196.81 188.499 199.38L189.231 199.631L188.727 201.094C189.645 201.504 190.031 202.831 190.721 203.62L189.789 205.14L191.491 206.134C191.501 206.759 190.838 206.846 190.811 206.923C190.77 207.043 191.073 207.266 191.051 207.414C190.99 207.781 190.695 208.187 190.674 208.511C190.669 208.607 191.386 210.089 191.513 210.231C191.652 210.385 192.016 210.326 192.062 210.42C192.198 210.7 192.181 212.272 192.952 213.18C193.284 213.572 193.92 213.791 194.289 214.048C195.083 214.604 193.917 216.64 193.705 217.528L194.619 217.842L194.979 218.58C193.979 220.251 194.839 221.553 195.424 223.231L194.932 223.47C195.847 224.758 195.563 225.56 194.96 226.956L195.691 227.207C195.767 228.497 194.471 228.673 194.268 228.967C194.118 229.189 193.657 230.527 193.639 230.795C193.619 231.14 194.508 231.895 193.804 232.692L194.901 233.069C195.081 233.438 193.296 236.296 193.946 237.034L193.152 236.966C192.749 237.482 193.226 237.854 193.203 238.006C193.126 238.478 192.726 239.048 192.7 239.468C192.68 239.764 193.582 241.444 194.088 241.377C193.959 242.024 193.465 242.782 193.396 243.388C193.369 243.632 194.073 244.165 193.018 244.485C193.777 245.371 193.195 245.813 193.121 246.565C193.104 246.719 193.377 246.902 193.36 247.056C193.267 247.981 192.567 248.235 192.303 248.941L191.572 248.69C190.844 249.805 192.465 250.919 190.994 251.558L191.171 252.232L190.439 251.981L189.759 252.769C189.405 253.383 190.241 254.734 190.227 254.974C190.19 255.559 189.681 256.884 189.107 257.042L189.221 257.9L187.935 258.071C188.183 257.493 188.371 257.268 187.638 257.151L184.868 252.722L185.486 252.116L185.246 251.625L185.863 251.019C185.539 250.523 185.837 249.931 185.389 249.425C184.907 248.879 184.858 248.592 184.304 247.825C183.02 246.042 184.363 245.335 182.637 243.162C182.023 242.391 182.782 241.719 182.169 240.957L180.763 240.882L180.913 238.071L179.69 238.059C180.072 237.52 179.688 237.339 179.639 237.019C179.418 235.557 178.945 235.91 178.856 235.728C178.811 235.634 179.081 235.384 179.045 235.179C178.991 234.874 178.591 234.467 178.565 234.196C178.468 233.218 179.553 234.25 179.611 233.534L177.292 233.145C177.712 232.517 177.164 232.173 177.001 231.613C176.818 230.99 177.24 230.383 175.852 230.196C176.349 229.823 175.022 227.927 174.836 227.802C174.485 227.562 173.792 227.533 173.374 227.299C173.236 227.223 172.969 226.431 172.22 226.493L172.511 228.024L171.716 227.955L171.402 228.869L171.87 231.075L170.761 231.92C171.261 232.559 170.603 233.187 170.498 233.874C170.473 234.029 170.953 234.395 170.549 234.914L172.377 235.543L172.428 236.583L171.445 237.063C171.732 237.644 171.331 239.023 172.033 239.514C174.146 240.993 172.586 241.974 174.261 243.143C174.347 243.32 173.598 244.665 173.569 245.154C173.543 245.599 174.654 246.517 174.1 247.177L175.562 247.68C175.608 247.773 175.334 248.023 175.374 248.228C175.561 249.217 176.331 248.999 176.83 249.343C177.356 249.704 177.295 251.355 177.784 251.92L176.966 254.297L177.697 254.548C177.365 255.276 177.878 256.328 178.657 256.514L178.405 257.245C179.645 257.803 179.604 259.788 181.067 260.206L180.815 260.937L182.152 261.806L181.9 262.537L183.237 263.406C183.182 264.528 185.005 266.586 185.887 267.589L185.636 268.32L186.367 268.572C186.336 269.126 186.195 269.821 186.167 270.343C186.132 271.026 187.191 271.37 187.806 271.521C187.515 272.496 188.497 273.84 188.691 274.892C188.858 275.784 188.922 276.656 188.302 277.212C188.733 277.908 188.887 278.349 188.467 279.109L189.198 279.36L188.809 281.68L189.54 281.931L188.671 283.268C187.775 282.772 187.478 283.647 186.769 284.045C187.104 284.651 187.173 285.366 187.917 285.462L187.402 288.147L188.133 288.399C187.845 289.437 187.318 290.47 187.064 291.507C187.029 291.642 187.334 291.862 187.304 291.998C187.088 292.91 186.605 293.827 186.36 294.741L185.629 294.489C185.504 295.292 184.623 295.37 183.966 295.757L183.84 296.123C184.285 296.611 183.849 296.952 183.828 297.345C183.812 297.667 184.219 298.159 183.691 298.934C183.651 298.99 182.531 299.536 182.462 299.533C182.133 299.514 181.726 299.202 181.365 299.156C181.138 299.127 180.583 299.836 180.268 298.779L179.777 299.018C178.909 298 179.502 297.513 179.555 296.693C179.569 296.473 179.061 295.93 179.075 295.71C179.172 294.157 180.397 292.247 181.442 291.208C181.334 290.725 181.387 289.133 181.465 288.763C181.627 287.984 182.084 287.177 182.283 286.386L181.369 286.072L181.009 285.334L182.369 283.758L182.77 280.215L184.559 278.582L183.096 278.079C183.605 277.481 182.785 276.892 182.805 276.547C182.848 275.842 183.561 274.779 183.686 273.988C183.709 273.836 183.231 273.467 183.635 272.948C182.342 272.818 181.966 271.666 180.961 271.21L181.276 270.296C181.125 270.081 181.07 269.73 180.916 269.559C180.778 269.401 180.413 269.464 180.367 269.37C180.322 269.277 180.596 269.028 180.556 268.822C180.398 267.986 179.659 267.875 178.917 267.644C179.885 266.256 178.488 265.563 178.826 264.342L177.786 264.393C177.532 263.267 176.715 262.871 176.095 262.176C175.892 261.946 175.783 261.312 175.616 261.193C175.204 260.904 174.464 260.952 174.588 260.021L175.445 259.907L174.108 259.038L174.36 258.307L172.531 257.678C172.759 256.718 172.554 255.2 171.458 254.855L171.835 253.758L169.641 253.004L169.917 249.827C168.263 249.462 166.768 247.852 168.54 246.695C168.109 245.999 167.955 245.557 168.375 244.798C166.789 243.893 166.787 241.557 165.914 240.067L166.405 239.827C166.068 238.419 165.973 236.411 164.549 235.713C165.159 234.463 164.488 232.67 165.87 231.873L165.642 230.159L166.574 228.64L165.843 228.388L165.791 227.348L167.466 224.857L168.198 225.109L168.209 223.886L168.941 224.138L169.192 223.407L170.655 223.91C170.836 223.122 171.841 223.124 171.221 222.264L172.575 221.299C173.67 221.48 175.251 222.494 176.232 222.557C176.452 222.571 176.995 222.063 177.214 222.077C177.779 222.112 178.592 222.662 179.226 222.769C178.821 223.66 179.387 224.203 180.311 224.369L179.933 225.466L181.396 225.969L181.007 228.289C181.868 228.258 181.908 229.699 182.275 229.952C182.745 230.273 183.085 230.427 183.611 230.821C183.995 231.108 184.487 230.926 184.703 231.81C184.725 231.899 184.561 232.043 184.577 232.175C184.613 232.499 185.006 232.769 184.565 233.398C184.468 233.537 184.115 233.517 184.074 233.638C184.047 233.715 184.517 234.191 184.125 234.678L185.039 234.992L185.399 235.729L185.084 236.644L186.421 237.512L186.712 239.044C185.089 239.851 187.253 241.524 186.614 242.895L187.345 243.146L187.093 243.878L188.379 243.707L187.923 240.278L189.032 239.433C188.628 239.085 189.007 238.447 188.98 238.393C188.935 238.3 188.571 238.358 188.432 238.204C188.104 237.838 187.922 236.941 187.592 236.484L188.701 235.639C187.764 234.335 188.756 233.196 189.531 232.04L188.434 231.662C188.46 230.992 189.208 231.017 189.24 230.508C189.25 230.348 188.981 230.166 189 230.017C189.17 228.726 189.709 227.681 189.766 226.6C189.778 226.375 189.272 225.837 189.287 225.617C189.319 225.084 189.884 224.322 189.916 223.789C189.921 223.689 189.428 222.317 189.322 221.949C189.04 220.973 188.943 220.743 188.482 220.229C187.87 219.548 187.525 217.949 187.289 217.161L188.724 214.178L187.627 213.801L187.879 213.07L187.147 212.818L186.817 209.024C185.088 208.699 185.669 206.429 183.664 206.304L183.738 204.898L184.847 204.053L184.487 203.316L183.573 203.001C184.257 202.095 182.638 201.453 182.677 200.852L183.306 199.024C183.279 198.365 182.429 198.162 182.397 198.098C182.361 198.025 182.68 197.039 182.106 196.567L182.232 196.201C184.226 194.732 182.591 192.461 182.165 190.453L182.845 189.665L182.114 189.414L182.503 187.094L183.234 187.346C183.755 186.535 184.093 185.564 184.544 184.729C184.667 184.502 185.34 184.709 184.795 183.998C184.853 183.83 187.474 182.547 187.87 182.193C188.024 182.054 187.965 181.69 188.058 181.645L188.847 182.325L190.926 182.222C191.823 184.633 195.83 184.633 195.587 187.097L197.05 187.601L196.798 188.332C197.13 188.438 197.777 188.922 197.952 189.138C198.528 189.855 197.712 190.56 198.855 190.675C198.897 190.268 199.529 189.439 199.175 189.15C198.264 188.411 198.716 188.309 198.575 187.921C198.403 187.448 197.603 186.196 197.616 185.955C197.657 185.147 198.451 184.668 199.153 185.053C199.024 184.432 198.986 183.863 199.354 183.282C199.59 182.905 199.927 182.399 200.223 181.945C200.334 181.775 201.061 181.575 201.028 180.791L200.12 179.865C201.2 179.578 201.822 178.414 201.366 177.431L203.83 175.621C204.316 176.074 204.94 175.614 205.052 175.632C205.751 175.742 206.574 176.307 207.246 176.387C207.863 176.46 208.621 175.744 209.692 176.411C210.274 176.775 210.815 178.363 211.017 178.502C211.42 178.78 212.941 179.017 213.028 179.194Z" fill="#284655"/>
<path d="M299.067 209.614L300.227 209.808L300.541 208.894C301.117 209.231 301.852 208.793 302.438 208.729C302.65 208.708 302.904 208.967 303.17 208.98C303.238 208.983 304.359 208.437 304.398 208.381C304.721 207.907 304.738 206.502 305.639 206.558C306.068 206.583 306.638 207.005 307.101 207.062C307.564 207.119 308.596 206.664 309.672 206.719C310.022 206.737 310.55 205.905 311.387 206.491C311.525 206.588 311.506 206.941 311.626 206.983C311.689 207.004 312.194 206.532 312.849 206.995L314.243 208.292C314.158 208.717 313.842 209.184 313.803 209.572C313.781 209.801 314.048 211.034 314.031 211.286C313.885 213.456 312.485 215.162 312.384 217.262L311.892 217.502L312.561 217.936C312.759 218.335 310.642 220.171 311.491 221.044L311.366 221.41L310.08 221.581C310.206 223.092 307.818 223.972 307.422 224.551C306.961 225.227 307.232 226.257 305.936 226.494L306.05 227.351L305.244 228.505L304.513 228.253L304.375 229.841L303.644 229.59L303.255 231.909L302.524 231.658L300.9 235.188C300.461 234.992 298.992 235.137 298.757 235.474C298.523 235.81 298.666 236.334 298.014 236.445L298.18 238.342L296.591 238.204L296.642 239.244L295.711 240.764L294.248 240.26L292.459 241.894L292.385 243.3L291.653 243.048C291.57 243.089 291.608 243.417 291.465 243.596C290.856 244.356 291.282 244.127 291.213 244.328C291.187 244.405 290.523 244.491 290.533 245.116L289.802 244.864L289.916 245.722L288.819 245.344C288.528 246.581 288.618 247.782 287.989 248.944C287.866 249.171 287.193 248.964 287.738 249.675C286.403 250.405 286.028 251.994 285.017 252.828L284.931 255.456L284.137 255.388C284.568 256.783 283.405 258.477 282.387 259.284L282.552 261.181C281.774 260.782 281.063 261.539 280.284 261.832L280.272 263.054L279.478 262.986C279.739 263.595 279.407 264.012 279.403 264.391C279.4 264.77 279.623 265.714 279.631 266.105C279.637 266.459 279.167 266.767 279.62 267.328C279.93 267.709 280.222 267.764 280.654 267.888C281.18 265.955 282.65 264.866 284.585 265.969C284.79 264.506 286.584 264.404 286.814 263.056C287.865 263.663 288.846 263.342 289.865 263.697L291.226 262.12L290.494 261.869C290.543 261.108 291.204 261.184 291.666 260.84C291.985 260.603 292.935 259.6 293.512 259.635C293.851 259.658 294.269 259.99 294.609 260.013C295.096 260.045 296.105 258.79 296.997 259.608L297.26 257.654L297.992 257.905L298.86 256.568L299.775 256.883L300.7 255.975L301.854 256.781L302.894 256.729L303.712 254.353L304.449 253.993L305.363 254.308L305.615 253.576L306.346 253.828L306.598 253.097L310.449 253.195C310.56 253.846 311.097 253.712 311.42 253.938C311.862 254.245 311.735 255.126 311.465 255.589C313.179 256.551 312.776 257.913 310.887 258.457L311.001 259.314C309.154 259.93 309.518 261.724 310.046 263.279L308.76 263.45C308.443 264.122 308.342 265.024 308.006 265.644C307.882 265.872 307.209 265.665 307.754 266.375L306.948 267.529L306.217 267.278L305.045 268.306C305.4 268.772 305.093 269.749 304.782 270.26C304.623 270.52 303.9 270.398 304.342 271.54L303.61 271.288L303.787 271.962C302.562 272.624 301.161 273.856 300.638 275.173L299.907 274.921L299.266 277.972C298.924 277.932 298.928 277.112 298.598 277.538C298.032 278.267 297.599 278.813 297.415 279.788L295.826 279.651L294.529 281.045L294.82 282.576L293.357 282.073L293.106 282.804L292.009 282.427L291.203 283.581L291.557 284.929L290.877 285.718C289.95 285.558 288.626 285.888 288.134 284.774L287.094 284.825L284.991 287.373L282.557 286.127L281.631 287.035C280.596 284.933 277.72 288.634 276.603 288.576C276.004 288.546 275.21 288.228 274.523 288.679L273.552 287.936C272.806 288.227 272 288.334 271.289 287.975C271.196 288.401 270.901 288.855 270.849 289.255C270.726 290.194 271.094 290.897 269.969 291.814C270.587 293.094 269.68 294.328 270.299 295.608L269.984 296.522L269.253 296.271C269.552 297.293 268.979 298.127 268.675 299.139L269.761 300.739C269.271 302.161 269.874 303.571 269.537 304.956L270.268 305.207L270.067 306.978L269.085 307.458L269.324 307.949L268.707 308.555L270.146 311.504L269.277 312.84L270.186 313.766L269.631 314.189C270.198 314.977 269.041 315.846 269.608 316.634L268.814 316.566L268.562 317.297L265.454 316.228L264.929 313.593L264.198 313.342L264.147 312.302L264.701 311.879C264.643 311.786 264.288 311.844 264.153 311.691C263.49 310.931 264.133 310.465 264.17 309.856C264.186 309.633 263.508 307.42 262.908 307.582L264.972 302.772L263.281 300.554C264.196 300.19 263.899 298.984 264.83 298.429L264.099 298.178C264.821 297.257 263.583 296.409 264.185 295.549C264.364 295.292 264.964 295.531 264.437 294.818L265.671 293.607C265.45 293.228 265.04 292.09 265.078 291.767C265.276 290.098 266.578 287.965 267.267 286.591L267.999 286.843C268.144 286.181 268.59 285.468 268.691 284.832C268.712 284.688 268.441 284.5 268.451 284.34C268.481 283.942 268.904 283.617 268.462 283.118L269.565 282.884L270.536 283.627C271.196 283.6 271.398 282.75 271.462 282.718C271.556 282.673 271.806 282.943 272.011 282.907C273.239 282.688 273.739 281.412 274.959 281.468C275.293 281.485 275.717 281.823 276.056 281.845C276.429 281.867 278.973 280.641 280.033 281.578C280.126 281.532 280.064 281.167 280.222 281.03C280.739 280.573 281.284 280.7 281.873 280.984L282.125 280.253L284.81 280.768L285.187 279.671C285.915 280.003 286.967 279.49 287.153 278.712C289.18 279.81 289.791 276.81 291.324 277.284C292.322 275.538 294.01 273.911 295.468 272.372C296.057 271.752 296.514 270.711 297.497 271.229C297.66 269.294 299.238 269.068 299.612 267.459L300.343 267.71C300.441 267.282 300.72 266.842 300.783 266.431C300.807 266.279 300.502 266.06 300.544 265.939C300.644 265.647 302.232 264.394 302.395 264.123C302.631 263.734 302.678 263.1 302.898 262.66L302.482 261.495L301.676 262.649C300.497 262.877 299.953 264.362 298.79 263.905L298.413 265.002L297.498 264.687C296.679 264.835 296.784 265.386 296.51 265.778C295.988 266.523 294.887 265.67 294.31 265.635C293.305 265.571 292.614 267.165 292.452 268.063C292.026 268.566 291.231 268.203 291.167 268.234C291.073 268.279 291.136 268.644 290.978 268.782C290.569 269.14 288.552 269.583 287.978 269.181L287.109 270.518C285.451 269.383 284.512 271.53 282.95 270.723L282.572 271.82L281.841 271.568L281.59 272.299L278.344 272.818L277.316 271.647L277.064 272.378C275.951 272.334 276.087 271.535 275.671 271.081C275.507 270.902 274.827 270.5 274.699 270.338C273.683 269.06 274.543 268.628 274.603 267.647C274.621 267.391 273.978 266.564 273.883 266.172L274.815 264.653L275.546 264.904L275.672 264.539L274.941 264.287C274.877 263.226 276.042 263.178 276.238 262.893C277.392 261.205 278.249 258.69 279.474 257.055C280.056 256.278 279.952 255.665 280.96 255.112L280.972 253.89L281.526 253.467L280.486 253.518C279.95 252.7 280.11 252.542 280.806 251.993L280.075 251.741C280.173 251.313 280.452 250.873 280.515 250.461C280.556 250.201 279.899 249.959 280.767 249.73L280.779 248.507C281.547 248.224 281.941 247.971 282.076 247.114L282.807 247.365C283.105 245.967 284.865 245.485 285.162 244.086L285.894 244.338C286.325 243.276 287.03 242.414 287.694 241.481C287.814 241.31 288.365 241.361 288.374 240.693L289.471 241.07C289.7 239.943 290.416 239.134 291.512 238.706L292.581 235.598L293.495 235.912C294.538 235.96 295.582 232.639 297.004 233.439L297.999 231.737L297.267 231.485L297.582 230.571L300.165 229.006C299.55 227.572 301.313 226.666 301.486 225.167L302.217 225.418C302.568 223.924 303.682 223.085 303.966 221.522L305.063 221.899L305.012 220.86L305.818 219.706C307.418 220.498 308.332 219.054 306.687 218.369C306.591 217.162 308.201 217.14 308.476 216.735C309.001 215.967 309.419 214.304 308.751 213.558L309.734 213.079C309.368 212.037 308.98 211.621 307.854 211.41L307.603 212.141L306.871 211.89C306.738 212.621 306.055 212.954 305.397 212.609L305.02 213.706C303.963 213.686 301.654 214.348 301.214 215.259L299.751 214.756L299.979 216.47L298.883 216.093C299.285 217.299 298.537 217.728 298.002 218.652L296.3 217.658L295.305 219.36L296.036 219.612L295.407 221.44L293.088 221.051C293.285 221.855 293.048 222.795 292.636 223.553C292.512 223.781 291.839 223.574 292.384 224.284L291.704 225.073L290.973 224.821L290.721 225.552L289.624 225.175C289.486 225.459 289.461 225.863 289.31 226.089C288.26 227.642 286.706 228.927 285.417 230.271L284.686 230.019C284.476 230.985 283.633 232.033 284.108 232.887L283.371 233.247L282.457 232.932L282.634 233.607L282.143 233.846L282.257 234.704L281.325 236.223L280.228 235.846L279.599 237.674L278.868 237.422C278.569 239.205 276.95 240.001 276.261 241.433L275.53 241.181L275.632 243.261L274.718 242.946L273.981 243.306C273.517 243.964 273.991 244.467 273.969 244.529C273.944 244.602 273.113 244.925 273.163 245.683L272.432 245.431L272.483 246.471C272.012 246.509 271.962 246.999 271.866 247.077C271.278 247.549 269.928 247.813 269.409 248.276C269.254 248.415 269.313 248.779 269.22 248.824C269.146 248.86 268.16 248.541 267.689 249.115L266.861 246.173C267.518 245.904 267.98 244.501 268.107 243.739C268.133 243.592 267.826 243.368 267.867 243.247C267.909 243.127 268.267 243.144 268.359 243.008L270.033 240.517L271.13 240.894L270.714 239.729L270.965 238.997C271.968 238.471 272.379 237.562 272.64 236.507L273.371 236.758L273.749 235.661L274.48 235.913L275.423 233.17C277.342 232.681 276.978 231.207 277.413 229.766L278.71 228.372L279.441 228.623C279.292 226.822 281.756 225.973 282.225 225.287C282.694 224.602 282.72 223.859 283.471 222.854C284.222 221.848 284.551 221.271 285.209 220.18C285.675 219.408 287.652 218.89 288.409 218.01C288.513 217.886 289.12 217.097 289.152 217.039C289.412 216.58 289.48 215.896 289.718 215.393L290.632 215.708L291.369 215.348L291.192 214.674L292.289 215.051C292.958 213.76 291.988 212.527 293.724 212.069L293.61 211.212C294.492 210.787 294.217 209.626 295.462 209.395L295.365 206.704C294.501 207.433 293.735 206.712 292.914 207.292L293.154 207.784C292.267 208.554 291.433 207.568 290.589 207.514C290.516 207.51 289.332 207.839 289.24 207.868C287.775 208.346 287.54 209.851 285.686 208.69L284.76 209.598L284.029 209.347L283.349 210.135C284.202 211.279 283.531 213.314 282.039 212.752L281.536 214.214L280.805 213.963C280.644 214.905 279.725 215.21 279.622 216.213C279.607 216.364 280.07 216.777 279.61 217.436C279.306 217.867 277.487 218.223 276.976 217.961L276.296 218.749C277.17 220.31 275.033 220.638 274.558 221.423C274.318 221.823 274.299 222.532 274.055 222.886C273.897 223.118 272.738 223.373 272.581 223.605C271.964 224.505 270.797 228.279 270.025 228.655L269.294 228.404C269.033 228.531 268.051 232.527 266.573 231.557L265.756 233.934L264.156 235.019L264.447 236.55L263.715 236.299C263.523 237.5 262.671 238.372 261.498 237.989L261.297 239.76L260.063 240.971C260.498 242.356 259.076 243.756 259.411 245.245L258.73 246.033C257.971 245.613 257.53 245.767 256.833 246.199L255.497 245.33L254.457 245.381C254.658 244.178 254.087 243.283 254.795 242.021C254.922 241.795 255.993 241.485 255.298 240.559C256.333 240.355 256.284 239.463 257.024 239.108L256.733 237.577C257.378 237.958 257.873 237.437 258.51 237.166C258.049 236.508 258.642 235.784 258.836 235.029L259.567 235.28L260.865 233.887L260.751 233.03L262.591 232.436C262.071 231.415 262.886 230.162 264.014 230.676L264.82 229.522L264.466 228.174L264.78 227.26L265.512 227.511L267.135 223.981C267.874 224.259 268.432 224.611 269.152 224.061L268.547 223.444C268.474 222.977 269.065 222.997 269.164 222.839C269.714 221.965 270.729 220.453 270.296 219.548C271.087 219.28 271.413 218.975 271.896 218.463C272.745 217.565 273.424 216.208 274.251 215.184C274.402 214.994 274.917 215.065 274.931 214.395L276.028 214.773C276.432 214.253 275.952 213.888 275.977 213.733C276.157 212.556 276.954 211.619 278.08 211.185C277.706 209.956 276.436 209.891 276.063 211.104L273.995 209.984L273.744 210.715C272.853 210.311 272.31 210.876 272.144 211.8L270.19 211.537L270.367 212.211C269.089 212.692 268.489 213.663 268.2 214.942L267.286 214.627C266.705 214.714 266.62 215.151 266.423 215.353C266.302 215.479 266.039 215.47 265.932 215.593C265.784 215.763 265.828 216.109 265.68 216.324C265.585 216.459 265.261 216.437 265.189 216.564C264.568 217.679 264.815 218.721 264.485 219.798L263.2 219.969L263.314 220.826L262.577 221.186L261.662 220.871L261.588 222.277C261.272 222.528 260.256 222.784 260.113 222.996C259.095 224.482 259.301 226.569 256.65 227.12L255.706 229.863L254.421 230.034C254.379 230.155 254.686 230.379 254.661 230.525C254.604 230.857 253.262 233.724 253.037 234.056C252.913 234.238 252.178 234.353 252.054 234.536C251.682 235.082 251.59 236.253 251.236 236.912C251.775 236.832 252.315 237.938 252.082 238.021L251.35 237.769L251.036 238.684L250.299 239.043L250.059 238.552L248.83 239.151L248.693 240.74L247.584 241.585L247.447 243.174C247.126 243.534 246.37 244.794 246.692 245.367L245.583 246.213L245.446 247.801L246.531 249.401L244.388 249.686C243.88 250.284 244.7 250.873 244.679 251.218C244.649 251.686 244.209 252.336 244.113 252.863L244.844 253.115C244.703 253.393 244.681 253.815 244.53 254.029C244.056 254.692 242.726 254.602 242.427 256.576C242.309 257.358 242.657 259.306 241.786 259.627C242.373 260.451 242.24 260.994 241.825 261.89L241.031 261.821C241.435 262.169 241.056 262.807 241.082 262.861C241.113 262.925 241.964 263.128 241.99 263.787L241.122 265.124C241.253 267.451 239.712 269.231 239.349 271.466C239.326 271.613 239.63 271.836 239.588 271.957C239.562 272.034 238.898 272.12 238.908 272.745L240.005 273.123C239.497 273.733 240.043 274.546 239.805 274.894C239.714 275.026 239.394 275.006 239.313 275.134C239.045 275.569 238.751 277.41 238.861 277.636C238.907 277.73 239.272 277.667 239.41 277.825C239.948 278.435 239.066 281.035 239.734 282.23C238.62 282.722 238.95 284.046 238.791 284.972L239.522 285.224L238.276 287.658L239.738 288.161C239.98 288.637 237.863 289.953 238.915 291.149C239.053 291.307 239.418 291.244 239.463 291.338C239.509 291.431 239.239 291.682 239.275 291.886C239.445 292.84 240.399 293.029 239.617 294.457C239.494 294.685 238.822 294.474 239.365 295.189L238.622 296.16C239.026 296.507 238.647 297.146 238.673 297.2C238.724 297.303 240.06 297.722 239.393 298.674L238.662 298.422C238.241 299.181 238.396 299.623 238.827 300.319C238.785 300.44 238.432 300.421 238.335 300.559C238.247 300.684 238.223 302.786 238.186 303.37C238.166 303.715 239.055 304.471 238.351 305.267L235.666 304.752C236.333 303.8 234.997 303.381 234.946 303.278C234.901 303.185 235.171 302.934 235.135 302.73C234.998 301.975 234.125 301.756 235.336 300.958L234.604 300.707C235.222 299.934 233.934 298.211 233.959 297.827C233.987 297.415 234.469 295.442 234.411 295.325L233.503 294.399L234.372 293.062L234.018 291.713L234.887 290.377L234.596 288.845L233.865 288.594L234.179 287.68L232.854 285.588C234.377 284.881 233.062 282.715 234.478 282.057C233.603 280.501 234.362 279.65 234.513 278.389C234.598 277.666 233.849 276.325 234.788 275.212L233.88 274.287C233.87 273.662 234.534 273.575 234.56 273.498C234.602 273.378 234.311 273.176 234.32 273.007C234.363 272.204 234.983 272.163 235.063 272.036C235.659 271.088 235.561 267.807 234.87 266.653L236.482 264.346C236.037 263.857 236.473 263.516 236.494 263.123C236.519 262.669 235.408 261.764 235.963 261.1C237.281 261.619 237.181 260.591 237.626 259.832C237.704 259.699 238.209 259.754 238.243 259.227C238.253 259.066 237.989 258.885 238.004 258.735C238.099 257.889 238.797 256.951 238.153 255.924L239.262 255.079C240.017 253.977 239.155 253.39 238.982 252.325L239.714 252.576C239.663 251.819 240.468 251.523 240.519 251.422C240.8 250.881 241.3 249.45 241.4 248.863C241.687 247.15 242.523 245.409 242.796 243.618C243.002 242.27 244.409 240.914 244.671 239.356C244.956 237.671 246.049 235.921 247.403 234.98L247.655 234.249C247.165 233.688 247.735 233.218 247.792 232.66C247.827 232.345 247.186 231.511 248.295 231.198L248.307 229.975C250.675 229.13 251.913 227.637 251.228 225.051C251.874 225.432 252.368 224.911 253.005 224.64L253.269 222.686C254.87 221.323 256.463 219.618 257.412 217.773L258.144 218.025C258.464 216.986 258.562 216.202 259.692 215.9L259.578 215.043C260.463 214.599 260.727 213.238 260.522 212.3L262.665 212.015C262.331 211.606 262.513 210.851 262.802 210.427C262.865 210.338 264.539 209.241 264.648 209.222C264.853 209.186 265.103 209.456 265.196 209.41C265.29 209.365 265.231 209.001 265.385 208.862C266.043 208.27 267.884 207.791 268.157 206.749L269.494 207.617L269.997 206.155C271.276 206.812 272.5 206.39 273.779 207.047L273.71 207.841C274.013 207.782 274.493 207.35 274.693 207.362C276.195 207.441 277.483 207.467 278.739 206.3C279.844 206.913 280.878 206.451 281.972 207.004C282.009 206.207 282.489 206.143 282.778 205.85C283.703 204.908 283.32 205.32 284.373 205.376C284.972 205.406 286.124 203.934 286.47 203.439C286.526 203.36 288.094 202.595 288.19 202.6C288.895 202.642 289.958 203.356 290.75 203.481C290.901 203.504 291.27 203.026 291.789 203.429L291.99 201.658C292.426 201.555 293.426 200.799 293.71 200.819C294.387 200.86 295.307 201.417 296.155 200.842L296.521 200.968C296.653 201.059 296.633 201.379 296.761 201.459C297.44 201.885 298.645 201.593 299.572 201.609C299.783 201.612 300.251 201.168 300.795 201.621C300.953 201.732 301.283 203.101 301.269 203.215C301.137 204.38 300.103 205.864 300.742 207.123L299.067 209.614Z" fill="#284655"/>
<path d="M287.207 158.507C287.294 158.684 286.545 160.029 286.516 160.518C286.501 160.738 287.01 161.281 286.995 161.501C286.961 162.066 286.411 162.879 286.303 163.512L285.572 163.261L285.623 164.3C284.474 164.49 285.076 166.545 284.806 166.677L283.891 166.363L283.154 166.722L282.84 167.637L282.109 167.385L281.114 169.087L279.651 168.584L277.788 171.623C276.771 171.098 276.209 171.186 275.28 171.783L275.633 173.131L274.765 174.468L274.816 175.508L272.37 175.484L271.616 177.678L271.067 177.49L270.633 178.158C271.424 178.627 272.28 179.408 273.249 179.467C273.529 179.486 274.434 178.734 274.723 178.748C275.591 178.793 276.388 179.091 277.295 178.405L278.632 179.274C279.166 179.004 281.203 178.634 281.694 178.692C282.185 178.751 282.801 179.147 283.34 179.258L282.659 180.047L283.019 180.784C284.278 180.939 285.031 182.175 284.401 183.304L285.133 183.555C285.029 185.07 283.627 184.935 283.395 186.229L284.126 186.481C284.472 187.188 281.157 188.432 280.446 187.668C280.248 188.528 279.521 189.419 279.994 190.171C279.167 190.945 278.394 191.387 277.234 191.061L276.983 191.792L275.886 191.415L275.383 192.878L274.651 192.626L274.702 193.666C273.172 194.084 273.612 196.288 271.691 195.288C271.722 196.149 270.281 196.189 270.028 196.556C269.718 197.005 269.407 198.837 269.21 198.932L268.422 198.252L266.891 198.543L266.816 199.949L265.644 200.977L264.913 200.725L264.536 201.822L263.747 201.142C262.954 201.499 262.273 202.148 262.078 203.022L261.347 202.77C261.222 203.573 260.341 203.651 259.684 204.038L259.924 204.529C258.841 204.885 259.501 205.758 259.232 206.54L256.421 206.391C256.24 207.179 255.235 207.177 255.855 208.037L255.175 208.825L254.078 208.447L253.083 210.15C252.597 209.758 252.12 210.227 252.043 210.201C251.967 210.175 251.88 209.511 251.255 209.521L251.055 211.292C250.312 211.311 249.957 212.284 249.883 212.32C249.79 212.366 248.26 212.236 247.929 212.057L247.615 212.971L246.877 213.331L245.963 213.016L245.586 214.113C244.916 214.087 244.94 213.339 244.432 213.307C244.208 213.292 243.633 213.74 243.026 213.233L243.203 213.907L242.466 214.267L239.964 213.815C240.093 213.164 240.585 212.413 240.656 211.804C240.759 210.931 239.815 209.695 240.565 208.501C240.646 208.373 241.265 208.333 241.308 207.53C241.32 207.33 240.895 206.852 240.828 206.547C240.799 206.418 241.065 206.015 240.714 205.69L240.966 204.959C241.618 204.848 241.483 204.311 241.709 203.988C241.838 203.803 242.568 203.69 242.692 203.508C243.677 202.072 244.199 199.295 246.041 198.526L245.802 198.035L246.419 197.429L246.002 196.264C247.109 196.731 247.481 195.852 247.728 194.813L246.997 194.561C247.026 193.774 247.778 193.882 248.168 193.533C248.322 193.394 248.263 193.03 248.357 192.985C248.421 192.954 249.216 193.317 249.642 192.814L249.163 191.831L249.414 191.1L250.397 190.62L250.106 189.089L248.769 188.22L249.021 187.488L248.347 187.665C247.608 186.438 245.871 186.65 244.69 186.407L243.902 185.727L244.154 184.996L243.422 184.744L243.977 184.322C243.722 183.101 242.662 183.068 242.286 182.104C242.88 181.936 243.174 181.032 243.281 180.402C243.307 180.255 242.999 180.031 243.041 179.91C243.082 179.79 243.441 179.807 243.532 179.671C243.943 179.059 243.955 178.275 245.07 178.768C245.214 177.207 246.112 177.401 246.984 176.769C247.519 176.38 248.936 175.326 248.47 174.827L249.339 173.49L249.288 172.45L250.019 172.702C250.013 171.767 251.876 171.631 252.174 171.194C252.471 170.756 252.507 169.857 252.803 169.366C252.88 169.237 253.812 168.666 253.911 168.52C254.631 167.463 254.597 166.932 256.254 166.464L256.38 166.098C255.67 165.061 257.226 164.447 256.769 163.779L258.067 162.385L258.981 162.699L259.718 162.34L259.604 161.483L261.45 160.277L262.604 161.083C263.036 160.267 262.969 159.475 262.01 159.243L263.256 156.81L265.45 157.564L265.411 155.302C265.794 154.947 267.897 153.875 267.994 153.737C268.202 153.428 268.238 152.836 268.434 152.457C269.032 152.966 269.621 152.146 269.965 152.166C271.026 152.233 271.805 153.048 272.582 153.475L272.33 154.207L274.158 154.836C274.252 154.79 274.189 154.425 274.347 154.287C275.134 153.593 275.762 154.312 276.547 154.431C277.569 154.586 278.739 154.976 279.598 155.071C280.397 155.162 281.041 155.322 281.917 155.46C283.043 155.635 285.129 157.036 286.054 157.701C286.254 157.844 286.415 158.529 287.207 158.507ZM277.276 161.224C276.352 160.796 275.335 161.031 274.522 161.504C274.3 160.63 273.481 160.074 272.58 160.018C272.3 159.999 271.395 160.751 271.106 160.737C270.628 160.712 270.258 160.29 269.637 160.845L269.323 161.759L268.592 161.508L268.328 163.462L266.248 163.564L266.174 164.97C265.245 165.566 264.683 165.655 263.665 165.129L262.671 166.831L261.939 166.58L260.819 168.648L260.088 168.396L260.505 169.562L259.887 170.167L260.127 170.659C259.851 170.854 259.364 170.94 259.144 171.139C258.973 171.292 258.556 171.991 258.401 172.11C258.062 172.369 257.066 172.628 256.927 172.829C256.43 173.55 256.829 174.255 256.601 174.966L255.63 174.223C255.342 174.975 254.631 175.544 253.841 175.857L253.955 176.714C252.941 177.011 253.814 177.884 253.263 178.725L252.475 178.045L250.389 178.758C249.923 180.078 249.729 181.484 248.4 182.163C247.673 183.181 250.758 184.177 251.559 184.272C252.148 184.344 252.203 183.742 253.147 184.41C253.38 184.576 256.545 185.231 256.929 185.302C257.314 185.373 258.483 185.743 258.758 185.931C259.032 186.12 259.091 187.293 260.151 187.228C259.731 187.987 259.886 188.429 260.317 189.125L259.699 189.731L259.625 191.137L258.162 190.633L258.013 193.444C257.015 192.839 256.324 193.55 255.379 193.969L255.167 196.963L252.355 196.814L252.407 197.854L251.121 198.025L251.172 199.065C250.603 199.27 250.598 199.284 250.921 199.796L249.926 201.499C250.519 202.52 250.831 203.135 250.205 204.253L251.302 204.63L251.679 203.533C252.892 203.836 254.652 202.106 255.005 200.997L256.594 201.135L256.971 200.038C258.382 200.454 259.04 199.314 259.314 197.981C260.437 198.486 260.441 197.666 260.852 197.079C261.149 196.654 262.892 196.591 263.36 196.92C263.499 195.659 265.082 195.03 264.429 193.812L266.835 191.573C267.632 192.276 268.388 191.387 268.732 191.407C269.2 191.438 269.85 191.878 270.378 191.974L270.641 190.02L273.275 189.495L273.161 188.637C273.65 188.274 273.474 188.038 274.03 187.301C274.344 186.886 274.716 186.032 275.025 185.598C275.261 185.267 277.058 184.81 277.482 184.399C278.038 183.863 277.132 183.551 276.756 183.536C276.547 183.526 276.248 183.991 275.716 183.587L275.465 184.319L274.551 184.004L273.814 184.364L273.99 185.038C272.755 184.67 270.947 185.017 270.151 183.717L268.746 183.643L268.494 184.374L267.832 183.328L266.426 183.253L266.174 183.985L265.135 184.036C263.854 182.896 264.257 180.679 262.667 179.916L262.754 177.287C263.07 177.032 264.077 176.782 264.228 176.568C265.32 175.009 267.023 174.115 267.326 172.318C267.352 172.171 267.045 171.947 267.086 171.826C267.113 171.749 267.776 171.663 267.766 171.038L269.355 171.175L269.87 168.49L270.601 168.742C270.739 168.102 270.975 167.595 271.653 167.468C271.858 167.428 272.108 167.702 272.201 167.657C272.109 166.795 273.221 165.881 273.258 165.771C273.3 165.651 272.996 165.428 273.019 165.28C273.258 163.825 275.698 163.053 276.294 161.704L277.276 161.224Z" fill="#284655"/>
<path d="M325.164 178.927L324.22 181.669L322.255 182.628L321.323 184.148C320.642 183.844 319.829 183.687 319.186 183.822C318.371 183.991 317.82 184.951 316.798 184.227L316.169 186.055C315.654 185.661 314.699 186.249 314.272 186.22C313.932 186.197 313.514 185.866 313.175 185.843C312.687 185.81 311.678 187.066 310.786 186.248C310.655 187.519 309.305 187.284 309.174 188.556L308.386 187.875L306.786 188.961L305.872 188.646L305.62 189.377C304.379 189.04 303.181 190.763 302.261 189.039C301.511 189.354 300.638 189.05 300.478 190.062C300.052 189.968 299.601 189.674 299.198 189.621C299.049 189.603 298.861 189.877 298.707 189.861C297.301 189.717 297.39 188.934 297.136 187.89L297.753 187.284L297.828 185.879C297.916 185.835 298.15 186.084 298.376 186.067C299.791 185.973 300.054 185.054 300.833 184.868C301.572 184.693 302.228 185.094 302.787 185.131C302.972 185.142 305.475 184.024 306.102 183.818C306.511 183.685 306.917 183.375 307.33 183.219L307.405 181.813L309.668 181.774L311.187 182.705L312.182 181.003C312.909 181.278 313.56 181.645 314.199 181.083C314.838 180.522 315.724 180.062 316.833 180.558C317.416 179.078 319.427 180.47 320.033 178.388C320.717 179.004 321.808 178.291 322.296 178.349C322.858 178.415 323.535 178.882 324.124 178.978C324.275 179.001 324.648 178.524 325.164 178.927Z" fill="#284655"/>
<path d="M214.705 144.604L214.328 145.701L215.607 146.141C215.907 147.136 216.506 148.188 216.006 149.141C217.177 149.625 216.864 151.153 218.554 151.244L218.177 152.341L218.908 152.593C218.197 153.816 219.037 154.167 219.559 154.861C219.75 155.115 219.887 155.739 220.039 155.844C220.512 156.167 221.917 156.184 221.861 157.085C221.816 157.785 221.187 158.284 221.963 159.164L221.157 160.318L222.62 160.821L222.671 161.861L220.831 162.455L220.391 163.735L219.294 163.357L219.042 164.089C217.839 163.985 217.596 163.194 216.917 162.54C216.763 162.393 216.403 162.441 216.186 162.288C215.968 162.136 215.741 161.121 215.466 160.814C215.327 160.66 214.963 160.719 214.918 160.625C214.815 160.414 215.314 158.308 214.759 158.117L214.267 158.357C213.869 158.22 213.976 156.183 214.171 155.666C213.138 154.791 213.408 153.211 212.303 152.774C212.982 151.527 212.657 150.258 211.23 149.951L211.984 147.757L211.076 146.831L211.402 144.695C210.039 144.45 210.891 143.447 211.963 143.661C212.855 143.837 213.8 144.383 214.705 144.604Z" fill="#284655"/>
<path d="M334.268 236.854L334.016 237.585C334.918 237.973 336.086 237.929 336.387 239.014C335.601 239.218 336.335 239.843 335.884 240.477C335.332 241.248 333.778 240.942 333.01 240.511L332.758 241.242L329.947 241.093L329.696 241.824L328.176 240.892L327.136 240.943L326.885 241.675C326.103 241.712 325.889 240.968 325.731 240.869C325.455 240.696 323.498 240.383 323.045 240.354C322.766 240.335 321.851 241.092 321.571 241.073C320.482 241.005 319.402 240.008 319.023 238.97L317.801 238.958C317.775 238.426 317.039 238.332 317.012 238.278C316.967 238.185 317.237 237.934 317.201 237.73C317.069 236.985 316.388 236.599 317.162 235.467C317.781 235.962 318.366 235.153 318.693 235.176C319.397 235.222 320.495 235.645 321.378 235.691C321.668 235.705 322.573 234.953 322.853 234.971C323.481 235.012 324.418 235.686 325.046 235.726C325.266 235.74 325.809 235.232 326.029 235.246C326.983 235.305 328.609 235.844 329.629 236.076L329.88 235.345C330.355 235.594 331.138 235.646 331.526 235.911C331.833 236.123 331.737 237.186 333.102 237.271C333.354 237.288 333.876 236.687 334.268 236.854Z" fill="#284655"/>
<path d="M169.699 208.86L169.801 210.939L169.07 210.688L168.756 211.602L167.47 211.773L167.584 212.63L166.179 212.555L165.573 211.938C165.181 212.032 164.354 212.676 164.099 212.658C163.307 212.606 162.472 211.775 162.076 213.189C161.292 213.221 161.09 212.489 160.922 212.383C160.628 212.192 160.103 212.195 159.825 212.005C159.643 211.881 159.53 211.151 159.345 211.022C158.867 210.69 158.071 210.887 157.889 209.908L158.746 209.794C158.707 209.609 158.483 209.417 158.506 209.302C158.914 207.296 159.525 207.801 161.095 207.126C162.677 207.425 164.329 207.875 165.86 207.539L167.745 208.596L167.997 207.865L169.699 208.86Z" fill="#284655"/>
</svg>
