<svg width="437" height="398" viewBox="0 0 437 398" fill="none" xmlns="http://www.w3.org/2000/svg">
<path d="M143.366 123.366V124.866L147.366 124.366V123.366H150.866C150.966 124.406 150.721 125.616 150.866 126.616C151.011 127.616 152.216 129.771 152.366 130.616C152.811 133.101 151.511 135.491 153.866 137.616L152.866 138.616L153.366 139.616L152.366 140.616C153.176 141.601 152.796 143.066 152.866 144.116C152.871 144.206 151.976 144.991 152.366 145.866H153.866C153.141 146.661 153.551 147.436 153.366 148.116C153.241 148.561 151.731 149.321 152.366 150.866L154.366 151.116L153.866 153.366L152.366 154.116L153.866 156.866L152.366 157.616L152.866 158.616C151.576 160.771 152.911 164.681 152.366 167.116C152.081 168.391 152.166 170.426 152.366 171.616C152.481 172.301 152.291 173.146 152.366 173.866L153.866 174.116L151.866 176.616C154.086 178.616 152.451 182.046 151.366 184.116L152.866 188.866H151.866C151.836 190.246 152.631 191.166 152.366 192.616C151.996 194.641 152.241 197.761 151.866 199.116C151.791 199.391 150.941 199.841 150.866 200.116C150.706 200.701 150.971 201.681 150.866 202.366H151.866C151.746 203.501 152.261 204.896 151.366 205.616L152.366 207.866L154.616 208.866C155.816 207.161 157.296 207.976 158.866 208.366V209.366L160.866 208.866L160.366 211.366L164.616 210.366C165.116 211.851 169.366 211.626 169.366 210.616L168.866 210.116L169.366 207.866H168.366C168.141 207.641 168.566 204.011 168.366 203.116C168.111 201.981 167.471 199.341 168.366 198.116L167.366 196.616C168.301 195.061 169.196 192.456 167.366 191.116L167.866 189.616L167.366 189.116C168.486 187.911 167.831 186.516 166.866 185.366H167.866L168.366 183.116L166.866 181.616C167.626 181.026 167.626 179.706 166.866 179.116L168.366 178.116L166.866 177.366C166.681 176.011 168.146 174.731 166.866 173.616L167.866 171.616L167.366 170.116L167.866 168.616L166.866 167.116L167.366 166.616L166.366 161.616C167.246 160.126 168.091 160.646 169.116 160.366C169.281 160.321 170.566 158.986 171.116 158.866C172.336 158.601 173.616 158.981 174.616 159.366C175.561 158.426 177.561 158.496 177.366 156.866H184.366V157.866H185.366V156.866C187.316 157.386 189.251 155.631 190.616 156.866L192.116 155.866C192.961 157.121 193.961 156.911 195.366 156.866C195.486 158.461 197.641 159.256 197.366 161.116L196.366 162.116C197.141 162.771 197.141 164.461 196.366 165.116V165.616C197.881 166.616 197.276 168.216 197.366 169.866H196.366C196.771 171.251 196.646 172.651 196.866 174.116C196.891 174.301 197.321 174.416 197.366 174.616C197.606 175.656 196.786 177.056 197.366 178.366H196.366C195.976 178.756 196.986 183.436 195.866 184.116L196.866 185.116L196.366 187.116L196.866 187.616L196.366 188.116C196.366 188.281 196.806 188.406 196.866 188.616C197.161 189.641 195.726 190.371 196.866 191.116L196.366 192.366L198.366 192.866L197.366 194.866H196.366V196.116L197.366 198.616L195.866 199.366L197.366 202.616C197.106 202.941 196.396 204.441 196.366 204.616C196.091 206.146 196.561 208.251 196.366 209.866H197.366V210.866C198.341 210.891 198.946 211.641 200.116 211.366C200.316 211.321 200.431 210.891 200.616 210.866C202.536 210.586 204.901 211.636 206.116 209.866L206.866 211.366C209.396 211.316 208.056 207.701 208.366 205.866H207.366C207.191 204.866 208.286 204.711 207.366 204.116L208.366 202.616C208.366 202.451 207.926 202.326 207.866 202.116C207.581 201.111 208.521 200.696 208.366 200.116L207.366 198.616L207.866 198.116L207.366 196.116L210.116 192.366C211.926 192.351 213.726 192.706 215.116 191.366H215.616C216.861 192.656 218.426 191.271 219.866 191.366V190.366H220.866V191.366C222.136 191.891 222.686 190.486 223.116 190.366C223.546 190.246 224.171 190.471 224.616 190.366C224.816 190.321 224.931 189.891 225.116 189.866C227.266 189.546 227.851 190.091 229.366 191.366V190.366C230.341 190.341 230.936 189.596 232.116 189.866C232.341 189.916 232.556 190.641 233.366 190.366C233.236 191.636 233.301 192.356 234.366 193.116L233.866 195.366H234.866C234.731 196.361 235.061 197.706 234.866 198.616C234.791 198.961 233.441 200.441 233.866 200.866H234.866L235.366 202.616C234.701 203.216 234.316 204.061 233.366 203.866C233.486 205.061 233.196 206.466 233.366 207.616C233.386 207.761 234.246 208.461 233.866 209.366C234.671 209.091 234.921 209.831 235.116 209.866C236.276 210.071 236.961 210.096 238.116 210.366C239.671 210.731 240.646 209.941 240.366 208.366L244.116 209.366L246.616 207.866L248.116 208.866C248.666 208.121 249.566 208.121 250.116 208.866L251.116 207.866C255.471 209.471 260.446 206.176 265.116 208.866L266.616 207.866C267.096 207.931 267.686 207.766 268.116 207.866C268.651 207.986 268.751 208.686 270.116 207.866L271.116 208.866L273.616 207.866C274.096 207.931 274.686 207.766 275.116 207.866C276.006 208.071 278.351 208.151 279.616 207.866C279.816 207.821 279.956 207.186 280.616 207.366C280.896 207.441 281.411 208.231 282.366 207.866V208.866C283.171 209.141 283.416 208.401 283.616 208.366C285.341 208.056 286.791 208.821 287.866 210.116L286.866 211.616L287.366 212.866C286.261 212.671 285.786 213.046 285.116 213.866L283.116 213.366L280.616 214.366C279.026 212.706 277.891 213.681 276.616 213.866C274.646 214.151 272.551 213.626 271.116 213.866C268.611 214.281 266.676 213.661 264.116 213.866L262.616 212.866L260.366 213.866V212.866C259.651 212.946 258.786 212.741 258.116 212.866C257.971 212.891 257.591 213.661 256.616 213.366C252.846 212.221 254.121 213.951 252.616 214.366C252.036 214.526 248.861 214.476 248.116 214.366C247.931 214.341 247.816 213.911 247.616 213.866C247.406 213.816 244.021 214.256 243.616 214.366C243.186 214.486 242.811 215.736 241.866 215.366V214.366C240.031 215.856 238.156 215.116 236.116 215.366C235.931 215.391 235.806 215.831 235.616 215.866C234.426 216.081 233.731 215.681 232.616 215.866C230.921 216.146 230.086 215.371 228.616 214.866L227.616 215.866L226.116 215.366L225.616 215.866C223.251 215.011 220.121 216.426 217.616 215.866C216.241 215.556 214.796 216.366 214.616 216.366C214.511 216.366 214.126 215.591 213.366 215.866L212.616 217.366L210.116 216.366C209.476 217.331 209.446 216.421 209.116 216.366C207.416 216.086 205.151 216.571 203.366 216.366V217.366C202.306 216.896 199.871 217.936 199.616 217.866C199.416 217.811 199.306 217.406 199.116 217.366C198.486 217.241 195.096 216.636 194.866 216.866V217.866L192.366 218.366V217.366C190.391 217.166 188.896 218.176 186.866 217.866V216.866C185.341 216.996 183.601 216.681 182.116 216.866C181.781 216.906 180.966 217.666 179.616 217.366C177.796 216.956 175.911 217.976 174.116 216.866C172.586 219.031 170.836 218.706 169.116 216.866H166.366V217.866L164.366 217.366V218.366C162.546 218.601 161.716 218.291 160.616 216.866L159.116 218.366L156.366 218.866V217.866C155.646 217.791 154.801 217.976 154.116 217.866C153.931 217.836 153.816 217.411 153.616 217.366C151.791 216.941 151.356 218.846 149.616 218.366C149.036 218.206 148.781 216.886 146.616 217.366C144.696 217.791 142.376 217.986 140.116 217.366C139.601 217.221 138.486 215.251 137.116 216.866L136.366 216.366V217.366H132.866V215.866L131.116 216.866L128.616 216.366L127.616 217.366L125.616 215.866L124.616 216.366C123.421 214.521 122.501 215.736 121.616 215.866C120.541 216.021 119.236 215.756 118.116 215.866L117.366 214.366C115.946 214.501 115.001 215.751 113.366 215.366C113.571 214.176 111.976 213.921 112.366 212.616C112.391 212.531 113.531 211.391 113.616 211.366C113.926 211.276 114.306 211.456 114.616 211.366C115.056 211.241 115.421 210.001 116.366 210.366V211.366C116.506 211.531 117.916 210.411 118.116 210.366C118.706 210.236 121.526 210.236 122.116 210.366C122.296 210.406 122.401 210.771 122.616 210.866C123.126 211.086 123.576 210.416 123.366 211.866L124.366 211.116L123.866 210.616L124.366 210.116C123.206 209.131 122.671 207.841 122.866 206.366H124.366C124.336 206.126 124.451 205.831 124.366 205.616C124.126 205.011 124.046 204.426 123.866 203.616C123.426 201.651 123.931 199.366 123.366 197.616C123.016 196.536 123.141 195.956 122.866 194.616C122.761 194.106 122.931 193.426 122.866 192.866L123.866 192.616C122.171 191.566 123.156 189.731 122.866 188.116C122.661 186.956 122.761 186.041 122.366 185.116C123.396 182.951 121.856 179.966 122.366 177.116C122.671 175.411 122.766 173.826 122.366 172.116C122.066 170.836 123.206 169.766 122.866 168.366H121.866L121.366 167.116L122.866 165.616L121.366 162.116C121.646 161.671 122.771 160.941 122.866 160.616C123.006 160.126 122.616 159.526 123.366 159.116L121.366 157.616L122.366 156.116L121.866 155.116L122.366 154.616L121.866 153.616L122.366 153.116L121.866 151.616L122.366 151.116L121.866 150.116L122.366 148.866H121.366L121.866 148.116C120.896 147.106 121.166 145.421 122.366 144.616C121.611 144.211 122.016 143.576 121.866 143.116C121.746 142.741 120.756 136.581 120.866 136.116C121.466 133.541 120.006 133.866 120.366 132.616C120.726 131.366 119.821 130.286 120.866 129.116L119.866 128.116C120.626 127.526 120.626 126.206 119.866 125.616C120.531 125.016 120.916 124.171 121.866 124.366V123.366L124.116 122.366L125.116 123.366L128.116 122.866L129.616 123.866C129.781 123.866 129.906 123.426 130.116 123.366C130.546 123.241 131.601 123.636 133.116 123.366C135.511 122.941 138.016 123.941 140.116 123.366C140.306 123.316 141.306 122.601 141.616 122.366L143.366 123.366ZM147.366 128.366C145.651 128.861 143.836 128.826 142.616 130.366L140.616 129.366L137.616 130.866C137.036 131.031 135.976 129.966 135.616 129.866C135.191 129.751 134.541 129.981 134.116 129.866C133.841 129.791 133.391 128.941 133.116 128.866C131.906 128.531 130.891 129.246 129.866 129.366V130.366C128.771 130.181 127.936 129.626 126.616 129.866C126.416 129.901 126.171 130.641 125.366 130.366C125.851 132.116 124.451 132.516 124.366 133.866L125.866 134.616L124.866 137.366H125.866L125.366 140.616C126.286 141.206 125.201 141.351 125.366 142.366L128.616 141.366C129.156 141.081 129.386 141.811 129.616 141.866C131.416 142.281 131.946 140.346 133.866 140.866L134.616 142.366L136.116 140.866C136.831 141.811 137.416 142.031 138.616 141.866L141.116 140.866L142.616 142.366L144.616 140.866L146.116 141.866L146.866 140.366H147.866L146.866 139.116L147.866 137.116C146.271 135.521 146.611 131.801 146.866 129.616C146.946 128.931 147.216 128.881 147.366 128.366ZM147.866 155.366L146.366 152.616C147.116 152.206 146.726 151.606 146.866 151.116C146.961 150.791 148.086 150.061 148.366 149.616L147.866 147.616L148.366 146.616C147.251 145.336 145.701 145.236 144.116 145.366L140.116 147.866L139.366 146.366C138.231 146.486 136.836 145.971 136.116 146.866L135.616 146.366L133.616 146.866L132.116 145.866C130.261 146.376 129.706 145.781 127.616 146.366C126.986 146.541 126.711 145.621 125.866 145.866C125.476 146.756 126.331 147.416 126.366 147.616C126.646 149.156 126.051 149.941 127.866 151.116C126.606 152.156 126.051 152.896 126.366 154.616C126.401 154.806 126.841 154.931 126.866 155.116C127.046 156.591 127.026 158.706 126.866 159.616C126.771 160.146 126.926 160.801 126.866 161.366C127.686 161.631 127.831 160.966 128.116 160.866C129.081 160.536 130.001 159.896 130.116 159.866C132.896 159.101 136.871 160.161 139.616 159.366C140.041 159.241 140.396 158.581 141.616 158.866C141.961 158.946 142.366 159.646 143.616 159.366L145.116 158.366L146.866 158.866C147.136 158.046 146.436 157.866 146.366 157.616C146.221 157.091 147.231 156.326 146.866 155.366H147.866ZM184.366 176.866C185.476 176.346 187.386 176.676 189.116 176.366C189.301 176.331 189.411 175.931 189.616 175.866L191.366 176.616L192.366 176.116C192.526 175.526 191.081 174.426 192.366 173.616L191.366 172.116L191.866 171.116L190.866 169.366H191.866L191.366 164.366H192.366V161.866L191.116 162.366L189.616 161.366L187.116 162.866C184.861 161.631 182.511 163.211 180.616 162.866C180.426 162.831 180.306 162.401 180.116 162.366C178.416 162.056 177.016 163.036 175.616 163.366C175.171 163.471 174.536 163.251 174.116 163.366C173.696 163.481 173.311 164.736 172.366 164.366L171.866 168.616L173.366 169.366C173.566 170.586 172.571 171.341 172.866 172.616C173.066 173.491 173.356 172.596 172.866 174.116C172.716 174.576 173.121 175.211 172.366 175.616L173.866 179.366L174.366 178.366L176.366 178.866V177.866C177.286 178.246 177.931 177.401 178.116 177.366C178.996 177.201 180.051 177.746 180.616 176.866L181.366 177.866L180.866 179.866C179.521 180.496 177.401 180.501 175.616 180.866C175.106 180.971 174.426 180.801 173.866 180.866L173.616 179.866L172.366 181.116L173.366 183.116C171.826 184.501 174.166 186.451 172.866 187.616L174.366 190.116C173.051 191.366 174.546 193.016 174.366 194.616C175.231 195.866 175.361 194.881 175.616 194.866C176.241 194.821 177.131 195.001 177.616 194.866C177.891 194.791 178.341 193.941 178.616 193.866C179.491 193.626 183.116 194.116 183.366 193.866V192.866L184.616 192.366L184.866 193.366L186.116 192.866L186.616 193.366L187.866 192.866V193.866H189.116C190.041 193.026 191.146 192.706 192.366 192.866C192.641 192.061 191.901 191.816 191.866 191.616C191.661 190.471 191.686 189.306 191.366 188.116C191.046 186.926 191.196 185.761 190.866 184.616C190.616 183.751 191.481 183.591 190.866 181.616C190.561 180.646 191.526 180.186 191.366 179.616L190.116 178.866L188.116 179.866L187.116 179.366C186.381 180.266 185.276 179.936 184.366 179.366H183.616L182.866 178.866V179.866C182.701 179.876 182.531 179.866 182.366 179.866C181.886 179.121 181.816 178.766 181.866 177.866C181.881 177.621 181.851 177.366 181.866 177.116L182.366 176.866L183.366 177.366V178.366H183.866L184.366 176.866ZM147.366 162.866C146.326 162.721 145.321 163.241 144.616 163.866C142.471 162.466 140.941 165.711 138.616 163.866L134.866 164.866V163.866C133.961 163.486 133.216 164.366 133.116 164.366C133.011 164.366 132.626 163.591 131.866 163.866V164.866C130.491 165.391 129.916 163.486 128.616 163.866C127.691 164.136 128.101 165.651 127.366 166.116C127.076 167.111 127.866 167.531 127.866 167.616C127.866 167.781 127.426 167.906 127.366 168.116C127.036 169.256 128.171 169.846 128.866 170.616L127.866 172.616C128.301 173.646 128.506 174.596 128.366 175.866L128.866 174.866H130.866L130.366 175.866L132.616 176.366C133.616 175.581 134.186 176.186 135.616 175.866C137.626 175.416 140.391 176.686 142.116 174.866L143.616 175.866L144.616 174.866C145.261 174.686 145.161 175.491 146.366 175.116C147.021 174.911 146.846 175.331 147.366 175.366C147.271 173.981 147.501 172.481 147.366 171.116C147.346 170.936 146.891 170.801 146.866 170.616C146.751 169.756 146.946 168.756 146.866 167.866H148.366L147.866 167.116L148.366 166.616L147.866 166.116L148.366 165.366H147.366V162.866ZM147.866 190.366C148.371 188.276 146.536 186.211 147.866 184.616L146.866 181.616C148.156 180.781 146.901 179.446 146.866 179.116C146.851 178.991 147.851 178.641 146.616 177.866C145.976 178.946 145.361 178.651 144.616 178.866C144.336 178.946 143.891 179.791 143.616 179.866C143.211 179.976 142.591 179.786 142.116 179.866C141.926 179.901 141.781 180.366 141.616 180.366C141.451 180.366 141.306 179.896 141.116 179.866C137.621 179.286 133.941 180.156 130.116 179.366C129.606 179.261 128.926 179.431 128.366 179.366C128.091 180.106 128.871 180.531 128.866 180.616C128.861 180.786 128.396 180.926 128.366 181.116C128.136 182.501 128.141 184.326 129.366 185.116L128.366 186.616C129.071 187.931 128.586 188.156 128.366 189.366H129.366C129.096 190.186 129.786 190.351 129.866 190.616C130.226 191.796 128.236 192.701 128.866 194.366L130.616 194.866L131.116 194.366L132.866 195.366V194.366L134.116 193.866C135.936 194.736 139.416 194.791 141.116 193.366L142.616 193.866L144.116 192.866L146.866 193.366V190.366H147.866ZM177.866 196.366L175.866 195.866V197.366H173.366C172.926 198.486 174.241 199.551 174.366 200.116C174.856 202.316 172.736 206.336 174.366 208.616L173.866 209.116L174.866 210.116L174.366 211.366L175.616 210.866L176.616 211.866L177.616 210.866C179.201 213.111 181.581 210.996 183.616 211.366C183.806 211.401 183.921 211.826 184.116 211.866C184.626 211.971 185.306 211.801 185.866 211.866C185.831 209.811 188.386 209.786 188.366 211.866C189.401 212.051 189.866 211.006 190.616 210.366C191.296 210.171 191.571 211.411 192.366 210.116L190.866 208.116L192.366 205.116C192.366 204.951 191.921 204.821 191.866 204.616C191.391 202.831 191.086 200.926 190.866 199.616C190.726 198.786 190.961 197.741 190.866 196.866C189.891 196.891 189.286 197.641 188.116 197.366C186.451 196.976 185.101 197.196 183.116 196.866C181.601 196.616 181.626 197.186 180.616 197.366C179.796 197.511 178.736 197.266 177.866 197.366V196.366ZM227.866 195.866L226.366 196.116L225.616 195.866L224.116 196.866C222.976 195.631 221.156 196.656 220.116 196.866C219.601 196.971 218.926 196.801 218.366 196.866V198.366C217.336 198.476 216.096 198.206 215.116 198.366C214.926 198.396 214.791 198.856 214.616 198.866C214.526 198.871 213.741 197.976 212.866 198.366C213.801 199.451 214.201 200.631 213.866 202.116C213.486 203.806 214.406 205.091 213.366 206.616L214.366 208.616L213.366 210.366C214.181 210.626 214.491 209.686 215.116 209.866C217.041 210.416 217.591 210.026 219.116 210.366C220.451 210.666 223.396 210.616 224.116 209.366C224.876 210.431 225.596 210.496 226.866 210.366L227.866 208.616L227.366 208.116L228.366 206.616C227.611 205.871 228.046 204.801 226.866 204.116L227.866 203.116L227.366 201.616L227.866 201.116L226.366 198.616L227.866 195.866ZM147.366 196.866L146.366 197.866C145.096 197.736 144.376 197.801 143.616 198.866H143.116C141.801 197.671 139.721 198.571 138.616 199.866L136.366 199.366V198.366C135.371 198.876 134.171 199.091 134.366 200.366L129.616 199.366C128.376 200.236 128.991 201.791 128.866 203.116L130.366 203.866C130.341 204.841 129.591 205.446 129.866 206.616C129.911 206.806 130.306 206.911 130.366 207.116C130.651 208.056 129.716 208.496 129.866 209.366C130.686 209.636 130.851 208.946 131.116 208.866C132.096 208.571 132.451 209.331 132.616 209.366C133.126 209.471 133.806 209.301 134.366 209.366V208.366C134.601 208.401 134.906 208.276 135.116 208.366C135.511 208.531 136.886 209.326 137.116 209.366C137.861 209.501 138.821 209.276 139.616 209.366L140.366 207.866C141.271 207.486 142.016 208.366 142.116 208.366C142.226 208.366 142.886 207.526 144.116 207.866C144.751 208.041 145.671 210.206 146.866 209.866L147.116 208.866H147.866C147.806 207.521 146.516 206.636 146.866 205.116C146.911 204.921 147.311 204.816 147.366 204.616L146.866 203.116L147.366 202.616L146.866 201.616L147.366 201.116L146.866 200.616L147.866 199.116L147.366 196.866Z" fill="black"/>
<path d="M250.867 170.866C250.807 170.381 250.902 169.856 250.867 169.366H249.867V167.866H250.867C250.952 167.781 250.767 167.396 250.867 167.116C251.092 166.491 251.427 166.861 250.867 165.616L252.617 164.366C253.397 164.646 253.307 165.811 253.367 165.866C253.467 165.961 253.882 165.731 254.117 165.866C254.917 166.321 255.162 168.416 257.367 167.866C256.997 168.811 258.247 169.186 258.367 169.616C258.487 170.046 258.252 170.691 258.367 171.116C258.582 171.891 260.417 172.406 260.867 173.116C261.592 174.261 262.032 175.936 261.867 177.366H263.117L264.867 179.616L264.367 182.116L262.617 183.366L260.367 182.866L259.617 184.366C258.832 184.016 258.262 184.841 258.117 184.866C257.097 185.046 255.502 184.621 254.617 184.866C254.147 184.996 253.677 185.496 252.117 185.866C251.887 185.921 251.682 186.641 250.867 186.366V185.366H247.867L248.367 186.366H246.867V187.366H245.867V186.366C245.782 186.281 245.397 186.466 245.117 186.366C244.492 186.141 244.862 185.806 243.617 186.366C243.167 185.896 241.557 185.306 241.367 184.616C241.062 183.526 241.847 182.831 241.867 181.866H242.867V180.866C244.467 180.686 245.797 180.141 247.617 180.366C247.802 180.391 247.937 180.846 248.117 180.866C249.232 180.986 250.477 180.781 251.617 180.866L252.367 179.366L254.367 179.866V178.366C253.097 178.891 252.547 177.486 252.117 177.366C251.437 177.176 249.067 177.566 248.867 177.366C248.937 176.791 248.137 175.016 247.617 174.866C246.427 174.526 245.312 174.016 244.117 173.366C243.472 173.016 243.372 172.036 242.117 172.366L241.367 172.866V171.866H240.367V170.366H237.117C236.137 169.876 236.537 168.131 235.617 167.866C233.917 167.376 232.752 166.051 232.117 165.866C230.107 165.276 226.217 164.216 225.867 162.366C224.862 162.446 223.727 162.026 223.117 162.866L221.867 162.366V160.366C221.322 160.286 220.577 160.491 220.117 160.366C219.397 160.166 217.762 157.731 217.367 157.116C216.752 156.151 216.272 156.541 215.617 156.366C215.412 156.311 215.282 155.866 215.117 155.866C214.922 155.866 213.527 156.616 212.117 156.366C211.932 156.331 211.822 155.931 211.617 155.866C211.062 155.691 210.382 156.066 209.867 155.116L210.367 153.866C208.897 154.001 206.782 153.516 206.867 151.866H204.867C204.772 151.771 205.002 151.351 204.867 151.116C204.162 149.876 203.022 150.616 202.117 150.366C201.407 150.171 200.237 148.116 199.117 147.866C197.522 147.511 195.582 148.681 195.867 145.866C195.782 145.781 195.397 145.966 195.117 145.866C194.492 145.641 194.862 145.306 193.617 145.866L191.367 144.866V143.866L188.617 144.366L186.867 143.116L186.367 140.866C186.162 140.616 185.787 141.331 185.617 141.366C183.132 141.876 183.467 139.606 182.617 139.366C181.367 139.011 180.852 138.431 180.617 138.366C179.952 138.181 178.782 138.551 178.117 138.366C177.697 138.251 176.537 136.481 176.117 136.366C175.572 136.216 174.662 136.516 174.117 136.366C173.697 136.251 172.457 134.486 171.867 134.116V131.616C172.787 130.336 174.487 131.011 175.867 130.866V131.866C177.862 131.306 178.037 132.721 179.117 133.366C180.142 133.976 182.167 134.286 183.117 133.866L185.117 136.366C187.762 135.891 188.782 137.696 191.117 138.366C192.167 138.666 193.427 140.811 193.617 140.866C194.162 141.016 195.072 140.716 195.617 140.866C195.762 140.906 196.752 141.966 197.617 142.366C199.382 143.186 200.562 144.291 202.867 143.866V144.866H204.367L205.117 146.366H208.867V148.366C209.872 148.336 210.822 148.161 211.367 149.116C211.912 150.071 212.197 150.471 213.867 150.366V151.366H214.867V152.866H218.367V153.866L219.617 154.366L221.367 153.366V154.866L223.867 154.366V155.366H225.117C225.317 155.641 225.722 155.856 225.867 156.116C226.672 157.531 229.142 158.431 230.867 159.366V160.366L233.867 159.866C233.792 160.671 233.777 162.136 234.617 162.366C235.042 162.481 235.692 162.251 236.117 162.366C236.467 162.461 237.267 163.771 237.617 163.866C238.162 164.016 239.072 163.716 239.617 163.866C239.907 163.946 242.332 165.726 241.867 166.366H244.867V168.366H246.367C246.262 169.916 247.492 170.001 248.867 169.866V170.866C249.527 170.886 250.207 170.836 250.867 170.866C250.897 171.116 250.787 171.411 250.867 171.616L251.867 172.366V170.866C251.537 170.861 251.197 170.881 250.867 170.866Z" fill="black"/>
<path d="M258.367 113.866C258.462 113.961 258.882 113.731 259.117 113.866C260.007 114.371 261.192 117.576 261.867 118.616C262.372 119.396 262.977 119.471 263.867 119.366L262.867 120.616C262.507 121.926 263.367 122.981 263.367 123.116C263.367 123.281 262.927 123.406 262.867 123.616C262.592 124.576 263.707 125.306 263.367 126.366C261.472 126.256 262.137 127.626 261.867 128.616C261.772 128.961 259.497 131.181 258.867 130.866V131.866C257.757 131.826 256.327 133.256 256.367 134.366L254.617 133.866L253.867 135.366H252.117L251.867 134.366L251.367 135.366L249.617 134.366L247.367 135.366V134.366H245.867V135.116L244.867 135.366V133.866H243.867V132.866H241.617C241.407 132.591 241.037 132.381 240.867 132.116C240.722 131.896 240.517 130.891 240.367 130.616C240.182 130.271 239.437 129.871 239.367 129.616C239.192 128.971 239.037 127.871 238.867 127.116C238.397 125.006 238.782 123.486 238.367 121.616L239.367 120.116L238.867 118.616C240.127 117.566 240.437 115.751 240.367 114.116C240.827 113.856 242.452 112.411 242.617 112.366C243.917 112.011 245.647 111.846 247.117 111.366C247.512 111.236 247.777 110.231 248.617 111.366C250.057 109.846 252.782 112.076 254.117 112.366C255.092 112.576 256.547 112.216 257.617 112.366C258.412 112.676 258.302 113.801 258.367 113.866ZM251.367 115.366C251.527 114.061 250.337 113.581 249.117 113.866C248.922 113.911 248.807 114.326 248.617 114.366C248.102 114.471 247.427 114.301 246.867 114.366L246.367 116.616L242.867 121.116L243.867 124.366H242.867C242.682 125.566 243.107 126.486 244.367 126.366V127.366C245.842 127.046 246.387 128.206 247.367 129.116L246.867 130.366H248.367V129.366C249.937 129.756 251.417 130.571 252.617 128.866C253.982 129.506 253.702 129.246 254.617 128.866C254.887 128.756 255.267 128.951 255.367 128.866L254.867 127.616L255.367 126.366H256.867L257.367 124.616L256.867 122.116L257.867 120.616L257.367 118.366C255.812 118.821 255.542 117.416 254.617 116.866C254.072 116.541 253.092 116.286 252.367 116.366V115.366H251.367Z" fill="black"/>
<path d="M250.869 91.8657C250.684 92.9007 251.729 93.3657 252.369 94.1157V94.6157C251.079 96.8457 252.964 99.4557 252.369 102.116C252.244 102.681 251.559 102.776 252.369 104.116L251.869 105.366H247.369C247.639 104.546 246.949 104.376 246.869 104.116C246.769 103.771 246.334 101.746 246.369 101.616C246.934 99.5707 246.429 98.7607 246.869 97.1157C246.959 96.7857 247.319 95.8957 247.369 95.6157C247.499 94.8657 247.059 94.1057 247.869 93.6157L247.369 92.8657L250.869 91.8657Z" fill="black"/>
<path d="M269.868 133.866V135.616C270.638 136.436 271.718 136.996 272.868 136.866C272.813 138.296 274.508 139.216 275.868 139.366C276.113 140.331 275.268 140.536 274.868 141.116C274.783 141.236 274.943 141.516 274.868 141.616C274.633 141.926 273.903 142.696 273.618 142.866C273.508 142.931 273.273 142.796 273.118 142.866C272.548 143.126 272.198 143.666 271.118 143.366C270.868 143.296 270.463 142.556 270.118 142.366C269.883 142.236 269.463 142.461 269.368 142.366C269.273 142.271 269.498 141.851 269.368 141.616C268.963 140.891 267.433 140.631 266.868 139.616C266.738 139.381 266.963 138.961 266.868 138.866C266.773 138.771 266.353 139.001 266.118 138.866C265.103 138.291 265.548 137.516 265.368 137.116C265.158 136.651 263.978 135.256 264.368 134.866H265.368V133.866C265.923 133.941 266.628 133.751 267.118 133.866C267.323 133.916 267.458 134.546 268.118 134.366C268.398 134.291 268.913 133.501 269.868 133.866Z" fill="black"/>
<path d="M233.867 102.365H234.867V103.365C236.902 103.435 236.577 106.075 238.867 105.865V107.365C238.962 107.46 239.382 107.235 239.617 107.365C240.397 107.8 240.467 108.545 240.367 109.365L237.617 110.865C237.372 110.305 236.752 110.45 236.617 110.365C235.952 109.945 235.307 108.885 234.617 108.365C233.072 107.2 232.177 107.47 230.867 105.615C230.497 105.09 229.787 104.645 229.367 104.115V103.615C230.852 102.78 230.087 101.635 230.367 100.615C230.467 100.25 232.227 99.2554 232.617 99.3654C233.737 100.25 234.082 100.9 233.867 102.365Z" fill="black"/>
<path d="M230.867 117.866L230.617 118.866L232.117 118.366C232.732 119.346 234.372 119.561 234.867 120.616C235.312 121.556 233.832 121.276 233.367 122.116C233.237 122.351 233.462 122.771 233.367 122.866L231.617 122.366C229.732 124.041 227.022 123.166 224.617 123.366L222.367 120.616C223.237 119.301 224.162 117.411 226.117 117.866C227.497 118.191 227.952 118.031 229.117 118.366C229.742 118.546 230.052 117.606 230.867 117.866Z" fill="black"/>
<path d="M253.367 138.366C253.197 139.441 254.277 139.906 254.867 140.616L254.367 141.616L254.867 143.616C254.807 143.821 254.412 143.926 254.367 144.116C253.992 145.716 255.317 146.051 254.867 147.616C254.582 148.621 255.527 149.036 255.367 149.616C254.817 149.976 254.747 151.186 254.117 151.366C253.367 151.581 252.757 151.286 252.117 152.366L249.867 148.616L250.867 147.616C249.587 146.701 251.272 145.711 250.367 145.116L251.367 144.116C250.487 143.546 251.027 142.501 250.867 141.616C250.832 141.416 250.092 141.171 250.367 140.366C251.487 140.496 251.987 139.621 252.367 138.616C252.552 138.126 252.982 138.391 253.367 138.366Z" fill="black"/>
<path d="M233.368 143.866C233.738 142.921 232.488 142.546 232.368 142.116C232.268 141.751 232.278 140.031 232.368 139.616C232.408 139.436 233.283 138.366 233.368 138.116C233.473 137.806 233.308 137.266 233.368 136.866L235.618 136.366L238.118 133.866C238.543 134.621 239.143 134.226 239.618 134.366C240.748 134.696 240.298 137.131 240.368 138.116C240.023 138.661 238.483 139.721 238.368 140.116C238.238 140.566 238.468 141.621 237.618 141.866C237.308 141.956 236.928 141.776 236.618 141.866C235.868 142.081 235.648 144.746 233.368 143.866Z" fill="black"/>
<path d="M276.867 123.366C277.027 123.871 276.552 124.746 276.117 124.866C274.737 125.246 273.257 123.501 272.117 124.866H271.617L270.867 123.366L269.117 122.866L268.867 121.366C269.692 121.631 269.822 120.971 270.117 120.866C272.337 120.066 274.587 119.976 277.117 119.866C277.762 119.836 278.187 120.031 278.617 119.366C279.132 119.781 279.277 119.946 279.367 120.616C279.667 122.816 279.142 123.666 276.867 123.366Z" fill="black"/>
<path d="M270.368 105.366V106.366H269.368V107.366C267.718 107.281 267.233 109.396 267.368 110.866L264.618 111.866C262.198 110.671 263.768 106.611 265.618 105.866C265.833 105.781 266.123 105.906 266.368 105.866C266.573 105.831 266.748 105.926 266.868 105.616V104.866L270.368 105.366Z" fill="black"/>
<path d="M266.367 105.865C265.942 103.6 268.527 103.495 269.367 102.115C269.437 102 269.292 101.745 269.367 101.615C269.587 101.225 270.102 101.18 269.867 100.365C271.262 100.2 272.452 100.62 273.367 101.615C273.082 102.63 273.572 102.975 273.867 103.615C274.432 104.83 272.187 104.235 271.617 104.365C271.387 104.42 271.157 105.15 270.617 104.865L270.367 105.365L266.867 104.865V105.615C266.747 105.925 266.572 105.83 266.367 105.865Z" fill="black"/>
<path d="M182.367 179.866C181.922 179.876 181.092 179.761 180.867 179.866L181.367 177.866H181.867C181.817 178.766 181.887 179.121 182.367 179.866Z" fill="black"/>
<path d="M184.367 176.866L183.867 178.366H183.367V177.366L182.367 176.866C182.952 176.771 184.022 177.026 184.367 176.866Z" fill="black"/>
<path d="M184.367 179.366C184.367 180.136 183.532 179.821 182.867 179.866V178.866L183.617 179.366H184.367Z" fill="black"/>
</svg>
