<svg width="358" height="358" viewBox="0 0 358 358" fill="none" xmlns="http://www.w3.org/2000/svg">
<path d="M152.305 162.901C152.327 162.856 152.849 163.002 152.777 162.176C151.449 160.661 152.191 160.271 153.654 159.402L153.526 158.394C154.526 157.845 153.613 156.699 154.026 155.873C154.075 155.775 155.047 155.149 155.221 154.8C155.347 154.546 155.283 154.108 155.408 153.855C155.512 153.646 156.437 153.305 156.541 153.096C156.805 152.572 156.744 151.512 156.978 150.891L158.71 150.415L158.96 149.154L159.59 149.279C159.869 148.152 161.053 147.65 162.012 146.976L161.946 145.653L162.418 144.927C163.46 145.451 163.887 144.619 164.749 144.734C164.021 143.778 164.701 143.022 164.272 142.183L164.9 141.489L166.318 141.77C166.47 141.669 166.52 140.127 166.724 139.722C166.854 139.466 167.808 139.295 167.636 138.429L168.266 138.554L168.703 136.348C170.277 136.571 170.294 134.747 170.872 133.666C171.211 133.245 172.654 132.346 172.823 132.088C172.903 131.963 172.867 131.763 172.916 131.615L172.065 130.955C172.004 130.501 172.76 129.311 172.093 129.159L171.497 130.515C170.697 130.848 170.57 131.936 169.64 131.621L169.515 132.251L168.57 132.064L167.88 133.892L166.934 133.705C166.966 134.556 166.257 134.363 165.959 134.494C165.406 134.741 165.009 135.439 164.354 135.158L164.513 136.008C164.078 136.089 164.083 136.706 164.042 136.734C164 136.762 163.432 136.521 163.191 136.893L162.151 136.359L162.247 137.524C161.797 137.766 161.37 138.199 160.926 138.409C160.427 138.644 159.378 138.701 158.974 139.168C158.86 139.3 158.952 139.593 158.88 139.641C158.778 139.709 157.669 139.653 157.4 139.675C157.113 139.7 156.755 140.451 156.014 140.056C155.893 139.992 155.876 139.73 155.762 139.678C155.242 139.441 154.778 139.535 154.281 139.712L154.406 139.082L152.515 138.707L152.64 138.077L152.01 137.952C152.045 136.318 150.481 134.727 151.025 133.008L150.426 132.725L151.811 132.345L151.022 131.37L151.678 128.061L152.623 128.248C152.768 127.815 152.735 127.219 152.904 126.83C153.122 126.323 154.227 125.923 154.193 125.284L154.823 125.409L154.945 123.141L155.891 123.328L156.234 121.595L156.801 121.216L157.683 121.718C157.94 121.448 158.901 121.046 159.005 120.834C159.178 120.488 159.087 119.56 159.759 119.51C160.43 119.459 161.09 119.931 161.679 118.908C161.016 118.865 160.535 118.615 160.009 118.249C159.672 118.015 159.01 117.092 158.935 117.054C158.162 116.658 157.088 116.478 157.483 115.292L156.789 114.663L156.697 115.955C155.686 116.05 155.629 114.833 154.773 114.919C154.596 114.936 154.406 115.351 153.923 115.078L154.048 114.448L153.418 114.323L153.92 113.44C153.037 113.353 152.272 113.146 152.532 112.182L151.997 112.404C151.737 112.424 150.755 111.581 150.735 111.335C150.717 111.128 150.878 110.911 150.86 110.705C150.839 110.465 149.686 108.795 149.25 108.912L149.437 107.966C148.554 107.88 147.789 107.672 148.049 106.709L147.419 106.584L147.984 105.386L146.723 105.136C146.996 104.653 146.582 104.459 146.564 104.286C146.506 103.671 146.589 101.982 146.811 101.387C146.854 101.271 147.168 101.238 147.189 101.134C147.13 100.622 146.026 100.557 146.431 100.002C146.746 99.5694 147.316 99.617 147.785 99.7787C147.71 99.1349 149.924 98.0083 150.271 97.9787C150.477 97.9607 150.694 98.1216 150.901 98.1036C151.087 98.0882 151.473 97.6112 151.656 97.5983C152.537 97.5337 153.269 98.1178 153.957 98.3818L154.082 97.7516C154.422 97.8682 154.89 97.8365 155.185 97.9702C156.162 98.4126 156.794 98.0663 157.706 98.4698C158.088 98.6405 160.08 99.5953 160.417 99.6621C160.483 99.6753 160.823 99.2349 161.267 99.5032L161.143 100.133C161.424 100.183 162.021 100.511 162.183 100.667C162.552 101.022 162.866 102.61 163.384 102.87C163.789 103.075 165.331 103.125 165.432 103.276L165.245 104.222L167.136 104.596L166.98 105.384L167.359 105.95C168.689 106.014 170.04 107.094 169.978 108.435L171.806 109.124C171.677 110.088 172.745 110.964 173.228 111.863C173.333 112.06 173.151 112.879 174.018 112.838C174.372 112.076 173.562 111.454 174.361 111.105L174.171 110.412L174.736 109.214C173.57 107.843 175.545 106.188 173.972 104.805L174.034 104.49C174.208 104.308 174.719 104.128 174.79 103.984C175.364 102.84 175.721 101.038 176.232 100.013C176.465 99.5478 178.302 98.7722 177.362 97.6165L177.424 97.3013C177.809 96.8962 179.53 96.0974 179.69 95.7853C180.281 94.635 181.274 94.0524 181.387 93.8292C181.545 93.5133 181.492 92.9362 181.637 92.5687C181.682 92.4564 182.296 92.1555 182.171 91.5282L184.219 91.9341C184.877 91.7206 184.729 91.2786 184.911 90.9248C184.975 90.8 186.808 89.8599 186.925 89.8503C187.354 89.8174 188.013 90.1445 188.5 90.1625L189.696 89.0894L190.894 89.6543C192.792 88.9006 194.3 90.1001 195.936 90.6536C196.463 90.8335 197.117 90.8387 197.669 90.9971C197.18 91.7319 197.996 92.2541 198.018 92.5401C198.081 93.3975 197.471 93.9971 198.526 94.9334L197.709 95.7538L198.089 97.1393C197.484 97.4188 197.607 98.1866 197.431 98.81L196.8 98.6851C196.649 99.1037 196.693 99.7545 196.519 100.103C196.39 100.359 195.555 100.439 195.67 101.081L194.725 100.894C194.366 101.648 195.183 102.268 194.382 102.627C194.446 103.907 192.172 103.496 192.306 104.836C192.322 104.973 192.56 105.092 192.559 105.213C192.538 106.362 192.194 107.912 190.83 107.327L190.455 109.218L189.668 109.062C188.627 109.501 188.748 110.511 188.411 111.269C188.359 111.386 188.086 111.404 188.034 111.522C187.817 112.006 188.058 112.588 187.28 112.846C186.502 113.105 186.198 113.578 185.518 114.298C184.993 114.852 184.321 114.261 184.354 115.214C185.061 115.236 186.093 115.729 186.718 115.682C187.396 115.633 186.754 114.953 188.356 115.679C189.811 116.338 189.955 114.834 190.497 114.794C190.849 114.769 191.359 115.037 191.757 115.044C191.852 115.046 192.187 114.608 192.765 114.916C192.887 114.979 192.903 115.241 193.018 115.293C193.285 115.415 193.713 115.356 193.963 115.481C194.464 115.731 194.034 116.576 194.563 116.582L194.908 115.668C195.219 115.687 195.568 115.861 195.854 115.855C196.61 115.838 196.795 115.685 197.745 116.23C198.357 115.654 198.818 115.703 199.603 115.943L199.478 116.574L200.108 116.699L200.233 116.068C201.348 116.08 202.017 117.015 202.662 117.86L202.944 117.261C203.874 117.543 205.05 117.541 205.938 117.854C206.118 117.919 207.171 118.704 207.389 118.797C207.748 118.95 208.33 118.888 208.649 119.046C208.87 119.156 209.7 120.506 209.44 120.841L210.07 120.965L210.355 122.005L210.891 121.783C210.872 122.045 210.72 122.345 210.734 122.571C210.877 124.725 211.492 127.506 210.368 129.376L210.811 130.446C209.814 131.081 209.219 132.895 208.074 132.688L206.82 135.714C206.332 135.447 206.187 135.831 205.969 135.873C205.785 135.909 205.556 135.729 205.339 135.748C204.666 135.805 204.457 136.644 204.27 137.01C204.197 137.15 202.338 137.652 202.003 137.707C201.286 137.824 200.316 137.543 199.735 137.585C199.502 137.601 198.835 138.327 198.602 138.343C198.346 138.361 196.626 138.02 196.396 137.906C196.205 137.812 195.881 137.005 195.638 136.773C195.534 136.753 195.401 137.014 195.261 137.026C194.595 137.081 194.492 136.575 194.378 136.523C193.602 136.173 192.922 136.729 192.424 136.464L191.699 135.993L191.824 135.362C191.163 135.31 190.434 135.634 189.713 135.271C189.457 135.142 189.377 134.307 188.735 134.423L188.923 133.477L186.779 132.725L186.714 131.402L185.358 130.806L185.073 129.767C183.799 129.305 182.603 127.571 181.633 126.465C181.085 125.842 180.351 125.022 179.74 124.452C179.546 124.273 178.843 123.538 178.762 123.603C178.38 124.536 178.755 125.308 178.577 126.187L179.429 126.847L178.645 129.148L178.015 129.023C178.48 129.868 178.718 130.829 177.862 131.449L177.799 131.764C178.232 132.289 178.409 132.635 178.149 133.307C177.83 133.08 176.852 133.603 176.732 133.845C176.612 134.086 176.67 134.537 176.545 134.79C176.371 135.139 175.398 135.765 175.349 135.864C174.866 136.829 175.329 137.071 174.218 137.441C173.44 137.699 172.99 138.976 172.931 139.806L172.3 139.681C171.961 140.763 172.003 141.727 172.022 142.737L171.551 143.462L169.598 143.403L170.072 144.315C169.307 144.504 169.368 145.221 169.192 145.451C168.535 146.3 167.712 146.618 166.864 147.282C166.573 147.509 166.194 148.512 165.385 148.135L165.544 148.986L164.788 149.491C165.263 150.056 164.764 150.871 164.698 151.602L163.595 151.383L162.588 152.33L162.747 153.18C163.661 153.623 163.982 152.884 164.668 152.578C164.743 152.544 164.894 152.676 164.983 152.641C165.537 152.423 165.658 152.044 165.705 151.474C166.046 151.59 166.514 151.559 166.808 151.692C166.931 151.75 166.938 152.164 167.376 152.133C168.044 152.085 168.39 152.14 169.014 152.13C169.32 152.125 170.111 151.505 170.557 151.78L170.429 150.773C170.979 151.124 171.371 150.383 171.657 150.361C171.897 150.343 173.334 150.628 173.548 150.736C173.736 150.829 173.859 151.479 174.211 151.522L174.461 150.262C175.133 150.522 175.479 150.345 176.004 149.912L179.503 151.261C179.639 149.948 181.695 150.742 181.831 149.43C182.483 149.326 182.685 149.864 182.871 149.963C184.336 150.755 186.22 150.548 187.723 150.27L188.038 150.332C188.281 150.564 188.605 151.372 188.796 151.465C189.199 151.666 189.81 151.44 189.994 152.03L190.31 152.093C190.662 151.671 190.991 151.992 191.317 151.965C191.504 151.949 192.948 151.089 193.458 151.079C194.388 151.063 194.895 151.727 195.759 151.863L195.007 154.006L195.793 153.343L195.887 152.87C197.327 152.724 197.308 154.01 198 154.599C198.466 154.993 198.526 155.221 199.074 155.794C199.369 156.105 200.208 157.657 200.337 157.682L201.502 157.586C201.151 158.135 201.892 158.528 201.914 158.814C201.945 159.219 201.48 160.411 201.571 160.547L202.201 160.672C202.17 161.553 201.749 162.125 201.449 162.815L200.818 162.69C200.415 163.321 199.642 164.691 198.901 164.93C198.736 164.983 198.5 164.789 198.428 164.837C198.356 164.885 198.445 165.178 198.334 165.309C197.603 166.173 195.506 165.931 194.619 166.702C194.515 166.681 194.482 166.37 194.367 166.324C193.648 166.051 193.222 166.15 192.666 166.642L192.351 166.58C191.852 166.006 190.925 165.465 190.332 165.197C189.686 164.906 189.384 165.239 188.442 164.823C187.623 164.461 186.056 164.497 186.328 163.094L180.971 162.032L181.127 161.244L180.748 160.678L178.007 160.462L178.194 159.517C178.042 159.509 177.865 159.392 177.722 159.423C176.674 159.635 176.813 158.968 176.083 159.426L174.885 158.861L174.035 159.02L174.16 158.39L172.207 158.33L172.141 157.007C170.905 156.916 169.384 156.248 168.202 156.226C168.111 156.225 167.772 156.662 167.194 156.354C166.931 156.213 166.798 155.761 165.996 155.789C164.941 155.826 163.858 156.63 162.533 156.74C162.293 156.761 161.633 157.482 161.4 157.498C160.931 157.533 160.201 157.172 159.667 157.155C159.844 157.652 159.938 158.116 159.701 158.635C159.648 158.753 159.376 158.771 159.323 158.888C158.66 160.335 158.477 161.936 158.449 163.3C158.43 164.288 157.877 165.394 157.257 166.011C157.594 166.34 157.507 167.011 157.637 167.397C157.715 167.631 158.03 167.894 158.142 168.152C158.181 168.238 158.045 168.394 158.08 168.467C158.415 169.156 159.065 169.776 159.752 169.945L159.786 171.425C159.209 171.91 158.25 172.136 158.182 172.908C158.23 172.98 158.524 172.888 158.655 173.002C159.262 173.525 160.13 177.605 161.467 177.817L161.217 179.078C161.95 179.033 162.028 179.946 162.448 180.304C162.58 180.415 162.873 180.326 162.921 180.398C162.969 180.469 162.771 180.705 162.827 180.87C163.051 181.54 163.672 181.549 164.309 181.655C164.531 181.988 163.061 183.357 164.029 183.892C164.997 184.428 164.752 183.652 165.288 183.323L165.382 182.851C165.518 182.76 166.71 183.225 167.115 183.194C167.175 183.19 168.099 182.79 168.186 182.751C169.404 182.187 169.937 180.59 171.301 181.076L171.426 180.446L172.057 180.571L171.932 181.201L172.782 181.042L173.665 181.545L175.93 180.028L176.656 180.5L176.843 179.554C177.578 180.044 178.1 179.227 178.386 179.205C178.748 179.179 179.284 179.481 179.647 179.455C179.8 179.443 180.206 179.143 181.032 179.075C181.438 179.04 181.958 178.007 182.795 178.441C182.95 178.521 182.97 178.98 183.52 178.913L183.708 177.967L184.653 178.155L185.759 180.011C186.083 180.177 187.554 179.267 187.115 180.608C187.078 180.626 186.824 181.051 186.517 181.144C186.35 181.196 186.116 181.002 186.044 181.05C185.886 181.157 186.114 181.375 185.069 181.84C184.368 182.153 184.1 182.781 183.496 183.165L181.448 182.76L181.607 183.61L181.041 183.989L180.253 183.833L180.128 184.463C179.337 184.139 178.438 184.593 178.302 185.411L177.357 185.224L177.232 185.854C176.145 185.57 175.527 186.541 174.271 185.922L174.146 186.553C173.097 186.194 172.175 186.683 171.185 186.621L171.06 187.251L169.422 187.254L169.235 188.199L168.604 188.074L167.977 189.587C166.999 189.236 165.76 190.065 165.711 191.104C164.705 190.432 163.864 191.304 163.538 191.328C162.937 191.372 162.311 190.764 161.711 191.457C161.333 191.896 160.766 192.344 159.917 192.248L159.792 192.878C159.72 192.926 159.484 192.729 159.319 192.784C158.425 193.082 158.665 194.783 157.149 194.647C156.628 194.599 156.097 194.402 155.573 194.334C155.578 194.195 155.659 194.083 155.478 193.988L155.006 193.894C155.555 193.122 155.298 192.98 155.287 192.476C155.26 191.42 155.812 190.982 155.502 189.735C155.355 189.143 156.262 188.595 156.192 187.907C156.451 187.922 156.763 188.082 156.98 188.063C157.157 188.046 159.724 186.927 160.191 186.734C160.619 186.557 161.069 186.07 161.513 185.85L160.943 184.591C160.387 184.507 159.357 184.385 159.304 183.775C159.286 183.568 159.447 183.351 159.429 183.144C159.384 182.612 157.22 181.334 156.967 180.692C156.665 179.918 156.517 178.896 155.358 178.899C155.582 178.115 154.65 177.776 155.102 176.883L153.904 176.318C154.023 175.719 154.617 175.398 154.563 174.647C154.556 174.548 153.965 173.399 153.929 172.884C153.91 172.602 154.136 172.221 154.117 171.939C154.066 171.235 152.262 170.406 152.223 169.926L152.252 168.13L151.621 168.006L152.626 166.24L155.085 167.054L155.647 164.218C155.302 164.107 154.855 164.13 154.544 164C154.426 163.95 154.405 163.661 154.291 163.622C153.665 163.413 152.893 163.404 152.243 163.216C152.264 163.112 152.268 162.975 152.305 162.901ZM193.325 93.0838L191.497 92.394L191.372 93.0242L190.427 92.8368L190.901 93.7496C190.002 94.5671 188.915 93.3101 188.004 94.3217L186.963 93.788L186.838 94.4182C185.949 93.9472 185.434 95.3582 185.328 95.4289C185.234 95.4921 183.442 95.7233 183.219 96.1571C182.712 97.144 182.065 97.3367 181.961 97.5454C181.835 97.7989 181.899 98.2373 181.774 98.4908C181.671 98.6964 181.022 98.8954 180.516 99.8791C180.43 100.046 179.846 100.218 179.761 100.384C179.457 100.976 179.891 101.298 179.888 101.392C179.881 101.879 179.619 102.456 179.576 102.968L178.537 103.253C178.74 104.312 177.707 104.585 177.563 104.862C177.237 105.498 177.855 106.478 178.543 106.529C178.75 107.583 177.703 107.873 177.569 108.138C177.444 108.388 176.987 110.695 177.007 110.974C177.021 111.186 177.644 111.794 177.765 112.107C176.999 112.453 176.868 112.898 176.791 113.715C177.751 113.846 177.648 115.178 178.81 115.098C178.729 114.135 179.863 114.393 179.943 114.34C180.014 114.292 179.925 113.999 180.036 113.867C180.199 113.673 180.716 113.51 180.791 113.362C180.991 112.966 180.904 112.182 181.104 111.786C181.25 111.494 182.469 110.959 183.179 109.577C183.263 109.417 185.681 108.288 185.601 107.273L186.231 107.398L186.574 105.665C187.704 105.136 188.249 105.195 188.272 103.709C188.273 103.588 188.032 103.468 188.019 103.331L188.647 101.818L189.686 101.533C189.96 101.06 189.525 100.81 189.527 100.682C189.565 98.9019 191.075 97.6158 192.039 96.2678C192.293 95.912 192.179 95.0018 193.203 95.3522L193.328 94.7219L192.698 94.597L193.325 93.0838ZM162.349 105.613L160.994 105.016L159.73 103.129C159.195 103.632 158.449 103.081 157.777 103.069C157.656 103.068 157.537 103.306 157.399 103.322C156.564 103.405 156.519 102.574 156.264 102.442C155.821 102.213 155.397 102.322 155.128 101.561L154.12 101.689C153.642 101.044 152.986 100.705 152.197 100.653L152.072 101.283L150.496 100.971L149.366 103.367C149.212 103.471 148.354 102.855 148.359 103.495L148.958 103.777L148.864 104.25L149.714 104.091C149.954 104.748 150.694 104.914 150.914 105.475C151.241 106.316 151.709 107.676 152.714 107.961C152.169 109.238 153.262 109.242 153.819 109.817C154.121 110.129 154.621 111.224 154.83 111.328C155.676 111.751 157.094 112.133 156.881 113.372C158.829 113.771 158.946 115.052 161.011 114.845C161.459 114.8 162.112 115.466 162.461 115.788C162.769 116.071 163.09 116.679 163.535 116.983L164.165 117.108L164.825 116.256C165.604 116.289 166.131 116.672 165.898 117.451L167.789 117.826L168.449 116.974C169.627 117.326 171.102 117.336 172.23 117.724C172.288 117.745 172.894 118.622 173.365 117.785C173.592 117.381 173.048 116.772 172.575 116.81L172.7 116.179C171.764 116.292 171.979 114.861 171.532 114.638C171.279 114.512 170.83 114.577 170.587 114.45C170.432 114.371 170.412 113.911 169.861 113.979L170.049 113.034C168.49 113.033 169.321 111.154 167.62 111.242C167.236 110.023 164.606 108.782 164.527 107.846C164.494 107.449 164.799 107.097 164.273 106.649L162.224 106.243L162.349 105.613ZM180.207 121.27C180.842 121.451 181.171 120.835 181.814 121.424C182.329 121.897 183.01 123.07 182.668 123.722L183.866 124.287L183.364 125.17L184.309 125.358C183.931 125.892 185.35 127.11 185.73 127.277C186.354 127.551 187.398 127.503 188.093 127.745L187.401 127.935L187.466 129.258L188.852 128.878C188.762 129.709 189.554 130.54 189.832 131.365L190.935 131.584L190.81 132.214C191.287 132.488 191.513 132.058 191.661 132.055C192.85 132.022 192.937 133.3 194.214 133.216L194.09 133.846C194.768 133.696 195.313 134.397 195.445 134.442C197.182 135.065 199.063 133.889 200.832 134.527L200.957 133.897L202.533 134.21L202.845 132.634L204.483 132.631C204.666 131.871 205.977 130.995 206.749 131.115C206.915 131.004 206.994 129.199 207.217 128.751C207.586 128.016 207.977 128.964 207.907 126.923C207.88 126.102 208.412 125.88 208.472 125.725C208.733 125.066 208.727 123.696 208.152 123.205C208.021 123.094 207.728 123.184 207.68 123.112C207.632 123.04 207.829 122.804 207.773 122.639C207.512 121.857 205.74 121.859 205.376 120.69L203.012 120.222L203.137 119.591L202.507 119.467C202.415 120.46 201.412 120.396 200.586 120.068C200.456 120.016 199.629 119.279 199.451 119.188C199.252 119.087 198.911 119.117 198.663 119.032L198.538 119.662C197.896 119.778 197.816 118.943 197.56 118.814C197.23 118.647 195.824 118.417 195.354 118.376C193.88 118.245 192.037 118.092 190.817 118.132C190.352 118.148 189.901 117.731 189.494 118.198L188.611 117.695L187.164 118.391L186.596 117.951L185.053 118.3L184.865 119.245L183.132 118.902L180.204 119.631L179.574 119.507C179.959 118.617 179.296 118.129 178.845 117.397L177.585 117.147L176.516 118.409L176.297 119.512L168.104 117.888L168.042 118.204L175.605 119.702C175.677 120.247 175.193 120.292 175.133 120.428C174.786 121.204 175.367 122.01 174.98 122.854L174.035 122.666C174.053 122.097 172.641 121.617 172.111 121.63C171.98 121.634 171.812 122.016 171.419 121.82C171.299 121.761 171.283 121.496 171.166 121.443C170.402 121.098 169.613 121.695 168.802 120.974C168.624 122.138 167.928 121.636 167.197 121.639C167.069 121.64 166.898 122.025 166.504 121.829C166.385 121.769 166.369 121.504 166.252 121.451C165.147 120.958 164.783 122.022 163.763 121.613C163.663 122.514 162.542 122.816 162.381 123.632L161.12 123.382L160.87 124.643L158.979 124.268C158.898 125.077 158.265 125.23 157.532 124.963C157.403 125.514 157.124 126.144 156.873 126.634C156.788 126.801 156.199 126.976 156.118 127.139C155.874 127.625 155.764 129.699 155.587 129.818L154.862 129.347L154.295 129.726C154.845 130.405 154.356 130.888 153.668 131.239L153.733 132.562L153.262 133.287L154.46 133.852C154.26 134.631 154.41 135.906 155.346 135.993L155.221 136.623L157.174 136.683L157.299 136.053L158.875 136.365L159.031 135.577L160.07 135.292L160.195 134.661C160.826 135.343 165.182 132.188 165.325 131.912C165.922 130.746 165.98 131.233 166.582 130.523C166.924 130.12 167.833 129.799 168.155 129.198L168.027 128.19C168.895 127.664 170.007 127.701 170.009 126.454L170.639 126.579L170.795 125.791L171.834 125.505L171.991 124.718L172.557 124.339L173.345 124.495L173.186 123.644L173.91 123.297C174.172 124.007 174.57 124.328 174.197 125.155C173.86 125.897 173.639 125.457 173.915 126.573C174.095 127.303 172.548 128.283 172.723 129.284C173.721 129.423 174.305 128.972 174.895 128.241L174.546 126.698L175.521 125.909L175.994 126.002C175.691 124.655 177.468 124.382 177.723 123.889C177.819 123.701 177.748 123.429 177.847 123.258C177.967 123.05 178.477 122.872 178.381 122.218L179.327 122.405C179.245 121.393 179.902 121.537 180.207 121.27ZM185.621 155.093C184.79 154.808 183.8 155.571 183.258 154.625L182.942 154.563C182.702 154.934 182.134 154.694 182.092 154.722C182.02 154.77 182.11 155.062 181.998 155.194C181.802 155.424 181.304 155.59 181.054 155.826L180.739 155.763C180.429 155.132 179.576 155.271 178.911 155.074L177.936 155.863C178.827 156.01 179.483 156.003 179.859 156.899L180.174 156.962C180.783 156.633 181.541 156.41 182.19 156.706C182.304 156.758 182.322 157.017 182.443 157.084C182.617 157.18 182.886 157.112 183.073 157.208C183.18 157.262 183.809 158.222 184.146 158.404L184.996 158.245L185.121 157.614C185.738 157.642 186.089 158.167 185.879 158.747L186.51 158.872L186.795 159.911C187.577 160.21 188.97 160.142 189.631 160.473C189.84 160.577 190.175 161.495 190.389 161.606C190.722 161.777 191.115 161.563 191.965 161.918C192.404 162.1 192.957 161.902 193.163 162.483L194.548 162.103L195.684 162.983L197.006 162.099C196.398 161.461 197.226 161.35 197.287 160.68L196.656 160.556L196.401 158.54C195.9 158.722 195.447 158.806 194.92 158.574C194.393 158.342 193.335 156.773 192.711 156.499C191.904 156.145 190.048 155.807 189.435 156.504C188.961 155.425 187.898 155.289 187.64 156.476L185.496 155.724L185.621 155.093Z" fill="#284655"/>
<path d="M200.847 179.072C201.191 179.005 201.968 179.382 202.423 179.384L202.235 180.329L203.401 180.233L204.475 182.247C204.341 182.924 204.031 183.577 204.604 184.074C204.736 184.188 205.029 184.096 205.077 184.167L204.89 185.113L205.898 184.985L205.773 185.615L206.718 185.803L206.531 186.748L208.674 187.5L208.487 188.446L210.315 189.136C210.298 190.095 211.343 191.779 212.399 191.841C212.01 192.301 212.773 193.772 213.127 193.951C213.63 194.204 214.549 194.429 215.113 194.672C214.943 195.083 214.937 195.822 215.336 196.026C215.52 196.121 215.782 196.055 215.966 196.151C216.861 196.61 216.518 199.381 217.768 199.455L217.643 200.086L219.218 200.398L218.906 201.974L220.262 202.57C220.651 202.768 220.235 203.446 221.587 204.143C221.849 204.276 221.924 205.103 222.566 204.991L222.063 205.874L223.324 206.124L223.548 208.297C223.054 208.592 222.706 209.077 222.131 208.835C221.78 209.385 222.521 209.777 222.543 210.063C222.582 210.611 222.159 211.49 222.137 212.112L221.507 211.987L221.132 213.877L220.502 213.753L220.661 214.603L220.189 215.328L220.82 215.453L220.604 218.194C219.929 218.591 219.835 219.676 219.536 220.275C219.455 220.439 218.863 220.617 218.781 220.781C218.624 221.096 218.677 221.67 218.532 222.041C218.484 222.163 217.987 222.225 218.06 222.766L219.227 223.489C217.918 224.739 217.219 226.153 217.03 227.966L215.991 228.251C215.855 228.342 215.831 229.621 215.647 229.985C215.577 230.121 213.695 231.373 213.319 231.816C213.208 231.948 213.297 232.24 213.226 232.288C213.142 232.344 211.708 232.443 211.367 232.575L209.447 233.177L208.501 232.99L208.689 232.044L207.743 231.857L207.931 230.912C207.865 229.939 209.012 230.199 209.064 230.154C209.135 230.089 209.047 229.81 209.157 229.681C209.838 228.889 212.179 228.465 211.295 227.157L211.357 226.842C212.637 226.401 211.872 224.458 213.401 224.791L213.18 224.256L213.682 223.373L213.24 222.302L214.246 221.355L215.034 221.512C215.101 220.844 215.406 220.112 215.44 219.463C215.447 219.344 215.191 219.217 215.187 219.086C215.149 217.909 215.984 217.924 216.13 217.635C216.807 216.282 215.66 214.568 217.194 213.916L216.942 213.538L217.382 212.97L217.41 211.175C217.768 211.334 218.238 211.178 218.449 210.889C218.92 210.249 218.133 210.45 217.881 210.449C217.822 210.451 217.758 210.576 217.692 210.576C216.71 210.594 214.914 210.054 214.764 211.305L213.819 211.118L213.944 210.488L212.998 210.3C213.038 211.373 211.785 211.76 211.553 212.634L208.024 212.262L207.397 213.775L204.938 212.961L204.248 214.789C204.341 214.899 205.593 214.78 205.1 215.449C205.024 215.552 203.144 216.81 203.023 216.839C202.229 217.029 202.956 216.02 202.36 216.052L202.078 216.651C201.242 216.427 200.712 216.273 200.062 216.907L199.179 216.404C198.513 216.462 198.21 217.463 198.142 217.509C198.07 217.557 197.833 217.363 197.669 217.415C196.777 217.703 196.462 219.157 194.993 218.522L194.868 219.153L192.6 219.031L192.319 220.449L190.305 221.523L189.012 220.612L188.259 222.755C187.181 222.794 186.741 221.888 185.863 221.625C185.732 222.847 184.348 222.167 183.502 222.795L182.304 222.23C181.459 222.859 180.075 222.178 179.944 223.4L177.738 222.963L177.613 223.593L175.47 222.841C175.398 222.889 175.487 223.182 175.376 223.313C174.816 223.972 173.93 223.934 175.001 225.204L174.34 225.237L174.408 228.198L172.707 228.516C172.569 228.963 172.582 229.513 172.426 229.934C172.321 230.218 171.506 231.438 171.421 231.7C171.182 232.425 171.167 233.313 170.953 234.063L172.151 234.628C172.266 235.27 171.431 235.35 171.302 235.606C171.173 235.862 171.236 236.284 171.115 236.552C171.061 236.672 170.776 236.691 170.737 236.804C170.568 237.275 170.576 237.883 170.425 238.38L171.276 239.04L170.712 240.238C171.277 240.576 171.667 239.845 171.939 239.826C172.547 239.786 173.544 240.308 174.145 240.264C174.71 240.222 176.139 238.877 176.821 239.156L177.071 237.896C177.516 237.915 178.097 238.204 178.489 238.177C178.599 238.169 179.575 237.488 179.937 237.481C180.358 237.473 183.394 238.068 183.718 238.231C183.906 238.324 184.03 238.974 184.381 239.017L184.881 236.496L184.251 236.371L184.688 234.165L183.742 233.978C183.616 233.36 184.264 233.001 184.276 232.938C184.297 232.834 184.019 232.683 184.024 232.56C184.039 232.019 184.318 231.39 184.367 230.827C185.55 231.287 186.58 230.735 187.801 230.852C187.9 231.461 188.741 231.644 188.779 231.701C188.827 231.773 188.633 232.009 188.685 232.174C188.895 232.815 190.056 232.96 189.665 233.842C189.641 234.738 189.433 234.814 188.88 235.324C187.674 236.434 188.618 236.546 188.379 237.026C188.319 237.145 188.053 237.164 188.001 237.278C187.788 237.757 187.648 238.859 188.13 239.105C188.326 239.206 188.614 239.126 188.76 239.23C189.334 239.642 189.612 240.29 190.526 240.235C190.811 240.219 191.517 239.351 192.384 239.948C192.388 240.047 192.328 240.153 192.322 240.263C192.289 240.909 192.294 241.313 193.08 241.396L192.952 240.388C193.158 240.341 193.834 239.722 194.338 240.008L193.395 241.459C194.474 241.237 195.181 243.024 195.509 243.188C196.045 243.458 197.128 243.364 197.715 243.625C197.802 243.662 198.651 244.472 198.662 244.631L198.599 244.946C198.013 245.145 198.226 245.724 198.034 246.144C197.981 246.262 197.706 246.282 197.657 246.397C197.527 246.705 197.549 247.155 197.438 247.5C198.497 247.297 198.77 248.331 199.046 248.474C199.239 248.574 199.52 248.496 199.677 248.599C199.862 248.721 199.849 249.131 200.402 249.07L200.155 251.969L201.668 252.596L201.356 254.172C200.67 253.931 200.17 254.634 199.562 254.962L199.721 255.813C199.14 255.603 198.615 255.954 198.588 256.571L197.232 255.974L196.572 256.826C195.456 256.857 195.479 256.377 194.964 255.852C194.898 255.787 194.706 255.85 194.649 255.79C194.144 255.245 193.957 254.238 193.165 254.186L193.54 252.295L192.595 252.108L192.845 250.847C192.148 250.843 192.025 250.092 191.614 249.621C191.555 249.554 191.349 249.618 191.299 249.558C190.897 249.073 190.32 248.333 190.508 247.764L189.247 247.514L189.497 246.254C188.177 246.323 188.575 245.19 188.014 244.65C187.048 243.725 187.16 243.655 186.624 242.573C186.29 241.898 185.635 241.336 185.738 240.432L186.21 239.707L184.949 239.457L184.699 240.718L183.754 240.53L183.629 241.161L182.999 241.036L182.874 241.666C182.058 241.504 181.351 242.425 180.481 242.174L180.293 243.12L179.663 242.995L179.791 244.003L178.752 244.288L178.595 245.076C178.045 245.143 178.019 244.68 177.87 244.604C177.477 244.409 177.309 244.791 177.177 244.795C176.76 244.804 176.216 244.542 175.759 244.514L175.634 245.144L174.909 244.673L174.249 245.524C173.009 245.351 171.745 245.631 170.438 245.752C170.251 245.77 169.865 246.244 169.682 246.257C169.35 246.279 167.535 245.903 167.161 245.757C167.049 245.712 167.03 245.446 166.909 245.38C166.735 245.283 166.466 245.351 166.278 245.255C165.939 245.083 165.651 243.745 165.834 243.365L165.14 242.737L164.733 243.966C164.042 243.931 163.397 244.212 162.622 243.875C162.513 243.827 161.972 243.173 161.801 243.057C161.646 242.951 161.372 243.028 161.329 242.964C161.281 242.892 161.478 242.656 161.422 242.491C161.363 242.309 161.135 242.123 161.043 241.925C159.125 241.77 160.042 240.911 159.969 239.91C159.938 239.488 158.719 238.713 159.429 237.675C158.022 237.671 157.526 236.534 157.598 235.347L156.653 235.159L156.778 234.529L155.55 234.941L154.728 233.304L155.168 232.736L153.589 230.786L153.524 229.463C154.178 229.206 153.512 228.979 153.743 228.36L152.892 228.519L152.64 228.141L151.412 228.553L151.599 227.608L150.654 227.42C150.899 226.483 149.628 226.071 150.146 225.027C149.595 224.898 148.965 224.62 148.475 224.368C147.931 224.09 148.384 222.877 147.842 222.605C147.365 222.367 146.843 222.669 146.517 221.852C146.134 220.891 145.726 219.766 145.473 218.861L143.707 217.856L143.832 217.225C143.167 217.208 142.796 216.532 143.105 215.935C143.169 215.81 143.462 215.786 143.482 215.683C143.503 215.579 143.225 215.428 143.23 215.305C143.27 213.944 144.006 212.957 144.263 211.743L144.893 211.868L145.081 210.923L144.229 210.263L145.172 208.812C145.579 208.028 144.511 207.584 144.916 206.796C145.05 206.535 145.654 206.347 145.955 206.511L146.077 204.243L145.447 204.118C145.6 203.293 146.572 203.283 146.483 202.194L147.46 202.224L146.892 201.784C146.689 200.725 147.722 200.452 147.866 200.176C148.015 199.884 147.844 199.458 148.368 199.293L147.956 198.065L148.587 198.19C149.649 196.612 149.96 194.715 150.625 192.863C150.668 192.747 150.968 192.721 151.003 192.61C151.322 191.579 151.367 190.357 151.658 189.301C151.949 189.306 152.414 189.536 152.604 189.488L153.393 190.464L153.964 192.542C153.261 193.775 153.357 195.683 152.996 197.426C152.749 198.622 152.364 199.918 152.34 200.735C152.322 201.321 152.018 202.011 151.965 202.626L152.817 203.286L151.213 204.769L152.065 205.429C151.305 206.091 151.552 207.191 151.219 208.046C151.178 208.152 150.543 209.009 150.339 209.181L150.438 211.985L149.808 211.86C149.864 212.965 148.235 213.087 149.024 214.161L148.522 215.044C148.799 215.711 149.044 216.454 149.596 217.058C149.834 217.315 150.517 217.899 150.889 217.969L150.764 218.6L152.025 218.849C152.073 218.921 151.876 219.157 151.931 219.322C152.225 220.202 153.316 219.757 153.635 220.642L153.07 221.84L153.921 222.5L153.765 223.288L155.28 224.735C155.862 224.097 157.186 224.949 157.235 225.613C157.254 225.895 157.028 226.276 157.047 226.559C157.06 226.741 157.54 227.131 157.553 227.314C157.572 227.596 157.346 227.977 157.365 228.259C157.379 228.436 158.668 229.484 158.881 230.525C158.92 230.709 158.742 230.929 158.788 230.997L160.678 231.372C160.381 232.246 160.999 233.027 161.344 233.797L162.194 233.638C161.947 234.686 163.512 235.284 162.955 236.408C164.404 236.797 163.816 237.735 163.81 238.707C163.808 238.831 164.061 238.959 164.063 239.084C164.064 239.422 163.873 239.826 163.844 240.187L164.789 240.375C164.768 239.159 164.37 238.143 164.815 236.941C164.161 236.241 165.614 235.815 164.874 234.987L164.937 234.672C165.431 234.377 165.779 233.893 166.354 234.134C166.627 233.661 166.192 233.415 166.195 233.284C166.201 232.886 166.47 232.376 166.444 232.024C166.411 231.565 165.09 231.159 165.434 230.513C165.553 230.291 167.243 229.201 167.606 229.47L167.696 227.359L169.141 225.025C168.552 224.018 169.261 223.015 170.43 223.48L170.743 221.904L169.2 222.253C169.015 221.663 168.404 221.889 168.002 221.688C167.638 221.508 167.438 220.185 166.456 220.399L166.643 219.454L164.877 218.449L165.033 217.661L164.654 217.095L163.866 216.939C164.376 215.92 163.772 215.679 163.58 215.08C163.527 214.916 163.721 214.679 163.673 214.608C163.625 214.536 163.333 214.625 163.201 214.514C162.828 214.198 161.855 213.206 161.56 212.879C160.241 211.419 161.081 211.231 160.988 209.982C160.93 209.181 158.59 207.902 158.997 206.803L158.052 206.616L158.239 205.671L157.609 205.546L157.859 204.285L157.229 204.16L157.416 203.215C156.334 203.22 156.097 202.122 155.491 201.36L155.931 200.792C155.469 199.999 154.673 199.439 155.077 198.494L154.131 198.306L154.256 197.676L154.219 194.557C154.542 194.369 154.783 194.21 155.006 193.894L155.478 193.988C155.659 194.083 155.578 194.195 155.573 194.334C155.562 194.774 155.445 194.964 155.859 195.374C156.219 195.471 156.61 195.483 156.962 195.592C157.39 195.726 157.608 195.737 157.813 196.252C157.872 196.401 157.883 197.124 157.941 197.26C158.24 197.951 159 199.055 159.331 199.337C160.447 200.285 159.104 201.886 160.942 201.949C160.99 202.02 160.793 202.256 160.848 202.421C161.029 202.965 161.473 203.102 162.015 203.144L161.89 203.774L162.678 203.93C162.824 204.005 163.236 205.063 163.247 205.189C163.289 205.758 162.77 206.955 164.069 206.826C164.206 206.814 164.326 206.572 164.447 206.573C166.503 206.611 166.715 207.573 166.027 209.343C165.982 209.455 165.716 209.474 165.649 209.595C165.361 210.125 165.959 210.777 165.621 211.391C166.535 211.471 166.95 210.682 167.952 211.198C167.51 212.057 168.657 212.251 168.71 212.331C168.753 212.395 168.58 212.62 168.616 212.803C168.786 213.649 168.633 213.711 168.619 214.442C168.616 214.572 169.052 214.819 168.778 215.292C169.221 215.485 170.475 215.998 170.513 216.454C170.643 218.013 171.521 217.81 171.904 219.35C171.986 219.678 172.31 219.928 172 220.516L173.041 221.049C173.491 220.877 174.629 219.809 174.929 219.786C175.367 219.755 176.028 220.105 176.504 220.098C176.981 220.091 178.733 219.295 178.96 219.275C180.292 219.162 180.399 218.627 181.731 218.514C182.177 218.478 182.454 217.793 182.453 217.347L184.344 217.722L184.469 217.092L186.485 216.836L186.675 217.529L187.618 216.078L189.823 216.515C189.934 216.17 189.912 215.721 190.042 215.412C190.09 215.301 190.353 215.281 190.42 215.16C190.708 214.631 190.11 213.978 190.448 213.364L191.709 213.614L191.833 212.984C192.671 213.136 192.641 214.1 193.757 214.02L194.952 212.947L196.055 213.165L196.18 212.535C196.84 212.856 197.26 212.042 197.785 211.871C198.192 211.738 198.149 212.119 198.729 211.239C198.832 211.082 198.754 210.802 198.854 210.609C199.04 210.249 200.619 209.452 200.964 209.88C200.783 210.244 200.789 210.743 201.311 210.604C201.879 210.451 202.452 209.789 202.411 209.185L204.775 209.653L205.341 209.274C205.189 208.523 206.677 206.929 207.29 206.877C208.832 206.747 209.801 205.825 210.124 205.801C210.642 205.763 211.452 206.185 212.014 206.175C212.665 206.164 213.737 205.4 214.818 206.076L214.943 205.446L215.888 205.633C216.238 204.759 215.746 205.097 215.54 204.909C215.236 204.629 215.094 204.251 215.255 203.87C213.997 203.853 213.381 203.132 212.638 202.205L213.234 200.849L211.72 200.222L211.97 198.961L210.142 198.272C210.21 197.234 209.941 196.342 208.721 196.352L208.342 195.786L208.498 194.998L207.3 194.433L207.487 193.488C206.042 193.477 205.9 191.696 204.586 191.603L204.836 190.342C204.042 190.316 203.355 189.964 203.101 189.18C203.049 189.015 203.243 188.779 203.195 188.707C203.147 188.635 202.854 188.725 202.722 188.613C202.243 188.207 202.25 187.557 201.114 187.64C201.386 186.829 201.287 185.987 200.763 185.278L198.777 184.556L198.618 183.706L199.183 182.508C198.913 182.252 198.511 181.291 198.299 181.187C197.983 181.029 197.409 181.082 197.038 180.937C196.923 180.891 196.899 180.598 196.786 180.559C195.261 180.054 194.02 180.65 192.689 179.747L190.926 180.38C190.663 180.354 190.392 180.232 190.138 180.224L191.271 179.466L191.396 178.836C191.976 179.046 192.501 178.695 192.529 178.078L200.249 179.608C200.47 179.603 200.455 179.331 200.469 179.324C200.785 179.171 200.823 179.077 200.847 179.072Z" fill="#284655"/>
<path d="M152.121 165.484C152.123 166.448 151.496 166.042 150.893 165.896C150.634 165.832 150.362 165.798 150.105 165.74L150.23 165.11C149.084 165.338 149.01 165.12 148.182 164.704C147.788 164.508 147.621 164.891 147.489 164.894C145.82 164.937 145.142 163.567 144.02 162.569L142.382 162.572L141.561 161.754C138.992 161.514 136.976 160.253 134.313 160.318C132.246 160.37 128.817 158.767 126.75 158.819C125.519 158.85 124.543 157.926 123.159 158.762C121.061 157.829 118.973 156.93 116.853 155.875C116.561 155.729 115.727 154.731 115.465 154.617C114.877 154.363 113.915 154.408 113.259 154.18L112.974 153.141C111.115 153.084 110.255 152.121 110.575 150.373L108.589 149.652L108.304 148.613L107.673 148.488C107.92 147.724 107.638 146.899 107.134 146.252L107.196 145.937C107.822 145.688 107.611 144.968 107.824 144.424C107.869 144.308 108.162 144.285 108.201 144.171C108.57 143.055 108.25 141.646 109.456 141.145L109.297 140.294C110.661 140.702 111.239 139.7 111.31 138.401L114.461 139.025L114.586 138.395L115.752 138.299L116.004 138.676C116.642 138.069 116.753 138.897 117.422 138.957L117.297 139.587C118.491 140.142 119.957 139.584 120.984 139.991C121.093 140.035 121.397 140.649 122.024 140.524L122.149 139.894C123.627 139.856 123.823 141.362 124.831 142.063L125.146 142.125C126.058 141.258 126.381 141.843 127.257 142.216L127.132 142.847L128.077 143.034C127.688 143.494 128.451 144.965 128.805 145.143C129.21 145.348 130.753 145.398 130.854 145.549C130.666 146.115 130.659 146.464 131.077 146.903L131.989 146.429L131.93 148.383C132.881 148.64 133.879 147.868 134.42 149.04L134.263 149.828L134.894 149.952C134.244 151.363 136.233 151.603 135.97 152.786C136.645 152.635 137.206 153.342 137.325 153.382C137.849 153.564 138.511 153.565 139.059 153.725L138.809 154.986C139.35 154.913 139.412 155.41 139.534 155.457C139.905 155.603 140.479 155.549 140.795 155.707C141.051 155.836 141.131 156.671 141.773 156.556L141.585 157.501L145.62 158.628L145.905 159.667C147.329 159.986 148.573 159.806 149.184 161.3C150.144 160.95 150.131 161.412 150.444 161.55C150.83 161.718 151.43 161.683 151.863 161.831L152.305 162.901C152.268 162.975 152.264 163.112 152.243 163.216C152.134 163.846 152.405 163.985 152.402 164.066C152.393 164.507 152.16 165.021 152.121 165.484ZM118.124 143.681C118.331 142.832 117.537 142.013 116.64 142.077C116.315 142.101 115.474 142.973 114.467 142.302C114.471 142.925 113.891 143.062 113.429 143.406L112.294 142.526L111.35 143.158C110.958 144.901 110.27 146.654 112.585 146.841C112.529 147.551 112.676 148.611 113.533 148.667L113.598 149.99C115.355 150.23 115.703 151.779 117.163 152.661C117.525 152.88 118.279 153.456 118.613 153.604C119.125 153.833 119.89 153.591 120.127 154.231L121.197 153.788C121.442 154.701 123.115 153.995 123.245 154.194L123.278 154.856L124.033 154.35L125.737 155.67C127.248 155.164 129.024 156.004 130.588 155.977C130.7 155.976 131.547 155.535 131.659 155.534C133.088 155.509 133.073 156.361 133.425 156.539C133.803 156.729 135.455 156.984 135.567 156.472C135.159 155.324 134.206 156.147 133.865 155.971C133.727 155.178 131.885 154.442 131.751 154.242C131.703 154.171 131.897 153.934 131.845 153.77C131.733 153.423 129.623 150.703 129.382 150.498C129.25 150.386 128.957 150.476 128.909 150.404L129.034 149.774L127.143 149.399L126.825 147.698C125.753 147.738 125.366 146.486 124.492 146.253L124.616 145.623L123.986 145.498L123.861 146.128L122.286 145.816L122.283 144.178C121.741 144.251 121.676 143.753 121.557 143.707C121.059 143.513 120.36 143.535 119.824 143.363L119.637 144.309L118.124 143.681Z" fill="#284655"/>
<path d="M205.171 238.225L205.894 237.058L207.469 237.37C207.71 237.644 208.649 238.868 208.795 238.943C208.979 239.039 209.241 238.973 209.425 239.068C209.497 239.105 210.299 240.309 210.31 240.39C210.337 240.614 209.898 241.477 210.626 241.271C211.07 241.146 211.794 240.12 211.758 239.694L210.906 239.034L211 238.561C211.211 238.452 211.311 238.377 211.408 238.151C211.972 238.515 212.447 239.009 212.954 239.44C213.462 239.871 214.053 240.804 214.344 241.517C214.403 241.663 214.41 242.371 214.472 242.524C214.546 242.713 214.753 242.891 214.851 243.091L217.214 243.559C216.592 244.979 217.265 245.151 217.691 246.11C217.736 246.214 217.624 246.729 218.008 246.992L219.111 247.21L218.986 247.84L219.931 248.028L219.806 248.658C220.917 248.754 220.383 249.68 220.786 250.326L220.723 250.641C219.963 250.91 220.072 251.334 219.843 251.777C219.709 252.042 218.76 252.201 218.932 253.07L216.696 253.609C216.531 253.085 216.105 253.256 215.813 253.107C215.742 253.07 214.978 251.936 214.929 251.785C214.62 250.83 214.227 251.23 213.918 250.275C213.857 250.086 212.638 248.256 212.528 248.198C210.956 247.389 210.818 246.218 209.814 245.368C209.147 244.8 209.488 244.337 208.584 244.141L208.518 242.818C207.635 242.732 206.87 242.524 207.13 241.561L206.5 241.436L206.559 239.483C205.835 239.323 205.472 238.887 205.171 238.225Z" fill="#284655"/>
<path d="M202.06 224.18L203.51 225.123C202.953 226.247 204.518 226.846 204.271 227.894L205.217 228.081C204.927 229.082 204.832 229.659 205.567 230.443L206.418 230.284L207.931 230.912L207.743 231.857L208.689 232.044L208.501 232.99L209.447 233.177L209.322 233.807L208.692 233.683L208.567 234.313L209.197 234.438L209.322 233.807C209.785 233.703 211.164 235.748 211.184 235.978C211.202 236.184 211.041 236.401 211.059 236.608C211.087 236.931 211.824 237.179 211.409 238.151C211.311 238.377 211.211 238.453 211 238.561L210.906 239.034L211.758 239.694C211.794 240.121 211.07 241.146 210.627 241.271C209.898 241.477 210.337 240.615 210.31 240.39C210.3 240.309 209.497 239.105 209.426 239.068C209.241 238.973 208.979 239.039 208.795 238.943C208.65 238.869 207.71 237.644 207.469 237.37L205.894 237.058L205.171 238.225C205.171 238.225 204.895 238.229 204.887 238.005C204.872 237.504 205.202 236.816 205.231 236.272C204.569 236.206 204.029 235.398 204.22 234.761L203.275 234.574L203.272 232.936C202.723 232.932 202.454 232.702 202.074 232.371C202.037 232.341 202.259 232.146 201.506 231.931L200.904 230.01L201.5 228.655L200.87 228.53C201.116 227.901 200.515 227.477 200.206 226.924C200.938 226.719 200.803 224.475 201.052 224.308L202.06 224.18Z" fill="#284655"/>
<path d="M201.506 231.931C202.259 232.146 202.037 232.341 202.074 232.371L202.045 234.167C201.168 234.874 201.265 235.479 201.293 236.31C201.3 236.508 201.188 237.089 201.106 237.256C201.036 237.393 199.983 237.816 199.847 237.825C199.564 237.844 199.184 237.618 198.901 237.638C198.719 237.65 198.333 238.127 198.146 238.143C197.51 238.197 197.363 237.565 196.791 237.547C196.602 238.731 195.174 238.978 194.684 239.913L194.338 240.008C193.834 239.722 193.158 240.341 192.952 240.389C192.825 240.419 192.526 240.275 192.322 240.264C192.327 240.153 192.388 240.047 192.384 239.949C192.354 239.274 192.06 238.761 192.035 238.406C192.016 238.123 192.242 237.742 192.223 237.46C192.192 237.035 190.958 236.253 190.488 236.298L190.925 234.092C191.838 233.866 191.277 234.05 191.713 234.248C192.007 234.382 192.475 234.35 192.816 234.466L193.191 232.576L193.821 232.701L194.008 231.755C194.152 231.807 194.36 231.766 194.481 231.849C195.414 232.476 195.456 231.852 196.057 232.161C196.321 232.296 196.481 233.244 197.35 233.072C197.238 232.664 198.519 231.732 198.765 231.715C199.044 231.695 199.417 231.913 199.71 231.903C199.842 231.899 199.968 231.646 200.088 231.65C200.475 231.665 201.11 231.817 201.506 231.931Z" fill="#284655"/>
<path d="M192.211 176.377L192.433 177.732L200.469 179.324C200.469 179.324 200.47 179.603 200.249 179.608L192.529 178.078C192.501 178.695 191.976 179.046 191.396 178.836L191.271 179.466L190.138 180.224C189.276 180.197 189.13 180.62 188.91 180.636C188.262 180.684 187.799 180.242 187.115 180.607C187.554 179.267 186.083 180.177 185.759 180.011L184.653 178.155L184.778 177.524C185.727 178.174 187.665 176.262 188.147 176.227C188.429 176.207 188.81 176.434 189.092 176.414C189.238 176.404 190.038 175.973 190.162 175.971C190.731 175.963 191.569 176.293 192.211 176.377Z" fill="#284655"/>
<path d="M194.541 176.184C195.729 176.338 196.682 176.933 197.377 176.746C197.46 176.724 198.49 177.229 198.891 177.374L198.766 178.004L199.238 178.098L199.458 177.814C199.71 177.998 200.629 177.954 201.034 178.126L200.847 179.071C200.823 179.077 200.784 179.17 200.469 179.324L192.433 177.732L192.21 176.377C193.328 176.523 193.424 176.038 194.541 176.184Z" fill="#284655"/>
<path d="M155.502 189.735C155.812 190.982 155.26 191.42 155.287 192.476C155.298 192.98 155.555 193.122 155.006 193.895C154.783 194.211 154.542 194.369 154.219 194.557L154.256 197.676L152.996 197.426C153.357 195.684 153.261 193.775 153.964 192.542L153.393 190.464L152.604 189.488C153.038 189.381 153.274 189.133 154.084 189.454C154.36 189.565 154.581 190.286 155.502 189.735Z" fill="#284655"/>
<path d="M152.243 163.216C152.893 163.404 153.665 163.413 154.291 163.622C154.405 163.661 154.426 163.95 154.544 164C154.855 164.13 155.302 164.108 155.647 164.218L155.085 167.055L152.626 166.24L152.121 165.485C152.16 165.021 152.393 164.507 152.402 164.067C152.405 163.985 152.134 163.847 152.243 163.216Z" fill="#284655"/>
<path d="M197.378 176.746C196.682 176.933 195.729 176.338 194.541 176.184L194.666 175.554C195.672 175.734 196.53 175.832 197.282 176.4L197.378 176.746Z" fill="#284655"/>
<path d="M199.459 177.814L199.239 178.098L198.766 178.004L198.891 177.374C199.628 177.638 199.425 177.787 199.459 177.814Z" fill="#284655"/>
<path d="M174.035 122.666L174.98 122.854C175.367 122.01 174.786 121.204 175.133 120.428C175.193 120.292 175.677 120.247 175.605 119.703L168.042 118.204L168.104 117.888L176.297 119.512L176.516 118.409L177.585 117.147L178.845 117.397C179.296 118.129 179.959 118.617 179.574 119.507L180.204 119.631C180.249 119.686 180.11 119.858 180.141 119.947L179.417 120.294L179.324 120.767L180.269 120.954C180.241 121.064 180.246 121.235 180.207 121.27C179.902 121.537 179.245 121.393 179.327 122.405L178.381 122.218C178.477 122.872 177.967 123.05 177.847 123.258C177.748 123.429 177.819 123.701 177.723 123.889C177.468 124.382 175.691 124.655 175.994 126.002L175.521 125.909L174.546 126.698L173.916 126.573C173.639 125.457 173.86 125.897 174.197 125.155C174.57 124.328 174.172 124.007 173.91 123.297L174.035 122.666Z" fill="#284655"/>
<path d="M157.149 194.647L156.962 195.592C156.61 195.483 156.219 195.471 155.859 195.374C155.445 194.964 155.562 194.774 155.573 194.334C156.097 194.402 156.628 194.599 157.149 194.647Z" fill="#284655"/>
<path d="M190.925 234.092L190.488 236.297C190.959 236.253 192.192 237.035 192.223 237.46C192.242 237.742 192.016 238.123 192.035 238.405C192.06 238.761 192.354 239.274 192.384 239.948C191.517 239.351 190.811 240.22 190.526 240.235C189.612 240.29 189.334 239.642 188.76 239.23C188.614 239.126 188.326 239.206 188.13 239.105C187.648 238.859 187.788 237.757 188.001 237.278C188.053 237.164 188.319 237.145 188.379 237.026C188.618 236.546 187.674 236.434 188.88 235.324C189.433 234.814 189.641 234.738 189.665 233.842C190.031 233.842 190.677 234.154 190.925 234.092Z" fill="#284655"/>
<path d="M202.06 224.18L202.185 223.55L203.35 223.454C203.479 223.479 203.873 224.386 204.108 224.586C204.24 224.698 204.533 224.608 204.581 224.68C204.641 224.771 205.048 226.253 205.183 226.601C205.412 227.196 206.405 227.524 206.446 228.489L206.418 230.284L205.567 230.443C204.832 229.659 204.927 229.082 205.217 228.081L204.271 227.894C204.518 226.846 202.954 226.247 203.51 225.123L202.06 224.18Z" fill="#284655"/>
<path d="M209.322 233.808L208.692 233.683L208.567 234.313L209.197 234.438L209.322 233.808Z" fill="#284655"/>
<path d="M191.552 196.225L190.859 196.415C190.814 196.976 190.527 197.613 190.516 198.148C190.514 198.275 190.949 198.525 190.675 198.998L191.305 199.123L190.709 200.479L191.183 201.392C190.404 201.159 190.021 201.686 189.988 202.465L189.358 202.34C189.336 202.814 188.308 203.982 187.88 204.012C187.129 204.066 185.853 203.43 185.044 203.45C184.912 203.453 184.745 203.836 184.351 203.64C184.232 203.581 184.213 203.315 184.098 203.263C183.595 203.042 182.771 203.085 182.208 202.888L181.542 200.464L180.943 200.181C181.579 199.944 181.344 199.183 181.57 198.668C181.619 198.556 181.867 198.54 181.948 198.415C182.256 197.936 182.471 197.395 183.017 197.153L183.742 197.624C183.931 197.066 183.421 196.7 183.708 196.144C183.842 195.882 184.669 195.807 184.557 195.166L185.502 195.353L185.627 194.723C186.772 195.291 187.352 194.135 188.431 194.624C188.545 194.676 188.565 194.938 188.683 195.001C189.23 195.283 189.989 195.453 190.512 195.691C190.951 195.889 191.084 196.191 191.552 196.225ZM190.419 196.983C189.987 196.717 189.622 197.156 189.569 197.142C189.491 197.123 189.363 196.593 188.844 196.671L188.719 197.301L186.766 197.241C186.888 197.947 185.706 198.141 185.539 198.472C185.415 198.719 185.474 199.147 185.352 199.417C185.3 199.531 185.041 199.549 184.974 199.67C184.785 200.016 184.911 200.702 185.228 200.867C185.802 201.164 186.009 200.844 186.425 200.613C186.679 200.47 187.892 199.688 187.935 199.602C188.119 199.239 188.143 197.96 188.279 197.869L189.129 197.71L189.792 198.496L190.419 196.983Z" fill="#284655"/>
<path d="M180.269 120.955L179.324 120.767L179.417 120.294L180.141 119.947C180.248 120.233 180.492 120.128 180.269 120.955Z" fill="#284655"/>
</svg>
