<svg width="474" height="534" viewBox="0 0 474 534" fill="none" xmlns="http://www.w3.org/2000/svg">
<path d="M271.681 193.53C271.727 193.468 272.482 193.843 272.613 192.559C271.024 189.857 272.272 189.477 274.762 188.574L274.86 186.995C276.548 186.448 275.488 184.429 276.359 183.287C276.462 183.151 278.131 182.477 278.499 181.994C278.765 181.643 278.795 180.954 279.061 180.604C279.28 180.315 280.794 180.064 281.013 179.775C281.57 179.051 281.785 177.412 282.324 176.53L285.111 176.307L285.86 174.453L286.787 174.827C287.542 173.186 289.498 172.762 291.161 172.011L291.446 169.969L292.378 168.997C293.819 170.102 294.714 168.954 295.998 169.381C295.164 167.707 296.425 166.749 296.012 165.342L297.176 164.464L299.262 165.307C299.522 165.197 300.048 162.853 300.479 162.294C300.752 161.94 302.26 161.956 302.249 160.582L303.176 160.957L304.488 157.712C306.828 158.512 307.387 155.728 308.585 154.244C309.226 153.699 311.693 152.744 312.027 152.399C312.186 152.232 312.19 151.915 312.308 151.704L311.198 150.446C311.237 149.734 312.741 148.136 311.764 147.709L310.458 149.608C309.139 149.884 308.627 151.511 307.297 150.758L306.922 151.685L305.532 151.123L303.944 153.717L302.554 153.155C302.353 154.466 301.326 153.965 300.833 154.078C299.915 154.295 299.104 155.246 298.185 154.626L298.18 155.972C297.491 155.969 297.32 156.913 297.248 156.944C297.176 156.974 296.378 156.441 295.902 156.939L294.466 155.82L294.275 157.63C293.515 157.868 292.737 158.405 291.996 158.597C291.166 158.811 289.544 158.593 288.791 159.189C288.578 159.357 288.634 159.832 288.51 159.885C288.334 159.959 286.655 159.551 286.237 159.505C285.791 159.46 285.024 160.504 284.008 159.683C283.84 159.551 283.891 159.145 283.731 159.032C283.006 158.518 282.269 158.528 281.458 158.653L281.833 157.726L279.051 156.602L279.426 155.675L278.498 155.3C279.029 152.813 277.1 149.925 278.433 147.455L277.599 146.848L279.828 146.67L278.906 144.949L280.872 140.082L282.263 140.643C282.611 140.024 282.735 139.103 283.106 138.557C283.588 137.846 285.393 137.556 285.527 136.569L286.454 136.944L287.302 133.512L288.692 134.074L289.723 131.524L290.699 131.109L291.902 132.135C292.373 131.797 293.959 131.461 294.181 131.168C294.546 130.69 294.677 129.244 295.719 129.363C296.76 129.481 297.632 130.394 298.83 129.002C297.83 128.743 297.167 128.222 296.468 127.508C296.021 127.053 295.278 125.448 295.176 125.368C294.109 124.538 292.519 123.95 293.469 122.252L292.591 121.088L292.073 123.036C290.5 122.886 290.767 121.01 289.434 120.892C289.159 120.867 288.747 121.444 288.088 120.887L288.463 119.96L287.536 119.585L288.561 118.382C287.236 117.992 286.127 117.452 286.805 116.054L285.922 116.237C285.52 116.193 284.263 114.618 284.304 114.235C284.337 113.914 284.646 113.629 284.679 113.308C284.717 112.935 283.441 110.047 282.74 110.098L283.302 108.707C281.977 108.317 280.868 107.778 281.546 106.38L280.619 106.005L281.832 104.338L279.978 103.589C280.535 102.93 279.959 102.514 279.982 102.243C280.072 101.287 280.691 98.7272 281.204 97.8832C281.303 97.7182 281.793 97.7599 281.855 97.6069C281.915 96.8058 280.246 96.385 281.026 95.6542C281.634 95.0853 282.492 95.3241 283.162 95.708C283.234 94.7018 286.948 93.6246 287.486 93.6804C287.807 93.713 288.092 94.0223 288.413 94.055C288.703 94.0857 289.432 93.4689 289.715 93.5024C291.08 93.6603 292.03 94.7666 293.005 95.3708L293.379 94.4436C293.866 94.721 294.591 94.8089 295.002 95.0991C296.366 96.0602 297.433 95.7148 298.711 96.5976C299.245 96.9699 302.012 99.0101 302.508 99.2105C302.606 99.2498 303.253 98.6755 303.855 99.2151L303.48 100.142C303.896 100.3 304.713 100.975 304.915 101.261C305.375 101.911 305.393 104.431 306.109 104.98C306.669 105.41 309.012 105.937 309.123 106.197L308.561 107.588L311.342 108.712L310.874 109.871L311.289 110.847C313.304 111.332 315.055 113.377 314.569 115.408L317.163 116.995C316.686 118.431 318.062 120.082 318.54 121.596C318.643 121.929 318.126 123.128 319.462 123.317C320.226 122.256 319.169 121.068 320.493 120.767L320.404 119.653L321.616 117.986C320.233 115.55 323.736 113.595 321.733 111.022L321.921 110.559C322.239 110.332 323.072 110.204 323.223 110.006C324.433 108.425 325.505 105.773 326.585 104.354C327.076 103.711 330.111 103.061 329.01 101.02L329.198 100.556C329.904 100.049 332.767 99.3293 333.103 98.8987C334.342 97.3125 336.031 96.7111 336.268 96.4028C336.601 95.9657 336.689 95.0681 337.018 94.5484C337.119 94.39 338.144 94.1085 338.137 93.1131L341.15 94.3306C342.218 94.196 342.121 93.477 342.501 92.989C342.635 92.8168 345.713 91.9138 345.894 91.933C346.559 92.0077 347.471 92.6998 348.212 92.8695L350.352 91.577L352.019 92.7898C355.141 92.1907 357.096 94.4639 359.436 95.7867C360.191 96.2155 361.189 96.4139 361.986 96.8169C361.023 97.7977 362.12 98.834 362.07 99.2776C361.916 100.607 360.809 101.346 362.15 103.085L360.661 104.101L360.839 106.33C359.831 106.581 359.796 107.79 359.345 108.692L358.418 108.318C358.064 108.913 357.942 109.921 357.575 110.404C357.303 110.758 356.003 110.637 355.992 111.652L354.601 111.09C353.833 112.138 354.901 113.325 353.571 113.64C353.296 115.615 349.94 114.324 349.755 116.412C349.738 116.626 350.068 116.878 350.031 117.063C349.664 118.813 348.688 121.082 346.772 119.79L345.648 122.572L344.489 122.104C342.771 122.472 342.662 124.051 341.926 125.112C341.811 125.276 341.389 125.225 341.275 125.389C340.802 126.066 341.002 127.026 339.736 127.194C338.471 127.362 337.869 127.998 336.62 128.901C335.655 129.595 334.8 128.494 334.574 129.962C335.647 130.201 337.082 131.255 338.051 131.366C339.101 131.489 338.319 130.261 340.556 131.839C342.588 133.27 343.247 131.012 344.087 131.109C344.632 131.173 345.334 131.731 345.941 131.858C346.085 131.889 346.726 131.317 347.519 131.956C347.687 132.089 347.636 132.494 347.795 132.607C348.169 132.871 348.84 132.905 349.186 133.169C349.879 133.697 348.976 134.864 349.783 135.028L350.577 133.731C351.046 133.85 351.529 134.218 351.968 134.293C353.13 134.487 353.456 134.306 354.749 135.417C355.853 134.714 356.545 134.923 357.674 135.52L357.299 136.447L358.226 136.821L358.601 135.894C360.302 136.236 361.053 137.861 361.792 139.341L362.399 138.507C363.738 139.21 365.537 139.549 366.803 140.287C367.059 140.439 368.44 141.946 368.746 142.15C369.251 142.489 370.159 142.565 370.6 142.899C370.906 143.131 371.781 145.436 371.286 145.873L372.214 146.248L372.347 147.919L373.23 147.737C373.124 148.131 372.805 148.547 372.762 148.896C372.353 152.23 372.482 156.661 370.219 159.193L370.584 160.958C368.875 161.638 367.436 164.238 365.747 163.588L362.947 167.849C362.279 167.299 361.946 167.844 361.601 167.844C361.309 167.845 361.01 167.503 360.673 167.47C359.628 167.36 359.064 168.583 358.671 169.088C358.519 169.279 355.531 169.507 355.003 169.493C353.872 169.462 352.471 168.751 351.57 168.645C351.21 168.602 349.978 169.517 349.617 169.474C349.221 169.427 346.69 168.405 346.372 168.163C346.107 167.964 345.846 166.635 345.543 166.21C345.39 166.149 345.11 166.51 344.893 166.487C343.859 166.376 343.848 165.574 343.689 165.461C342.605 164.7 341.404 165.352 340.72 164.801L339.749 163.869L340.123 162.942C339.128 162.669 337.919 162.952 336.922 162.188C336.569 161.916 336.689 160.616 335.675 160.605L336.236 159.214L333.179 157.44L333.464 155.398L331.565 154.092L331.432 152.42C329.619 151.342 328.296 148.343 327.135 146.37C326.479 145.258 325.595 143.79 324.827 142.741C324.583 142.41 323.723 141.081 323.579 141.158C322.724 142.474 323.071 143.763 322.544 145.054L323.654 146.311L321.785 149.601L320.858 149.226C321.322 150.654 321.407 152.193 319.917 152.891L319.73 153.354C320.239 154.283 320.409 154.864 319.814 155.815C319.393 155.375 317.745 155.89 317.491 156.225C317.238 156.559 317.195 157.265 316.93 157.616C316.562 158.098 314.893 158.772 314.79 158.908C313.77 160.243 314.407 160.749 312.6 160.99C311.335 161.158 310.276 162.979 309.943 164.23L309.016 163.855C308.182 165.411 307.964 166.898 307.7 168.447L306.768 169.418L303.799 168.758L304.258 170.292C303.034 170.358 302.919 171.471 302.582 171.772C301.331 172.879 299.98 173.126 298.489 173.893C297.979 174.156 297.107 175.578 295.979 174.766L295.975 176.113L294.673 176.665C295.233 177.668 294.233 178.768 293.919 179.866L292.296 179.21L290.482 180.365L290.477 181.711C291.746 182.655 292.45 181.618 293.589 181.35C293.714 181.32 293.907 181.565 294.052 181.538C294.963 181.366 295.258 180.822 295.497 179.964C295.983 180.242 296.708 180.33 297.12 180.62C297.291 180.743 297.18 181.378 297.859 181.458C298.894 181.579 299.407 181.765 300.365 181.931C300.833 182.012 302.223 181.296 302.825 181.846L302.924 180.268C303.661 180.965 304.477 179.947 304.921 179.997C305.292 180.039 307.406 180.893 307.703 181.121C307.963 181.317 307.962 182.347 308.487 182.516L309.236 180.662C310.188 181.256 310.768 181.087 311.697 180.577L316.654 183.659C317.243 181.691 320.156 183.504 320.746 181.537C321.774 181.57 321.925 182.45 322.182 182.656C324.19 184.293 327.131 184.527 329.51 184.539L329.974 184.726C330.277 185.15 330.538 186.48 330.802 186.679C331.359 187.103 332.36 186.936 332.47 187.892L332.933 188.079C333.594 187.537 334.004 188.123 334.511 188.177C334.801 188.208 337.26 187.314 338.042 187.447C339.468 187.694 340.05 188.856 341.332 189.315L339.557 192.373L340.952 191.588L341.233 190.893C343.479 191.088 343.074 193.05 343.961 194.152C344.558 194.89 344.583 195.256 345.253 196.292C345.615 196.853 346.445 199.47 346.635 199.547L348.445 199.739C347.748 200.476 348.766 201.292 348.716 201.736C348.646 202.365 347.587 204.051 347.686 204.286L348.613 204.66C348.31 205.999 347.499 206.75 346.839 207.718L345.912 207.343C345.111 208.19 343.531 210.059 342.327 210.209C342.06 210.242 341.755 209.876 341.632 209.928C341.508 209.981 341.559 210.455 341.351 210.624C339.981 211.731 336.845 210.75 335.265 211.67C335.112 211.609 335.152 211.123 334.989 211.019C333.97 210.392 333.29 210.419 332.297 211.01L331.833 210.823C331.238 209.8 329.977 208.703 329.15 208.121C328.247 207.486 327.688 207.908 326.368 206.997C325.221 206.205 322.816 205.805 323.64 203.738L315.759 200.554L316.228 199.395L315.813 198.418L311.685 197.29L312.247 195.899C312.016 195.844 311.78 195.613 311.552 195.618C309.889 195.637 310.295 194.658 309.047 195.145L307.38 193.933L306.033 193.928L306.408 193.001L303.439 192.34L303.725 190.299C301.861 189.799 299.73 188.334 297.93 187.958C297.791 187.928 297.145 188.498 296.352 187.859C295.99 187.567 295.918 186.837 294.685 186.646C293.061 186.395 291.171 187.308 289.112 187.091C288.739 187.054 287.52 187.963 287.159 187.92C286.433 187.837 285.421 187.072 284.61 186.89C284.735 187.701 284.745 188.438 284.23 189.163C284.116 189.327 283.694 189.276 283.58 189.44C282.144 191.459 281.397 193.854 280.957 195.93C280.64 197.436 279.472 198.965 278.344 199.728C278.765 200.329 278.436 201.329 278.522 201.957C278.573 202.339 278.978 202.831 279.075 203.259C279.109 203.402 278.856 203.601 278.888 203.722C279.199 204.873 280.012 206.01 281.014 206.469L280.634 208.742C279.61 209.315 278.079 209.381 277.75 210.543C277.802 210.666 278.278 210.61 278.445 210.823C279.221 211.8 279.36 218.29 281.342 219.004L280.592 220.859C281.726 221.004 281.579 222.422 282.117 223.092C282.286 223.301 282.76 223.249 282.812 223.373C282.865 223.497 282.494 223.8 282.531 224.069C282.679 225.158 283.625 225.352 284.568 225.7C284.811 226.273 282.165 227.938 283.489 229.039C284.813 230.14 284.663 228.883 285.58 228.536L285.861 227.84C286.095 227.741 287.781 228.8 288.41 228.871C288.503 228.881 290.033 228.539 290.176 228.505C292.203 227.998 293.483 225.711 295.427 226.852L295.802 225.925L296.729 226.3L296.354 227.227L297.701 227.232L298.904 228.257L302.81 226.599L303.781 227.531L304.343 226.14C305.324 227.103 306.36 226.006 306.804 226.056C307.365 226.121 308.097 226.74 308.658 226.805C308.896 226.831 309.605 226.492 310.887 226.627C311.518 226.694 312.613 225.265 313.767 226.173C313.98 226.34 313.877 227.048 314.739 227.105L315.301 225.714L316.692 226.276L317.841 229.437C318.288 229.785 320.802 228.821 319.74 230.743C319.679 230.762 319.166 231.336 318.67 231.39C318.399 231.42 318.098 231.056 317.975 231.109C317.701 231.225 317.987 231.626 316.254 232.031C315.091 232.306 314.498 233.187 313.463 233.6L310.45 232.382L310.445 233.729L309.469 234.143L308.31 233.675L307.935 234.602C306.821 233.877 305.314 234.309 304.868 235.52L303.477 234.958L303.102 235.885C301.524 235.134 300.296 236.439 298.555 235.127L298.181 236.054C296.682 235.2 295.129 235.678 293.634 235.295L293.259 236.222L290.754 235.749L290.192 237.14L289.265 236.766L287.865 238.896C286.471 238.074 284.336 238.981 283.959 240.554C282.616 239.235 281.076 240.322 280.572 240.264C279.639 240.157 278.859 239.043 277.741 239.929C277.034 240.49 276.037 241.009 274.767 240.615L274.393 241.542C274.269 241.595 273.966 241.224 273.697 241.261C272.244 241.456 272.114 244.127 269.836 243.476C269.054 243.252 268.299 242.796 267.518 242.54C267.567 242.327 267.723 242.18 267.474 241.982L266.779 241.701C267.843 240.681 267.493 240.388 267.621 239.615C267.889 237.992 268.86 237.484 268.75 235.487C268.697 234.538 270.244 233.966 270.337 232.893C270.729 232.992 271.159 233.328 271.496 233.362C271.772 233.387 276.022 232.424 276.792 232.266C277.499 232.12 278.329 231.506 279.071 231.299L278.567 229.208C277.741 228.917 276.201 228.43 276.298 227.482C276.331 227.161 276.64 226.876 276.673 226.555C276.759 225.727 273.823 223.144 273.624 222.088C273.388 220.817 273.46 219.212 271.686 218.878C272.257 217.744 270.931 216.955 271.882 215.722L270.215 214.509C270.571 213.628 271.573 213.31 271.709 212.146C271.728 211.992 271.159 210.064 271.255 209.267C271.307 208.829 271.764 208.313 271.817 207.876C271.945 206.784 269.429 204.991 269.508 204.247L270.075 201.51L269.148 201.135L271.199 198.728L274.72 200.69L276.406 196.518C275.911 196.248 275.221 196.153 274.783 195.862C274.617 195.752 274.669 195.304 274.507 195.211C273.61 194.709 272.433 194.471 271.494 193.994C271.555 193.841 271.602 193.633 271.681 193.53ZM354.737 98.7416L352.143 97.1541L351.768 98.0813L350.377 97.5194L350.836 99.053C349.224 100.041 347.928 97.8025 346.24 99.0835L344.805 97.9643L344.43 98.8915C343.208 97.9124 342.009 99.9193 341.827 99.9967C341.664 100.066 338.858 99.8973 338.39 100.495C337.328 101.857 336.282 101.963 336.062 102.251C335.797 102.602 335.766 103.291 335.501 103.642C335.283 103.927 334.234 104.042 333.173 105.398C332.994 105.628 332.051 105.721 331.871 105.951C331.234 106.767 331.804 107.385 331.773 107.529C331.619 108.27 331.051 109.076 330.837 109.847L329.165 109.98C329.167 111.658 327.507 111.775 327.208 112.156C326.524 113.033 327.183 114.713 328.219 114.991C328.229 116.661 326.544 116.8 326.262 117.166C325.998 117.512 324.627 120.906 324.576 121.338C324.535 121.667 325.31 122.778 325.405 123.291C324.133 123.597 323.803 124.24 323.447 125.466C324.877 125.947 324.33 127.953 326.131 128.168C326.287 126.673 327.947 127.397 328.083 127.339C328.207 127.287 328.156 126.813 328.364 126.644C328.67 126.395 329.508 126.297 329.666 126.091C330.087 125.544 330.182 124.321 330.603 123.773C330.911 123.37 332.932 122.908 334.419 121.001C334.594 120.781 338.62 119.759 338.793 118.184L339.72 118.559L340.75 116.009C342.632 115.529 343.448 115.778 343.916 113.513C343.952 113.329 343.618 113.075 343.639 112.862L345.039 110.732L346.711 110.598C347.268 109.955 346.675 109.446 346.716 109.252C347.293 106.541 349.975 105.015 351.843 103.235C352.335 102.765 352.425 101.34 353.89 102.174L354.264 101.247L353.337 100.872L354.737 98.7416ZM303.728 108.871L301.829 107.564L300.448 104.31C299.483 104.923 298.503 103.864 297.479 103.65C297.295 103.613 297.043 103.943 296.828 103.926C295.527 103.81 295.7 102.527 295.349 102.25C294.738 101.771 294.058 101.814 293.869 100.573L292.291 100.475C291.748 99.3496 290.843 98.6389 289.652 98.3303L289.277 99.2575L286.959 98.3209L284.534 101.655C284.267 101.768 283.135 100.578 282.956 101.557L283.789 102.163L283.508 102.859L284.855 102.863C285.03 103.937 286.113 104.407 286.285 105.329C286.541 106.71 286.859 108.926 288.313 109.653C287.108 111.447 288.778 111.772 289.462 112.814C289.833 113.379 290.279 115.198 290.568 115.418C291.738 116.311 293.794 117.309 293.108 119.14C295.97 120.318 295.775 122.31 298.992 122.596C299.69 122.657 300.495 123.867 300.935 124.46C301.323 124.983 301.637 126.005 302.228 126.6L303.155 126.974L304.412 125.865C305.594 126.143 306.288 126.881 305.705 128.004L308.486 129.128L309.744 128.018C311.442 128.899 313.694 129.345 315.307 130.266C315.389 130.316 316.06 131.832 317.023 130.69C317.488 130.139 316.834 129.05 316.1 128.969L316.475 128.042C315.011 127.941 315.757 125.816 315.138 125.345C314.787 125.079 314.082 125.048 313.747 124.783C313.534 124.616 313.637 123.908 312.776 123.851L313.337 122.46C310.955 122.004 312.772 119.374 310.146 119.014C309.914 117.038 306.256 114.374 306.407 112.919C306.472 112.304 307.042 111.854 306.367 111.016L303.354 109.798L303.728 108.871ZM326.468 138.011C327.387 138.474 328.068 137.628 328.88 138.716C329.53 139.588 330.23 141.58 329.517 142.479L331.184 143.691L330.158 144.895L331.549 145.457C330.816 146.164 332.63 148.439 333.162 148.805C334.036 149.406 335.647 149.636 336.639 150.21L335.525 150.299L335.239 152.34L337.468 152.162C337.089 153.406 338.057 154.908 338.243 156.25L339.866 156.906L339.491 157.833C340.139 158.391 340.61 157.8 340.837 157.838C342.664 158.134 342.425 160.113 344.403 160.357L344.028 161.284C345.109 161.252 345.739 162.482 345.927 162.591C348.401 164.049 351.619 162.798 354.139 164.29L354.513 163.363L356.831 164.3L357.768 161.982L360.273 162.455C360.774 161.347 363.033 160.388 364.178 160.797C364.465 160.675 365.112 157.939 365.583 157.32C366.361 156.302 366.683 157.867 367.17 154.726C367.368 153.463 368.246 153.278 368.383 153.059C368.975 152.128 369.364 150.031 368.629 149.113C368.46 148.905 367.986 148.956 367.934 148.832C367.881 148.709 368.252 148.406 368.215 148.137C368.044 146.865 365.333 146.353 365.117 144.459L361.64 143.054L362.015 142.127L361.087 141.752C360.657 143.245 359.143 142.854 357.976 142.113C357.791 141.995 356.742 140.628 356.496 140.437C356.221 140.223 355.692 140.171 355.337 139.968L354.962 140.895C353.948 140.884 354.068 139.585 353.714 139.313C353.258 138.961 351.176 138.201 350.469 138.002C348.254 137.371 345.481 136.601 343.604 136.307C342.889 136.195 342.321 135.426 341.563 136.021L340.359 134.995L337.943 135.637L337.203 134.799L334.742 134.883L334.18 136.274L331.631 135.244L326.941 135.506L326.014 135.131C326.863 133.884 325.992 132.944 325.515 131.694L323.661 130.945L321.659 132.563L321.003 134.186L308.95 129.316L308.763 129.779L319.889 134.274C319.84 135.129 319.088 135.056 318.957 135.246C318.2 136.332 318.853 137.733 318.016 138.91L316.625 138.349C316.818 137.483 314.8 136.339 313.986 136.204C313.784 136.171 313.416 136.707 312.872 136.293C312.707 136.167 312.759 135.757 312.595 135.642C311.528 134.893 310.147 135.575 309.118 134.237C308.507 135.964 307.588 134.994 306.47 134.785C306.275 134.749 305.9 135.288 305.356 134.874C305.191 134.748 305.244 134.338 305.08 134.223C303.536 133.146 302.668 134.667 301.228 133.746C300.813 135.093 299.011 135.228 298.526 136.429L296.672 135.68L295.923 137.534L293.141 136.41C292.78 137.623 291.768 137.673 290.725 137.052C290.367 137.856 289.758 138.737 289.231 139.414C289.052 139.644 288.102 139.74 287.929 139.967C287.415 140.638 286.643 143.777 286.337 143.907L285.365 142.975L284.389 143.39C285.032 144.588 284.144 145.184 282.989 145.521L282.703 147.562L281.772 148.534L283.439 149.747C282.905 150.879 282.764 152.871 284.169 153.277L283.795 154.205L286.763 154.865L287.138 153.938L289.456 154.874L289.924 153.715L291.596 153.582L291.971 152.655C292.737 153.881 300.315 150.326 300.615 149.945C301.868 148.338 301.815 149.098 302.942 148.189C303.583 147.672 305.065 147.446 305.733 146.621L305.831 145.043C307.31 144.492 309.001 144.873 309.367 142.966L310.294 143.34L310.762 142.181L312.434 142.048L312.902 140.889L313.879 140.474L315.038 140.943L315.042 139.596L316.25 139.276C316.444 140.438 316.959 141.045 316.147 142.2C315.416 143.236 315.207 142.499 315.304 144.286C315.366 145.454 312.716 146.503 312.692 148.084C314.176 148.587 315.2 148.068 316.316 147.122L316.232 144.661L317.953 143.738L318.648 144.019C318.577 141.871 321.374 141.971 321.907 141.292C322.109 141.033 322.08 140.596 322.282 140.364C322.526 140.08 323.357 139.958 323.401 138.929L324.792 139.491C324.962 137.921 325.924 138.331 326.468 138.011ZM324.891 191.301C323.704 190.622 321.968 191.5 321.414 189.896L320.95 189.709C320.474 190.206 319.675 189.674 319.604 189.704C319.48 189.756 319.531 190.23 319.323 190.399C318.956 190.693 318.146 190.803 317.696 191.09L317.232 190.903C316.941 189.847 315.597 189.811 314.638 189.315L312.917 190.238C314.236 190.722 315.242 190.902 315.556 192.382L316.019 192.57C317.045 192.246 318.269 192.125 319.175 192.766C319.335 192.879 319.286 193.28 319.452 193.417C319.69 193.616 320.12 193.59 320.379 193.792C320.527 193.906 321.208 195.556 321.671 195.932L323.018 195.937L323.392 195.009C324.327 195.231 324.711 196.136 324.221 196.962L325.148 197.337L325.282 199.008C326.391 199.694 328.539 199.996 329.454 200.694C329.743 200.913 329.988 202.415 330.283 202.647C330.742 203.005 331.405 202.793 332.601 203.583C333.219 203.989 334.123 203.848 334.268 204.796L336.497 204.618L337.977 206.295L340.255 205.328C339.512 204.176 340.81 204.247 341.098 203.241L340.17 202.867L340.367 199.711C339.548 199.843 338.832 199.84 338.094 199.331C337.355 198.823 336.195 196.116 335.321 195.515C334.189 194.739 331.451 193.682 330.311 194.569C329.901 192.78 328.314 192.263 327.574 194.003L324.516 192.228L324.891 191.301Z" fill="#284655"/>
<path d="M341.182 232.396C341.727 232.395 342.805 233.198 343.5 233.333L342.938 234.724L344.748 234.915L345.804 238.308C345.402 239.305 344.738 240.212 345.469 241.139C345.637 241.352 346.112 241.296 346.165 241.42L345.603 242.811L347.181 242.909L346.806 243.836L348.197 244.398L347.635 245.789L350.693 247.563L350.131 248.954L352.725 250.542C352.42 252.004 353.527 254.883 355.123 255.285C354.394 255.875 355.132 258.346 355.622 258.722C356.317 259.257 357.656 259.868 358.448 260.403C358.068 260.983 357.844 262.112 358.394 262.539C358.648 262.738 359.068 262.714 359.321 262.913C360.556 263.876 359.224 268.013 361.112 268.49L360.738 269.418L363.056 270.354L362.119 272.672L364.018 273.979C364.556 274.395 363.723 275.31 365.587 276.769C365.948 277.05 365.822 278.337 366.835 278.352L365.809 279.556L367.664 280.305L367.373 283.693C366.532 284 365.859 284.639 365.051 284.103C364.354 284.84 365.372 285.656 365.322 286.1C365.222 286.949 364.319 288.17 364.105 289.113L363.178 288.738L362.054 291.52L361.127 291.145L361.122 292.492L360.19 293.463L361.117 293.838L359.989 297.966C358.842 298.376 358.382 300.008 357.751 300.836C357.578 301.063 356.621 301.162 356.449 301.389C356.116 301.826 356.03 302.719 355.7 303.243C355.592 303.416 354.814 303.366 354.768 304.215L356.341 305.66C353.976 307.19 352.494 309.148 351.677 311.864L350.006 311.998C349.771 312.097 349.362 314.046 348.975 314.547C348.829 314.736 345.587 316.101 344.883 316.669C344.674 316.838 344.725 317.312 344.602 317.364C344.459 317.425 342.237 317.158 341.677 317.261L338.566 317.622L337.175 317.06L337.737 315.669L336.346 315.107L336.908 313.716C337.091 312.21 338.769 312.942 338.861 312.888C338.989 312.81 338.935 312.357 339.142 312.192C340.413 311.18 344.115 311.214 343.145 308.956L343.333 308.493C345.417 308.192 344.815 304.998 347.055 305.952L346.873 305.07L347.898 303.866L347.533 302.101L349.347 300.947L350.506 301.415C350.803 300.413 351.484 299.383 351.724 298.401C351.77 298.221 351.414 297.953 351.448 297.751C351.732 295.94 353.004 296.206 353.311 295.807C354.741 293.937 353.487 290.982 356.023 290.431L355.746 289.78L356.584 289.041L357.151 286.304C357.652 286.652 358.416 286.55 358.823 286.17C359.729 285.328 358.468 285.407 358.083 285.332C357.992 285.317 357.858 285.489 357.757 285.47C356.25 285.211 353.661 283.863 353.068 285.732L351.677 285.17L352.052 284.243L350.661 283.681C350.409 285.332 348.381 285.559 347.772 286.828L342.485 285.231L341.085 287.362L337.563 285.4L335.976 287.994C336.086 288.19 338.034 288.373 337.086 289.252C336.939 289.387 333.698 290.763 333.506 290.771C332.236 290.83 333.642 289.5 332.721 289.376L332.115 290.209C330.902 289.622 330.137 289.232 328.959 290.013L327.755 288.987C326.719 288.881 325.964 290.323 325.847 290.373C325.723 290.426 325.418 290.06 325.152 290.092C323.704 290.273 322.799 292.404 320.738 291.005L320.364 291.933L316.931 291.085L316.088 293.171L312.696 294.227L310.984 292.457L309.209 295.515C307.549 295.26 307.141 293.747 305.875 293.089C305.319 294.919 303.401 293.475 301.925 294.19L300.258 292.977C298.783 293.692 296.865 292.248 296.309 294.078L293.063 292.766L292.689 293.694L289.631 291.919C289.507 291.971 289.559 292.445 289.35 292.614C288.303 293.458 286.958 293.142 288.226 295.396L287.205 295.253L286.447 299.8L283.754 299.791C283.413 300.435 283.272 301.278 282.911 301.877C282.668 302.28 281.066 303.908 280.86 304.284C280.284 305.324 280.002 306.676 279.456 307.761L281.123 308.974C281.112 309.988 279.812 309.868 279.54 310.222C279.268 310.575 279.242 311.239 278.978 311.612C278.861 311.781 278.42 311.726 278.327 311.889C277.932 312.559 277.766 313.49 277.391 314.207L278.5 315.464L277.288 317.131C278.053 317.812 278.863 316.808 279.285 316.859C280.225 316.975 281.597 318.063 282.53 318.17C283.406 318.271 285.983 316.632 286.943 317.257L287.693 315.403C288.367 315.562 289.172 316.173 289.779 316.246C289.949 316.266 291.64 315.509 292.195 315.604C292.841 315.714 297.309 317.509 297.758 317.852C298.018 318.049 298.018 319.078 298.543 319.247L300.041 315.538L299.114 315.164L300.425 311.919L299.034 311.357C299.021 310.375 300.116 310.014 300.153 309.922C300.215 309.769 299.834 309.458 299.877 309.271C300.058 308.449 300.667 307.568 300.907 306.721C302.581 307.769 304.317 307.225 306.149 307.76C306.123 308.72 307.356 309.246 307.397 309.343C307.45 309.467 307.084 309.772 307.116 310.039C307.251 311.08 308.983 311.639 308.128 312.874C307.831 314.237 307.49 314.293 306.496 314.911C304.329 316.257 305.74 316.703 305.234 317.367C305.108 317.532 304.696 317.484 304.583 317.643C304.118 318.313 303.584 319.957 304.248 320.474C304.519 320.686 304.982 320.646 305.176 320.849C305.932 321.645 306.168 322.716 307.583 322.9C308.022 322.959 309.355 321.836 310.507 323.003C310.483 323.155 310.36 323.299 310.32 323.466C310.081 324.443 309.971 325.062 311.148 325.419L311.247 323.841C311.576 323.828 312.79 323.078 313.476 323.663L311.612 325.606C313.326 325.582 313.886 328.52 314.34 328.865C315.081 329.434 316.763 329.607 317.585 330.176C317.708 330.259 318.769 331.744 318.739 331.991L318.552 332.455C317.598 332.587 317.754 333.534 317.339 334.122C317.224 334.286 316.797 334.237 316.688 334.398C316.4 334.831 316.303 335.526 316.033 336.021C317.71 336.019 317.827 337.679 318.208 337.978C318.474 338.188 318.926 338.149 319.135 338.352C319.383 338.593 319.244 339.216 320.107 339.284L318.885 343.644L321.015 345.044L320.079 347.362C319.1 346.794 318.131 347.724 317.105 348.048L317.101 349.394C316.274 348.904 315.369 349.288 315.148 350.223L313.249 348.917L311.992 350.027C310.276 349.749 310.451 349.021 309.817 348.069C309.735 347.95 309.422 347.991 309.353 347.882C308.741 346.901 308.748 345.308 307.552 344.997L308.676 342.216L307.285 341.654L308.035 339.8C306.97 339.591 307.001 338.406 306.51 337.566C306.44 337.446 306.107 337.484 306.047 337.379C305.574 336.519 304.908 335.22 305.361 334.405L303.506 333.656L304.256 331.802C302.217 331.522 303.155 329.906 302.455 328.917C301.247 327.221 301.439 327.148 300.935 325.337C300.621 324.207 299.783 323.157 300.205 321.806L301.137 320.835L299.282 320.085L298.533 321.94L297.142 321.378L296.768 322.305L295.841 321.93L295.466 322.858C294.265 322.373 292.917 323.575 291.659 322.937L291.097 324.328L290.17 323.953L290.072 325.532L288.4 325.665L287.932 326.824C287.07 326.767 287.165 326.051 286.96 325.892C286.415 325.478 286.048 326.014 285.845 325.981C285.204 325.873 284.448 325.314 283.759 325.138L283.385 326.065L282.413 325.134L281.156 326.243C279.311 325.617 277.297 325.677 275.262 325.48C274.971 325.454 274.244 326.066 273.961 326.033C273.446 325.971 270.781 324.867 270.252 324.534C270.093 324.433 270.141 324.021 269.976 323.883C269.738 323.685 269.307 323.71 269.048 323.509C268.58 323.147 268.529 321.018 268.92 320.491L268.042 319.327L267.061 321.088C266.015 320.833 264.946 321.075 263.86 320.334C263.708 320.23 263.07 319.071 262.844 318.845C262.636 318.637 262.195 318.675 262.148 318.564C262.096 318.44 262.466 318.137 262.429 317.869C262.392 317.573 262.097 317.222 262.015 316.892C259.127 316.098 260.78 315.051 260.959 313.5C261.035 312.845 259.397 311.305 260.786 309.924C258.635 309.508 258.209 307.627 258.664 305.832L257.273 305.27L257.648 304.343L255.651 304.614L254.871 301.873L255.709 301.133L253.864 297.691L254.15 295.649C255.224 295.447 254.272 294.906 254.806 294.027L253.459 294.022L253.183 293.371L251.186 293.643L251.748 292.252L250.357 291.69C251.004 290.328 249.181 289.328 250.277 287.883C249.473 287.525 248.592 286.916 247.915 286.389C247.164 285.805 248.211 284.082 247.461 283.509C246.801 283.006 245.915 283.316 245.655 281.971C245.35 280.392 245.053 278.551 244.929 277.094L242.523 275.043L242.897 274.116C241.886 273.896 241.517 272.755 242.162 271.931C242.296 271.759 242.751 271.808 242.813 271.655C242.875 271.502 242.493 271.192 242.537 271.004C242.995 268.935 244.408 267.64 245.154 265.86L246.081 266.235L246.643 264.844L245.533 263.587L247.397 261.643C248.249 260.564 246.745 259.573 247.594 258.487C247.874 258.126 248.853 258.014 249.265 258.354L250.113 254.921L249.186 254.547C249.661 253.331 251.149 253.598 251.33 251.908L252.815 252.238L252.075 251.4C252.073 249.722 253.733 249.605 254.032 249.225C254.346 248.823 254.209 248.12 255.058 248.021L254.786 246.024L255.713 246.399C257.798 244.296 258.825 241.487 260.382 238.848C260.481 238.683 260.947 238.731 261.033 238.571C261.821 237.089 262.247 235.233 263 233.704C263.442 233.796 264.087 234.283 264.39 234.266L265.313 235.986L265.58 239.33C264.146 241.01 263.737 243.957 262.677 246.516C261.951 248.272 260.985 250.141 260.71 251.383C260.512 252.274 259.847 253.24 259.586 254.165L260.696 255.422L257.811 257.223L258.921 258.48C257.567 259.27 257.624 261.024 256.866 262.233C256.772 262.384 255.552 263.509 255.189 263.713L254.524 268.028L253.597 267.654C253.361 269.359 250.835 269.072 251.729 270.943L250.703 272.147C250.932 273.248 251.092 274.455 251.759 275.539C252.047 276.001 252.922 277.093 253.471 277.309L253.096 278.236L254.951 278.986C255.003 279.109 254.632 279.413 254.67 279.681C254.862 281.113 256.659 280.749 256.889 282.196L255.676 283.863L256.786 285.12L256.318 286.279L258.212 288.932C259.287 288.126 261.064 289.814 260.945 290.845C260.892 291.282 260.435 291.798 260.383 292.235C260.349 292.518 260.969 293.254 260.935 293.537C260.883 293.974 260.426 294.491 260.373 294.928C260.344 295.202 262.009 297.18 262.031 298.833C262.037 299.127 261.7 299.412 261.75 299.529L264.532 300.653C263.822 301.903 264.539 303.276 264.843 304.553L266.189 304.558C265.506 306.088 267.724 307.459 266.545 309.016C268.648 310.032 267.474 311.295 267.182 312.778C267.144 312.968 267.493 313.238 267.459 313.429C267.363 313.946 266.952 314.508 266.803 315.052L268.194 315.614C268.516 313.749 268.203 312.08 269.233 310.371C268.437 309.112 270.783 308.884 269.893 307.403L270.081 306.939C270.922 306.632 271.596 305.993 272.403 306.529C272.96 305.886 272.366 305.382 272.408 305.183C272.535 304.576 273.093 303.874 273.157 303.329C273.24 302.618 271.338 301.612 272.052 300.725C272.299 300.42 275.2 299.247 275.677 299.763L276.43 296.562L279.32 293.415C278.712 291.703 280.089 290.377 281.741 291.427L282.677 289.109L280.216 289.194C280.106 288.238 279.106 288.405 278.549 287.981C278.045 287.599 278.126 285.518 276.561 285.56L277.123 284.169L274.716 282.118L275.185 280.959L274.77 279.983L273.611 279.515C274.688 278.105 273.834 277.561 273.714 276.59C273.682 276.324 274.048 276.019 273.995 275.895C273.943 275.771 273.469 275.822 273.3 275.614C272.822 275.022 271.624 273.222 271.267 272.636C269.677 270.019 271.015 269.978 271.237 268.04C271.382 266.799 268.177 264.161 269.12 262.601L267.729 262.039L268.291 260.648L267.364 260.273L268.113 258.419L267.186 258.044L267.748 256.654C266.093 256.346 266.05 254.598 265.346 253.256L266.184 252.516C265.709 251.17 264.655 250.081 265.547 248.754L264.156 248.192L264.531 247.265L265.383 242.486C265.931 242.292 266.345 242.12 266.779 241.702L267.474 241.983C267.723 242.18 267.567 242.327 267.519 242.54C267.372 243.209 267.139 243.465 267.652 244.212C268.175 244.466 268.769 244.598 269.275 244.867C269.891 245.197 270.22 245.276 270.384 246.124C270.431 246.37 270.237 247.478 270.286 247.703C270.541 248.846 271.382 250.756 271.806 251.282C273.235 253.057 270.716 255.113 273.508 255.745C273.56 255.869 273.19 256.172 273.227 256.441C273.345 257.324 273.984 257.663 274.8 257.885L274.426 258.812L275.585 259.281C275.786 259.437 276.108 261.175 276.088 261.371C275.986 262.252 274.843 263.932 276.868 264.113C277.08 264.134 277.334 263.8 277.519 263.837C280.651 264.493 280.695 266.026 279.127 268.531C279.026 268.69 278.613 268.642 278.476 268.808C277.882 269.532 278.605 270.704 277.91 271.545C279.285 271.933 280.149 270.848 281.53 271.929C280.604 273.113 282.3 273.745 282.358 273.881C282.405 273.992 282.077 274.285 282.078 274.577C282.09 275.919 281.839 275.968 281.605 277.082C281.562 277.28 282.156 277.785 281.6 278.428C282.221 278.852 283.989 280.003 283.913 280.711C283.658 283.132 285.06 283.078 285.196 285.543C285.227 286.068 285.649 286.546 285.004 287.353L286.44 288.473C287.178 288.34 289.23 287.038 289.694 287.091C290.373 287.171 291.282 287.9 292.012 288.028C292.742 288.155 295.654 287.45 296.006 287.484C298.076 287.7 298.395 286.912 300.464 287.128C301.157 287.203 301.779 286.236 301.909 285.555L304.691 286.679L305.065 285.752L308.221 285.948L308.31 287.063L310.174 285.119L313.419 286.431C313.689 285.936 313.786 285.241 314.075 284.808C314.181 284.651 314.589 284.697 314.726 284.532C315.32 283.807 314.597 282.635 315.292 281.795L317.147 282.544L317.521 281.617C318.757 282.094 318.43 283.558 320.16 283.761L322.3 282.469L323.922 283.124L324.297 282.197C325.213 282.88 326.092 281.758 326.945 281.649C327.605 281.565 327.428 282.136 328.572 280.959C328.775 280.749 328.737 280.297 328.947 280.031C329.336 279.536 331.983 278.777 332.384 279.533C332.003 280.036 331.866 280.801 332.705 280.741C333.617 280.672 334.687 279.827 334.8 278.891L338.277 280.296L339.254 279.881C339.239 278.689 341.98 276.685 342.932 276.784C345.327 277.034 347.077 275.908 347.577 275.964C348.381 276.057 349.497 276.939 350.359 277.088C351.357 277.26 353.218 276.404 354.674 277.753L355.048 276.826L356.439 277.388C357.229 276.154 356.377 276.527 356.118 276.18C355.734 275.663 355.628 275.043 355.985 274.508C354.067 274.116 353.334 272.833 352.468 271.199L353.775 269.301L351.644 267.901L352.393 266.046L349.799 264.459C350.205 262.892 350.054 261.45 348.186 261.111L347.771 260.134L348.24 258.975L346.572 257.762L347.134 256.372C344.928 255.933 345.23 253.17 343.248 252.644L343.997 250.79C342.791 250.518 341.844 249.78 341.684 248.507C341.651 248.241 342.017 247.935 341.965 247.812C341.912 247.688 341.438 247.739 341.269 247.531C340.654 246.77 340.856 245.778 339.094 245.573C339.746 244.413 339.841 243.098 339.246 241.86L336.42 240.179L336.425 238.833L337.638 237.166C337.299 236.695 336.964 235.109 336.671 234.887C336.233 234.555 335.341 234.469 334.816 234.138C334.653 234.035 334.702 233.58 334.54 233.487C332.357 232.271 330.285 232.82 328.513 231.052L325.633 231.507C325.238 231.39 324.86 231.124 324.474 231.038L326.427 230.21L326.802 229.282C327.628 229.773 328.533 229.389 328.754 228.454L340.112 233.042C340.451 233.098 340.507 232.679 340.531 232.673C341.058 232.529 341.144 232.397 341.182 232.396Z" fill="#284655"/>
<path d="M270.646 197.426C270.369 198.9 269.528 198.097 268.649 197.698C268.271 197.524 267.866 197.393 267.49 197.23L267.864 196.302C266.046 196.318 265.995 195.963 264.851 195.085C264.306 194.671 263.939 195.207 263.736 195.174C261.172 194.753 260.534 192.462 259.11 190.608L256.605 190.135L255.588 188.646C251.731 187.53 249.015 185.015 244.926 184.338C241.75 183.816 236.975 180.366 233.8 179.843C231.908 179.532 230.685 177.835 228.325 178.71C225.39 176.672 222.459 174.69 219.527 172.459C219.123 172.15 218.138 170.382 217.77 170.131C216.945 169.571 215.461 169.36 214.525 168.82L214.392 167.149C211.567 166.519 210.532 164.796 211.531 162.218L208.705 160.537L208.571 158.865L207.644 158.49C208.243 157.395 208.053 156.051 207.471 154.915L207.658 154.451C208.687 154.253 208.574 153.091 209.058 152.321C209.162 152.158 209.616 152.207 209.709 152.044C210.597 150.446 210.519 148.198 212.509 147.783L212.514 146.437C214.48 147.458 215.656 146.094 216.143 144.128L220.779 146.001L221.153 145.074L222.963 145.266L223.24 145.917C224.392 145.174 224.32 146.472 225.326 146.76L224.951 147.687C226.615 148.882 229.019 148.457 230.47 149.377C230.624 149.477 230.91 150.504 231.905 150.497L232.28 149.569C234.55 149.942 234.411 152.302 235.747 153.667L236.211 153.854C237.858 152.794 238.181 153.782 239.412 154.608L239.037 155.535L240.428 156.097C239.699 156.687 240.437 159.158 240.926 159.534C241.486 159.965 243.829 160.491 243.94 160.752C243.489 161.561 243.376 162.093 243.886 162.887L245.42 162.428L244.759 165.397C246.139 166.067 247.889 165.178 248.374 167.127L247.906 168.286L248.833 168.661C247.429 170.628 250.401 171.575 249.653 173.306C250.729 173.272 251.38 174.516 251.552 174.612C252.299 175.044 253.311 175.237 254.101 175.642L253.352 177.497C254.202 177.543 254.152 178.321 254.324 178.429C254.848 178.759 255.741 178.845 256.178 179.178C256.532 179.45 256.411 180.75 257.426 180.761L256.864 182.151L262.704 185.05L262.837 186.722C264.921 187.623 266.875 187.712 267.375 190.173C268.945 189.917 268.79 190.621 269.229 190.922C269.77 191.292 270.697 191.413 271.315 191.765L271.681 193.53C271.601 193.633 271.555 193.841 271.493 193.994C271.144 194.926 271.517 195.217 271.489 195.34C271.347 196.011 270.841 196.729 270.646 197.426ZM225.021 154.187C225.587 152.948 224.611 151.465 223.221 151.302C222.716 151.244 221.177 152.331 219.833 151.012C219.658 151.966 218.73 152.006 217.925 152.398L216.445 150.721L214.818 151.412C213.711 153.964 212.149 156.444 215.633 157.404C215.341 158.472 215.256 160.137 216.551 160.471L216.265 162.513C218.881 163.392 218.962 165.862 220.936 167.635C221.427 168.076 222.412 169.175 222.879 169.499C223.594 169.998 224.834 169.852 225.01 170.899L226.775 170.534C226.884 172.001 229.647 171.408 229.789 171.751L229.646 172.772L230.948 172.22L233.167 174.734C235.626 174.401 238.096 176.203 240.496 176.617C240.667 176.648 242.09 176.22 242.261 176.251C244.454 176.63 244.183 177.928 244.668 178.302C245.191 178.703 247.643 179.575 247.962 178.824C247.674 176.95 245.978 177.931 245.506 177.563C245.527 176.309 242.925 174.648 242.779 174.303C242.726 174.18 243.092 173.875 243.06 173.608C242.99 173.046 240.556 168.272 240.248 167.888C240.078 167.679 239.605 167.731 239.552 167.607L239.927 166.68L237.145 165.556L237.155 162.864C235.504 162.612 235.277 160.584 234.008 159.974L234.382 159.047L233.455 158.673L233.081 159.6L230.763 158.663L231.235 156.158C230.386 156.111 230.431 155.332 230.264 155.226C229.558 154.784 228.483 154.615 227.714 154.196L227.152 155.587L225.021 154.187Z" fill="#284655"/>
<path d="M330.557 324.093L332.002 322.52L334.32 323.456C334.608 323.945 335.688 326.09 335.889 326.247C336.142 326.447 336.562 326.422 336.816 326.622C336.914 326.699 337.791 328.774 337.783 328.9C337.759 329.252 336.836 330.443 338.01 330.34C338.725 330.278 340.131 328.921 340.199 328.258L339.089 327.001L339.37 326.306C339.725 326.201 339.9 326.115 340.115 325.798C340.87 326.518 341.453 327.411 342.103 328.218C342.753 329.026 343.385 330.624 343.622 331.798C343.671 332.039 343.475 333.125 343.524 333.376C343.582 333.686 343.847 334.019 343.938 334.353L347.415 335.758C346.051 337.746 347.03 338.207 347.401 339.796C347.44 339.968 347.119 340.723 347.629 341.236L349.251 341.892L348.876 342.819L350.267 343.381L349.893 344.308C351.563 344.778 350.477 346.038 350.904 347.144L350.717 347.607C349.476 347.796 349.519 348.477 349.04 349.087C348.758 349.453 347.261 349.42 347.27 350.799L343.695 350.972C343.596 350.123 342.894 350.26 342.492 349.946C342.394 349.869 341.555 347.912 341.525 347.668C341.331 346.118 340.613 346.615 340.419 345.065C340.382 344.758 339.051 341.605 338.9 341.485C336.732 339.789 336.862 337.96 335.575 336.366C334.721 335.304 335.377 334.695 334.051 334.133L334.336 332.091C333.011 331.701 331.902 331.162 332.58 329.764L331.653 329.389L332.313 326.42C331.252 325.965 330.825 325.193 330.557 324.093Z" fill="#284655"/>
<path d="M329.893 301.715L331.837 303.578C330.658 305.135 332.876 306.506 332.193 308.036L333.584 308.598C332.849 310.043 332.536 310.898 333.431 312.312L334.778 312.316L336.908 313.716L336.346 315.107L337.737 315.669L337.175 317.06L338.566 317.622L338.191 318.549L337.264 318.174L336.89 319.101L337.817 319.476L338.191 318.549C338.93 318.524 340.443 322.052 340.406 322.41C340.374 322.731 340.064 323.016 340.032 323.337C339.98 323.839 341.034 324.432 340.116 325.798C339.901 326.115 339.727 326.201 339.372 326.306L339.091 327.001L340.2 328.258C340.132 328.921 338.726 330.278 338.011 330.34C336.837 330.443 337.761 329.252 337.784 328.9C337.792 328.774 336.915 326.699 336.817 326.622C336.563 326.422 336.144 326.447 335.89 326.247C335.689 326.091 334.609 323.945 334.321 323.456L332.003 322.52L330.559 324.093C330.559 324.093 330.136 324.019 330.189 323.674C330.311 322.904 331.015 321.948 331.219 321.124C330.226 320.831 329.635 319.438 330.114 318.521L328.723 317.959L329.196 315.454C328.357 315.287 328.013 314.857 327.529 314.241C327.482 314.184 327.878 313.951 326.789 313.403L326.428 310.291L327.735 308.392L326.808 308.018C327.367 307.127 326.572 306.305 326.26 305.369C327.438 305.269 327.886 301.799 328.315 301.616L329.893 301.715Z" fill="#284655"/>
<path d="M326.787 313.403C327.876 313.951 327.48 314.184 327.527 314.241L326.961 316.978C325.414 317.804 325.384 318.757 325.186 320.036C325.139 320.34 324.799 321.195 324.624 321.427C324.478 321.615 322.744 321.956 322.533 321.93C322.096 321.877 321.58 321.421 321.142 321.368C320.859 321.335 320.13 321.951 319.841 321.921C318.852 321.818 318.812 320.809 317.942 320.614C317.308 322.37 315.053 322.332 314.032 323.618L313.475 323.663C312.789 323.078 311.574 323.828 311.246 323.841C311.042 323.85 310.627 323.542 310.318 323.466C310.359 323.299 310.482 323.155 310.506 323.002C310.656 321.963 310.355 321.092 310.421 320.542C310.474 320.105 310.931 319.588 310.983 319.151C311.061 318.492 309.402 316.937 308.67 316.868L309.981 313.623C311.442 313.544 310.532 313.662 311.14 314.091C311.551 314.381 312.276 314.469 312.763 314.747L313.886 311.965L314.814 312.34L315.376 310.949C315.58 311.07 315.91 311.068 316.071 311.23C317.316 312.461 317.561 311.519 318.389 312.167C318.755 312.449 318.722 313.946 320.1 313.937C320.048 313.279 322.279 312.228 322.66 312.274C323.092 312.325 323.598 312.767 324.05 312.836C324.253 312.869 324.518 312.518 324.701 312.56C325.289 312.695 326.215 313.112 326.787 313.403Z" fill="#284655"/>
<path d="M328.765 225.761L328.711 227.896L340.533 232.672C340.533 232.672 340.452 233.098 340.113 233.042L328.755 228.453C328.534 229.389 327.629 229.773 326.803 229.282L326.428 230.209L324.475 231.038C323.165 230.746 322.818 231.35 322.478 231.31C321.473 231.195 320.895 230.384 319.741 230.743C320.804 228.821 318.29 229.785 317.842 229.437L316.693 226.276L317.067 225.349C318.328 226.619 321.848 224.261 322.595 224.347C323.032 224.399 323.549 224.856 323.986 224.909C324.212 224.935 325.56 224.509 325.751 224.543C326.623 224.696 327.809 225.445 328.765 225.761Z" fill="#284655"/>
<path d="M332.383 226.145C334.155 226.726 335.438 227.913 336.556 227.831C336.689 227.82 338.116 228.893 338.686 229.231L338.312 230.158L339.007 230.439L339.426 230.069C339.757 230.424 341.175 230.625 341.744 231.005L341.182 232.396C341.144 232.397 341.058 232.529 340.531 232.672L328.71 227.896L328.764 225.761C330.429 226.31 330.718 225.596 332.383 226.145Z" fill="#284655"/>
<path d="M268.749 235.487C268.86 237.484 267.888 237.992 267.621 239.615C267.492 240.388 267.843 240.681 266.778 241.701C266.345 242.12 265.93 242.292 265.383 242.486L264.53 247.264L262.676 246.515C263.737 243.956 264.145 241.01 265.579 239.33L265.312 235.986L264.39 234.265C265.084 234.228 265.517 233.917 266.663 234.644C267.053 234.894 267.18 236.061 268.749 235.487Z" fill="#284655"/>
<path d="M271.494 193.994C272.434 194.471 273.61 194.709 274.507 195.211C274.669 195.304 274.618 195.752 274.784 195.862C275.222 196.152 275.911 196.248 276.406 196.518L274.72 200.69L271.199 198.728L270.646 197.426C270.842 196.729 271.348 196.011 271.489 195.34C271.518 195.217 271.144 194.926 271.494 193.994Z" fill="#284655"/>
<path d="M336.555 227.83C335.438 227.913 334.155 226.725 332.383 226.145L332.758 225.217C334.243 225.785 335.527 226.185 336.511 227.273L336.555 227.83Z" fill="#284655"/>
<path d="M339.427 230.069L339.008 230.439L338.313 230.158L338.688 229.23C339.737 229.849 339.383 230.018 339.427 230.069Z" fill="#284655"/>
<path d="M316.624 138.349L318.015 138.91C318.852 137.733 318.199 136.332 318.956 135.246C319.087 135.056 319.839 135.129 319.888 134.275L308.762 129.779L308.949 129.316L321.002 134.186L321.658 132.563L323.66 130.945L325.514 131.694C325.991 132.944 326.862 133.884 326.013 135.131L326.94 135.506C326.993 135.603 326.73 135.826 326.753 135.97L325.544 136.29L325.264 136.986L326.654 137.548C326.579 137.706 326.538 137.97 326.467 138.011C325.923 138.331 324.961 137.921 324.791 139.491L323.4 138.929C323.356 139.958 322.525 140.08 322.281 140.364C322.079 140.596 322.108 141.033 321.906 141.292C321.373 141.971 318.576 141.871 318.647 144.019L317.952 143.738L316.231 144.661L315.303 144.286C315.206 142.5 315.415 143.237 316.146 142.2C316.958 141.045 316.443 140.438 316.249 139.276L316.624 138.349Z" fill="#284655"/>
<path d="M269.836 243.476L269.275 244.867C268.769 244.598 268.175 244.466 267.652 244.212C267.139 243.465 267.372 243.209 267.518 242.54C268.299 242.796 269.054 243.252 269.836 243.476Z" fill="#284655"/>
<path d="M309.982 313.623L308.671 316.868C309.404 316.938 311.062 318.492 310.985 319.151C310.932 319.588 310.475 320.105 310.423 320.542C310.357 321.092 310.657 321.963 310.507 323.003C309.355 321.836 308.022 322.959 307.583 322.9C306.168 322.716 305.932 321.645 305.176 320.849C304.982 320.646 304.519 320.686 304.248 320.474C303.584 319.957 304.119 318.313 304.583 317.643C304.696 317.484 305.108 317.532 305.234 317.367C305.74 316.703 304.329 316.257 306.496 314.911C307.49 314.293 307.831 314.237 308.128 312.874C308.688 312.982 309.585 313.646 309.982 313.623Z" fill="#284655"/>
<path d="M329.893 301.715L330.268 300.787L332.078 300.979C332.268 301.056 332.605 302.557 332.907 302.932C333.076 303.141 333.549 303.089 333.602 303.213C333.668 303.369 333.859 305.754 333.963 306.325C334.139 307.302 335.562 308.092 335.344 309.579L334.777 312.316L333.431 312.311C332.535 310.898 332.848 310.043 333.583 308.598L332.192 308.036C332.876 306.506 330.658 305.135 331.837 303.578L329.893 301.715Z" fill="#284655"/>
<path d="M338.191 318.549L337.264 318.174L336.889 319.102L337.816 319.476L338.191 318.549Z" fill="#284655"/>
<path d="M321.974 255.913L320.859 256.002C320.626 256.846 320.002 257.737 319.829 258.552C319.789 258.746 320.381 259.255 319.824 259.898L320.752 260.273L319.445 262.171L319.904 263.705C318.781 263.122 318.042 263.816 317.764 264.997L316.837 264.623C316.665 265.341 314.754 266.828 314.091 266.749C312.927 266.613 311.162 265.269 309.918 265.063C309.716 265.03 309.348 265.566 308.804 265.152C308.639 265.026 308.687 264.614 308.527 264.501C307.823 264.017 306.55 263.843 305.746 263.377L305.434 259.477L304.601 258.87C305.643 258.693 305.505 257.461 306.001 256.74C306.107 256.583 306.493 256.631 306.652 256.463C307.262 255.82 307.749 255.057 308.654 254.845L309.625 255.777C310.078 254.979 309.404 254.27 310.005 253.504C310.285 253.143 311.572 253.269 311.587 252.256L312.978 252.818L313.353 251.891C314.938 253.092 316.161 251.494 317.668 252.555C317.827 252.668 317.781 253.076 317.944 253.206C318.698 253.797 319.809 254.278 320.538 254.794C321.152 255.225 321.268 255.725 321.974 255.913ZM320.021 256.742C319.438 256.21 318.752 256.774 318.675 256.737C318.561 256.686 318.52 255.839 317.703 255.805L317.329 256.732L314.36 256.072C314.341 257.186 312.478 257.14 312.126 257.597C311.864 257.938 311.83 258.609 311.564 258.987C311.451 259.147 311.05 259.098 310.913 259.264C310.523 259.737 310.515 260.823 310.953 261.167C311.743 261.788 312.153 261.361 312.857 261.127C313.287 260.983 315.369 260.142 315.46 260.022C315.846 259.52 316.256 257.572 316.49 257.472L317.837 257.477L318.621 258.872L320.021 256.742Z" fill="#284655"/>
<path d="M326.655 137.548L325.264 136.986L325.545 136.291L326.753 135.97C326.833 136.439 327.237 136.348 326.655 137.548Z" fill="#284655"/>
</svg>
