<svg width="424" height="398" viewBox="0 0 424 398" fill="none" xmlns="http://www.w3.org/2000/svg">
<path d="M229.343 121.678L228.59 121.885L229.452 126.502L228.7 126.708C229.624 127.511 229.606 128.847 230.005 129.991L229.149 129.821L229.355 130.574L228.227 130.883L229.082 131.053C229.379 131.797 229.426 132.807 229.753 133.498C229.82 133.638 230.428 133.673 230.387 134.336L229.447 134.593L228.867 136.168L229.708 137.758L228.579 138.067L229.213 138.905L228.512 139.299L229.198 140.324L228.446 140.531C229.029 141.73 227.773 142.265 228.467 143.559C228.847 144.264 228.998 144.271 228.983 145.44C228.975 146.044 227.604 146.679 228.695 147.339L227.943 147.545L227.551 149.068L228.237 150.094L227.964 150.573L228.804 152.163L227.403 152.952C227.495 153.509 227.812 154.105 227.867 154.644C227.915 155.1 227.757 155.896 228.007 156.629C228.725 156.961 229.074 158.233 228.626 158.886L229.157 159.347C228.26 159.617 227.368 159.566 227.054 160.53L227.792 161.744L227.039 161.95L226.921 162.994C228.12 163.692 227.233 165.088 227.85 166.379C227.917 166.523 228.525 166.554 228.484 167.217C229.038 167.129 229.647 166.797 230.177 166.752C230.291 166.741 230.736 167.242 231.408 166.819C233.205 165.687 233.755 166.438 234.794 165.891C234.932 165.817 235.563 164.919 235.716 164.829C237.488 163.781 239.56 163.431 241.359 163.281C241.915 161.737 243.868 161.958 245.291 161.394L245.546 160.11C246.81 160.104 249.639 157.956 250.418 157.965C250.796 157.971 251.654 158.945 252.694 158.15C252.303 157.109 253.355 156.505 253.871 155.805L255.582 156.145C255.929 155.997 256.407 155.999 256.71 155.835C257.926 155.178 260.384 154.451 261.977 154.391C263.178 154.345 265.043 152.15 266.764 152.673C266.906 152.586 266.905 152.258 267.037 152.194C268.231 151.62 269.616 152.203 270.902 151.538L272.307 152.973C271.624 153.594 272.988 155.958 272.808 156.274L271.303 156.687L271.834 157.148C271.463 157.448 271.701 157.888 271.664 158.003C271.449 158.694 271.001 158.873 270.314 158.98L270.233 161.632C270.934 161.905 270.423 163.137 271.125 163.41L271.109 164.83C270.437 164.796 270.452 165.354 270.272 165.464C269.985 165.64 269.44 165.599 269.144 165.773C268.531 166.136 269.15 167.624 268.394 168.204L269.198 168.185L269.611 169.69L268.209 170.479L268.519 171.608L267.767 171.814C267.888 172.108 267.888 172.521 268.024 172.754C268.648 173.805 268.267 173.978 268.437 174.259C268.546 174.436 269.105 174.424 269.071 175.096L268.319 175.303L268.525 176.055L267.67 175.885C268.143 176.492 267.651 177.084 267.655 177.305C267.663 177.659 267.964 178.094 267.964 178.434C267.963 178.503 267.34 179.596 267.282 179.632C267.057 179.771 266.71 179.7 266.529 179.839C266.315 180.002 266.366 180.498 265.692 180.473L267.115 182.712C266.774 183.444 266.614 184.248 266.93 184.987L266.178 185.193C266.478 187.158 265.013 188.765 266.117 190.873L265.177 191.131C264.643 191.528 264.957 192.352 264.922 192.414C264.87 192.505 264.507 192.419 264.358 192.569C263.865 193.06 263.958 193.617 264.206 194.228L263.454 194.435L264.552 196.965L263.424 197.274C263.377 198.416 263.746 199.617 263.172 200.782L263.858 201.807L263.415 203.142L264.425 203.876L262.835 204.717L261.983 206.77L262.617 207.608C260.615 208.359 261.858 209.81 261.989 211.218C262.003 211.372 261.498 211.713 261.871 212.262L260.931 212.52L260.676 213.803L259.923 214.009L261.14 215.496L260.697 216.831L261.331 217.668C260.587 217.755 260.207 218.421 260.512 219.106L259.76 219.313L259.966 220.065L259.214 220.271C259.538 221.101 259.439 222.256 260.261 222.613C260.094 223.436 259.396 223.312 259.099 223.539C258.885 223.703 258.936 224.198 258.261 224.173C258.162 224.932 258.978 225.311 258.999 225.386C259.033 225.511 258.727 225.695 258.726 225.866C258.723 226.105 258.914 226.36 258.932 226.618L259.463 227.079L258.334 227.389L258.371 228.997L257.242 229.306L258.238 231.46L257.485 231.667L257.691 232.419L256.718 233.293L257.3 233.942L256.754 234.901L257.749 237.055L257.631 238.099L256.126 238.511L256.266 240.495C255.453 240.686 254.821 240.726 254.54 241.575L255.122 242.225C254.655 244.12 255.337 246.207 255.541 248.177C255.568 248.437 254.89 248.647 255.748 248.93L255.253 250.076L256.006 249.87L256.315 250.999L254.537 251.891L254.744 252.643L253.991 252.849C253.952 253.516 254.541 253.528 254.625 253.687C255.072 254.519 254.634 255.12 254.817 255.859L254.064 256.065L254.271 256.818C254.219 256.909 253.855 256.822 253.706 256.972C252.983 257.697 253.617 258.226 253.606 258.82C253.604 259.031 253.116 259.302 253.488 259.864L252.086 260.653C252.744 261.5 251.8 262.204 251.798 262.552C251.796 263.503 252.875 264.797 252.248 265.665L252.779 266.126L251.65 266.435L251.532 267.479L252.063 267.94L250.934 268.249C251.306 268.766 250.625 269.778 250.646 270.149C250.681 270.762 251.526 272.783 251.42 272.97L250.667 273.177L251.25 273.826L249.848 274.615L250.261 276.119L249.509 276.326L250.164 280.191L249.224 280.449L248.814 281.168L249.293 281.441C249.326 281.561 249.036 281.742 249.02 281.92C249.003 282.152 249.222 282.403 249.175 282.485C249.118 282.585 247.746 282.921 248.356 283.923C247.292 283.79 247.168 284.96 246.87 285.139C246.379 285.431 245.39 285.436 244.801 285.707C244.713 284.032 243.275 283.816 242.043 283.025L241.939 282.649C242.69 281.727 241.637 281.162 241.424 280.768C240.973 279.937 241.334 277.213 240.51 275.962L241.262 275.756C241.53 274.534 241.034 273.08 241.035 271.976C241.037 271.142 242.275 269.403 241.611 268.177C240.278 265.72 241.219 261.586 242.248 258.699L241.489 254.458L242.463 253.584C241.904 252.419 242.258 251.82 242.921 250.829L242.338 250.18C243.219 248.806 242.21 247.073 242.229 245.356C242.232 245.149 243.116 242.884 243.114 242.687C243.115 241.57 242.241 240.078 241.758 239.216C243.435 238.841 241.936 237.314 242.968 236.255L242.164 236.273C241.795 235.707 242.266 235.464 242.283 235.229C242.376 233.772 242.221 231.966 243.029 230.575C241.576 228.967 242.526 226.013 241.599 223.889L242.352 223.682C242.083 223.234 242.574 221.542 242.537 221.407C242.509 221.305 241.644 220.689 241.645 219.629C242.128 218.943 242.289 217.907 243.164 217.797L241.757 214.138L243.158 213.349L242.06 210.819L242.812 210.612C242.206 209.068 243.065 207.639 242.378 206.08L242.991 203.889L242.169 203.104L240.391 203.996L239.056 203.553C238.198 203.537 238.152 204.549 237.551 203.966C237.166 205.127 236.38 205.375 235.707 206.089L233.534 206.281L233.14 205.58C232.579 206.308 231.566 206.934 231.963 207.925L230.543 207.91L228.765 208.802C228.333 209.438 228.199 210.321 227.382 210.395L227.913 210.856C227.472 211.725 227.459 212.623 227.831 213.508L226.721 214.621C226.439 214.876 226.482 213.457 225.762 214.075C225.647 214.171 225.133 215.085 225.079 215.273C224.988 215.602 225.103 216.626 225.064 216.693C225.034 216.746 224.287 216.793 224.227 217.327L222.995 217.261C222.902 217.509 222.641 217.754 222.586 217.98C222.533 218.185 222.792 218.453 222.74 218.544C222.694 218.626 222.357 218.56 222.176 218.699C222.033 218.811 222.029 219.12 221.903 219.178C221.173 219.524 219.881 219.535 219.27 219.9C218.658 220.266 218.316 222.484 218.008 222.674C217.793 222.805 217.47 222.748 217.255 222.88C217.061 222.998 216.904 223.721 216.709 223.839C216.37 224.045 215.838 223.875 215.684 224.524L213.357 224.151L213.475 223.108L211.989 224.324C211.468 223.783 210.927 224.361 210.381 224.361C210.158 224.361 209.644 223.814 209.422 223.815C208.435 223.814 208.022 224.785 207.08 224.862L206.206 223.888L204.771 225.292L205.354 225.942C204.943 226.746 204.724 227.332 203.731 227.398L204.829 229.928C203.856 230.098 203.726 230.878 204.113 231.743L203.361 231.949L202.966 231.248L202.712 232.531L201.959 232.738L202.593 233.575C201.573 234.587 202.566 235.467 202.563 236.415C202.564 237.066 200.771 238.359 201.832 239.649L201.08 239.855L201.116 241.463L200.364 241.67L200.57 242.422L198.962 242.458L199.648 243.484L198.896 243.69L199.102 244.443L198.35 244.649L198.932 245.298L196.966 246.242C196.192 247.033 197.146 247.811 196.593 248.569L197.176 249.218C196.975 250.034 196.43 249.892 196.014 250.143C195.893 250.217 195.211 251.48 194.819 251.685C193.661 252.285 191.591 252.364 190.304 252.923L190.699 253.624C189.785 253.979 189.211 254.084 188.423 253.439C187.873 254.188 188.265 255.294 187.143 255.408L187.453 256.536L184.613 256.506L184.819 257.259L184.152 257.037L182.938 257.774L182.544 257.074C181.693 258.545 180.042 258.423 178.612 258.961C178.48 259.009 178.471 259.392 178.339 259.44C176.699 260.04 175.107 260.238 173.533 260.354C173.442 260.302 173.525 259.939 173.379 259.789C172.89 259.292 172.315 259.393 171.719 259.638L172.029 260.766L170.815 261.504C169.915 260.598 169.104 261.488 168.248 260.994L168.267 261.798L166.113 262.793L165.803 261.665L164.52 261.41L164.741 260.743L162.005 261.089L162.314 262.217C161.764 262.291 161.128 262.656 160.621 262.681C160.478 262.688 160.324 262.439 160.142 262.408C160.011 262.388 159.862 262.538 159.766 262.512C158.952 262.286 158.147 261.046 157.745 261.043C157.493 261.04 157.245 261.253 156.993 261.25C156.725 261.246 154.383 259.785 153.74 259.715L152.903 260.349L153.419 262.23L152.479 262.488L151.763 264.302L149.572 263.689L148.513 264.991L148.771 265.931C148.26 266.148 147.527 266.159 147.078 266.396C146.937 266.471 146.963 266.977 146.429 266.978C146.267 266.978 146.106 266.699 145.95 266.705C145.557 266.72 145.066 267.008 144.633 267.066L145.097 268.759C144.676 269.554 143.961 270.191 143.098 270.319L143.305 271.071C142.46 270.631 141.804 271.264 141.132 271.262C140.91 271.263 140.401 270.719 140.174 270.716C139.358 270.705 138.824 271.475 139.166 272.206C138.216 272.337 137.45 272.806 136.928 273.629L133.524 273.754L133.317 273.001L132.189 273.311L132.395 274.063C131.548 273.955 130.76 275.005 130.429 275.007C130.203 275.008 129.652 274.52 129.009 274.992C128.96 274.237 128.245 274.121 127.656 273.745L125.229 275.219C124.613 275.214 124.084 273.551 123.123 274.179L122.865 273.238L122.146 272.829C120.667 273.999 119.354 272.527 118.827 272.526C118.484 272.527 118.042 272.834 117.699 272.835C117.432 272.836 116.664 272.116 116.261 272.016C116.057 271.967 115.787 272.223 115.696 272.171C115.615 272.124 115.675 271.797 115.542 271.607C115.337 271.319 114.774 271.538 115.335 270.854L113.521 270.138L113.536 268.718L112.699 269.353L111.655 269.234L111.449 268.482C109.898 268.932 109.369 267.006 110.933 266.601L110.727 265.849C109.917 266.2 109.25 265.392 108.484 265.048L108.757 264.568L107.386 262.518L107.932 261.559C106.154 261.181 106.95 259.025 106.731 258.652C106.206 257.773 105.322 256.199 105.323 254.994C105.322 254.771 105.869 254.257 105.869 254.035C105.87 252.595 104.433 250.291 105.656 248.835L105.022 247.998L105.774 247.791C105.154 246.991 105.882 244.777 105.65 244.387C105.535 244.192 104.835 243.968 104.912 243.174L106.041 242.864L105.628 241.359C107.05 240.953 107.188 239.01 105.983 238.228L105.88 237.852C106.068 237.032 106.669 237.175 107.042 236.927C107.267 236.776 107.457 236.125 108.255 236.19L108.219 234.582C109.808 234.122 109.14 233.043 109.156 232.1C109.159 231.889 109.647 231.617 109.274 231.056C110.351 231 110.76 229.836 111.701 229.582L111.252 226.469L112.757 226.056L112.344 224.551L113.473 224.242L113.267 223.489C114.73 223.088 115.692 222.185 114.905 220.613C116.646 220.577 116.896 218.716 118.357 218.453L118.151 217.701C118.467 217.658 118.82 217.44 119.091 217.443C119.269 217.442 119.487 217.884 119.947 217.613C120.086 217.53 120.086 217.206 120.22 217.133C120.714 216.872 121.539 216.856 122.101 216.617L123.193 214.7C123.648 215.194 124.098 214.727 124.425 214.766C125.315 214.87 126.49 215.248 127.367 215.173C128.83 215.047 129.452 213.614 130.941 214.193C130.983 213.534 130.374 213.495 130.307 213.355C129.902 212.496 130.183 211.662 128.936 211.305C129.386 210.704 129.113 209.711 128.42 209.424C129.297 208.314 128.523 206.273 128.141 205.455C127.642 204.391 128.787 201.278 127.552 200.358C128.03 199.685 128.215 199.25 127.84 198.459L128.592 198.253C127.877 197.49 127.225 196.925 127.118 195.826L127.87 195.62C127.418 194.368 127.445 192.86 126.462 191.961C126.905 191.896 128.086 190.921 128.085 190.504C128.084 190.177 127.813 189.75 127.776 189.376C127.763 189.226 128.083 189.021 128.049 188.896C128.015 188.772 127.635 188.759 127.569 188.623C127.257 187.957 127.174 187.328 127.669 186.776C128.787 185.527 129.144 186.27 129.171 184.139C129.176 183.596 129.981 183.201 130.521 183.162C130.224 182.301 131.636 178.395 132.104 177.874C133.191 176.658 134.269 175.974 134.631 174.552C134.752 174.078 135.119 173.706 135.605 173.678L135.399 172.926C136.189 173.004 136.424 172.297 136.612 172.188C137.55 171.64 138.635 171.156 139.622 171.363C140.61 170.514 142.111 168.508 143.141 167.971C143.785 167.636 144.865 167.607 145.586 167.3C145.777 168.114 145.817 168.746 146.666 169.027C147.132 168.838 147.742 168.82 148.171 168.614C148.639 168.388 149.779 167.044 150.119 166.866C151.149 166.329 152.854 166.735 154.36 166.108C154.487 166.053 155.126 165.141 155.95 165.267C156.092 166.3 157.389 166.385 158.243 166.256L158.45 167.008L159.578 166.699L159.785 167.451L163.067 166.146L162.949 167.19C163.717 167.659 164.657 167.842 165.464 167.512C165.806 168.757 167.549 169.185 168.219 167.97L168.595 167.866C169.387 168.511 169.942 168.411 170.871 168.051C170.784 168.916 172.232 169.049 172.463 169.435C172.747 169.907 172.942 171.771 173.134 171.88C174.136 171.27 174.471 172.642 174.572 172.699C174.654 172.745 174.91 172.513 175.136 172.544C175.695 172.618 176.444 173.152 177.036 172.832C177.11 173.621 177.966 173.512 177.397 174.149L179.026 177.14L180.531 176.728L181.748 178.214L181.305 179.549C182.301 180.247 182.65 181.312 183.259 182.249C183.446 182.534 183.492 183.411 184.184 183.411C185.143 183.411 185.493 182.55 186.338 182.416L188.456 179.813L189.79 180.256C190.244 178.841 190.819 179.007 191.738 178.508C191.879 178.433 191.878 178.089 192.011 178.029C192.787 177.67 194.56 177.604 194.575 176.314C194.578 176.062 194.365 175.814 194.368 175.562C194.371 175.335 194.915 174.826 194.914 174.603C194.916 174.049 194.188 171.142 194.31 170.926L195.063 170.72C194.632 169.681 195.078 168.976 194.392 168.274L194.665 167.795L193.706 167.249L193.825 166.205L194.577 165.999C194.452 165.706 194.46 165.291 194.319 165.059C193.651 163.935 193.65 162.662 193.664 161.193C193.681 159.061 193.536 157.143 193.193 155.053L193.945 154.847C193.995 154.76 193.76 154.509 193.791 154.282C193.893 153.506 194.137 153.674 193.378 152.778C194.419 151.307 193.541 149.683 194.5 148.02L193.453 145.678L194.582 145.369L193.365 143.882L193.808 142.547C193.05 142.262 193.132 141.321 192.865 140.581C193.918 140.47 193.641 139.547 194.008 138.852C193.216 138.471 192.882 137.001 193.526 136.355C193.783 136.099 194.474 135.254 194.481 134.677C194.487 134.316 194.097 133.557 194.684 133.206C195.499 132.724 195.968 133.165 196.292 133.169C196.69 133.174 197.061 132.756 197.524 133.236L197.9 133.133C198.215 132.509 198.771 132.045 198.428 131.37C199.034 130.897 199.731 131.401 199.848 131.385C200.455 131.312 201.167 130.898 201.729 130.869C201.889 130.862 202.125 131.311 202.585 131.039C202.78 130.925 203.004 130.224 203.798 130.302L203.592 129.55L205.012 129.565C205.124 129.534 206.235 128.186 206.583 127.92C207.841 126.961 208.991 127.571 209.969 126.992C210.084 126.924 210.775 125.654 211.164 125.45C211.773 125.134 212.705 125.347 212.942 124.558L213.318 124.455C214.383 125.389 215.462 124.603 216.722 124.331L216.516 123.578C217.59 123.838 218.488 124.061 219.543 123.557C219.669 123.498 219.673 123.19 219.816 123.077C219.997 122.939 220.334 123.004 220.381 122.923C220.433 122.832 220.177 122.562 220.226 122.358C220.314 122.002 220.765 121.551 220.909 121.16L221.388 121.433C221.855 120.306 222.963 121.232 223.833 120.762C223.49 120.088 224.047 119.624 224.361 119L224.737 118.897C225.2 119.376 225.571 118.959 225.969 118.963C226.684 118.973 229.47 121.494 229.343 121.678ZM247.929 248.445C248.578 247.874 249.092 247.167 249.98 247.073L249.995 245.653C249.151 245.169 248.36 244.985 248.299 243.894C249.83 243.474 249.067 241.119 250.056 239.974L249.576 239.701C249.953 239.112 250.068 238.397 250.823 238.348C250.615 237.826 250.591 237.133 250.359 236.655C250.294 236.523 249.967 236.524 249.879 236.382C249.365 235.568 250.676 234.477 249.858 233.354C251.135 232.923 251.158 231.857 251.172 230.769C251.177 230.391 252.151 229.534 251.357 228.494C253.338 228.152 252.399 227.249 252.294 226.012C252.282 225.865 252.785 225.206 252.309 224.592L253.061 224.386L252.051 223.652L253.586 220.399L252.524 219.477C252.85 218.91 252.535 217.496 253.273 217.047C253.488 216.915 253.811 216.972 254.026 216.84C254.084 216.804 254.707 215.711 254.708 215.642L254.038 213.197L254.79 212.99C254.632 212.221 255.01 211.696 254.599 210.818C254.533 210.682 254.154 210.673 254.119 210.545C254.56 209.838 254.316 208.667 254.869 208.115C255.018 207.965 255.381 208.051 255.433 207.96C255.485 207.869 255.229 207.599 255.278 207.396C255.348 207.106 255.706 206.757 255.824 206.437C254.38 205.83 255.905 204.49 255.854 203.597C255.827 203.128 255.439 202.526 255.442 202.093C255.444 201.57 256.766 200.225 257.338 200.157L256.992 197.42L257.966 196.547C256.423 195.376 258.157 193.485 258.166 192.851C258.185 191.402 258.678 189.778 258.639 188.677C258.624 188.284 258.336 187.793 258.277 187.36L259.406 187.05C259.036 186.484 259.506 186.25 259.524 186.007C259.679 184.063 260.528 182.087 259.688 180.704C259.136 179.799 260.437 179.026 259.77 178.052L260.813 178.17L261.068 176.887L261.82 176.681C261.867 176.599 261.639 176.342 261.666 176.116C261.857 174.616 261.971 173.084 262.036 171.565C262.1 170.047 262.268 168.371 262.302 166.638C262.307 166.463 263.478 163.743 263.992 163.95L263.321 161.505L264.517 159.964C263.542 159.034 262.909 158.277 261.419 158.993C261.869 159.881 261.477 160.369 260.994 161.132L260.618 161.235C259.922 160.54 259.472 160.919 258.907 160.895C258.519 160.881 258.165 160.476 257.299 160.932L256.377 161.994L255.521 161.824C255.193 162.808 253.871 163.094 254.344 164.169L252.463 164.685L252.257 163.933L250.649 163.969L250.855 164.722C249.927 165.082 249.372 165.181 248.58 164.537L247.555 165.222L245.655 164.934L246.444 166.336L244.854 167.176C244.725 166.735 243.579 167.466 243.538 167.538C243.502 167.6 243.817 168.424 243.283 168.821C242.592 168.218 241.675 169.064 240.923 169.064C240.664 169.066 239.873 168.365 239.485 168.245L237.913 169.889C236.028 169.577 233.956 171.302 232.337 170.205C231.477 171.213 231.071 172.033 229.637 172.159C229.487 172.172 229.308 171.873 229.158 171.886C227.885 171.996 227.231 173.045 226.251 173.087C225.396 172.788 223.497 172.382 223.511 171.21C223.514 170.982 224.058 170.473 224.057 170.251C224.059 169.15 222.986 167.301 222.923 166.113C222.905 165.782 223.553 164.253 223.535 163.922C223.494 163.137 222.814 162.017 222.813 161.289C222.813 160.787 223.972 158.318 223.972 158.14C223.974 157.043 223.27 156.273 222.873 155.609C222.477 154.946 223.756 152.706 223.022 151.726C224.168 151.42 224.366 149.962 224.712 149.038C223.853 148.756 224.532 148.545 224.505 148.286C224.395 147.236 223.892 146.063 224.432 145.07L223.474 144.524L223.385 142.728C224.374 142.614 224.42 141.514 224.426 140.622L223.947 140.349C224.469 139.304 225.719 138.124 224.353 137.406C224.915 136.581 225.23 135.337 224.759 134.463C224.686 134.33 224.363 134.329 224.28 134.19L224.177 133.814C224.53 133.333 224.285 132.704 224.756 132.239C224.906 132.093 225.269 132.176 225.32 132.085C225.495 131.778 225.127 130.334 225.129 129.912C225.131 129.52 226.046 129.083 225.366 127.825C225.292 127.688 224.96 127.69 224.886 127.552C224.555 126.947 224.628 126.373 224.798 125.756C224.059 125.643 223.653 126.479 223.585 126.493C222.903 126.632 223.186 126.38 222.08 126.906C221.493 127.184 220.645 127.219 220.011 127.474L220.047 129.081C218.676 129.567 216.954 128.259 215.994 129.789L215.12 128.815L213.992 129.124L214.198 129.877L213.173 130.562L212.966 129.81L211.547 129.795L210.06 131.012L209.854 130.259L209.101 130.466L209.308 131.218C208.367 131.326 207.762 131.836 208.112 132.759L206.899 133.497L205 133.208L205.206 133.961C204.172 133.54 203.312 134.209 202.281 134.358C202.137 134.378 201.945 134.062 201.802 134.085C200.757 134.243 199.567 135.066 198.689 134.535L198.313 134.638C197.572 135.415 198.246 136.044 198.316 136.862C198.354 137.308 198.455 138.401 198.456 138.846C198.457 138.967 197.765 140.487 197.843 141.036C199.696 141.834 198.935 143.956 199.834 145.344C199.919 145.479 200.51 145.599 200.365 145.805L199.612 146.012C199.987 146.803 199.803 147.238 199.324 147.911L200.165 149.501L199.361 149.519L199.552 151.691L198.423 152.001C198.325 152.173 199.062 153.888 199.094 154.446C199.103 154.581 198.642 155.646 198.651 155.781C198.726 157.131 199.41 158.756 199.41 160.022C199.411 160.115 199.12 160.943 199.07 161.733C199.054 161.968 198.582 162.211 198.952 162.777C199.901 162.387 200.507 163.183 200.545 164.16C200.55 164.312 200.275 164.477 200.272 164.64C200.247 166.495 200.882 168.311 200.211 170.319C199.961 171.071 199.054 171.615 199.599 172.509C201.033 173.079 200.534 173.385 200.491 174.287C200.478 174.537 200.711 174.797 200.697 175.04C200.683 175.282 200.209 175.517 200.579 176.083C201.105 175.878 201.779 175.843 202.272 175.619C203.037 175.268 204.304 174.431 205.075 174.041C205.59 173.783 206.278 173.974 206.476 173.252C206.816 173.56 208.001 173.959 208.154 174.208C208.286 174.423 208.229 174.746 208.36 174.96C208.786 175.657 209.713 175.071 210.208 175.06C210.409 175.054 210.993 175.549 211.628 175.075L211.834 175.828L212.587 175.621L212.896 176.75L214.862 175.806C216.41 176.316 217.97 176.091 218.133 178.145L219.176 178.264L220.39 177.526C220.586 178.654 222.109 178.721 223.06 178.412L224.328 180.087L223.576 180.293L223.885 181.422L224.638 181.215C224.719 182.087 225.099 182.367 225.854 182.702L225.979 186.106C226.651 186.14 226.636 185.582 226.816 185.472C227.505 185.048 227.917 185.546 228.048 185.538C228.453 185.512 228.93 185.244 229.365 185.177L230.396 188.939L229.319 189.437L230.057 190.65L230.809 190.444C231.535 191.661 230.564 192.25 230.779 193.284L230.026 193.49C230.412 194.497 230.602 195.44 229.414 195.681L230.188 198.502C229.531 199.661 228.764 200.389 229.457 201.736C230.378 201.334 231.835 201.294 232.654 200.859C233.374 200.476 233.993 200.253 234.808 199.864C236.348 199.122 238.082 198.853 239.219 198.25C240.741 197.44 241.192 198.376 241.683 198.383C242.397 198.39 242.547 197.551 243.564 197.867C244.382 198.12 244.375 198.805 244.438 198.841C244.5 198.876 245.324 198.562 245.721 199.096L245.654 200.327C246.348 200.615 246.62 201.608 246.17 202.208L247.438 203.883L247.372 205.115L247.851 205.388L246.877 206.262C247.526 207.152 247.077 209.071 247.378 209.562C247.467 209.708 247.823 209.711 247.857 209.836L247.466 211.359L246.714 211.565L247.023 212.693L246.271 212.9L246.802 213.361C246.262 213.885 246.838 214.423 246.838 214.969C246.839 215.442 246.122 216.65 246.122 216.783C246.122 218.345 247.052 219.877 245.856 221.71L246.387 222.171L244.882 222.584C244.937 223.936 246.019 222.689 246.748 223.488L247.006 224.428C246.541 224.358 245.764 225.432 245.759 225.782C245.755 226.179 246.172 226.55 245.692 227.013L246.172 227.286C245.966 228.338 247.024 229.318 247.1 230.672C247.123 231.111 246.384 232.353 246.384 232.486C246.384 233.591 247.52 235.52 247.519 236.625C247.519 236.847 246.973 237.361 246.973 237.583C246.971 238.49 247.518 240.383 247.629 241.448C247.645 241.598 247.321 241.8 247.356 241.928L247.887 242.389L246.913 243.263L247.495 243.912C247.017 244.585 246.832 245.02 247.207 245.811L248.491 246.066C248.836 246.647 247.828 247.396 247.775 247.88C247.753 248.08 247.937 248.281 247.929 248.445C247.824 248.534 247.535 248.468 247.365 248.599C247.061 248.832 246.746 249.898 246.41 250.277C247.368 250.629 247.565 251.157 247.729 252.14L246.789 252.398L246.379 253.117L247.065 254.142L246.622 255.477C246.609 255.958 247.108 256.63 247.548 256.639C248.1 256.649 248.2 255.906 248.47 255.577C248.528 255.509 249.256 255.256 249.256 254.755C249.255 254.209 248.678 253.667 249.219 253.147L248.533 252.122L248.703 251.266L247.641 250.344C248.061 249.764 247.904 249.002 247.929 248.445ZM154.834 174.472C153.91 174.628 152.913 175.136 152.012 175.246C151.868 175.265 151.689 174.966 151.533 174.973C150.963 175.004 150.458 175.535 149.925 175.009L149.139 175.831L149.397 176.772C148.744 177.016 147.952 177.075 147.328 177.339C147.194 177.396 147.191 177.753 147.055 177.819C145.347 178.639 144.456 177.561 143.36 177.619C142.754 177.651 141.771 177.945 141.582 178.511L140.915 178.289L141.121 179.042C140.643 179.1 138.953 181.283 138.952 181.457C138.952 182.031 139.017 182.402 138.988 183.065C138.971 183.518 139.394 183.953 138.785 184.536L136.989 184.624L137.299 185.753L136.546 185.959L136.753 186.712L135.779 187.585C136.167 188.086 136.398 189.062 136.398 189.843C136.396 190.041 135.905 190.346 136.228 190.698C135.57 191.514 135.034 192.611 133.956 192.737C134.336 193.547 135.107 194.383 135.106 195.455C135.105 195.702 134.124 197.083 134.22 198.125C134.325 199.29 135.134 201.296 135.731 202.16C135.866 202.358 136.394 202.322 136.365 202.997L135.391 203.871C135.837 204.95 135.739 206.571 136.696 207.154L135.722 208.028C135.927 208.554 135.959 209.229 136.187 209.72C136.248 209.857 136.632 209.869 136.666 209.994C136.7 210.118 136.395 210.302 136.393 210.473C136.382 211.289 137.151 211.822 137.883 211.48C138.288 212.546 138.119 213.624 137.956 214.696C140.505 213.77 140.428 217.383 138.114 217.484C137.934 217.493 137.623 216.992 137.07 217.366L137.276 218.118C136.425 218.776 135.738 217.832 135.377 217.83C135.122 217.827 134.864 218.052 134.625 218.036C134.333 218.019 133.863 217.562 133.205 218.021L133.411 218.774L131.427 218.913L131.633 219.666C131.186 219.894 130.716 219.756 130.35 219.411C130.104 219.179 130.471 218.553 129.443 219.053L129.752 220.182C129.32 220.243 128.832 220.527 128.436 220.543C128.292 220.55 127.241 220.094 127.101 220.1C125.879 220.16 125.492 221.298 124.486 221.626C124.734 222.237 124.826 222.795 124.334 223.286C124.185 223.436 123.822 223.349 123.77 223.44C123.718 223.531 123.978 223.8 123.925 224.005C123.54 225.51 121.498 224.642 121.343 224.915C121.905 226.419 119.605 226.646 119.277 227.706C119.24 227.822 119.478 228.262 119.107 228.562C119.942 228.745 119.171 229.62 119.144 230.17C119.128 230.425 119.364 230.797 119.401 231.11C118.642 231.011 118.263 231.827 118.188 231.848C118.109 231.869 117.659 231.366 117.144 231.729C117.273 232.584 117.188 233.881 116.155 234.023L116.192 235.631L115.063 235.94C115.703 237.387 114.005 238.852 114.214 240.218L113.462 240.425L114.354 242.202L113.601 242.409L113.808 243.161C111.738 243.668 110.144 246.573 112.634 247.73L112.655 250.758L111.254 251.547L111.342 253.343L111.976 254.18C113.002 254.012 114.31 254.195 114.373 255.545L113.672 255.94L113.827 256.504L112.698 256.814L112.786 258.61L113.848 259.532L113.575 260.011C115.14 260.719 115.896 263.8 117.771 263.512L117.859 265.308C118.231 265.809 119.03 266.128 119.4 266.503C119.547 266.653 119.464 267.016 119.555 267.068C119.656 267.125 121.007 266.714 120.993 267.887C121.53 267.824 122.213 267.423 122.686 267.422C123.034 267.424 123.738 268.368 124.585 267.711L124.895 268.839C125.416 268.631 126.109 268.607 126.588 268.375C126.72 268.31 126.719 267.983 126.861 267.896C127.723 267.352 128.232 268.235 128.572 268.235C128.912 268.235 129.357 267.927 129.701 267.926C129.923 267.925 130.437 268.472 130.659 268.472C132.297 268.471 133.83 266.951 135.447 266.754C135.592 266.739 135.776 267.04 135.926 267.027C136.938 266.94 137.86 266.44 138.113 265.416C138.163 265.213 137.907 264.943 137.959 264.852C138.005 264.77 138.342 264.836 138.523 264.697C138.663 264.59 138.665 264.302 138.796 264.218C139.692 263.652 140.219 264.806 141.071 264.403L141.769 261.784L143.001 261.851C144.464 260.815 146.083 260.039 148.061 259.654L148.777 257.84L149.717 257.582L150.312 254.588L151.732 254.603L151.938 255.355C152.638 254.84 153.491 256.017 153.94 256.019C154.49 256.018 156.542 255.755 156.968 255.998C157.055 256.047 157.52 257.242 158.321 257.245C158.674 257.245 161.781 256.393 162.083 256.213C162.386 256.033 162.406 255.016 163.194 255.1C163.281 255.844 163.947 256.224 164.632 255.919L164.838 256.671C166.132 256.83 166.392 255.537 166.701 255.351C167.594 254.819 168.447 255.244 168.685 255.212C170.591 254.935 172.215 253.495 173.885 254.999L175.184 253.834C176.395 254.432 177.979 253.29 178.842 252.426C179.128 252.141 179.614 251.11 180.038 250.885C181.317 250.21 181.725 251.122 182.125 251.121C183.528 251.121 184.677 249.762 184.43 248.466C185.265 248.015 186.036 247.419 187.149 247.316C187.295 247.305 187.46 247.583 187.628 247.589C188.732 247.618 189.165 245.332 190.413 245.208C190.164 244.596 190.072 244.039 190.565 243.548C190.714 243.398 191.077 243.484 191.129 243.393L190.819 242.265L192.221 241.476L192.015 240.723L193.125 239.61L194.921 239.522L194.184 238.308C194.683 237.209 194.764 236.175 193.786 235.384C194.291 235.484 195.307 233.85 195.306 233.551C195.307 231.977 193.258 229.696 195.624 228.812L195.315 227.684L196.443 227.374L195.345 224.844L196.319 223.97C196.328 223.179 194.774 222.379 195.597 221.337C194.701 220.506 195.211 220.241 195.184 219.832C195.126 218.97 194.701 217.881 195.454 217.129C195.603 216.979 195.966 217.065 196.018 216.974L195.812 216.222L198.633 215.448L200.09 217.071L201.218 216.761C201.517 218.293 202.819 219.473 204.046 220.435L205.241 218.894C205.533 218.984 206.001 219.438 206.2 219.44C206.967 219.448 208.222 219.44 208.936 219.094C209.072 219.029 209.075 218.672 209.209 218.615C210.423 218.084 211.695 218.18 212.286 216.558L212.662 216.454C214.13 217.411 214.795 215.59 215.192 215.356C215.488 215.182 216.025 215.221 216.321 215.046C216.498 214.941 216.645 214.298 216.867 214.088C217.044 213.922 217.763 213.551 217.892 213.402C219.004 212.13 218.708 210.359 219.733 209.054L219.254 208.781C219.733 207.934 220.32 207.373 219.815 206.403C220.355 206.364 221.16 205.969 221.165 205.426C221.188 203.652 221.874 202.995 221.69 201.439C222.856 201.297 222.428 200.015 223.106 199.23L221.838 197.556C222.431 196.871 221.741 197.04 221.632 196.803C221.379 196.266 221.554 195.603 220.843 195.402C221.299 193.024 220.489 190.467 218.61 188.734L218.728 187.69C218.093 188.163 217.553 187.3 217.205 187.299C216.857 187.297 216.42 187.607 216.076 187.608C214.94 187.608 214.671 185.271 213.388 185.918L213.13 184.978L213.831 184.583L213.06 183.986L211.368 184.45C210.975 183.017 209.079 183.347 207.945 183.771C207.835 182.895 206.799 182.734 206.113 182.251L205.737 182.354C204.805 183.617 203.14 182.811 201.598 183.489C201.464 183.546 201.467 183.893 201.325 183.968C200.062 184.655 199.259 183.305 197.921 184.093L197.988 182.861C197.41 183.335 196.694 182.832 196.568 182.846C196.009 182.915 194.388 183.331 193.935 183.568C193.814 183.63 193.14 184.563 193.013 184.63C192.664 184.819 192.099 184.824 191.696 184.991L192.006 186.12C191.246 186.021 190.867 186.837 190.792 186.857C190.668 186.891 190.463 186.571 190.313 186.584C188.965 186.715 188.827 187.525 188.228 188.571L189.032 188.553L189.342 189.682C188.469 189.759 188.181 190.154 187.855 190.898L187.461 190.198L186.041 190.183L183.802 191.606L183.784 190.802L183.22 190.956C183.276 190.322 182.174 189.799 182.003 189.47C181.326 188.167 181.777 186.328 181.348 185.605C181.249 185.438 180.615 185.264 180.389 185.059L180.61 184.391L179.858 184.598C179.912 183.41 177.686 183.507 177.409 183.044C177.087 182.502 176.79 181.507 176.414 180.89C176.296 180.696 175.573 180.538 175.455 180.344C175.081 179.731 174.816 178.752 173.947 178.533C173.038 178.301 172.242 177.682 171.311 177.032C170.936 176.77 170.493 176.601 170.113 176.349L169.087 177.035C168.272 176.834 168.412 176.285 168.162 175.873C168.044 175.679 167.316 175.518 167.203 175.327C166.962 174.92 166.959 174.128 166.739 173.634L165.61 173.943L165.816 174.696L164.227 175.536C163.211 175.313 162.56 172.834 161.624 173.419C161.52 174.001 160.186 174.549 160.137 174.635C160.102 174.698 160.416 175.521 159.882 175.919C158.779 175.186 158.119 176.552 157.061 176.693C156.736 175.892 156.001 174.819 155.04 175.224L154.834 174.472Z" fill="#284655"/>
<path d="M96.652 183.552L97.9353 183.807C98.2289 184.066 96.7803 184.035 97.3893 184.766C97.7083 185.148 98.4318 185.249 98.8607 184.969L100.893 182.794L100.104 181.392L102.362 180.773C102.449 181.518 103.115 181.897 103.8 181.592L104.006 182.345C102.818 182.585 103.008 183.528 103.393 184.535L102.265 184.845C102.408 186.148 104.217 185.782 105.02 185.303C105.211 185.189 105.374 184.457 105.566 184.344C105.945 184.118 106.691 184.156 107.07 183.931C107.366 183.757 107.338 182.753 108.369 182.766C108.466 182.768 109.995 183.639 110.047 183.722C110.288 184.129 110.29 184.921 110.511 185.414L109.382 185.724C109.729 187.344 107.486 187.91 106.907 189.234L105.675 189.168L104.24 190.572L105.505 190.023C106.322 190.434 107.078 190.995 107.902 191.388C107.981 191.427 108.169 191.242 108.278 191.285C109.219 191.662 110.136 192.499 110.317 193.557L109.616 193.952L110.147 194.413L109.395 194.619L109.808 196.124C108.833 196.569 107.984 196.422 107.071 196.47L106.762 195.342C106.224 195.404 105.546 195.804 105.069 195.806C104.737 195.808 104.2 194.956 103.546 195.415L104.18 196.252L103.907 196.731L104.85 198.697L105.603 198.491C105.562 199.153 106.169 199.185 106.237 199.328C106.69 200.272 106.445 201.014 106.531 201.876L105.779 202.083L106.996 203.569C106.613 204.681 106.377 206.21 104.93 206.361L104.723 205.608L103.425 206.773L103.115 205.645L101.987 205.954C101.623 205.439 102.127 204.99 102.105 204.911C102.071 204.786 101.691 204.773 101.626 204.638C101.373 204.1 101.547 203.438 100.837 203.236L101.759 202.174C101.387 201.645 100.529 201.953 100.476 201.919C100.392 201.865 100.459 201.535 100.321 201.355C100.102 201.071 99.5461 200.949 99.5836 200.142L98.4551 200.451C99.6081 201.425 99.2742 202.435 97.8423 202.642L98.0487 203.394L96.6288 203.379L95.8947 204.389L95.6884 203.637L94.936 203.843L93.9923 201.877C94.7202 201.257 94.263 200.505 94.332 200.166C94.6242 198.739 94.6417 199.009 95.6638 198.385C96.2042 198.055 96.2583 196.143 95.8821 195.494L94.3773 195.907L94.6868 197.035C94.3924 197.156 93.9836 197.155 93.7463 197.293C92.6258 197.956 91.8505 199.908 90.1907 199.077L89.1653 199.763L87.2812 198.055L87.451 197.199L86.6621 195.798L87.4479 194.976L88.8677 194.991C88.472 193.607 89.9108 193.042 90.7971 192.439C91.1242 192.216 90.6664 191.727 91.1035 191.344L89.0677 191.295C89.134 190.505 86.9549 189.432 87.217 188.971L87.9693 188.765L87.763 188.013L89.559 187.925L90.4813 186.863C91.1679 187.346 92.2031 187.507 92.3138 188.383L94.1948 187.867C94.2366 187.208 93.6272 187.169 93.5607 187.029C93.1472 186.156 92.7868 185.122 92.8385 184.396L91.8797 183.85L92.1527 183.371L91.6734 183.098C92.1483 182.632 91.7437 182.277 91.7401 181.866C91.7391 181.7 92.0406 181.517 92.0131 181.387C91.9983 181.318 91.1629 180.912 91.2758 180.173C91.8649 179.696 92.5379 180.203 92.6956 180.188C93.5136 180.118 94.1418 179.444 94.9195 180.185L94.7496 181.041C96.0487 181.574 96.4532 182.135 96.652 183.552Z" fill="#284655"/>
<path d="M215.606 254.477L214.854 254.684L215.54 255.709L214.787 255.916L215.03 258.276C213.967 258.337 213.427 259.509 212.998 260.451C212.783 260.923 212.412 261.134 212.743 261.735C213.171 261.29 213.673 260.893 214.333 260.894C214.661 260.897 216.034 261.936 216.711 261.455C216.786 262.244 217.642 262.135 217.072 262.772C217.708 263.128 218.78 263.719 219.093 264.24C219.454 264.849 219.213 265.623 220.361 265.915L219.406 267.593L218.926 267.32C218.703 267.907 217.419 268.283 216.772 268.315C216.477 268.331 214.534 267.719 214.206 267.805L213.744 268.336L213.538 267.584L211.399 267.159L211.193 266.407C211.708 265.926 211.363 264.993 210.747 265.518C210.196 265.989 210.191 267.03 209.894 267.572L210.425 268.033C209.056 267.936 207.956 271.299 207.198 271.75C206.746 272.019 204.19 272.85 204.103 273.003L204.309 273.755C201.668 274.965 202.007 272.041 201.294 270.133L202.422 269.824C202.221 268.528 203.711 267.46 202.998 266.025L205.049 264.654L204.843 263.901L205.971 263.592L205.662 262.463L204.961 262.858L204.224 261.644C203.135 261.922 203.254 261.235 202.221 260.98C200.825 260.639 200.076 258.939 199.873 257.579L202.233 257.336L202.44 258.089L203.192 257.882L203.398 258.635L205.929 257.536L206.872 259.502L207.967 259.808L208.222 258.525C208.747 258.434 210.387 256.552 210.391 256.11L210.37 253.082L214.696 251.896C216.032 252.399 215.487 253.495 215.606 254.477Z" fill="#284655"/>
<path d="M287.034 224.371L285.906 224.681C285.985 225.428 286.688 225.809 287.344 225.5C287.647 227.298 289.081 227.07 290.408 227.087C290.701 227.091 291.648 227.907 292.086 228.042C291.257 228.884 291.832 229.386 291.849 230.129C291.853 230.351 291.361 230.943 291.834 231.549C291.763 231.702 290.501 231.158 290.311 231.158C289.891 231.16 287.878 231.518 287.763 231.452C287.357 230.253 286.263 229.538 284.887 229.814L285.299 231.319L283.795 231.732L284.001 232.484L282.599 233.273L282.909 234.402L282.156 234.608C282.415 235.358 281.805 235.57 282.569 236.113L281.064 236.525L280.858 235.773L278.394 235.64C278.436 234.775 277.431 234.444 277.451 233.674C277.479 232.582 277.312 232.312 277.208 231.313C277.123 230.503 277.678 229.28 276.862 228.577L277.408 227.618C276.733 227.031 276.169 227.319 275.372 227.57L274.259 226.459L274.547 224.56C275.418 224.479 275.698 224.099 276.033 223.344L276.889 223.513L278.855 222.57C279.168 223.993 280.012 223.264 280.857 223.234C281.042 223.228 281.344 223.727 281.901 223.352L281.591 222.224C282.462 222.183 282.502 221.177 282.975 220.631L285.299 218.78C285.852 219.336 287.731 218.829 288.105 219.426C288.409 219.917 287.766 220.356 287.662 220.761C287.605 220.979 287.657 221.806 287.595 221.993C287.321 222.837 286.399 223.296 287.034 224.371Z" fill="#284655"/>
<path d="M154.5 276.494L155.629 276.185L155.872 278.545L155.119 278.752C155.191 279.189 155.443 279.65 155.481 280.068C155.529 280.585 155.438 281.609 155.996 281.949L155.863 284.413C155.697 284.62 155.619 284.969 155.454 285.132C154.933 285.651 154.611 285.909 154.977 287.083L154.003 287.956L154.21 288.709C153.345 288.622 153.212 290.07 152.826 290.302C151.808 290.909 149.442 290.247 148.685 289.213L148.184 285.912L149.125 285.654L149.534 284.935L149.225 283.806L150.42 282.265L149.477 280.299L150.229 280.093L150.023 279.34C150.074 279.249 150.437 279.332 150.587 279.186C151.152 278.634 152.084 276.077 152.498 275.83C153.315 275.343 154.377 275.497 154.5 276.494Z" fill="#284655"/>
<path d="M151.112 131.403L152.053 131.145L153.354 132.204L153.391 133.812C154.143 134.03 153.389 134.706 153.855 135.504L153.103 135.711L154.268 137.009L153.515 137.216C153.461 137.829 154.136 137.988 154.15 138.053C154.181 138.182 153.879 138.366 153.877 138.532C153.873 139.006 154.119 139.416 154.562 139.558L154.665 139.934L153.692 140.808C153.642 141.436 154.304 141.566 154.326 141.645C154.354 141.747 154.446 143.218 154.465 143.629C154.474 143.821 153.975 144.451 154.45 145.049C153.277 145.638 152.234 145.034 151.08 144.558C150.444 143.596 149.617 143.09 149.502 141.755C149.49 141.608 149.714 140.345 149.842 140.043L148.795 137.701L149.769 136.827C148.742 136.049 148.508 134.164 149.113 132.962L148.922 130.79C149.929 130.405 150.871 130.215 151.112 131.403Z" fill="#284655"/>
<path d="M253.584 134.85L252.831 135.056L253.244 136.561L251.533 136.221L252.322 137.623L251.193 137.933L251.399 138.685L249.415 138.825L250.307 140.602L247.401 141.804C247.744 143.469 246.265 143.855 244.804 144.134C244.426 143.344 244.618 142.895 245.092 142.235L244.51 141.586C245.433 140.807 245.037 138.654 245.805 138.197C246.101 138.023 246.638 138.062 246.934 137.887C247.581 137.504 248.69 133.733 250.538 134.067L250.792 132.784L251.648 132.954L253.05 132.165L253.872 132.951L253.584 134.85Z" fill="#284655"/>
<path d="M185.138 217.126L184.386 217.333L184.592 218.085L183.84 218.291C184.247 219.276 182.974 219.576 183.979 220.275C182.858 220.389 183.25 221.495 182.699 222.245L181.655 222.126L182.068 223.631C181.034 223.708 180.304 224.689 180.6 225.652L179.847 225.858L180.054 226.61L179.301 226.817L179.508 227.569L178.755 227.775L178.962 228.528C178.003 228.629 177.202 229.116 176.963 230.087C176.913 230.291 177.169 230.561 177.117 230.652C177.071 230.733 176.733 230.668 176.553 230.806C176.41 230.919 176.405 231.227 176.28 231.286C175.177 231.807 174.196 231.578 173.167 231.735L171.954 232.472L171.699 233.756C170.422 232.565 168.726 234.138 167.354 234.138C167.132 234.138 166.618 233.592 166.396 233.592C166.136 233.59 164.156 233.802 164.035 233.835C163.956 233.857 163.827 234.519 163.198 234.469L162.94 233.529C162.361 233.04 161.777 233.107 161.093 233.429C160.957 233.494 160.944 233.874 160.819 233.908C160.695 233.942 160.506 233.634 160.34 233.635C160.086 233.636 159.835 233.842 159.588 233.841C159.238 233.836 158.164 233.059 158.235 232.594L156.73 233.007L156.523 232.255C155.036 232.481 154.052 232.002 153.972 230.325C153.965 230.182 154.214 230.028 154.245 229.846C154.266 229.715 154.115 229.566 154.142 229.47C154.391 228.564 155.187 227.808 156.193 228.098C156.86 228.291 157.979 228.963 158.726 229.224L159.666 228.966C160.139 230.499 161.112 229.945 162.148 229.903C163.012 229.868 163.993 230.069 165.073 229.506L165.279 230.258C165.868 229.987 166.858 229.983 167.348 229.691C167.54 229.577 167.703 228.845 167.894 228.732C168.354 228.46 169.266 228.485 169.775 228.216C170.284 227.947 171.438 226.198 171.62 226.092C172.545 225.543 174.109 226.259 175.212 225.916L176.337 223.383C175.803 222.069 176.568 222.146 177.293 221.705C177.376 221.654 178.247 220.125 178.248 220.027C178.25 217.968 178.614 218.572 178.758 217.46C179.041 215.263 179.529 215.655 180.532 214.344C180.919 213.838 181.341 213.148 181.06 212.582C181.495 212.515 181.972 212.247 182.377 212.221C182.524 212.213 182.689 212.487 182.856 212.494C183.098 212.504 183.353 212.285 183.609 212.287C183.84 212.289 184.463 212.866 184.807 212.97C184.022 213.824 184.488 214.226 184.571 215.057C184.583 215.207 184.264 215.412 184.298 215.537C184.323 215.631 185.267 216.298 185.138 217.126Z" fill="#284655"/>
<path d="M158.897 215.829L157.956 216.087L157.547 216.806L157.805 217.747C157.706 217.919 156.16 218.06 155.736 218.314C155.145 218.666 154.908 221.227 153.412 220.165L153.036 220.268C150.978 221.083 148.567 222.497 146.574 223.254C145.574 223.633 144.399 223.773 143.376 224.131L142.263 223.02C143.01 222.265 142.461 221.546 142.875 220.83L141.762 219.72L142.599 219.085L144.207 219.049C144.346 218.392 144.968 218.565 145.232 218.363C146.715 217.237 146.599 214.688 148.855 215.347C149.907 213.477 152.586 214.158 153.812 212.774L154.188 212.671C155.025 213.51 155.568 212.908 156.275 212.908C156.345 212.909 157.438 213.531 157.474 213.59C157.606 213.805 157.549 214.128 157.68 214.343C157.866 214.652 159.029 214.762 158.897 215.829Z" fill="#284655"/>
<path d="M183.956 202.485L184.162 203.238C184.059 203.468 183.654 203.021 183.494 203.016C181.422 202.937 180.727 204.091 178.877 203.878L177.955 204.94L177.475 204.667L177.221 205.95C177.037 205.972 176.837 206.128 176.656 206.105C175.504 205.96 175.492 206.578 174.296 206.348L173.101 207.889L171.117 208.029C170.13 207.616 169.174 206.507 168.155 206.818L167.588 204.749C167.837 204.034 168.374 203.794 169.126 203.721C169.276 203.708 169.481 204.028 169.605 203.994C169.73 203.96 169.742 203.576 169.878 203.514C172.134 202.475 175.038 202.196 176.51 199.673L178.118 199.637L178.391 199.157L179.623 199.224C179.947 198.209 181.024 197.845 182.05 197.749C182.164 197.738 182.763 198.241 183.282 197.816L184.96 198.772L184.893 200.003L185.372 200.276C185.034 201.077 185.051 202.29 183.956 202.485Z" fill="#284655"/>
</svg>
