<svg width="444" height="409" viewBox="0 0 444 409" fill="none" xmlns="http://www.w3.org/2000/svg">
<path d="M281.324 122.245L280.911 123.242L283.815 123.278L287.166 125.055L286.948 126.521L288.856 126.144L291.348 127.176L291.061 128.809C291.079 129.206 290.848 129.951 290.705 130.607C290.475 131.66 289.8 132.876 288.802 133.322L288.985 134.76C289.714 134.775 289.86 135.465 290.01 135.574C290.433 135.886 291.408 136.492 291.671 136.262L292.198 136.87C293.273 136.003 294.139 137.183 295.131 137.306C295.516 137.353 295.888 136.588 297.067 137.33C297.771 137.773 299.549 138.716 300.665 138.041L301.386 139.119L302.521 139.199C302.849 139.881 303.645 140.206 303.133 141.01C303.781 141.278 304.252 141.699 304.823 142.099C305.671 142.692 305.548 143.365 304.799 144.035L302.255 144.539L301.728 143.931C301.251 144.321 300.938 143.876 300.594 143.851C300.19 143.82 299.508 144.319 299.265 143.3L297.053 143.941C296.983 143.332 296.496 143.426 296.194 143.196C296.077 143.104 296.117 142.81 296 142.726C294.929 141.956 294.439 142.745 294.063 142.702C292.659 142.541 290.898 142.057 289.939 141.383C289.15 140.827 287.982 140.573 287.699 141.623L286.37 141.073C285.836 141.797 285.262 142.404 285.006 143.427C284.943 143.681 285.239 144.469 284.65 145.226C284.452 145.478 283.518 145.383 283.504 146.113L284.168 146.388L283.824 147.219C283.905 147.992 284.46 147.93 284.78 148.199C284.899 148.299 284.862 148.595 284.975 148.669C285.353 148.911 287.264 149.722 287.633 149.77C287.836 149.796 288.369 149.355 288.573 149.38C288.921 149.423 290.544 150.119 290.898 150.344C291.018 150.421 290.981 150.981 291.591 151.02L291.053 151.381C291.342 152.532 292.841 152.569 293.836 153.118L293.561 153.782C294.734 153.346 295.381 153.683 296.494 154.219L296.069 156.183C295.407 156.524 294.836 157.019 294.648 157.735L293.984 157.46L293.64 158.291L292.935 158.583C292.597 157.547 290.89 157.853 290.552 156.817L287.648 156.782L287.562 155.579L286.76 155.636C285.783 153.795 282.791 155.681 282.246 153.377C281.448 153.875 280.952 153.72 280.144 153.285C279.865 154.119 279.364 154.943 279.112 155.776C279.076 155.901 279.346 156.122 279.306 156.246C278.825 157.756 277.714 159.132 277.655 160.233L276.715 160.622L276.635 161.756L273.111 163.216C272.197 163.009 270.942 162.08 270.121 161.978C269.917 161.952 269.385 162.393 269.181 162.367C267.441 162.152 266.85 161.709 265.527 160.853C264.203 159.997 262.72 160.675 261.431 159.935L261.706 159.27C259.888 158.323 258.186 158.474 256.723 157.206L256.447 157.871L255.479 157.859L254.563 156.312L251.16 156.07L250.244 154.523L249.58 154.248C249.138 154.543 248.443 154.314 247.975 154.362C247.463 154.414 247.071 155.05 246.371 154.476C245.548 153.344 244.684 151.858 245.118 150.453C243.945 150.259 244.241 149.02 243.068 148.826L243.893 146.832L242.897 146.419L243.172 145.755C242.434 145.554 241.959 144.322 242.462 143.709C242.554 143.6 242.818 143.631 242.932 143.515C243.08 143.366 243.059 143.05 243.139 143.016C243.2 142.991 243.917 143.374 244.342 142.931L244.697 141.132C245.797 140.724 245.501 138.826 246.6 138.417L246.738 138.085C246.461 137.503 246.438 136.836 245.753 136.704L247.324 133.852L248.79 134.07L249.341 132.741L248.482 131.996L247.599 133.187L245.967 132.9C244.71 131.687 242.449 131.883 240.983 130.836C240.007 130.139 238.7 130.972 237.386 130.124C235.346 128.808 236.096 129.629 234.59 129.356C234.025 129.254 233.359 128.756 232.763 128.599L233.038 127.934L231.13 128.312L230.936 127.842C229.94 128.075 229.161 127.379 228.002 127.405C226.549 127.438 224.955 128.128 223.935 126.888C222.711 127.728 221.627 127.143 220.395 126.979C219.807 126.903 218.566 126.564 217.794 126.68C215.913 126.963 216.436 126.592 214.861 126.243C214.721 126.213 214.352 126.636 213.892 126.232L213.617 126.896L212.953 126.621L212.678 127.285L211.097 125.463C210.865 126.39 210.399 126.941 209.441 127.112C208.255 127.325 206.942 126.688 205.763 127.535L205.236 126.927C204.757 127.313 204.466 126.889 204.101 126.847C203.604 126.789 202.588 127.559 202.583 128.164C201.621 127.563 200.111 127.638 199.014 127.853C198.451 127.963 196.975 128.865 196.665 128.826C196.212 128.771 195.006 127.999 194.837 128.069L194.161 128.762L194.149 129.731C193.416 129.264 192.802 130.258 192.047 129.638C191.867 129.49 191.759 128.849 191.022 128.824C190.616 129.287 191.038 129.629 191.01 129.792C190.864 130.651 190.206 130.841 189.921 131.482C189.638 131.404 189.341 131.172 189.09 131.138C187.899 130.987 186.569 131.783 185.383 131.16C185.086 132.309 183.667 132.512 182.787 133.198L182.261 132.591L181.556 132.883L180.937 134.378C180.124 134.189 177.377 136.064 176.834 136.765C176.68 136.966 176.634 137.34 176.49 137.596C175.181 137.015 173.518 137.319 173.201 138.958L171.734 138.74L171.115 140.235L170.41 140.527L169.58 140.183C169.143 141.134 168.336 141.711 168.078 142.869C168.047 143.008 168.47 143.378 168.066 143.837L165.603 143.206L164.25 144.592L165.04 145.503L164.765 146.168L160.869 148.057L160.513 149.856C159.354 150.399 158.934 152.117 157.488 151.522C157.81 152.5 157.751 153.394 157.12 154.289C156.751 154.813 155.262 155.204 155.103 155.399C154.36 156.318 153.791 157.176 153.2 158.114C153.124 158.231 152.775 158.199 152.73 158.309L152.982 159.581C152.486 159.574 152.357 160.252 152.305 160.274C152.244 160.299 151.527 159.916 151.102 160.359L152.075 162.709C150.858 163.29 149.517 163.322 149.245 164.844L148.58 164.569C148.146 165.25 147.575 165.643 147.353 166.591C147.321 166.726 147.593 166.951 147.548 167.061C147.503 167.171 147.176 167.133 147.078 167.256C146.575 167.888 147.456 169.191 145.783 169.444L145.496 171.076L146.687 171.959C146.484 172.299 146.416 172.847 146.205 173.122C146.081 173.28 144.312 174.074 144.188 174.232C143.949 174.538 143.4 175.797 143.099 175.922L142.435 175.647L142.216 177.113L142.881 177.389C142.415 178.223 142.2 179.446 141.711 180.213C141.637 180.326 141.341 180.289 141.241 180.407C140.905 180.805 140.926 181.347 140.026 181.461L141.344 182.979L140.254 184.669L141.045 185.58C141.173 185.89 139.805 186.92 139.291 186.995L138.717 190.26C137.607 190.91 137.433 192.616 137.272 193.748L137.937 194.024L136.95 198.286L137.614 198.561L137.064 199.89L137.728 200.165C137.226 200.907 136.357 201.793 136.226 202.851C136.181 203.214 136.953 204.328 135.996 205.286L136.661 205.561C136.328 206.288 136.885 207.632 137.634 207.911C137.404 208.652 137.006 209.83 136.934 210.54C136.915 210.735 137.327 211.038 136.922 211.508L137.919 211.921C137.245 212.767 138.462 213.232 138.503 213.33C138.539 213.42 138.274 213.637 138.296 213.829C138.417 214.871 139.343 215.399 138.192 216.9L138.982 217.811L138.707 218.475L140.036 219.026L139.21 221.019L139.875 221.294C139.493 222.14 140.048 223.121 140.985 223.311L140.71 223.976C141.584 224.404 141.464 225.444 142.76 225.603L142.348 226.6L143.012 226.875L142.737 227.54L144.175 227.357L145.675 230.314L147.364 231.403L146.952 232.399C147.512 232.701 148.257 232.839 148.779 233.156C149.401 233.535 150.197 234.853 150.359 234.979C150.718 235.26 152.117 235.566 152.187 235.736L151.636 237.065C153.074 237.267 153.054 238.773 154.213 239.3L155.125 238.509L155.457 238.647C155.53 239.335 156.251 239.221 156.648 239.53C157.022 239.821 156.987 241.437 158.395 241.421L158.12 242.085L160.084 242.51C160.15 243.121 160.657 243.027 160.944 243.255C161.345 243.573 161.084 244.898 162.524 245.078C163.035 245.141 163.712 244.032 164.93 244.907C165.051 244.991 165.009 245.309 165.125 245.376C165.898 245.841 166.738 245.881 167.313 246.672C168.302 246.774 170.909 246.391 171.656 246.525C173.036 246.773 175.374 248.08 176.777 248.256C177.229 248.311 177.773 247.299 178.409 248.544L179.43 247.02C180.416 247.016 180.399 248.11 180.649 248.304C181.05 248.614 181.678 248.555 182.007 249.255L182.42 248.259C183.541 249.038 184.559 248.6 185.685 248.833C186.356 247.41 187.611 248.186 188.865 248.204C189.948 248.22 190.751 248.471 191.048 247.162L192.045 247.574C192.481 246.163 194.565 247.486 195.001 246.075C196.204 247.052 200.676 245.595 201.43 244.65C202.68 243.078 205.765 242.266 207.286 240.848C208.054 240.131 208.292 239.039 209.372 239.572L210.266 237.412L211.469 237.327L211.745 236.662L213.211 236.88C213.808 236.042 214.597 235.442 214.312 234.223L215.309 234.635L216.455 233.748L216.398 232.946L217.281 231.754C216.791 231.217 218.089 230.564 218.301 230.231C218.678 229.64 218.835 228.716 219.195 228.071C219.773 228.462 220.261 228.007 220.868 227.791L220.617 226.519L221.362 225.66C221.118 224.52 222.064 222.884 222.211 221.731C222.227 221.609 221.727 220.409 221.765 219.989L223.243 219.239C222.679 218.834 222.451 219.008 221.943 219.089C221.377 219.178 218.838 219.275 218.402 219.18C217.77 219.043 216.975 218.425 216.409 218.354C216.22 218.33 215.749 218.715 215.469 218.743C215.058 218.787 214.341 218.564 213.865 218.857L212.617 217.173C212.308 217.251 211.959 217.519 211.677 217.562C210.855 217.685 208.892 217.37 208.079 216.85C207.993 216.795 207.949 216.177 207.22 216.105C206.853 216.07 206.213 216.365 205.588 215.818L204.677 216.608L201.658 214.969L201.383 215.633L200.18 215.719C199.606 216.333 199.357 217.227 198.884 217.907C198.653 218.239 197.412 218.726 197.337 218.823C197.005 219.249 196.922 220.539 196.082 220.444C194.572 220.274 194.801 220.369 193.635 221.182C192.873 221.715 192.232 221.157 191.435 220.854C191.512 221.525 189.888 222.42 189.447 222.366C188.855 222.292 188.275 221.55 187.648 222.01L187.397 220.738L185.403 219.913L185.318 218.71C184.628 218.486 183.989 217.895 183.353 218.285C183.191 218.055 183.107 217.459 182.964 217.345C181.86 216.468 181.293 215.158 180.467 213.976C179.851 213.094 180.637 212.645 180.725 211.942C180.805 211.29 179.951 211.143 179.769 210.962C179.587 210.782 179.696 210.34 179.076 210.286L179.89 209.261L179.764 208.625L180.429 208.9L180.841 207.903L179.845 207.49L180.12 206.826C178.776 206.386 178.043 206.09 177.709 204.659C177.23 205.045 176.939 204.621 176.575 204.579C176.077 204.521 175.623 205.212 175.526 205.701L174.168 204.75L173.585 203.34L171.843 203.787L170.984 203.041L170.015 203.03L170.291 202.365C169.832 201.961 169.462 202.384 169.323 202.353C168.474 202.165 167.52 201.451 166.665 201.252C165.809 201.054 164.748 200.626 163.537 200.346C163.402 200.314 163.177 200.586 163.067 200.541C163.001 200.513 162.748 199.724 162.042 199.727L162.455 198.73L161.487 198.718C161.341 198.187 160.744 198.03 160.668 197.406C160.605 196.901 160.063 195.56 159.597 194.822C159.523 194.702 158.963 194.474 158.973 193.98L160.176 193.894L160.051 193.258L160.796 192.399L161.358 190.102L162.022 190.377C162.133 189.987 162.433 189.582 162.504 189.214C162.526 189.095 162.121 188.663 162.585 188.08C162.715 187.916 163.399 187.853 163.524 187.691C164.08 186.979 165.021 184.539 164.374 183.761L164.843 183.567L164.454 182.627L165.657 182.541L166.07 181.545L167.273 181.459L167.56 179.827L168.225 180.102L168.638 179.105L169.302 179.38L169.715 178.384C170.19 178.787 170.458 178.384 170.683 178.395C171.875 178.449 172.646 178.769 173.507 179.565C173.704 178.705 174.204 178.935 174.751 178.912C175.297 178.89 177.795 179.165 177.987 179.085C178.551 178.852 178.051 178.151 180.033 178.376C180.301 178.405 181.184 177.759 181.442 177.792C181.756 177.833 182.125 178.164 182.439 178.205C182.994 178.275 183.683 176.809 184.485 177.495L185.035 176.166L185.699 176.441C185.726 175.861 186.347 175.818 186.376 175.749C186.41 175.665 186.101 174.646 186.663 174.116L187.327 174.391C187.519 173.431 188.474 173.239 189.218 172.644L189.23 171.676L190.559 172.227C191.406 171.367 190.613 170.47 190.652 170.124C190.758 169.172 192.205 168.751 192.932 169.317C193.101 169.247 193.408 167.849 193.689 167.49C193.839 167.295 196.411 166.236 196.771 166.626L198.01 163.636C198.624 163.676 198.57 164.218 198.703 164.312C200.043 165.249 201.205 163.589 202.713 164.027C203.505 163.873 204.319 162.988 205.091 163.455L205.103 162.487C205.154 162.364 206.5 162.12 206.61 162.138C207.129 162.229 207.783 162.764 208.271 162.826C208.433 162.847 208.922 162.504 209.21 162.437C209.297 162.415 209.438 162.593 209.543 162.574C210.199 162.457 210.414 162.068 210.591 161.452L213.249 162.553C213.829 161.314 215.028 161.558 216.125 162.187C216.257 161.502 216.925 161.479 217.506 161.202C217.804 162.287 218.924 161.568 219.666 162.097L220.079 161.1L221.768 162.189C222.977 161.573 224.438 163.027 224.948 161.56C225.825 162.028 226.665 162.31 227.022 161.252C227.743 161.644 228.812 161.686 229.044 162.478C229.719 162.26 230.315 161.693 230.952 162.101L230.677 162.765C231.232 163.069 231.991 163.201 232.504 163.522C232.622 163.595 232.589 163.947 232.699 163.992C232.808 164.038 233.029 163.767 233.168 163.798C233.547 163.88 233.939 164.164 234.331 164.279L234.744 163.282C235.335 163.64 235.988 163.37 236.154 162.699C236.512 162.894 236.99 162.971 237.316 163.18C237.436 163.257 237.401 163.605 237.511 163.65C237.611 163.691 238.932 163.48 239.476 164.075L239.201 164.739C239.555 164.937 240.053 165.011 240.363 165.221C241.4 165.923 241.327 165.62 241.692 165.771C241.802 165.817 241.769 166.169 241.887 166.241C242.803 166.811 244.221 167.072 245.209 167.617C245.582 167.554 246.377 167.007 246.619 167.033C246.983 167.075 247.274 167.5 247.753 167.114L247.839 168.317C249.145 168.547 249.354 169.245 250.055 170.014C251.171 171.239 252.66 172.183 253.99 173.2L253.715 173.865C254.42 173.862 254.673 174.651 254.74 174.679C254.81 174.708 255.279 174.299 255.708 174.691L255.157 176.02L256.596 175.837L257.621 176.651L257.345 177.315L258.176 177.659L258.319 179.664C258.71 179.78 259.103 180.063 259.481 180.146C259.621 180.176 259.842 179.906 259.951 179.951C260.061 179.997 260.028 180.349 260.146 180.421C260.665 180.745 262.894 181.416 262.97 181.591L261.136 184.14L261.318 185.578C261.865 186.072 262.454 185.355 262.756 185.395C263.629 185.507 264.314 186.211 263.839 187.011L264.503 187.286L263.54 189.612L264.204 189.887L263.929 190.551L265.453 191.572L264.902 192.901C264.939 192.99 265.28 192.956 265.4 193.107C266.127 194.023 265.62 196.043 267.427 196.671C267.473 197.048 267.986 198.526 267.971 198.648C267.911 199.129 267.403 199.775 267.283 200.309C267.252 200.448 267.675 200.818 267.271 201.277L267.964 201.953L269.07 201.633L268.794 202.297L270.123 202.848L269.711 203.845L270.375 204.12L269.962 205.117C270.882 204.898 271.337 204.701 272.231 205.278C271.702 206.273 272.668 206.806 273.645 207.031C273.78 207.064 274.005 206.791 274.115 206.837C274.198 206.871 274.7 207.811 275.472 207.788L275.197 208.453C275.902 209.165 276.854 208.201 277.3 208.545C277.417 209.314 278.352 209.199 278.823 209.565C278.985 209.691 279.05 210.38 279.212 210.505C279.798 210.962 282.924 211.824 283.033 212.088L283.119 213.291L286.275 214.598L286.55 213.934C287.221 214.352 288.489 214.534 289.042 214.966C289.204 215.091 289.269 215.78 289.431 215.905C289.89 216.263 292.706 217.499 292.782 217.683C292.732 217.86 292.557 218.037 292.575 218.181C292.716 219.298 294.11 218.976 294.391 219.906C295.189 219.408 295.685 219.562 296.493 219.998L296.08 220.995L296.911 221.339L298.819 220.962L298.406 221.958L299.099 222.635L300.399 222.784C299.771 224.302 301.833 224.736 303.086 224.286L303.945 225.031L305.744 225.387L305.829 226.59L310.148 228.379L310.234 229.582C311.106 229.827 312.053 230.499 312.891 230.683C312.991 230.705 313.459 230.299 314.026 230.764L314.719 231.44L314.375 232.271L314.667 232.975L315.635 232.987L315.222 233.984L316.94 235.474L316.264 236.167C316.699 236.705 316.109 237.134 316.046 237.633C315.983 238.133 316.75 239.147 317.363 239.152C317.146 239.6 316.078 239.659 315.884 239.902C315.292 240.645 316.039 241.192 315.998 241.506C315.901 242.287 315.027 243.466 314.829 244.33L314.164 244.055L313.74 246.02C313.355 246.121 312.926 246.442 312.565 246.506C312.469 246.521 312.34 246.355 312.233 246.369C311.968 246.407 311.077 246.641 310.961 246.62C310.348 246.511 309.619 245.96 308.967 245.795C307.35 245.386 303.321 245.717 301.967 244.841C300.87 244.134 300.75 244.068 299.309 243.74C299.173 243.711 298.949 243.98 298.839 243.935C298.77 243.906 298.727 243.285 298.146 243.259L298.255 242.525C297.948 242.6 297.597 242.875 297.316 242.915C296.403 243.042 295.837 242.5 295.185 242.421C294.871 242.381 294.319 243.129 293.581 242.535L292.859 241.458L290.923 241.434L290.007 239.887L288.735 240.139L287.681 238.924C285.935 239.917 284.056 237.461 282.285 237.856C281.903 235.931 279.494 236.541 278.436 235.873C278.319 235.797 278.351 235.448 278.241 235.403C277.233 235.608 277.204 236.666 276.779 237.522L277.444 237.797C276.995 238.6 276.937 239.849 276.08 240.151L276.4 241.257L273.937 240.626C273.606 241.847 272.93 242.868 271.645 242.401C271.084 243.162 271.555 243.567 271.621 244.338L269.02 244.039L267.53 245.757C267.14 245.646 266.738 245.347 266.367 245.275C265.51 245.107 264.197 245.384 263.268 244.77L262.993 245.434C260.936 245.015 259.113 244.069 257.041 243.358C256.922 243.317 256.69 243.595 256.571 243.553C255.278 243.115 254.038 242.434 252.751 241.97L253.187 239.037C252.568 238.991 252.646 238.483 252.494 238.361C251.526 237.579 251.609 238.45 251.343 236.911C251.229 236.257 250.555 236.024 250.427 235.364L251.241 234.339L250.576 234.064L251.677 231.406C250.417 231.047 251.393 230.035 250.87 229.125L249.432 229.308L249.157 229.973C248.446 229.678 248.245 228.68 247.33 229.216C247.101 228.031 246.123 227.957 245.113 227.519L244.838 228.184C243.317 227.768 242.51 226.616 240.989 226.2L240.714 226.865L238.858 225.707L238.801 224.905L238.222 225.832L236.755 225.614L236.172 224.205L233.737 223.975L233.462 224.639L231.967 224.02L231.881 222.817C231.338 222.315 230.818 222.688 230.581 222.667C230.251 222.636 229.507 222.6 229.446 222.587C228.967 222.485 228.448 222.111 227.951 221.967L228.008 222.77L227.344 222.494C226.941 222.97 227.345 223.242 227.332 223.463C227.298 224.052 227.351 225.051 227.308 225.399C227.246 225.898 226.657 226.324 227.09 226.865L226.953 227.198C225.684 227.489 225.023 229.084 225.714 230.188L224.637 230.909L224.419 232.376L223.135 233.596L222.47 233.32L222.321 234.621L221.645 235.314L220.98 235.038C220.971 236.245 219.777 236.319 219.559 236.591C219.211 237.026 219.238 237.516 218.344 237.644C218.073 237.875 219.376 237.99 218.733 238.584C218.216 239.062 217.583 238.645 217.53 238.669C217.447 238.709 217.471 239.019 217.324 239.168C217.205 239.286 216.922 239.254 216.854 239.362C216.507 239.908 216.054 240.965 216.36 241.493L215.157 241.579L214.939 243.045L214.275 242.77L213.999 243.435C212.904 242.884 212.451 244.035 211.914 244.711C211.709 244.969 210.785 244.871 210.767 245.599L209.301 245.381L208.888 246.377C207.821 245.955 206.981 246.716 206.733 247.82C205.428 247.42 204.213 248.446 203.971 249.79C203.105 249.684 201.154 249.978 200.82 250.82L200.156 250.545L199.273 251.736L197.446 250.979C197.23 251.104 196.927 251.142 196.741 251.271C195.213 252.339 192.905 252.018 191.338 253.509C190.791 253.353 190.1 253.227 189.539 253.154C189.199 253.11 189.184 253.493 188.542 252.741C187.668 253.141 186.747 253.184 186.554 254.252L185.087 254.034L184.812 254.699C184.187 254.553 184.165 253.827 183.455 253.747C183.299 253.729 183.094 253.987 182.985 253.942C182.902 253.907 182.4 252.968 181.627 252.99L181.352 253.655L180.023 253.104L179.61 254.101L178.946 253.826L178.671 254.49L177.702 254.478L175.32 252.713C174.95 252.778 174.146 253.329 173.91 253.297C173.007 253.184 172.741 252.248 171.888 252.07C171.433 253.123 170.3 253.179 169.345 252.573L169.069 253.238C168.881 253.316 166.23 251.945 165.581 251.793C165.347 251.739 165.076 252.335 164.916 251.518L162.98 251.494L162.591 250.554C162.358 250.505 162.146 250.304 161.926 250.279C160.823 250.153 159.133 248.877 157.607 248.49C155.483 247.953 156.569 247.99 155.419 247.195C154.524 246.575 153.202 246.665 152.956 246.564C152.847 246.518 152.883 246.187 152.762 246.094C152.572 245.949 152.259 245.963 152.097 245.819C151.935 245.674 152.025 245.193 151.404 245.142L151.817 244.146L150.82 243.733L151.096 243.068C150.666 242.676 150.197 243.085 150.127 243.056C150.018 243.011 150.056 242.684 149.933 242.587C149.347 242.122 148.937 242.528 148.798 242.506C147.891 242.356 147.707 241.505 146.805 241.68L146.416 240.741L145.614 240.798C145.108 240.168 145.351 239.12 144.973 238.586C144.191 237.476 141.301 237.011 141.978 235.01C141.723 234.865 141.349 234.819 141.147 234.666C139.912 233.711 140.06 232.227 138.679 231.698L138.954 231.033C137.584 230.216 137.47 227.588 135.931 227.056L136.344 226.059L135.554 225.148L136.367 224.123L134.374 223.297C134.774 222.821 134.388 222.579 134.386 222.329C134.386 222.123 134.635 221.907 134.661 221.665C134.71 221.218 132.911 220.025 133.024 219.04C133.163 217.81 133.042 217.059 132.423 216.262C131.961 215.666 132.36 215.118 132.338 215.058C132.318 215.003 131.519 214.743 131.547 214.147L132.888 213.729L130.895 212.904L131.445 211.575L130.781 211.3L131.95 208.476C131.535 207.572 131.436 206.383 131.654 205.434L130.462 204.551C130.394 204.378 131.262 202.901 131.357 202.391C131.482 201.704 130.474 199.457 130.796 199.045C132.47 198.427 131.036 196.973 131.095 196.445C131.137 196.08 131.561 195.789 131.176 195.31L131.314 194.978C132.379 194.641 133.177 193.815 133.411 192.733C133.439 192.6 133.203 192.417 133.217 192.263C133.235 192.041 133.465 191.833 133.492 191.599C133.567 190.937 132.186 190.034 133.126 188.723C133.208 188.609 133.79 188.605 133.871 187.864L133.425 186.122L134.777 184.736C134.374 184.187 134.876 183.804 134.996 183.269C135.084 182.878 134.656 183.234 135.271 182.605C135.387 182.485 135.391 182.258 135.477 182.107C134.736 181.905 134.265 180.674 134.768 180.061C135.286 179.957 135.618 179.304 135.983 179.007C136.511 178.576 137.256 178.725 137.404 177.455L136.407 177.043L137.084 176.35L136.889 175.88L138.367 175.13L137.703 174.855L138.941 171.864L139.606 172.14L139.618 171.171L141.177 169.287C140.096 168.945 140.571 168.39 140.662 167.712C140.681 167.56 140.421 167.351 140.467 167.242C140.512 167.132 140.865 167.165 140.937 167.047C141.172 166.666 141.246 166.027 141.487 165.718C141.851 165.254 143.776 165.389 143.184 163.502L144.65 163.72C144.904 163.642 144.308 162.799 144.33 162.614C144.487 161.352 145.468 161.501 145.682 161.228C146.191 160.575 146.421 159.031 146.921 158.238L148.124 158.153C148.373 156.781 149.788 156.682 149.626 155.466L150.703 154.745C150.792 154.408 151.064 154.061 151.116 153.748C151.227 153.086 150.679 152.547 152.136 152.225L152.355 150.758C153.038 150.66 152.941 150.009 153.237 149.567C153.433 149.274 153.97 149.368 153.788 148.238L154.991 148.152L155.553 145.855L157.582 143.776L158.413 144.12L160.332 142.775L160.138 142.305L161.284 141.417L161.948 141.693C162.131 141.617 162.659 139.667 162.98 139.201C163.517 138.423 166.225 137.805 166.35 136.704C166.403 136.228 166.565 135.649 167.038 135.043C167.182 134.854 168.14 134.675 168.447 134.459L168.459 133.491C168.997 133.998 169.783 133.537 170.092 133.778C170.239 133.893 170.166 134.408 170.785 134.454L171.931 133.567L171.874 132.765L173.616 132.318L173.559 131.516C174.195 131.492 174.899 130.452 175.341 130.503C177.41 130.741 176.352 130.326 177.26 129.157C177.659 128.645 179.514 128.351 180.068 128.958C179.996 128.286 181.603 127.395 182.056 127.446C182.287 127.472 182.49 127.696 182.721 127.721C182.857 127.739 184.312 127.225 184.697 127.178L184.045 125.934L186.479 126.164C187.48 126.014 188.218 125.032 188.33 124.985C188.42 124.948 188.637 125.213 188.829 125.191C189.225 125.145 189.796 124.708 190.238 124.607L191.596 125.559L191.607 124.591C192.103 124.598 192.232 123.919 192.284 123.898C192.364 123.865 192.571 124.106 192.782 124.104C193.012 124.102 193.923 123.83 194.054 123.853C194.48 123.932 194.984 124.351 195.383 124.403C195.853 124.462 196.454 123.434 196.93 123.487C197.93 123.601 198.904 123.701 199.445 122.583L200.442 122.996L200.454 122.027C200.78 121.972 201.417 121.516 201.628 121.541C201.863 121.568 202.071 121.798 202.293 121.816C203.456 121.912 203.982 122.352 204.756 122.447C205.026 122.481 206.718 121.835 207.328 122.345L207.604 121.68L209.597 122.506L210.48 121.315L213 122.748L213.275 122.084C214.211 122.794 216.498 121.651 217.12 121.73C217.523 121.78 218.045 122.23 218.448 122.28C218.686 122.308 219.473 121.751 219.858 121.696C220.787 121.559 222.579 122.212 223.622 122.477L224.533 121.687L224.727 122.156L226.028 122.306L225.615 123.303C226.098 123.697 226.542 123.161 226.915 123.452C227.062 123.567 226.989 124.082 227.608 124.128C228.638 122.215 230.67 124.011 232.312 124.519L234.053 124.073L234.884 124.417L234.609 125.082L240.67 126.424L240.394 127.089C241.34 127.963 242.456 126.896 243.161 127.457C243.715 127.896 244.062 127.838 244.685 128.477L245.625 128.088L248.643 129.727C249.263 128.4 249.464 126.825 250.89 126.182L250.444 124.44C251.055 124.374 250.961 123.868 251.189 123.581C251.519 123.169 253.416 123.25 252.679 121.863L253.894 120.809C253.492 119.786 254.984 118.657 253.46 118.099L254.342 116.908L255.007 117.183L255.42 116.186C255.916 116.688 256.618 116.309 256.72 116.336C258.071 116.674 259.455 117.391 260.844 117.655C261 117.684 262.316 117.513 262.449 117.541C263.947 117.87 264.902 119.23 266.516 118.058L266.848 118.196C267.068 118.925 267.28 119.305 268.068 119.479C268.321 118.568 269.244 118.577 269.976 119.102C270.117 119.203 270.273 119.906 271.001 119.916L270.657 120.746L271.253 121.188C271.634 120.042 273.008 120.342 273.355 121.28C273.782 121.321 274.964 120.818 275.097 120.834C276.601 121.009 278.397 122.236 279.886 122.428C280.188 122.468 280.778 121.751 281.324 122.245ZM283.716 128.686L281.946 128.731L278.567 126.553C277.852 126.802 277.06 126.47 276.853 127.4L273.227 126.287C272.891 124.572 271.613 124.462 270.152 123.846L269.876 124.51L268.244 124.223C267.766 121.966 265.067 124.32 264.532 121.907L260.574 120.657L260.78 120.158L260.185 119.717C260.203 120.406 259.432 120.643 259.371 120.742C258.969 121.421 258.814 122.415 258.408 123.068C258.115 123.539 257.811 124 257.387 124.591C257.094 124.999 256.88 125.638 257.169 126.058L256.63 126.419L257.627 126.832L257.478 128.132L256.4 128.853C256.503 129.826 256.138 129.628 255.988 129.85C255.837 130.072 255.785 130.424 255.644 130.681L256.64 131.094C256.39 131.547 256.288 132.178 256.021 132.589C255.947 132.702 255.647 132.664 255.551 132.783C255.085 133.353 255.493 133.798 255.471 133.918C255.4 134.285 255.1 134.69 254.989 135.08L253.992 134.668C253.671 135.367 253.343 135.85 253.802 136.535L254.633 136.879C254.324 137.409 254.201 138.242 253.876 138.706C253.794 138.82 253.498 138.783 253.406 138.901C253.105 139.29 253.484 139.54 253.463 139.703C253.434 139.952 253.194 140.249 253.119 140.534L251.916 140.619C251.612 141.513 251.089 142.39 250.815 143.277C250.255 145.1 250.355 146.305 249.221 148.066C249.147 148.179 248.847 148.141 248.751 148.26C247.95 149.236 249.188 150.411 250.291 150.65C250.427 150.679 250.631 150.421 250.761 150.455C251.3 150.593 251.952 151.085 252.422 151.143C252.626 151.169 253.159 150.728 253.362 150.754C254.032 150.837 255.017 151.635 255.688 151.717C255.891 151.743 256.424 151.302 256.627 151.328C257.109 151.388 257.753 151.9 258.288 152.016C258.421 152.044 258.604 151.808 258.758 151.822C259.453 151.892 260.053 153.386 260.671 153.782C261.289 154.178 262.186 154.316 262.83 154.676L262.555 155.341L263.414 156.086L263.69 155.421C264.149 155.826 264.519 155.403 264.658 155.433C265.221 155.557 267.546 156.505 267.98 156.809C268.094 156.891 268.057 157.187 268.175 157.279C268.564 157.58 268.831 157.197 268.977 157.222C270.407 157.472 271.828 159.049 273.474 158.112L273.222 156.84L274.643 155.288L275.308 155.563L275.721 154.566L275.056 154.291C275.104 153.462 275.79 153.205 276.008 152.934C276.12 152.793 276.002 152.402 276.558 151.605C277.066 150.877 277.158 149.837 276.857 149.004C278.224 147.846 277.509 146.039 278.841 145.155L278.864 143.218C279.928 142.783 279.861 141.911 280.492 141.168C280.592 141.05 280.872 141.088 280.962 140.973C280.751 139.979 281.031 139.161 280.928 138.235L281.066 137.903C283.005 136.643 283.164 134.436 284.265 133C284.495 132.698 284.4 132.211 285.01 132.141L284.219 131.23L284.77 129.901L283.441 129.35L283.716 128.686ZM246.301 173.908C246.134 173.862 245.969 173.704 245.803 173.702C245.637 173.699 245.436 173.939 245.333 173.896C245.223 173.851 245.256 173.499 245.138 173.426C243.669 172.51 241.291 173.347 240.35 171.832L239.078 172.084C238.59 171.804 237.985 171.405 237.554 171.063C237.177 170.763 237.451 169.923 235.836 169.573C235.703 169.546 235.519 169.784 235.366 169.768C235.129 169.74 234.917 169.5 234.702 169.493C233.79 169.457 232.534 169.793 231.688 170.191C231.464 169.078 230.279 169.852 229.695 169.365L229.5 168.895L227.426 169.204L227.231 168.734C226.436 169.264 225.312 168.725 225.048 169.776L221.698 167.998L220.426 168.25L219.4 167.436L218.988 168.433L218.323 168.158L217.773 169.487C217.313 169.082 216.944 169.505 216.804 169.475C216.116 169.322 215.354 168.785 214.645 168.58C213.808 170.3 212.65 169.007 211.603 168.877C211.481 168.862 210.281 169.361 209.861 169.323L208.973 168.177C208.658 168.685 208.54 169.59 208.217 170.004C208.058 170.208 205.936 171.057 205.604 170.674L205.329 171.338C204.798 171.041 204.299 170.892 203.793 171.286C203.639 171.405 203.676 171.748 203.587 171.785C202.153 171.093 201.541 171.949 200.075 172.276C199.47 172.411 198.734 172.674 198.098 172.819L196.86 175.81C195.797 176.486 195.591 175.584 194.798 175.15C194.548 175.603 194.446 176.234 194.178 176.645C194.104 176.758 193.033 177.587 192.963 177.699C192.557 178.332 192.389 179.329 192 180.024L190.258 180.471L190.246 181.439L189.582 181.164L189.032 182.492L187.84 181.61L185.244 183.648L183.417 182.891C183.615 182.479 183.544 182.041 183.566 181.591C183.585 181.217 183.22 181.272 182.971 181.15C182.631 182.647 181.008 182.392 179.957 181.848L179.281 182.541L179.131 183.841C178.547 183.288 177.643 184.268 177.224 184.218C176.172 184.098 175.317 184.359 174.485 184.252C173.924 184.179 173.52 183.556 172.784 184.131C172.629 184.25 172.666 184.592 172.577 184.629C171.877 184.308 171.394 183.98 170.71 184.439C170.3 186.519 169.148 185.758 167.615 186.272L168.738 187.32L167.775 189.646L167.11 189.371L166.835 190.035L167.499 190.31C167.167 191.376 166.335 192.942 165.069 192.418C164.954 192.81 164.671 193.202 164.588 193.581C164.557 193.72 164.828 193.941 164.782 194.051C164.754 194.12 164.133 194.163 164.106 194.743C164.717 194.782 164.679 195.343 164.799 195.42C165.125 195.629 166.47 196.205 166.793 196.245C167.307 196.31 167.958 195.207 169.199 196.074C169.304 196.149 169.817 197.082 169.92 197.152C170.471 197.532 171.456 197.683 172.08 198.046L172.355 197.382C173.101 197.835 173.83 197.806 174.097 196.936C174.714 196.977 174.652 197.512 174.79 197.612C175.056 197.804 175.539 197.833 175.786 198.025C175.948 198.15 176.013 198.839 176.176 198.964C176.853 199.49 178.942 200.161 179.802 200.077L179.526 200.741L180.827 200.891L181.52 201.567L181.961 200.972L182.986 201.785L184.408 200.233C183.979 199.2 185.256 198.288 184.913 197.134L186.242 197.685L187.153 196.894L187.21 197.696L188.717 197.348L189.668 195.99L191.192 197.01C190.848 195.934 191.868 196.271 192.476 195.791C192.59 195.702 192.592 195.453 192.682 195.292C192.879 195.211 195.781 196.708 196.503 196.875C196.637 196.907 196.863 196.635 196.973 196.68C197.082 196.726 197.049 197.078 197.167 197.15C197.835 197.567 201.234 198.663 201.32 198.87C200.73 199.759 201.866 200.116 202.03 200.916L201.159 201.139L202.958 201.495L202.545 202.491L203.874 203.042C203.469 203.501 203.892 203.871 203.862 204.01C203.72 204.652 203.202 205.348 203.036 206.003C202.916 206.471 203.101 208.148 202.737 208.604C202.64 208.727 202.313 208.689 202.267 208.799C202.24 208.865 202.62 209.603 202.118 210.099C203.262 210.569 204.462 209.984 204.804 211.601C206.108 210.701 207.879 211.302 208.734 212.451L210.338 212.337C211.029 213.347 211.842 212.718 212.664 213.3C212.8 213.395 212.743 213.936 213.357 213.976L213.231 213.34C213.898 212.932 214.569 213.003 214.795 213.793C215.546 213.859 216.665 214.202 217.756 214.631L218.032 213.966L219.332 214.116L220.386 215.331L222.128 214.884C223.033 216.061 225.672 215.772 227.054 216.147C227.768 216.341 228.491 216.812 229.213 217.041L228.938 217.705C229.006 217.928 229.452 217.556 229.574 217.58C230.244 217.709 231.546 218.805 231.957 219.345L236.632 219.335L237.685 220.55C238.676 220.038 240.791 220.467 241.753 221.067C241.92 221.171 242.419 221.666 242.612 221.812C242.927 222.056 243.895 222.811 244.135 222.833C245.645 222.59 247.669 223.21 248.73 223.957C249.965 224.827 252.48 225.25 253.879 226.09C254.384 225.595 253.996 224.971 254.029 224.79C254.342 222.962 256.498 223.528 256.653 223.152C255.855 221.798 256.623 221.571 257.616 220.827C258.293 220.321 260.467 219.462 260.573 219.327C260.987 218.806 261.038 218.044 262.051 218.577L262.327 217.912C263.216 218.312 264.013 218.023 264.956 218.612C265.074 218.684 265.041 219.037 265.151 219.082C265.224 219.112 266.313 219.264 266.617 219.3C266.876 219.333 267.768 218.683 268.027 218.716C268.807 218.814 269.987 219.688 270.851 219.886C270.035 221.385 270.973 221.245 271.795 221.834C272.617 222.424 273.943 223.752 274.705 224.207C275.329 224.579 276.201 224.749 276.864 225.102L276.451 226.098L277.448 226.511C277.402 227.13 276.893 227.052 276.772 227.204C276.306 227.782 276.712 228.23 276.691 228.338C276.59 228.818 276.215 229.336 276.072 229.833C276.751 230.27 277.184 230.146 277.842 229.788L278.953 231.805C279.394 231.408 279.981 231.597 280.225 231.554C280.621 231.48 281.547 231.031 281.966 231.107C282.437 231.193 284.194 231.933 284.624 232.208C284.744 232.285 284.707 232.846 285.317 232.885L285.042 233.549L286.148 233.229L286.732 234.638C286.841 234.684 287.05 234.424 287.201 234.444C288.445 234.608 289.777 235.378 290.661 235.487C290.865 235.513 291.398 235.072 291.601 235.098C292.294 235.183 294.84 236.646 295.09 236.543L295.365 235.879L297.496 236.372L297.083 237.369L298.412 237.919L298.137 238.584C298.664 239.086 299.248 238.363 299.575 238.401C300.218 238.473 300.491 239.403 301.43 239.559C303.267 239.86 304.921 241.055 306.494 240.489L307.686 241.371L308.958 241.12L310.923 241.544L310.201 240.467C311.192 239.963 311.511 239.523 311.829 238.417L311.164 238.142L311.795 235.678L310.163 235.391L308.25 233.431L306.841 234.015C306.731 233.97 306.767 233.638 306.646 233.545C305.845 232.933 305.029 232.385 303.96 232.043L304.235 231.379C303.35 231.129 302.426 230.287 301.605 230.679L299.332 228.18L299.607 227.516L297.975 227.229L296.422 225.808L296.147 226.472L294.291 225.314L294.567 224.65C293.867 223.951 293.115 224.733 292.796 224.695C292.549 224.662 291.333 224.159 291.135 224.007C290.973 223.881 290.91 223.197 290.746 223.067C289.962 222.442 289.52 221.489 289.166 221.245C288.221 220.593 286.645 220.761 286.451 219.342L286.118 219.204C283.85 218.704 280.605 217.356 279.222 215.18C278.348 215.713 278.434 214.931 278.226 214.767C278.017 214.603 277.649 214.571 277.395 214.423L277.67 213.759C276.685 213.487 275.628 212.543 274.709 212.921L272.824 211.362L273.432 210.835L270.912 209.402C270.78 210.087 270.112 210.11 269.531 210.387C268.884 210.256 268.458 208.841 268.282 208.702C267.961 208.453 267.274 208.401 266.953 208.152C266.818 208.045 266.626 207.514 265.9 206.937C265.642 206.733 265.74 205.808 265.012 205.791L265.425 204.794C263.763 204.464 263.713 203.139 264.326 201.809L263.507 200.497C262.154 201.057 262.122 199.931 261.651 199.339C261.531 199.188 261.19 199.222 261.153 199.132C261.132 199.081 261.52 198.51 261.165 198.164C261.891 197.99 261.924 197.12 262.254 196.474C261.385 196.196 261.648 195.118 260.536 194.984L260.949 193.988C260.914 193.903 260.598 193.932 260.45 193.781C259.58 192.903 258.559 188.81 258.31 188.613C257.652 188.087 257.299 188.008 257.061 186.928L255.538 185.908L255.246 185.203L255.865 183.708L255.201 183.433L255.476 182.768C254.634 182.622 254.391 181.938 253.924 181.347C252.902 180.064 251.746 178.795 250.597 177.633L250.872 176.969C249.908 176.289 248.495 177.004 248.048 175.799L247.246 175.856C247.026 175.127 246.814 174.747 246.026 174.573L246.301 173.908ZM269.29 227.413C268.26 227.87 267.964 227.448 267.187 227.321C266.954 227.283 266.418 227.645 265.721 227.103C265.63 227.03 264.947 225.72 264.472 225.418C263.967 225.096 263.196 224.967 262.645 224.661L263.034 225.601L262.828 226.099L260.009 227.267L259.034 230.561L259.698 230.836C259.454 231.669 258.352 231.707 257.612 232.113C257.762 232.774 258.092 232.985 258.735 233.161L257.634 235.819L258.631 236.232L258.355 236.897L259.684 237.447L259.77 238.65L260.572 238.593C261.085 240.624 262.881 239.569 263.614 238.296L266.576 239.134L267.28 238.842L267.086 238.372L271.314 236.621C270.781 235.22 272.06 235.038 273.011 234.404C271.569 234.013 270.255 232.282 270.984 230.84L270.32 230.565L270.87 229.236L269.014 228.078L269.29 227.413ZM198.064 202.971L196.432 202.684L194.657 200.392C193.846 200.628 193.041 201.38 192.279 200.964L191.591 202.625C190.714 202.157 189.874 201.875 189.517 202.934L188.52 202.521C188.234 203.737 187.135 204.127 186.354 204.932L186.33 206.868L183.843 208.174L184.634 209.085L184.221 210.081L184.885 210.357C184.615 211.027 184.658 213.131 185.279 213.634C185.469 213.786 185.859 213.831 186.11 213.978L185.697 214.974C186.977 215.201 187.759 216.895 188.91 217.084C189.052 217.108 189.238 216.865 189.38 216.889C189.705 216.942 190.066 217.263 190.377 217.302C190.548 217.322 191.059 217.083 191.981 217.188C192.311 217.228 193.049 216.443 193.751 217.143C193.896 216.888 193.942 216.513 194.095 216.312C194.785 215.418 195.58 214.58 196.33 213.735C196.475 213.573 196.956 213.663 197.007 213.042C196.97 212.953 196.629 212.987 196.508 212.836C195.637 211.735 196.84 210.494 195.851 209.255C196.559 209.143 195.955 208.43 196.47 207.76L197.203 207.869C196.373 206.641 197.598 205.534 197.915 204.271C197.942 204.17 197.563 203.468 198.064 202.971Z" fill="black"/>
<path d="M236.378 177.193L236.102 177.857L237.707 177.743L237.431 178.408L239.952 179.841L239.676 180.505L240.782 180.185C241.811 180.304 241.921 182.416 243.056 182.684L242.78 183.348L243.611 183.692L244.522 182.902L245.215 183.578L246.349 183.659C246.795 184.011 246.24 185.521 247.294 185.607L246.812 186.77C246.859 187.315 247.26 187.418 247.437 187.612C248.416 188.687 248.727 189.976 249.905 190.581C249.763 191.374 249.854 193.004 250.74 193.262L250.19 194.591L250.854 194.866L250.441 195.863L251.409 195.875C252.022 196.716 251.49 198.002 252.549 198.293L251.666 199.484L252.456 200.395C252.164 201.325 251.505 202.691 250.456 202.875C250.364 202.891 250.237 202.726 250.124 202.738C249.442 202.813 248.723 202.905 248.05 203.046C247.135 202.839 245.881 201.91 245.06 201.808C244.801 201.774 243.918 202.421 243.65 202.391C242.717 202.285 242.607 200.99 242.207 200.237C241.346 200.908 240.918 200.295 240.271 200.213C240.129 200.198 239.958 200.414 239.801 200.408C238.31 200.343 236.085 200.885 235.677 199.089L235.344 198.951C233.783 199.215 232.383 198.141 231.082 197.964C230.934 197.946 230.745 198.186 230.613 198.159C229.28 197.871 229.012 197.025 228.368 196.061L227.703 195.786C226.137 196.465 224.853 195.111 223.441 194.799C223.302 194.769 222.932 195.192 222.473 194.787L222.748 194.123C222.045 193.423 221.308 194.207 220.978 194.168C219.413 193.991 217.848 192.817 217.656 192.792C217.508 192.773 217.324 193.009 217.186 192.986C216.725 192.905 216.185 192.498 215.691 192.367L215.415 193.032L213.863 191.61L212.591 191.862C212.479 191.815 212.513 191.468 212.397 191.392C209.847 189.787 207.351 189.403 204.452 188.49L204.727 187.826C203.749 187.65 203.509 186.539 202.677 186.198C202.811 185.705 203.213 185.167 203.296 184.703C203.344 184.447 203.243 183.44 203.32 182.767C203.335 182.617 203.103 182.436 203.125 182.297C203.327 181.057 203.972 181.324 204.477 180.911C204.653 180.77 205.066 180.158 205.223 180.052C205.773 179.673 206.195 179.789 206.758 180.104L207.721 177.778C208.525 178.205 209.061 177.711 209.268 176.862L209.961 177.539C210.636 177.32 211.232 176.753 211.869 177.161L213.165 174.973C213.756 175.331 214.409 175.061 214.574 174.389L217.564 175.628C217.669 174.718 219.013 173.982 219.747 174.586C219.857 174.678 219.827 174.938 219.942 175.056C220.057 175.173 220.294 175.174 220.44 175.262L220.716 174.598L222.709 175.423L223.259 174.095C223.651 174.21 224.044 174.493 224.422 174.576C224.561 174.607 224.782 174.336 224.892 174.382C225.002 174.427 224.97 174.776 225.087 174.851C226.38 175.667 228.272 174.482 229.652 175.575L229.928 174.91L230.924 175.323L230.512 176.32L233.003 177.352L235.547 176.849L236.378 177.193ZM237.612 185.489C236.602 185.051 235.625 184.977 235.396 183.792L233.791 183.906C232.854 183.81 232.985 182.883 232.738 182.691C232.202 182.275 230.223 181.537 229.61 181.785C228.911 180.822 228.023 181.688 226.981 181.085C226.797 182.149 225.627 181.564 225.033 182.03C224.882 182.15 224.915 182.491 224.826 182.528C224.774 182.55 224.204 182.161 223.858 182.516C223.129 182.444 223.085 181.826 222.999 181.771C222.408 181.394 221.484 181.237 220.839 180.877L220.564 181.541L219.567 181.128C219.01 182.653 217.88 181.161 216.858 181.563L215.998 180.818C214.904 181.166 214.813 182.701 213.569 182.925C213.182 182.995 212.902 182.213 213.127 183.521L211.77 182.569C210.598 182.843 210.327 183.439 209.976 184.551L209.478 184.344C208.83 184.64 208.271 183.988 208.165 185.163C208.129 185.561 208.467 186.004 209.024 185.908C209.348 185.851 210.26 185.509 210.531 185.559C211.338 185.707 212.438 186.567 213.189 186.66C213.393 186.686 213.919 186.25 214.129 186.271C214.923 186.355 217.101 189.32 218.642 188.53L219.364 189.607L220.997 189.894L221.272 189.23C221.952 189.663 222.371 189.545 223.042 189.185C223.257 189.492 223.437 190.45 223.626 190.594C224.597 191.351 225.603 190.915 226.697 190.698C227.226 191.186 228.052 191.89 228.885 191.994C229.088 192.02 229.621 191.579 229.824 191.605C231.043 191.755 231.203 192.834 231.737 193.565C231.816 193.675 232.477 194.296 232.596 194.31L233.507 193.519C234.485 194.026 235.728 194.295 236.664 194.827C236.78 194.894 236.742 195.221 236.858 195.297C238.246 196.194 238.668 195.4 239.127 195.458C239.948 195.561 243.325 197.434 243.612 197.316L244.523 196.525L245.354 196.869L245.078 197.534L246.407 198.084C246.681 197.563 247.094 196.613 246.597 196.217C246.416 196.072 246.114 196.087 245.933 195.941C245.675 195.737 245.773 194.813 245.045 194.795L245.32 194.131L244.656 193.856L245.069 192.859C244.201 192.811 244.181 191.074 243.792 190.773C243.541 190.58 243.046 190.554 242.795 190.36C242.274 189.954 241.858 188.478 241.684 188.343C241.128 187.911 237.483 186.506 237.337 186.153L237.612 185.489Z" fill="black"/>
<path d="M271.398 136.816C270.635 137.831 271.193 138.175 271.305 138.919C271.444 139.833 270.663 140.743 271.339 141.657C269.623 141.994 269.514 143.272 268.897 144.733C268.508 144.63 268.091 144.31 267.734 144.251C267.551 144.222 266.269 144.395 266.13 144.365C265.663 144.261 263.452 143.369 263.14 143.127C263.09 143.087 262.672 142.104 262.653 141.952C262.632 141.76 262.895 141.546 262.86 141.454C262.84 141.399 262.109 141.255 262.07 140.542C262.038 139.934 262.58 140.042 262.94 140.319C262.855 139.735 262.853 139.205 263.227 138.687C263.318 138.561 263.712 138.156 263.972 137.828C264.178 137.566 265.254 137.599 265.256 136.608L264.592 136.333L265.944 134.947C266.149 134.837 266.202 135.415 266.305 135.485C267.312 136.155 269.413 136.909 270.567 136.472L271.398 136.816Z" fill="black"/>
</svg>
