<svg width="358" height="358" viewBox="0 0 358 358" fill="none" xmlns="http://www.w3.org/2000/svg">
<path d="M232.826 118.129L232.701 118.759L233.994 119.671C235.679 118.737 235.478 120.659 236.013 121.053C236.681 121.546 236.578 120.265 236.673 120.202C237.433 120.152 237.653 120.956 238.091 120.483L238.785 121.112L238.345 121.679C238.816 122.791 239.603 122.784 240.71 122.967L240.522 123.912C241.686 124.385 240.936 124.865 242.321 125.579C242.826 125.839 242.627 126.743 242.481 127.248L243.111 127.373L242.546 128.571C242.64 128.711 243.913 128.731 244.28 128.915C244.521 129.034 244.968 130.151 245.29 130.425C245.949 130.984 245.618 131.184 246.048 131.558C246.479 131.931 246.935 132.503 246.839 133.352C247.86 133.866 248.372 135.133 249.74 135.237C249.103 136.883 251.598 137.282 251.006 138.763C251.966 138.894 251.863 140.226 253.025 140.146C252.765 141.109 253.53 141.317 254.413 141.403L254.416 143.041L255.204 143.198C255.658 143.435 255.434 144.845 256.372 144.739L256.184 145.685L256.815 145.809L256.69 146.44C257.307 146.467 257.658 146.992 257.448 147.572L258.393 147.76L258.206 148.705L259.781 149.018L259.625 149.805C260.008 150.418 260.619 150.906 261.36 150.968L260.923 153.174L261.553 153.299L261.428 153.929C262.311 154.016 263.076 154.223 262.816 155.187C263.67 155.189 264.328 155.952 264.142 156.76L264.772 156.884L264.335 159.09C264.38 159.158 264.652 159.078 264.807 159.184C265.038 159.341 265.986 160.295 266.007 160.568C266.028 160.841 265.8 161.231 265.82 161.513C265.835 161.733 266.472 162.321 266.578 162.646C266.63 162.811 266.436 163.047 266.484 163.119C266.527 163.183 266.801 163.106 266.956 163.213C267.341 163.472 267.696 164.142 268.25 164.124C267.776 165.124 269.235 165.859 268.096 166.55L268.13 168.03L269.959 168.72L269.834 169.35L270.464 169.475L270.404 171.429L271.35 171.616L271.193 172.404L272.045 173.064L271.574 173.789L271.702 174.797C271.47 175.039 270.662 175.364 270.569 175.555C270.033 176.621 269.964 177.931 269.567 178.959C269.52 179.077 269.023 179.143 269.095 179.684L269.726 179.809C269.797 180.357 269.318 180.396 269.254 180.535C268.827 181.468 268.324 182.07 268.093 183.088L267.463 182.963C267.027 183.974 267.964 184.946 266.806 185.453L266.018 185.297L265.83 186.242L265.2 186.117L264.891 189.331L264.165 188.86L262.307 189.146L262.719 190.374C262.739 191.197 262.248 191.362 262.154 191.572C262.032 191.84 262.091 192.267 261.966 192.518C261.77 192.911 260.681 193.288 260.235 192.993L259.482 195.137L257.687 195.108C257.329 195.492 256.6 195.964 256.303 196.308C255.683 197.023 255.587 197.689 255.235 198.388C254.992 198.871 252.136 200.031 252.373 201.26C251.803 200.964 250.61 201.12 250.326 201.673C250.231 201.857 250.297 202.119 250.202 202.303C250.08 202.538 248.977 203.014 248.691 203.314L248.85 204.164C248.098 204.045 247.375 204.402 246.741 204.892L247.246 205.648L246.68 206.027L245.892 205.87L245.767 206.501L244.034 206.157L243.467 206.536L243.533 207.859L242.589 208.491C241.855 208.244 241.138 209.002 240.698 208.116L240.383 208.053C239.732 208.809 238.524 209.234 238.465 210.293L237.835 210.168C237.968 211.957 236.203 211.61 235.413 212.472C235.355 212.536 235.414 212.715 235.351 212.787C235.163 213.006 234.833 212.97 234.879 213.513L233.681 212.948L233.525 213.735L232.959 214.114L232.171 213.958L231.544 215.471C231.193 215.356 229.964 215.64 229.812 215.947C229.573 216.424 229.837 217.223 229.184 217.46L229.406 217.995C228.105 217.6 226.588 220.496 225.787 220.553C225.282 220.59 224.805 220.123 224.276 220.745L223.932 222.478L221.349 222.293L220.5 223.271C220.479 223.375 220.754 223.525 220.752 223.649C220.719 224.89 219.542 224.899 219.591 226.202L217.576 226.458L217.138 228.664L214.87 228.542L214.37 231.063L213.047 231.128L212.922 231.758L210.969 231.698L211.097 232.706L210.309 232.55C209.651 232.764 209.799 233.206 209.618 233.559C209.569 233.655 208.427 234.463 208.045 234.885C207.688 235.28 207.176 235.633 207.134 236.178L205.873 235.928L205.876 237.567L205.246 237.442L204.493 239.585L202.225 239.463L202.038 240.408L201.092 240.221L200.905 241.166L201.535 241.291L200.655 242.427C200.222 242.148 197.655 243.054 197.538 243.283C197.442 243.467 197.508 243.729 197.413 243.913C197.152 244.418 196.516 244.141 196.216 244.167C195.737 244.206 195.286 245.407 194.77 245.681L194.866 246.847L194.236 246.722C194.149 247.874 191.991 248.15 191.562 248.648C191.447 248.779 191.54 249.073 191.468 249.121C191.207 249.295 190.13 248.833 190.21 250.509L189.58 250.384L189.015 251.582L188.385 251.457L188.073 253.033L187.442 252.908L187.255 253.853C186.256 253.439 185.435 253.997 184.515 254.456L184.768 254.834L184.234 255.875C182.653 255.738 182.076 258.882 180.396 258.716L180.208 259.662L179.578 259.537L179.266 261.112L178.163 260.894C177.615 260.932 176.739 262.757 176.56 263.196L175.3 262.946L175.175 263.576L174.325 263.735C174.164 263.206 173.703 263.383 173.442 263.233C173.327 263.168 173.308 262.934 173.189 262.855C173.033 262.752 172.759 262.826 172.716 262.762C172.684 262.712 172.893 262.017 172.431 261.722L170.383 261.316L170.508 260.686L168.712 260.658L168.333 260.091L168.489 259.304C167.814 259.242 167.516 258.384 166.943 258.015C166.636 257.816 165.761 257.587 165.43 257.387C165.257 257.284 165.258 256.852 164.705 256.916L165.27 255.718L162.621 254.21L162.871 252.95L162.241 252.825L162.366 252.195L160.948 251.914L160.569 251.347L161.009 250.779C160.659 250.098 159.7 249.98 160.029 249.112C159.109 249.112 158.316 248.006 158.451 247.161L157.286 247.258L156.907 246.691L157.063 245.903L156.117 245.716C156.651 244.414 155.789 243.522 154.664 243.135L154.789 242.505C154 242.057 152.813 241.914 152.486 240.903C152.216 240.069 151.258 239.532 150.97 238.637C150.918 238.473 151.112 238.236 151.064 238.164L149.804 237.914L149.991 236.969L147.975 237.225C148.031 236.515 147.884 235.454 147.027 235.399L147.436 234.989L146.584 234.329L146.772 233.383L145.511 233.134C145.852 232.569 145.443 232.19 145.415 231.968C145.392 231.77 145.557 231.548 145.54 231.338C145.462 230.422 143.481 230.868 143.206 229.893L143.612 227.845C142.734 227.582 142.295 226.676 141.216 226.715L141.656 226.147C140.477 226.113 139.702 225.35 140.078 224.196L137.429 222.689L138.122 222.499C138.42 221.14 137.124 221.482 136.261 221.147C136.142 221.101 136.077 220.603 135.535 220.676C135.564 220.315 135.756 219.908 135.754 219.573C135.754 219.455 135.531 219.342 135.501 219.195C135.466 219.012 135.638 218.787 135.595 218.723C135.557 218.666 134.716 218.483 134.617 217.874L133.609 218.002L132.157 216.24L132.566 215.83C131.924 215.945 131.844 215.11 131.588 214.981C131.332 214.852 130.889 214.921 130.643 214.794C130.491 214.714 130.468 214.255 129.917 214.322L130.388 213.597C130.003 213.229 129.531 212.52 129.189 212.213C129.137 212.163 128.657 211.79 128.621 211.773C128.092 211.537 126.724 211.678 126.667 210.894C126.622 210.309 126.934 209.63 127.325 209.223C126.328 209.301 126.37 208.31 125.56 208.218L125.716 207.431C125.567 207.27 125.482 206.988 125.337 206.864C124.655 206.274 124.868 205.527 123.853 205.26L123.978 204.63L123.348 204.505L123.473 203.875L121.3 204.099L120.572 201.99L121.264 201.799C120.76 201.781 120.695 201.434 120.224 201.266C119.845 201.128 119.273 201.172 118.963 201.016C118.293 200.68 118.019 198.71 117.572 198.12L115.524 197.714L115.961 195.508C115.171 195.561 114.866 194.901 114.353 194.534C113.997 194.28 113.087 194.395 113.437 193.37C112.437 193.463 111.703 192.391 111.074 192.902L109.369 190.763C109.455 189.502 109.519 188.238 109.457 187.014L108.827 186.889C108.784 186.825 108.956 186.6 108.921 186.416C108.811 185.864 108.426 185.263 109.233 184.841C109.165 184.162 108.447 183.519 108.285 183.015C108.086 182.399 108.156 182.574 107.527 181.882C108.31 179.948 107.261 178.548 106.573 176.781L107.013 176.213L106.508 175.458L106.979 174.732L106.128 174.072C106.605 173.149 105.94 171.962 106.627 171.551L106.028 171.269L106.971 169.818L105.458 169.191C105.497 168.73 105.731 168.21 105.739 167.773C105.74 167.649 105.49 167.524 105.486 167.395C105.466 166.49 105.642 165.615 105.04 164.687C105.777 164.358 105.309 163.25 106.045 162.921C105.867 162.253 105.266 162.393 105.036 162.23C104.907 162.138 104.54 161.856 104.468 161.79C104.066 161.425 103.742 160.532 103.331 160.09C103.283 159.625 104.415 158.985 104.811 159.237C105.046 158.629 104.375 158.394 105.029 158.134L104.144 155.994L104.521 155.741C103.667 154.864 103.694 153.851 104.138 152.718C104.345 152.185 105.207 151.721 104.828 150.889C105.508 150.533 106.375 149.378 105.895 148.808L106.587 147.799L108.162 148.111L108.729 147.732C109.114 146.748 108.794 145.915 108.944 144.991L109.575 145.116L109.416 144.266L110.233 143.446L110.074 142.595L110.705 142.72L110.764 140.767C111.928 141.093 112.659 139.322 113.565 139.03C113.729 138.977 113.966 139.171 114.038 139.123C114.109 139.075 114.02 138.783 114.131 138.651C114.486 138.233 115.42 137.852 115.42 137.105L118.759 136.784C118.881 136.055 119.694 135.506 120.11 134.923C120.215 134.777 120.134 134.489 120.235 134.293C120.598 133.589 121.791 134.241 122.377 134.226C123.144 134.208 124.951 132.641 125.651 132.583C126.09 132.545 126.884 132.64 127.289 132.58C127.488 132.551 127.652 132.151 128.139 132.421L127.98 131.571C128.849 130.937 129.722 130.331 130.782 130.652C131.079 129.65 132.278 129.072 133.3 129.514C133.219 128.551 134.354 128.809 134.433 128.756C134.512 128.703 134.707 127.556 135.566 127.998L135.691 127.368L136.889 127.933L137.516 126.42L138.462 126.607L138.586 125.977C138.828 125.815 140.036 126.032 140.382 126.005C140.518 125.996 142.09 124.657 142.144 124.553C142.315 124.22 142.423 123.672 142.709 123.355C143.155 122.857 145.171 121.937 145.352 121.586C145.565 121.173 145.903 120.526 145.602 120.326L146.168 119.947L146.736 120.387C146.837 120.407 146.968 120.158 147.113 120.134C147.988 120.003 147.421 119.622 148.876 119.501C149.699 119.432 150.861 117.386 151.267 117.355L152.56 118.266C152.632 118.218 152.539 117.925 152.654 117.794C153.244 117.112 155.637 116.983 156.431 116.086L157.314 116.589C157.447 116.579 157.558 116.349 157.692 116.336C158.476 116.259 159.192 116.548 159.96 116.458C160.077 116.445 160.186 116.257 160.337 116.206L160.37 116.867L161.315 117.054C161.363 117.126 161.166 117.362 161.222 117.527C161.503 118.372 162.273 118.089 162.861 118.343C163.172 118.477 164.034 119.054 164.627 119.348C166.326 120.196 167.31 121.825 169.074 122.522C169.053 123.291 169.615 124.022 169.929 124.821C170.218 125.556 171.88 125.8 172.609 126.171L172.484 126.801C173.315 126.753 173.7 127.209 174.154 127.459C174.328 127.556 174.597 127.488 174.785 127.584C175.388 127.894 174.949 128.704 174.976 129.096C174.987 129.242 175.372 129.61 175.482 129.851C175.702 130.344 175.423 130.891 176.586 130.889L176.461 131.519C176.559 131.702 176.885 131.299 176.996 131.298C178.146 131.296 180.082 131.69 179.425 133.089L180.685 133.339L180.56 133.969L181.191 134.094L181.193 135.732C182.094 135.832 182.396 136.953 183.212 137.115L183.025 138.06C184.128 138.309 184.352 139.627 185.673 139.568C185.658 139.827 185.498 140.139 185.517 140.356C185.531 140.502 187.028 142.745 187.159 142.81C187.564 143.015 189.107 143.065 189.208 143.216L189.114 143.689L189.903 144.664L189.807 143.499L190.278 142.773L191.601 142.708L191.788 141.763C192.766 142.5 194.598 140.423 194.842 140.403C195.434 140.353 196.025 140.693 196.132 139.676L197.392 139.926L198.02 138.413L198.965 138.6L199.09 137.97L199.72 138.095C199.772 136.612 201.79 137.915 202.207 137.114C202.493 136.565 201.896 135.926 202.236 135.318L201.606 135.193C201.541 134.542 202.173 134.546 202.454 134.215C202.566 134.084 202.476 133.791 202.548 133.743C202.654 133.672 204.155 133.734 204.059 132.732L205.319 132.982L205.475 132.194C206.482 131.775 206.717 131.68 207.363 130.931C208.086 130.092 207.758 130.475 208.307 130.299C208.923 130.1 209.659 129.211 209.785 128.627C210.907 128.532 210.99 129.419 211.866 129.695L211.769 128.529C211.832 128.411 212.081 128.394 212.147 128.276C212.324 127.961 212.43 127.393 212.712 127.078C213.094 126.653 213.974 126.579 213.938 125.848L215.609 126.506L216.931 125.622L216.678 125.245C217.205 124.868 217.34 124.085 218.157 124.392L218.029 123.384L219.07 123.917C219.345 123.785 220.254 123.543 220.455 123.537C220.778 123.526 221.199 123.734 221.558 123.756L221.368 123.063L222.628 123.313L222.217 122.085L222.404 121.14C222.943 120.732 223.09 119.979 223.883 120.286L224.008 119.656C224.875 119.91 225.7 119.992 226.497 119.494L227.379 119.997C227.718 119.674 228.436 119.424 228.701 119.113C228.812 118.981 228.723 118.688 228.795 118.64C228.866 118.592 229.103 118.786 229.267 118.734C229.953 118.513 230.565 117.324 231.283 118.478L232.826 118.129ZM236.054 126.629C236.313 126.294 235.484 124.944 235.263 124.835C234.771 124.59 233.797 124.646 233.215 124.429L233.09 125.059C232.276 124.554 231.424 124.473 230.411 124.528C230.282 124.535 230.162 124.777 230.034 124.781C229.74 124.791 229.367 124.573 229.088 124.593C228.484 124.637 228.506 125.798 227.831 125.982C227.137 125.435 227.191 125.773 226.885 125.794C226.676 125.808 226.458 125.654 226.255 125.669C226.198 125.674 225.338 126.25 225.311 126.301L225.439 127.309C224.957 127.495 223.681 128.676 223.362 128.698C223.08 128.718 222.699 128.492 222.417 128.511C221.506 128.576 218.858 131.824 217.508 131.796L217.255 131.418C216.491 131.954 215.601 132.063 214.864 132.745C214.165 133.393 214.2 133.829 213.859 134.511C213.692 134.841 212.51 135.036 212.632 135.742C210.777 134.594 210.318 137.982 209.391 138.047C209.109 138.066 208.728 137.84 208.446 137.859C208.31 137.868 207.257 138.292 207.187 138.429C206.98 138.846 206.993 139.487 206.559 139.942C206.126 140.396 205.99 140.038 205.427 140.7C205.021 141.179 204.37 141.171 204.453 142.308L203.603 142.467L202.405 141.902C201.88 142.335 201.534 142.512 200.862 142.251L200.737 142.881L199.698 143.167L199.541 143.954C198.963 143.686 198.215 143.954 197.81 144.43C197.698 144.562 197.788 144.855 197.716 144.903C197.607 144.976 195.606 145.205 195.165 145.379C194.182 145.764 195.038 146.717 192.9 146.895C192.713 146.911 192.327 147.388 192.144 147.401C191.307 147.461 189.802 146.76 189.531 148.193L187.736 148.164C187.435 147.879 186.96 146.776 186.725 146.654C185.646 146.099 185.628 145.444 184.549 145.24L184.674 144.61L182.215 143.795L182.275 141.842C181.856 141.69 181.206 141.735 180.857 141.561C180.705 141.485 180.546 140.965 180.352 140.806C179.701 140.271 178.951 139.778 178.113 139.707C178.538 138.242 177.411 137.763 176.062 137.663L175.683 137.096L175.964 135.678C175.322 135.793 175.242 134.959 174.986 134.829C174.637 134.656 173.987 134.7 173.568 134.548L173.724 133.761L173.345 133.194L172.4 133.007L171.261 130.489L168.015 129.518L168.202 128.572L167.572 128.447L167.697 127.817L166.437 127.567L166.624 126.622L167.317 126.432L165.771 125.143L165.078 125.333C164.593 124.755 164.368 123.797 163.595 123.729L163.47 124.359C162.408 124.394 162.451 123.256 161.389 123.292C161.501 122.908 161.217 121.715 160.914 121.56C160.729 121.464 160.468 121.53 160.283 121.435C159.966 121.27 159.523 119.902 158.455 120.745L157.004 119.802C156.543 120.147 155.963 120.284 155.967 120.907L155.021 120.719L154.896 121.35L153.321 121.037L152.756 122.235C151.144 120.602 150.587 122.85 149.45 123.218C149.285 123.27 149.049 123.076 148.977 123.124C148.739 123.283 147.855 125.433 146.649 124.955L146.808 125.805C146.143 126.45 145.224 127.551 144.196 127.416L144.009 128.362L142.528 128.396C141.915 128.778 141.427 129.389 141.366 130.13L139.475 129.755C139.366 130.336 139.277 131.498 138.628 131.552C138.415 131.569 138.187 131.396 137.997 131.428C137.466 131.512 136.73 131.841 136.139 131.714L136.014 132.344C135.033 132.055 135.122 132.731 134.85 133.26C134.813 133.331 133.694 134.085 133.529 134.144C133.458 134.17 132.876 134.333 132.836 134.335C132.513 134.346 132.092 134.138 131.733 134.116L131.83 135.281C130.854 135.907 129.825 137.049 128.932 135.853L127.767 135.95L127.863 137.115C127.415 137.642 127.063 137.336 126.667 137.369C126.38 137.394 125.439 138.36 125.157 138.38C124.708 138.412 124.229 137.97 123.834 138.445L123.423 138.036L122.89 139.077L123.364 139.99C122.532 139.792 121.482 140.841 120.938 139.836L120.371 140.215L120.215 141.003L119.365 141.162L118.324 140.628C118.532 141.681 117.485 141.972 117.351 142.236C117.167 142.6 117.143 143.879 117.007 143.97L116.062 143.782C115.787 144.936 114.22 144.73 114.27 146.211C114.274 146.339 114.522 146.464 114.523 146.589C114.525 146.923 114.333 147.33 114.304 147.691C113.656 147.54 113.159 147.324 112.635 147.852L113.268 149.615C112.603 150.259 111.684 151.361 110.656 151.226L109.682 152.834C109.183 154.494 109.288 155.998 109.407 157.528L110.037 157.653L109.566 158.379L110.261 159.826L110.105 160.614L109.475 160.489L109.353 162.758L110.203 162.599L111.403 163.983C110.568 164.341 110.509 164.89 110.398 165.749L111.598 167.952C110.784 168.344 111.261 168.776 111.349 169.212C111.384 169.396 111.212 169.621 111.255 169.685L111.885 169.81C111.608 171.422 110.965 173.082 111.61 174.504L110.636 176.112L111.581 176.3L111.456 176.93L112.086 177.055C111.798 178.298 113.137 178.363 113.634 179.163L113.571 179.478C113.045 179.639 113.22 180.093 113.069 180.361C113.003 180.479 112.753 180.498 112.691 180.613C112.358 181.238 112.986 182.234 113.671 182.281C113.497 183.157 113.424 184.171 113.455 185.022C113.459 185.151 113.706 185.275 113.707 185.4C113.709 185.738 113.518 186.142 113.489 186.503L115.002 187.13C114.785 187.926 115.675 188.577 116.045 189.302L117.211 189.206C116.915 189.658 117.288 190.734 117.686 190.937C118.129 191.166 118.553 191.057 118.822 191.818C119.998 191.055 121.269 192.689 120.873 193.862C121.736 194.118 123.51 195.344 123.334 196.315L123.964 196.439C123.949 198.035 124.08 198.631 125.513 199.366C125.81 199.52 126.489 201.148 127.311 201.033C127.017 201.479 127.393 202.569 127.787 202.765C128.395 203.069 129.212 202.73 129.553 203.77L130.718 203.673L130.69 205.469L131.827 207.168L133.182 207.764L133.057 208.395C133.91 208.452 134.651 208.864 135.107 209.62L134.795 211.195L135.646 211.855L135.459 212.801C136.484 212.932 138.198 213.854 137.983 214.938L138.613 215.063L138.488 215.694C140.193 215.55 140.108 217.102 141.452 217.264C141.154 217.827 141.317 219.035 141.865 219.311C142.314 219.537 142.924 219.272 143.189 220.064C143.245 220.229 143.048 220.465 143.096 220.537L144.924 221.227L145.335 222.455L144.864 223.18L146.125 223.43L145.812 225.006C146.865 224.798 147.156 225.845 147.421 225.979C147.685 226.114 148.19 226.08 148.524 226.198L148.935 227.426L148.495 227.994L149.317 229.63C150.397 230.31 150.829 231.604 152.376 231.547L152.188 232.492L153.04 233.152L152.884 233.94L154.902 235.323L154.78 237.591C155.664 237.678 156.428 237.885 156.169 238.849L158.407 239.947L158.942 239.726L158.817 240.356L160.015 240.921L159.89 241.551C161.411 241.777 160.051 243.25 160.871 244.038C160.926 244.092 161.095 244.034 161.186 244.101C161.309 244.191 161.334 244.431 161.439 244.478C162.032 244.74 162.785 244.447 163.078 245.295L162.545 246.335C163.411 246.163 163.582 247.117 163.838 247.246C164.243 247.451 165.785 247.501 165.886 247.652C165.577 248.584 166.797 248.825 167.118 249.698C167.088 250.183 167.08 250.866 167.121 251.336C167.178 251.957 168.185 251.881 168.383 252.405L168.76 252.152C169.416 253.258 169.775 253.922 171.189 253.944L171.002 254.889L171.632 255.014C171.422 255.595 171.773 256.119 172.39 256.147L172.203 257.092C173.072 256.921 173.231 257.869 173.496 258.003C173.787 258.153 174.214 257.982 174.379 258.506L174.694 258.568C175.747 258.211 175.52 257.573 175.825 256.991C175.905 256.837 176.364 256.817 176.296 256.266C177.185 256.675 177.795 255.862 178.468 255.223C179.792 253.966 180.553 252.521 181.864 251.311L181.674 250.618C182.359 250.282 184.534 247.884 185.008 247.84C185.225 247.821 185.537 247.981 185.796 247.996C185.717 247.483 186.254 247.337 186.267 247.271C186.28 247.205 185.84 246.865 186.108 246.421C187.086 246.526 188.454 246.07 187.712 244.937C188.694 244.48 188.683 242.978 190.009 243.264L190.574 242.066L191.204 242.191L191.392 241.245C192.292 241.296 192.778 240.548 193.88 241.084L194.886 240.137L194.727 239.287L196.303 239.599L196.428 238.969L197.058 239.094C197.319 238.422 197.142 238.075 196.709 237.551L196.771 237.236C197.292 236.821 197.706 236.288 197.745 235.627L198.375 235.752C198.568 234.945 199.538 234.663 200.042 233.954C200.205 233.724 200.066 233.12 200.733 232.945L202.151 233.226L201.961 232.533C202.384 232.646 203.544 232.349 203.693 232.057C204.408 230.663 205.342 230.429 205.609 228.998L206.24 229.123L206.364 228.493L206.995 228.618L208.817 226.032L209.7 226.534C209.585 225.893 210.42 225.812 210.549 225.556C210.679 225.3 210.609 224.858 210.737 224.611C210.816 224.457 211.276 224.436 211.208 223.886L212.563 224.482L213.414 224.323C213.55 224.232 213.574 222.953 213.757 222.59C213.887 222.334 214.721 222.254 214.606 221.612L215.236 221.737L215.549 220.161L216.179 220.286C217.006 219.304 218.226 217.623 219.23 217.288C219.411 217.229 219.598 217.001 219.796 216.909L219.952 216.121L220.582 216.246L221.088 217.001L221.054 215.521L222.815 214.069L223.918 214.287L224.106 213.342L225.366 213.592L226.277 212.299L226.118 211.448L228.827 211.003L229.014 210.057L230.053 209.772L230.209 208.984L231.155 209.172L231.815 208.32L232.698 208.823L233.264 208.444L233.105 207.593L233.735 207.718C234.249 207.027 234.488 206.171 234.834 205.48C234.871 205.408 236.076 204.603 236.156 204.595C236.362 204.577 236.579 204.738 236.786 204.72C237.575 204.654 237.829 203.195 238.61 202.953L238.105 202.198C238.367 201.814 238.885 201.927 238.986 201.881C239.227 201.772 239.591 201.389 239.741 201.376C240.404 201.321 240.533 201.841 240.624 201.879C241.031 202.041 241.602 202.02 242.042 202.16L242.23 201.214L242.86 201.339L243.865 199.573L244.495 199.698L245.06 198.5C245.73 198.659 246.21 198.863 246.73 198.34L246.886 197.552C248.483 197.79 249.118 196.154 250.126 195.247C250.435 195.259 250.803 195.453 251.072 195.434C251.285 195.418 253.918 192.94 254.091 192.594C254.325 192.126 254.509 191.295 254.781 190.766C254.968 190.403 256.427 189.651 256.89 190.038C256.917 189.244 257.269 188.557 258.053 188.303C258.602 188.127 258.274 188.511 258.997 187.671C259.431 187.168 260.434 186.352 260.002 185.906L260.567 184.708L260.377 184.015C261.025 183.865 261.883 183.105 262.391 182.94C262.555 182.888 262.792 183.082 262.864 183.034C262.905 183.006 262.9 182.39 263.335 182.309L262.83 181.554C263.377 180.958 263.534 180.298 264.465 179.913C263.66 178.967 264.94 178.703 265.092 178.4C265.552 177.485 265.323 176.048 265.717 175.248C266.111 174.449 266.243 173.702 266.469 173.105C266.642 172.645 266.628 172.023 266.782 171.529C266.326 170.774 265.585 170.362 264.732 170.304C264.851 169.588 265.241 168.843 264.634 168.32C263.784 167.585 263.672 166.531 263.432 165.298C263.39 165.08 263.006 164.935 263.273 164.447L262.328 164.26L262.515 163.315L261.885 163.19L262.072 162.244L261.127 162.057L261.439 160.481L260.494 160.294C261.341 158.978 257.884 156.937 257.998 156.361C258.652 156.1 257.982 155.866 258.217 155.258L256.704 154.63C256.995 153.489 256.305 151.784 254.998 151.672C254.876 150.502 254.116 148.455 252.724 148.274L252.849 147.643L251.903 147.456C252.113 146.875 251.762 146.351 251.145 146.323C251.528 144.775 250.472 144.235 249.597 143.396C249.118 142.938 248.847 142.288 249.121 141.664L248.586 141.886C247.813 141.936 247.827 141.405 247.45 141.006C247.399 140.953 246.792 140.793 246.756 140.377C246.729 140.051 247.05 139.721 246.629 139.369L247.006 139.116C246.434 138.168 245.769 137.198 244.609 137.167C244.485 137.166 244.335 137.441 244.231 137.42C244.1 136.906 243.574 136.756 243.411 136.602C242.866 136.079 242.159 133.282 241.514 132.951C241.33 132.856 241.068 132.922 240.884 132.827C240.658 132.71 239.836 131.371 240.094 131.032L238.203 130.658C238.808 129.274 237.478 128.198 237.629 126.941L236.054 126.629Z" fill="#37B4B4"/>
<path d="M242.029 231.96C243.057 231.948 243.272 232.898 243.828 233.627C245.136 233.837 246.717 235.159 247.862 234.754C248.389 235.202 248.083 235.554 248.116 235.951C248.153 236.407 250.47 238.946 251.114 239.001L250.958 239.789L251.337 240.355L252.722 239.975C253.05 240.584 253.754 241.083 253.513 241.769L254.458 241.957L254.333 242.587C255.747 242.608 256.107 243.272 256.762 244.378L257.612 244.219L257.047 245.417L257.899 246.077L257.365 247.118C256.892 246.844 256.642 247.279 256.515 247.277C254.548 247.234 253.415 245.533 252.225 244.134L250.587 244.137C250.281 243.664 249.668 242.743 249.261 242.564C248.5 242.226 247.793 242.551 247.369 241.37L247.747 241.117C247.41 240.242 246.535 240.507 245.792 240.239C245.676 240.196 245.653 239.9 245.54 239.861C245.012 239.681 244.358 239.676 243.806 239.518L243.994 238.572L243.048 238.385C243.156 237.345 242.269 236.354 241.155 236.372L241.311 235.584C241.247 234.916 239.549 234.94 240.017 233.854L239.481 234.075C239.081 232.925 237.404 233.467 237.745 232.094L237.115 231.969L237.24 231.338C236.664 231.519 235.602 230.267 235.568 229.861C235.526 229.364 235.788 229.014 235.188 228.475L236.132 227.844L236.699 228.284L237.707 228.156C238.885 229.863 241.822 229.62 242.029 231.96Z" fill="#37B4B4"/>
<path d="M195.314 104.143L195.945 104.268C195.945 105.143 195.142 105.478 194.593 106.129C195.112 107.198 194.184 108.753 194.159 109.973C194.157 110.101 194.592 110.351 194.318 110.824L193.688 110.699L193.563 111.329C194.856 111.494 194.01 112.574 194.48 113.312L193.724 113.817L193.915 114.51L193.097 115.33L193.571 116.243L192.941 116.118C192.554 117.293 193.029 118.3 192.6 119.489L191.561 119.775C191.389 120.311 191.411 121.009 191.217 121.508C191.177 121.614 190.923 121.636 190.84 121.761C190.737 121.917 190.81 122.19 190.746 122.233C190.705 122.261 190.137 122.021 189.896 122.392L188.225 121.734L188.35 121.103L187.405 120.916L187.717 119.34L188.347 119.465L188.881 118.425L188.248 116.662L188.844 115.306L189.474 115.431C189.685 114.85 189.333 114.326 188.716 114.298L188.904 113.353L189.534 113.478C189.868 112.372 190.539 111.715 190.128 110.484L190.945 109.664L190.502 108.593C191.118 108.015 191.826 106.508 191.757 105.567C191.724 105.092 190.723 104.723 191.817 103.614L191.468 102.071L192.098 102.196C192.127 101.835 192.319 101.428 192.317 101.093C192.315 100.985 191.885 100.677 192.189 100.085C192.274 99.9187 192.859 99.7463 192.944 99.5798C193.321 98.849 193.381 97.7702 193.696 97.4364C194.23 96.8741 195.104 96.913 195.017 95.7331C195.07 95.4652 195.681 95.6519 195.836 95.7317C196.554 96.1066 195.864 97.342 195.902 97.8737C195.958 98.6346 196.654 98.7235 196.095 100.204C195.708 101.231 196.233 102.269 195.786 103.418C195.739 103.537 195.242 103.602 195.314 104.143Z" fill="#37B4B4"/>
<path d="M101.763 108.525C102.697 108.441 103.192 109.496 103.812 108.931L104.191 109.497L104.035 110.285L105.295 110.535C105.062 111.314 105.589 111.697 106.368 111.73L106.371 113.368C106.711 113.485 107.179 113.453 107.474 113.587C108.3 113.963 108.538 115.556 109.903 115.378L109.715 116.324C110.189 116.313 110.649 116.918 110.82 117.361C111.125 118.152 110.644 118.247 110.632 118.307C110.619 118.373 111.059 118.712 110.791 119.157L112.744 119.217L112.619 119.847L113.25 119.972L112.841 120.382C113.185 120.843 113.322 121.424 113.945 121.42L113.82 122.05L116.313 124.345L115.81 125.228L116.032 125.763L113.228 125.863C113.147 125.427 112.531 125.433 112.503 125.391C112.455 125.32 112.649 125.083 112.597 124.919C112.422 124.38 111.698 124.262 111.523 123.723C111.471 123.559 111.665 123.322 111.617 123.251C111.574 123.187 111.308 123.255 111.144 123.157C110.779 122.937 111.054 122.772 110.199 122.97L109.914 121.931C109.026 121.948 108.621 121.016 107.833 120.863L108.493 120.011C108.88 119.577 107.762 118.976 107.42 118.816C107.162 118.696 106.757 118.74 106.474 118.629C106.362 118.584 106.061 117.97 105.434 118.095C105.756 117.514 105.397 117.223 105.337 116.93C105.29 116.704 105.271 116.078 105.21 115.922C105.169 115.815 104.097 114.581 104.01 114.538C103.351 114.197 102.904 113.873 102.245 113.533C102.075 113.447 101.828 112.792 101.613 112.589L102.022 112.179L101.076 111.991C101.028 111.919 101.226 111.683 101.17 111.518C100.99 110.975 100.545 110.838 100.003 110.796L100.128 110.166C99.1458 110.082 99.1545 108.551 98.1721 108.468L98.4532 107.05L100.027 106.543C100.212 107.133 100.823 106.907 101.225 107.108C101.467 107.228 101.99 108.206 101.763 108.525Z" fill="#37B4B4"/>
<path d="M283.816 130.201C283.88 130.853 283.249 130.849 282.967 131.179C282.856 131.311 282.945 131.604 282.873 131.652C282.809 131.695 282.585 131.523 282.401 131.558C282.111 131.616 281.816 131.98 281.235 131.655L280.954 133.073C280.351 133.504 279.59 133.71 278.907 133.486C278.724 134.245 277.414 135.122 276.642 135.002L276.676 136.482L275.354 137.367L274.786 136.927L274.126 137.778L273.181 137.591L271.736 139.925C270.745 139.502 270.114 140.042 269.185 140.401L268.617 139.961L268.24 140.214L267.199 139.68L267.824 136.529C267.96 136.438 269.151 136.904 269.557 136.873C269.836 136.853 270.838 135.895 271.256 135.736L271.035 135.201C271.115 135.158 271.346 135.347 271.507 135.294C272.301 135.026 272.034 134.423 272.261 133.97C272.391 133.714 273.225 133.634 273.11 132.992L274.938 133.682L275.188 132.421L276.134 132.609C276.25 132.268 276.219 131.8 276.352 131.506C276.497 131.19 277.664 130.24 278.114 130.054C279.109 129.645 279.847 129.804 280.694 128.6L280.947 128.978L282.206 128.409C282.346 128.033 282.299 127.461 282.456 127.148C282.623 126.818 283.805 126.623 283.683 125.917C284.94 125.934 285.557 126.656 286.3 127.582C286.173 127.976 286.194 128.482 286.05 128.843C286.005 128.955 285.739 128.975 285.673 129.096C285.576 129.27 285.644 129.539 285.548 129.726C285.344 130.124 284.268 130.497 283.816 130.201Z" fill="#37B4B4"/>
<path d="M109.816 213.285L109.691 213.916C110.308 213.943 110.659 214.468 110.449 215.048L109.819 214.923C109.773 216.015 108.604 216.061 108.689 217.319C107.626 217.03 107.135 218.449 106.707 219.055C106.312 219.616 105.506 219.928 105.419 220.601L103.528 220.226L104.033 220.982L103.908 221.612L103.278 221.487L103.091 222.432C101.563 222.208 101.049 223.777 99.4708 224.171L98.8122 225.842C97.7312 225.546 97.319 226.964 96.3891 227.327L93.9958 227.835C93.4005 227.137 93.2643 226.684 93.5828 225.788L94.213 225.913C93.5034 223.925 95.0507 224.248 96.3196 223.546C96.5904 222.742 96.9304 221.902 97.7022 221.528L97.4496 221.15C97.9436 220.855 98.2919 220.371 98.8662 220.612C98.806 219.313 100.012 218.93 100.374 217.964L101.004 218.089L101.129 217.458L101.854 217.93L103.553 216.793L103.457 215.627C104.038 215.837 104.562 215.486 104.59 214.869C106.105 215.157 107.335 213.245 109.061 213.791L109.186 213.16L109.816 213.285Z" fill="#37B4B4"/>
<path d="M204.496 168.517C204.55 169.072 203.932 169.136 203.963 169.558C203.983 169.85 204.377 170.406 203.997 171.038L204.627 171.163C204.7 171.705 204.203 171.767 204.156 171.888C204.01 172.259 204.063 172.833 203.906 173.149C203.777 173.405 202.942 173.485 203.057 174.127L203.687 174.252C203.337 174.811 203.878 175.42 203.721 175.732C203.662 175.852 203.396 175.871 203.344 175.985C202.863 177.072 202.664 178.801 203.602 179.639C202.407 180.181 202.276 180.876 202.126 182.13L201.495 182.005C201.45 182.566 201.163 183.203 201.152 183.738C201.15 183.866 201.585 184.116 201.311 184.589L201.941 184.713L201.439 185.596L200.808 185.471L200.652 186.259C200.415 186.713 199.005 186.489 199.111 187.427L196.181 187.338C196.607 187.701 196.279 188.032 196.308 188.346C196.36 188.91 197.864 190.38 198.548 190.264L197.921 191.777L199.181 192.027L199.057 192.657L199.687 192.782L199.437 194.042L201.108 194.701L201.393 195.74L202.338 195.927L201.963 197.818L202.594 197.943L202.122 198.668L202.818 200.116L202.222 201.472L200.741 201.506C200.557 200.916 199.946 201.142 199.543 200.941C199.472 200.904 198.666 199.699 198.659 199.619C198.543 198.24 198.269 198.53 197.773 197.479C197.277 196.427 197.302 195.014 195.658 194.931C195.68 194.572 195.888 194.151 195.877 193.828C195.873 193.699 195.484 192.738 195.308 192.569C194.685 191.974 193.219 190.17 193.16 189.359C193.132 188.971 193.422 188.386 193.441 187.941L192.811 187.816C192.747 188.056 192.859 188.366 192.528 188.415C191.938 188.504 191.39 188.638 190.733 188.387C190.406 189.193 190.883 190.09 191.681 190.212C191.73 190.759 191.376 190.728 191.21 190.938C190.865 191.37 190.052 191.936 190.014 192.011C189.863 192.312 189.597 193.801 189.577 194.217C189.57 194.336 189.826 194.466 189.83 194.594C189.838 195.064 189.432 195.511 189.895 195.917L189.361 196.958L188.731 196.833C188.74 197.283 188.299 197.658 187.882 197.811C186.758 198.227 186.456 197.374 186.179 196.491L186.588 196.08L185.957 195.955L185.892 194.632L186.522 194.757C186.565 194.294 186.787 193.785 186.804 193.339C186.834 192.458 186.641 191.319 187.082 190.283L186.452 190.158L186.418 188.678C187.292 188.18 187.214 187.319 187.485 186.597C187.921 185.439 188.065 183.951 188.675 182.248C189.13 180.975 188.601 179.596 189.14 178.246L188.51 178.121C188.597 177.238 188.804 176.473 189.768 176.733C189.404 175.609 189.763 174.23 190.739 173.487L190.801 173.171C190.189 172.408 190.701 171.445 190.293 170.778L190.356 170.463L191.395 170.178L191.517 167.909L192.997 167.875L194.606 168.849C194.604 168.426 194.871 168.152 195.266 167.997C196.008 167.706 196.647 168.098 197.219 168.057C197.402 168.044 197.791 167.565 197.974 167.552C198.831 167.489 199.431 168.099 200.367 167.044L200.682 167.106C201.523 167.725 202.78 168.321 203.771 168.046L204.496 168.517ZM199.207 170.416L199.175 169.755L198.892 170.354L198.042 170.513C197.338 170.049 196.223 169.661 195.268 169.636C195.141 169.633 194.888 170.068 194.418 169.795C194.145 170.264 194.579 170.518 194.577 170.645C194.547 171.955 193.137 172.707 194.268 173.859C193.989 174.439 194.561 174.942 194.27 175.497C194.134 175.754 193.174 176.255 192.854 176.035C192.584 176.521 192.985 176.693 193.013 176.885C193.074 177.319 192.776 177.748 193.393 178.27L192.953 178.838C193.875 179.902 192.993 180.621 193.021 181.799C193.035 182.391 192.651 183.206 192.615 183.847C193.955 183.117 195.07 183.869 196.364 183.935C196.455 183.94 197.388 183.89 197.687 183.87C197.883 183.857 198.322 183.423 198.852 183.774L198.347 183.019L198.472 182.388L197.842 182.263L198.753 180.97L198.31 179.9L199.19 178.764L198.685 178.009C199.774 176.381 199.75 174.225 200.44 172.462C200.485 172.35 200.751 172.33 200.817 172.209C201.285 171.336 200.158 170.33 199.207 170.416Z" fill="#37B4B4"/>
<path d="M187.215 156.576L187.09 157.206L187.72 157.331L187.595 157.962C187.954 157.987 188.372 158.191 188.698 158.18C189.406 158.16 190.042 157.117 190.556 157.893L190.681 157.263C191.734 157.056 192.024 158.103 192.289 158.237C192.709 158.448 193.523 158.393 194.022 158.581L194.147 157.95C194.73 158.167 195.704 158.111 196.196 158.356C196.714 158.616 197.296 160.189 196.861 160.781L196.231 160.656L195.571 161.508C194.162 160.721 192.965 162.33 192.042 161.136L191.727 161.073C190.532 161.648 188.877 162.169 187.571 162.214C187.033 162.232 186.593 161.794 186.059 162.406C186.539 162.874 186.08 163.458 186.062 164.044C186.055 164.242 186.437 164.334 185.875 164.989L186.57 166.437C185.572 166.845 185.678 167.715 185.471 168.676C185.173 168.512 184.562 168.702 184.432 168.961C184.069 169.685 184.676 170.572 184.279 171.387L185.224 171.574C185.139 171.823 185.17 172.163 185.068 172.362C184.831 172.829 183.605 176.077 183.626 176.334C183.637 176.474 183.899 176.607 183.878 176.711C183.858 176.815 183.544 176.848 183.501 176.964C182.879 178.613 183.968 178.819 184.009 179.357C184.041 179.806 183.599 180.285 184.074 180.68L183.257 181.501L183.512 183.516L182.445 185.597C183.124 186.597 181.891 187.482 181.851 188.591L182.513 188.558L182.138 190.449L181.256 190.766L179.746 191.776L178.356 189.699L178.984 188.186L178.132 187.526C177.953 187.258 179.019 184.971 178.41 184.47L179.322 183.177L178.692 183.052L179.1 182.642L178.658 181.572L179.506 180.594C178.915 180.552 178.589 180.428 178.34 179.871C178.467 179.477 178.446 178.972 178.589 178.611C178.635 178.495 178.928 178.471 178.967 178.358C179.147 177.83 179.149 177.176 179.311 176.625L180.35 176.339C179.801 175.474 180.677 174.128 180.659 173.126C180.642 172.186 179.845 171.582 180.906 170.227L180.211 168.779L181.153 167.329C181.077 166.439 181.542 164.209 182.028 162.917C182.07 162.801 182.381 162.771 182.405 162.664C182.416 162.611 181.981 162.246 182.246 161.814C181.885 161.785 181.478 161.593 181.143 161.595C179.795 161.606 179.979 161.97 178.56 161.411C177.758 161.094 177.159 161.342 176.449 161.32L176.324 161.95L174.401 160.914L173.331 161.357C172.955 160.411 171.741 161.133 171.44 160.982L170.493 159.975C170.644 159.478 170.637 158.871 170.805 158.4C170.836 158.314 171.245 157.452 171.37 157.202C171.431 157.079 172.224 156.267 172.377 156.255C172.606 156.238 173.388 156.406 173.637 156.505C173.753 156.551 173.777 156.844 173.89 156.882C174.418 157.062 175.072 157.064 175.623 157.226L175.748 156.596L176.631 157.098L176.756 156.468L178.614 156.181L179.339 156.653L179.214 157.283C179.694 157.558 179.913 157.13 180.065 157.124C180.919 157.093 181.291 157.432 182.143 156.553L183.026 157.056L184.664 157.053L185.324 156.201L187.215 156.576Z" fill="#37B4B4"/>
<path d="M185.103 211.834C184.539 211.558 184.317 212.048 183.875 212.245C183.383 212.465 182.836 212.187 182.838 213.35L182.207 213.225L182.179 215.02C181.655 215.185 181.826 215.612 181.676 215.903C181.393 216.456 180.2 216.613 179.63 216.316C179.828 216.932 180.668 217.934 179.38 217.577L178.88 220.098L177.557 220.163L176.05 222.812L177.563 223.439L177.688 222.809C177.936 222.894 178.276 222.863 178.475 222.965C178.607 223.03 178.605 223.436 179.043 223.405C179.229 223.393 179.652 222.959 180.209 223.309L180.396 222.363C180.547 222.262 181.992 222.804 182.444 222.769C182.866 222.738 183.058 221.987 184.46 222.514C184.646 222.583 184.585 222.971 185.405 222.701L186.383 223.55C186.308 224.193 185.902 224.856 186.355 225.346L185.884 226.071L185.253 225.946C185.133 226.866 184.065 227.679 184.722 228.625C183.473 229.242 183.302 230.406 182.522 231.464C182.456 231.552 182.513 231.724 182.46 231.779C182.047 232.208 181.651 232.175 181.105 232.002L181.14 233.482C180.858 233.78 179.743 234.263 179.629 234.493C179.43 234.889 179.517 235.672 179.317 236.068C179.235 236.232 178.643 236.41 178.562 236.574C178.436 236.827 178.5 237.266 178.374 237.519C178.308 237.653 177.071 238.61 176.801 238.845L176.836 240.325L175.197 240.328C174.929 240.773 175.37 241.112 175.356 241.178C175.343 241.248 174.765 241.536 174.791 242.376C174.796 242.502 175.224 242.79 174.919 243.384C174.785 243.649 173.836 243.808 174.008 244.677C173.265 244.177 172.6 245.188 172.15 244.964L171.864 243.925L171.329 244.146C170.983 243.531 170.435 243.009 169.783 242.858C169.705 242.344 170.242 242.198 170.255 242.132C170.275 242.028 169.997 241.878 170.002 241.755C170.03 240.853 170.262 239.7 171.132 239.359L171.004 238.351C172.161 237.571 173.191 237.265 173.173 235.669L172.574 235.387C173.076 234.821 173.486 235.198 173.771 235.133C175.074 234.838 174.701 234.574 175.155 233.933C175.5 233.448 176.622 232.678 176.79 232.292C177.117 231.538 177.348 229.727 178.171 229.455C178.336 229.399 178.572 229.597 178.644 229.549C178.708 229.506 178.64 229.24 178.738 229.076C178.958 228.71 179.123 228.985 178.925 228.131C179.188 227.914 180.822 227.072 180.529 226.647C179.896 226.522 179.481 226.154 179.459 227.09L178.734 226.619C178.116 227.174 177.187 226.443 176.465 226.497C176.356 226.504 175.379 227.185 175.017 227.192C173.621 227.214 172.609 225.961 171.551 226.505L170.826 226.034L170.477 224.491C171.068 224.297 170.844 223.693 171.042 223.293C171.271 222.827 171.72 222.15 172.047 221.527C172.184 221.263 172.998 221.237 172.927 220.391C172.915 220.252 172.653 220.118 172.674 220.014C172.687 219.948 173.224 219.802 173.145 219.289L172.578 218.848C173.339 219.17 173.727 218.801 174.309 218.373L173.866 217.303C173.834 215.865 175.514 216.031 175.405 214.496L176.351 214.684C176.416 214.022 177.224 213.481 177.861 213.673L178.142 212.255L179.181 211.97L179.022 211.12L181.665 209.351L182.826 206.797C183.477 206.687 183.833 207.419 184.182 207.393C184.315 207.384 184.434 207.145 184.56 207.141C184.843 207.135 185.519 207.289 185.82 207.391C187.222 207.872 186.039 209.291 185.194 209.723L185.103 211.834Z" fill="#37B4B4"/>
<path d="M144.047 149.656L144.271 151.83C144.205 151.951 143.939 151.97 143.894 152.082C143.714 152.541 142.679 159.286 142.71 159.708C142.737 160.096 143.794 161.937 142.84 162.354L143.283 163.424L142.15 164.182L142.468 165.882L141.651 166.703C142.492 167.495 141.632 168.366 142.474 169.159L141.625 170.137L142.57 170.324C142.635 170.874 142.198 170.882 142.099 171.049C141.876 171.431 141.988 171.938 141.219 172.185C141.938 173.251 142.894 174.079 141.349 174.831L142.107 175.964L141.667 176.531C141.765 177.144 141.763 179.354 141.673 179.808C141.652 179.912 141.341 179.945 141.295 180.06C140.723 181.558 142.516 182.166 141.994 183.146C141.93 183.268 141.661 183.287 141.616 183.399C141.254 184.319 141.616 185.649 140.96 186.708L141.591 186.833C141.453 187.277 141.467 187.833 141.309 188.251C141.24 188.437 140.852 188.376 141.122 189.196C139.599 189.909 140.573 190.859 141.944 190.833C142.069 190.831 142.868 190.4 143.014 190.39C143.463 190.358 143.939 190.799 144.337 190.325L145.725 191.582L147.236 190.572L149.284 190.978L148.691 193.971C148.068 194.172 147.836 194.997 147.307 195.171C147.142 195.223 146.906 195.029 146.834 195.077C146.785 195.11 146.714 195.833 146.174 195.929L144.693 195.963L144.818 195.333C144.14 195.715 143.653 195.314 143.023 195.304C142.898 195.302 142.769 195.558 142.645 195.557C141.828 195.546 141.202 195.3 140.879 194.552L138.486 195.06L137.79 193.612L136.372 193.331L136.401 191.535L137.218 190.715C137.237 190.404 137.415 190.053 137.406 189.769C137.383 189.139 137 189.486 137.656 188.509C137.739 188.388 137.698 188.18 137.749 188.036L137.119 187.911L136.96 187.061C137.175 186.871 137.534 186.746 137.715 186.556C138.212 186.032 137.794 185.579 138.28 185.358C137.824 184.684 138.507 183.965 137.71 183.28C138.581 182.866 138.057 182.137 138.022 181.704C137.82 179.319 137.944 176.547 139.144 174.394C138.445 173.191 138.238 171.627 138.664 170.205L138.034 170.08L137.937 168.914L138.408 168.189L139.039 168.314C139.348 168.107 138.125 165.919 139.255 165.573L139.317 165.258C138.388 163.567 139.067 161.101 140.064 159.838C139.639 159.489 139.973 159.139 139.936 158.83C139.907 158.566 139.303 158.273 140.123 157.885L139.618 157.13L139.743 156.5C140.419 154.859 141.216 153.235 141.719 151.487L142.349 151.612L142.693 149.879L143.07 149.627L144.047 149.656Z" fill="#37B4B4"/>
<path d="M161.077 161.22L160.952 161.85C161.616 161.867 161.987 162.543 161.678 163.141C161.507 163.477 160.33 163.663 160.452 164.371L159.191 164.121L159.004 165.067L157.428 164.755L157.241 165.7C156.796 165.432 156.457 165.872 156.391 165.859C156.287 165.838 156.254 165.524 156.138 165.481C155.507 165.245 153.907 165.186 153.24 165.234C152.931 165.255 152.194 165.833 151.697 165.583C151.396 166.041 151.788 167.121 152.172 167.315C152.762 167.609 153.709 167.361 153.403 168.542C153.848 168.561 154.432 168.85 154.821 168.823C155.003 168.81 155.393 168.33 155.576 168.317C156.055 168.281 157.188 168.431 157.844 168.44C158.112 168.443 158.896 168.586 159.105 168.689C159.946 169.105 158.964 169.893 158.981 170.139L159.424 171.209L158.04 172.408C157.63 172.379 157.16 172.155 156.78 172.159C156.567 172.159 155.17 172.495 155.079 172.476C155.016 172.464 154.656 171.816 154.039 171.943L153.914 172.573L152.968 172.386L152.781 173.331C152.064 173.215 151.405 172.822 150.796 173.429L151.87 174.624C151.769 174.918 151.799 175.311 151.682 175.569C151.349 176.306 150.955 177.272 151.182 178.09C149.944 178.752 151.404 179.647 151.438 180.106C151.469 180.512 151.003 181.703 151.094 181.839C151.636 181.767 151.698 182.264 151.82 182.311C152.187 182.455 152.702 182.42 153.08 182.56C153.19 182.602 153.212 182.871 153.333 182.938C153.75 183.165 155.365 182.846 155.726 182.43L156.609 182.932C157.692 182.292 159.429 183.311 158.124 184.379L158.314 185.072C157.865 185.598 157.513 185.293 157.117 185.326C157.034 185.332 156.106 185.869 155.669 186.021C154.36 186.482 154.141 186.56 152.928 185.805C152.906 186.594 152.428 186.479 151.953 186.595C151.805 186.631 151.694 186.844 151.575 186.847C150.768 186.871 150.08 186.426 150.345 185.621C149.153 185.683 148.837 185.014 148.106 184.522C147.95 184.416 147.677 184.493 147.634 184.428C147.586 184.357 147.78 184.12 147.727 183.956C147.651 183.714 147.237 183.371 147.222 183.2C147.204 182.994 147.365 182.777 147.347 182.57C147.338 182.451 146.69 181.503 146.651 181.122L146.714 180.807L147.753 180.522C148.023 180.035 147.621 179.864 147.594 179.672C147.506 179.025 147.218 178.362 147.214 178.286C147.126 177.077 147.461 175.404 148.278 174.567L148.341 174.252C148.093 173.685 147.893 172.529 148.148 171.921C148.191 171.819 148.688 171.671 148.557 171.511L147.137 170.411L147.83 170.221C147.311 169.499 147.739 168.745 148.52 168.392C148.128 167.909 148.347 166.97 148.264 166.377C148.24 166.202 147.824 165.425 147.821 165.306C147.804 164.37 148.613 163.492 147.691 162.661L148.824 161.903L148.633 161.21L150.27 160.388L151.311 160.922L151.971 160.07L154.019 160.476L153.894 161.106C154.799 161.05 155.387 161.949 156.195 161.89C156.391 161.876 157.432 160.986 158.02 160.942C158.303 160.922 158.684 161.149 158.966 161.129C159.248 161.11 159.611 160.353 160.351 160.749C160.508 160.832 160.526 161.288 161.077 161.22Z" fill="#37B4B4"/>
<path d="M176.901 167.304L176.714 168.25L178.099 167.869C177.796 168.723 179.097 169.217 178.639 170.105C178.287 170.242 177.557 170.968 177.317 170.989C176.578 171.052 176.041 171.182 175.302 171.245C175.062 171.266 174.401 171.987 174.169 172.003C173.471 172.054 172.327 172.191 171.838 172.196C171.503 172.198 171.096 172.006 170.735 171.977L170.86 171.347L169.915 171.16C169.876 171.964 169.166 172.328 169.194 173.145C169.258 174.982 168.078 176.592 168.194 178.187C168.207 178.37 168.686 178.76 168.699 178.943C168.882 181.442 167.206 183.52 168.018 185.685L167.263 186.19L167.958 187.638C167.551 187.793 167.363 188.411 167.393 188.836C167.422 189.205 168.44 189.836 168.058 190.442L167.427 190.317L167.839 191.545C166.877 191.921 167.532 193.488 167.402 193.751C167.319 193.918 166.757 194.144 166.868 194.791L167.813 194.978L167.688 195.609L169.989 196.392C170.931 195.574 172.064 195.408 173.295 195.41C173.388 195.553 172.921 196.734 172.952 197.143C172.965 197.326 173.444 197.716 173.457 197.898C173.514 198.666 172.974 199.214 172.736 199.884L171.853 199.382C171.814 200.108 170.973 200.301 170.438 200.739C170.272 200.552 169.731 199.976 169.617 199.921C168.538 199.383 167.413 199.871 166.906 198.729C165.985 199.296 164.824 198.244 163.788 198.766C164.278 198.028 163.462 197.519 163.438 197.223C163.396 196.726 163.659 196.375 163.058 195.837L163.436 195.584C162.759 194.9 163.607 194.521 163.685 194.324C163.959 193.622 163.887 192.399 164.185 191.803C164.298 191.58 165.039 191.494 165.003 190.983C164.963 190.424 164.038 190.251 163.521 190.198L163.172 188.655L163.612 188.087L163.547 186.764L163.924 186.511C163.785 184.918 164.625 183.768 163.791 182.227L164.356 181.029L164.103 180.652L165.233 178.255L164.728 177.5L165.105 177.248L164.915 176.555C165.521 176.125 165.811 174.663 165.415 174.034L165.824 173.624L164.972 172.964L165.35 172.711L165.159 172.018L165.662 171.135C164.652 170.152 165.525 169.729 165.722 169.182C165.906 168.665 165.902 167.993 166.065 167.449L167.293 167.037L167.546 167.415L168.741 166.342C169.433 166.584 170.121 166.452 170.757 166.086L172.713 167.784C173.243 167.172 173.636 167.456 174.098 167.404C174.235 167.388 174.35 167.156 174.476 167.151C174.799 167.14 175.219 167.348 175.578 167.37L175.703 166.739L176.901 167.304Z" fill="#37B4B4"/>
<path d="M135.309 160.697C134.729 160.487 134.204 160.838 134.176 161.455C133.336 161.252 132.665 161.663 131.751 161.302C131.638 161.257 130.79 160.627 130.615 160.422L129.45 160.518L129.325 161.148L128.694 161.023L128.067 162.537L127.217 162.696L126.806 162.287C126.454 162.81 126.908 163.358 126.903 163.452C126.882 163.871 126.618 165.351 126.466 165.658C126.341 165.908 125.378 166.091 125.554 166.951L126.845 166.224C127.408 166.421 128.232 166.378 128.735 166.599C129.542 166.956 129.478 166.982 130.311 166.912C130.974 166.856 131.034 167.327 131.194 167.414C131.368 167.511 131.637 167.443 131.824 167.539C131.875 167.565 132.451 168.426 132.456 168.483C132.559 169.863 130.94 169.722 130.98 170.974L128.396 170.79L128.87 171.702C128.43 172.119 128.081 172.112 127.516 171.925L127.391 172.555L126.446 172.368L126.571 171.738C125.931 171.591 125.433 171.365 124.901 171.898L125.218 172.78L125.69 172.873L125.506 175.457L124.876 175.332L124.816 177.285L126.139 177.22L126.172 177.881L126.707 177.66L126.582 178.29L128.157 178.602L128.282 177.972C128.532 178.051 128.849 178.035 129.07 178.128C129.188 178.178 129.219 178.485 129.323 178.506C129.707 178.582 131.015 177.868 131.466 179.258L132.789 179.193L133.358 180.452L132.7 182.123C132.237 182.08 131.727 181.858 131.282 181.842C131.002 181.832 130.086 182.44 129.706 181.529C128.986 182.202 128.716 182.113 127.943 182.162C127.807 182.171 127.669 182.436 127.565 182.415C127.461 182.394 127.429 182.08 127.313 182.037C126.764 181.83 126.05 182.033 125.8 181.41C125.001 181.903 124.025 181.854 123.154 181.541C123.062 181.509 122.734 180.881 122.113 181.007C122.383 180.52 121.984 180.356 121.954 180.157C121.774 178.968 121.996 177.515 121.066 176.378L121.662 175.022L121.032 174.897C121.178 174.045 121.951 173.265 121.878 172.281C121.858 172.002 121.102 171.636 121.497 170.896C121.581 170.739 122.036 170.721 121.969 170.17L121.338 170.046C121.124 169.725 122.159 168.96 122.25 168.752C122.473 168.237 122.243 167.48 122.877 167.239C122.125 166.278 121.694 165.61 122.999 164.971L122.62 164.405L121.833 164.248C121.76 163.707 122.257 163.642 122.304 163.523C122.479 163.067 122.421 162.335 122.616 161.947C122.737 161.703 123.669 161.459 123.78 161.032C123.139 161.026 123.004 160.423 122.676 159.994C123.254 159.588 123.369 158.481 124.185 158.165C124.277 158.13 124.424 158.261 124.5 158.227C125.01 158.001 125.604 157.647 126.137 157.405L126.733 156.05L128.088 156.646L129.159 156.203C129.982 157.038 131.36 156.81 132.247 157.143C133.03 157.439 135.399 157.401 135.463 158.271C135.495 158.703 135.162 159.358 135.15 159.847C135.148 159.974 135.583 160.224 135.309 160.697Z" fill="#37B4B4"/>
<path d="M228.682 163.813L228.807 163.183C229.353 163.537 229.818 163.092 229.973 163.087C231.041 163.05 231.393 163.837 231.991 164.469C232.213 164.703 232.945 164.796 232.592 165.571C233.849 165.673 232.763 166.227 232.657 166.894C232.298 166.869 231.88 166.665 231.554 166.675C231.185 166.684 230.216 167.363 230.106 167.371C229.757 167.397 229.246 167.135 228.846 167.121C228.722 167.116 228.572 167.394 228.468 167.374C228.364 167.353 228.331 167.039 228.215 166.996C227.237 166.628 225.045 166.138 224.309 166.877L223.426 166.374L221.789 167.196C221.756 167.792 221.402 168.537 221.415 169.087C221.418 169.218 221.801 169.386 221.605 169.779C221.545 169.899 221.279 169.918 221.227 170.032C221.086 170.348 220.861 171.551 220.852 171.923C220.851 172.044 221.09 172.163 221.105 172.3C221.128 172.498 220.963 172.721 220.98 172.931C220.995 173.12 221.506 173.598 221.612 173.875L222.462 173.716L222.587 173.085C223.58 173.41 224.966 173.377 225.896 173.741C226.093 173.82 226.472 174.668 227.156 173.991L227.788 174.935L227.538 176.196L224.769 177.775L223.728 177.242L223.603 177.872C223.15 177.844 222.603 177.582 222.185 177.591C222.053 177.594 221.886 177.977 221.492 177.781C221.344 177.706 221.318 177.242 220.767 177.31C220.629 177.921 220.081 178.209 220.108 178.98C220.112 179.112 220.368 179.238 220.361 179.358C220.276 181.159 219.638 182.641 219.739 184.147L218.828 185.441L219.458 185.565C219.6 185.777 218.691 188.528 218.74 189.189C218.764 189.512 219.542 189.817 219.058 190.89C219.005 191.007 218.726 191.027 218.68 191.143C218.535 191.513 218.588 192.087 218.43 192.403C218.349 192.567 217.76 192.742 217.675 192.908C217.494 193.262 217.642 193.704 216.984 193.918L215.346 193.92L214.714 192.976L215.217 192.094L214.899 190.393L215.276 190.14L215.211 188.817C215.777 187.862 216.273 185.858 216.023 184.721L216.966 183.27C216.293 182.55 216.382 182.28 216.333 181.507C216.323 181.371 216.059 181.233 216.08 181.129C216.1 181.025 216.415 180.993 216.457 180.877C217.218 178.856 216.651 176.432 217.644 174.889L217.139 174.134L217.641 173.251L217.042 172.969L217.67 171.456L218.3 171.581C218.473 170.76 217.579 170.38 218.076 169.407C218.868 168.5 218.223 167.478 218.385 166.194L219.141 165.688L219.169 163.893L219.799 164.018L220.427 162.505C221.375 162.941 222.539 161.662 223.168 162.72L224.3 161.962L225.183 162.465L225.561 162.212L226.066 162.967L227.389 162.902L228.682 163.813Z" fill="#37B4B4"/>
<path d="M248.393 156.913L248.268 157.543C248.421 157.55 248.597 157.667 248.741 157.636C249.96 157.387 249.506 157.69 250.001 157.886C250.408 158.049 250.979 158.028 251.419 158.167L250.948 158.893L251.138 159.585C250.311 160.538 249.695 159.912 248.934 159.967C248.425 160.004 248.07 161.152 246.541 160.475C246.42 160.422 246.411 160.004 245.973 160.035C245.84 160.045 245.721 160.283 245.595 160.288C245.178 160.297 244.633 160.035 244.177 160.007C243.792 161.041 244.051 161.934 243.93 162.905L244.56 163.03C244.6 163.873 244.049 163.941 243.618 164.481L244.563 164.668L244.188 166.559C243.834 166.279 242.989 166.842 243.118 167.002L243.717 167.285L243.623 167.757L244.254 167.882L244.066 168.828C244.514 168.962 245.063 168.953 245.484 169.109C245.6 169.151 245.626 169.451 245.737 169.486C246.955 169.868 248.425 169.918 249.676 170.267L249.773 171.432C249.442 171.796 247.694 173.359 247.256 173.39C246.817 173.421 246.328 172.98 245.933 173.455L245.112 172.637C244.623 173.091 243.96 172.684 243.317 172.609L242.252 176.328L243.197 176.515C243.13 177.334 242.151 177.251 242.224 178.124C242.265 178.607 242.241 178.864 242.289 179.447C242.324 179.863 241.693 179.941 241.755 180.487C241.957 180.789 243.078 180.173 243.298 180.138C244.075 180.017 245.131 180.076 245.944 180.007C246.13 179.992 246.516 179.515 246.699 179.502C247.816 179.419 248.36 180.375 249.253 180.663L248.847 182.712L247.65 182.966L247.24 182.557C247.134 184.196 245.256 183.926 244.062 184.547L243.747 184.484C243.283 183.305 242.054 183.654 241.035 183.292C240.922 183.253 240.903 182.968 240.783 182.914C240.41 182.746 239.507 182.822 239.458 182.161C239.439 181.878 239.665 181.497 239.646 181.215C239.622 180.89 239.018 179.738 239.013 179.452C238.983 177.704 239.869 176.704 239.194 175.231C240.442 174.325 239.043 172.954 239.819 172.079C239.9 169.606 240.115 166.905 240.626 164.707C240.125 163.913 240.21 163.085 240.464 162.218L241.094 162.343C241.355 161.671 241.178 161.325 240.745 160.8L241.562 159.98L241.12 158.91C241.617 158.517 242.333 158.354 242.346 157.679C243.182 157.822 243.832 156.974 244.644 156.824L246.315 157.483L246.44 156.853L248.393 156.913Z" fill="#37B4B4"/>
<path d="M159.394 135.014L158.449 134.826L157.759 136.654C157.312 136.297 155.996 137.323 156.249 137.665L157.856 137.82L158.264 137.41L158.612 138.134L159.462 137.975L159.587 137.344C160.064 137.619 160.29 137.189 160.438 137.185C161.288 137.161 161.811 138.005 162.739 137.969L163.278 140.205L162.523 140.71L162.557 142.191L161.927 142.066L161.867 144.019L160.544 144.084C160.462 144.333 160.487 144.669 160.388 144.872C160.192 145.265 159.266 145.986 159.76 146.385C158.854 146.795 158.669 147.96 158 148.656C157.372 149.311 156.584 149.243 155.733 149.353C155.205 148.911 155.517 148.544 155.479 148.157C155.439 147.729 154.468 147.458 155.445 146.676C155.104 146.713 154.617 146.309 154.593 146.016C154.495 144.827 156.481 144.756 156.544 144.437L156.039 143.682L156.479 143.115L156.32 142.264L157.265 142.452L157.83 141.254C157.265 140.916 156.874 141.647 156.602 141.665C156.33 141.683 155.367 141.735 155.279 141.731C154.631 141.697 153.899 141.391 153.231 141.324L153.421 142.017L151.783 142.02L151.749 140.539L150.897 139.879C151.113 139.254 150.934 138.603 150.611 138.021C151.211 137.701 151.507 137.449 151.522 136.728C153.06 136.964 152.803 135.702 153.188 134.93C153.477 134.351 155.7 133.079 155.735 131.996L156.365 132.121L157.024 130.45L160.046 129.248C160.119 129.622 160.539 129.617 160.614 129.688C161.329 130.376 161.113 132.305 160.746 133.153C160.601 133.487 159.608 134.116 159.551 134.226C159.45 134.419 159.479 134.768 159.394 135.014Z" fill="#37B4B4"/>
<path d="M232.534 131.171L232.6 132.494L233.199 132.777C232.675 132.941 232.846 133.368 232.696 133.66C232.547 133.951 231.997 134.281 232.1 135.015L231.47 134.89C231.505 136.135 229.99 135.979 230.025 137.224L230.592 137.664C229.831 137.343 229.443 137.711 228.861 138.139L229.051 138.832L228.389 138.865C228.124 139.297 228.562 139.662 228.548 139.715C228.352 140.521 227.289 141.791 227.041 142.364C226.92 142.641 226.648 143.979 226.666 144.254C226.672 144.341 227.014 144.975 227.234 144.695C228.319 144.589 228.534 143.57 229.816 144.06C229.931 144.106 229.964 144.417 230.068 144.438C230.131 144.45 230.711 143.989 231.234 144.341L231.484 143.081L234.067 143.265L233.942 143.895L235.362 144.996L234.859 145.879L235.112 146.256C234.351 146.525 234.46 146.949 234.232 147.392C234.025 147.79 232.522 148.104 232.628 148.875L231.997 148.75C231.831 148.861 231.752 150.666 231.529 151.113C231.447 151.277 230.859 151.452 230.774 151.619C230.178 152.775 229.848 154.917 228.165 154.868L228.04 155.498C227.487 155.562 227.482 155.126 227.314 155.027C227.147 154.928 226.871 154.998 226.684 154.902C225.733 154.412 226.485 152.947 226.05 152.32L226.112 152.005C227.392 151.564 226.627 149.621 228.156 149.954C228.303 149.063 228.296 148.406 229.193 148.03C228.933 147.389 228.194 147.233 227.553 147.214C227.43 147.209 227.279 147.487 227.175 147.467C227.071 147.446 227.039 147.132 226.923 147.089C226.505 146.931 225.949 146.945 225.505 146.808L224.845 147.66L223.111 147.316L223.236 146.686L222.606 146.561C222.811 145.724 221.605 145.085 222.697 144.45L221.845 143.79C222.354 143.026 222.57 142.414 223.512 141.992L223.322 141.299L225.085 140.666C224.598 140.016 225.174 139.059 225.238 138.24C225.31 138.192 225.546 138.39 225.711 138.334C226.514 138.067 226.721 135.501 228.321 135.904C228.674 135.381 228.212 134.801 228.225 134.738C228.245 134.634 228.542 134.608 228.602 134.486C228.992 133.695 229.405 133.508 229.482 133.35C229.776 132.76 229.528 131.813 230.709 132.119L230.896 131.174L232.534 131.171Z" fill="#37B4B4"/>
<path d="M256.215 163.703L256.09 164.334C256.99 164.699 257.332 165.268 258.266 165.748C258.411 165.822 259.351 167.047 259.591 167.32L260.757 167.224L260.569 168.169L262.398 168.859L262.117 170.277C262.398 170.958 262.919 170.954 263.599 171.062C263.42 171.58 263.458 172.331 263.255 172.795C263.202 172.916 262.784 172.925 262.815 173.363C262.827 173.549 263.261 173.972 262.911 174.529L261.588 174.594L261.37 175.697L259.922 176.392L259.641 177.81C258.496 177.439 258.727 178.785 257.91 179.105C257.822 179.14 257.668 179.008 257.595 179.042C257.354 179.152 256.99 179.535 256.84 179.548C256.637 179.563 256.419 179.409 256.21 179.423C256.074 179.432 255.936 179.696 255.832 179.675C255.728 179.655 255.695 179.344 255.58 179.298C254.721 178.97 253.719 179.401 252.934 179.428C251.756 179.47 251.783 178.64 251.483 178.486C251.299 178.39 251.037 178.456 250.853 178.361C250.327 178.09 250.574 176.76 250.786 176.219C250.957 175.784 252.126 174.765 252.106 174.516C251.689 174.161 252 173.846 251.979 173.508C251.957 173.202 251.619 173.256 252.166 172.562L251.408 171.43L252.666 170.041C252.175 169.509 252.691 168.772 252.725 168.088C252.771 167.164 252.913 166.265 252.91 165.505C252.909 165.03 253.303 164.594 252.845 164.182C253.885 163.294 254.91 163.314 256.215 163.703ZM258.304 169.685C258.596 168.525 257.713 168.749 257.073 168.459C256.938 168.396 256.893 167.915 256.348 167.987C255.991 168.5 256.447 169.022 256.444 169.153C256.438 169.551 256.169 170.061 256.195 170.413C256.219 170.736 256.997 171.041 256.512 172.114C256.074 173.085 256.038 173.664 255.698 174.572C255.655 174.688 255.348 174.716 255.32 174.825C255.306 174.881 255.772 175.488 255.417 175.99C255.979 176.177 256.327 176.187 256.771 175.768L256.674 174.602C257.156 174.799 257.701 174.413 258.091 174.064C258.162 174.003 258.095 173.793 258.153 173.749C258.906 173.158 259.935 172.94 259.851 171.793C259.829 171.507 259.012 170.985 259.502 170.25L258.304 169.685Z" fill="#37B4B4"/>
<path d="M213.378 166.675C213.044 167.352 213.697 167.871 213.097 168.093L213.131 169.573L213.761 169.698L213.386 171.589L212.756 171.464C212.311 172.801 212.767 173.972 212.322 175.308L212.952 175.433L212.39 178.269L211.759 178.144C211.742 178.678 211.381 179.409 211.416 179.877C211.429 180.06 211.908 180.45 211.921 180.633C211.97 181.294 211.633 182.334 211.737 183.216C211.752 183.353 211.979 183.464 211.989 183.594L211.078 184.887L210.448 184.762L210.323 185.392L210.953 185.517L210.987 186.998L209.823 187.913L210.675 188.573C210.069 188.853 210.192 189.62 210.016 190.244C210.633 190.271 210.984 190.796 210.774 191.377L210.144 191.252L209.956 192.197C208.875 191.885 208.449 193.356 207.533 193.682C207.06 193.591 206.744 194.027 206.21 193.747C205.513 193.383 205.591 192.062 205.86 191.385L206.49 191.51L206.646 190.722L205.951 189.274L206.768 188.454L206.516 188.076L206.987 187.351C206.606 187.439 205.901 186.582 205.883 186.313C205.841 185.732 206.303 185.25 205.565 184.613L206.382 183.792L206.161 183.257L207.421 183.507C207.136 182.618 206.411 182.311 206.882 181.271C206.934 181.157 207.193 181.14 207.26 181.019C207.356 180.845 207.288 180.576 207.385 180.388C207.481 180.201 208.127 180.077 208.171 179.725L207.226 179.538C207.177 178.975 207.791 178.917 207.759 178.498C207.75 178.365 207.511 178.245 207.507 178.12C207.483 177.1 208.4 176.008 207.439 175.159L209.011 173.833C209.364 173.127 208.953 172.721 208.946 172.51C208.91 171.488 209.155 170 210.201 169.484L210.039 166.996L210.67 167.121C210.688 166.269 211.44 166.422 212.022 166.079L213.378 166.675Z" fill="#37B4B4"/>
<path d="M235.945 173.441L236.544 173.723L236.073 174.449L237.019 174.636L236.547 175.361L236.737 176.054L236.076 176.087C236.594 177.142 235.542 178.303 236.113 179.205L234.918 180.278L234.793 180.909L235.488 182.356L235.113 184.247L233.918 185.32L234.108 186.013C233.258 187.03 233.567 188.909 233.611 190.172C233.641 191.016 232.788 191.548 232.828 192.473L232.198 192.348L232.357 193.198L230.943 195.374L229.367 195.062C229.718 194.513 228.977 194.12 228.955 193.834C228.864 192.594 229.615 190.592 229.2 189.298L230.457 187.909C229.531 186.157 231.243 184.093 230.259 182.302L230.446 181.357L231.295 180.379L230.443 179.719L231.386 178.268L230.628 177.135L231.948 175.432L231.883 174.109C231.943 173.99 232.208 173.974 232.26 173.857C232.758 172.75 231.682 172.281 232.067 171.526C232.852 171.167 233.652 170.556 234.492 170.86C234.54 170.833 234.051 169.996 234.837 169.946C235.188 169.924 235.698 170.179 236.097 170.196C237.15 171.413 237.298 172.415 235.945 173.441Z" fill="#37B4B4"/>
</svg>
