<svg width="473" height="364" viewBox="0 0 473 364" fill="none" xmlns="http://www.w3.org/2000/svg">
<path d="M284.5 185.5C284.115 187.445 287.725 187.255 288 188.25L287.5 190L289 190.75L289.5 193.5C291.375 193.135 292.255 195.285 294 195C293.92 196.005 294.34 197.14 293.5 197.75C294.025 198.69 294.655 198.33 295.25 198.5C296.325 198.81 295.96 200.985 296 202H297C296.7 203.46 298.405 203.315 299 204.25C299.965 205.77 300.37 209.755 303 210V211C303.95 210.805 304.335 211.65 305 212.25L304.5 213.5H305.5C306.07 214.97 305.805 217.58 307.25 218.5C307.375 218.58 307.645 218.425 307.75 218.5C308.695 219.165 309.55 220.5 310.5 221.25L310 223H312L312.5 224.75L312 227C313.045 226.6 313.685 228.34 314.25 228.5C314.7 228.63 315.755 228.4 316 229.25C316.29 230.25 315.5 230.665 315.5 230.75C315.5 230.915 315.965 231.06 316 231.25C316.255 232.725 316.345 233.97 317.5 235.25L317 237.75C316.3 238.505 315.23 239.085 314.25 239L312.75 241H309.5V243H310.5L310 244.75C310.175 245.32 311.45 246.57 311.5 246.75C311.945 248.315 311.685 249.485 312 251.25C312.18 252.26 311.57 253.33 312.75 254C312.985 254.135 313.405 253.905 313.5 254C313.555 254.055 313.36 254.995 314 255.25V255.75C312.34 256.94 312.35 258.04 312.5 260H313.5C313.47 260.24 313.585 260.535 313.5 260.75C312.77 262.57 313.695 262.61 314 264.25C314.125 264.92 313.92 265.785 314 266.5H313V267.5L315.5 268.5C315.45 268.905 315.59 269.415 315.5 269.75C315.325 270.385 314.71 270.375 315.5 271.75L314 273.75L315 276.75L314 279.5L313 280C313.92 280.375 314.715 279.36 315.25 279.5C315.535 279.575 316.085 280.375 317 280C317.06 281.02 317.765 281.625 317.5 282.75C317.455 282.94 317.065 283.045 317 283.25C316.905 283.545 317.09 283.935 317 284.25C316.965 284.37 315.37 285.965 315.25 286C314.12 286.31 313.45 285.5 312.5 285.5L312 287.5C311.055 287.13 310.68 288.38 310.25 288.5C309.82 288.62 309.175 288.385 308.75 288.5C308.475 288.575 308.025 289.425 307.75 289.5C307.325 289.615 306.675 289.385 306.25 289.5C305.805 289.625 305.045 291.135 303.5 290.5V292C302.795 292.095 301.885 291.86 301.25 292C300.37 292.195 299.48 293.5 298.75 294C297.645 294.755 297.01 294.53 296.5 295.75C295.7 297.665 295.28 297.04 294.25 297.5C293.67 297.76 292.37 298.965 292.25 299C290.475 299.485 288.96 299.51 287.25 299C286.305 299.94 284.305 299.87 284.5 301.5C282.68 301.265 281.85 301.575 280.75 303L279 302.5C279.26 303.325 278.63 303.435 278.5 303.75C278.39 304.02 278.595 304.425 278.5 304.75C278.375 305.195 276.975 305.725 277.5 307L274.75 306.5C274.045 306.59 272.4 307.96 272.25 308C271.555 308.19 270.575 307.975 269.75 308.5C268.84 309.085 268.02 312.04 266.25 311.5C266.045 311.435 265.935 311.035 265.75 311C263.41 310.585 259.985 311.855 257.75 312.5C257.5 312.57 254.63 315.005 253.75 315.5C251.935 316.52 251.15 316.98 249.25 317.5C249.085 317.545 247.835 318.84 247.25 319L245.75 318L244.5 318.75V320C242.935 319.925 241.44 319.85 240.25 321H239C239.155 318.785 237.02 320.495 237.5 322L234.25 321.5L231.25 323.5L227.5 324C227.695 323.05 226.85 322.665 226.25 322L225.75 322.5C224.975 321.465 223.335 322.3 222.25 322C221.425 321.775 220.835 319.915 218.75 322C218.425 321.935 218.045 322.085 217.75 322C216.6 321.67 216.715 322.13 216.25 322C214.165 321.425 211.76 321.085 209.75 320L208.75 320.5L207.5 320V319H205.5V320L201.75 318L200.25 319L198.75 318C198.26 318.055 197.71 317.92 197.25 318C196.92 318.055 196.895 318.965 196.25 318L194.25 318.5L193.5 317.75L194 316.5C193.315 316.605 192.335 316.34 191.75 316.5C191.305 316.625 190.545 318.135 189 317.5V316L186.75 316.5C185.65 315.285 183.33 315.905 183.5 314C182.475 313.88 181.46 313.165 180.25 313.5C179.82 313.62 179.445 314.87 178.5 314.5V313.5C176.31 313.27 173.86 313.06 172.25 311.5L171.25 312C170.125 311.25 168.825 310.38 167.5 310.5C166.9 308.045 162.7 308.015 160.75 306L159.25 306.5C158.94 306.01 157.595 305.105 157.5 304.75C157.385 304.325 157.615 303.675 157.5 303.25C157.325 302.615 156.12 302.55 156.5 300.25C156.67 299.22 156.5 299.515 156.5 299.25C156.5 299.15 157.38 298.405 157 297.5C155.11 297.465 154.995 295.8 156.5 294.75L156 294.25C156.845 293.785 156.315 292.925 156.5 292.25C156.545 292.085 157.825 290.81 158 290.25L156.5 287.75C157.9 286.825 157.475 285.53 157.5 284C154.88 283.775 155.53 281.135 155.5 279H156.5L155.5 276C157.44 276.25 157.69 275.14 157.5 273.5H156.5C156.84 272.1 155.7 271.03 156 269.75C156.065 269.475 156.9 268.735 156.5 267.75C159.315 265.455 155.755 265.115 155.5 264.25L156.5 261.25C156.015 260.23 157 258.41 157 258.25C157 258.09 156.53 257.94 156.5 257.75C156.36 256.92 156.595 255.875 156.5 255L155 254.25L156 253C154.275 253.19 154.81 251.615 154 250.75C154.82 250.08 155.195 249.605 155 248.5H156C156.27 247.05 155.61 246.025 155.5 244.75L156 243.5H157.5C157.18 242.24 158.615 241.54 157.5 240.75C159.015 239.39 159.99 237.525 160.5 235.75C160.575 235.48 161.135 235.015 161.5 233.75C161.64 233.27 162.97 232.955 162.5 231.25L161.5 229.75C161.78 229.305 162.905 228.575 163 228.25C163.28 227.275 163.435 226.635 164 225.75C164.635 224.76 164.955 225.55 165.5 224.25C166.395 222.115 169.13 220.68 168.5 218C169.45 218.195 169.835 217.35 170.5 216.75L169.5 214.75C170.54 213.87 169.395 212.315 170.75 211.5H173.5L173 208.5C173.975 208.795 174.16 207.83 174.75 207.5C174.985 207.37 175.405 207.595 175.5 207.5C175.59 207.41 175.385 207.02 175.5 206.75C175.7 206.27 176.605 206.085 175.5 205.25L177 204.5C176.405 203.04 178.805 200.955 179 200.25C179.115 199.825 178.885 199.175 179 198.75C179.145 198.22 181.65 195.94 182.5 196.5C182.125 194.89 183.875 194.61 183.5 193C185.16 193.05 186.01 191.67 187.25 193.5C188.985 192.68 190.125 193.38 192.25 193C195.065 192.495 199.575 192.95 201.25 192.5C203.36 191.935 204.635 192.65 207.25 192C210.22 191.26 213.245 192.69 215.75 192C216.1 191.905 216.9 190.595 217.25 190.5C218.05 190.28 219.19 190.925 219.75 190L222.25 191.5C224.87 190.335 228.26 191.9 230.25 189L234.25 190L235.75 189L237.25 190C237.655 189.245 238.29 189.65 238.75 189.5C240.275 189.01 245.065 188.72 246.75 189C247.8 189.175 249.145 188.88 250.25 189C251.385 187.95 252.02 186.595 253.75 187C255.12 187.32 256.19 188.46 258.25 188C260.025 187.6 261.5 188.605 263.25 187H263.75C264.165 187.3 265.935 187.955 266.25 188C266.765 188.075 268.335 188.115 268.75 188C269.235 187.865 271.4 185.685 272.25 185.5C273.03 185.33 274.15 185.615 275 185.5V186.5C275.33 186.83 277.38 185.62 277.75 185C279.025 186.405 280.83 184.67 282.25 185C282.615 185.085 283.445 185.91 284.5 185.5ZM282.5 190.5H279C279.115 191.905 278.05 192.17 276.75 192L275.75 191H274.75L273.75 192C272.945 191.03 271.5 192.445 270 192V193C267.78 192.9 266.19 192.91 264.25 193.5C263.71 193.665 261.785 192.77 260.25 193C257.225 193.45 252.4 193.94 249.75 193.5C247.1 193.06 246.81 194.195 245.75 194.5C244.48 194.865 244.175 193.615 243.75 193.5C241.725 192.94 241.28 194.355 240.75 194.5C239.85 194.745 238.235 194.285 237.25 194.5C235.05 194.975 236.51 195.41 233.25 195C230.535 194.66 229.405 195.96 227 196V197L225.25 196C224.535 196.945 223.95 197.165 222.75 197L221.25 196L219.75 196.5L218.75 196C217.185 197.275 215.22 197.33 213.75 197C211.185 196.425 207.05 197.815 204.75 196.5L202.75 197.5C200.065 197.325 196.56 195.525 194.25 197.5C193.53 196.605 192.135 197.12 191 197V198.5C191.4 198.555 191.925 198.405 192.25 198.5C192.575 198.595 194.95 200.35 194.5 201H195.5C195.5 202.07 196.675 202.86 195.5 203.75C196.385 204.87 197.035 205.215 198.5 205L198 206.25C198.31 207.045 199.435 206.935 199.5 207C199.605 207.105 199.555 208.915 201 208.5V210C201.735 210.16 203.805 210.565 204 211.25C204.16 211.805 204.16 212.685 204.5 213.25C204.94 213.985 205.89 214.12 205.5 215.5L209 216V219.75C209.9 220.635 210.61 220.395 211 221.75C211.095 222.08 210.945 222.6 211 223L214 223.5C213.605 225.915 216.085 227.67 216 230C217.545 229.365 218.305 230.875 218.75 231C219.335 231.16 220.315 230.895 221 231L220.75 232H220L221 235.5H222.5L222 237C222.945 236.63 223.32 237.88 223.75 238C224.435 238.19 226.79 237.795 227 238L227.5 240H226.5V241.5C228.2 241.265 228.72 242.11 228.5 243.75L227.5 245.5C227.61 245.59 228.015 245.37 228.25 245.5C229.215 246.045 229.395 247.895 229.5 248C229.565 248.065 230.69 247.955 231 248.75V251L232.25 250.5C234.56 251.65 234.905 250.235 235.75 250C236.415 249.815 237.585 250.185 238.25 250C238.6 249.905 239.4 248.595 239.75 248.5C240.175 248.385 240.825 248.615 241.25 248.5C241.82 248.345 243.26 246.32 244.75 248H245.25C245.85 247.335 246.695 246.95 246.5 246L248.25 246.5L249.75 245.5L250.25 246C251.135 244.67 252.275 244.99 253.75 245L255.75 243C257.75 244.105 261.06 243.005 263.25 242.5C263.445 242.455 263.56 242.035 263.75 242C264.42 241.875 265.285 242.08 266 242V240.5L267.75 239.5L269.25 240C271.725 238.395 275.3 238.325 277.75 239.5L280 238.5V237.5C281.745 237.935 284.395 238.79 285.75 237C287.775 237.52 289.51 239 291.75 238.5C293.24 238.165 294.37 238.54 296.25 238C296.53 237.92 296.975 237.075 297.25 237C297.955 236.805 299.18 237.135 300 237V238H301V237C302.27 237.13 302.99 237.065 303.75 236C305.47 237.285 306.895 235.245 307.75 235C308.24 234.86 308.84 235.25 309.25 234.5L311 235C311.285 234.75 309.675 233.065 309.5 232.75C309.37 232.515 309.595 232.095 309.5 232C309.435 231.935 308.31 232.045 308 231.25L308.5 229.5H307.5C307.395 228.815 307.66 227.835 307.5 227.25C307.38 226.82 306.13 226.445 306.5 225.5H305.5C305.54 224.43 305.705 223.635 304.75 223L303.5 223.5L302.5 221.5L303.5 221C301.495 221.28 302.3 220.745 302 220.25C301.72 219.78 300.595 219.075 300.5 218.75C300.355 218.245 300.015 217.335 300 217.25C299.875 216.58 300.08 215.715 300 215C299.095 215.29 296.715 214.025 296.5 213.25C296.385 212.825 296.615 212.175 296.5 211.75C296.05 210.115 293.145 208.505 292.5 206.75L293 205.25C292.335 204.65 291.95 203.805 291 204L291.5 202.25C290.505 201.465 289.78 199.91 288.5 200C288.8 197.415 286.105 196.915 285 195.25C284.455 194.43 284.55 192.725 283 193L282.5 190.5ZM186.5 205H185V206C183.525 205.68 182.98 206.84 182 207.75C182.06 208.695 181.69 209.69 182.5 210.25L182 211.25L183 213L179 213.5V215H180.5C180.785 215.91 179.535 218.275 178.75 218.5C178.3 218.63 177.245 218.4 177 219.25C176.725 220.21 177.84 220.94 177.5 222C177.405 222.095 176.985 221.87 176.75 222C174.545 223.225 174.4 224.86 173 226.75C173.855 227.275 172.695 227.855 173 229H171.5V230H170C169.635 231.43 170.855 230.73 171.5 231.75V232.25C170.605 232.81 171.185 233.895 171 234.75C170.845 235.46 168.98 238.09 168.25 238.5C168.075 238.6 167.755 238.47 167.5 238.5C167.32 238.68 167.67 240.64 167.5 241.25C167.345 241.805 165.6 242.46 166 243.5C163.395 244.195 162.77 247.955 163 250.5H162V251.5H161C160.805 252.605 161.18 253.08 162 253.75L161.5 255.25L163 256C162.805 257.105 163.18 257.58 164 258.25L163 259.75C165.39 261.985 162.59 265.73 164.5 268.25L164 269.25L164.5 270H163.25C162.825 270 162.925 270.995 163 271.25C163.12 271.645 164.9 273.285 165.5 273L165 275H164V276H165C165.275 276.76 164.5 277.145 164.5 277.25C164.5 277.455 164.925 278.15 164.5 279.25C164.39 279.54 163.54 280.56 163.5 280.75C163.25 281.865 163.955 282.895 162.5 283.75C162.985 284.725 164.75 284.34 165 285.25C165.34 286.495 164.25 287.37 164.5 288.25C164.56 288.46 165 288.585 165 288.75C165 288.98 163.75 290.895 164 291.75C164.135 292.205 165.52 292.72 165 294C162.925 293.845 164.51 295.12 165 296H164L164.5 299.5H165.25L165.5 300.5C164.675 300.245 164.585 300.855 164.25 301C164.02 301.1 163.06 300.815 163.5 301.75C163.58 301.92 165.13 303.465 165.25 303.5C165.67 303.615 166.305 303.395 166.75 303.5C166.95 303.545 167.065 303.975 167.25 304C168.14 304.13 171.82 303.82 172 304V305H174V304H177V305.5C178.04 305.535 179.035 306.165 179.75 307L182.75 306.5C187.03 309.445 192.245 308.78 196.75 310C197.09 310.09 197.595 309.95 198 310V311L198.75 310.5C199.6 311.725 200.35 310.595 200.75 310.5C202.195 310.165 203.595 311.84 204.75 310.5C205.645 311.78 207.175 311.525 208.5 312V313C210.66 313.91 213.075 311.875 214.75 314H215.25C217.36 313.05 219.44 314.895 221.75 314.5C223.06 314.275 223.42 314.93 223.75 315C224.26 315.105 224.94 314.935 225.5 315L224.5 313.25L225.5 311.75L224.5 310.75C225.68 309.895 224.675 309.285 224.5 308.75C224.26 308.01 224.34 306.85 223.5 306.25L224.5 304.75L223.5 303.75L224.5 301.25L223 300.5V299.75C224.515 298.535 224.77 296.58 224.5 294.75C224.48 294.605 223.62 293.905 224 293H223C223.1 291.365 225.1 291.105 224.5 289H225.5V285.5H224.5C224.28 285.28 224.705 282.5 224.5 281.75C224.38 281.32 223.13 280.945 223.5 280H224.5C224.36 278.98 224.83 278.04 225.5 277.25C225.24 276.925 224.53 275.425 224.5 275.25C224.355 274.43 224.6 273.37 224.5 272.5H225.5L224.5 270.25C226.3 269.05 224.975 268.19 225 266.5H226L225.5 265.75C225.845 264.42 225.675 263.15 226 261.75C226.045 261.56 226.44 261.455 226.5 261.25C226.785 260.31 225.85 259.87 226 259C226.845 259.15 227.5 258.765 228.25 258.5C228.74 258.325 228.475 257.88 228.5 257.5L227.5 257.25L226.75 255.5C224.75 255.825 224.79 254.485 223.25 253.5C221.925 252.655 222.945 250.015 221.25 249H219V248C217.405 248.155 216.935 246.28 218 245.25L217.25 243.5H216C215.885 242.205 214.425 241.175 213.75 240L213.25 240.5L210 237.75L210.5 236.25C209.67 235.565 209.12 234.34 208 234.5L208.5 233C207.395 233.29 207 231.92 206.25 231.5C204.985 230.795 205.71 230.56 203.75 230C203.63 229.965 202.035 228.37 202 228.25C201.83 227.64 202.18 225.68 202 225.5C201.05 225.695 200.665 224.85 200 224.25L200.5 223.25L199 222.5L198.5 219C195.785 218.9 196.345 217.15 195.5 215.75C195.06 215.015 194.11 214.88 194.5 213.5L191.5 213C191.845 212.03 191.12 211.605 191 211.25C190.775 210.605 191.1 209.86 190 209.25L190.5 208C188.85 208.315 188.09 206.43 186.5 206.5V205ZM305 242H303V243C302.08 243.38 301.43 242.535 301.25 242.5C299.15 242.12 298.57 243.125 297.25 244.5C295.88 243.375 294.375 242.895 293.25 244.5C292.66 243.74 291.34 243.74 290.75 244.5L288 243.5L287.25 245C286.41 244.005 285.305 244.18 284.25 244C283.92 243.945 283.895 243.035 283.25 244L280.75 243.5C280.005 244.255 278.935 243.82 278.25 245L276.75 244.5C275.99 245.565 275.27 245.63 274 245.5V244.5H273V245.5C271.285 244.895 270.255 246.225 269.25 246.5C267.88 246.875 266.1 246.76 264.75 247C264.565 247.035 264.455 247.435 264.25 247.5C263.955 247.595 263.565 247.41 263.25 247.5C262.4 247.745 262.425 249.185 262.5 250C261.695 250.275 261.445 249.535 261.25 249.5C260.285 249.33 259.02 249.615 258 249.5V250.5L256.75 251L255.25 250.5C254.005 251.605 252.395 251.555 251 252L251.5 252.75C250.3 254.53 248.69 252.605 247.25 253C246.98 253.075 245.245 254.35 244.25 254.5C243.33 254.635 241.785 254.69 241.25 254H240.75C239.33 255.65 239.31 256.17 237.25 257C237.04 257.085 236.94 257.44 236.75 257.5L234.75 257L232.75 259C232.095 259.18 231.46 257.73 230.5 259.25L232.5 262.75C231.665 263.23 232.165 264.045 232 264.75C231.955 264.94 231.56 265.045 231.5 265.25C231.105 266.54 232.655 266.74 232.5 268H231L232 269.75L230.5 271.25L232.5 275.25L231.5 276.75C233.81 278.215 231.635 281.195 232 282.75C232.055 282.985 232.875 283.56 232.5 284.5H233.5C233.2 285.465 231.885 285.93 231 286L232.5 289H231.5L231 292.25L232.5 293C232.88 293.905 232 294.65 232 294.75C232 294.915 232.47 295.06 232.5 295.25C232.75 296.74 232.8 299.435 231.5 300.25C232.83 301.23 232.26 304.735 232 306.25C231.965 306.44 231.5 306.585 231.5 306.75L232 307.25L231.5 307.75C232.32 308.42 232.695 308.895 232.5 310L230.5 310.5C230.635 311.32 230.305 312.545 230.5 313.25C230.62 313.68 232.025 314.23 231.5 315.5C231.775 315.775 234.035 314.175 234.75 315.5C236.03 313.975 237.655 313.28 239.25 312.5L241 313L240.75 312C242.375 312.7 243.135 310.67 243.75 310.5C244.295 310.35 245.205 310.65 245.75 310.5C246.215 310.37 248.41 308.53 250.25 308C250.815 307.84 251.455 306.1 252.5 306.5V305C253.54 305.1 254.75 304.855 255.75 305C255.935 305.025 256.05 305.455 256.25 305.5C257.42 305.775 258.025 305.025 259 305V303.75L259.75 303L261.75 303.5C263.215 302.28 263.82 301.505 263.5 299.5C265.285 299.72 267.195 298.145 268.75 299.5H269.25C269.575 298.815 271.41 298.59 271.5 298.5C271.565 298.435 271.455 297.31 272.25 297H274.25L275 296.25L274.5 295H276V294C276.945 294.37 277.32 293.12 277.75 293C278.885 292.685 281.115 293.315 282.25 293C283.12 292.76 284.485 290.535 284 289.5C285.02 289.64 285.96 289.17 286.75 288.5C287.815 289.715 289.065 288.07 290.5 288.5C290.58 287.955 290.375 287.21 290.5 286.75C290.77 285.775 293.615 285.635 294.25 286.5L296.5 285.5V286.5L299 286L298 284.75C299.16 282.85 300.595 283.79 302.25 283.5C302.445 283.465 302.695 282.725 303.5 283L303 281.75L303.5 280.5C304.54 280.4 305.75 280.645 306.75 280.5C306.935 280.475 307.05 280.05 307.25 280C308.635 279.67 309.51 281.2 310.5 279.75L308.5 279C309.025 277.725 307.625 277.195 307.5 276.75C307.36 276.26 307.75 275.66 307 275.25L308 272.75L307 270.75C307.38 270.405 307.62 269.86 308.25 270C308.405 270.035 309.615 271.06 309 269.75C308.785 269.3 307.8 268.75 307.5 268.25C307.41 268.1 307.565 267.505 307 267.25V266.25L308.5 265.5C308.73 264.33 304.77 260.73 305.5 260H306.5C305.595 258.93 306.465 257.58 305.5 256.75L306.5 254.25C305.715 253.51 305.715 251.49 306.5 250.75L305.5 249.25C306.16 248.08 305.55 248.055 305.5 247.75C305.245 246.23 305.945 244.55 304.5 243.25L305 242Z" fill="#37B4B4"/>
<path d="M297.5 143V142H300.5V143C301.785 142.46 302.495 144.205 303.25 144C304.96 142.945 307.865 143.275 309.25 145L310.25 144.5C310.92 145.32 311.395 145.695 312.5 145.5V146.5C314.35 146.26 315.85 146.79 317.5 147V148C318.945 147.585 318.895 149.395 319 149.5C319.095 149.595 319.515 149.37 319.75 149.5C320.945 150.165 321.385 151.885 321.5 152C321.595 152.095 322.015 151.87 322.25 152C322.595 152.19 323 152.93 323.25 153C323.67 153.115 324.305 152.895 324.75 153C324.945 153.045 325.06 153.465 325.25 153.5C325.92 153.62 326.785 153.42 327.5 153.5C327.62 154.695 327.33 156.1 327.5 157.25C327.52 157.395 328.38 158.095 328 159H329V160H331C330.89 161.04 332.12 161.46 331 162.25L331.5 162.75L331 164H332.5V165.5H333.5V167L335.5 167.5L335 170H336V171H335V172H336C335.62 172.905 336.5 173.65 336.5 173.75C336.5 173.915 336.03 174.06 336 174.25C335.785 175.535 336.13 176.78 337 177.75L335.5 178V180.5L337 181.25L336.5 182.75L337 183.25L336.5 183.75L337 184.75C336.17 185.435 335.62 186.66 334.5 186.5C334.82 187.76 333.385 188.46 334.5 189.25L334 189.75L334.5 191.75L334 193L329.5 194C330.18 195.555 327.72 196.485 327.5 197.25C327.405 197.575 327.61 197.98 327.5 198.25C327.37 198.57 326.74 198.675 327 199.5H324C323.99 201.125 321.985 202.095 320.5 202V203.5C319.105 203.295 318.745 205.43 317.25 205C316.81 204.875 316.445 203.635 315.5 204V205H314.5V206C312.83 205.97 312.07 207.925 310.25 207.5C310.05 207.455 309.935 207.025 309.75 207C308.91 206.875 305.685 207.175 305.5 207L305 205.75C305.82 205.08 306.195 204.605 306 203.5C306.405 203.45 306.91 203.59 307.25 203.5C308.885 203.055 310.365 201.105 310.75 201C311.28 200.855 312.14 201.11 312.75 201C312.95 200.965 313.195 200.225 314 200.5V199L316.5 198.5L316 197.25L318.75 195C318.915 195 319.04 195.44 319.25 195.5C321.185 196.055 321.89 193.55 322.75 193C322.97 192.86 324.035 192.64 324.25 192.5C325.34 191.795 324.965 190.69 325 189.5H326L325.5 187.75C325.355 187.235 326.375 186.41 326 185.5L327.5 186V183.5H328.5C328.695 182.815 328.815 181.895 329 181.25C329.125 180.825 329.785 180.475 329.5 179.25C329.44 178.99 328.55 177.485 328.5 177.25C328.32 176.39 328.89 175.31 328 174.75L329.5 172.75L327 171.5C326.425 170.13 326.19 167.35 324.5 167.5V165.5L323.5 166C323.41 165.295 323.64 164.39 323.5 163.75C323.46 163.56 322.56 162.47 322.5 162.25C322.22 161.22 322.74 160.38 321.25 159.5L320.75 160C319.895 159.22 319.245 158.75 319.5 157.5C319.1 157.445 318.58 157.595 318.25 157.5C316.825 157.09 317.25 156.685 317 156.25C316.325 155.06 313.135 154.985 311.75 155.5C310.745 153.87 309.945 154.33 308.75 154C308.09 153.82 307.185 152.27 307.5 151.5C305.395 151.855 305.025 150.085 302.75 150.5C302.56 150.535 302.435 150.97 302.25 151C299.905 151.35 297.73 150.055 295.75 149L294.75 150C293.715 149.075 291.08 149.635 289.75 150C288.95 150.22 287.17 151.57 286.25 152L284.5 151.5C284.73 152.805 283.535 152.8 282.75 153.5L281 152.5V154C279.46 153.7 278.395 154.505 277 154.5V156C276.235 155.715 275.215 156.9 274.75 157C274.03 157.155 273.01 156.865 272.25 157C272.055 157.035 271.805 157.775 271 157.5L270.5 160.5L267.75 161C267.26 161.14 264.675 165.3 263.5 165V166H262C262.625 167.185 263.24 168.105 263 169.5H262C261.235 171.6 261.06 173.825 259 175.25L258.5 179H259.75L260.5 179.75L259.5 181.25L260.5 182.5L259.5 182.75L260 184C259.05 183.855 258.355 184.55 258.5 185.5H257V186.5H254.75L254 185.75C253.94 184.155 254.46 182.715 253 181.75L254 179.75L251.5 175.25L252 173.5H253.5L252.5 170.5H254.5V169H255.5C255.775 168.195 255.035 167.945 255 167.75C254.865 166.995 254.865 164.505 255 163.75C255.035 163.565 255.435 163.455 255.5 163.25C255.635 162.83 255.39 161.75 256.25 161.5C258.245 160.925 258.765 160.26 260.5 159.5C260.105 157.545 261.9 156.295 263 154.75L262.5 153.5C263.37 153.4 264.43 153.645 265.25 153.5C265.425 153.47 265.535 153.09 265.75 153C266.02 152.89 266.415 153.085 266.5 153C266.595 152.905 266.37 152.485 266.5 152.25C267.15 151.085 269.125 149.545 270.5 150C270.285 147.9 273.215 149.1 273 147C274.545 147.635 275.305 146.125 275.75 146C277.75 145.45 279.22 144.935 281.25 144.5C282.385 144.255 282.905 142.57 284.75 143C288.27 143.825 286.945 142.36 288.25 142C288.86 141.83 292.455 141.885 293.25 142C293.545 142.045 295.395 142.925 295.75 143C296.26 143.105 296.94 142.935 297.5 143Z" fill="#37B4B4"/>
<path d="M326 120.5L327 122.75L326 124.5H327.5C327.395 125.185 327.66 126.165 327.5 126.75C327.295 127.5 324.815 128.455 325.5 130H324.5C324.535 130.235 324.41 130.54 324.5 130.75C324.645 131.095 325.28 131.275 325 132.25C324.61 133.61 322.235 133.635 321 133.5C321.295 134.85 319.995 135.75 320 137L315.25 139L312 138C312.27 136.55 311.61 135.525 311.5 134.25C311.81 133.455 312.935 133.565 313 133.5C313.215 133.285 314.28 130.36 314.5 129.75C315.13 128.01 315.58 127.18 317.5 127L318 124.75C317.12 124.02 317.305 122.625 318.25 122L320.75 121.5L321.5 120L326 120.5Z" fill="#37B4B4"/>
<path d="M239.5 147C239.445 148.745 239.195 149.945 240.75 151L242.25 150C243.66 150.05 244.36 151.415 245.25 152C245.84 152.39 247.015 152.395 247.5 153.25C248.17 154.435 249.79 154.98 250.5 156.25C250.63 156.485 250.405 156.905 250.5 157C250.565 157.065 251.69 156.955 252 157.75L251.5 160.5L247 161.5C247.24 160.315 245.35 159.18 244.75 160L240.75 159C239.16 157.095 236.43 156.125 234.25 155.5C233.805 155.375 233.275 153.975 232 154.5C231.67 154.17 232.555 150.785 231.5 150.25L232.5 148.5C233.935 149.125 234.64 147.165 235.25 147C236.305 146.71 238.285 147.205 239.5 147Z" fill="#37B4B4"/>
<path d="M347.5 203.5L347 204.25C347.8 205.435 349.175 204.91 350.5 205V207C351.055 207.075 351.76 206.885 352.25 207C352.535 207.065 354.82 208.43 355 208.75C355.25 209.19 354.83 209.59 356.25 210C356.58 210.095 357.1 209.945 357.5 210V212.25C356.985 213.2 356.305 212.825 355.75 213C355.12 213.2 353.85 213.84 353.25 214C352.74 214.135 352.165 213.755 351.75 214.5C351.6 214.5 351.47 214.105 351.25 214C350.94 213.855 349.96 213.64 349.75 213.5C348.135 212.43 346.905 209.97 344.5 210.5V209.5C342.935 209.575 341.44 209.65 340.25 208.5L339 209L338.75 210C338.35 209.385 337.3 209.315 336.75 209C336.4 208.8 336.095 208.195 335.75 208C335.515 207.87 335.095 208.095 335 208C334.925 207.925 334.9 206.585 334 206.25L334.5 205.25C333.835 204.65 333.45 203.805 332.5 204L333 202C333.945 202.37 334.32 201.12 334.75 201C337.14 200.34 337.51 202.285 338.25 202.5C340.11 203.035 341.625 203.81 343.75 203.5C343.935 203.475 344.05 203.045 344.25 203C345.52 202.705 346.28 203.7 347.5 203.5Z" fill="#37B4B4"/>
<path d="M268.5 125.5C268.135 126.445 269.375 126.81 269.5 127.25C269.59 127.56 269.41 127.94 269.5 128.25C269.78 129.225 271.58 129.01 272.5 129C272.665 130.375 273.295 131.86 275 131.5L274.5 134.5H276L275.5 135.75C276.925 136.555 276.1 137.86 277 138.75L276.5 140C275.94 140.065 275.265 139.895 274.75 140C274.56 140.04 274.445 140.455 274.25 140.5C272.4 140.93 272.315 139.715 271.25 139C270.735 138.655 269.355 138.335 268.75 138C268.405 137.81 268.095 137.195 267.75 137C267.515 136.87 267.095 137.095 267 137C266.905 136.905 267.13 136.485 267 136.25C266.67 135.66 265.79 134.995 265.5 134.25L266.5 132.5L263 131L263.5 126L268.5 125.5Z" fill="#37B4B4"/>
<path d="M361.5 157.5V158.5H362.5L363 161C361.64 160.66 361.525 161.45 360.75 162C359.975 162.55 357.19 165.38 356.75 165.5C356.205 165.65 355.295 165.35 354.75 165.5C354.52 165.565 353.99 166.145 352.75 166.5C352.425 166.595 351.695 167.72 351.25 168C350.395 166.55 349.38 167.245 348.25 167C348.09 166.965 346.565 165.98 346.5 165.75C346.315 165.075 346.845 164.215 346 163.75V163.25C346.325 162.535 347.805 162.43 348 161.75C348.7 159.3 348.375 160.515 350.25 160C350.525 159.925 350.97 159.08 351.25 159C351.985 158.79 353.585 158.345 354.25 158.5C357.77 159.32 356.41 157.885 357.75 157.5C358.24 157.36 358.84 157.75 359.25 157L361.5 157.5Z" fill="#37B4B4"/>
<path d="M215 278H214L213.5 279.25L214 280.5L212.5 281.25V284H213.5V285H212.5V286H211V287H209.75L209 287.75V289C207.665 288.77 207.335 290.73 206 290.5L206.5 292.25L206 293.5C205.195 293.225 204.945 293.965 204.75 294C203.865 294.155 202.515 293.79 201.75 294C201.43 294.09 200.715 295.225 200.25 295.5C198.68 296.435 195.88 296.05 194.25 296.5C193.975 296.575 193.525 297.425 193.25 297.5C192.165 297.8 190.525 296.965 189.75 298H189.25C188.61 296.92 188 297.215 187.25 297C186.57 296.805 186.465 295.325 185.75 295C183.505 295.325 181.89 294.475 180 294V292.75C179.775 291.985 177.555 291.9 178 290.5H176.5V289H175.5V287C174.025 287.32 173.48 286.16 172.5 285.25L173 283.5H171.5C171.25 283.25 171.74 279.625 171.5 278.75C171.4 278.38 169.59 276.705 169 277V272.75L169.75 272C171.195 272.18 172.235 271.16 173.75 271.5C173.93 271.54 174.035 271.9 174.25 272C174.405 272.07 174.64 271.935 174.75 272C174.945 272.115 175.975 273.16 176 273.25C176.09 273.56 175.91 273.94 176 274.25C176.045 274.405 177.265 275.64 177.5 276.25C177.605 276.525 177.415 276.925 177.5 277.25C177.555 277.455 178 277.585 178 277.75C178 277.915 177.535 278.055 177.5 278.25C177.405 278.78 177.56 279.435 177.5 280H178.75C178.885 280.04 180.345 281.975 180.5 282.25C180.865 282.9 180.215 282.785 181.75 283.5C183.285 284.215 185.1 284.705 186.25 286L188.25 285.5C189 286.14 189.465 287.185 190.5 287V288.5H192.25L192 289.5L193 288.5C194.68 289.245 196.105 287.175 196.75 287C197.295 286.85 198.205 287.15 198.75 287C199.095 286.905 201.315 284.63 201 284H202.25C202.45 283.725 202.855 283.51 203 283.25C203.135 283.015 202.905 282.595 203 282.5C203.065 282.435 204.19 282.545 204.5 281.75C203.345 280.75 202.705 280.13 203 278.5C203.95 278.645 204.645 277.95 204.5 277H206V276H207.5C206.83 274.295 208.77 273.325 209 272.25C209.15 271.55 208.82 269.18 209 269C209.825 269.26 209.93 268.63 210.25 268.5C210.52 268.39 210.925 268.595 211.25 268.5C211.87 268.32 212.58 266.34 214 268.25L214.5 270.75C215.485 271.68 216.345 272.255 216 273.75C215.925 274.065 214.845 274.415 216 275.25L214.5 277.25L215 278Z" fill="#37B4B4"/>
<path d="M210.001 250.5L209.751 251.5H209.001C208.621 252.405 209.501 253.15 209.501 253.25C209.501 253.425 208.506 255.465 209.001 256.5H208.001L207.501 258.25C208.321 258.92 208.696 259.395 208.501 260.5L203.751 262C203.096 261.195 202.186 261.81 201.501 260.75C201.361 260.535 201.136 259.455 201.001 259.25C200.701 258.79 199.586 258.055 199.501 257.75C199.306 257.045 199.636 255.82 199.501 255H200.501V254H199.501V253C201.606 253.085 200.696 251.365 201.001 250.25C201.256 249.32 203.836 248.8 204.751 249C204.921 249.035 206.081 249.965 206.251 250C206.836 250.125 207.666 249.87 208.251 250C208.496 250.055 209.101 250.885 210.001 250.5Z" fill="#37B4B4"/>
<path d="M186 249C186.275 249.8 185.535 250.055 185.5 250.25C185.175 252.145 185.725 253.75 186 255.25C186.25 256.61 186.045 258.16 184.5 258V259.5L179.5 260.5C179.915 259.055 178.105 259.105 178 259C177.945 258.945 178.14 258.005 177.5 257.75L178 255.5C177.05 255.645 176.355 254.95 176.5 254H177.5L177 253.25C176.825 252.64 178.695 250.165 179.25 250C180.515 249.625 181.96 249.72 182.75 248.5L186 249Z" fill="#37B4B4"/>
<path d="M278 202H277L276.5 203.25C277.045 204.02 277.58 204.115 278.5 204V205L280.5 205.5C280.26 207.1 281.9 208.74 283.5 208.5L283 210L286 211C285.6 212.045 287.34 212.685 287.5 213.25C288.21 215.725 288.565 214.565 289 215C289.31 215.31 289.475 217.645 291.5 217V218H294C293.475 219.27 294.88 219.82 295 220.25C295.16 220.835 294.895 221.815 295 222.5H296V226H294V227.5C292.965 227.315 292.5 228.36 291.75 229L290.25 228.5L286.25 230C284.935 230.61 284.855 231.04 283.25 231.5C282.82 231.625 282.5 232.88 281.25 232.5C281.045 232.435 280.935 232.035 280.75 232C278.8 231.65 277.475 232.335 276 233.5L275.75 232.5L275.25 233L271.25 232C270.69 232.925 269.55 232.28 268.75 232.5C268.475 232.575 268.025 233.425 267.75 233.5C266.05 233.97 263.565 233.595 261.75 234C261.44 234.07 261.085 235.155 260.25 234L259 234.5V235.5C256.69 235.685 254.09 234.85 252.25 236.5C251.06 235.35 249.565 235.425 248 235.5V236.5L246.25 237C245.36 236.1 244.055 236.925 243.25 235.5C242.835 236.245 242.26 235.865 241.75 236C241.29 236.125 241.475 236.625 240.25 236L238.25 237C236.725 236.235 235.88 235.2 236 233.5H232.5C232.845 232.53 232.12 232.105 232 231.75C231.9 231.46 232.09 231.065 232 230.75C231.81 230.08 230.28 229.185 229.5 229.5C229.535 228.465 229.715 227.64 228.75 227L226.75 228.5L225.25 228L224 228.5C223.91 228.395 224.13 227.985 224 227.75C223.59 227.015 222.03 225.665 221.5 224.75L223.5 222.75L222.5 222.5L224 221.5C223.73 221.165 223.575 220.365 223.5 220.25C222.105 218.16 218.775 218.435 219 215.5L217 215L217.5 213.75L216 211H215L214 209.25C214.82 208.58 215.195 208.105 215 207C215.88 206.91 216.91 207.13 217.75 207C219.035 206.8 220.48 205.675 222.25 206C224.775 206.46 224.48 205 226.75 206C228.91 205.925 231.92 203.895 233.75 203.5C234.605 203.315 235.97 203.715 236.75 203.5C236.9 203.46 238.47 202.18 239.25 202C240.475 201.715 240.825 202.375 241.25 202.5C244.27 203.375 249.445 201.49 252.75 201C254.85 200.69 257.025 201.99 259.25 201.5C259.895 201.36 262.585 200.845 263.25 201C267.22 201.915 270.14 199.245 273.75 200L276.25 199L278 200.25V202ZM271 207C270.935 206.935 271.045 205.81 270.25 205.5C269.09 205.69 267.26 205.23 266.25 205.5C265.84 205.61 265.465 206.845 264.5 206.5L266.5 208.75C266.675 209.735 267.945 211.075 269 211V212C270.565 212.125 272 212.81 273.75 212.5L276.5 211.5C276.585 209.88 275.29 209.88 274 210V208.5C272.895 208.79 272.5 207.42 271.75 207C271.515 206.87 271.095 207.095 271 207ZM258.5 207.5L255.75 207C255.225 207.855 254.645 206.695 253.5 207V208C252.545 207.635 252.03 208.425 251.75 208.5C251.09 208.68 250.95 208.045 250.75 208C249.8 207.79 246.56 207.325 245.75 207.5C245.58 207.535 244.42 208.465 244.25 208.5C243.275 208.71 242.185 208.045 241.5 209.25C241.365 209.485 241.595 209.905 241.5 210C240.755 210.01 240 209.985 239.25 210C238.82 210.01 237.51 209.765 238 210.75C238.49 211.735 239.205 211.335 239.75 211.5C240.43 211.705 241.31 213.215 241 214H242V216C242.18 216.18 245.415 215.86 246.25 216C246.44 216.03 246.585 216.5 246.75 216.5C246.915 216.5 247.06 216.03 247.25 216C247.935 215.885 248.78 216.075 249.5 216V215C251.07 215.3 252.145 216.405 254 216V215C255.105 215.195 255.58 214.82 256.25 214C257.095 214.94 258.73 214.35 260 214.5L259 213.5C259.765 211.585 258.18 210.38 258 209.75C257.725 208.795 258.645 208.38 258.5 207.5ZM237.5 218C236.745 218.18 236.69 217.855 236.25 217.5C235.09 216.56 235.745 216.14 235.5 215.25C235.35 214.7 233.23 212.84 232.75 212.5C231.72 211.77 231.14 210.05 229.75 211.5L228.75 210.5C228.12 211.605 223.875 210.625 223.5 211L223 212.5H224C223.75 214.375 224.775 214.7 226.5 214.5L227 216.75L226.5 217.5C226.95 217.49 227.95 217.81 228.25 218C229.185 218.595 229.04 220.3 230.5 220V219L234 218.5V219.5C234.97 219.85 235.405 219.115 235.75 219C236.31 218.81 237.275 219.205 237.5 218ZM281.5 216.5C280.695 216.225 280.445 216.965 280.25 217C278.185 217.365 275.94 216.825 274.25 218.5L272 218C271.76 219.54 272.41 218.8 273.25 219C273.98 219.17 274.275 219.59 275 219.5L274 222.5H275.5V224.5L280.25 225L282.5 224V223C283.455 223.365 283.965 222.58 284.25 222.5C284.77 222.355 285.56 223.37 286.5 223C286.99 220.965 285.7 221.845 285 220.75C283.995 219.18 284.065 219.495 282.75 218.5C282.1 218.01 281.345 217.295 281.5 216.5ZM266 220C265.24 219.725 264.855 220.5 264.75 220.5C264.585 220.5 264.44 220.03 264.25 220C262.985 219.79 261.33 220.15 260 220V221L256 221.5C256.085 223.15 253.97 223.635 252.5 223.5L253 224.75L252.5 225.75C253.365 226.77 254.675 226.365 255.5 227.75L255 228.25L255.75 229C256.395 228.035 256.42 228.945 256.75 229C258.575 229.315 258.585 228.075 260 228V227C260.185 226.815 263.905 228.395 264.75 227L266.75 227.5L267.25 227L269.5 226.5C269.77 225.06 269.12 225.725 268.75 225.5C267.97 225.025 267.925 223.8 267 223.25L267.5 222.25C266.86 221.5 265.815 221.035 266 220ZM244.5 227C244.54 225.93 244.705 225.135 243.75 224.5L241.75 225.5C239.55 223.365 238.015 225.13 236.25 225.5C235.285 225.705 234.21 225.055 233.5 226.25L234 228.5C234.905 228.12 235.65 229 235.75 229C235.85 229 236.595 228.12 237.5 228.5L238 231.5C239.045 231.46 240.225 232.95 240 231C240.82 231.27 240.985 230.58 241.25 230.5C242.5 230.12 242.83 231.385 243.25 231.5C244.08 231.73 245.175 231.62 246 232V231L249 230.5C249.15 229.675 248.355 228.955 247.75 228.5C247.64 228.415 247.35 228.58 247.25 228.5C246.295 227.745 245.995 226.64 244.5 227Z" fill="#37B4B4"/>
</svg>
