<svg width="355" height="350" viewBox="0 0 355 350" fill="none" xmlns="http://www.w3.org/2000/svg">
<path d="M211.125 160.5C210.787 160.688 210.503 160.961 210.188 160.875C209.603 160.073 208.995 161.123 207.938 160.875C206.681 160.583 202.819 160.65 201.562 160.875C200.164 161.126 198.548 160.684 197.438 160.875C196.459 161.044 192.941 160.148 191.812 159.75C191.145 159.514 190.864 159.525 190.312 159.375C190.073 159.308 189.536 158.46 189.188 158.25C189.075 158.183 188.625 158.299 188.438 157.875C187.871 157.789 187.448 158.078 186.938 158.25C186.427 158.423 187.196 158.678 187.125 159C186.784 159.293 184.162 158.13 183.562 157.875C183.236 157.736 182.989 157.264 182.25 157.5V156.75C181.298 156.653 180.757 156.701 180.188 157.5C179.426 156.311 179.179 157.26 178.688 157.125C178.511 157.076 176.614 155.674 176.438 155.625C176.228 155.569 175.17 155.58 175.125 155.625C175.08 155.67 175.159 156.518 174.562 156.75L172.688 157.125L171.562 156.375L171.188 156.75L170.438 155.625C170.01 155.756 169.073 156.713 168.938 156.75C168.27 156.941 167.269 156.964 166.688 157.125C166.552 157.163 165.349 158.243 165 158.438V160.875H163.125C163.264 161.52 162.799 161.76 162.375 162.188C162.772 162.326 162.889 163.361 162.75 163.5C162.679 163.571 162.364 163.403 162.188 163.5C161.704 163.77 161.171 164.73 160.688 165C160.511 165.098 160.196 164.929 160.125 165C160.069 165.053 159.806 166.448 159.75 166.5C159.679 166.571 158.085 166.665 157.875 166.875C157.826 166.924 158.003 167.61 157.312 168C157.136 168.101 156.821 167.929 156.75 168C156.686 168.064 156.668 169.193 156.375 169.688C156.289 169.834 155.509 170.603 155.438 170.625C155.168 170.704 154.579 170.546 154.5 170.625C154.399 170.726 154.575 171.896 154.5 172.313C154.474 172.463 153.919 172.646 154.125 173.25C153.022 173.066 153.536 173.52 153.375 173.813C152.902 174.66 151.942 174.683 151.875 174.75C151.826 174.799 151.909 175.643 151.312 175.875L150.375 175.5L150.75 176.438C150.338 176.708 150.285 177.615 149.812 177.75C149.58 177.818 149.295 177.683 149.062 177.75C148.853 177.81 148.519 178.444 148.312 178.5C147.904 178.613 147.221 178.388 146.812 178.5C146.306 178.639 145.868 179.816 145.5 180.188L147.938 180.375L148.875 180V180.75C150.034 180.274 150.604 181.406 150.938 181.5C151.515 181.658 151.781 180.829 152.062 180.75C152.55 180.615 153.375 180.851 153.938 180.75C154.084 180.724 155.25 180.045 155.438 180C155.805 179.914 156.334 180.056 156.75 180C156.739 179.314 156.585 177.953 157.312 177.75C157.808 177.615 157.909 178.091 158.062 178.125C159.049 178.354 159.701 177.521 160.688 177.75C160.864 177.791 161.295 178.406 162 178.125V177.375C163.511 177.574 162.919 177.184 163.125 176.813C163.755 175.684 164.449 176.078 165.188 175.875C165.832 175.699 165.649 174.87 165.75 174.563C165.799 174.409 166.084 174.334 166.125 174.188C166.2 173.91 166.046 173.329 166.125 173.25C166.204 173.171 166.785 173.325 167.062 173.25C167.239 173.201 168 172.95 168.188 172.875C168.409 172.785 169.5 172.076 169.5 171.938C169.005 171.615 169.106 171.184 169.125 170.625H170.625C170.441 169.523 170.895 170.036 171.188 169.875C171.446 169.733 171.75 169.178 171.938 169.125C173.168 168.788 174.39 169.714 175.312 169.5C175.455 169.466 175.534 169.17 175.688 169.125C176.261 168.949 176.662 169.249 177 169.688C176.662 169.939 176.629 170.048 176.625 170.438C176.621 171.405 178.024 171.971 177.75 170.625C178.511 170.655 180.143 170.381 180.375 171.188C180.442 171.42 180.308 171.705 180.375 171.938C180.394 172.001 181.249 172.856 181.312 172.875C181.808 173.01 181.909 172.538 182.062 172.5C182.43 172.414 182.959 172.556 183.375 172.5V173.25C184.474 173.066 183.964 173.528 184.125 173.813C184.455 174.394 184.995 174.45 185.625 174.375V173.625H186.375C186.281 174.308 186.698 175.481 187.312 175.875C187.481 175.984 188.231 176.138 188.438 176.25C188.696 176.389 188.996 176.948 189.188 177C190.339 177.315 189.926 176.535 190.5 177.563C190.77 178.046 192.986 179.531 193.312 179.625C194.527 179.974 194.895 180.364 196.312 180.75C198.326 181.298 199.631 183.135 201.562 183.75C202.984 184.204 203.055 184.534 204.188 185.25C204.536 185.471 205.11 184.834 204.375 186L207 185.625C206.816 186.728 207.27 186.214 207.562 186.375C208.121 186.69 208.219 187.74 208.688 187.875C209.753 188.179 210.728 188.693 211.875 188.625C211.646 189.671 213.833 190.185 214.875 190.125V190.875C215.4 191.134 217.762 191.138 217.875 191.25C217.946 191.321 217.774 191.636 217.875 191.813C218.224 192.428 220.279 193.279 220.5 193.5C220.549 193.549 220.466 194.393 221.062 194.625H223.5V195.375C224.816 194.843 225.548 196.013 225.938 196.125C226.17 196.193 226.455 196.058 226.688 196.125C226.777 196.151 227.974 197.348 228 197.438C228.158 198.011 227.884 199.024 228 199.688C228.165 200.621 228.694 200.486 228.938 200.625C230.122 201.3 229.47 203.164 228.375 203.813L229.5 205.125C228.004 205.031 228.03 207.799 226.5 207.75C226.616 208.549 227.085 209.224 226.875 210.188C226.845 210.323 226.189 211.125 226.125 211.313C226.039 211.575 226.208 212.168 226.125 212.25C226.031 212.344 225.056 212.04 224.812 212.625C224.107 211.605 223.163 213.435 222.562 212.625C221.033 212.306 221.996 213.765 221.062 213.375C220.905 213.308 220.83 213.041 220.688 213C220.298 212.891 219.705 213.653 219 213.375L219.375 215.25H218.625V216H217.875C217.901 216.656 217.673 217.301 218.25 217.688L217.875 218.063C218.426 218.588 218.989 219.859 218.062 220.125C217.819 220.196 217.511 220.043 217.312 220.125C217.072 220.226 216.994 220.695 216.375 220.5C216.649 221.213 216.056 221.606 216 221.813C215.925 222.09 216.079 222.671 216 222.75C215.906 222.844 213.915 222.698 213.562 223.5H213.188C211.905 222.188 210.338 223.718 209.062 222.75C208.489 222.833 207.964 223.039 207.562 223.125C207.289 223.181 206.929 223.091 206.625 223.125L207 224.063L206.625 224.438L207 225L205.5 225.375C205.35 226.204 205.643 226.571 206.25 227.063L205.875 228.375H205.125V229.125C204.825 229.17 204.42 229.046 204.188 229.125C202.957 229.534 200.824 231.195 199.688 231C199.496 230.966 199.387 230.479 198.562 231C198.18 231.24 197.831 231.829 197.438 232.125H197.062C196.155 231.221 195.675 230.325 194.25 230.625V231.75L195.375 231.938C194.76 232.654 195.131 233.779 193.875 233.625L194.25 234.375C193.159 234.225 193.658 234.555 193.5 234.938C193.433 235.095 193.166 235.17 193.125 235.313C192.915 236.036 193.541 236.61 191.812 236.25C191.651 236.216 191.482 235.669 190.875 235.875C190.969 236.805 190.286 237.139 189.375 237L189.75 237.75C189.15 237.544 188.959 238.099 188.812 238.125C188.021 238.264 185.644 238.661 185.062 238.5C184.665 238.391 184.031 236.835 183 238.688C182.902 238.864 183.071 239.179 183 239.25C182.936 239.314 182.647 239.175 182.438 239.25C182.276 239.31 182.183 239.625 182.062 239.625C181.988 239.625 181.159 238.841 180.75 239.25C180.544 239.456 181.275 239.543 180.188 240C180.03 240.068 179.951 240.338 179.812 240.375C179.482 240.465 178.868 239.786 177.938 240C177.791 240.034 177.713 240.334 177.562 240.375C177.067 240.51 176.959 240.03 176.812 240C175.976 239.831 175.065 240.248 175.125 238.875C174.086 239.423 173.216 238.665 172.312 238.5C171.893 238.425 170.734 238.605 170.625 238.5C170.565 238.444 170.798 237.285 170.062 237C169.136 237.383 169.665 239.085 169.5 239.25C169.418 239.333 168.825 239.164 168.562 239.25C168.113 239.4 167.49 240.18 166.875 240V240.75C165.48 239.91 163.838 240.611 162.562 241.125C162.405 241.189 162.33 241.455 162.188 241.5C161.126 241.823 160.658 240.401 159.938 240C159.405 239.704 159.041 239.663 159 238.5H158.25V237.75C157.14 238.076 157.395 236.753 157.125 236.063C156.956 235.631 156.24 235.031 156.375 234.375L153.938 235.875C152.809 236.205 152.25 234.536 151.688 234.375C150.529 234.041 150.544 234.398 150 233.438C149.516 232.59 148.879 233.033 148.312 232.875C147.709 232.71 146.49 229.744 146.062 229.5C145.886 229.399 145.571 229.571 145.5 229.5C145.399 229.399 145.594 228.529 145.5 228.188C145.361 227.685 144.236 227.475 143.812 227.25C143.205 226.924 143.231 226.211 141.938 226.5C141.806 226.53 140.94 227.224 140.812 227.25C140.066 227.411 138.184 226.976 138 226.313C137.906 225.971 138.101 225.101 138 225C137.929 224.929 137.614 225.098 137.438 225C136.125 224.269 136.875 222.731 135.562 222C135.386 221.903 135.071 222.071 135 222C134.917 221.918 135.086 221.325 135 221.063C134.895 220.748 133.875 219.296 133.875 219.188C133.875 219.06 134.224 218.959 134.25 218.813C134.321 218.415 134.205 217.924 134.25 217.5H133.125V216C132.99 215.865 131.52 216.128 131.062 216C130.815 215.933 130.286 215.07 129.938 214.875C129.761 214.778 129.446 214.946 129.375 214.875C129.322 214.823 129.165 213.855 129 213.563C128.704 213.034 127.943 212.91 128.25 211.875H126.75V210.75H127.5C127.815 209.599 126.911 208.519 127.125 207.563C127.204 207.206 128.085 206.453 127.875 205.875H128.625C128.231 204.923 129.285 204.51 129.375 204.188C129.472 203.831 128.636 203.171 129.562 202.875C129.776 202.808 130.061 202.924 130.312 202.875L130.5 202.125C129.904 202.361 128.768 201.679 128.625 201.188C128.557 200.955 128.693 200.67 128.625 200.438C128.565 200.224 127.871 199.793 127.688 199.5C127.365 199.995 126.934 199.894 126.375 199.875L126 198.188L126.375 197.813C125.768 197.531 125.516 196.26 125.062 196.125C124.871 196.069 124.121 195.994 124.125 196.313C124.376 197.336 123.217 197.49 123.375 198.375H122.25V201.375C121.68 201.169 121.391 201.75 121.312 201.75C121.237 201.75 120.679 201.09 120 201.375V202.125C119.059 202.039 117.053 202.313 116.625 203.063C116.524 203.239 116.696 203.554 116.625 203.625C116.554 203.696 115.031 204.356 114.938 204.375C114.221 204.529 113.126 204.289 112.312 204.375C112.177 204.39 112.08 204.728 111.938 204.75C110.546 204.956 109.77 204.735 108.938 203.625C107.542 204.375 107.831 203.696 107.062 203.25C105.555 202.376 104.513 202.999 103.688 202.5C102.454 201.754 103.189 201.859 101.438 201.375C101.115 201.285 100.702 200.231 99.75 200.625L99.375 199.125C97.3313 199.264 98.16 199.148 97.875 198.188C97.7625 197.813 96.045 196.069 95.625 195.563C94.6425 194.381 94.5525 194.899 93.5625 194.625C92.8313 194.423 90.7838 191.31 90.5625 191.25C89.8913 191.066 88.59 191.07 87.9375 190.875C87.7425 190.815 87.615 190.298 87 190.5C87.45 188.921 85.95 188.726 85.875 187.5H85.125V186.75C83.8913 186.986 83.8312 186.285 83.25 185.438C83.6437 184.811 84.4613 184.759 84.9375 184.5C85.1962 184.361 85.4925 183.806 85.6875 183.75C86.64 183.476 86.8612 184.406 87.1875 184.5C87.57 184.609 88.2488 184.864 88.3125 184.875C88.9387 184.988 91.3575 184.733 91.5 184.875C91.395 185.944 91.755 187.564 93 187.5V188.25H94.5C94.4213 188.801 95.3212 190.358 95.8125 190.5C96.045 190.568 96.33 190.433 96.5625 190.5C97.0087 190.628 97.2712 191.91 97.875 192.188L97.125 192.563C97.6012 193.403 98.2688 192.971 98.8125 193.125C99.1687 193.226 99.705 194.438 100.312 194.25L101.25 192.563C99.975 191.501 101.827 189.821 102 189.188C102.24 188.318 102.112 186.394 102.375 185.438C102.401 185.336 103.5 184.208 103.5 183.938C103.493 182.288 103.965 182.348 104.25 181.313C104.655 179.839 104.798 178.133 105.375 176.813C105.566 176.374 106.474 175.403 106.5 175.313C106.609 174.919 105.851 174.345 106.125 173.625C107.636 173.824 107.044 173.434 107.25 173.063C107.389 172.811 107.809 172.579 108 172.313C107.209 171.855 108.364 169.238 108.562 169.125C109.267 168.731 109.808 168.03 110.25 167.063C110.805 165.844 111.319 164.033 111.75 162.563C111.791 162.42 112.74 161.494 112.875 161.063L112.5 160.688C112.868 160.455 113.546 159.446 113.812 159.375C114.214 159.266 115.38 159.495 115.5 159.375C115.579 159.296 115.425 158.715 115.5 158.438C115.549 158.261 115.8 157.496 115.875 157.313C116.055 156.866 118.271 154.245 118.688 154.125C119.94 153.765 120.248 153.304 121.312 152.625C122.284 152.006 121.32 151.594 122.438 151.125C123.48 150.69 124.061 149.318 124.312 149.25C124.807 149.115 125.644 149.366 126.188 149.25C127.14 149.044 127.414 147.728 129.188 148.125C129.33 148.159 129.412 148.459 129.562 148.5C130.594 148.785 130.369 146.831 131.062 146.625C131.756 146.419 132.274 147.101 132.375 147C132.116 144.694 129.855 145.808 128.438 145.5C128.291 145.466 127.268 144.788 127.125 144.563C126.982 144.338 126.743 143.588 126.75 143.25C126.615 143.115 125.145 143.378 124.688 143.25C124.5 143.198 124.196 142.643 123.938 142.5C123.761 142.403 123.446 142.571 123.375 142.5C123 142.125 123.904 140.404 123.75 140.25C122.775 140.048 121.451 139.399 120.562 140.25C119.888 140.438 119.22 138.645 118.125 139.125C118.339 137.76 117.986 138.221 117.188 137.625L116.625 138C116.809 136.898 116.355 137.411 116.062 137.25C115.361 136.86 114.638 136.196 114.375 135.563C114.274 135.315 114.472 134.434 113.812 134.25C113.336 134.119 113.122 134.813 112.5 134.625V133.875C111.206 134.025 110.438 133.781 110.625 132.375H109.125C108.874 131.194 109.841 131.693 110.625 131.625V130.5H112.5V131.25C113.141 131.134 113.483 131.329 114 131.625C113.921 130.628 114.653 130.369 115.5 130.5C115.35 131.591 115.68 131.093 116.062 131.25C116.73 131.528 118.748 131.873 118.875 132C119.002 132.128 118.5 132.649 119.812 133.125C120.574 133.403 121.639 133.646 122.438 133.875C122.708 133.954 123.3 134.929 123.562 135C124.616 135.289 126.645 135.135 126.75 136.875C128.377 136.706 127.65 137.003 127.875 137.813C127.92 137.978 128.385 138.068 128.25 138.563C128.213 138.701 127.688 138.971 127.875 139.125C128.291 139.181 128.82 139.039 129.188 139.125C130.144 139.35 131.659 140.456 132.562 140.625C133.065 140.719 133.714 140.565 134.25 140.625V142.125C134.865 142.328 135 141.803 135.188 141.75C135.769 141.589 136.522 142.871 137.062 143.25C138.154 144.019 137.842 144.218 138 144.375C138.09 144.465 138.956 144.304 139.312 144.375C139.459 144.405 139.545 144.728 139.688 144.75C140.201 144.836 140.835 144.694 141.375 144.75C141.18 145.369 141.653 145.448 141.75 145.688C141.833 145.89 141.679 146.194 141.75 146.438C141.836 146.741 143.25 147.739 143.25 147.938C143.25 148.031 142.74 148.196 142.875 148.688C142.931 148.894 143.561 149.228 143.625 149.438C143.704 149.708 143.546 150.296 143.625 150.375C143.689 150.439 143.985 150.293 144.188 150.375C144.345 150.443 144.42 150.709 144.562 150.75C144.836 150.829 145.421 150.671 145.5 150.75C145.564 150.814 145.425 151.103 145.5 151.313C145.56 151.474 145.875 151.568 145.875 151.688C145.875 151.766 145.294 152.055 145.5 152.625C146.006 152.52 146.861 152.689 147 153.188C147.139 153.686 146.678 153.761 146.625 153.938C146.501 154.343 146.921 155.801 147 156.188C147.071 156.533 146.917 157.001 147 157.313C147.053 157.515 147.649 157.913 147.375 158.625H148.125V159.375C148.661 159.315 149.31 159.469 149.812 159.375C149.951 159.349 150.034 159.045 150.188 159C151.125 158.715 151.372 159.664 151.688 159.75C152.539 159.986 154.211 159.514 155.062 159.75C155.269 159.806 155.606 160.444 155.812 160.5C157.32 160.916 156.941 160.26 157.125 159.938C157.609 159.09 158.246 159.533 158.812 159.375C159.63 159.15 159.293 157.583 159.375 157.5C159.446 157.429 159.761 157.598 159.938 157.5C160.196 157.358 160.496 156.806 160.688 156.75C162.544 156.218 161.674 155.951 162 155.625C162.049 155.576 162.735 155.753 163.125 155.063C163.226 154.886 163.054 154.571 163.125 154.5C163.196 154.429 163.875 154.86 164.25 153.563C164.329 153.289 164.171 152.704 164.25 152.625C164.366 152.509 166.747 151.86 167.25 151.875V151.125H168.75V151.875C170.107 151.736 171.757 152.066 173.062 151.875C173.171 151.86 173.696 151.215 174.375 151.5C174.154 153.079 175.312 151.564 176.438 151.875C176.644 151.931 176.981 152.569 177.188 152.625C177.889 152.82 180.926 152.426 181.125 152.625C181.196 152.696 181.024 153.011 181.125 153.188C181.541 153.919 182.021 153.619 182.438 153.75C182.591 153.799 182.674 154.099 182.812 154.125C183.315 154.219 183.964 154.065 184.5 154.125V153.188C184.5 152.869 185.243 152.944 185.438 153C186.18 153.218 185.94 154.44 186 154.5C186.082 154.583 186.675 154.414 186.938 154.5C187.391 154.65 188.321 155.595 188.438 155.625C189.293 155.858 190.961 155.389 191.812 155.625C192.075 155.696 192.664 156.671 192.938 156.75C193.643 156.96 194.122 156.158 194.812 156.375C196.774 156.986 198.615 156.353 200.062 156.75C200.269 156.806 200.606 157.444 200.812 157.5C201.491 157.688 202.886 157.14 203.438 156.75C203.959 156.54 204.27 157.418 204.562 157.5C205.121 157.661 205.582 157.44 206.062 158.25L206.625 156.75L208.875 157.5V156.938L210.375 157.125C210.277 157.331 210.435 157.916 210.375 158.25H211.125V160.5ZM140.625 151.125C139.972 151.418 139.5 150.375 139.312 150.375C139.155 150.375 138.611 151.286 137.812 150C137.393 150.671 136.579 150.236 135.938 150.375C135.81 150.401 134.947 151.095 134.812 151.125C134.441 151.211 133.916 151.073 133.5 151.125L133.312 150.375C133.054 150.525 132.75 151.073 132.562 151.125C131.696 151.373 130.796 151.751 129.938 152.25C129.679 152.4 129.375 152.948 129.188 153C128.711 153.131 128.498 152.438 127.875 152.625C127.98 153.131 127.811 153.986 127.312 154.125C126.814 154.264 126.158 153.866 125.812 154.5C125.239 153.675 125.04 155.081 124.125 154.875V155.625C123.026 155.441 123.536 155.903 123.375 156.188C122.94 156.953 120.146 157.935 120 158.438C119.67 159.585 119.213 160.515 118.875 161.625H118.125V162.375C116.899 162.33 116.542 164.126 116.25 165.188C116.021 166.024 113.666 166.211 114.375 168C112.868 167.719 114.083 169.058 114 169.125L112.5 169.5C113.569 170.76 112.253 171.101 112.125 171.563C111.952 172.189 112.2 172.736 112.5 173.25C112.2 173.291 111.806 173.179 111.562 173.25C111.375 173.306 110.625 174.476 110.625 174.563C110.625 174.656 111.135 174.821 111 175.313C110.872 175.774 109.556 176.115 110.625 177.375C109.414 177.255 109.702 178.069 109.5 178.688C109.417 178.935 108.862 179.276 109.125 180H108.375C109.729 181.706 107.423 181.804 107.25 182.438C107.059 183.135 107.017 184.605 106.875 185.438C106.849 185.58 106.5 185.689 106.5 185.813C106.5 185.891 107.081 186.18 106.875 186.75C106.312 186.63 106.103 186.915 105.75 187.313C106.534 187.965 106.084 188.629 105.375 189.188C106.016 189.63 105.589 190.695 105.375 191.438C105.323 191.621 104.134 192.975 103.875 193.313C103.815 193.523 104.126 194.085 104.25 194.438C104.61 195.454 105.435 196.86 105.75 197.813C105.836 198.075 105.667 198.668 105.75 198.75C105.821 198.821 106.136 198.653 106.312 198.75C106.755 198.998 107.254 199.658 107.812 199.875C108.503 199.778 109.436 200.014 110.062 199.875C111.664 199.515 110.917 200.074 111.562 200.25C113.04 200.659 113.61 199.83 114.562 199.5C115.342 199.23 116.49 199.328 117 198.563L116.625 198.188C117.611 197.471 118.474 197.029 118.5 195.75C120.623 196.058 121.669 195.019 119.812 193.5C119.329 194.224 119.314 193.545 119.062 193.5C118.665 193.429 118.174 193.545 117.75 193.5L118.125 195C117.57 194.794 117.251 195.379 117.188 195.375C117.124 195.371 116.501 194.651 116.25 195.563C116.156 195.908 116.31 196.466 116.25 196.875C115.463 196.943 114.577 196.778 113.812 196.875C113.677 196.894 112.856 197.576 112.125 197.25C112.316 198.761 111.319 197.625 111.188 197.625C111.094 197.625 110.929 198.135 110.438 198C110.374 197.981 109.59 197.213 109.5 197.063C108.968 196.189 109.493 196.279 108.562 195.75C107.632 195.221 108.188 193.631 107.25 192.938L108 191.813C106.504 190.808 109.5 189.244 109.5 188.813C108.292 187.598 110.096 186.911 109.875 185.625H110.625V184.875C108.656 184.819 110.509 183.544 111 182.813C111.439 182.156 113.055 179.033 113.25 178.313C113.295 178.148 112.939 177.349 113.25 176.438C113.321 176.224 113.824 176.119 113.625 175.5H114.375C114.281 174.435 114.296 173.441 115.312 172.875C116.513 172.208 116.261 171.169 117 170.063C117.229 169.721 118.065 169.163 118.125 168.938C118.237 168.529 118.013 167.846 118.125 167.438C118.237 167.029 120.045 166.519 120.562 166.125C121.905 165.109 122.449 162.27 124.125 162V160.875L125.625 160.5C125.569 159.896 125.557 158.798 126.188 158.625C126.664 158.494 126.877 159.188 127.5 159C127.11 158.036 128.149 157.654 128.25 157.313C128.329 157.043 128.171 156.458 128.25 156.375C128.303 156.319 129.697 156.056 129.75 156C129.799 155.951 129.705 155.04 130.312 154.875C131.426 154.568 131.963 155.108 133.312 154.125C134.111 153.544 134.52 152.325 135.75 152.625L136.688 154.875C136.972 155.063 137.025 152.989 137.812 153.375C138.304 153.619 138.472 154.455 139.5 154.125C139.35 155.216 139.684 154.718 140.062 154.875C140.22 154.943 140.299 155.213 140.438 155.25L141.188 154.875C142.365 155.914 142.459 157.541 144.375 157.125L144.75 155.813C144.146 155.351 144.6 154.575 143.812 154.125C143.636 154.024 143.321 154.196 143.25 154.125C143.171 154.046 143.329 153.461 143.25 153.188C143.194 152.996 142.673 152.865 142.875 152.25C141.986 152.423 141.514 151.703 140.625 151.875V151.125ZM144 163.5C143.929 163.429 144.097 163.114 144 162.938C143.209 161.52 142.144 162.263 141.188 162C140.231 161.738 141.075 160.02 140.062 159.375C139.759 159.18 138.84 158.82 138.562 158.625C138.169 158.348 137.812 157.725 137.438 157.5C137.355 157.451 137.179 157.553 137.062 157.5C136.612 157.294 136.41 156.926 135.562 157.125C135.338 157.178 134.347 157.661 134.062 157.875L133.312 157.5C133.121 157.553 132.476 158.569 132.375 158.813C132.289 159.015 132.439 159.311 132.375 159.375C132.304 159.446 131.989 159.278 131.812 159.375C131.066 159.791 131.228 161.299 129.75 160.875V162C128.726 161.869 128.685 163.643 127.125 163.5V164.25H126.375L126.75 165.75C125.674 165.48 126.229 166.339 125.438 166.875C124.688 165.938 124.616 167.621 123.938 168C123.761 168.098 123.446 167.929 123.375 168C123.266 168.109 123.465 169.275 123.375 169.688C123.285 170.1 122.393 170.76 122.625 171.563C122.752 172.005 123.75 172.005 123 172.875H124.125C124.365 173.831 123.731 174.053 123.375 174.75H124.125C124.181 175.29 124.039 175.924 124.125 176.438C124.147 176.58 124.5 176.689 124.5 176.813C124.5 176.906 123.99 177.071 124.125 177.563C124.162 177.701 124.688 177.971 124.5 178.125L121.875 178.875C121.931 179.415 121.789 180.049 121.875 180.563C121.897 180.705 122.25 180.814 122.25 180.938C122.25 181.061 121.897 181.17 121.875 181.313C121.804 181.733 121.972 182.903 121.875 183C121.826 183.049 120.934 182.948 120.75 183.563C120.319 185.018 121.875 184.136 121.5 185.063C121.399 185.31 120.84 185.948 120.75 186.188C120.634 186.495 120.949 187.013 120.375 187.313C121.02 188.006 121.894 188.37 122.812 188.25L123.938 189.75C125.726 188.104 126.248 191.318 127.312 191.625C127.545 191.693 127.83 191.558 128.062 191.625C128.647 191.794 129.184 193.553 129 194.25H129.75C129.491 195.48 130.252 196.08 130.875 197.063L130.5 197.625C131.696 197.644 132.202 198.713 132 199.875C132.42 199.826 132.93 199.954 133.312 199.875C133.447 199.849 133.526 199.568 133.688 199.5C133.89 199.418 134.186 199.564 134.25 199.5C134.362 199.388 133.943 197.903 135.562 199.125C136.147 198.739 136.103 197.996 136.688 197.625C136.766 197.576 136.95 197.681 137.062 197.625C137.224 197.543 137.303 197.288 137.438 197.25C137.932 197.115 138.037 197.591 138.188 197.625C139.298 197.873 141.292 197.344 142.312 197.625C142.519 197.681 142.853 198.315 143.062 198.375C143.295 198.443 143.58 198.308 143.812 198.375C144.109 198.461 144.904 199.616 145.312 199.875C145.83 200.089 146.153 199.204 146.438 199.125C146.974 198.979 147.66 199.14 148.312 198.75C148.886 198.409 149.171 197.419 150 197.625V198.188C150 198.506 150.743 198.431 150.938 198.375C151.684 198.154 151.504 196.77 151.5 196.125C152.036 196.185 152.685 196.031 153.188 196.125C153.326 196.151 153.409 196.455 153.562 196.5C154.298 196.721 154.549 196.159 154.688 196.125C156.056 195.806 156.42 196.883 157.312 197.625C158.497 198.611 158.408 199.283 158.625 199.5C158.696 199.571 159.011 199.399 159.188 199.5C159.908 199.909 159.622 200.37 159.75 200.813C159.81 201.023 160.444 201.356 160.5 201.563C160.631 202.039 160.414 202.868 160.5 203.438C160.519 203.576 160.841 203.663 160.875 203.813C161.048 204.555 160.59 205.624 160.5 206.063C160.444 206.336 160.534 206.696 160.5 207C161.265 206.895 161.97 207.248 162.562 207.75L163.875 207.375V208.125C163.965 208.215 165.926 208.395 166.312 208.5C166.511 208.556 167.419 210.27 168.562 210.75C168.765 210.836 169.058 210.683 169.125 210.75V212.25H168.375V213H169.125V213.75C170.205 213.615 169.721 213.889 169.875 214.313C169.935 214.474 170.25 214.568 170.25 214.688C170.25 214.811 169.897 214.92 169.875 215.063C169.8 215.524 169.984 216.165 169.875 216.563C169.789 216.878 168.728 217.305 169.125 218.25L171.375 217.5V218.25C171.784 218.164 173.899 218.899 174 219C174.071 219.071 173.899 219.386 174 219.563C174.521 220.478 175.751 220.001 175.875 220.125C175.942 220.193 175.789 220.485 175.875 220.688C175.942 220.845 176.213 220.924 176.25 221.063C176.355 221.438 175.253 222.668 176.25 223.313L175.875 223.688L176.625 224.438C175.759 225.671 174.735 226.676 176.25 227.813C175.755 228.135 175.856 228.566 175.875 229.125H174.75L175.125 230.063C174.893 230.659 174.049 230.576 174 230.625C173.933 230.693 173.764 232.069 173.25 232.313L174.938 234C175.519 234.079 176.287 233.884 176.812 234C178.024 234.27 178.691 233.749 179.812 234C179.955 234.034 180.037 234.334 180.188 234.375C180.683 234.51 180.791 234.03 180.938 234C181.283 233.929 181.755 234.086 182.062 234C182.325 233.929 182.918 232.954 183.188 232.875C183.566 232.766 184.271 233.378 185.812 232.5C186.109 232.331 186.709 231.345 187.125 231.75C187.211 231.833 186.919 232.519 187.312 232.5C187.673 231.874 188.287 232.249 188.812 232.125C188.951 232.091 189.026 231.818 189.188 231.75C189.39 231.668 189.686 231.814 189.75 231.75C189.799 231.701 189.716 230.858 190.312 230.625C190.894 231.461 191.423 230.393 192.375 230.625L191.438 229.125L190.688 229.875C189.705 229.253 189.105 228.491 187.875 228.75V228C185.741 228.593 186.098 226.414 185.062 225.75C184.691 225.514 183.896 225.315 183.375 225.375L183.75 224.813C183.518 224.216 182.674 224.299 182.625 224.25C182.546 224.171 182.704 223.583 182.625 223.313C182.546 223.043 181.23 222.293 180.938 222.375L179.812 223.125C179.111 222.57 179.194 221.445 178.125 221.625C178.256 220.384 177.9 219.36 177.375 218.25H178.5L178.125 217.688L178.5 217.313L178.125 216.375C179.089 216.638 179.902 216.889 180.938 216.75L182.062 218.25H185.25L184.875 219.375C185.974 219.191 185.464 219.653 185.625 219.938C185.955 220.519 186.495 220.575 187.125 220.5C186.945 222.143 187.279 221.393 188.062 221.625C188.895 221.873 190.005 223.826 191.625 223.125V223.875C193.114 223.616 194.809 224.794 195.938 225C196.875 225.173 197.647 225.034 198.188 224.25C198.923 224.621 199.676 225.593 200.438 225.375C200.707 225.296 201.296 224.325 201.562 224.25C202.106 224.096 202.774 224.528 203.25 223.688L201.562 222.375C200.79 222.33 200.317 221.374 199.688 220.875C198.285 221.636 198.566 220.92 197.812 220.5C197.636 220.403 197.321 220.571 197.25 220.5C197.179 220.429 197.348 220.114 197.25 219.938C197.014 219.51 196.249 218.756 195.938 218.25L195.75 219C194.374 219.161 193.211 218.794 192.375 217.688C192.308 217.598 192.431 217.376 192.375 217.313C192.161 217.069 191.175 216.03 191.062 216C190.5 215.846 188.415 216.165 188.25 216C188.183 215.933 188.04 214.763 187.312 214.5C186.72 215.336 186.195 214.26 185.25 214.5V213.375C184.151 213.559 184.661 213.098 184.5 212.813C184.118 212.141 183.274 211.98 182.812 212.625L181.688 211.875L181.312 212.25C180.454 211.628 181.009 210.236 179.625 210.375V208.125C180.488 208.748 180.671 208.485 181.312 207.75L183.188 208.875C184.425 208.253 185.647 209.46 186.938 209.625C187.702 209.723 188.588 209.558 189.375 209.625C189.176 211.136 189.566 210.544 189.938 210.75C190.286 210.945 190.815 211.808 191.062 211.875C191.381 211.961 191.869 211.789 192.188 211.875C192.382 211.928 193.886 213.255 194.438 213.375C194.989 213.495 196.74 213.24 196.875 213.375V214.875C197.696 214.755 198.446 214.26 199.312 214.5C199.995 214.688 199.755 216.188 200.438 216.375C200.933 216.51 201.769 216.259 202.312 216.375C202.725 216.465 203.692 217.466 203.812 217.5C204.247 217.62 205.226 216.428 206.062 217.875L207.188 216.75H207.562C207.754 217.23 208.459 217.084 208.5 217.125C208.571 217.196 208.399 217.511 208.5 217.688C208.68 218.006 209.876 218.715 210.188 218.625C210.431 218.111 211.807 217.943 211.875 217.875C211.976 217.774 211.781 216.904 211.875 216.563C211.969 216.221 212.902 215.959 212.625 215.25H213.75C214.057 214.943 213 213.66 213 213.563C213 213.435 213.349 213.334 213.375 213.188C213.446 212.79 213.33 212.299 213.375 211.875C212.76 211.673 212.625 212.198 212.438 212.25C212.077 212.348 211.316 211.654 211.125 211.313C211.027 211.136 211.196 210.821 211.125 210.75C210.949 210.574 208.549 210.919 207.938 210.75C207.731 210.694 207.397 210.06 207.188 210C206.366 209.764 205.211 209.805 204.562 209.625C204.045 209.483 203.419 208.616 203.25 208.313C202.628 207.195 201.345 207.326 200.438 207C200.216 206.921 200.119 206.426 199.5 206.625V205.875H198.375L198.75 204.75C197.681 204.93 197.764 203.805 197.062 203.25C196.669 203.141 196.095 203.899 195.375 203.625C195.559 202.523 195.105 203.036 194.812 202.875C193.973 202.406 193.725 201.54 193.875 200.625L192.375 201.375L191.812 200.25L190.875 201L191.25 199.313C191.006 199.129 190.301 197.843 190.5 197.625C190.777 197.325 191.599 198.064 191.812 198.375C193.065 197.558 194.344 199.17 195.562 199.5C195.994 199.616 197.19 198.431 198.188 200.25L198.938 199.875C199.534 200.108 199.451 200.951 199.5 201C199.62 201.12 202.069 201.206 202.688 201.375C202.875 201.428 203.179 201.983 203.438 202.125C203.614 202.223 203.929 202.054 204 202.125C204.052 202.178 204.143 202.883 204.375 203.438C204.457 203.64 204.311 203.936 204.375 204C204.446 204.071 204.761 203.903 204.938 204C205.196 204.143 205.5 204.698 205.688 204.75C206.501 204.975 207.731 204.349 208.312 205.125L210.188 205.5L210.75 206.063L210.375 206.625C212.085 206.505 213.068 208.118 214.875 207.75C214.729 209.321 215.869 208.159 216.562 207.375C217.219 207.893 218.348 208.185 218.25 209.25C219 209.25 220.039 207.825 220.312 207.75C220.631 207.664 221.119 207.836 221.438 207.75C222.195 207.54 221.88 206.501 222 206.063C222.075 205.789 223.414 205.17 223.875 204.563C224.501 203.73 224.88 201.923 225.188 201.75C225.364 201.653 225.679 201.821 225.75 201.75V200.625C225.143 200.633 224.479 200.246 224.062 199.875C222.607 200.76 222.69 198.93 221.812 198.375C221.441 198.143 220.669 198.206 220.875 197.25H219.75L219.938 198L218.25 198.375L217.875 196.875C217.163 196.984 216.641 196.463 216.75 195.75C216.143 195.544 215.981 196.088 215.812 196.125C214.462 196.433 214.316 195.484 213.938 195.375C213.679 195.3 212.625 195.345 212.625 194.813C212.625 194.719 213.135 194.554 213 194.063C212.64 192.761 210.015 193.163 208.875 193.125C209.194 192.026 207.904 192.263 207.188 192C206.966 191.918 206.869 191.426 206.25 191.625C206.239 190.95 205.834 190.223 205.312 189.75C204.562 189.536 204.356 190.076 204.188 190.125C203.299 190.369 203.31 189.06 203.25 189C203.104 188.854 201.188 188.378 200.812 188.25C198.93 187.62 199.2 187.384 197.812 186.375C196.871 185.689 195.952 185.588 194.812 185.25C193.901 184.98 192.439 181.665 190.875 181.875V181.125C189.956 181.14 188.359 180.806 187.688 180.375C186.941 179.899 187.537 179.659 186.562 179.25C185.685 178.883 179.145 174.296 178.875 173.813C178.777 173.636 178.946 173.321 178.875 173.25C178.132 173.055 177.997 173.82 177.375 174C177.236 172.901 176.734 171.851 175.5 172.125L176.25 173.813C175.196 174.45 175.796 175.999 174.375 175.875V176.625H173.625V177.375H172.875C173.059 178.144 172.717 178.339 171.938 178.125C171.787 178.084 171.713 177.791 171.562 177.75C171.075 177.615 171.022 178.039 170.812 178.125C170.603 178.211 170.317 178.058 170.25 178.125C170.179 178.196 170.351 178.511 170.25 178.688C169.688 179.678 168.607 179.033 167.812 179.25C167.479 179.344 166.909 180.476 165.75 180C165.791 180.698 165.173 181.061 165.375 181.875H163.875V183C163.316 183.019 162.885 183.12 162.562 182.625C162.274 182.625 161.512 184.14 161.625 184.5C160.714 183.758 160.684 184.388 160.312 184.5C159.772 184.665 159.285 184.433 158.812 185.25C158.003 184.365 156.116 186.304 155.062 186C154.192 185.753 153.975 186.184 153.188 186C152.246 185.779 151.035 185.67 150.188 185.25L148.688 186C148.384 185.299 146.798 185.798 146.625 185.625C146.554 185.554 146.726 185.239 146.625 185.063C146.096 184.133 145.241 184.688 144.562 184.5C144.229 184.406 143.659 183.274 142.5 183.75C142.702 183.135 142.185 183.008 142.125 182.813C141.979 182.321 142.388 181.658 141.75 181.313C142.226 180.289 142.042 180.506 141.75 179.813C141.664 179.61 141.818 179.318 141.75 179.25C141.679 179.179 140.67 179.516 141 178.688C141.33 177.859 143.123 177.75 142.875 176.625H143.625C143.441 175.523 143.895 176.036 144.188 175.875C145.29 175.26 146.528 172.538 147.938 171.75C149.126 171.086 148.545 170.891 148.875 169.688C148.973 169.335 150.465 168.323 150.75 167.813C150.848 167.636 150.679 167.321 150.75 167.25C150.821 167.179 152.411 167.089 152.625 166.875C152.696 166.804 152.527 166.489 152.625 166.313C152.831 165.941 153.589 165.529 153.75 165.188C154.151 164.333 152.824 164.704 152.438 164.625C152.295 164.595 152.209 164.284 152.062 164.25C150.724 163.935 150.566 164.891 150.188 165C149.235 165.274 149.006 164.336 148.688 164.25C147.975 164.055 146.494 163.575 146.062 163.5C145.586 163.414 144.112 163.613 144 163.5ZM142.125 202.5C142.046 202.421 141.458 202.579 141.188 202.5C140.704 202.358 140.539 201.131 140.062 201C138.551 200.588 137.752 201.499 137.625 202.875C136.811 202.395 135.364 203.625 135.188 203.625C135.105 203.625 134.82 203.044 134.25 203.25C134.449 204.761 134.059 204.169 133.688 204.375C132.926 204.799 132.251 206.153 132.375 207H131.625V207.75H130.125C130.815 208.763 130.088 209.85 131.25 210.563C130.811 210.72 131.04 211.354 131.25 211.688C131.94 212.783 132.998 212.411 133.688 213.375H134.062C134.528 212.786 135.338 212.273 135.75 211.688C135.967 211.376 135.908 210.521 136.875 210.75V210H137.625V209.25H138.375C138.416 207.398 139.8 207.199 140.25 205.688C140.434 205.073 141.326 205.174 141.375 205.125C141.446 205.054 141.278 204.739 141.375 204.563C141.518 204.304 142.072 204 142.125 203.813C142.181 203.603 142.17 202.545 142.125 202.5ZM153 207.375C153.938 207.48 154.2 206.715 154.5 206.063C154.571 205.909 154.815 205.834 154.875 205.688C154.957 205.478 154.8 205.17 154.875 204.938C154.942 204.735 155.464 204.559 155.25 203.813L153.188 202.5C152.479 202.286 151.916 203.134 151.125 202.875V203.625C150.139 203.175 149.111 204.626 148.688 204.75C148.418 204.829 147.829 204.671 147.75 204.75C147.671 204.829 147.829 205.418 147.75 205.688C147.54 206.393 146.224 206.831 145.5 206.625L145.875 207.375C145.369 207.341 144.101 207.949 144 208.313C143.906 208.654 144.101 209.524 144 209.625C143.929 209.696 143.614 209.528 143.438 209.625C143.261 209.723 141.75 211.193 141.75 211.313C141.75 211.406 142.312 211.721 142.125 211.875H141V212.625L140.25 212.25C140.456 212.854 139.909 213.03 139.875 213.188C139.804 213.544 139.965 214.41 139.875 214.5C139.804 214.571 139.489 214.403 139.312 214.5C138.96 214.695 138.446 215.55 138.188 215.625C137.929 215.7 137.329 215.546 137.25 215.625C137.171 215.704 137.329 216.289 137.25 216.563C137.194 216.754 136.673 216.885 136.875 217.5C137.978 217.316 137.464 217.77 137.625 218.063C138.06 218.846 138.739 219.03 138.375 220.5H139.125C138.776 222.259 139.811 221.156 140.625 222.188L140.25 222.938C141.653 224.861 141.99 223.328 142.688 223.125C142.958 223.046 143.546 223.204 143.625 223.125C143.715 223.035 143.715 221.115 144.562 220.875C144.795 220.808 145.08 220.943 145.312 220.875C145.643 220.781 145.916 219.851 146.625 220.125V217.875C147.559 218.175 147.874 216.469 148.125 215.625C149.321 215.745 148.616 214.804 149.812 214.125C150.645 213.649 150.559 211.316 150.75 211.125C150.821 211.054 151.136 211.226 151.312 211.125C152.164 210.641 151.605 209.063 153 209.25V207.375ZM164.25 212.625C163.635 212.828 163.511 212.31 163.312 212.25C162.581 212.029 162.296 212.606 162.188 212.625C161.393 212.771 161.074 212.79 160.312 213C159.836 213.131 159.622 212.438 159 212.625C159.607 213.874 157.496 214.305 157.5 214.688C157.5 214.785 158.01 214.946 157.875 215.438C157.849 215.528 156.652 216.724 156.562 216.75C156.052 216.893 154.275 216.6 154.125 216.75C154.399 217.463 153.806 217.856 153.75 218.063C153.675 218.34 153.829 218.921 153.75 219C153.679 219.071 153.364 218.903 153.188 219C152.929 219.146 152.696 219.604 152.438 219.75C152.261 219.848 151.946 219.679 151.875 219.75C151.774 219.851 151.969 220.721 151.875 221.063C151.819 221.269 151.181 221.606 151.125 221.813C151.005 222.251 151.204 222.986 151.125 223.5H150V224.25L148.125 224.625L148.312 225.375H148.875C148.834 226.204 149.036 227.063 149.25 227.813C149.295 227.97 151.181 229.463 151.312 229.5C151.871 229.661 152.332 229.44 152.812 230.25L153.938 229.5L155.438 230.25L157.125 228.563C156.128 226.755 157.605 227.145 157.875 226.875C157.954 226.796 158.565 225.304 158.625 225H159.375V221.25C160.305 221.393 160.736 220.215 161.438 219.75C161.591 219.649 162.409 219.476 162.562 219.375C162.908 219.15 163.459 218.314 163.688 218.25C164.261 218.093 165.27 218.363 165.938 218.25C166.084 218.224 166.275 217.669 166.875 217.875C167.299 217.436 165.799 215.985 165.75 215.813C165.683 215.58 165.817 215.295 165.75 215.063C165.581 214.474 163.875 213.874 163.875 213.563L164.25 212.625ZM172.125 221.625C171.176 221.228 170.756 222.289 170.438 222.375C169.515 222.63 169.039 222.146 168.562 222C168.143 221.873 166.496 222.548 165.938 222.75C165.66 222.848 165.356 223.38 164.625 223.125C165.24 224.01 164.944 225.056 165 226.125L163.875 225.375V226.125L162.375 226.5C162.42 226.924 162.304 227.415 162.375 227.813C162.405 227.993 162.72 228.758 162.75 228.938C162.795 229.204 162.795 230.205 162.75 230.25C162.596 230.404 160.886 229.811 161.25 231.938C161.276 232.08 161.625 232.189 161.625 232.313C161.625 232.399 160.875 233.569 160.688 233.625C160.444 233.696 160.05 233.584 159.75 233.625L160.125 234.563L159.75 235.313L160.312 235.875C161.445 235.193 161.359 236.126 161.812 236.25C162.217 236.363 162.874 236.153 163.312 236.25C163.455 236.284 163.537 236.584 163.688 236.625C164.224 236.775 164.771 236.036 164.625 235.5H166.5C166.744 234.713 165.923 234.124 166.125 233.438C166.223 233.104 166.868 232.755 167.25 232.875L166.5 231.188C167.145 230.153 168.454 230.861 169.312 230.625C169.77 230.498 170.055 229.399 170.25 228.938C170.385 228.615 170.861 228.364 170.625 227.625H171.375C170.985 226.076 172.838 224.749 172.5 223.313C172.466 223.166 172.155 223.08 172.125 222.938C172.046 222.551 172.174 222.045 172.125 221.625Z" fill="#284655"/>
<path d="M210.375 157.125C210.383 157.106 210.686 157.192 210.75 156.937C210.84 156.574 210.694 156.037 210.75 155.625H210V154.875C208.65 154.931 209.025 154.057 208.875 153.187C208.849 153.045 208.5 152.936 208.5 152.812C208.5 152.689 208.815 152.599 208.875 152.437C208.95 152.227 208.811 151.939 208.875 151.875C208.946 151.804 209.261 151.972 209.438 151.875C210.454 151.309 210.454 149.486 211.312 149.25C211.77 149.122 213.24 149.385 213.375 149.25V148.5H215.625C215.423 147.686 216.041 147.322 216 146.625C217.778 146.741 218.651 145.279 219.562 144C219.885 144.495 220.316 144.394 220.875 144.375C220.519 143.209 221.621 142.991 222 142.312C222.097 142.136 221.929 141.821 222 141.75C222.135 141.615 223.605 141.877 224.062 141.75C224.235 141.701 226.785 139.841 226.875 139.687C227.081 139.324 226.489 138.922 228 139.125V138.375C228.559 138.394 228.99 138.495 229.312 138L230.062 138.375C230.171 138.431 230.355 138.326 230.438 138.375C230.94 138.679 231.866 139.676 231.75 140.25H233.25C233.441 141.007 233.584 141.442 233.625 142.312C233.689 143.681 234.487 142.436 234.938 142.125C236.468 141.064 238.65 139.939 239.625 138.187C239.722 138.011 239.554 137.696 239.625 137.625C239.689 137.561 239.985 137.711 240.188 137.625C240.728 137.4 241.522 136.725 242.062 136.5C242.265 136.414 242.561 136.564 242.625 136.5V135C243.214 135.015 243.836 134.655 244.312 134.25L246.188 134.625L247.125 133.312C246.701 132.885 246.236 132.645 246.375 132C247.47 132.48 248.138 130.687 248.812 130.875C249.143 130.965 249.69 131.542 250.5 131.25V130.5C250.676 130.324 253.076 130.669 253.688 130.5C253.95 130.429 254.542 129.454 254.812 129.375C255.045 129.307 255.33 129.442 255.562 129.375C255.772 129.315 256.106 128.681 256.312 128.625C258.518 128.017 259.23 130.252 260.625 131.437C260.04 131.681 260.344 132.656 260.25 132.75C260.171 132.829 259.583 132.671 259.312 132.75C258.694 132.934 258.225 134.505 257.812 134.625L255.375 133.875L255.75 135H254.625C254.827 135.615 254.306 135.746 254.25 135.937C254.171 136.211 254.329 136.796 254.25 136.875C254.186 136.939 253.897 136.8 253.688 136.875C253.526 136.935 253.432 137.25 253.312 137.25C253.189 137.25 253.084 136.901 252.938 136.875C252.54 136.804 252.049 136.92 251.625 136.875V138C250.755 137.317 250.905 138.045 250.312 138.375C249.941 138.581 249.551 137.989 249.75 139.5H249V140.625H246.75C246.562 140.779 247.125 141.094 247.125 141.187C247.125 141.296 246 142.519 245.812 142.875C245.089 141.997 244.208 142.8 243.375 142.875C243.577 143.49 243.056 143.621 243 143.812C242.921 144.086 243.079 144.671 243 144.75C242.929 144.821 242.614 144.652 242.438 144.75C241.83 145.087 241.744 146.471 240.938 146.25C240.604 146.156 240.015 145.02 238.875 145.5L239.625 147H238.125C238.324 148.091 237.952 148.451 237.375 149.25C237.885 149.201 239.884 150.529 240 150.937C240.067 151.17 239.933 151.455 240 151.687C240.06 151.897 240.694 152.231 240.75 152.437C240.836 152.745 240.679 153.217 240.75 153.562C240.78 153.709 241.26 153.817 241.125 154.312C241.084 154.462 240.784 154.541 240.75 154.687C240.33 156.506 242.081 156.322 242.25 156.937C242.344 157.279 242.149 158.149 242.25 158.25C242.321 158.321 242.636 158.149 242.812 158.25C243.39 158.58 243.056 158.884 243.938 159.375C244.882 159.9 245.156 160.511 245.812 160.875C247.031 161.554 247.189 163.129 245.625 163.125V163.312C246.056 163.927 247.178 164.61 247.5 165.187C247.706 165.559 247.114 165.949 248.625 165.75C247.972 166.687 247.286 168.844 248.438 169.5C248.614 169.601 248.929 169.429 249 169.5C249.071 169.571 248.903 169.886 249 170.062C249.382 170.752 250.455 171.232 249.375 172.312C249.75 173.04 250.943 173.261 251.25 173.812C251.621 174.476 251.621 174.274 252 174.937C252.379 175.601 253.076 175.451 253.125 175.5C253.249 175.624 252.772 176.854 253.688 177.375C253.92 177.506 254.584 177.109 254.25 178.312C254.209 178.459 253.924 178.537 253.875 178.687C253.661 179.377 254.441 179.842 254.25 180.562C254.662 181.14 255.053 181.211 255.75 181.125V181.875C256.706 181.639 256.909 182.254 257.625 182.625C257.449 181.751 258.551 181.624 258.375 180.75H260.625C260.561 179.512 262.147 179.149 263.25 179.25V178.5C263.88 178.646 264.439 177.96 264.938 177.75C266.025 177.296 265.294 177.206 265.5 177C265.601 176.899 266.884 176.711 267.188 176.625C268.208 176.332 268.226 174.551 268.125 173.625C269.141 173.46 269.891 173.812 270.75 174C270.923 172.804 271.897 171.596 272.812 170.625H273.188C274.305 171.99 275.175 169.676 275.812 169.5C276.086 169.425 277.785 169.425 278.062 169.5C278.925 169.732 278.561 171.75 278.625 172.5H277.875L277.5 174C276.488 173.779 275.812 174.754 274.875 174.75V177.375H274.125C274.264 178.68 272.411 178.852 271.875 179.812C271.778 179.989 271.946 180.304 271.875 180.375C271.804 180.446 271.489 180.277 271.312 180.375C270.986 180.559 270.259 181.402 269.812 181.5C268.478 181.789 268.5 181.721 267.188 182.25C266.632 182.471 266.123 182.722 265.5 182.625L265.875 183.375H265.125C265.237 184.575 264.458 184.305 263.812 184.5C263.287 184.657 263.347 185.07 262.312 184.5C261.926 184.774 261.551 185.422 261.188 185.625C260.895 185.786 260.441 185.272 260.625 186.375L259.5 186C259.568 186.994 259.174 188.025 260.062 188.625L260.625 188.25C260.557 189.236 260.846 190.324 261.375 191.062C261.217 191.31 260.674 191.632 260.625 191.812C260.49 192.304 261 192.469 261 192.562C261 192.709 260.314 193.102 260.25 193.312C260.171 193.582 260.329 194.171 260.25 194.25C260.149 194.351 259.279 194.156 258.938 194.25C258.851 194.272 257.719 194.869 257.438 195C255.634 195.847 255.679 195.232 255.188 195.375C254.805 195.484 254.662 196.432 253.312 196.125C253.178 196.095 253.099 195.817 252.938 195.75C252.12 195.409 252.443 196.432 252.375 196.5C252.338 196.537 251.528 196.849 251.438 196.875C251.164 196.954 250.579 196.796 250.5 196.875C250.429 196.946 250.597 197.261 250.5 197.437C250.41 197.599 249.278 198.724 249.188 198.75C248.306 198.994 246.938 198.667 246.188 198.375L244.312 200.25C242.678 199.11 240.397 199.59 238.312 199.5C238.05 198.851 236.835 197.88 236.625 197.437C236.25 196.642 237.323 196.935 237.562 196.875C237.817 196.811 237.731 196.511 237.75 196.5C237.814 196.455 238.189 196.556 238.125 196.125C238.654 196.196 239.336 196.02 239.812 196.125C239.962 196.159 240.067 196.635 240.562 196.5C240.877 196.414 241.748 195.086 242.062 195C242.752 194.809 243.908 194.989 244.5 195.375V194.625C244.635 194.49 246.105 194.752 246.562 194.625C246.964 194.516 247.65 193.241 249.188 192.75C250.601 192.296 252.39 191.066 253.688 191.625L255 190.687C254.415 190.046 254.062 189.559 253.125 189.75L253.5 188.25L252.562 188.625C252.364 188.569 251.737 187.571 251.625 187.312C251.531 187.102 251.715 186.772 251.625 186.562C250.871 184.834 248.794 184.92 249.75 183.187C248.715 182.434 248.618 181.196 248.25 180.187C247.774 178.875 247.252 179.377 247.125 179.25C246.982 179.107 246.653 177.461 246.75 177H246C245.944 176.584 246.086 176.055 246 175.687C245.76 174.66 246.06 174.397 246 174.187C245.94 173.977 245.314 173.647 245.25 173.437C245.171 173.167 245.329 172.579 245.25 172.5C245.19 172.44 243.971 172.684 243.75 171.937C243.518 171.154 244.268 170.82 242.625 171C242.64 170.411 242.28 169.789 241.875 169.312L242.625 168.75C241.189 168.817 241.691 167.76 241.5 167.062C241.432 166.815 240.435 165.139 240.188 165C240.011 164.899 239.696 165.071 239.625 165C239.509 164.884 239.366 163.17 237.938 162.375C237.761 162.277 237.446 162.446 237.375 162.375C237.281 162.281 237.458 161.411 237.375 161.062C237.319 160.822 236.509 160.564 237.375 159.937C236.929 159.622 236.479 158.857 236.062 158.625C235.886 158.527 235.571 158.696 235.5 158.625C235.459 158.584 235.605 157.879 235.125 157.687L235.875 156.562L235.5 156.187L235.875 155.437C235.042 154.549 234.581 153.859 233.25 154.125C233.216 153.071 232.159 152.179 232.125 151.125H232.875V150.375H232.125C232.583 148.624 230.756 149.006 230.625 148.875C230.546 148.796 230.704 148.211 230.625 147.937C230.25 146.64 229.575 147.075 229.5 147C229.177 146.677 229.222 145.114 229.125 144.562C229.099 144.416 228.544 144.225 228.75 143.625H227.625V144.375H226.875L226.5 146.625L225.562 145.875C225.03 146.486 224.389 145.931 224.625 147H223.5V147.75H222.75V148.5L221.625 148.125V149.25L220.125 148.875C220.151 149.265 220.466 149.134 220.312 149.625C220.061 150.431 219.39 150.904 218.812 151.5L218.625 150.75L217.688 150.375C216.956 150.645 217.189 151.811 217.125 151.875C217.054 151.946 216.739 151.777 216.562 151.875C216.304 152.017 216.004 152.569 215.812 152.625C215.426 152.734 214.807 151.969 214.125 152.25C214.327 152.865 213.806 152.992 213.75 153.187C213.472 154.136 214.403 154.354 214.5 154.687C214.579 154.957 214.421 155.546 214.5 155.625C214.571 155.696 214.886 155.527 215.062 155.625C215.438 155.835 215.812 156.54 216.188 156.75C216.364 156.847 216.679 156.679 216.75 156.75C216.87 156.87 216.641 158.036 216.75 158.437C216.776 158.527 217.901 159.66 218.062 159.75C218.239 159.847 218.554 159.679 218.625 159.75C218.719 159.844 218.546 160.71 218.625 161.062C218.659 161.205 219.281 161.962 219.375 162.187C219.461 162.39 219.311 162.686 219.375 162.75C219.427 162.802 220.406 162.956 220.688 163.125C222.544 164.257 221.693 165.262 222 166.687C222.097 167.134 222.941 167.861 223.125 168.187C223.222 168.364 223.054 168.679 223.125 168.75C223.174 168.799 223.807 168.619 224.25 169.312C224.948 170.404 224.137 170.805 224.25 171.187C224.284 171.3 225.191 172.252 225.375 172.687C225.728 173.531 225.968 173.04 226.5 174.187C227.032 175.335 227.539 176.201 228 177.187C228.056 177.304 227.951 177.487 228 177.562C228.604 178.507 229.35 177.93 230.062 178.125C230.64 178.286 231.188 180.056 231 180.75H231.75C231.577 181.639 232.298 182.111 232.125 183L233.625 183.375C233.775 183.529 233.483 185.299 233.625 185.812C233.659 185.936 234.66 186.9 234.75 187.312C234.889 187.954 234.589 188.977 234.75 189.562C234.799 189.739 236.509 191.422 236.625 191.812C236.779 192.33 236.858 193.155 237 193.687C237.041 193.841 237.375 193.939 237.375 194.062C237.375 194.186 237.056 194.276 237 194.437C236.925 194.647 237.064 194.932 237 195C236.903 195.105 236.1 194.704 236.25 195.375C236.621 195.386 237.004 195.356 237.375 195.375V195.75C237.353 195.87 237.405 196.009 237.375 196.125H236.812L236.625 196.5C236.362 196.519 235.86 196.642 235.875 196.312V195.75C235.08 196.357 235.185 195.802 234.938 195.75C234.649 195.69 234.071 195.821 234 195.75C233.921 195.671 233.959 194.314 232.875 194.625V193.125C231.589 193.47 232.136 191.415 231.188 190.875C230.753 190.627 230.73 191.089 230.25 189.937C231.146 188.749 229.316 188.385 229.125 187.687C229.039 187.369 229.211 186.881 229.125 186.562C228.964 185.966 228.083 184.414 227.625 183.937L228 183L227.062 183.375C226.811 182.7 225.806 182.681 225.75 182.625C225.667 182.542 225.836 181.95 225.75 181.687C225.686 181.5 225.03 180.697 225 180.562C224.812 179.692 225.409 178.747 224.438 178.125C224.34 178.061 223.871 178.17 223.688 177.75C223.144 177.855 221.002 176.869 220.875 176.437C220.819 176.242 220.744 175.5 221.062 175.5C221.925 175.702 221.396 174.997 222 174.562C221.434 173.587 220.552 172.815 220.5 171.75C220.346 171.562 220.031 172.125 219.938 172.125C219.409 172.121 218.257 169.849 218.625 169.125H217.875C218.111 167.7 216.304 167.171 216.375 165.75H215.625C215.516 163.98 215.258 162.24 213.75 161.062L213 159C212.711 159.019 212.389 158.82 212.25 159.187C211.969 159.945 211.834 160.102 211.125 160.5V158.25H210.375C210.435 157.916 210.278 157.331 210.375 157.125Z" fill="#284655"/>
<path d="M203.25 126.375C202.601 126.379 201.847 126.788 201.375 127.313C201.191 127.954 202.054 128.846 201.75 129.75H200.625L201 130.5H199.5V132L198 131.625V132.75C196.342 132.326 196.755 134.348 195.375 134.25C195.896 135.086 196.084 137.115 195.187 137.625C195.011 137.726 194.696 137.554 194.625 137.625C194.554 137.696 194.467 139.35 193.687 138.375L192.937 138.75L191.812 138.375C191.224 138.9 190.327 138.896 190.5 139.875C190.211 140.164 189.206 139.305 189 138.938C188.902 138.761 189.071 138.446 189 138.375C188.779 138.154 187.459 138.469 187.125 138.75C187.076 138.33 187.2 137.824 187.125 137.438C187.095 137.291 186.772 137.201 186.75 137.063C186.694 136.676 186.664 135.499 186.75 135.188C187.001 134.269 187.721 135.094 188.062 135C188.201 134.963 188.28 134.693 188.437 134.625C188.64 134.539 188.932 134.693 189 134.625C189.071 134.554 188.887 133.253 189.75 132.938L189.375 132.563C190.065 132.236 190.042 130.583 190.125 130.5C190.207 130.418 190.789 130.579 191.062 130.5C192.142 130.189 191.944 128.97 193.5 129L193.125 128.438C194.617 127.729 194.317 126.866 195.187 126.375C195.821 126.015 195.832 125.145 196.125 124.688C196.759 123.694 198.652 122.708 199.875 123V122.25H201.937L204 123.938C203.437 124.245 203.73 124.695 203.625 125.063C203.497 125.505 202.5 125.505 203.25 126.375Z" fill="#284655"/>
<path d="M169.5 115.5V116.625C171.09 116.344 171.225 117.701 171 119.062C170.824 120.112 171.127 119.715 171.375 120.562C171.622 121.41 170.351 121.95 171.75 122.812L171 123C171.019 124.147 170.7 125.119 171.75 125.812C171.236 126.72 169.732 128.062 171.375 127.875C171.266 128.944 171.686 129.889 172.125 130.875H171L171.375 132.187C170.861 132.427 170.692 133.8 170.625 133.875C170.584 133.92 169.71 133.852 169.5 134.437L170.25 134.812L168 136.125C168.12 135.465 167.629 134.895 166.875 135L167.062 134.25H168V132.75H166.125L166.5 131.812L166.125 131.062C166.417 130.001 166.395 126.307 166.125 124.687C166.099 124.519 165.78 123.735 165.75 123.562C165.697 123.247 166.016 121.061 166.125 120.562C166.215 120.146 167.212 119.194 167.25 119.062C167.419 118.466 166.582 117.499 166.875 116.437C167.051 115.792 167.88 115.976 168.187 115.875C168.435 115.792 168.776 115.237 169.5 115.5Z" fill="#284655"/>
<path d="M143.625 123V123.75H144.375C144.259 124.928 145.41 126.004 146.063 126.375C146.877 126.836 146.599 127.778 146.625 128.625H147.375C147.195 130.136 147.762 129.859 148.688 130.125C149.134 130.253 149.397 131.535 150 131.813L149.625 132.188C149.494 132.664 150.634 133.523 150.75 134.063C150.897 134.749 150.649 135.754 150.75 136.5C150.113 136.414 149.273 136.628 148.688 136.5C148.242 136.403 147.514 135.559 147.188 135.375C147.012 135.278 146.697 135.446 146.625 135.375C146.554 135.304 146.723 134.989 146.625 134.813C146.232 134.108 145.114 134.025 145.875 133.125H144.75C144.93 132.51 144.522 132.465 144.375 132.188C143.712 130.916 143.389 131.389 143.25 131.25C143.172 131.171 143.037 129.78 142.313 129.375C142.137 129.278 141.822 129.446 141.75 129.375C141.687 129.311 141.833 129.015 141.75 128.813C141.642 128.546 141.177 128.438 141.375 127.688C141.413 127.549 141.938 127.279 141.75 127.125H141C141.345 126.064 139.26 124.785 139.125 124.313C139.058 124.076 139.197 123.784 139.125 123.563C139.077 123.409 138.777 123.326 138.75 123.188C138.657 122.685 138.81 122.036 138.75 121.5C139.695 121.103 140.123 122.164 140.438 122.25C140.944 122.385 141.814 122.111 142.313 122.25C142.635 122.34 142.917 123.278 143.625 123Z" fill="#284655"/>
<path d="M237.375 195.375C238.136 195.416 238.222 195.165 238.125 196.125C238.189 196.556 237.814 196.455 237.75 196.5V195.938L237.375 195.75V195.375Z" fill="#284655"/>
<path d="M237.375 196.125C237.341 196.264 237.431 196.425 237.188 196.5C237 196.515 236.809 196.485 236.625 196.5L236.812 196.125H237.375Z" fill="#284655"/>
<path d="M245.25 183L245.062 183.75H244.5V185.438L242.062 188.25H241.687C241.305 187.823 240.694 187.35 240.187 187.125C239.996 187.039 239.685 187.196 239.437 187.125C238.995 186.998 238.995 186 238.125 186.75C238.189 185.921 237.825 184.005 238.687 183.75C238.957 183.671 239.546 183.829 239.625 183.75C239.696 183.679 239.527 183.364 239.625 183.188C239.715 183.026 240.847 181.901 240.937 181.875C241.826 181.631 242.194 182.194 242.437 182.25C242.771 182.329 243.247 182.164 243.562 182.25C243.911 182.344 244.624 183.173 245.25 183Z" fill="#284655"/>
</svg>
