<svg width="356" height="355" viewBox="0 0 356 355" fill="none" xmlns="http://www.w3.org/2000/svg">
<path d="M211.938 160.812C211.6 161 211.315 161.274 211 161.187C210.415 160.385 209.808 161.435 208.75 161.187C207.494 160.895 203.631 160.962 202.375 161.187C200.976 161.439 199.36 160.996 198.25 161.187C197.271 161.356 193.754 160.46 192.625 160.062C191.957 159.826 191.676 159.837 191.125 159.687C190.885 159.62 190.349 158.772 190 158.562C189.887 158.495 189.438 158.611 189.25 158.187C188.684 158.101 188.26 158.39 187.75 158.562C187.24 158.735 188.009 158.99 187.938 159.312C187.596 159.605 184.975 158.442 184.375 158.187C184.049 158.049 183.801 157.576 183.062 157.812V157.062C182.11 156.965 181.57 157.014 181 157.812C180.239 156.624 179.991 157.572 179.5 157.437C179.324 157.389 177.426 155.986 177.25 155.937C177.04 155.881 175.982 155.892 175.938 155.937C175.893 155.982 175.971 156.83 175.375 157.062L173.5 157.437L172.375 156.687L172 157.062L171.25 155.937C170.823 156.069 169.885 157.025 169.75 157.062C169.082 157.254 168.081 157.276 167.5 157.437C167.365 157.475 166.161 158.555 165.812 158.75V161.187H163.938C164.076 161.832 163.611 162.072 163.188 162.5C163.585 162.639 163.701 163.674 163.562 163.812C163.491 163.884 163.176 163.715 163 163.812C162.516 164.082 161.984 165.042 161.5 165.312C161.324 165.41 161.009 165.241 160.938 165.312C160.881 165.365 160.619 166.76 160.562 166.812C160.491 166.884 158.897 166.977 158.688 167.187C158.639 167.236 158.815 167.922 158.125 168.312C157.949 168.414 157.634 168.241 157.562 168.312C157.499 168.376 157.48 169.505 157.188 170C157.101 170.146 156.321 170.915 156.25 170.937C155.98 171.016 155.391 170.859 155.312 170.937C155.211 171.039 155.387 172.209 155.312 172.625C155.286 172.775 154.731 172.959 154.938 173.562C153.835 173.379 154.349 173.832 154.188 174.125C153.715 174.972 152.755 174.995 152.688 175.062C152.639 175.111 152.721 175.955 152.125 176.187L151.188 175.812L151.562 176.75C151.15 177.02 151.098 177.927 150.625 178.062C150.393 178.13 150.107 177.995 149.875 178.062C149.665 178.122 149.331 178.756 149.125 178.812C148.716 178.925 148.034 178.7 147.625 178.812C147.119 178.951 146.68 180.129 146.312 180.5L148.75 180.687L149.688 180.312V181.062C150.846 180.586 151.416 181.719 151.75 181.812C152.327 181.97 152.594 181.141 152.875 181.062C153.363 180.927 154.188 181.164 154.75 181.062C154.896 181.036 156.062 180.357 156.25 180.312C156.618 180.226 157.146 180.369 157.562 180.312C157.551 179.626 157.397 178.265 158.125 178.062C158.62 177.927 158.721 178.404 158.875 178.437C159.861 178.666 160.514 177.834 161.5 178.062C161.676 178.104 162.107 178.719 162.812 178.437V177.687C164.324 177.886 163.731 177.496 163.938 177.125C164.567 175.996 165.261 176.39 166 176.187C166.645 176.011 166.461 175.182 166.562 174.875C166.611 174.721 166.896 174.646 166.938 174.5C167.012 174.222 166.859 173.641 166.938 173.562C167.016 173.484 167.598 173.637 167.875 173.562C168.051 173.514 168.812 173.262 169 173.187C169.221 173.097 170.312 172.389 170.312 172.25C169.817 171.927 169.919 171.496 169.938 170.937H171.438C171.254 169.835 171.707 170.349 172 170.187C172.259 170.045 172.562 169.49 172.75 169.437C173.98 169.1 175.202 170.026 176.125 169.812C176.268 169.779 176.346 169.482 176.5 169.437C177.074 169.261 177.475 169.561 177.812 170C177.475 170.251 177.441 170.36 177.438 170.75C177.434 171.717 178.836 172.284 178.562 170.937C179.324 170.967 180.955 170.694 181.188 171.5C181.255 171.732 181.12 172.017 181.188 172.25C181.206 172.314 182.061 173.169 182.125 173.187C182.62 173.322 182.721 172.85 182.875 172.812C183.243 172.726 183.771 172.869 184.188 172.812V173.562C185.286 173.379 184.776 173.84 184.938 174.125C185.268 174.706 185.808 174.762 186.438 174.687V173.937H187.188C187.094 174.62 187.51 175.794 188.125 176.187C188.294 176.296 189.044 176.45 189.25 176.562C189.509 176.701 189.809 177.26 190 177.312C191.151 177.627 190.739 176.847 191.312 177.875C191.582 178.359 193.799 179.844 194.125 179.937C195.34 180.286 195.707 180.676 197.125 181.062C199.139 181.61 200.444 183.447 202.375 184.062C203.796 184.516 203.868 184.846 205 185.562C205.349 185.784 205.923 185.146 205.188 186.312L207.812 185.937C207.629 187.04 208.082 186.526 208.375 186.687C208.934 187.002 209.031 188.052 209.5 188.187C210.565 188.491 211.54 189.005 212.688 188.937C212.459 189.984 214.645 190.497 215.688 190.437V191.187C216.212 191.446 218.575 191.45 218.688 191.562C218.759 191.634 218.586 191.949 218.688 192.125C219.036 192.74 221.091 193.591 221.312 193.812C221.361 193.861 221.279 194.705 221.875 194.937H224.312V195.687C225.629 195.155 226.36 196.325 226.75 196.437C226.982 196.505 227.268 196.37 227.5 196.437C227.59 196.464 228.786 197.66 228.812 197.75C228.97 198.324 228.696 199.336 228.812 200C228.977 200.934 229.506 200.799 229.75 200.937C230.935 201.612 230.283 203.476 229.188 204.125L230.312 205.437C228.816 205.344 228.842 208.111 227.312 208.062C227.429 208.861 227.898 209.536 227.688 210.5C227.658 210.635 227.001 211.437 226.938 211.625C226.851 211.887 227.02 212.48 226.938 212.562C226.844 212.656 225.869 212.352 225.625 212.937C224.92 211.917 223.975 213.747 223.375 212.937C221.845 212.619 222.809 214.077 221.875 213.687C221.717 213.62 221.643 213.354 221.5 213.312C221.11 213.204 220.518 213.965 219.812 213.687L220.188 215.562H219.438V216.312H218.688C218.714 216.969 218.485 217.614 219.062 218L218.688 218.375C219.239 218.9 219.801 220.171 218.875 220.437C218.631 220.509 218.324 220.355 218.125 220.437C217.885 220.539 217.806 221.007 217.188 220.812C217.461 221.525 216.869 221.919 216.812 222.125C216.738 222.402 216.891 222.984 216.812 223.062C216.719 223.156 214.727 223.01 214.375 223.812H214C212.717 222.5 211.15 224.03 209.875 223.062C209.301 223.145 208.776 223.351 208.375 223.437C208.101 223.494 207.741 223.404 207.438 223.437L207.812 224.375L207.438 224.75L207.812 225.312L206.312 225.687C206.162 226.516 206.455 226.884 207.062 227.375L206.688 228.687H205.938V229.437C205.637 229.482 205.232 229.359 205 229.437C203.77 229.846 201.636 231.507 200.5 231.312C200.309 231.279 200.2 230.791 199.375 231.312C198.993 231.552 198.644 232.141 198.25 232.437H197.875C196.967 231.534 196.488 230.637 195.062 230.937V232.062L196.188 232.25C195.573 232.966 195.944 234.091 194.688 233.937L195.062 234.687C193.971 234.537 194.47 234.867 194.312 235.25C194.245 235.407 193.979 235.482 193.938 235.625C193.728 236.349 194.354 236.922 192.625 236.562C192.464 236.529 192.295 235.981 191.688 236.187C191.781 237.117 191.099 237.451 190.188 237.312L190.562 238.062C189.963 237.856 189.771 238.411 189.625 238.437C188.834 238.576 186.456 238.974 185.875 238.812C185.478 238.704 184.844 237.147 183.812 239C183.715 239.176 183.884 239.491 183.812 239.562C183.749 239.626 183.46 239.487 183.25 239.562C183.089 239.622 182.995 239.937 182.875 239.937C182.8 239.937 181.971 239.154 181.562 239.562C181.356 239.769 182.088 239.855 181 240.312C180.842 240.38 180.764 240.65 180.625 240.687C180.295 240.777 179.68 240.099 178.75 240.312C178.604 240.346 178.525 240.646 178.375 240.687C177.88 240.822 177.771 240.342 177.625 240.312C176.789 240.144 175.878 240.56 175.938 239.187C174.899 239.735 174.029 238.977 173.125 238.812C172.705 238.737 171.546 238.917 171.438 238.812C171.378 238.756 171.61 237.597 170.875 237.312C169.949 237.695 170.478 239.397 170.312 239.562C170.23 239.645 169.637 239.476 169.375 239.562C168.925 239.712 168.302 240.492 167.688 240.312V241.062C166.293 240.222 164.65 240.924 163.375 241.437C163.217 241.501 163.143 241.767 163 241.812C161.939 242.135 161.47 240.714 160.75 240.312C160.217 240.016 159.854 239.975 159.812 238.812H159.062V238.062C157.952 238.389 158.207 237.065 157.938 236.375C157.769 235.944 157.052 235.344 157.188 234.687L154.75 236.187C153.621 236.517 153.062 234.849 152.5 234.687C151.341 234.354 151.356 234.71 150.812 233.75C150.329 232.902 149.691 233.345 149.125 233.187C148.521 233.022 147.303 230.056 146.875 229.812C146.699 229.711 146.384 229.884 146.312 229.812C146.211 229.711 146.406 228.841 146.312 228.5C146.174 227.997 145.049 227.787 144.625 227.562C144.018 227.236 144.044 226.524 142.75 226.812C142.619 226.842 141.752 227.536 141.625 227.562C140.879 227.724 138.996 227.289 138.812 226.625C138.719 226.284 138.914 225.414 138.812 225.312C138.741 225.241 138.426 225.41 138.25 225.312C136.938 224.581 137.688 223.044 136.375 222.312C136.199 222.215 135.884 222.384 135.812 222.312C135.73 222.23 135.899 221.637 135.812 221.375C135.708 221.06 134.688 219.609 134.688 219.5C134.688 219.372 135.036 219.271 135.062 219.125C135.134 218.727 135.018 218.236 135.062 217.812H133.938V216.312C133.803 216.177 132.333 216.44 131.875 216.312C131.627 216.245 131.099 215.382 130.75 215.187C130.574 215.09 130.259 215.259 130.188 215.187C130.135 215.135 129.978 214.167 129.812 213.875C129.516 213.346 128.755 213.222 129.062 212.187H127.562V211.062H128.312C128.627 209.911 127.724 208.831 127.938 207.875C128.016 207.519 128.897 206.765 128.688 206.187H129.438C129.044 205.235 130.097 204.822 130.188 204.5C130.285 204.144 129.449 203.484 130.375 203.187C130.589 203.12 130.874 203.236 131.125 203.187L131.312 202.437C130.716 202.674 129.58 201.991 129.438 201.5C129.37 201.267 129.505 200.982 129.438 200.75C129.377 200.536 128.684 200.105 128.5 199.812C128.178 200.307 127.746 200.206 127.188 200.187L126.812 198.5L127.188 198.125C126.58 197.844 126.329 196.572 125.875 196.437C125.684 196.381 124.934 196.306 124.938 196.625C125.189 197.649 124.03 197.802 124.188 198.687H123.062V201.687C122.493 201.481 122.204 202.062 122.125 202.062C122.05 202.062 121.491 201.402 120.812 201.687V202.437C119.871 202.351 117.865 202.625 117.438 203.375C117.336 203.551 117.509 203.866 117.438 203.937C117.366 204.009 115.844 204.669 115.75 204.687C115.034 204.841 113.939 204.601 113.125 204.687C112.99 204.702 112.892 205.04 112.75 205.062C111.359 205.269 110.583 205.047 109.75 203.937C108.355 204.687 108.644 204.009 107.875 203.562C106.368 202.689 105.325 203.311 104.5 202.812C103.266 202.066 104.001 202.171 102.25 201.687C101.927 201.597 101.515 200.544 100.562 200.937L100.188 199.437C98.1438 199.576 98.9725 199.46 98.6875 198.5C98.575 198.125 96.8575 196.381 96.4375 195.875C95.455 194.694 95.365 195.211 94.375 194.937C93.6438 194.735 91.5963 191.622 91.375 191.562C90.7038 191.379 89.4025 191.382 88.75 191.187C88.555 191.127 88.4275 190.61 87.8125 190.812C88.2625 189.234 86.7625 189.039 86.6875 187.812H85.9375V187.062C84.7038 187.299 84.6437 186.597 84.0625 185.75C84.4562 185.124 85.2738 185.071 85.75 184.812C86.0087 184.674 86.305 184.119 86.5 184.062C87.4525 183.789 87.6737 184.719 88 184.812C88.3825 184.921 89.0613 185.176 89.125 185.187C89.7512 185.3 92.17 185.045 92.3125 185.187C92.2075 186.256 92.5675 187.876 93.8125 187.812V188.562H95.3125C95.2338 189.114 96.1337 190.67 96.625 190.812C96.8575 190.88 97.1425 190.745 97.375 190.812C97.8212 190.94 98.0837 192.222 98.6875 192.5L97.9375 192.875C98.4137 193.715 99.0813 193.284 99.625 193.437C99.9812 193.539 100.517 194.75 101.125 194.562L102.062 192.875C100.788 191.814 102.64 190.134 102.812 189.5C103.052 188.63 102.925 186.706 103.188 185.75C103.214 185.649 104.312 184.52 104.312 184.25C104.305 182.6 104.778 182.66 105.062 181.625C105.468 180.151 105.61 178.445 106.188 177.125C106.379 176.686 107.286 175.715 107.312 175.625C107.421 175.231 106.664 174.657 106.938 173.937C108.449 174.136 107.856 173.746 108.062 173.375C108.201 173.124 108.621 172.891 108.812 172.625C108.021 172.167 109.176 169.55 109.375 169.437C110.08 169.044 110.62 168.342 111.062 167.375C111.618 166.156 112.131 164.345 112.562 162.875C112.604 162.732 113.552 161.806 113.688 161.375L113.312 161C113.68 160.767 114.359 159.759 114.625 159.687C115.026 159.579 116.193 159.807 116.312 159.687C116.391 159.609 116.237 159.027 116.312 158.75C116.361 158.574 116.612 157.809 116.688 157.625C116.868 157.179 119.084 154.557 119.5 154.437C120.752 154.077 121.06 153.616 122.125 152.937C123.096 152.319 122.132 151.906 123.25 151.437C124.292 151.002 124.874 149.63 125.125 149.562C125.62 149.427 126.456 149.679 127 149.562C127.952 149.356 128.226 148.04 130 148.437C130.143 148.471 130.225 148.771 130.375 148.812C131.406 149.097 131.181 147.144 131.875 146.937C132.569 146.731 133.086 147.414 133.188 147.312C132.929 145.006 130.667 146.12 129.25 145.812C129.104 145.779 128.08 145.1 127.938 144.875C127.795 144.65 127.555 143.9 127.562 143.562C127.428 143.427 125.958 143.69 125.5 143.562C125.312 143.51 125.009 142.955 124.75 142.812C124.574 142.715 124.259 142.884 124.188 142.812C123.812 142.437 124.716 140.716 124.562 140.562C123.588 140.36 122.264 139.711 121.375 140.562C120.7 140.75 120.033 138.957 118.938 139.437C119.151 138.072 118.799 138.534 118 137.937L117.438 138.312C117.621 137.21 117.167 137.724 116.875 137.562C116.174 137.172 115.45 136.509 115.188 135.875C115.086 135.627 115.285 134.746 114.625 134.562C114.149 134.431 113.935 135.125 113.312 134.937V134.187C112.019 134.337 111.25 134.094 111.438 132.687H109.938C109.686 131.506 110.654 132.005 111.438 131.937V130.812H113.312V131.562C113.954 131.446 114.295 131.641 114.812 131.937C114.734 130.94 115.465 130.681 116.312 130.812C116.162 131.904 116.493 131.405 116.875 131.562C117.542 131.84 119.56 132.185 119.688 132.312C119.815 132.44 119.312 132.961 120.625 133.437C121.386 133.715 122.451 133.959 123.25 134.187C123.52 134.266 124.112 135.241 124.375 135.312C125.429 135.601 127.458 135.447 127.562 137.187C129.19 137.019 128.463 137.315 128.688 138.125C128.732 138.29 129.197 138.38 129.062 138.875C129.025 139.014 128.5 139.284 128.688 139.437C129.104 139.494 129.632 139.351 130 139.437C130.956 139.662 132.471 140.769 133.375 140.937C133.877 141.031 134.526 140.877 135.062 140.937V142.437C135.678 142.64 135.812 142.115 136 142.062C136.581 141.901 137.335 143.184 137.875 143.562C138.966 144.331 138.655 144.53 138.812 144.687C138.903 144.777 139.769 144.616 140.125 144.687C140.271 144.717 140.357 145.04 140.5 145.062C141.014 145.149 141.647 145.006 142.188 145.062C141.993 145.681 142.465 145.76 142.562 146C142.645 146.202 142.491 146.506 142.562 146.75C142.649 147.054 144.062 148.051 144.062 148.25C144.062 148.344 143.553 148.509 143.688 149C143.744 149.206 144.374 149.54 144.438 149.75C144.516 150.02 144.359 150.609 144.438 150.687C144.501 150.751 144.798 150.605 145 150.687C145.158 150.755 145.232 151.021 145.375 151.062C145.649 151.141 146.234 150.984 146.312 151.062C146.376 151.126 146.237 151.415 146.312 151.625C146.373 151.786 146.688 151.88 146.688 152C146.688 152.079 146.106 152.367 146.312 152.937C146.819 152.832 147.674 153.001 147.812 153.5C147.951 153.999 147.49 154.074 147.438 154.25C147.314 154.655 147.734 156.114 147.812 156.5C147.884 156.845 147.73 157.314 147.812 157.625C147.865 157.827 148.461 158.225 148.188 158.937H148.938V159.687C149.474 159.627 150.122 159.781 150.625 159.687C150.764 159.661 150.846 159.357 151 159.312C151.938 159.027 152.185 159.976 152.5 160.062C153.351 160.299 155.024 159.826 155.875 160.062C156.081 160.119 156.419 160.756 156.625 160.812C158.132 161.229 157.754 160.572 157.938 160.25C158.421 159.402 159.059 159.845 159.625 159.687C160.442 159.462 160.105 157.895 160.188 157.812C160.259 157.741 160.574 157.91 160.75 157.812C161.009 157.67 161.309 157.119 161.5 157.062C163.356 156.53 162.486 156.264 162.812 155.937C162.861 155.889 163.548 156.065 163.938 155.375C164.039 155.199 163.866 154.884 163.938 154.812C164.009 154.741 164.688 155.172 165.062 153.875C165.141 153.601 164.984 153.016 165.062 152.937C165.179 152.821 167.56 152.172 168.062 152.187V151.437H169.562V152.187C170.92 152.049 172.57 152.379 173.875 152.187C173.984 152.172 174.509 151.527 175.188 151.812C174.966 153.391 176.125 151.876 177.25 152.187C177.456 152.244 177.794 152.881 178 152.937C178.701 153.132 181.739 152.739 181.938 152.937C182.009 153.009 181.836 153.324 181.938 153.5C182.354 154.231 182.834 153.931 183.25 154.062C183.404 154.111 183.486 154.411 183.625 154.437C184.128 154.531 184.776 154.377 185.312 154.437V153.5C185.312 153.181 186.055 153.256 186.25 153.312C186.993 153.53 186.753 154.752 186.812 154.812C186.895 154.895 187.488 154.726 187.75 154.812C188.204 154.962 189.134 155.907 189.25 155.937C190.105 156.17 191.774 155.701 192.625 155.937C192.887 156.009 193.476 156.984 193.75 157.062C194.455 157.272 194.935 156.47 195.625 156.687C197.586 157.299 199.427 156.665 200.875 157.062C201.081 157.119 201.419 157.756 201.625 157.812C202.304 158 203.699 157.452 204.25 157.062C204.771 156.852 205.082 157.73 205.375 157.812C205.934 157.974 206.395 157.752 206.875 158.562L207.438 157.062L209.688 157.812V157.25L211.188 157.437C211.09 157.644 211.247 158.229 211.188 158.562H211.938V160.812ZM141.438 151.437C140.785 151.73 140.312 150.687 140.125 150.687C139.967 150.687 139.424 151.599 138.625 150.312C138.205 150.984 137.391 150.549 136.75 150.687C136.623 150.714 135.76 151.407 135.625 151.437C135.254 151.524 134.729 151.385 134.312 151.437L134.125 150.687C133.866 150.837 133.562 151.385 133.375 151.437C132.509 151.685 131.609 152.064 130.75 152.562C130.491 152.712 130.188 153.26 130 153.312C129.524 153.444 129.31 152.75 128.688 152.937C128.792 153.444 128.624 154.299 128.125 154.437C127.626 154.576 126.97 154.179 126.625 154.812C126.051 153.987 125.853 155.394 124.938 155.187V155.937C123.839 155.754 124.349 156.215 124.188 156.5C123.752 157.265 120.959 158.247 120.812 158.75C120.482 159.897 120.025 160.827 119.688 161.937H118.938V162.687C117.711 162.642 117.355 164.439 117.062 165.5C116.834 166.336 114.479 166.524 115.188 168.312C113.68 168.031 114.895 169.37 114.812 169.437L113.312 169.812C114.381 171.072 113.065 171.414 112.938 171.875C112.765 172.501 113.013 173.049 113.312 173.562C113.013 173.604 112.619 173.491 112.375 173.562C112.188 173.619 111.438 174.789 111.438 174.875C111.438 174.969 111.948 175.134 111.812 175.625C111.685 176.086 110.369 176.427 111.438 177.687C110.226 177.567 110.515 178.381 110.312 179C110.23 179.247 109.675 179.589 109.938 180.312H109.188C110.541 182.019 108.235 182.116 108.062 182.75C107.871 183.447 107.83 184.917 107.688 185.75C107.661 185.892 107.312 186.001 107.312 186.125C107.312 186.204 107.894 186.492 107.688 187.062C107.125 186.942 106.915 187.227 106.562 187.625C107.346 188.277 106.896 188.941 106.188 189.5C106.829 189.942 106.401 191.007 106.188 191.75C106.135 191.934 104.946 193.287 104.688 193.625C104.628 193.835 104.939 194.397 105.062 194.75C105.423 195.766 106.247 197.172 106.562 198.125C106.649 198.387 106.48 198.98 106.562 199.062C106.634 199.134 106.949 198.965 107.125 199.062C107.567 199.31 108.066 199.97 108.625 200.187C109.315 200.09 110.249 200.326 110.875 200.187C112.476 199.827 111.73 200.386 112.375 200.562C113.853 200.971 114.423 200.142 115.375 199.812C116.155 199.542 117.303 199.64 117.812 198.875L117.438 198.5C118.424 197.784 119.286 197.341 119.312 196.062C121.435 196.37 122.481 195.331 120.625 193.812C120.141 194.536 120.126 193.857 119.875 193.812C119.478 193.741 118.986 193.857 118.562 193.812L118.938 195.312C118.382 195.106 118.064 195.691 118 195.687C117.936 195.684 117.314 194.964 117.062 195.875C116.969 196.22 117.123 196.779 117.062 197.187C116.275 197.255 115.39 197.09 114.625 197.187C114.49 197.206 113.669 197.889 112.938 197.562C113.129 199.074 112.131 197.937 112 197.937C111.906 197.937 111.741 198.447 111.25 198.312C111.186 198.294 110.403 197.525 110.312 197.375C109.78 196.501 110.305 196.591 109.375 196.062C108.445 195.534 109 193.944 108.062 193.25L108.812 192.125C107.316 191.12 110.312 189.556 110.312 189.125C109.105 187.91 110.909 187.224 110.688 185.937H111.438V185.187C109.469 185.131 111.321 183.856 111.812 183.125C112.251 182.469 113.868 179.345 114.062 178.625C114.108 178.46 113.751 177.661 114.062 176.75C114.134 176.536 114.636 176.431 114.438 175.812H115.188C115.094 174.747 115.109 173.754 116.125 173.187C117.325 172.52 117.074 171.481 117.812 170.375C118.041 170.034 118.877 169.475 118.938 169.25C119.05 168.841 118.825 168.159 118.938 167.75C119.05 167.341 120.857 166.831 121.375 166.437C122.717 165.421 123.261 162.582 124.938 162.312V161.187L126.438 160.812C126.381 160.209 126.37 159.11 127 158.937C127.476 158.806 127.69 159.5 128.312 159.312C127.923 158.349 128.961 157.966 129.062 157.625C129.141 157.355 128.984 156.77 129.062 156.687C129.115 156.631 130.51 156.369 130.562 156.312C130.611 156.264 130.518 155.352 131.125 155.187C132.239 154.88 132.775 155.42 134.125 154.437C134.924 153.856 135.333 152.637 136.562 152.937L137.5 155.187C137.785 155.375 137.838 153.301 138.625 153.687C139.116 153.931 139.285 154.767 140.312 154.437C140.162 155.529 140.496 155.03 140.875 155.187C141.033 155.255 141.111 155.525 141.25 155.562L142 155.187C143.178 156.226 143.271 157.854 145.188 157.437L145.562 156.125C144.959 155.664 145.412 154.887 144.625 154.437C144.449 154.336 144.134 154.509 144.062 154.437C143.984 154.359 144.141 153.774 144.062 153.5C144.006 153.309 143.485 153.177 143.688 152.562C142.799 152.735 142.326 152.015 141.438 152.187V151.437ZM144.812 163.812C144.741 163.741 144.91 163.426 144.812 163.25C144.021 161.832 142.956 162.575 142 162.312C141.044 162.05 141.888 160.332 140.875 159.687C140.571 159.492 139.653 159.132 139.375 158.937C138.981 158.66 138.625 158.037 138.25 157.812C138.167 157.764 137.991 157.865 137.875 157.812C137.425 157.606 137.222 157.239 136.375 157.437C136.15 157.49 135.16 157.974 134.875 158.187L134.125 157.812C133.934 157.865 133.289 158.881 133.188 159.125C133.101 159.327 133.251 159.624 133.188 159.687C133.116 159.759 132.801 159.59 132.625 159.687C131.879 160.104 132.04 161.611 130.562 161.187V162.312C129.539 162.181 129.498 163.955 127.938 163.812V164.562H127.188L127.562 166.062C126.486 165.792 127.041 166.651 126.25 167.187C125.5 166.25 125.429 167.934 124.75 168.312C124.574 168.41 124.259 168.241 124.188 168.312C124.079 168.421 124.278 169.587 124.188 170C124.097 170.412 123.205 171.072 123.438 171.875C123.565 172.317 124.562 172.317 123.812 173.187H124.938C125.178 174.144 124.544 174.365 124.188 175.062H124.938C124.994 175.602 124.851 176.236 124.938 176.75C124.96 176.892 125.312 177.001 125.312 177.125C125.312 177.219 124.803 177.384 124.938 177.875C124.975 178.014 125.5 178.284 125.312 178.437L122.688 179.187C122.744 179.727 122.601 180.361 122.688 180.875C122.71 181.017 123.062 181.126 123.062 181.25C123.062 181.374 122.71 181.482 122.688 181.625C122.616 182.045 122.785 183.215 122.688 183.312C122.639 183.361 121.746 183.26 121.562 183.875C121.131 185.33 122.688 184.449 122.312 185.375C122.211 185.622 121.653 186.26 121.562 186.5C121.446 186.807 121.761 187.325 121.188 187.625C121.833 188.319 122.706 188.682 123.625 188.562L124.75 190.062C126.539 188.416 127.06 191.63 128.125 191.937C128.357 192.005 128.643 191.87 128.875 191.937C129.46 192.106 129.996 193.865 129.812 194.562H130.562C130.304 195.792 131.065 196.392 131.688 197.375L131.312 197.937C132.509 197.956 133.015 199.025 132.812 200.187C133.232 200.139 133.743 200.266 134.125 200.187C134.26 200.161 134.339 199.88 134.5 199.812C134.702 199.73 134.999 199.876 135.062 199.812C135.175 199.7 134.755 198.215 136.375 199.437C136.96 199.051 136.915 198.309 137.5 197.937C137.579 197.889 137.763 197.994 137.875 197.937C138.036 197.855 138.115 197.6 138.25 197.562C138.745 197.427 138.85 197.904 139 197.937C140.11 198.185 142.105 197.656 143.125 197.937C143.331 197.994 143.665 198.627 143.875 198.687C144.107 198.755 144.393 198.62 144.625 198.687C144.921 198.774 145.716 199.929 146.125 200.187C146.643 200.401 146.965 199.516 147.25 199.437C147.786 199.291 148.473 199.452 149.125 199.062C149.699 198.721 149.984 197.731 150.812 197.937V198.5C150.812 198.819 151.555 198.744 151.75 198.687C152.496 198.466 152.316 197.082 152.312 196.437C152.849 196.497 153.497 196.344 154 196.437C154.139 196.464 154.221 196.767 154.375 196.812C155.11 197.034 155.361 196.471 155.5 196.437C156.869 196.119 157.232 197.195 158.125 197.937C159.31 198.924 159.22 199.595 159.438 199.812C159.509 199.884 159.824 199.711 160 199.812C160.72 200.221 160.435 200.682 160.562 201.125C160.622 201.335 161.256 201.669 161.312 201.875C161.444 202.351 161.226 203.18 161.312 203.75C161.331 203.889 161.654 203.975 161.688 204.125C161.86 204.867 161.402 205.936 161.312 206.375C161.256 206.649 161.346 207.009 161.312 207.312C162.077 207.207 162.783 207.56 163.375 208.062L164.688 207.687V208.437C164.777 208.527 166.739 208.707 167.125 208.812C167.324 208.869 168.231 210.582 169.375 211.062C169.577 211.149 169.87 210.995 169.938 211.062V212.562H169.188V213.312H169.938V214.062C171.018 213.927 170.534 214.201 170.688 214.625C170.747 214.786 171.062 214.88 171.062 215C171.062 215.124 170.71 215.232 170.688 215.375C170.613 215.836 170.796 216.477 170.688 216.875C170.601 217.19 169.54 217.617 169.938 218.562L172.188 217.812V218.562C172.596 218.476 174.711 219.211 174.812 219.312C174.884 219.384 174.711 219.699 174.812 219.875C175.334 220.79 176.564 220.314 176.688 220.437C176.755 220.505 176.601 220.797 176.688 221C176.755 221.157 177.025 221.236 177.062 221.375C177.168 221.75 176.065 222.98 177.062 223.625L176.688 224L177.438 224.75C176.571 225.984 175.548 226.989 177.062 228.125C176.567 228.447 176.669 228.879 176.688 229.437H175.562L175.938 230.375C175.705 230.971 174.861 230.889 174.812 230.937C174.745 231.005 174.576 232.381 174.062 232.625L175.75 234.312C176.331 234.391 177.1 234.196 177.625 234.312C178.836 234.582 179.504 234.061 180.625 234.312C180.768 234.346 180.85 234.646 181 234.687C181.495 234.822 181.604 234.342 181.75 234.312C182.095 234.241 182.567 234.399 182.875 234.312C183.137 234.241 183.73 233.266 184 233.187C184.379 233.079 185.084 233.69 186.625 232.812C186.921 232.644 187.521 231.657 187.938 232.062C188.024 232.145 187.731 232.831 188.125 232.812C188.485 232.186 189.1 232.561 189.625 232.437C189.764 232.404 189.839 232.13 190 232.062C190.202 231.98 190.499 232.126 190.562 232.062C190.611 232.014 190.529 231.17 191.125 230.937C191.706 231.774 192.235 230.705 193.188 230.937L192.25 229.437L191.5 230.187C190.518 229.565 189.918 228.804 188.688 229.062V228.312C186.554 228.905 186.91 226.726 185.875 226.062C185.504 225.826 184.709 225.627 184.188 225.687L184.562 225.125C184.33 224.529 183.486 224.611 183.438 224.562C183.359 224.484 183.516 223.895 183.438 223.625C183.359 223.355 182.043 222.605 181.75 222.687L180.625 223.437C179.924 222.882 180.006 221.757 178.938 221.937C179.069 220.696 178.713 219.672 178.188 218.562H179.312L178.938 218L179.312 217.625L178.938 216.687C179.901 216.95 180.715 217.201 181.75 217.062L182.875 218.562H186.062L185.688 219.687C186.786 219.504 186.276 219.965 186.438 220.25C186.768 220.831 187.308 220.887 187.938 220.812C187.757 222.455 188.091 221.705 188.875 221.937C189.707 222.185 190.817 224.139 192.438 223.437V224.187C193.926 223.929 195.621 225.106 196.75 225.312C197.688 225.485 198.46 225.346 199 224.562C199.735 224.934 200.489 225.905 201.25 225.687C201.52 225.609 202.109 224.637 202.375 224.562C202.919 224.409 203.586 224.84 204.062 224L202.375 222.687C201.603 222.642 201.13 221.686 200.5 221.187C199.098 221.949 199.379 221.232 198.625 220.812C198.449 220.715 198.134 220.884 198.062 220.812C197.991 220.741 198.16 220.426 198.062 220.25C197.826 219.822 197.061 219.069 196.75 218.562L196.562 219.312C195.186 219.474 194.024 219.106 193.188 218C193.12 217.91 193.244 217.689 193.188 217.625C192.974 217.381 191.988 216.342 191.875 216.312C191.312 216.159 189.228 216.477 189.062 216.312C188.995 216.245 188.853 215.075 188.125 214.812C187.533 215.649 187.007 214.572 186.062 214.812V213.687C184.964 213.871 185.474 213.41 185.312 213.125C184.93 212.454 184.086 212.292 183.625 212.937L182.5 212.187L182.125 212.562C181.266 211.94 181.821 210.549 180.438 210.687V208.437C181.3 209.06 181.484 208.797 182.125 208.062L184 209.187C185.238 208.565 186.46 209.772 187.75 209.937C188.515 210.035 189.4 209.87 190.188 209.937C189.989 211.449 190.379 210.856 190.75 211.062C191.099 211.257 191.628 212.12 191.875 212.187C192.194 212.274 192.681 212.101 193 212.187C193.195 212.24 194.699 213.567 195.25 213.687C195.801 213.807 197.552 213.552 197.688 213.687V215.187C198.509 215.067 199.259 214.572 200.125 214.812C200.808 215 200.567 216.5 201.25 216.687C201.745 216.822 202.581 216.571 203.125 216.687C203.537 216.777 204.505 217.779 204.625 217.812C205.06 217.932 206.039 216.74 206.875 218.187L208 217.062H208.375C208.566 217.542 209.271 217.396 209.312 217.437C209.384 217.509 209.211 217.824 209.312 218C209.493 218.319 210.689 219.027 211 218.937C211.244 218.424 212.62 218.255 212.688 218.187C212.789 218.086 212.594 217.216 212.688 216.875C212.781 216.534 213.715 216.271 213.438 215.562H214.562C214.87 215.255 213.812 213.972 213.812 213.875C213.812 213.747 214.161 213.646 214.188 213.5C214.259 213.102 214.143 212.611 214.188 212.187C213.572 211.985 213.438 212.51 213.25 212.562C212.89 212.66 212.129 211.966 211.938 211.625C211.84 211.449 212.009 211.134 211.938 211.062C211.761 210.886 209.361 211.231 208.75 211.062C208.544 211.006 208.21 210.372 208 210.312C207.179 210.076 206.024 210.117 205.375 209.937C204.857 209.795 204.231 208.929 204.062 208.625C203.44 207.507 202.158 207.639 201.25 207.312C201.029 207.234 200.931 206.739 200.312 206.937V206.187H199.188L199.562 205.062C198.494 205.242 198.576 204.117 197.875 203.562C197.481 203.454 196.908 204.211 196.188 203.937C196.371 202.835 195.918 203.349 195.625 203.187C194.785 202.719 194.537 201.852 194.688 200.937L193.188 201.687L192.625 200.562L191.688 201.312L192.062 199.625C191.819 199.441 191.114 198.155 191.312 197.937C191.59 197.637 192.411 198.376 192.625 198.687C193.878 197.87 195.156 199.482 196.375 199.812C196.806 199.929 198.003 198.744 199 200.562L199.75 200.187C200.346 200.42 200.264 201.264 200.312 201.312C200.433 201.432 202.881 201.519 203.5 201.687C203.688 201.74 203.991 202.295 204.25 202.437C204.426 202.535 204.741 202.366 204.812 202.437C204.865 202.49 204.955 203.195 205.188 203.75C205.27 203.952 205.124 204.249 205.188 204.312C205.259 204.384 205.574 204.215 205.75 204.312C206.009 204.455 206.312 205.01 206.5 205.062C207.314 205.287 208.544 204.661 209.125 205.437L211 205.812L211.562 206.375L211.188 206.937C212.898 206.817 213.88 208.43 215.688 208.062C215.541 209.634 216.681 208.471 217.375 207.687C218.031 208.205 219.16 208.497 219.062 209.562C219.812 209.562 220.851 208.137 221.125 208.062C221.444 207.976 221.931 208.149 222.25 208.062C223.008 207.852 222.693 206.814 222.812 206.375C222.887 206.101 224.226 205.482 224.688 204.875C225.314 204.042 225.693 202.235 226 202.062C226.176 201.965 226.491 202.134 226.562 202.062V200.937C225.955 200.945 225.291 200.559 224.875 200.187C223.42 201.072 223.503 199.242 222.625 198.687C222.254 198.455 221.481 198.519 221.688 197.562H220.562L220.75 198.312L219.062 198.687L218.688 197.187C217.975 197.296 217.454 196.775 217.562 196.062C216.955 195.856 216.794 196.4 216.625 196.437C215.275 196.745 215.129 195.796 214.75 195.687C214.491 195.612 213.438 195.657 213.438 195.125C213.438 195.031 213.947 194.866 213.812 194.375C213.452 193.074 210.827 193.475 209.688 193.437C210.006 192.339 208.716 192.575 208 192.312C207.779 192.23 207.681 191.739 207.062 191.937C207.051 191.262 206.646 190.535 206.125 190.062C205.375 189.849 205.169 190.389 205 190.437C204.111 190.681 204.122 189.372 204.062 189.312C203.916 189.166 202 188.69 201.625 188.562C199.743 187.932 200.012 187.696 198.625 186.687C197.684 186.001 196.765 185.9 195.625 185.562C194.714 185.292 193.251 181.977 191.688 182.187V181.437C190.769 181.452 189.171 181.119 188.5 180.687C187.754 180.211 188.35 179.971 187.375 179.562C186.497 179.195 179.957 174.609 179.688 174.125C179.59 173.949 179.759 173.634 179.688 173.562C178.945 173.367 178.81 174.132 178.188 174.312C178.049 173.214 177.546 172.164 176.312 172.437L177.062 174.125C176.009 174.762 176.609 176.311 175.188 176.187V176.937H174.438V177.687H173.688C173.871 178.456 173.53 178.651 172.75 178.437C172.6 178.396 172.525 178.104 172.375 178.062C171.887 177.927 171.835 178.351 171.625 178.437C171.415 178.524 171.13 178.37 171.062 178.437C170.991 178.509 171.164 178.824 171.062 179C170.5 179.99 169.42 179.345 168.625 179.562C168.291 179.656 167.721 180.789 166.562 180.312C166.604 181.01 165.985 181.374 166.188 182.187H164.688V183.312C164.129 183.331 163.698 183.432 163.375 182.937C163.086 182.937 162.325 184.452 162.438 184.812C161.526 184.07 161.496 184.7 161.125 184.812C160.585 184.977 160.098 184.745 159.625 185.562C158.815 184.677 156.929 186.616 155.875 186.312C155.005 186.065 154.787 186.496 154 186.312C153.059 186.091 151.848 185.982 151 185.562L149.5 186.312C149.196 185.611 147.61 186.11 147.438 185.937C147.366 185.866 147.539 185.551 147.438 185.375C146.909 184.445 146.054 185 145.375 184.812C145.041 184.719 144.471 183.586 143.312 184.062C143.515 183.447 142.998 183.32 142.938 183.125C142.791 182.634 143.2 181.97 142.562 181.625C143.039 180.601 142.855 180.819 142.562 180.125C142.476 179.922 142.63 179.63 142.562 179.562C142.491 179.491 141.482 179.829 141.812 179C142.143 178.171 143.935 178.062 143.688 176.937H144.438C144.254 175.835 144.708 176.349 145 176.187C146.103 175.572 147.34 172.85 148.75 172.062C149.939 171.399 149.357 171.204 149.688 170C149.785 169.647 151.277 168.635 151.562 168.125C151.66 167.949 151.491 167.634 151.562 167.562C151.634 167.491 153.224 167.401 153.438 167.187C153.509 167.116 153.34 166.801 153.438 166.625C153.644 166.254 154.401 165.841 154.562 165.5C154.964 164.645 153.636 165.016 153.25 164.937C153.107 164.907 153.021 164.596 152.875 164.562C151.536 164.247 151.379 165.204 151 165.312C150.048 165.586 149.819 164.649 149.5 164.562C148.787 164.367 147.306 163.887 146.875 163.812C146.399 163.726 144.925 163.925 144.812 163.812ZM142.938 202.812C142.859 202.734 142.27 202.891 142 202.812C141.516 202.67 141.351 201.444 140.875 201.312C139.364 200.9 138.565 201.811 138.438 203.187C137.624 202.707 136.176 203.937 136 203.937C135.917 203.937 135.632 203.356 135.062 203.562C135.261 205.074 134.871 204.481 134.5 204.687C133.739 205.111 133.064 206.465 133.188 207.312H132.438V208.062H130.938C131.627 209.075 130.9 210.162 132.062 210.875C131.624 211.032 131.853 211.666 132.062 212C132.752 213.095 133.81 212.724 134.5 213.687H134.875C135.34 213.099 136.15 212.585 136.562 212C136.78 211.689 136.72 210.834 137.688 211.062V210.312H138.438V209.562H139.188C139.229 207.71 140.612 207.511 141.062 206C141.246 205.385 142.139 205.486 142.188 205.437C142.259 205.366 142.09 205.051 142.188 204.875C142.33 204.616 142.885 204.312 142.938 204.125C142.994 203.915 142.982 202.857 142.938 202.812ZM153.812 207.687C154.75 207.792 155.012 207.027 155.312 206.375C155.384 206.221 155.628 206.146 155.688 206C155.77 205.79 155.613 205.482 155.688 205.25C155.755 205.047 156.276 204.871 156.062 204.125L154 202.812C153.291 202.599 152.729 203.446 151.938 203.187V203.937C150.951 203.487 149.924 204.939 149.5 205.062C149.23 205.141 148.641 204.984 148.562 205.062C148.484 205.141 148.641 205.73 148.562 206C148.353 206.705 147.036 207.144 146.312 206.937L146.688 207.687C146.181 207.654 144.914 208.261 144.812 208.625C144.719 208.966 144.914 209.836 144.812 209.937C144.741 210.009 144.426 209.84 144.25 209.937C144.074 210.035 142.562 211.505 142.562 211.625C142.562 211.719 143.125 212.034 142.938 212.187H141.812V212.937L141.062 212.562C141.269 213.166 140.721 213.342 140.688 213.5C140.616 213.856 140.778 214.722 140.688 214.812C140.616 214.884 140.301 214.715 140.125 214.812C139.772 215.007 139.259 215.862 139 215.937C138.741 216.012 138.141 215.859 138.062 215.937C137.984 216.016 138.141 216.601 138.062 216.875C138.006 217.066 137.485 217.197 137.688 217.812C138.79 217.629 138.276 218.082 138.438 218.375C138.873 219.159 139.551 219.342 139.188 220.812H139.938C139.589 222.571 140.624 221.469 141.438 222.5L141.062 223.25C142.465 225.174 142.803 223.64 143.5 223.437C143.77 223.359 144.359 223.516 144.438 223.437C144.528 223.347 144.528 221.427 145.375 221.187C145.607 221.12 145.893 221.255 146.125 221.187C146.455 221.094 146.729 220.164 147.438 220.437V218.187C148.371 218.487 148.686 216.781 148.938 215.937C150.134 216.057 149.429 215.116 150.625 214.437C151.457 213.961 151.371 211.629 151.562 211.437C151.634 211.366 151.949 211.539 152.125 211.437C152.976 210.954 152.418 209.375 153.812 209.562V207.687ZM165.062 212.937C164.448 213.14 164.324 212.622 164.125 212.562C163.394 212.341 163.109 212.919 163 212.937C162.205 213.084 161.886 213.102 161.125 213.312C160.649 213.444 160.435 212.75 159.812 212.937C160.42 214.186 158.309 214.617 158.312 215C158.312 215.097 158.823 215.259 158.688 215.75C158.661 215.84 157.465 217.036 157.375 217.062C156.865 217.205 155.088 216.912 154.938 217.062C155.211 217.775 154.619 218.169 154.562 218.375C154.488 218.652 154.641 219.234 154.562 219.312C154.491 219.384 154.176 219.215 154 219.312C153.741 219.459 153.509 219.916 153.25 220.062C153.074 220.16 152.759 219.991 152.688 220.062C152.586 220.164 152.781 221.034 152.688 221.375C152.631 221.581 151.994 221.919 151.938 222.125C151.817 222.564 152.016 223.299 151.938 223.812H150.812V224.562L148.938 224.937L149.125 225.687H149.688C149.646 226.516 149.849 227.375 150.062 228.125C150.107 228.282 151.994 229.775 152.125 229.812C152.684 229.974 153.145 229.752 153.625 230.562L154.75 229.812L156.25 230.562L157.938 228.875C156.94 227.067 158.418 227.457 158.688 227.187C158.766 227.109 159.378 225.616 159.438 225.312H160.188V221.562C161.118 221.705 161.549 220.527 162.25 220.062C162.404 219.961 163.221 219.789 163.375 219.687C163.72 219.462 164.271 218.626 164.5 218.562C165.074 218.405 166.082 218.675 166.75 218.562C166.896 218.536 167.088 217.981 167.688 218.187C168.111 217.749 166.611 216.297 166.562 216.125C166.495 215.892 166.63 215.607 166.562 215.375C166.394 214.786 164.688 214.186 164.688 213.875L165.062 212.937ZM172.938 221.937C171.989 221.54 171.569 222.601 171.25 222.687C170.327 222.942 169.851 222.459 169.375 222.312C168.955 222.185 167.309 222.86 166.75 223.062C166.473 223.16 166.169 223.692 165.438 223.437C166.052 224.322 165.756 225.369 165.812 226.437L164.688 225.687V226.437L163.188 226.812C163.232 227.236 163.116 227.727 163.188 228.125C163.217 228.305 163.533 229.07 163.562 229.25C163.607 229.516 163.607 230.517 163.562 230.562C163.409 230.716 161.699 230.124 162.062 232.25C162.089 232.392 162.438 232.501 162.438 232.625C162.438 232.711 161.688 233.881 161.5 233.937C161.256 234.009 160.863 233.896 160.562 233.937L160.938 234.875L160.562 235.625L161.125 236.187C162.257 235.505 162.171 236.439 162.625 236.562C163.03 236.675 163.686 236.465 164.125 236.562C164.268 236.596 164.35 236.896 164.5 236.937C165.036 237.087 165.584 236.349 165.438 235.812H167.312C167.556 235.025 166.735 234.436 166.938 233.75C167.035 233.416 167.68 233.067 168.062 233.187L167.312 231.5C167.957 230.465 169.266 231.174 170.125 230.937C170.582 230.81 170.868 229.711 171.062 229.25C171.198 228.927 171.674 228.676 171.438 227.937H172.188C171.798 226.389 173.65 225.061 173.312 223.625C173.279 223.479 172.967 223.392 172.938 223.25C172.859 222.864 172.986 222.357 172.938 221.937Z" fill="#D1338A"/>
<path d="M211.188 157.437C211.195 157.419 211.499 157.505 211.562 157.25C211.652 156.886 211.506 156.35 211.562 155.937H210.812V155.187C209.463 155.244 209.837 154.37 209.688 153.5C209.661 153.357 209.312 153.249 209.312 153.125C209.312 153.001 209.627 152.911 209.688 152.75C209.762 152.54 209.624 152.251 209.688 152.187C209.759 152.116 210.074 152.285 210.25 152.187C211.266 151.621 211.266 149.799 212.125 149.562C212.582 149.435 214.052 149.697 214.188 149.562V148.812H216.438C216.235 147.999 216.854 147.635 216.812 146.937C218.59 147.054 219.464 145.591 220.375 144.312C220.698 144.807 221.129 144.706 221.688 144.687C221.331 143.521 222.434 143.304 222.812 142.625C222.91 142.449 222.741 142.134 222.812 142.062C222.948 141.927 224.417 142.19 224.875 142.062C225.047 142.014 227.597 140.154 227.688 140C227.894 139.636 227.301 139.235 228.812 139.437V138.687C229.371 138.706 229.802 138.807 230.125 138.312L230.875 138.687C230.984 138.744 231.167 138.639 231.25 138.687C231.753 138.991 232.679 139.989 232.562 140.562H234.062C234.254 141.32 234.396 141.755 234.438 142.625C234.501 143.994 235.3 142.749 235.75 142.437C237.28 141.376 239.462 140.251 240.438 138.5C240.535 138.324 240.366 138.009 240.438 137.937C240.501 137.874 240.798 138.024 241 137.937C241.54 137.712 242.335 137.037 242.875 136.812C243.077 136.726 243.374 136.876 243.438 136.812V135.312C244.026 135.327 244.649 134.967 245.125 134.562L247 134.937L247.938 133.625C247.514 133.197 247.049 132.957 247.188 132.312C248.283 132.792 248.95 131 249.625 131.187C249.955 131.277 250.502 131.855 251.312 131.562V130.812C251.489 130.636 253.889 130.981 254.5 130.812C254.763 130.741 255.355 129.766 255.625 129.687C255.857 129.62 256.143 129.755 256.375 129.687C256.585 129.627 256.919 128.994 257.125 128.937C259.33 128.33 260.042 130.565 261.438 131.75C260.853 131.994 261.156 132.969 261.062 133.062C260.984 133.141 260.395 132.984 260.125 133.062C259.506 133.246 259.037 134.817 258.625 134.937L256.188 134.187L256.562 135.312H255.438C255.64 135.927 255.119 136.059 255.062 136.25C254.984 136.524 255.141 137.109 255.062 137.187C254.999 137.251 254.71 137.112 254.5 137.187C254.339 137.247 254.245 137.562 254.125 137.562C254.001 137.562 253.896 137.214 253.75 137.187C253.353 137.116 252.861 137.232 252.438 137.187V138.312C251.568 137.63 251.717 138.357 251.125 138.687C250.754 138.894 250.364 138.301 250.562 139.812H249.812V140.937H247.562C247.375 141.091 247.938 141.406 247.938 141.5C247.938 141.609 246.812 142.831 246.625 143.187C245.901 142.31 245.02 143.112 244.188 143.187C244.39 143.802 243.869 143.934 243.812 144.125C243.734 144.399 243.891 144.984 243.812 145.062C243.741 145.134 243.426 144.965 243.25 145.062C242.643 145.4 242.556 146.784 241.75 146.562C241.416 146.469 240.827 145.332 239.688 145.812L240.438 147.312H238.938C239.136 148.404 238.765 148.764 238.188 149.562C238.698 149.514 240.696 150.841 240.812 151.25C240.88 151.482 240.745 151.767 240.812 152C240.872 152.21 241.506 152.544 241.562 152.75C241.649 153.057 241.491 153.53 241.562 153.875C241.592 154.021 242.072 154.13 241.938 154.625C241.896 154.775 241.596 154.854 241.562 155C241.142 156.819 242.894 156.635 243.062 157.25C243.156 157.591 242.961 158.461 243.062 158.562C243.134 158.634 243.449 158.461 243.625 158.562C244.202 158.892 243.869 159.196 244.75 159.687C245.695 160.212 245.969 160.824 246.625 161.187C247.844 161.866 248.001 163.441 246.438 163.437V163.625C246.869 164.24 247.99 164.922 248.312 165.5C248.519 165.871 247.926 166.261 249.438 166.062C248.785 167 248.099 169.156 249.25 169.812C249.426 169.914 249.741 169.741 249.812 169.812C249.884 169.884 249.715 170.199 249.812 170.375C250.195 171.065 251.268 171.545 250.188 172.625C250.562 173.352 251.755 173.574 252.062 174.125C252.434 174.789 252.434 174.586 252.812 175.25C253.191 175.914 253.889 175.764 253.938 175.812C254.061 175.936 253.585 177.166 254.5 177.687C254.732 177.819 255.396 177.421 255.062 178.625C255.021 178.771 254.736 178.85 254.688 179C254.474 179.69 255.254 180.155 255.062 180.875C255.475 181.452 255.865 181.524 256.562 181.437V182.187C257.519 181.951 257.721 182.566 258.438 182.937C258.261 182.064 259.364 181.936 259.188 181.062H261.438C261.374 179.825 262.96 179.461 264.062 179.562V178.812C264.693 178.959 265.251 178.272 265.75 178.062C266.838 177.609 266.106 177.519 266.312 177.312C266.414 177.211 267.696 177.024 268 176.937C269.02 176.645 269.039 174.864 268.938 173.937C269.954 173.772 270.704 174.125 271.562 174.312C271.735 173.116 272.71 171.909 273.625 170.937H274C275.118 172.302 275.988 169.989 276.625 169.812C276.899 169.737 278.598 169.737 278.875 169.812C279.738 170.045 279.374 172.062 279.438 172.812H278.688L278.312 174.312C277.3 174.091 276.625 175.066 275.688 175.062V177.687H274.938C275.076 178.992 273.224 179.165 272.688 180.125C272.59 180.301 272.759 180.616 272.688 180.687C272.616 180.759 272.301 180.59 272.125 180.687C271.799 180.871 271.071 181.715 270.625 181.812C269.29 182.101 269.312 182.034 268 182.562C267.445 182.784 266.935 183.035 266.312 182.937L266.688 183.687H265.938C266.05 184.887 265.27 184.617 264.625 184.812C264.1 184.97 264.16 185.382 263.125 184.812C262.739 185.086 262.364 185.735 262 185.937C261.708 186.099 261.254 185.585 261.438 186.687L260.312 186.312C260.38 187.306 259.986 188.337 260.875 188.937L261.438 188.562C261.37 189.549 261.659 190.636 262.188 191.375C262.03 191.622 261.486 191.945 261.438 192.125C261.303 192.616 261.812 192.781 261.812 192.875C261.812 193.021 261.126 193.415 261.062 193.625C260.984 193.895 261.141 194.484 261.062 194.562C260.961 194.664 260.091 194.469 259.75 194.562C259.664 194.585 258.531 195.181 258.25 195.312C256.446 196.16 256.491 195.545 256 195.687C255.618 195.796 255.475 196.745 254.125 196.437C253.99 196.407 253.911 196.13 253.75 196.062C252.932 195.721 253.255 196.745 253.188 196.812C253.15 196.85 252.34 197.161 252.25 197.187C251.976 197.266 251.391 197.109 251.312 197.187C251.241 197.259 251.41 197.574 251.312 197.75C251.222 197.911 250.09 199.036 250 199.062C249.119 199.306 247.75 198.98 247 198.687L245.125 200.562C243.49 199.422 241.21 199.902 239.125 199.812C238.862 199.164 237.647 198.192 237.438 197.75C237.062 196.955 238.135 197.247 238.375 197.187C238.63 197.124 238.544 196.824 238.562 196.812C238.626 196.767 239.001 196.869 238.938 196.437C239.466 196.509 240.149 196.332 240.625 196.437C240.775 196.471 240.88 196.947 241.375 196.812C241.69 196.726 242.56 195.399 242.875 195.312C243.565 195.121 244.72 195.301 245.312 195.687V194.937C245.447 194.802 246.917 195.065 247.375 194.937C247.776 194.829 248.463 193.554 250 193.062C251.414 192.609 253.202 191.379 254.5 191.937L255.812 191C255.228 190.359 254.875 189.871 253.938 190.062L254.312 188.562L253.375 188.937C253.176 188.881 252.55 187.884 252.438 187.625C252.344 187.415 252.528 187.085 252.438 186.875C251.684 185.146 249.606 185.232 250.562 183.5C249.528 182.746 249.43 181.509 249.062 180.5C248.586 179.187 248.065 179.69 247.938 179.562C247.795 179.42 247.465 177.774 247.562 177.312H246.812C246.756 176.896 246.899 176.367 246.812 176C246.572 174.972 246.873 174.71 246.812 174.5C246.752 174.29 246.126 173.96 246.062 173.75C245.984 173.48 246.141 172.891 246.062 172.812C246.002 172.752 244.784 172.996 244.562 172.25C244.33 171.466 245.08 171.132 243.438 171.312C243.452 170.724 243.092 170.101 242.688 169.625L243.438 169.062C242.001 169.13 242.504 168.072 242.312 167.375C242.245 167.127 241.247 165.451 241 165.312C240.824 165.211 240.509 165.384 240.438 165.312C240.321 165.196 240.179 163.482 238.75 162.687C238.574 162.59 238.259 162.759 238.188 162.687C238.094 162.594 238.27 161.724 238.188 161.375C238.131 161.135 237.321 160.876 238.188 160.25C237.741 159.935 237.291 159.17 236.875 158.937C236.699 158.84 236.384 159.009 236.312 158.937C236.271 158.896 236.417 158.191 235.938 158L236.688 156.875L236.312 156.5L236.688 155.75C235.855 154.861 235.394 154.171 234.062 154.437C234.029 153.384 232.971 152.491 232.938 151.437H233.688V150.687H232.938C233.395 148.936 231.569 149.319 231.438 149.187C231.359 149.109 231.516 148.524 231.438 148.25C231.062 146.952 230.388 147.387 230.312 147.312C229.99 146.99 230.035 145.426 229.938 144.875C229.911 144.729 229.356 144.537 229.562 143.937H228.438V144.687H227.688L227.312 146.937L226.375 146.187C225.843 146.799 225.201 146.244 225.438 147.312H224.312V148.062H223.562V148.812L222.438 148.437V149.562L220.938 149.187C220.964 149.577 221.279 149.446 221.125 149.937C220.874 150.744 220.203 151.216 219.625 151.812L219.438 151.062L218.5 150.687C217.769 150.957 218.001 152.124 217.938 152.187C217.866 152.259 217.551 152.09 217.375 152.187C217.116 152.33 216.816 152.881 216.625 152.937C216.239 153.046 215.62 152.281 214.938 152.562C215.14 153.177 214.619 153.305 214.562 153.5C214.285 154.449 215.215 154.666 215.312 155C215.391 155.27 215.234 155.859 215.312 155.937C215.384 156.009 215.699 155.84 215.875 155.937C216.25 156.147 216.625 156.852 217 157.062C217.176 157.16 217.491 156.991 217.562 157.062C217.682 157.182 217.454 158.349 217.562 158.75C217.589 158.84 218.714 159.972 218.875 160.062C219.051 160.16 219.366 159.991 219.438 160.062C219.531 160.156 219.359 161.022 219.438 161.375C219.471 161.517 220.094 162.275 220.188 162.5C220.274 162.702 220.124 162.999 220.188 163.062C220.24 163.115 221.219 163.269 221.5 163.437C223.356 164.57 222.505 165.575 222.812 167C222.91 167.446 223.754 168.174 223.938 168.5C224.035 168.676 223.866 168.991 223.938 169.062C223.986 169.111 224.62 168.931 225.062 169.625C225.76 170.716 224.95 171.117 225.062 171.5C225.096 171.612 226.004 172.565 226.188 173C226.54 173.844 226.78 173.352 227.312 174.5C227.845 175.647 228.351 176.514 228.812 177.5C228.869 177.616 228.764 177.8 228.812 177.875C229.416 178.82 230.163 178.242 230.875 178.437C231.452 178.599 232 180.369 231.812 181.062H232.562C232.39 181.951 233.11 182.424 232.938 183.312L234.438 183.687C234.587 183.841 234.295 185.611 234.438 186.125C234.471 186.249 235.472 187.212 235.562 187.625C235.701 188.266 235.401 189.29 235.562 189.875C235.611 190.051 237.321 191.735 237.438 192.125C237.591 192.642 237.67 193.467 237.812 194C237.854 194.154 238.188 194.251 238.188 194.375C238.188 194.499 237.869 194.589 237.812 194.75C237.737 194.96 237.876 195.245 237.812 195.312C237.715 195.417 236.913 195.016 237.062 195.687C237.434 195.699 237.816 195.669 238.188 195.687V196.062C238.165 196.182 238.218 196.321 238.188 196.437H237.625L237.438 196.812C237.175 196.831 236.673 196.955 236.688 196.625V196.062C235.892 196.67 235.997 196.115 235.75 196.062C235.461 196.002 234.884 196.134 234.812 196.062C234.734 195.984 234.771 194.626 233.688 194.937V193.437C232.401 193.782 232.949 191.727 232 191.187C231.565 190.94 231.542 191.401 231.062 190.25C231.959 189.061 230.129 188.697 229.938 188C229.851 187.681 230.024 187.194 229.938 186.875C229.776 186.279 228.895 184.726 228.438 184.25L228.812 183.312L227.875 183.687C227.624 183.012 226.619 182.994 226.562 182.937C226.48 182.855 226.649 182.262 226.562 182C226.499 181.812 225.843 181.01 225.812 180.875C225.625 180.005 226.221 179.06 225.25 178.437C225.153 178.374 224.684 178.482 224.5 178.062C223.956 178.167 221.815 177.181 221.688 176.75C221.631 176.555 221.556 175.812 221.875 175.812C222.738 176.015 222.209 175.31 222.812 174.875C222.246 173.9 221.365 173.127 221.312 172.062C221.159 171.875 220.844 172.437 220.75 172.437C220.221 172.434 219.07 170.161 219.438 169.437H218.688C218.924 168.012 217.116 167.484 217.188 166.062H216.438C216.329 164.292 216.07 162.552 214.562 161.375L213.812 159.312C213.524 159.331 213.201 159.132 213.062 159.5C212.781 160.257 212.646 160.415 211.938 160.812V158.562H211.188C211.247 158.229 211.09 157.644 211.188 157.437Z" fill="#D1338A"/>
<path d="M204.062 126.688C203.413 126.691 202.659 127.1 202.187 127.625C202.003 128.266 202.866 129.159 202.562 130.063H201.437L201.812 130.813H200.312V132.313L198.812 131.938V133.063C197.154 132.639 197.567 134.66 196.187 134.563C196.708 135.399 196.896 137.428 195.999 137.938C195.823 138.039 195.508 137.866 195.437 137.938C195.366 138.009 195.279 139.663 194.499 138.688L193.749 139.063L192.624 138.688C192.036 139.213 191.139 139.209 191.312 140.188C191.023 140.476 190.018 139.618 189.812 139.25C189.714 139.074 189.883 138.759 189.812 138.688C189.591 138.466 188.271 138.781 187.937 139.063C187.888 138.643 188.012 138.136 187.937 137.75C187.907 137.604 187.584 137.514 187.562 137.375C187.506 136.989 187.476 135.811 187.562 135.5C187.813 134.581 188.533 135.406 188.874 135.313C189.013 135.275 189.092 135.005 189.249 134.938C189.452 134.851 189.744 135.005 189.812 134.938C189.883 134.866 189.699 133.565 190.562 133.25L190.187 132.875C190.877 132.549 190.854 130.895 190.937 130.813C191.019 130.73 191.601 130.891 191.874 130.813C192.954 130.501 192.756 129.283 194.312 129.313L193.937 128.75C195.429 128.041 195.129 127.179 195.999 126.688C196.633 126.328 196.644 125.458 196.937 125C197.571 124.006 199.464 123.02 200.687 123.313V122.562H202.749L204.812 124.25C204.249 124.558 204.542 125.008 204.437 125.375C204.309 125.818 203.312 125.818 204.062 126.688Z" fill="#D1338A"/>
<path d="M170.31 115.813V116.938C171.9 116.656 172.035 118.014 171.81 119.375C171.634 120.425 171.938 120.028 172.185 120.875C172.433 121.723 171.162 122.263 172.56 123.125L171.81 123.313C171.829 124.46 171.51 125.431 172.56 126.125C172.047 127.033 170.543 128.375 172.185 128.188C172.077 129.256 172.497 130.201 172.935 131.188H171.81L172.185 132.5C171.672 132.74 171.503 134.113 171.435 134.188C171.394 134.233 170.52 134.165 170.31 134.75L171.06 135.125L168.81 136.438C168.93 135.778 168.439 135.208 167.685 135.313L167.873 134.563H168.81V133.063H166.935L167.31 132.125L166.935 131.375C167.228 130.314 167.205 126.62 166.935 125C166.909 124.831 166.59 124.048 166.56 123.875C166.508 123.56 166.827 121.374 166.935 120.875C167.025 120.459 168.023 119.506 168.06 119.375C168.229 118.779 167.393 117.811 167.685 116.75C167.862 116.105 168.69 116.289 168.998 116.188C169.245 116.105 169.587 115.55 170.31 115.813Z" fill="#D1338A"/>
<path d="M144.437 123.312V124.062H145.187C145.071 125.24 146.222 126.316 146.875 126.687C147.689 127.149 147.411 128.09 147.437 128.937H148.187C148.007 130.449 148.574 130.171 149.5 130.437C149.946 130.565 150.209 131.847 150.812 132.125L150.437 132.5C150.306 132.976 151.446 133.835 151.562 134.375C151.709 135.061 151.461 136.066 151.562 136.812C150.925 136.726 150.085 136.94 149.5 136.812C149.054 136.715 148.326 135.871 148 135.687C147.824 135.59 147.509 135.759 147.437 135.687C147.366 135.616 147.535 135.301 147.437 135.125C147.044 134.42 145.926 134.337 146.687 133.437H145.562C145.742 132.822 145.334 132.777 145.187 132.5C144.524 131.229 144.201 131.701 144.062 131.562C143.984 131.484 143.849 130.092 143.125 129.687C142.949 129.59 142.634 129.759 142.562 129.687C142.499 129.624 142.645 129.327 142.562 129.125C142.454 128.859 141.989 128.75 142.187 128C142.225 127.861 142.75 127.591 142.562 127.437H141.812C142.157 126.376 140.072 125.097 139.937 124.625C139.87 124.389 140.009 124.096 139.937 123.875C139.889 123.721 139.589 123.639 139.562 123.5C139.469 122.997 139.622 122.349 139.562 121.812C140.507 121.415 140.935 122.476 141.25 122.562C141.756 122.697 142.626 122.424 143.125 122.562C143.447 122.652 143.729 123.59 144.437 123.312Z" fill="#D1338A"/>
<path d="M238.188 195.688C238.949 195.729 239.035 195.478 238.938 196.438C239.001 196.869 238.626 196.768 238.562 196.813V196.25L238.188 196.063V195.688Z" fill="#D1338A"/>
<path d="M238.188 196.438C238.154 196.576 238.244 196.738 238 196.812C237.812 196.827 237.621 196.798 237.438 196.812L237.625 196.438H238.188Z" fill="#92949D" fill-opacity="0.0745098"/>
<path d="M246.062 183.312L245.875 184.062H245.312V185.75L242.875 188.562H242.5C242.117 188.135 241.506 187.662 241 187.437C240.809 187.351 240.497 187.509 240.25 187.437C239.807 187.31 239.807 186.312 238.937 187.062C239.001 186.234 238.637 184.317 239.5 184.062C239.77 183.984 240.359 184.141 240.437 184.062C240.509 183.991 240.34 183.676 240.437 183.5C240.527 183.339 241.66 182.214 241.75 182.187C242.639 181.944 243.006 182.506 243.25 182.562C243.584 182.641 244.06 182.476 244.375 182.562C244.724 182.656 245.436 183.485 246.062 183.312Z" fill="#D1338A"/>
</svg>
