<svg width="24" height="24" viewBox="0 0 24 24" fill="none" xmlns="http://www.w3.org/2000/svg">
<path d="M16.3774 13.5918H7.62256" stroke="#292929" stroke-width="1.715" stroke-linecap="round" stroke-linejoin="round"/>
<path d="M12 9.21448V17.9693" stroke="#292929" stroke-width="1.715" stroke-linecap="round" stroke-linejoin="round"/>
<path d="M4.041 4.83704C3.61883 4.83704 3.21396 5.00475 2.91544 5.30325C2.61693 5.60178 2.44922 6.00665 2.44922 6.42882V19.959C2.44922 20.3811 2.61693 20.7861 2.91544 21.0846C3.21396 21.383 3.61883 21.5508 4.041 21.5508H19.9589C20.381 21.5508 20.786 21.383 21.0844 21.0846C21.3829 20.7861 21.5506 20.3811 21.5506 19.959V6.42882C21.5506 6.00665 21.3829 5.60178 21.0844 5.30325C20.786 5.00475 20.381 4.83704 19.9589 4.83704H4.041Z" stroke="#292929" stroke-width="1.715" stroke-linecap="round" stroke-linejoin="round"/>
<path d="M6.42871 2.44934V7.2247" stroke="#292929" stroke-width="1.715" stroke-linecap="round" stroke-linejoin="round"/>
<path d="M17.5713 2.44934V7.2247" stroke="#292929" stroke-width="1.715" stroke-linecap="round" stroke-linejoin="round"/>
</svg>
