<svg width="24" height="24" viewBox="0 0 24 24" fill="none" xmlns="http://www.w3.org/2000/svg">
<path d="M6.42773 8.81571V8.01964C6.42773 4.94203 8.92262 2.44714 12.0002 2.44714C15.0778 2.44714 17.5727 4.94203 17.5727 8.01964V8.81571" stroke="#292929" stroke-width="1.71" stroke-linecap="round" stroke-linejoin="round"/>
<path d="M17.5723 15.1843V8.81571H19.9605C20.8398 8.81571 21.5526 9.52855 21.5526 10.4079V13.5921C21.5526 14.4715 20.8398 15.1843 19.9605 15.1843H17.5723Z" stroke="#292929" stroke-width="1.71" stroke-linecap="round" stroke-linejoin="round"/>
<path d="M17.5728 15.1843V16.7764C17.5728 18.2601 16.558 19.507 15.1846 19.8604" stroke="#292929" stroke-width="1.71" stroke-linecap="round" stroke-linejoin="round"/>
<path d="M13.5919 21.5529H10.4076C9.52826 21.5529 8.81543 20.8401 8.81543 19.9607C8.81543 19.0814 9.52826 18.3686 10.4076 18.3686H13.5919C14.4712 18.3686 15.184 19.0814 15.184 19.9607C15.184 20.8401 14.4712 21.5529 13.5919 21.5529Z" stroke="#292929" stroke-width="1.71" stroke-linecap="round" stroke-linejoin="round"/>
<path d="M2.44727 13.5921V10.4079C2.44727 9.52855 3.1601 8.81571 4.03941 8.81571H6.42762V15.1843H4.03941C3.1601 15.1843 2.44727 14.4715 2.44727 13.5921Z" stroke="#292929" stroke-width="1.71" stroke-linecap="round" stroke-linejoin="round"/>
</svg>
