<svg width="33" height="32" viewBox="0 0 33 32" fill="none" xmlns="http://www.w3.org/2000/svg">
<path d="M15.272 21.3067C18.203 21.3067 20.5791 18.9306 20.5791 15.9995C20.5791 13.0685 18.203 10.6924 15.272 10.6924C12.3409 10.6924 9.96484 13.0685 9.96484 15.9995C9.96484 18.9306 12.3409 21.3067 15.272 21.3067Z" stroke="white" stroke-width="2.28" stroke-linecap="round" stroke-linejoin="round"/>
<path d="M15.2695 10.6926V2.20117" stroke="white" stroke-width="2.28" stroke-linecap="round" stroke-linejoin="round"/>
<path d="M9.96267 5.59766C8.04469 6.57542 6.43437 8.06446 5.30973 9.90018C4.18506 11.7359 3.58984 13.8468 3.58984 15.9997C3.58984 18.1525 4.18506 20.2634 5.30973 22.0991C6.43437 23.9349 8.04469 25.4239 9.96267 26.4017V29.7983" stroke="white" stroke-width="2.28" stroke-linecap="round" stroke-linejoin="round"/>
<path d="M29.0714 22.3691H25.5773C23.0416 22.3691 20.6323 21.5366 18.6758 20.0732" stroke="white" stroke-width="2.28" stroke-linecap="round" stroke-linejoin="round"/>
<path d="M26.9484 18.6536V15.9979C26.948 13.9228 26.3946 11.8854 25.3452 10.0953C24.2959 8.30516 22.7883 6.82706 20.9778 5.81312C20.7027 5.65904 20.4221 5.51651 20.1367 5.38574" stroke="white" stroke-width="2.28" stroke-linecap="round" stroke-linejoin="round"/>
<path d="M26.2217 26.084C25.8353 26.4236 25.3373 26.6126 24.8199 26.6126H20.5742V29.7969" stroke="white" stroke-width="2.28" stroke-linecap="round" stroke-linejoin="round"/>
</svg>
