<svg width="32" height="32" viewBox="0 0 32 32" fill="none" xmlns="http://www.w3.org/2000/svg">
<path d="M15.1083 12.6148C14.6776 12.0167 14.3481 11.3472 14.137 10.6327C13.7649 9.37307 13.778 8.03095 14.1746 6.7788C14.5711 5.52667 15.3331 4.42175 16.3625 3.60602C17.392 2.79029 18.6418 2.30105 19.9514 2.20117L18.8152 6.4416C18.6645 7.00391 18.7434 7.60306 19.0345 8.10721C19.3256 8.61137 19.805 8.97925 20.3673 9.12993C20.9297 9.2806 21.5288 9.20171 22.033 8.91064C22.5371 8.61957 22.905 8.14013 23.0557 7.57782L24.1919 3.33739C25.276 4.07871 26.114 5.12733 26.5975 6.34847C27.0811 7.56962 27.1886 8.90752 26.906 10.1902C26.6234 11.4729 25.9636 12.6417 25.0115 13.5465C24.0596 14.4514 22.8587 15.0508 21.5632 15.2678L20.7932 18.1415" stroke="#37B4B4" stroke-width="2.28005" stroke-linecap="round" stroke-linejoin="round"/>
<path d="M3.89844 20.89L7.29043 18.9104L11.3567 13.0378C12.0347 12.0435 13.3353 11.6772 14.4388 12.1698C15.6162 12.6955 16.1928 14.0274 15.7662 15.2365L14.2712 18.1229H21.9951C24.4609 18.1229 26.3367 20.3197 25.9314 22.7329L25.4684 26.4896C25.1479 28.3987 23.4829 29.7979 21.5322 29.7979H3.89844" stroke="#37B4B4" stroke-width="2.28005" stroke-linecap="round" stroke-linejoin="round"/>
</svg>
