<svg width="162" height="162" viewBox="0 0 162 162" fill="none" xmlns="http://www.w3.org/2000/svg">
<path d="M65.8125 65.0147C65.9338 65.4437 66.3671 65.5236 66.7664 65.3394C66.7978 65.5392 66.9085 65.7542 66.9279 65.9471C66.9331 65.9992 66.8266 66.0608 66.8288 66.118C66.8403 66.4822 67.1637 66.616 67.1973 66.9599L67.4673 66.8881L67.5751 67.2932C67.2781 67.3346 67.0363 67.7791 67.1965 68.0445C67.4417 68.3032 67.8096 68.4309 67.835 68.8145L68.7085 68.2931L68.8033 67.8341L69.2802 67.9965L69.6494 67.7537L69.9913 67.952C70.434 67.7244 70.5207 67.2184 71.099 67.2237C71.26 67.2257 71.5622 67.6499 71.8144 67.4672L71.8862 67.7373C72.1925 67.5951 72.378 68.0099 72.7007 67.8099C72.7514 67.7776 72.7524 67.6617 72.7998 67.6389C73.0301 67.5314 73.3652 67.5248 73.6101 67.4235C73.6583 67.4035 73.661 67.2726 73.7092 67.2525C73.9332 67.1597 74.2173 67.1406 74.4519 67.0551L74.5237 67.3251C74.981 67.2339 75.4886 67.7944 75.9503 67.5242C76.0191 67.4842 76.0796 67.2223 76.1485 67.1823C76.5803 66.9301 76.7212 67.1283 77.0306 67.2369C77.4197 67.3735 77.622 67.4657 77.9126 67.2915C78.3131 67.052 78.6661 67.7216 79.069 67.5624L79.1409 67.8325L79.4109 67.7607L79.4828 68.0307L80.2212 67.5452L80.5315 67.8965C81.1239 67.5799 81.5026 67.8783 82.0212 67.7895L82.093 68.0596C82.4582 67.8454 82.5624 68.3295 82.6058 68.357C82.6216 68.3673 82.8645 68.2477 82.9793 68.4023L83.2767 67.8894C83.7994 68.0281 83.6683 68.5082 84.0683 68.6911C84.6599 68.4745 84.9766 68.4206 85.4768 68.8226L85.4495 69.2636C85.6722 69.3779 85.8368 69.5785 86.0794 69.4576C86.1972 70.0798 86.7607 70.2741 87.2803 70.4395C87.5269 70.5186 87.59 70.6796 87.6265 70.9258L88.2658 70.6113L88.4095 71.1514C88.6131 71.0308 88.6615 71.1639 88.783 71.1967C89.2947 71.3324 89.6512 71.281 89.777 71.9445L90.4206 71.9179C91.0833 72.2189 90.961 72.9714 91.2071 73.5162C91.2456 73.6013 91.4935 73.5441 91.2789 73.7862L91.6746 74.1871L92.2148 74.0434L92.3584 74.5836L92.0883 74.6554L92.3038 75.4656C92.4823 75.3704 92.791 75.5197 92.9337 75.6596C93.1346 75.8549 93.1429 76.0985 93.2483 76.2989C93.2737 76.3456 93.5003 76.3822 93.491 76.6681C93.4882 76.7281 93.3881 76.7866 93.3919 76.8391C93.4364 77.3709 93.9184 77.9382 93.5168 78.3963L93.7955 78.9006L93.7502 79.2741L94.0203 79.2022L94.0921 79.4723L94.3622 79.4005L94.6725 79.7518L95.2759 79.3022C95.4404 79.4753 95.5745 79.3268 95.7169 79.3295C95.7982 79.331 95.9791 79.5272 96.0588 79.5277C96.2561 79.5302 96.8682 79.2547 96.9365 79.2943L97.0083 79.5644L97.31 79.3396L97.6519 79.5379L97.8186 79.349L97.8904 79.6191C98.3716 79.3407 98.6554 79.8263 99.1101 79.5839C99.1608 79.5574 99.1614 79.4344 99.2092 79.413C99.4284 79.3185 99.7203 79.3016 99.9519 79.2155L100.042 79.5531C100.423 79.7972 100.857 79.4606 100.914 80.1163C100.976 80.1519 101.48 79.9167 101.657 79.9188C101.854 79.9199 102.509 80.47 102.516 80.7025L102.818 80.4776C103.011 80.5449 103.791 80.816 103.893 80.987C103.94 81.0642 103.918 81.1798 103.965 81.257C104.08 81.4492 104.758 81.3022 104.703 81.8561L105.243 81.7125L105.368 82.1851L106.273 82.5953L106.574 82.3705L106.718 82.9107L107.564 82.8303C107.648 83.2835 108.198 83.1981 108.522 83.443L108.756 83.2362C109.217 83.4984 109.753 83.8575 110.255 83.7053C110.339 84.1182 110.914 84.0361 110.911 84.5428L111.721 84.3274C111.814 84.5487 111.817 84.8717 111.919 85.0701C111.979 85.1885 112.373 85.3789 112.351 85.606C112.771 85.3726 113.131 85.9855 113.399 85.4717C113.768 85.6136 113.702 86.1678 114.187 85.9853L114.141 86.3588C114.545 86.5016 114.309 86.904 114.321 87.034C114.339 87.2605 114.585 87.6724 114.316 87.8306C114.024 88.002 113.8 87.8319 113.74 87.8392C113.057 87.9195 112.589 88.3505 111.876 87.9009C111.772 88.1485 111.415 88.2433 111.201 88.0804L110.634 88.6651L110.121 88.3677C109.227 88.2454 108.455 88.724 107.646 88.3029L107.376 88.3747C106.942 88.7893 105.786 88.7367 105.242 88.5082L104.873 88.751C104.436 88.4291 103.954 88.8074 103.586 88.8041C103.506 88.8035 103.324 88.6063 103.244 88.6058C102.679 88.6013 101.781 88.8777 101.389 89.2435C100.913 88.8209 100.442 89.0719 99.8954 89.0625C99.8432 89.0619 99.414 88.8073 99.2475 88.801L99.1074 89.6334L99.4134 89.6967C99.2554 90.1464 98.7059 89.918 98.5758 90.3531L98.8724 90.9249L98.5212 91.2352L98.728 91.4694C98.5539 91.7224 98.4552 92.0364 98.5204 92.3198L98.2503 92.3916L98.5649 93.0309L98.1598 93.1386L98.2496 93.4762L98.1009 93.7327L97.7633 93.8224C97.8954 94.0201 97.7134 94.1408 97.718 94.1959C97.7367 94.4078 97.8995 94.6826 97.8975 94.8711C97.8959 95.1477 97.0931 95.2282 97.4019 95.7259C97.4342 95.7766 97.5501 95.7775 97.5728 95.825C97.6877 96.0721 97.7006 96.4359 97.8062 96.7027L97.302 96.9814L97.3465 97.6925L96.8063 97.8362L96.8781 98.1062L96.608 98.1781L96.9047 98.7498L96.3594 99.69L95.5176 100.058L95.4458 99.7884L95.1757 99.8602C95.1808 99.6347 94.7308 99.3452 94.5594 99.4457C94.367 99.5865 94.4775 99.8825 94.4646 99.9047C94.4477 99.9338 94.3271 99.9095 94.262 99.9586C94.2118 99.9979 94.2103 100.101 94.1629 100.13C94 100.229 93.7218 100.146 93.6587 100.408L92.156 99.651C92.1115 99.6629 92.1061 99.8002 92.0569 99.822C91.8478 99.9166 90.6191 100.255 90.4364 100.253C90.3568 100.252 90.1759 100.056 90.0945 100.055C90.0043 100.053 89.9146 100.128 89.8245 100.126C89.7997 100.126 89.4099 99.8997 89.3971 99.8786C89.0637 99.3209 88.0092 98.835 87.2962 98.7745C87.1513 98.7624 87.1912 98.6245 87.1568 98.5224C87.056 98.5564 86.9168 98.5168 86.9047 98.6617C86.887 98.8833 86.83 99.0878 86.9312 99.3053L86.5936 99.395L85.7432 99.1874L85.6714 98.9173L85.2663 99.0251L85.0508 98.2148L84.5466 98.4935L84.4748 98.2234L83.9662 98.214L83.3987 98.7987C83.1928 98.5571 82.4543 98.9934 82.35 98.933L82.2064 98.3928C81.6065 98.7143 81.4984 98.3946 81.0859 98.257C81.0195 98.2356 80.7143 98.2517 80.6449 98.2297C80.509 98.1863 80.3604 98.0407 80.2175 97.9819L80.2628 97.6083C79.9821 97.6946 79.5577 97.3765 79.7585 97.887L79.3534 97.9947L79.2457 97.5896C78.9111 97.6526 78.5636 97.8086 78.2329 97.8589C78.1828 97.8665 78.1154 97.7543 78.0619 97.7598C77.7022 97.7991 77.3918 97.964 77.0132 97.8941L76.9414 97.624L76.5363 97.7317L76.644 98.1368L76.1039 98.2805L76.032 98.0104C75.6168 98.2596 75.0855 97.9252 74.8842 98.3156C74.5514 98.3636 74.1648 97.823 74.0295 97.8199C73.8128 97.8154 73.5183 97.9096 73.2825 97.7294L72.8457 97.9901L72.9175 98.2602L71.8013 98.4124L71.5765 98.1107L71.7927 97.8363C71.5337 97.9443 71.1481 97.9514 70.915 98.0697C70.775 98.1416 70.5239 98.5945 70.4825 98.6185C70.1744 98.7973 69.9362 98.6192 69.9065 98.6271C69.8619 98.6389 69.8597 98.7667 69.8073 98.798C69.5517 98.9513 69.2515 98.6162 69.1321 98.9776L68.5338 98.6306L68.5432 98.1221C68.3658 98.1562 68.2551 98.284 68.1065 98.3828C68.0021 98.4524 67.5422 98.822 67.5031 98.8324C67.4585 98.8442 67.3856 98.7277 67.3321 98.7332C67.0417 98.7613 66.8663 98.7704 66.621 98.7778C66.1593 98.7921 65.7848 99.5915 65.3424 99.4069L64.9732 99.6497L64.3254 99.3882C64.1288 99.5026 64.2839 100.293 63.5596 100.315C63.5051 100.316 63.447 100.217 63.3887 100.216C63.2958 100.214 63.2031 100.295 63.1186 100.287C63.0341 100.28 62.9489 100.111 62.7451 100.242L62.6733 99.9721L62.4032 100.044L62.475 100.314C62.2859 100.386 62.0441 100.395 61.8673 100.476C61.8182 100.497 61.8128 100.635 61.7682 100.646C61.7412 100.654 61.4768 100.469 61.2596 100.637C61.2091 100.273 60.8533 100.229 60.5442 100.394C60.1757 100.59 60.0229 100.934 59.4007 100.987C59.3598 100.99 59.2079 100.811 58.9597 100.96C58.79 101.061 58.8493 101.105 58.487 101.085L58.5589 101.355C58.4029 101.378 58.2315 101.473 58.0862 101.481C58.0391 101.483 57.8887 101.304 57.6452 101.454C57.5945 101.486 57.5935 101.602 57.5461 101.625C57.4148 101.686 57.008 101.798 56.8709 101.804C56.7337 101.81 56.3775 101.564 56.1914 101.696L56.1196 101.426C55.6388 101.575 55.6902 101.225 55.5529 100.926C55.5143 100.84 55.2667 100.899 55.481 100.656L55.2742 100.421L55.5716 99.9085L55.0587 99.6111L55.1579 99.4401L54.5108 98.0941C54.7813 98.0785 54.8246 97.8226 54.9612 97.6128L54.2329 96.5052L54.4499 95.1462L54.1353 94.5069C54.1598 93.9466 53.9436 92.2474 53.7231 91.8693L53.6872 91.7343C53.9398 91.3794 54.143 90.9798 53.7059 90.7172L53.8683 90.2403C53.2104 89.8325 53.6733 88.5716 53.4647 88.1788C53.2189 87.7164 53.2794 87.5254 53.0424 87.1344C53.4232 86.6196 53.1764 86.0505 53.1876 85.5053C53.1901 85.4005 53.4845 85.0938 53.485 84.9925C53.49 84.462 53.055 84.1149 53.6661 83.4984C53.6702 83.1171 53.3271 82.7673 53.3156 82.7241C53.3041 82.6809 53.4203 82.6066 53.4147 82.5532C53.3976 82.3799 53.2696 82.1652 53.2711 82.013C53.2727 81.7798 53.8009 81.4499 53.8027 81.2933L53.506 80.7215C53.7854 80.7282 54.2217 80.4387 54.2265 80.1685C54.2386 79.5508 54.7071 78.8059 54.84 78.1257L54.6691 78.0266C54.8077 77.5039 55.2879 77.635 55.4707 77.2351L55.1741 76.6633L55.5476 76.7086C55.7401 76.5678 55.6296 76.2718 55.6424 76.2496C55.6613 76.2171 55.7912 76.2491 55.845 76.1957C56.0401 76.0051 55.9591 75.6897 56.021 75.4983C56.1085 75.2292 56.2249 75.3515 56.3184 74.9855C56.3745 74.7667 56.6367 74.6492 56.4269 74.306C56.6109 74.231 56.8718 74.2281 57.0346 74.1444C57.233 74.0424 57.27 73.6813 57.6739 73.8298C57.779 73.5184 58.2153 73.615 58.4482 73.4793C58.5557 73.416 58.6034 72.9971 58.9841 73.0477L58.7593 72.746L59.4395 71.7698C59.7539 71.9624 60.181 71.671 60.5557 71.6176L61.2138 70.286C61.3803 70.2923 61.8094 70.5469 61.8616 70.5474C62.0796 70.5516 62.2232 70.4282 62.4736 70.6739L62.6719 70.332L63.4505 70.2695L63.0907 70.0038L63.2351 69.4593L62.8299 69.567L62.6504 68.8918C62.6179 68.873 62.521 68.9653 62.4478 68.9457C62.1028 68.8553 62.1915 68.596 62.0837 68.3919C62.0572 68.3411 61.9328 68.3409 61.9128 68.2927C61.8187 68.0749 61.6935 67.5876 61.6614 67.3475C61.6549 67.2957 61.7637 67.2321 61.7605 67.1765C61.7519 67.0299 61.6575 66.8598 61.6349 66.7039C61.6785 66.6287 62.4598 66.5438 62.6477 66.4346C62.7165 66.3946 62.777 66.1327 62.8459 66.0927C62.9823 66.013 63.2497 66.0287 63.3861 65.9491C63.4913 65.8878 63.6774 65.3265 63.7826 65.2653C63.9153 65.188 64.1659 65.1952 64.3228 65.1216C64.3716 65.0985 64.3731 64.9738 64.4219 64.9507C64.5272 64.901 64.8621 64.8062 64.9621 64.8071C65.1387 64.8078 65.4698 65.2865 65.8125 65.0147ZM64.6573 69.3703L64.9676 69.7216L65.6428 69.542L65.8188 68.8446C65.5838 68.7928 65.6476 68.5706 65.576 68.4754C65.4681 68.3306 65.0478 68.0765 65.0273 68.0429C64.9191 67.8592 65.0071 67.5755 64.6631 67.4891L64.0913 67.7857L64.0461 68.1593C64.038 68.4115 64.6854 68.5517 64.7658 68.6908C64.851 68.8373 64.8498 69.121 64.9274 69.2985L64.6573 69.3703ZM72.0915 70.1407L70.7684 70.0587L70.3992 70.3015L70.6104 70.8237L69.9625 70.5622C69.6743 70.555 69.6306 70.7878 69.5933 70.805C69.2833 70.9496 69.1395 70.969 68.8189 71.1555C68.6536 71.2515 68.5719 71.091 68.5129 71.0922C68.3723 71.0964 68.1956 71.1983 68.0403 71.2179L67.901 70.9658C67.7362 71.374 67.2355 71.5028 66.8609 71.6761L66.9327 71.9462L65.9558 72.3505L65.6498 72.2873L65.0823 72.872C64.764 72.5937 64.509 72.7222 64.1328 72.8353L64.2764 73.3755C64.0621 73.4614 63.8559 73.4959 63.6824 73.3165C63.6304 73.2624 63.661 73.1328 63.6285 73.114L62.9533 73.2935L63.0969 73.8337L62.7952 74.0585L62.3183 73.8961L61.9807 73.9859L62.0884 74.391C61.8598 74.5588 61.6687 74.2481 61.544 74.2466C61.4192 74.2451 61.2666 74.3507 61.1389 74.3543C61.0728 74.356 60.9657 74.1763 60.7654 74.3091C60.8948 74.5132 60.7336 74.5864 60.7201 74.6826C60.7094 74.762 60.7942 74.858 60.7919 74.9526C60.7873 75.2127 60.4444 75.2229 60.3731 75.2809C60.2901 75.3492 59.9915 75.6672 59.9903 75.7441L60.1159 76.2168L59.8142 76.4416L59.0356 76.504L59.1792 77.0442C58.7702 77.1371 58.3232 77.1851 58.4767 77.6648L58.2066 77.7366L58.3503 78.2767L57.54 78.4922L57.5307 79.0007L57.7016 79.0999L57.6025 79.2708L57.9085 79.334C57.7996 79.7403 57.3373 79.6218 57.0846 79.77C56.9794 79.8312 56.7713 80.397 56.6385 80.5393L56.8094 80.6384C56.5068 80.9357 56.7209 81.1318 56.7189 81.3854C56.7184 81.4867 56.422 81.7969 56.4215 81.8982C56.4194 82.0752 56.6547 82.5794 56.619 82.641L56.2139 82.7487L56.0874 83.3607L56.5464 83.4555L56.5729 84.0991L56.0687 84.3777L56.3474 84.882L55.744 85.3316L56.1397 85.7324L55.9774 86.2094L56.2561 86.7136C56.0811 86.9582 56.0205 87.3286 55.7065 87.3658L55.8502 87.906L55.4989 88.2162C55.8161 88.5281 55.6394 88.5924 55.6425 88.7564C55.6447 88.857 55.7167 88.981 55.7323 89.094L55.3272 89.2017L55.7588 89.7376C55.523 90.1068 55.8529 90.4283 56.0102 90.6829C56.2182 91.0194 55.6044 91.4241 56.1265 91.664L56.1804 91.8666L55.9103 91.9384C56.2288 92.3641 55.878 92.7307 55.8736 92.888C55.8651 93.1823 56.4703 93.6258 56.4669 94.0315L56.2054 94.6794C56.5773 94.822 56.3107 94.9941 56.3131 95.0845C56.317 95.2078 56.4039 95.3553 56.4208 95.4896C57.1658 95.9205 56.7103 96.2903 56.7081 96.57C56.7045 96.9642 57.0066 97.8121 57.0398 98.3614C57.0427 98.4156 56.9422 98.4727 56.9407 98.5323C57.2181 98.9936 57.6529 99.7643 58.2587 99.4109C58.3 99.3869 58.5489 98.9361 58.6911 98.8621C58.8166 98.7955 59.0189 98.7952 59.1638 98.7364L59.4741 99.0877L59.9151 99.115C60.2981 98.7717 60.8599 98.9925 61.2655 98.7559C61.3344 98.7159 61.3949 98.454 61.4638 98.414C61.7053 98.2732 62.1724 98.295 62.3372 97.8926C62.7431 98.1794 63.0175 97.6018 63.4175 97.6053C63.4972 97.6059 63.6781 97.8021 63.7594 97.8036C63.9761 97.8082 64.2706 97.714 64.5064 97.8942L64.9389 97.3454L65.9517 97.0761L66.0235 97.3462L66.397 97.3914L66.7662 97.1487L66.9371 97.2478C67.195 96.6732 67.9951 96.5718 68.4585 96.9879L69.3952 96.1605L69.7055 96.5117L70.984 95.8826L71.0559 96.1526L71.6003 96.297L72.0054 96.1893L72.1541 95.9329L71.9207 95.0551L72.1908 94.9833L72.1822 94.4073L71.7232 94.3124L71.6787 93.6013C71.3381 93.4186 71.361 93.0424 71.5983 92.7552L71.2026 92.3544L71.4727 92.2825C71.3738 91.9054 71.0799 91.6756 71.0504 91.2381L70.8478 91.292C70.733 91.3225 70.6889 91.0479 70.6905 90.9723C70.6957 90.7743 70.9865 90.6392 71.1768 90.6262L70.6913 89.8877L70.9614 89.8159L70.7459 89.0057L70.4758 89.0775C70.2463 88.6657 69.8899 88.2169 70.2698 87.7587C69.9599 87.3437 69.9496 86.7884 70.0098 86.2374C70.0163 86.1749 70.1091 86.1213 70.1089 86.0664L69.4525 85.2289L69.8037 84.9186L69.6644 84.6665L69.4618 84.7203C69.5924 84.4499 69.4494 84.2985 69.4353 84.0767C69.4324 84.0225 69.5339 83.9638 69.5344 83.9058C69.5361 83.7217 69.2658 83.7112 69.2737 83.4691C69.5443 83.4535 69.5876 83.1976 69.7241 82.9878L69.3463 82.6545C69.6126 82.3509 69.5645 81.8765 69.23 81.6733L69.4915 81.0255C69.2208 80.921 69.2527 80.5843 69.1589 80.3187L69.4111 80.1793C69.06 79.9575 68.9598 79.3089 69.4477 79.2297C69.1111 78.7684 69.3938 78.1785 69.1519 77.5734L69.422 77.5015C69.29 77.2171 69.3571 77.0619 69.5305 76.8221L69.3595 76.7229C69.4747 76.3785 69.794 76.3992 70.1159 76.3049C70.07 75.7301 69.8283 75.6368 69.4235 75.3323L69.8286 75.2246L69.7568 74.9545L70.432 74.775L70.0722 74.5092L69.9918 73.6631L70.4242 73.1143L70.3344 72.7767C70.6014 72.7476 70.7392 72.51 70.6318 72.2639C71.2146 72.226 71.0673 71.5798 71.4292 71.1843L71.6676 71.2655C71.3196 70.5874 72.2632 70.7428 72.0915 70.1407ZM83.8088 85.3876C84.1213 85.3609 84.2226 85.2255 84.3447 84.9559L84.4797 84.92C84.7957 85.1946 84.9351 84.8163 85.0199 84.7764C85.2858 84.6508 85.6017 84.746 85.7088 84.3764L85.5019 84.1422L86.1548 83.6071C86.4877 83.8367 86.8264 83.5442 86.6907 83.1754L87.6719 83.0591C87.4606 82.5471 88.0232 82.091 88.2265 81.6104L89.3786 81.5932C89.6473 81.2716 90.0956 81.1032 90.4862 80.8649C90.5773 80.8103 90.6959 80.4029 90.7836 80.3521C90.9527 80.2536 91.2243 80.3346 91.2879 80.0734L92.0127 79.8084L91.2477 79.6503L90.9245 78.435L90.6544 78.5068C90.6865 78.225 90.322 78.2135 90.2587 78.106C90.1585 77.9359 90.0937 77.2679 90.0253 77.2282L89.7552 77.3C89.7187 76.8094 89.1735 76.7274 88.8107 76.4668C89.0438 76.185 89.0096 75.9859 88.8833 75.6522L88.379 75.9309C88.4289 75.5475 88.0145 75.5059 87.9474 75.395C87.898 75.3127 87.9246 75.1842 87.8756 75.1249C87.6558 74.8639 87.3796 74.7551 87.3721 74.319L87.6242 74.1797C87.4011 74.1074 87.0887 73.9274 86.8909 73.8686C86.6035 73.7831 86.4361 73.7842 86.1438 73.7781C85.8967 73.773 85.8 73.3822 85.7618 73.1567L85.4917 73.2286L85.5369 72.855L85.1053 72.3192L84.295 72.5346L84.3489 72.7372C84.3794 72.852 84.1049 72.8961 84.0293 72.8945C83.7393 72.8863 83.6717 72.3707 83.6113 72.1381L83.242 72.3809L83.1975 71.6698L82.7924 71.7775C82.801 71.4889 82.6266 71.4529 82.5317 71.3408C82.5003 71.3043 82.5205 71.2281 82.4958 71.2057C82.4195 71.1364 82.0059 70.9947 81.9334 70.9938C81.8104 70.9933 81.6513 71.1021 81.5283 71.1015C81.4052 71.101 81.0194 70.819 81.047 70.6511C80.7662 70.6173 80.6698 70.8801 80.6103 70.9118C80.1315 71.1664 79.7796 70.7293 79.3505 70.5239L78.5086 70.8923C78.4022 70.3726 78.08 70.6506 77.7932 70.6488C77.7264 70.6478 77.5416 70.5292 77.1812 70.5224C77.0663 70.5197 76.6694 70.1799 76.4975 70.1258L76.4299 70.1438C76.5841 70.5496 76.1798 70.7149 75.7949 70.7464C75.7384 70.7513 75.6191 70.569 75.4214 70.7011L75.3496 70.431L74.9761 70.3858C74.6916 70.3761 74.6429 70.6117 74.6069 70.6285C74.3908 70.7294 73.4981 70.8684 73.4591 70.9337L73.4677 71.5098C73.0481 71.4652 72.5413 72.213 72.4498 72.5757C72.4316 72.6485 72.5225 72.7458 72.5037 72.7783C72.4848 72.8107 72.3552 72.7801 72.3011 72.8321C72.0435 73.0813 72.0373 73.417 72.1789 73.7321L71.8413 73.8219L71.6926 74.0783L71.7824 74.4159L71.5123 74.4877L71.5209 75.0638L71.2508 75.1356L71.3586 75.5407L71.0885 75.6125L71.1962 76.0177L70.9261 76.0895L71.286 76.3553L70.9347 76.6655C71.0667 76.95 70.9996 77.1052 70.8262 77.345L71.069 77.7142L70.8075 78.3621L71.2033 78.7629L70.6631 78.9066C70.647 79.1451 70.8586 79.1524 70.8879 79.2083C71.1263 79.6697 70.7999 79.8071 70.7974 79.9553C70.7874 80.4886 70.8907 80.986 70.9223 81.5125C70.9243 81.5583 70.8424 81.6147 70.8231 81.6835L70.8411 81.751C71.1025 81.641 71.3339 81.7992 71.3539 82.0484C70.9126 82.2048 70.5902 82.9281 71.0831 83.2048L71.0019 83.4433C71.2375 83.3344 71.4884 83.473 71.5147 83.7407L71.1096 83.8484C71.1674 83.995 71.1703 84.1908 71.2353 84.321C71.2601 84.3708 71.3862 84.372 71.4062 84.4202C71.5001 84.6425 71.5186 84.9296 71.6037 85.1629L71.3337 85.2347C72.04 85.8465 71.9983 86.7121 71.7911 87.4988C72.0642 87.8787 71.9836 88.0216 72.0065 88.309C72.0157 88.4251 72.0994 88.7615 72.1502 88.8492C72.2093 88.952 72.5698 88.9646 72.5459 89.25L72.1408 89.3577C72.1727 89.5864 72.2451 89.7825 72.487 89.844C72.5598 89.8622 72.6571 89.7713 72.6896 89.7901C72.7551 90.2325 72.8565 90.4181 73.211 90.6636L72.8102 91.0594L72.4367 91.0141L72.7692 91.7209L73.3179 92.1533C73.2743 92.2936 73.0229 92.5716 73.0205 92.6662C73.0179 92.8086 73.1663 92.9426 72.9932 93.1072L73.5061 93.4046C73.1911 94.058 73.9269 94.3945 74.1711 94.8182C74.2327 94.9247 74.2173 95.1168 74.2788 95.2233C74.4086 95.4448 74.802 95.1898 74.7917 95.5207L75.0797 95.5164C74.9479 95.3144 75.1234 95.2185 75.125 95.1429C75.1276 95.0222 75.0167 94.8609 75.0173 94.7378C75.0181 94.7029 75.3343 94.1576 75.3642 94.1395C75.7495 93.9084 75.7783 94.0381 75.8821 93.6403C75.9752 93.2888 76.2471 93.3871 76.436 93.2762C76.6376 93.1589 76.6615 92.5366 76.7966 92.4573L77.2692 92.3317L77.1615 91.9266L78.0709 91.5402C78.0562 91.213 78.1113 90.9091 77.9546 90.559L78.3597 90.4513L78.2879 90.1812L78.9631 90.0016L78.8912 89.7316L79.6656 89.3811L79.5578 88.976L80.3681 88.7605C80.2607 88.5143 80.3985 88.2767 80.6655 88.2477L80.5937 87.9776C81.1421 87.9792 81.1298 87.4707 81.6022 87.4203C81.4649 87.0779 81.7512 86.8659 82.1021 86.8535C82.158 86.8517 82.2151 86.9522 82.2731 86.9527C82.4381 86.9536 82.5167 86.6508 82.7773 86.674L83.1379 85.8552L83.9166 85.7927L83.8088 85.3876ZM95.8734 80.7337L95.5717 80.9585C95.2344 81.0005 94.8187 80.9433 94.4196 80.9757C94.0458 81.0057 93.8592 81.2173 93.5777 81.3442L93.6495 81.6142L93.006 81.6408L92.6727 82.0186L91.9615 82.0631C91.4604 82.62 90.9408 83.2541 90.2189 83.394L90.2907 83.6641L89.719 83.9607L89.4216 84.4735L89.1831 84.3923L89.2549 84.6624L88.5079 84.5719L88.6156 84.977C88.1089 85.0452 87.7809 85.345 87.4046 85.5882C87.3539 85.6205 87.3539 85.7347 87.3054 85.7591C87.0996 85.8659 86.6343 85.981 86.4593 85.8395L86.3242 85.8755C86.0043 86.1731 86.2203 86.5884 85.9995 86.8293C85.9265 86.908 85.6887 87.1939 85.6662 87.2071C85.5298 87.2868 85.2625 87.2711 85.1261 87.3508C85.0333 87.4043 84.7109 88.0135 84.833 88.1516L83.4467 88.3757L83.5185 88.6457C83.0432 88.7562 82.7012 88.7749 82.5279 89.2706L82.7168 89.4373C82.5703 89.495 82.3761 89.4989 82.2442 89.5629C82.1944 89.5877 82.1932 89.7138 82.1451 89.7339C81.8789 89.8422 81.5444 89.8676 81.2673 89.9673L81.375 90.3724C80.9489 90.4553 81.0142 90.7936 81.1495 91.1553L80.8794 91.2271L80.9512 91.4972L80.1093 91.8656L80.0145 92.3246C79.7805 92.3579 79.5914 92.4299 79.5282 92.6708C79.5086 92.744 79.6009 92.8409 79.5821 92.8734L78.6727 93.2598C78.6954 93.4157 78.7901 93.5871 78.7984 93.7324C78.8188 94.1029 78.6321 94.0803 78.5505 94.1598C78.3318 94.3755 78.4472 94.6196 78.5275 94.8888L78.0233 95.1675C78.2891 94.9927 78.5851 95.4099 78.7387 95.411C79.5156 95.4184 80.2617 95.5164 81.0113 95.5297L81.0831 95.7997L82.06 95.3954L82.5729 95.6928C83.2923 94.7063 83.7272 95.5753 84.4088 96.0721L84.5438 96.0362C84.5925 96.0074 84.5923 95.8976 84.643 95.8653C85.0478 95.6044 85.4119 95.7447 85.8583 95.5421C85.9075 95.5204 85.9129 95.383 85.9574 95.3712C86.0339 95.4304 86.1489 95.4605 86.2139 95.5199C86.2675 95.5692 86.4034 95.8411 86.4566 95.8891C86.657 96.0715 86.9242 96.0163 87.1541 96.0651C87.2122 96.0771 87.263 96.1431 87.325 96.1642C87.5149 96.1658 87.5822 95.7286 87.9507 96.0702L87.9413 96.5787L88.1079 96.3898L88.8866 96.3274L88.8148 96.0573C89.3493 95.7619 89.5474 96.1646 89.9712 96.3281C90.0049 96.3408 90.0681 96.2792 90.1062 96.2922C90.3502 96.3777 90.4422 96.5933 90.7857 96.4007L90.8755 96.7383L91.1319 96.887L91.5686 96.6263L91.8789 96.9776C92.59 96.8405 93.3059 96.3899 93.9268 96.7945L93.9533 97.4381L94.867 97.3397C94.9491 97.2355 95.258 96.9668 95.3353 96.926C95.4594 96.8598 95.6634 96.8604 95.8079 96.8003L95.7814 96.1568L95.4036 95.8234C95.627 95.3751 95.5541 94.8451 95.1975 94.5047L95.6026 94.3969L95.3419 93.9602L95.8649 92.6645L95.6674 91.9217L96.2076 91.7781L95.8118 91.3773C95.9852 91.1374 96.0523 90.9822 95.9203 90.6978L96.3254 90.5901C96.2144 90.3246 96.2738 90.037 96.398 89.7755L96.1552 89.4063C96.1409 89.3523 96.6138 88.5643 96.462 88.3849L96.7321 88.3131C96.6003 88.111 96.7758 88.0152 96.7774 87.9396C96.7844 87.6616 96.4964 87.329 97.0209 87.2242L96.4995 86.3508L97.1387 86.0362L97.1934 85.1541L97.4635 85.0823C97.687 84.5689 97.3893 84.1347 97.3924 83.7276C97.3929 83.648 97.5902 83.4654 97.5907 83.3857C97.5912 83.2627 97.4824 83.1036 97.483 82.9806C97.4839 82.9081 97.6547 82.7455 97.6812 82.6387C97.6995 82.5659 97.6085 82.4686 97.6274 82.4362C97.6512 82.3951 98.1526 81.9538 98.2624 81.8335C98.4808 81.5947 98.3359 81.4901 98.3392 81.307C98.3397 81.2491 99.0095 80.2989 98.2452 80.6814C98.0551 80.7768 98.0195 80.9149 97.8084 80.9421L97.7366 80.672C97.3546 80.6218 97.312 81.038 97.2008 81.1037C96.884 81.2935 96.7118 80.9778 96.5888 80.9773C96.302 80.9754 95.9798 81.2534 95.8734 80.7337ZM102.892 83.205C102.923 82.9235 102.562 82.914 102.497 82.8042C102.418 82.6731 102.35 82.4196 102.218 82.2999C101.998 82.0995 101.708 82.1116 101.592 82.394L100.4 81.9881C100.529 82.1922 100.367 82.2658 100.355 82.3616C100.311 82.7073 100.069 83.363 100.066 83.4505C100.064 83.5451 100.142 83.6761 100.156 83.7881L99.6155 83.9317C100.021 84.288 99.9289 84.7188 99.8036 85.183L100.074 85.1112L100.146 85.3813C99.9115 85.4146 99.7224 85.4865 99.6592 85.7274C99.6396 85.8006 99.7319 85.8975 99.7131 85.93L99.443 86.0018L99.5507 86.4069L99.2807 86.4787L99.5952 87.118C99.7418 87.0603 99.9377 87.0573 100.068 86.9924C100.581 86.7359 100.969 86.9291 101.211 86.3991C101.356 86.4705 101.796 86.3534 101.887 86.2196L102.494 86.058C102.483 86.2995 102.66 86.283 102.719 86.3597C102.768 86.4234 102.742 86.5488 102.791 86.6298C102.952 86.8992 103.361 86.6518 103.587 86.6348C103.64 86.631 103.875 86.8129 104.096 86.6442L104.168 86.9143C104.319 86.8856 104.355 86.6 104.434 86.5544C104.86 86.305 105.046 86.6433 105.181 86.645C105.504 86.6486 106.037 86.3753 106.432 86.4568L106.945 86.7542L107.143 86.4123C107.385 86.627 107.328 86.3791 107.413 86.3405C107.638 86.2389 108.51 86.1066 108.561 86.0353C108.531 85.5602 108.268 85.8963 108.016 85.8909C107.765 85.8855 107.746 85.5435 107.688 85.4721C107.555 85.3094 107.27 85.1757 107.257 84.9363L106.986 85.0081C106.971 84.7375 106.715 84.6942 106.505 84.5577L105.628 84.7911L105.673 84.4176C105.335 84.3223 105.371 84.135 105.259 83.9492C105.194 83.8394 104.833 83.8299 104.863 83.5484C104.4 83.6485 103.497 83.5979 103.297 83.0973L102.892 83.205Z" fill="#EEF4F4"/>
<path d="M81.4417 60.7141C81.4119 60.9447 81.7676 61.2983 81.9588 61.2996C82.1141 61.3017 82.3303 61.1632 82.499 61.1559C82.6233 61.1504 83.1398 61.3802 83.2819 61.3815C83.5093 61.3832 83.8693 61.2962 84.128 61.3011C84.1528 61.3018 84.5425 61.5278 84.5554 61.5489C84.602 61.6262 84.5806 61.7418 84.6272 61.819C84.7544 62.031 85.1415 61.9208 85.3563 61.842L85.4281 62.1121L85.9682 61.9685C86.0653 62.4748 86.7536 62.1327 86.7597 62.7701C87.1308 62.7409 87.4177 62.8901 87.705 62.5188L88.0555 63.2931L88.4606 63.1854L88.5504 63.523L88.8068 63.6717L89.8555 63.5374C89.9443 63.9201 89.9594 64.2053 90.359 64.3434L90.2958 64.6493C90.5938 64.9055 90.8142 65.2561 91.2676 65.0416L91.4471 65.7168L91.7847 65.627L92.0411 65.7757C92.0669 66.4817 92.6987 66.5031 93.0754 66.9466L92.7644 67.6799L91.5447 67.7151L91.572 67.274L91.2703 67.4988C90.9935 67.3657 90.4826 67.5652 90.5011 67.0527C90.5045 66.9622 90.6766 66.7776 90.5104 66.5442L90.0019 66.5348L89.6327 66.7776L89.3763 66.6289L89.4036 66.1879L89.1472 66.0392L88.8096 66.1289C88.6174 65.6075 87.9582 65.9505 87.9642 65.1247C87.469 64.8284 86.6587 64.9297 86.5787 64.2642C86.2294 64.3917 85.8158 64.2501 85.4581 64.1283L85.1565 64.3532L85.0487 63.948L84.7786 64.0199C84.6517 63.3249 84.0864 63.4174 83.5188 63.6319L82.7948 62.8123L81.7461 62.9466C81.6714 62.5081 81.4244 62.6721 81.1657 62.6671C80.9681 62.6633 80.4349 62.2079 80.0452 62.5313C79.9311 62.2436 79.6708 61.8573 79.3255 61.9998C79.2603 61.6513 79.0119 61.3096 79.2767 61.0006L80.5998 61.0826L81.4417 60.7141Z" fill="#EEF4F4"/>
<path d="M87.3189 57.2712L87.4805 57.8789L87.7369 58.0276L88.3446 57.866L88.6233 58.3702L89.0823 58.4651L89.3968 59.1043C89.6858 59.2993 90.0095 59.4345 90.3328 59.3615C90.2574 59.8558 91.1503 59.9784 91.2773 60.1948C91.3545 60.3275 91.3474 60.5781 91.4209 60.735C91.4447 60.7865 91.6622 60.7995 91.6457 61.0366L90.8714 61.3871L90.8757 61.6752C90.6253 61.4294 90.4803 61.5533 90.2637 61.5487C90.1345 61.5469 89.8908 61.2069 89.5842 61.4402C89.5107 61.0115 88.9094 61.1208 88.5269 60.9984C88.2803 60.9194 88.2173 60.7583 88.1807 60.5121L88.0141 60.701L86.9294 60.7003L86.6149 60.061L86.8131 59.7191L86.3901 59.7593L86.4892 59.5883C86.3998 59.5514 86.3166 59.4665 86.2328 59.4396C86.0622 59.3852 85.6445 59.4457 85.5353 59.2636C85.486 59.1813 85.5129 59.0541 85.4635 58.9935C85.3216 58.8187 84.974 58.6914 85.1848 58.4893L84.9241 58.0525L85.1942 57.9807L85.0865 57.5756L85.9369 57.7832L86.1711 57.5764L86.342 57.6755L87.3189 57.2712Z" fill="#EEF4F4"/>
<path d="M83.8081 85.3875L82.7278 85.6748L82.3414 84.7654L82.0714 84.8372L81.6756 84.4364L81.7209 84.0629L81.3158 84.1706C81.0762 83.6776 81.4151 83.2882 81.5327 82.8116L81.1276 82.9194L81.137 82.4108L80.7412 82.01L81.2455 81.7313L81.2283 80.5792L80.8275 80.9749L80.0129 80.9024L80.0848 81.1724L79.8147 81.2442L80.0574 81.6135C79.8249 81.6362 79.662 81.7793 79.4857 81.9101C79.3201 82.0322 78.6902 82.5727 78.6345 82.7871C78.6162 82.8599 78.7072 82.9571 78.6883 82.9896L78.4182 83.0614L78.3464 82.7914C77.9807 82.8568 77.7221 82.6783 77.5456 82.4983C77.4877 82.4385 77.3629 82.4095 77.2891 82.3496L76.9515 82.4393L76.8797 82.1693L76.3396 82.3129C76.2973 82.0668 76.1728 81.8107 76.1421 81.5702C76.1355 81.5184 76.2467 81.4527 76.2412 81.3992C76.2002 81.0111 76.0816 80.6956 76.089 80.283C76.0913 80.1667 76.434 79.7806 76.4855 79.5992C76.5602 79.3364 76.4626 79.1325 76.441 78.8881C76.4368 78.8343 76.552 78.7617 76.5401 78.7172C76.5283 78.6726 76.3909 78.6672 76.3692 78.618C76.1659 78.1689 76.253 77.9419 76.523 77.565L76.2802 77.1958L76.3614 76.9573L76.0913 77.0292C75.8095 76.6544 76.1608 76.3499 76.1639 76.2146C76.1659 76.1244 76.09 76.0347 76.0921 75.9445C76.0966 75.6788 76.6574 75.6236 76.6595 75.3599C76.6616 75.2046 76.5245 74.9881 76.5159 74.8197C76.5085 74.6612 76.7758 74.2258 76.7774 74.1719C76.7797 74.0773 76.7015 73.9462 76.6876 73.8343C77.0548 73.7525 77.2373 73.4654 77.6645 73.4299C77.7211 73.425 77.8404 73.6073 78.038 73.4752C78.0714 73.7092 78.1433 73.8983 78.3842 73.9615C78.4574 73.9811 78.5543 73.8888 78.5868 73.9076C78.5491 74.1793 78.8317 74.3066 78.8475 74.3443C78.9837 74.6609 79.0094 75.0893 79.1348 75.4247L78.7382 76.1084L79.2152 76.2708L79.1153 77.5264C78.5677 77.6257 78.9488 78.0478 78.7726 78.4127C79.0054 78.614 79.0631 78.5046 79.2632 78.3546C79.3403 78.2965 79.3234 78.1188 79.5649 78.1297L79.4572 77.7246C79.6286 77.695 80.04 77.3556 80.0426 77.2075C80.0446 77.1173 79.9687 77.0276 79.9708 76.9374C79.9749 76.7353 80.4369 76.2872 80.5519 76.1322L81.128 76.1237L81.4972 75.8809C81.8133 76.0802 82.1658 76.1441 82.1853 76.5655L82.6442 76.6603L82.5537 77.4073C82.8233 77.5294 82.9587 77.6307 82.9854 77.9432L83.3905 77.8354C83.4483 77.982 83.4508 78.1765 83.5162 78.3081C83.541 78.3579 83.6671 78.359 83.6871 78.4072C83.7809 78.6295 83.7994 78.9167 83.8846 79.1499L83.2453 79.4645L83.677 80.0004L83.7121 81.22L83.442 81.2918C83.7238 81.6666 83.3725 81.9711 83.3694 82.1064C83.3621 82.4756 83.7216 82.4682 83.7831 82.5747C83.8315 82.6587 83.9629 83.153 83.9627 83.2499C83.9612 83.3747 83.6212 83.6241 83.8542 83.9294L83.5029 84.2397L83.8081 85.3875Z" fill="#EEF4F4"/>
</svg>
