<svg width="473" height="472" viewBox="0 0 473 472" fill="none" xmlns="http://www.w3.org/2000/svg">
<path d="M278.003 166L278.503 167.25L278.003 168.75L279.003 169.75C278.213 171.2 277.238 172.38 275.503 172.5L276.003 174.25C274.698 175.48 274.008 176.935 272.003 176.5L272.503 177.25L272.003 180.5H271.003V182.5H269.503V183.5H268.503V186.5H267.503V187.5C266.433 187.5 265.643 188.675 264.753 187.5C264.018 188.28 263.148 189.125 262.253 189.5C261.983 189.615 261.593 189.41 261.503 189.5C261.408 189.595 261.633 190.015 261.503 190.25C261.058 191.045 259.618 191.515 261.003 192.75L260.503 195.25C259.788 196.335 258.703 195.97 257.503 196V197.5C258.378 197.89 259.163 196.995 259.253 197C259.428 197.01 259.563 197.47 259.753 197.5C261.368 197.765 262.223 197.205 263.253 197C263.768 196.9 264.443 197.065 265.003 197L264.503 196L267.503 195V196C269.428 195.76 270.868 197.52 272.253 195.5C273.338 196.575 275.158 195.955 276.253 195C277.108 196.45 278.123 195.755 279.253 196C280.298 196.225 282.323 198.55 284.003 198V199L285.253 198.5L286.503 199.25L285.503 205H284.003L284.503 207.25L282.753 209.5L282.253 209C281.433 209.77 280.873 210.85 281.003 212H280.003L280.503 214.5L279.003 214C279.818 215.015 279.043 214.96 279.003 215.25C278.938 215.735 279.113 216.355 279.003 216.75C278.848 217.31 276.273 219.775 275.503 220.25C275.393 221.2 275.658 222.36 275.503 223.25C275.468 223.445 274.728 223.695 275.003 224.5H272.003L273.003 225.75C272.163 226.36 272.583 227.495 272.503 228.5C270.808 228.43 268.703 229.53 269.003 231.5H268.003L268.503 233H267.503V234.5H266.003C266.223 235.855 265.753 236.855 265.503 238H264.003L264.503 239.75C263.603 240.085 263.578 241.425 263.503 241.5C263.418 241.585 263.023 241.385 262.753 241.5C262.458 241.625 261.433 242.46 261.253 242.5C260.613 242.64 259.708 242.41 259.003 242.5L258.503 244H259.503L258.503 246.5H257.503L256.253 249L255.253 248.5L254.003 249L254.503 250.25L254.003 250.75L254.503 252.75C254.478 252.835 253.338 253.975 253.253 254C252.943 254.09 252.563 253.91 252.253 254C251.043 254.345 251.683 256.715 251.503 257.75C251.473 257.925 251.093 258.035 251.003 258.25C250.893 258.52 251.088 258.915 251.003 259C250.763 259.24 248.663 259.665 249.003 261.5L247.003 262C247.068 264.38 243.758 265.155 244.003 267.5H240.753L239.503 269.75C240.288 270.24 239.908 270.965 240.003 271.75C240.013 271.825 240.953 272.68 239.753 273C238.853 273.24 237.278 272.82 236.253 273C236.078 273.03 235.968 273.41 235.753 273.5C235.483 273.61 235.088 273.415 235.003 273.5C234.908 273.595 235.133 274.015 235.003 274.25C234.583 275 233.213 275.395 233.503 276.5H232.003L232.503 278.25C232.228 278.46 232.018 278.83 231.753 279C231.538 279.14 230.458 279.365 230.253 279.5C229.793 279.805 229.063 280.91 228.753 281C227.013 281.5 227.018 279.21 226.253 279C225.828 278.885 225.178 279.115 224.753 279C224.633 278.965 223.143 277.485 223.003 277.25C222.938 277.14 223.073 276.905 223.003 276.75C222.903 276.535 222.543 276.43 222.503 276.25C222.353 275.585 222.353 271.415 222.503 270.75C222.808 269.395 225.198 268.52 224.503 266.5L227.503 265.5L226.503 260.5L230.003 260C229.063 258.91 228.673 257.74 229.003 256.25C229.163 255.515 230.933 253.51 231.003 253.25C231.183 252.6 230.868 251.5 231.003 250.75C231.028 250.6 231.773 250.27 231.503 249.25L231.003 248.5C232.463 248.64 233.063 246.78 233.003 245.5H234.003C233.973 245.26 234.088 244.965 234.003 244.75C233.918 244.535 233.503 244.405 233.503 244.25C233.503 244.125 234.443 242.98 234.003 242H235.003C235.553 240.215 236.368 238.875 236.003 236.75L237.503 236L238.003 233H239.003C239.178 230.085 240.353 227.37 240.503 224.5C241.733 224.63 242.188 223.73 242.003 222.5C241.393 221.89 238.683 223.98 238.253 224.5C237.703 223.755 236.803 223.755 236.253 224.5L235.503 223.75L236.003 223.25L235.253 222.5C234.773 223.335 233.958 222.835 233.253 223C231.463 223.415 231.768 223 231.253 223C231.148 223 230.763 223.775 230.003 223.5V224.5C229.768 224.465 229.463 224.59 229.253 224.5C228.458 224.165 226.928 222.645 226.253 222.5C224.763 222.18 223.558 222.875 222.253 223L221.503 224.5C221.303 224.75 220.178 223.625 220.503 223C218.843 222.95 217.993 224.33 216.753 222.5C216.588 222.5 216.463 222.94 216.253 223C215.213 223.3 214.173 221.7 213.253 223L211.003 222C211.133 220.8 209.738 220.165 209.003 219.25L209.503 218.25C208.953 217.39 208.828 216.255 208.503 215.25C208.063 213.89 207.363 212.565 207.503 211H208.503C208.543 209.075 212.003 208.995 211.503 206.5L213.003 205.75C213.003 205.585 212.563 205.46 212.503 205.25C212.138 203.98 213.378 203.685 213.503 203.25C214.338 200.34 215.543 198.755 216.503 196L218.003 195.25L217.503 193C218.763 193.12 219.188 192.2 219.003 191C219.408 191.05 219.918 190.91 220.253 191C221.763 191.415 221.848 190.885 222.253 191C222.508 191.075 222.683 191.77 223.503 191.5L223.003 190.25C224.283 189.47 223.798 188.755 224.003 187.75C224.078 187.39 225.023 187.205 224.003 186C225.468 186.33 225.338 184.515 226.253 184C227.033 183.565 226.653 184.25 227.503 182.75C228.523 180.95 230.323 179.065 232.503 179C232.238 178.175 232.898 178.045 233.003 177.75C233.108 177.455 233.488 176.335 233.503 176.25C233.628 175.58 233.423 174.715 233.503 174L235.503 173.5C235.228 172.74 236.003 172.355 236.003 172.25C236.003 172.085 235.563 171.96 235.503 171.75C235.308 171.07 236.093 169.415 236.753 169C236.853 168.935 237.093 169.075 237.253 169C238.028 168.64 237.518 168.55 238.753 169L241.253 167L242.753 168L245.503 167.5V166.5L248.253 166L249.253 167H250.753C251.358 166.17 252.878 165.68 253.753 165.5C254.263 165.395 254.943 165.565 255.503 165.5V166.5C256.788 167.04 257.498 165.295 258.253 165.5C259.413 166.73 260.933 165.535 262.253 165.5L263.003 164C263.823 163.76 263.883 164.31 264.253 164.5C266.038 165.42 266.883 165.79 269.253 165.5C269.438 165.475 269.563 165.035 269.753 165C270.943 164.79 272.118 164.89 273.253 164.5C274.523 166.36 275.913 166.065 278.003 166ZM262.503 174.5L264.253 175L265.003 173.75L261.253 172L260.753 172.5L257.753 171.5L256.503 172V173C255.038 172.165 255.078 173.265 253.253 172.5C253.043 172.41 252.738 172.535 252.503 172.5C252.888 174.3 250.303 173.75 250.003 174.75V176H246.753L246.003 174.5L242.503 176V178.5L240.253 179L238.503 180.75L239.503 182.5C238.433 182.46 237.638 182.295 237.003 183.25L237.503 185H236.503V186H235.503C235.648 186.95 234.953 187.645 234.003 187.5V188.5C233.053 188.305 232.668 189.15 232.003 189.75L233.003 191.75L231.503 193.25L231.003 196C228.953 195.64 228.373 197.75 228.503 199.5H227.003L227.503 200.25C226.868 201.205 226.073 201.04 225.003 201L225.503 203.25C225.478 203.335 224.338 204.475 224.253 204.5C223.943 204.59 223.563 204.41 223.253 204.5C222.263 204.785 220.598 207.45 222.003 208.25C221.233 209.07 220.153 209.63 219.003 209.5C219.198 210.45 218.353 210.835 217.753 211.5L217.003 210.5L218.003 213.75C218.208 214.035 219.633 215.465 219.753 215.5C220.068 215.59 220.458 215.405 220.753 215.5C220.958 215.565 221.068 215.965 221.253 216C222.033 216.14 225.538 216.16 226.253 216C228.268 215.55 231.443 216.515 233.753 216C236.558 215.37 241.363 216.015 244.253 215.5C245.283 215.315 246.588 215.93 247.253 215H247.753C248.663 215.98 249.823 216.525 249.503 218H250.503L249.503 219.75C249.423 220.88 250.123 221.985 251.003 222.75C250.338 223.35 249.953 224.195 249.003 224C249.948 225.595 249.348 227.655 249.503 229.5H248.503C248.758 230.805 247.793 232.04 246.503 232L247.003 234.5C246.448 234.25 245.113 235.345 245.003 235.75C244.783 236.55 245.428 237.69 244.503 238.25C244.503 238.455 245.858 239.015 245.503 240.25C245.448 240.435 242.938 242.945 242.753 243C242.443 243.09 242.063 242.91 241.753 243C240.758 243.285 241.148 244.62 241.003 245.25C240.958 245.44 240.563 245.545 240.503 245.75C240.113 247.035 241.998 247.565 241.503 249H240.503V251C237.783 251.37 238.303 253.76 238.003 255.75C237.973 255.935 237.543 256.055 237.503 256.25C237.398 256.765 237.568 257.44 237.503 258H236.003L236.253 260L236.503 261.5C238.353 262.045 237.138 259.365 237.503 259H238.503C238.398 257.735 239.923 257.5 239.503 256H240.503L241.503 254.25L241.003 253C242.573 252.7 243.648 251.595 245.503 252C245.228 251.195 245.968 250.95 246.003 250.75C246.203 249.655 246.148 249.365 246.503 248.25C246.598 247.955 246.413 247.565 246.503 247.25C246.538 247.13 248.133 245.535 248.253 245.5C248.563 245.41 248.943 245.59 249.253 245.5C249.628 245.39 251.663 242.98 252.503 242.75V240.5H253.503C253.493 240.035 253.803 239.075 254.003 238.75C254.613 237.745 256.183 237.405 256.503 236.75C256.873 235.995 256.113 235.835 255.503 236L256.003 233C256.818 233.075 258.258 233.1 258.503 232.25C258.593 231.94 258.413 231.56 258.503 231.25C258.698 230.565 260.768 230.16 261.503 230V228.5C263.173 228.53 263.183 227.375 263.503 226.25C263.663 225.69 266.353 223.8 266.503 223.25C266.673 222.64 266.323 220.68 266.503 220.5H267.503V219L269.503 218.5L270.003 216H271.003C271.278 215.19 270.553 214.975 270.503 214.75C270.133 213.12 271.228 212.545 272.253 211.5L274.003 212V208.5H275.253L276.003 207.75L275.503 202.5C274.438 203.27 273.958 203.765 272.503 203.5L273.003 204.5C272.118 204.585 271.103 204.375 270.253 204.5C269.743 204.575 268.603 204.845 267.753 205C267.568 205.035 267.458 205.44 267.253 205.5C265.963 205.89 265.598 204.535 264.753 204C264.618 203.915 263.998 204.06 263.753 203.5L262.753 204C262.103 203.05 262.133 203.9 261.753 204C261.243 204.135 260.668 203.755 260.253 204.5L259.503 204V205L255.753 204.5C254.038 205.68 252.713 206.895 250.503 206.5C250.918 205.055 249.108 205.105 249.003 205C248.793 204.79 249.198 204.525 247.753 203.5C247.138 203.065 246.948 202.25 246.003 202.5C246.383 201.595 245.523 200.895 245.503 200.75C245.358 199.75 245.603 198.54 245.503 197.5H247.003V195.5L249.003 196C249.278 195.26 248.498 194.835 248.503 194.75C248.508 194.58 248.948 194.455 249.003 194.25C249.168 193.64 249.173 192.9 249.503 192.25L251.503 190.75V189C254.023 189.04 253.513 185.455 255.503 185.5L256.003 183H257.003V182C258.628 182.385 259.598 180.59 261.003 180.5C261.083 179.955 260.878 179.215 261.003 178.75C261.048 178.585 262.383 177.3 262.503 176.75C262.643 176.105 262.413 175.205 262.503 174.5Z" fill="#37B4B4"/>
<path d="M294.5 129.5C296.61 129.2 298.135 131.135 300 131.5V133C302.1 133.145 303.11 134.94 304.25 136.5L305.75 136C307.135 137.99 310.07 138.2 309.5 141H310.5C310.29 142.87 312.16 144.39 314 144L313.5 145.75C314.63 147.005 315.135 149.4 316 150.75C316.5 151.53 317.115 151.6 318 151.5V153L320.5 153.5C320.235 154.325 320.895 154.455 321 154.75C321.445 155.975 321.605 157.105 321 158.25C321.74 159.275 322.48 161.01 324 161V162.5H323V164H324C324.315 165.07 324.69 166.17 325 167.25C325.345 168.455 329.52 170.235 328.5 172.5H327.5L327 174.75C328.195 176.46 327.925 178.765 328.5 180.75L330.5 182.25V183.5H329.5C329.615 184.345 329.33 185.48 329.5 186.25C329.545 186.45 330.18 186.59 330 187.25C329.945 187.45 329.545 187.555 329.5 187.75C329.385 188.24 329.575 188.945 329.5 189.5H328.5L329 190.5H328C328.03 190.74 327.915 191.035 328 191.25C328.12 191.555 329.375 192.66 329.5 193.25C329.675 194.075 329.655 195.765 329 196.25C329.885 197.37 330.535 197.715 332 197.5V199H330.5L331.5 200.25L330.5 200.5C330.415 201.575 331.61 201.98 330.5 202.75L332.5 205.5H331.5L332 207.25L330.5 209.25L331 209.75L330.5 210.25L331 211.25L329 212.75L329.5 214.5H328.5C328.405 214.595 328.635 215.015 328.5 215.25C327.925 216.26 325.55 216.075 324.75 217.5L322.75 215.5L322.25 216C321.41 216 321.375 213.49 321.5 212.75C321.555 212.42 322.465 212.39 321.5 211.75L322 210H324C324.08 208.995 323.66 207.86 324.5 207.25C324.5 206.89 322.675 204.89 322.5 204.25C322.26 203.37 322.82 202.5 321.5 201.75V201.25C322.32 200.58 322.695 200.105 322.5 199H323.5C323.74 198.18 323.19 198.12 323 197.75C322.65 197.065 322.58 196.63 321.75 196C321.645 195.92 321.355 196.08 321.25 196C320.4 195.355 320.085 194.56 319.5 193.75L322 191.25C322.41 189.765 320.825 188.355 321 187.75C321.64 187 322.685 186.535 322.5 185.5C319.925 185.8 318.64 182.11 320 180.25V179.75C319.045 178.805 318.87 177.4 318.5 176.25C318.375 175.855 317.365 175.59 318.5 174.75C317.395 174.01 317.49 172.28 316 172.5V166.25C315.685 165.195 313.25 163.1 313 162.25C312.905 161.925 313.055 161.4 313 161H311C311.765 159.185 309.69 158.405 309.5 157.75C309.03 156.115 308.605 154.25 306.5 154C306.845 152.36 305.83 151.56 305 150.25L305.5 149C303.275 148.925 303.3 146.24 303 144.5C302.1 144.535 298.84 142.35 298.5 141.75C297.795 140.51 297.915 141.21 296.75 140.5C296.325 140.24 295.94 139.575 295.5 139.25L296 137.5C295.175 137.76 295.07 137.13 294.75 137C294.48 136.89 294.075 137.095 293.75 137C293.16 136.83 293.16 135.5 292 136.5L291.25 135L290 135.5V134.5L287.5 133.5V131.5L282 131C281.97 129.8 282.335 128.715 281.25 128L280 128.5V127.5H278L277.5 125.5C278.65 125.285 279.49 124.77 280.75 125C280.94 125.035 281.065 125.475 281.25 125.5C282.33 125.635 283.785 125.29 284.75 125.5C285.465 125.655 287.035 127.345 287.75 127.5C289 127.77 290.615 127.135 291.75 128.5L293.75 128L294.5 129.5Z" fill="#37B4B4"/>
<path d="M162.5 213H163.5C163.36 214.02 163.83 214.96 164.5 215.75L163.5 218.25C164.14 218.505 163.945 219.445 164 219.5C164.065 219.565 164.96 219.33 165.5 220.25L164.5 220.5C164.695 221.605 164.32 222.08 163.5 222.75L164 223.25L163.5 224.75L164 226H165L164 227.25L164.5 227.75L164 229.75L165 230.75L164.5 232.25L166 233.75L165.5 234.75C166.14 235.5 167.185 235.965 167 237L166 237.25L167.5 238V241.25C167.99 242.23 169.735 241.83 170 242.75C170.085 243.055 169.915 243.435 170 243.75C170.125 244.21 170.625 244.025 170 245.25C170.055 245.445 170.435 245.545 170.5 245.75C170.915 247.04 170.365 248.125 171.5 249.25L171 250.75C172.255 251.595 172.045 252.595 172 254H175L175.5 255.5H174.5L174 257.75C175.5 258.685 176.705 260.335 178.5 260.5C178.58 261.215 178.38 262.08 178.5 262.75C178.57 263.125 178.845 263.975 179 264.75C179.06 265.04 180.16 265.42 179 266.25C179.8 267.435 181.175 266.91 182.5 267V271L185.5 271.5V272.5C186.45 272.355 187.145 273.05 187 274H188.5V275.5C189.28 275.185 190.81 276.08 191 276.75C191.49 278.46 191.855 279.9 194 280V281C195.375 280.79 196.41 281.965 197.5 282.75C197.255 284.065 197.82 284.91 198 286H197L197.5 287.5L196.25 288C195.58 287.18 195.105 286.805 194 287V285.75C193.69 284.955 192.565 285.065 192.5 285C192.435 284.935 192.545 283.81 191.75 283.5L189 285L187.5 281.5C186.69 281.225 186.475 281.95 186.25 282C184.515 282.395 184.28 281.5 183.5 280.25L184 279C183.05 279.145 182.355 278.45 182.5 277.5C180.75 277.68 179.49 276.34 178 276C177.945 275.6 178.095 275.08 178 274.75C177.645 273.515 175.49 272.29 174.25 271.5C173.345 270.92 173.32 268.52 172.5 267.25C171.855 266.25 171.545 267.05 171 265.75C170.87 265.44 169.94 264 169.75 264L169 264.5C169.21 262.915 168.52 261.46 167.25 260.5C166.635 260.035 164.205 258.005 164 257.25C163.885 256.825 164.115 256.175 164 255.75C163.61 254.325 161.58 253.105 162.5 250.5C160.96 250.52 160 248.63 160 247.25L161.5 245.5H159C158.905 244.795 159.14 243.885 159 243.25C158.955 243.05 158.32 242.91 158.5 242.25C159.005 240.425 159.035 236.7 158.5 234.75C158.405 234.4 157.095 233.6 157 233.25C156.78 232.45 157.425 231.31 156.5 230.75V230.25C158.8 228.59 156.625 225.805 157 223.75C157.525 220.875 157 217.545 158 214.25C158.175 213.68 158 213.07 157.5 212.75L159.75 210H161.75C162.85 210.73 162.46 211.85 162.5 213Z" fill="#37B4B4"/>
<path d="M287.499 150H290.499V151C293.149 150.525 294.484 153.35 294.999 155.5C296.099 155.63 297.674 156.175 297.499 157.5L299.999 158V159H300.999V160H301.999C301.729 160.82 302.424 160.99 302.499 161.25C302.619 161.665 302.384 162.325 302.499 162.75C302.639 163.255 304.379 164.06 304.999 164V165.75C305.939 167.02 307.639 166.675 308.499 167.75C306.899 168.665 308.014 170.22 306.999 171.25L308.499 172V176.25C309.039 176.825 310.874 178.815 310.999 179.25C311.084 179.555 310.914 179.935 310.999 180.25C311.099 180.63 311.949 180.6 310.999 181.25L311.499 182.25L310.499 184.75L311.749 186.5H312.999V188H311.999V189H312.999L313.999 193L312.499 193.75L313.999 196.75L311.999 198.25L312.999 199.75L311.999 201.25L313.999 203.75L312.999 206.5L309.999 207C310.369 207.945 309.564 208.5 309.499 208.75C309.304 209.525 309.849 210.375 308.749 211L305.499 209.25V207.5H304.499V204.5H305.499L305.999 202.75L304.499 200.25C304.359 198.875 305.119 198.36 304.499 197.25L305.999 195.25C304.599 193.815 304.784 192.35 304.499 190.75C304.419 190.29 303.234 189.115 304.499 188.25L303.999 187.5H304.999L305.499 186.25L303.999 185.5V183.5L301.999 184C301.919 182.995 302.339 181.86 301.499 181.25L301.999 178.75L300.499 178L299.999 176.25L300.999 175H299.749L297.499 171.75L297.999 170.25L297.499 169.75L297.999 168.75C297.074 168.19 297.719 167.05 297.499 166.25C297.439 166.035 295.069 163.075 294.499 163.5V161.5L293.249 162C291.684 161.235 290.984 159.18 289.499 159C289.794 157.865 289.274 157.405 288.999 156.75C288.889 156.48 289.084 156.085 288.999 156C288.904 155.905 288.484 156.13 288.249 156C287.024 155.315 286.314 153 284.499 153.5V152.5H283.249C282.484 152.275 282.399 150.055 280.999 150.5L280.749 148.5C280.254 148.25 281.119 147.535 281.249 147.5C282.929 147.05 284.509 148.825 285.749 147.5C286.434 148.33 287.659 148.88 287.499 150Z" fill="#37B4B4"/>
<path d="M178.5 226H177.5V227.25L176 228C175.825 229 176.92 229.155 176 229.75C177.86 230.93 176.14 233.07 178 234.25L177.5 234.75C179.665 236.17 178.91 238.18 179 240.5H180.5V241.5L182 242.25L181 244C181.51 243.84 182.375 244.31 182.5 244.75C182.865 246.02 181.615 246.325 181.5 246.75C181.095 248.23 182.59 249.95 184 250C184.105 250.685 183.84 251.665 184 252.25C184.16 252.835 185.76 253.02 184.5 254.5C185.865 254.15 185.985 254.98 186.75 255.5C186.875 255.585 187.155 255.425 187.25 255.5C188.825 256.695 188.16 257.02 188.5 258.25C188.595 258.595 190.87 260.815 191.5 260.5V262H193L192.5 263.75L194 265.75V267.25C192.6 268.055 191.6 269.815 189.75 269.5C189.56 269.465 189.415 269 189.25 269C189.145 269 188.76 269.775 188 269.5V268.5H186.75C186.505 268.43 185.535 266.895 185.5 266.75C185.34 266.035 185.68 264.91 185.5 264.25C185.39 263.85 183.63 262.5 184 261.5C183.445 261.43 182.745 261.615 182.25 261.5C181.68 261.37 180.745 259.99 180.25 261L179 260.25C178.88 259.5 179.18 258.395 179 257.75C178.735 256.785 175.275 255.24 176 253.5H175V252.5H174C174.145 251.26 173.465 250.085 172.5 249.25C173.68 248.565 173.245 247.495 174 246.75C173.12 245.865 172.205 245.37 172.5 244H173.5C173.87 243.055 172.62 242.68 172.5 242.25C172.38 241.82 172.615 241.175 172.5 240.75C172.39 240.355 170.62 238.97 171 238H172V236.75L170.5 236L171 234H170C170.14 232.98 169.67 232.04 169 231.25L170.5 230.25C170.755 229.32 170.02 227.9 171 227.25L170 226H171.5V223.5C173.1 223.73 174.35 223.23 175.75 223L178.5 226Z" fill="#37B4B4"/>
</svg>
