<svg width="367" height="367" viewBox="0 0 367 367" fill="none" xmlns="http://www.w3.org/2000/svg">
<path d="M107.573 126.994V128.159L110.292 128.547C110.269 128.143 109.939 128.279 110.098 127.771C110.269 127.223 110.781 126.831 110.68 126.217H109.127L109.904 125.829C109.861 124.784 110.506 124.085 110.292 122.916C110.187 122.345 109.364 120.31 109.515 119.809C109.946 118.388 109.946 118.205 109.515 116.702C109.461 116.512 108.902 116.182 108.738 115.926V115.537C109.003 115.118 110.21 114.283 110.292 113.984C110.416 113.533 110.09 112.454 110.874 112.236C111.286 112.124 111.954 112.322 112.428 112.236C112.583 112.209 112.774 111.634 113.399 111.848V112.624H115.341C115.045 113.327 115.729 113.906 115.729 113.984C115.729 114.112 115.368 114.225 115.341 114.372C115.17 115.366 115.088 116.058 115.341 116.896H114.564C114.607 117.207 114.49 117.615 114.564 117.867C114.766 118.543 115.834 118.749 114.952 120.586C116.867 121.918 114.42 124.054 115.729 125.635L114.952 126.8L115.341 127.771C116.323 128.182 116.758 127.083 117.088 126.994C117.399 126.908 119.065 126.916 119.418 126.994C119.741 127.064 121.038 128.089 121.36 128.159C121.772 128.248 124.102 128.256 124.467 128.159C124.568 128.132 125.24 127.576 124.855 127.382C124.413 126.862 124.809 125.906 124.661 125.246C124.378 123.988 124.824 122.885 124.273 121.363L125.05 120.198L124.661 119.809C125.053 119.557 125.178 119.095 125.05 118.644C124.786 117.728 125.05 118.069 125.05 117.867C125.05 117.79 124.366 117.211 124.661 116.508C125.83 116.578 126.021 114.974 127.38 115.343V114.178L130.098 114.566L129.71 118.062H128.933L130.098 123.11H129.322C129.442 123.852 129.147 124.994 129.322 125.635C129.411 125.965 130.51 126.4 130.098 127.382L129.322 127.576C130.393 129.145 132.203 128.807 132.428 126.994C133.232 126.85 133.594 127.662 134.176 128.159L135.535 127.382V128.159C136.328 128.112 136.797 127.565 137.671 127.771C137.819 127.805 137.9 128.108 138.06 128.159C138.289 128.233 138.592 128.089 138.836 128.159C139.345 128.306 139.951 129.918 141.361 129.324L140.972 131.072L139.807 132.431H140.584L140.972 134.373H140.196C140.254 134.932 140.106 135.588 140.196 136.12C140.219 136.268 140.584 136.38 140.584 136.509C140.584 136.819 140.017 138.955 139.419 139.227C139.582 139.483 140.145 139.817 140.196 140.004C140.374 140.656 140.312 142.668 139.807 143.111L140.196 143.693H139.031L139.419 144.858H140.196V146.412H139.419L139.031 148.742H139.807C140.013 149.783 139.139 150.365 138.642 151.266L139.031 152.237H138.254L137.089 154.373C137.089 154.501 137.45 154.614 137.477 154.762C137.64 155.713 137.139 156.117 137.089 156.898H136.312V158.063C134.518 158.206 132.498 157.558 131.069 158.839H130.098C130.098 157.36 128.191 157.177 126.991 157.286L126.797 158.063C125.896 157.565 125.314 156.692 124.273 156.898V157.674C123.03 157.853 122.059 157.465 120.972 157.286L119.613 157.674C119.329 158.42 120.114 159.014 120.001 159.422C119.737 160.385 119.449 161.562 119.224 162.529C118.999 163.496 119.376 164.401 120.389 164.276C120.486 165.364 120.389 166.366 119.613 167.189L120.389 168.354C119.294 170.113 119.415 172.378 118.447 174.18C120.063 175.279 118.556 176.506 118.836 178.063C118.863 178.218 119.438 178.409 119.224 179.034C119.659 179.085 120.183 178.952 120.583 179.034C120.91 179.1 122.18 179.729 122.525 179.811C123.453 180.024 125.904 180.444 126.797 180.199C127.011 180.141 127.356 179.485 127.574 179.422C127.955 179.314 128.421 179.617 128.739 179.034L129.516 179.811L131.069 178.646L132.234 179.422L132.623 179.034L134.37 179.422V180.199C134.557 180.176 134.786 180.265 134.953 180.199C135.838 179.846 135.306 180.129 135.73 180.199C138.398 180.642 141.741 177.702 144.273 179.811H144.662C146.642 178.778 148.988 180.778 151.458 180.199V179.422L153.206 179.034C154.048 180.199 156.247 180.199 157.089 179.034L158.254 179.422L158.643 179.034L159.419 179.811L162.332 179.422V178.646H163.497C163.715 177.651 162.895 177.717 162.526 177.481C161.672 176.929 161.656 175.255 162.526 174.762C162.709 174.657 163.035 174.836 163.109 174.762C163.155 174.715 163.148 173.966 163.497 173.597C163.066 173.791 162.029 172.941 161.944 172.626C161.858 172.312 162.033 171.791 161.944 171.461C161.901 171.31 161.598 171.228 161.555 171.073C161.198 169.791 161.594 168.502 161.555 168.354C161.513 168.199 161.202 168.113 161.167 167.966C160.926 166.898 161.649 165.919 161.167 164.859C163.027 163.146 161.322 160.777 162.721 159.422L161.944 157.48L162.332 157.092L161.944 155.15C162.111 151.511 162.332 147.616 162.332 143.887C162.332 143.794 161.365 142.952 162.332 142.334L161.944 141.751L162.721 141.557L161.944 140.392C162.623 139.949 162.216 139.149 162.332 138.45C162.355 138.303 162.717 138.194 162.721 138.062C162.721 137.996 162.119 137.666 162.332 137.091L163.109 136.897C162.456 136.423 162.783 135.542 162.721 134.761C161.901 135.029 161.319 134.151 160.585 134.373C160.049 134.536 159.656 134.986 158.643 134.761C158.499 134.73 158.421 134.439 158.254 134.373C156.969 133.864 155.835 133.507 156.118 131.848C156.146 131.701 156.507 131.588 156.507 131.46C156.507 131.332 156.146 131.219 156.118 131.072C156.017 130.489 156.359 129.899 155.73 129.518C156.569 129.021 156.34 128.543 156.507 127.965C156.569 127.747 157.225 127.402 157.283 127.188C157.718 125.615 156.631 125.289 156.507 124.858C156.437 124.613 156.584 124.306 156.507 124.081C156.414 123.805 155.85 123.475 156.118 122.722H156.895C157.175 122.027 157.144 121.273 157.283 120.586C157.33 120.361 158.184 120.065 157.283 119.421C157.959 118.462 158.845 118.38 159.808 118.062C160.88 119.052 162.297 118.054 163.497 118.062L164.08 119.227L166.216 118.838V118.062C167.074 117.91 167.443 118.201 167.963 118.838H168.352C169.167 117.693 171.031 117.693 171.847 118.838L173.789 117.673C174.317 118.543 177.952 117.759 178.255 118.062V118.838C179.455 119.331 180.045 118.159 180.391 118.062C180.737 117.964 181.226 118.151 181.556 118.062C181.77 118.003 182.119 117.343 182.333 117.285C183.906 116.85 184.251 117.949 184.663 118.062C185.164 118.201 186.022 117.968 186.605 118.062L187.187 116.896C188.177 117.04 189.587 116.695 190.488 116.896C190.644 116.931 190.752 117.425 191.265 117.285C191.56 117.203 191.906 116.644 192.818 116.896C193.152 116.99 193.444 117.961 194.178 117.673C194.084 116.695 194.799 116.364 195.731 116.508V117.285L197.479 117.673L199.421 116.896C199.984 117.693 201.188 116.877 201.751 117.673L202.139 116.896C202.582 117.58 203.393 117.161 204.081 117.285C204.236 117.312 204.426 117.887 205.052 117.673V116.702L205.634 116.12L208.353 116.896L208.741 116.508L209.518 116.896C210.007 116.019 211.724 115.871 212.625 116.12C212.955 116.209 213.192 117.18 214.178 116.896C214.567 116.784 215.091 115.541 215.732 115.731L216.314 116.896C217.359 116.854 218.05 115.844 219.227 116.12C220.827 116.493 220.334 116.271 221.557 116.12C222.59 115.992 223.798 116.209 224.858 116.12C224.571 116.854 225.542 117.145 225.635 117.479C225.728 117.813 225.545 118.314 225.635 118.644C225.72 118.951 227.58 120.966 227.577 121.363C227.103 122.396 226.916 125.592 227.188 126.8C227.223 126.955 227.716 127.064 227.577 127.576C227.363 128.353 227.351 128.811 227.188 129.518C227.142 129.724 226.489 130.31 226.8 131.072L225.441 132.819C224.489 132.877 223.41 133.503 222.334 133.208C222.12 133.149 221.778 132.497 221.557 132.431C220.85 132.217 220.291 133.643 220.198 134.178L220.974 134.955C220.396 135.278 220.691 135.724 220.586 136.12C220.38 136.893 219.67 138.695 220.198 139.615C218.905 140.614 219.18 143.072 220.198 144.276L219.809 145.441C220.637 146.031 220.687 146.59 220.586 147.577H221.363C221.51 148.754 220.007 148.754 219.421 149.713L220.586 152.431C220.955 154.008 219.569 154.226 219.421 154.762C219.332 155.092 219.339 157.107 219.421 157.48C219.685 158.68 219.367 159.997 220.586 160.975L220.198 161.364C221.452 162.898 219.324 164.451 219.809 166.218C218.609 166.094 218.45 167.298 218.644 168.354C218.959 170.067 220.058 171.756 218.644 173.403L219.809 175.345V176.51C219.347 177.364 218.442 177.978 218.644 179.034L219.809 178.646C219.747 179.337 219.899 180.114 219.809 180.782C219.67 181.822 218.683 183.279 220.198 184.277L219.809 184.665L220.198 185.442L219.421 186.607C220.213 187.593 219.646 189.357 219.809 190.685H219.033L219.421 191.267L218.644 192.044L219.033 192.821L218.644 193.209C218.644 193.337 218.986 193.434 219.033 193.598C219.068 193.718 218.734 195.574 218.644 195.928C218.594 196.126 217.969 196.553 218.256 197.287H219.033C219.242 198.413 218.73 199.209 218.644 200.2L220.198 202.336H219.421C219.522 203.322 219.472 203.881 218.644 204.472L219.809 205.637V206.413C219.153 207.458 217.965 208.468 219.033 209.52L217.868 210.685C218.202 210.973 218.963 211.92 219.033 212.239C219.437 214.107 218.734 217.19 219.033 219.229C219.052 219.373 219.386 219.462 219.421 219.618C219.65 220.592 218.703 221.734 219.033 222.919H219.809C219.767 223.233 219.883 223.629 219.809 223.89C219.464 225.148 219.809 224.814 219.809 225.055C219.809 225.183 219.444 225.295 219.421 225.443C219.196 226.791 219.724 227.758 219.809 228.55C219.969 230.018 219.301 231.292 220.78 232.239L221.945 231.463L223.499 232.239L223.887 231.851L225.829 232.239L226.606 231.463L227.771 231.851C228.951 231.028 230.726 232.278 232.043 231.074L235.15 232.239C235.464 231.653 235.957 231.967 236.315 231.851C236.501 231.793 236.583 231.323 237.091 231.463C239.484 232.123 241.251 231.284 244.082 231.851C244.482 231.933 245.006 231.8 245.441 231.851V232.822L244.47 234.181L242.723 233.793V234.569L241.363 234.181L240.587 234.958L240.198 234.569C239.321 234.593 237.806 235.645 237.48 235.735C236.952 235.882 235.111 235.579 234.955 235.735V236.511C234.773 236.484 234.536 236.581 234.373 236.511C233.107 235.983 233.468 236.511 233.208 236.511C233.08 236.511 232.967 236.15 232.819 236.123C232.237 236.022 231.647 236.364 231.266 235.735L230.101 236.511H228.936C228.342 235.502 227.732 235.909 226.994 235.735C226.843 235.7 226.757 235.381 226.606 235.346C225.375 235.059 224.885 235.991 224.276 236.123C223.017 236.395 221.588 236.018 220.392 237.288H219.421C219.538 236.632 219.239 236.123 219.033 235.54C218.897 235.16 218.555 235.366 218.256 235.346V236.511L214.372 236.123V237.288H211.654L211.071 236.123C209.782 237.377 208.034 236.725 206.411 236.9C206.007 236.942 205.203 237.529 204.081 237.288C203.654 237.195 202.656 236.158 202.527 236.123C200.986 235.7 200.283 237.032 199.809 236.9C199.024 236.146 197.716 236.356 197.09 237.288H196.702C196.36 237.071 195.785 236.189 195.537 236.123C194.589 235.863 193.937 236.686 193.013 236.511V237.288C191.999 237.676 190.244 236.737 189.712 236.9C188.038 237.408 188.216 237.327 186.605 236.9C186.209 236.795 185.762 237.09 185.44 236.511L184.857 237.094V238.065C184.527 238.395 183.408 237.37 183.109 237.288C182.779 237.199 182.274 237.377 181.944 237.288C181.816 237.253 180.826 236.259 180.391 236.123L179.226 237.288C178.181 235.715 176.861 236.135 175.148 236.123C175.272 236.515 174.903 237.195 174.565 237.288C173.195 237.665 172.83 236.224 171.847 236.511C170.965 237.556 169.56 236.966 168.74 237.676L167.187 236.511H166.41C165.4 237.634 164.095 237.09 162.915 237.288C162.767 237.311 162.654 237.676 162.526 237.676C162.398 237.676 160.806 236.904 160.002 237.288V236.511C159.12 236.636 157.889 236.333 157.089 236.511C156.2 236.709 155.478 237.028 154.371 236.511C152.262 238.263 149.792 236.822 147.769 237.288C146.374 237.61 146.207 236.616 145.827 236.511C144.728 236.208 143.749 237.071 143.108 236.9L142.526 236.511V237.288C141.182 237.055 138.84 237.61 137.671 237.288C137.423 237.222 136.848 236.34 136.506 236.123L133.982 236.511V237.288C133.236 237.004 132.642 237.789 132.234 237.676C131.974 237.603 131.465 236.989 130.681 237.288L129.516 235.735H127.38C127.057 234.465 126.421 233.004 127.768 232.045L127.38 231.657L128.351 231.074C128.852 231.63 130.254 231.564 131.069 231.463C132.995 231.222 134.553 231.82 136.118 230.686H136.506C137.353 231.408 138.953 231.299 139.613 230.298H140.001C141.011 231.75 143.003 230.845 144.273 230.298H144.662C145.683 231.024 146.992 231.164 148.351 231.074V230.298C149.124 230.406 150.173 230.142 150.876 230.298C151.78 230.499 152.767 230.352 153.594 230.686C153.928 230.822 154.716 231.587 155.147 231.463L155.73 230.298C156.674 230.367 157.718 230.197 158.643 230.298C158.783 230.313 158.884 230.663 159.031 230.686C159.563 230.771 160.219 230.628 160.779 230.686C160.88 229.699 160.829 229.14 160.002 228.55V228.356C160.394 228.48 161.074 228.111 161.167 227.773C161.427 226.829 160.499 225.921 160.779 224.86H160.002C159.579 224.437 162.053 221.827 160.779 221.171C162.025 220.297 161.653 219.128 160.779 218.064L161.167 216.899L160.779 215.346L161.555 214.181L160.779 213.404C161.369 212.946 161.369 211.92 160.779 211.462C161.214 211.272 161.101 210.79 161.167 210.685C161.687 209.862 162.674 209.819 162.332 208.355C162.297 208.204 161.979 208.118 161.944 207.967C161.711 206.973 162.596 206.142 162.332 205.054L161.167 204.472L162.332 200.005H163.109C162.41 199.271 162.437 198.53 161.944 197.869C162.775 197.201 162.08 195.675 162.332 194.763C162.433 194.401 163.474 194.145 163.109 192.821L161.555 191.656C161.882 190.941 161.167 190.188 161.167 190.102C161.167 189.974 161.532 189.861 161.555 189.714C161.645 189.182 161.497 188.526 161.555 187.966H162.332L161.555 184.665L161.944 184.083C161.152 184.176 160.165 183.951 159.419 184.083C158.204 184.3 156.247 184.265 155.147 184.083C154.647 184.001 153.311 183.997 152.817 184.083C152.666 184.11 152.472 184.685 151.846 184.471V185.636C151.664 185.609 151.427 185.706 151.264 185.636C150.914 185.489 149.435 184.859 149.322 184.859C149.194 184.859 149.081 185.224 148.934 185.248C147.842 185.43 146.697 185.096 145.633 185.636V184.859C144.685 184.735 143.827 184.984 143.108 185.636C142.732 185.123 141.636 184.568 141.167 184.471C138.747 183.97 136.079 184.506 133.594 184.859V184.083C132.685 184.191 131.539 183.931 130.681 184.083C128.657 184.444 125.667 184.257 123.69 184.083L122.525 184.859C120.731 183.733 118.646 184.118 116.7 184.471C116.238 184.556 115.644 184.413 115.146 184.471L114.564 183.889V182.918H113.787C113.717 182.848 113.876 182.545 113.787 182.335C113.632 181.962 112.929 181.819 113.787 181.17L113.399 180.782L113.787 180.005C112.284 178.49 114.902 177.197 114.176 176.121C114.568 175.869 114.692 175.407 114.564 174.956C114.21 173.729 114.284 172.704 114.564 171.073C114.812 169.616 113.962 168.075 114.564 166.801C113.589 166.144 113.752 165.368 113.787 164.276H114.564C114.179 163.472 114.952 161.888 114.952 161.752C114.952 161.616 114.591 161.511 114.564 161.364C114.502 160.995 114.653 160.505 114.564 160.199C114.506 159.997 113.966 159.865 114.176 159.228C113.997 159.049 110.816 159.383 110.098 159.228C109.158 159.026 108.373 157.962 106.603 158.451C106.203 158.564 105.336 160.094 104.272 158.839L101.748 159.616L101.36 158.063L99.4179 157.674L99.8062 156.315L99.0295 154.373C100.296 153.472 99.9499 151.973 99.0295 150.878L100.195 150.295L99.4179 147.577H100.195L99.8062 146.994C100.824 146.051 99.5266 144.936 99.8062 143.693H99.0295C98.8858 142.889 99.6975 142.528 100.195 141.946L99.8062 141.169C100.824 140.19 99.4101 139.243 100.195 138.062L99.4179 136.897L100.195 134.955L99.8062 133.596H99.0295C99.0878 133.037 98.9402 132.38 99.0295 131.848C99.146 131.157 99.7713 129.51 99.0295 128.741L99.8062 126.994H107.573ZM186.799 121.557C185.809 122.205 184.989 122.147 184.274 121.168L183.304 121.557V120.78C182.748 120.842 182.076 120.683 181.556 120.78C180.659 120.947 179.063 122.007 178.061 122.333H177.284C176.531 121.825 173.987 121.735 173.012 121.945C172.565 122.042 171.901 122.963 171.07 122.722C170.853 122.66 170.507 122.003 170.294 121.945C169.839 121.821 169.078 122.027 168.546 121.945V123.11L167.575 123.499L165.245 121.945C164.274 121.728 163.963 122.271 163.691 122.333C163.346 122.415 162.853 122.244 162.526 122.333C162.2 122.423 161.901 123.398 161.167 123.11C160.88 123.844 161.509 124.275 161.555 124.469C161.8 125.452 161.598 126.396 161.944 127.188C161.291 127.677 160.942 128.295 161.167 129.13C161.357 129.837 162.561 129.534 162.915 130.101C163.167 129.569 164.592 129.394 164.662 129.324C164.713 129.273 164.627 128.4 165.245 128.159H165.633C165.789 128.202 165.874 128.512 166.022 128.547C166.6 128.675 170.484 128.675 171.07 128.547C171.54 128.446 173.086 127.487 173.789 127.382C174.577 127.266 178.096 127.541 178.255 127.382V126.217C179.358 126.337 179.665 127.371 180.973 126.994V127.771C181.304 128.101 182.453 127.052 182.721 126.994C184.084 126.699 186.073 127.029 186.993 125.829C187.917 127.118 188.772 127.11 190.294 126.994V128.159H192.236C192.042 127.11 192.391 125.871 193.595 126.217C193.813 126.279 194.158 126.936 194.372 126.994C194.702 127.083 195.207 126.904 195.537 126.994C196.096 127.149 196.582 128.757 197.867 126.994H198.255C199.72 128.318 201.739 127.747 203.304 127.382C204.5 127.103 205.56 128.291 206.023 128.159L207.188 126.994L208.935 127.382V128.159C210.011 128.473 211.098 128.376 212.236 128.547C213.91 128.796 214.749 128.524 216.508 128.936C217.6 129.192 218.536 128.283 219.227 128.159C220.042 128.011 221.798 128.427 222.14 127.188C222.264 126.737 222.256 121.891 222.14 121.363C222.108 121.223 221.829 121.141 221.751 120.974C221.697 120.854 221.802 120.671 221.751 120.586C221.557 120.26 221.033 119.957 220.78 119.615C220.481 120.077 219.755 120.128 219.227 120.003C219.075 119.968 218.99 119.65 218.839 119.615C217.557 119.316 216.784 120.687 216.12 120.003L213.013 120.78C212.477 119.992 211.619 119.801 210.683 120.003C210.551 120.031 209.65 120.753 209.518 120.78C207.999 121.11 205.312 120.722 203.692 121.168C203.506 121.219 203.172 121.782 202.916 121.945L201.751 120.78L199.421 121.168L198.255 120.392L197.285 120.78V121.557C196.954 121.887 195.809 120.838 195.537 120.78C194.403 120.528 193.331 121.813 192.43 120.78L191.653 121.557L190.877 121.168L190.488 121.557L190.294 121.168C190.78 118.811 188.29 120.64 187.964 120.392L187.187 119.615L186.799 121.557ZM104.855 131.266L104.078 131.46L104.467 133.402C103.36 134.668 105.826 136.617 104.467 138.062V138.839L105.632 139.421C105.581 139.856 105.713 140.384 105.632 140.781C105.364 142.085 105.484 143.794 105.243 144.664C105.15 144.998 104.059 145.425 104.467 146.412H105.243C105.235 147.596 105.34 149.041 105.632 150.101C105.725 150.435 106.696 150.726 106.408 151.46H105.632V152.626C103.647 152.466 104.902 154.699 105.826 154.956C106.086 155.026 107.507 155.026 107.768 154.956C107.981 154.897 108.331 154.237 108.544 154.179C108.968 154.062 109.674 154.295 110.098 154.179C110.432 154.086 110.723 153.115 111.457 153.402V154.179C112.711 154.028 114.346 154.393 115.535 154.179C116.999 153.919 118.292 154.49 119.418 154.179C119.632 154.121 119.982 153.461 120.195 153.402C121.015 153.177 122.552 153.561 123.496 153.402V154.179C124.42 153.965 125.306 153.596 126.409 153.791C126.56 153.818 126.755 154.393 127.38 154.179L126.991 153.596L127.574 153.014C128.257 154.031 129.12 152.769 129.904 153.014C130.157 153.216 131.322 153.767 131.458 153.791C132.203 153.923 133.19 153.697 133.982 153.791L133.594 151.46H134.759L134.37 150.878C135.046 150.125 135.314 149.157 135.147 148.159C134.778 145.946 135.384 141.689 135.535 139.227L135.147 138.839L135.924 138.062L135.535 136.897L135.924 135.732L135.147 134.955L136.312 134.373V132.042L133.788 131.654L131.846 133.208L129.516 132.042C128.743 132.901 127.24 132.147 126.409 131.654L125.244 132.431L124.079 131.654C122.51 132.594 120.222 131.266 119.03 132.819L118.642 132.431C117.826 133.6 116.533 133.51 116.506 132.042C115.162 132.054 113.849 132.264 112.816 131.266H112.04L110.486 132.431L109.321 131.654C108.214 131.708 107.507 132.512 106.408 131.654V132.431C105.531 132.567 104.773 132.299 104.855 131.266ZM215.149 137.48C215.887 137.631 216.186 136.975 216.703 136.509L216.314 134.567L215.343 133.208L210.683 133.596L208.353 132.042L205.634 133.208C204.749 132.912 203.801 132.967 202.916 132.819C202.768 132.796 202.656 132.431 202.527 132.431C202.399 132.431 202.287 132.796 202.139 132.819C201.254 132.967 200.426 132.839 199.615 133.208V133.984C198.116 134.311 197.098 134.217 195.537 134.761C195.312 134.839 195.207 135.355 194.566 135.149C194.717 134.411 194.061 134.112 193.595 133.596L192.818 134.373L191.071 133.984V134.761L190.1 135.149C189.3 134.361 188.092 135.227 187.381 133.984H186.993C185.443 134.411 183.16 134.578 181.556 134.761C180.756 134.85 179.851 134.699 179.032 134.761V133.984C178.298 134.272 178.006 133.301 177.672 133.208C177.125 133.056 176.173 133.312 175.536 133.208C175.602 134.629 174.655 134.198 173.789 134.373C173.641 134.404 173.556 134.718 173.4 134.761C172.888 134.901 172.779 134.408 172.624 134.373C171.758 134.178 170.958 134.726 170.294 133.596L169.517 133.984L169.128 133.596C168.938 133.899 168.22 134.345 168.158 134.567C168.088 134.811 168.235 135.118 168.158 135.344C168.064 135.619 167.501 135.949 167.769 136.703H168.546C168.787 138.28 168.002 139.441 168.158 140.975H167.381C167.4 142.936 167.21 144.866 167.769 146.606C168.2 147.946 167.225 149.181 168.158 150.49L167.769 151.266L168.546 153.014H167.381C167.257 153.962 167.505 154.82 168.158 155.538C166.666 157.558 167.66 160.637 167.381 163.111H168.158L168.546 164.859L167.381 165.441L166.604 168.937H167.381L166.992 172.238L167.769 174.568C166.833 175.461 167.664 176.89 168.546 177.675L168.158 178.646H167.381V179.422H166.604L166.992 181.558C166.103 182.389 167.497 183.892 167.769 185.054C168.041 186.215 166.398 188.211 168.158 189.326L167.381 191.85H166.604L166.992 192.821L166.604 193.598L167.769 194.18L167.381 195.151L168.546 197.869C167.416 198.794 167.253 199.982 167.381 201.365L168.546 202.141L167.381 203.695V204.472L168.158 205.248V206.413L167.381 207.578C167.159 207.998 167.73 208.177 167.769 208.355C168.037 209.555 167.575 211.505 167.769 212.821H166.604C167.385 213.963 166.985 214.565 166.216 215.54H166.992C167.28 216.274 166.309 216.565 166.216 216.899C165.959 217.823 166.919 218.86 166.604 220.006C166.554 220.192 165.991 220.526 165.827 220.783V221.171C166.06 221.691 166.651 221.66 166.798 221.754C167.726 222.348 167.233 223.066 167.381 223.89C167.408 224.045 167.983 224.235 167.769 224.86C167.031 224.748 166.491 225.288 166.604 226.026H165.827C165.559 226.779 166.123 227.109 166.216 227.385C166.293 227.61 166.146 227.917 166.216 228.162C166.313 228.499 167.276 228.729 166.992 229.715L165.439 231.463L167.575 230.686C168.678 231.226 170.057 230.845 171.07 231.851L173.983 231.074V232.239L175.731 231.851L176.896 233.016C177.237 233.016 176.997 232.639 177.284 232.239C177.428 232.041 178.368 231.098 178.449 231.074C178.872 230.958 181.408 230.985 181.944 231.074C182.092 231.098 182.205 231.463 182.333 231.463C182.461 231.463 182.573 231.098 182.721 231.074C184.539 230.771 185.494 231.89 186.993 232.239C187.937 232.461 188.201 231.956 188.546 231.851C189.304 231.622 189.603 232.22 189.712 232.239C191.366 232.534 192.306 231.688 193.595 231.074C195.494 231.925 198.131 230.503 200.197 231.074C200.411 231.132 200.76 231.793 200.974 231.851C202.341 232.228 204.458 231.688 205.634 232.628C206.17 232.849 206.504 231.933 206.799 231.851C207.891 231.552 213.693 232.138 213.984 231.851L213.596 230.103L213.984 229.521L212.819 228.938L213.207 227.773L213.984 224.084L213.207 224.278C212.873 223.606 213.576 222.86 213.596 222.724C213.895 220.674 212.345 219.785 212.819 217.676C213.172 216.107 212.877 211.427 212.431 209.52C212.24 208.709 213.083 205.283 213.596 204.472L212.819 200.588C212.889 200.04 213.953 198.763 213.984 198.646C214.287 197.543 213.332 196.825 212.819 195.928V195.539L213.984 194.957C214.268 194.215 213.654 193.815 213.596 193.598C213.545 193.419 213.949 192.58 213.596 191.656C213.499 191.407 213.033 190.774 212.819 190.491V189.326L213.596 188.16L212.819 186.607L213.596 184.665L212.431 183.112C213.324 182.37 213.848 181.131 213.596 180.005C213.561 179.857 213.25 179.772 213.207 179.617C213.067 179.104 213.561 178.999 213.596 178.84C213.864 177.679 213.196 177.232 212.431 176.51V176.121C213.444 175.446 213.475 174.63 213.984 173.791L213.596 173.403L213.984 171.849L213.596 171.461L213.984 169.908L213.596 168.742C214.477 167.83 214.054 167.069 214.372 166.024C214.419 165.869 214.718 165.791 214.761 165.636L213.984 163.111H213.207C213.064 162.307 213.875 161.946 214.372 161.364C213.914 159.694 214.116 157.752 215.149 156.315L214.372 154.373L215.926 152.431C215.005 151.635 215.301 150.633 215.149 149.713C215.126 149.565 214.761 149.453 214.761 149.324C214.761 149.196 215.126 149.084 215.149 148.936C215.246 148.35 215.013 147.495 215.149 146.994C215.207 146.781 215.868 146.431 215.926 146.218C216.438 144.357 215.126 141.775 215.926 140.392C215.603 139.872 215.836 139.01 215.537 138.062C215.491 137.911 214.955 137.639 215.149 137.48Z" fill="#EEF4F4"/>
<path d="M251.27 134.761C251.421 135.619 251.13 135.988 250.493 136.508L251.658 137.091V138.062L250.882 139.227L251.27 139.809C250.155 139.615 250.497 140.194 250.493 140.974C252.058 141.398 251.891 139.965 252.047 139.809C252.458 139.398 254.268 139.526 254.959 139.421C255.076 139.405 255.612 138.737 256.319 139.033V138.256C257.057 138.368 257.596 137.829 257.484 137.091C258.552 136.986 259.507 137.052 259.426 138.256H260.202V139.033H261.173L261.756 139.615C261.837 140.357 261.639 141.246 261.756 141.945C261.791 142.163 262.21 143.254 262.144 143.499C262.09 143.693 261.546 143.833 261.756 144.47L263.698 145.44L263.309 146.994C264.226 148 263.045 149.635 264.474 150.489L263.309 151.072L263.698 154.179H262.144V155.344H260.591L260.979 156.509L259.231 156.897C258.711 157.472 257.713 158.338 257.29 157.674L255.736 158.062L254.959 157.285L253.989 157.674V158.451H252.823V160.004L253.794 159.616C254.319 159.868 254.268 160.388 254.377 160.587C254.87 161.484 254.905 161.592 255.154 162.528C255.196 162.688 255.542 162.789 255.542 162.917C255.542 163.045 255.177 163.157 255.154 163.305C255.018 164.113 255.48 165.119 254.765 165.635C255.942 166.478 255.371 167.325 255.542 168.354C255.651 168.998 255.468 169.81 255.542 170.49L254.571 170.101C254.28 170.319 253.67 170.773 253.406 170.878C252.027 171.43 250.404 170.8 248.94 170.49V171.266L246.416 172.431C245.802 171.402 244.256 172.431 244.085 172.431C243.973 172.431 242.749 171.426 242.144 172.431L240.978 171.655L239.813 172.043C238.943 171.356 238.676 170.851 238.843 169.713H237.677C237.6 169.037 237.79 168.214 237.677 167.577C237.65 167.433 237.332 167.344 237.289 167.189C237.184 166.793 237.479 166.346 236.901 166.024L238.454 164.082L238.066 163.693L238.454 162.528C237.27 161.693 237.918 160.113 236.707 159.227C236.081 159.289 235.363 159.138 234.765 159.227C234.621 159.251 234.52 159.592 234.376 159.616C233.301 159.775 232.384 159.219 231.658 160.392H231.269C230.015 159.433 228.765 159.033 227.192 159.227L226.415 155.538L227.192 154.373C226.291 153.608 225.875 152.606 226.027 151.46H226.803C225.984 150.45 226.881 149.013 226.027 148.159C226.741 147.743 226.792 146.749 227.386 146.411C227.568 146.307 227.895 146.485 227.968 146.411C228.042 146.338 227.867 146.011 227.968 145.829C228.827 144.295 232.582 145.017 234.182 144.858V144.081H235.153L236.124 142.139C235.254 142.264 234.827 141.312 234.182 140.78C235.087 140.019 234.706 138.757 235.347 138.062L234.571 135.343L234.959 133.984H235.736V133.207L237.289 132.819V132.042L238.843 131.654V130.877L240.978 131.654C242.664 130.046 245.083 131.867 246.416 129.712H246.804C247.421 130.007 247.876 130.539 248.357 130.877C248.451 130.943 248.668 130.819 248.746 130.877C250.117 131.914 249.46 132.252 249.717 133.401C249.748 133.537 250.027 133.623 250.105 133.79C250.353 134.326 250.33 134.92 251.27 134.761ZM244.668 139.809L245.056 137.673L243.697 135.926L240.396 137.091V136.508L239.231 136.314L240.396 138.838C240.625 139.596 240.027 139.891 240.008 140.003C239.883 140.691 240.303 141.503 239.619 141.945L240.784 142.528L240.396 143.11C241.134 143.615 240.474 143.592 240.396 143.887C240.054 145.165 240.734 146.035 240.008 146.994L240.396 147.965C238.365 147.693 236.792 148.551 234.959 148.742V149.518C233.868 149.778 233.048 148.905 232.046 149.13C231.852 149.173 231.39 149.817 230.687 149.518L232.24 151.266L230.687 153.208C230.671 154.229 230.419 155.177 231.658 155.344C232.073 155.402 233.27 155.433 233.6 155.344C233.972 155.243 235.188 153.456 236.124 153.79V153.014C237.013 153.208 237.79 153.573 238.843 153.402V154.179C240.241 154.862 241.507 155.538 242.92 156.12C243.13 156.206 243.421 156.054 243.503 156.12C242.866 157.107 242.408 158.652 242.726 159.81C242.784 160.023 243.441 160.369 243.503 160.587C243.569 160.823 243.2 163.992 243.114 164.47C242.843 165.965 243.445 166.462 244.474 167.383H244.862C245.188 167.103 245.654 166.816 246.027 166.606C246.718 166.222 247.351 166.082 247.969 165.829C248.218 165.728 248.299 165.239 248.94 165.441V164.276H247.775C248.105 163.088 247.161 161.954 247.386 160.975C247.421 160.823 247.732 160.742 247.775 160.587L246.221 158.256C246.384 158 246.944 157.67 246.998 157.48C247.204 156.769 247.363 155.794 247.775 155.149C247.93 154.909 248.493 154.373 248.746 154.179C248.823 154.12 249.041 154.245 249.134 154.179C249.616 153.841 250.07 153.309 250.687 153.014L254.377 152.625V151.46L255.736 151.072L256.707 151.46C256.594 150.722 257.134 150.182 257.872 150.295L256.319 146.411L251.658 146.023C251.748 147.114 250.92 147.32 249.911 147.188L248.357 146.411C247.899 147.126 247.786 146.283 246.998 146.411L247.386 144.47C246.649 144.621 246.35 143.965 245.833 143.499L246.61 143.305L246.221 141.945L246.61 141.363L245.445 140.78L245.833 140.392L244.668 139.809Z" fill="#EEF4F4"/>
<path d="M264.472 181.364V182.723L263.696 182.918L264.278 183.694C265.063 183.341 266.045 184.059 266.22 184.083C267.253 184.211 268.461 183.993 269.521 184.083V186.413L271.463 187.189L271.851 189.908H271.074C271.137 190.689 270.81 191.57 271.463 192.044L269.909 193.209C270.453 194.471 268.876 195.054 268.744 195.539C268.43 196.685 268.535 197.9 266.803 198.064C267.129 199.229 265.944 199.411 266.026 200.394H263.89L261.365 203.306L261.754 204.277C261.68 204.351 261.354 204.176 261.171 204.277C259.979 204.941 259.964 206.724 258.259 206.607C258.48 207.776 257.486 208.771 256.317 208.549V209.714H255.54C255.257 210.46 256.041 211.054 255.928 211.462C255.886 211.617 255.575 211.699 255.54 211.85C255.451 212.231 255.598 212.778 255.54 213.21L253.21 212.821C253.42 213.458 252.88 213.59 252.822 213.792C252.728 214.114 252.911 214.627 252.822 214.957C252.666 215.516 249.443 218.414 248.55 217.87L248.938 220.2L246.219 220.588C246.196 222.274 244.464 221.932 243.307 222.142C243.19 222.161 242.915 222.752 242.142 222.53C241.924 222.468 241.582 221.816 241.365 221.753C240.724 221.571 239.913 221.388 239.229 221.365V220.2C238.18 220.456 237.967 219.179 237.676 218.841C236.841 217.87 235.823 217.404 234.957 216.511V215.54H235.734L236.122 212.433H237.287L236.899 211.656L238.841 210.879C238.592 209.322 240.495 209.136 240.006 207.384H241.559V206.607C242.678 206.588 242.382 205.959 243.307 205.442C244.639 204.701 244.398 203.885 244.666 202.918C244.794 202.452 246.911 200.693 246.219 199.229C247.804 199.535 247.955 197.966 248.938 197.093L248.55 195.345H249.326V194.568L250.297 194.957L251.657 194.18C251.249 193.19 252.336 192.778 252.433 192.432C252.546 192.044 253.07 190.436 253.21 190.296C253.284 190.223 253.61 190.397 253.792 190.296C254.453 189.931 255.583 188.657 256.317 188.16L255.928 186.995C256.461 185.989 257.051 185.318 258.259 185.248V182.918H260.006L260.589 182.335V181.364C261.024 181.314 261.548 181.446 261.948 181.364C262.096 181.333 262.185 181.011 262.336 180.976C263.245 180.762 263.715 181.345 264.472 181.364ZM263.307 187.966C263.424 187.189 263.253 186.444 262.336 186.413C261.626 186.824 260.573 188.04 260.006 188.355C259.824 188.456 259.497 188.281 259.424 188.355C259.253 190.157 258.181 191.698 257.482 193.209C256.973 194.304 256.037 194.65 255.928 195.733C255.404 195.679 253.323 197.065 253.21 197.481C253.086 197.935 253.291 198.697 253.21 199.229H252.239L251.657 199.811V200.782H250.88L250.491 203.501H249.326V204.277H248.55V205.054C247.26 205.629 245.897 206.957 245.443 208.549H244.472L243.889 209.132V210.103C242.32 210.06 242.903 211.244 242.724 212.239C242.697 212.394 242.122 212.584 242.336 213.21H240.006V213.986H239.229L238.841 215.734L239.229 216.705L241.365 216.316C241.982 216.557 241.897 217.431 241.948 217.482C241.99 217.524 242.72 217.373 242.918 217.87H243.307L243.889 216.705C245.485 217 246.037 216.142 246.219 214.763C247.136 214.685 249.132 212.914 249.326 212.239C249.668 211.046 249.303 211.046 250.297 210.491C250.888 210.161 252.29 208.087 252.433 207.384H253.21L252.433 206.219H253.21V205.442C253.948 205.594 254.247 204.938 254.763 204.471L254.375 203.501C255.066 203.671 255.948 202.382 256.317 201.753C256.561 201.337 256.612 200.506 257.094 200.2L256.317 199.229L258.259 198.258V197.287C259.824 197.594 260.457 195.881 261.754 195.733C261.614 194.359 262.418 193.652 263.501 193.015C263.692 192.902 264.496 192.735 264.667 192.627C264.872 192.494 265.035 192.207 265.249 192.044C265.117 191.252 265.439 190.009 265.249 189.325C265.171 189.038 263.766 187.737 263.307 187.966Z" fill="#EEF4F4"/>
<path d="M241.172 184.083V184.859C242.368 185.209 243.18 185.403 244.473 185.636C244.629 185.663 244.819 186.238 245.444 186.024C245.491 186.335 245.363 186.754 245.444 186.995C245.708 187.787 246.442 188.04 246.221 189.325C246.178 189.582 245.471 189.601 246.221 190.102L245.833 191.85H246.803L247.386 192.432C246.691 192.992 247.091 194.075 246.998 194.957H246.221L245.833 196.898L243.891 197.287V198.452C242.5 198.145 242.912 200.184 242.143 200.394C241.883 200.467 240.461 200.464 240.201 200.394C239.988 200.335 238.481 198.902 238.259 198.84C237.409 198.596 236.135 198.114 235.541 198.84C234.99 198.382 234.244 198.18 233.793 197.481C233.735 197.388 233.852 197.182 233.793 197.093C233.327 196.374 232.485 195.372 232.24 194.762C232.116 194.456 232.446 193.904 231.852 193.597L232.24 190.296H233.017L233.793 188.937C233.133 188.362 233.199 186.863 233.988 186.413C234.17 186.308 234.496 186.486 234.57 186.413C234.621 186.362 234.535 185.488 235.153 185.248C237.009 185.982 238.108 184.281 239.036 184.083C239.642 183.95 240.512 184.172 241.172 184.083ZM241.172 193.403C241.021 192.545 241.312 192.176 241.949 191.656C241.293 191.298 241.704 190.626 241.561 190.102C241.502 189.889 240.846 189.543 240.784 189.325C240.675 188.953 240.733 187.687 239.813 187.966C239.312 188.118 238.807 189.605 237.677 189.131C237.712 190.223 237.875 190.999 236.9 191.656C237.875 192.312 237.712 193.089 237.677 194.18L241.172 193.403Z" fill="#EEF4F4"/>
<path d="M271.076 207.772C271.29 208.398 270.715 208.592 270.688 208.743C270.416 210.281 271.375 211.722 271.076 213.404C271.03 213.656 270.113 214.305 271.076 214.957V215.345C269.97 216.2 269.729 216.845 269.911 218.258H268.746V219.035H267.193V220.2C266.303 219.893 265.577 221.602 265.057 221.753C264.812 221.823 264.505 221.676 264.28 221.753C264.055 221.831 263.95 222.348 263.309 222.142C263.383 220.697 262.389 221.167 261.562 220.977C260.606 220.755 259.437 220.48 258.455 220.2C258.113 220.103 257.829 219.14 257.095 219.423L256.707 212.433C258.136 212.464 258.311 210.437 258.649 209.326L260.591 208.938L260.979 207.384C261.123 207.24 262.637 207.516 263.115 207.384C263.593 207.252 263.752 206.242 265.445 206.607C265.872 206.701 266.87 207.738 266.999 207.772C268.047 208.06 269.519 207.33 269.717 207.384C269.935 207.442 270.335 208.056 271.076 207.772ZM266.028 212.433C265.639 211.163 267.624 210.751 266.222 209.714L262.921 211.268L263.309 212.821C261.231 212.437 260.847 214.161 260.979 215.928L262.727 216.316C263.259 215.672 264.21 215.244 264.086 214.375H265.251V212.433H266.028Z" fill="#EEF4F4"/>
<path d="M186.801 121.557L187.189 119.615L187.966 120.391C188.292 120.64 190.781 118.811 190.296 121.168H189.713C189.146 122.108 187.344 122.337 186.801 121.557Z" fill="#EEF4F4"/>
<path d="M197.677 144.082C198.9 144.342 198.384 143.34 198.454 142.528H201.172C200.958 143.103 201.564 143.433 201.56 143.499C201.557 143.631 201.219 143.728 201.172 143.887C200.885 144.905 202.31 145.254 201.949 146.412H202.725C202.865 146.551 202.593 148.074 202.725 148.548C202.823 148.893 203.995 149.484 203.502 150.684H202.725C202.877 151.542 202.586 151.911 201.949 152.431L202.725 153.208L202.337 153.985C203.592 155.049 202.061 155.915 201.949 156.315C201.821 156.785 202.182 158.097 202.337 158.645C202.434 158.983 203.397 159.212 203.114 160.198C203.052 160.416 202.395 160.762 202.337 160.975C202.221 161.402 202.015 162.206 201.949 162.529C201.867 162.925 201.999 163.453 201.949 163.888H202.725L203.114 166.024C203.075 166.171 202.788 166.249 202.725 166.412C202.329 167.441 201.77 168.439 202.337 169.519L201.56 171.267H202.337L202.725 173.597H201.949C201.751 174.61 202.5 175.57 203.502 175.539V176.315H202.725L202.337 180.199C201.215 179.877 201.254 181.283 201.172 181.364C201.098 181.438 200.772 181.263 200.59 181.364C200.143 181.613 199.351 182.832 199.036 182.917C197.848 183.244 195.467 182.657 194.376 183.694L193.211 182.917L192.434 183.306L191.463 182.917L190.881 184.083C190.251 183.818 189.863 184.436 189.715 184.471C188.589 184.735 187.77 183.508 186.997 184.471L186.414 183.306C185.595 183.244 184.694 183.395 183.89 183.306C183.746 183.29 183.641 182.929 183.502 182.917C182.399 182.824 180.476 183.154 179.618 182.917C178.962 182.735 179.137 181.904 179.036 181.558C178.973 181.341 178.317 180.995 178.259 180.782C178.158 180.409 177.925 179.178 177.87 178.84C177.785 178.304 177.929 177.655 177.87 177.092H177.094L177.482 175.539H178.259C178.5 174.358 177.544 173.426 177.87 172.238C177.936 171.989 178.818 171.414 179.036 171.073L178.647 169.713H177.87L177.482 168.742C179.467 166.715 176.566 164.474 179.036 162.917L178.259 161.752L179.036 160.975C178.286 160.327 177.758 159.414 177.87 158.451L179.036 157.868V157.48C178.993 157.325 178.682 157.239 178.647 157.092C178.123 154.758 178.647 151.903 178.259 149.713C178.239 149.596 177.661 149.34 177.87 148.548L178.259 147.965H177.094L177.482 145.052L179.23 142.528L180.006 142.916L180.395 142.528C180.523 142.528 180.62 142.87 180.783 142.916C181.77 143.2 182.007 142.229 182.337 142.14C183.374 141.856 185.929 142.311 186.997 142.528C188.228 142.777 189.191 142.761 190.492 142.528C191.249 142.392 196.481 142.369 197.094 142.528C197.611 142.664 197.786 143.577 197.677 144.082ZM198.454 156.897C198.372 156.365 198.578 155.604 198.454 155.15C198.395 154.936 197.735 154.587 197.677 154.373C197.37 153.262 198.108 152.734 198.842 152.043L198.065 149.324L199.23 146.606V146.217C198.574 145.227 198.372 144.26 197.094 145.247C196.318 145.849 192.9 146.998 192.046 146.8C189.479 146.198 187.35 148.031 185.443 146.412C184.795 147.309 184.519 146.466 184.278 146.412C183.579 146.256 182.523 146.52 181.754 146.412C181.906 147.666 181.54 149.301 181.754 150.489C181.909 151.367 181.968 152.031 182.142 152.82C182.294 153.503 182.267 155.115 181.754 155.538V156.315L182.919 156.897C182.476 157.604 182.216 158.462 182.919 159.033C182.185 159.577 181.56 161.309 181.754 162.14C181.979 163.111 181.948 163.6 182.142 164.47C182.375 165.519 181.906 168.272 181.754 169.131C181.676 169.573 181.653 171.488 181.754 171.849C181.847 172.183 182.818 172.475 182.531 173.209L180.977 173.597V174.568C181.909 175.356 181.587 176.389 181.754 177.286C181.781 177.43 182.438 177.931 182.142 178.646C182.845 178.35 183.424 179.034 183.502 179.034C183.63 179.034 183.742 178.669 183.89 178.646C184.368 178.568 185.036 178.758 185.443 178.646C185.657 178.587 186.007 177.927 186.22 177.869C187.89 177.407 189.273 178.941 191.269 178.646C191.634 178.591 193.234 177.923 193.599 177.869C194.003 177.811 195.215 177.779 195.541 177.869C195.867 177.958 196.151 178.914 196.9 178.646C196.966 177.527 197.988 177.446 197.677 176.121C197.323 174.614 197.502 173.519 197.288 172.238C197.172 171.539 197.149 170.311 197.677 169.907L196.9 167.577L197.677 166.412L197.288 164.859L198.065 163.111H197.288L197.677 160.587L197.288 160.198L197.677 159.422C196.85 158.831 196.799 158.272 196.9 157.286L198.454 156.897Z" fill="#EEF4F4"/>
<path d="M190.686 193.015C191.202 194.867 188.573 195.974 189.909 197.481L189.132 198.84H188.355V201.947H186.802V203.501C185.831 203.303 185.466 203.807 184.86 204.472C186.181 205.862 188.041 204.53 189.52 204.666V203.889L190.491 204.277L193.598 203.112C194.181 204.138 194.86 203.703 195.54 203.889C196.589 204.176 197.389 206.27 198.453 206.219L198.841 208.549C197.688 208.518 196.996 209.893 196.899 210.879H196.123C196.235 211.617 195.695 212.157 194.958 212.045C195.187 213.109 194.476 213.493 193.792 214.181L194.181 215.346L192.627 217.676L193.016 220.2H192.239V221.559C191.68 221.936 191.008 222.585 190.491 222.919C190.398 222.981 190.188 222.86 190.103 222.919C189.839 223.097 189.505 223.645 189.326 223.695C188.274 223.987 187.416 223.563 186.802 222.724C186.717 221.513 185.843 220.934 187.19 220.006L186.802 218.647C188.056 218.74 188.891 216.581 187.967 215.734V215.346C189.194 214.379 189.757 213.318 188.355 212.239C188.709 211.827 189.183 211.493 189.52 211.074C189.571 211.012 189.451 210.794 189.52 210.685C190.014 209.905 190.95 210.448 190.686 209.326C189.827 209.307 189.214 208.425 188.55 209.326L187.773 208.549L186.996 209.326H186.219C184.744 208.072 183.342 208.413 181.947 209.326C181.59 208.67 180.918 209.081 180.394 208.938C180.328 208.918 179.443 208.033 179.423 207.967C179.008 206.456 180.437 206.169 180.588 205.637C180.658 205.392 180.514 205.089 180.588 204.86C180.654 204.65 181.198 204.468 180.977 203.695C180.561 202.246 181.575 202.402 181.753 201.753C181.99 200.887 181.283 199.551 182.918 199.617L182.53 198.064C183.031 198.165 183.419 197.912 183.695 197.481C184.103 196.84 183.936 196.079 184.083 195.539C184.173 195.213 185.548 194.312 185.637 193.986C185.901 193.027 185.625 191.407 187.19 191.462V190.685C188.39 191.178 188.981 190.005 189.326 189.908C190.076 189.702 190.647 190.028 191.462 189.131C191.152 189.939 192.507 190.448 192.627 190.879C193.012 192.277 191.839 192.895 190.686 193.015Z" fill="#EEF4F4"/>
<path d="M123.497 143.693C121.932 143.798 120.98 145.347 119.808 146.411C119.206 146.33 118.413 146.532 117.866 146.411C117.722 146.38 117.644 146.089 117.477 146.023C116.887 145.79 115.512 145.285 115.341 144.664C115.143 143.941 115.714 142.838 114.953 142.334V141.945C115.703 141.297 116.231 140.384 116.118 139.421L117.672 139.033V138.256H118.448V137.479C119.081 137.266 119.241 137.825 119.419 137.867C119.765 137.949 120.258 137.778 120.584 137.867C120.798 137.926 121.144 138.582 121.361 138.644C121.602 138.714 121.897 138.574 122.138 138.644C122.417 138.726 123.113 139.759 123.497 140.003L123.109 141.945L123.497 143.693Z" fill="#EEF4F4"/>
</svg>
