<svg width="40" height="40" viewBox="0 0 40 40" fill="none" xmlns="http://www.w3.org/2000/svg">
<path d="M9.38867 18.6736V12.0396C9.38867 11.3069 9.9827 10.7128 10.7155 10.7128H17.3494C18.0822 10.7128 18.6762 11.3069 18.6762 12.0396V18.6736C18.6762 19.4063 18.0822 20.0003 17.3494 20.0003H10.7155C9.9827 20.0003 9.38867 19.4063 9.38867 18.6736Z" stroke="#284655" stroke-width="2.85001" stroke-linecap="round" stroke-linejoin="round"/>
<path d="M9.38867 26.6332H13.369" stroke="#284655" stroke-width="2.85001" stroke-linecap="round" stroke-linejoin="round"/>
<path d="M23.9824 31.9421C28.3791 31.9421 31.9432 28.3781 31.9432 23.9814V18.6743" stroke="#284655" stroke-width="2.85001" stroke-linecap="round" stroke-linejoin="round"/>
<path d="M27.9629 14.6932V10.7128H35.9236V14.6932C35.9236 16.8915 34.1415 18.6736 31.9433 18.6736C29.745 18.6736 27.9629 16.8915 27.9629 14.6932Z" stroke="#284655" stroke-width="2.85001" stroke-linecap="round" stroke-linejoin="round"/>
<path d="M29.2852 10.7113V6.7309" stroke="#284655" stroke-width="2.85001" stroke-linecap="round" stroke-linejoin="round"/>
<path d="M34.5938 10.7113V6.7309" stroke="#284655" stroke-width="2.85001" stroke-linecap="round" stroke-linejoin="round"/>
<path d="M4.07812 10.7124V33.2678C4.07812 34.7333 5.26618 35.9213 6.7317 35.9213H21.3264C22.7919 35.9213 23.98 34.7333 23.98 33.2678V10.7124C23.98 7.7813 21.6039 5.40521 18.6728 5.40521H9.38528C6.45422 5.40521 4.07812 7.7813 4.07812 10.7124Z" stroke="#284655" stroke-width="2.85001" stroke-linecap="round" stroke-linejoin="round"/>
</svg>
