<svg width="22" height="22" viewBox="0 0 22 22" fill="none" xmlns="http://www.w3.org/2000/svg">
<g clip-path="url(#clip0_25_2768)">
<path d="M12.3078 21.722C17.6556 21.0746 21.7992 16.5212 21.7992 11C21.7992 5.03535 16.9638 0.199951 10.9992 0.199951C5.03462 0.199951 0.199219 5.03535 0.199219 11C0.199219 16.0652 3.68582 20.3156 8.39042 21.4826L8.59922 20.6H11.8992L12.3078 21.722Z" fill="white"/>
<path d="M8.38916 21.4823V14.3003H6.16016V10.9997H8.38916V9.57774C8.38916 5.90154 10.0524 4.19934 13.6596 4.19934C14.3424 4.19934 15.5214 4.33314 16.0056 4.46694V7.45674C15.7506 7.43094 15.3054 7.41774 14.757 7.41774C12.9858 7.41774 12.303 8.08734 12.303 9.83274V10.9997H15.8328L15.228 14.2997H12.3078V21.7217C10.998 21.8795 9.67054 21.7984 8.38976 21.4823H8.38916Z" fill="#37B4B4"/>
</g>
<defs>
<clipPath id="clip0_25_2768">
<rect width="21.6" height="21.6" fill="white" transform="translate(0.199219 0.199951)"/>
</clipPath>
</defs>
</svg>
