<svg width="24" height="24" viewBox="0 0 24 24" fill="none" xmlns="http://www.w3.org/2000/svg">
<g clip-path="url(#clip0_1_8594)">
<path d="M12.0052 22.3502C17.7208 22.3502 22.3541 17.7169 22.3541 12.0013C22.3541 6.28572 17.7208 1.65234 12.0052 1.65234C6.28963 1.65234 1.65625 6.28572 1.65625 12.0013C1.65625 17.7169 6.28963 22.3502 12.0052 22.3502Z" stroke="#EEF4F4" stroke-width="1.71" stroke-linecap="round" stroke-linejoin="round"/>
<path d="M9.61719 16.778H14.3936" stroke="#EEF4F4" stroke-width="1.71" stroke-linecap="round" stroke-linejoin="round"/>
<path d="M12.0062 16.778V11.2055H10.4141" stroke="#EEF4F4" stroke-width="1.71" stroke-linecap="round" stroke-linejoin="round"/>
<path d="M12.0035 7.6223C11.7837 7.6223 11.6055 7.4441 11.6055 7.22427C11.6055 7.00444 11.7837 6.82623 12.0035 6.82623" stroke="#EEF4F4" stroke-width="1.71" stroke-linecap="round" stroke-linejoin="round"/>
<path d="M12.0039 7.62237C12.2237 7.62237 12.4019 7.44416 12.4019 7.22433C12.4019 7.0045 12.2237 6.82629 12.0039 6.82629" stroke="#EEF4F4" stroke-width="1.71" stroke-linecap="round" stroke-linejoin="round"/>
</g>
<defs>
<clipPath id="clip0_1_8594">
<rect width="24" height="24" fill="white"/>
</clipPath>
</defs>
</svg>
