<svg width="22" height="22" viewBox="0 0 22 22" fill="none" xmlns="http://www.w3.org/2000/svg">
<g clip-path="url(#clip0_25_2776)">
<path d="M7.54899 11C7.54899 9.09471 9.09313 7.54975 10.9984 7.54975C12.9037 7.54975 14.4487 9.09471 14.4487 11C14.4487 12.9053 12.9037 14.4503 10.9984 14.4503C9.09313 14.4503 7.54899 12.9053 7.54899 11ZM5.68384 11C5.68384 13.9353 8.06318 16.3146 10.9984 16.3146C13.9337 16.3146 16.313 13.9353 16.313 11C16.313 8.06476 13.9337 5.68542 10.9984 5.68542C8.06318 5.68542 5.68384 8.06476 5.68384 11ZM15.2814 5.4747C15.2813 5.72034 15.3541 5.9605 15.4905 6.1648C15.6269 6.3691 15.8208 6.52837 16.0477 6.62246C16.2746 6.71656 16.5243 6.74125 16.7652 6.69343C17.0062 6.6456 17.2275 6.5274 17.4013 6.35377C17.5751 6.18015 17.6935 5.95889 17.7415 5.71798C17.7895 5.47708 17.765 5.22734 17.6711 5.00036C17.5772 4.77338 17.4181 4.57934 17.2139 4.44279C17.0097 4.30623 16.7696 4.23329 16.5239 4.23319H16.5234C16.1942 4.23335 15.8784 4.36418 15.6456 4.59696C15.4127 4.82974 15.2817 5.14543 15.2814 5.4747ZM6.81704 19.4247C5.80795 19.3787 5.25949 19.2106 4.895 19.0686C4.41178 18.8805 4.067 18.6565 3.7045 18.2945C3.342 17.9325 3.11762 17.588 2.93032 17.1048C2.78824 16.7405 2.62015 16.1918 2.57428 15.1828C2.52411 14.0918 2.51409 13.7641 2.51409 11.0001C2.51409 8.23616 2.52493 7.90935 2.57428 6.81747C2.62024 5.80838 2.78956 5.26083 2.93032 4.89543C3.11844 4.41221 3.3425 4.06743 3.7045 3.70493C4.0665 3.34243 4.41095 3.11804 4.895 2.93075C5.25932 2.78867 5.80795 2.62058 6.81704 2.57471C7.90801 2.52453 8.23573 2.51451 10.9984 2.51451C13.7611 2.51451 14.0892 2.52536 15.1811 2.57471C16.1902 2.62066 16.7377 2.78999 17.1031 2.93075C17.5863 3.11804 17.9311 3.34293 18.2936 3.70493C18.6561 4.06693 18.8797 4.41221 19.0678 4.89543C19.2099 5.25975 19.378 5.80838 19.4238 6.81747C19.474 7.90935 19.484 8.23616 19.484 11.0001C19.484 13.7641 19.474 14.0909 19.4238 15.1828C19.3779 16.1918 19.209 16.7403 19.0678 17.1048C18.8797 17.588 18.6556 17.9328 18.2936 18.2945C17.9316 18.6561 17.5863 18.8805 17.1031 19.0686C16.7388 19.2107 16.1902 19.3788 15.1811 19.4247C14.0901 19.4749 13.7624 19.4849 10.9984 19.4849C8.23449 19.4849 7.90768 19.4749 6.81704 19.4247ZM6.73134 0.712704C5.62952 0.762881 4.87662 0.937589 4.2191 1.19344C3.53816 1.45766 2.9617 1.81212 2.38566 2.38725C1.80962 2.96238 1.45607 3.53974 1.19185 4.22069C0.936002 4.87862 0.761294 5.63111 0.711117 6.73293C0.660112 7.83649 0.648438 8.1893 0.648438 11C0.648438 13.8108 0.660112 14.1636 0.711117 15.2671C0.761294 16.369 0.936002 17.1214 1.19185 17.7794C1.45607 18.4599 1.80971 19.0379 2.38566 19.6128C2.96162 20.1877 3.53816 20.5417 4.2191 20.8066C4.87786 21.0625 5.62952 21.2372 6.73134 21.2873C7.83548 21.3375 8.18771 21.35 10.9984 21.35C13.8092 21.35 14.162 21.3384 15.2655 21.2873C16.3674 21.2372 17.1198 21.0625 17.7778 20.8066C18.4583 20.5417 19.0352 20.1879 19.6112 19.6128C20.1872 19.0377 20.5401 18.4599 20.805 17.7794C21.0609 17.1214 21.2364 16.3689 21.2858 15.2671C21.3359 14.1627 21.3476 13.8108 21.3476 11C21.3476 8.1893 21.3359 7.83649 21.2858 6.73293C21.2356 5.63102 21.0609 4.87821 20.805 4.22069C20.5401 3.54016 20.1863 2.96329 19.6112 2.38725C19.0361 1.81121 18.4583 1.45766 17.7786 1.19344C17.1198 0.937589 16.3674 0.762053 15.2664 0.712704C14.1628 0.662527 13.81 0.650024 10.9993 0.650024C8.18854 0.650024 7.83548 0.661699 6.73134 0.712704Z" fill="white"/>
<path d="M7.54899 11C7.54899 9.09471 9.09313 7.54975 10.9984 7.54975C12.9037 7.54975 14.4487 9.09471 14.4487 11C14.4487 12.9053 12.9037 14.4503 10.9984 14.4503C9.09313 14.4503 7.54899 12.9053 7.54899 11ZM5.68384 11C5.68384 13.9353 8.06318 16.3146 10.9984 16.3146C13.9337 16.3146 16.313 13.9353 16.313 11C16.313 8.06476 13.9337 5.68542 10.9984 5.68542C8.06318 5.68542 5.68384 8.06476 5.68384 11ZM15.2814 5.4747C15.2813 5.72034 15.3541 5.9605 15.4905 6.1648C15.6269 6.3691 15.8208 6.52837 16.0477 6.62246C16.2746 6.71656 16.5243 6.74125 16.7652 6.69343C17.0062 6.6456 17.2275 6.5274 17.4013 6.35377C17.5751 6.18015 17.6935 5.95889 17.7415 5.71798C17.7895 5.47708 17.765 5.22734 17.6711 5.00036C17.5772 4.77338 17.4181 4.57934 17.2139 4.44279C17.0097 4.30623 16.7696 4.23329 16.5239 4.23319H16.5234C16.1942 4.23335 15.8784 4.36418 15.6456 4.59696C15.4127 4.82974 15.2817 5.14543 15.2814 5.4747ZM6.81704 19.4247C5.80795 19.3787 5.25949 19.2106 4.895 19.0686C4.41178 18.8805 4.067 18.6565 3.7045 18.2945C3.342 17.9325 3.11762 17.588 2.93032 17.1048C2.78824 16.7405 2.62015 16.1918 2.57428 15.1828C2.52411 14.0918 2.51409 13.7641 2.51409 11.0001C2.51409 8.23616 2.52493 7.90935 2.57428 6.81747C2.62024 5.80838 2.78956 5.26083 2.93032 4.89543C3.11844 4.41221 3.3425 4.06743 3.7045 3.70493C4.0665 3.34243 4.41095 3.11804 4.895 2.93075C5.25932 2.78867 5.80795 2.62058 6.81704 2.57471C7.90801 2.52453 8.23573 2.51451 10.9984 2.51451C13.7611 2.51451 14.0892 2.52536 15.1811 2.57471C16.1902 2.62066 16.7377 2.78999 17.1031 2.93075C17.5863 3.11804 17.9311 3.34293 18.2936 3.70493C18.6561 4.06693 18.8797 4.41221 19.0678 4.89543C19.2099 5.25975 19.378 5.80838 19.4238 6.81747C19.474 7.90935 19.484 8.23616 19.484 11.0001C19.484 13.7641 19.474 14.0909 19.4238 15.1828C19.3779 16.1918 19.209 16.7403 19.0678 17.1048C18.8797 17.588 18.6556 17.9328 18.2936 18.2945C17.9316 18.6561 17.5863 18.8805 17.1031 19.0686C16.7388 19.2107 16.1902 19.3788 15.1811 19.4247C14.0901 19.4749 13.7624 19.4849 10.9984 19.4849C8.23449 19.4849 7.90768 19.4749 6.81704 19.4247ZM6.73134 0.712704C5.62952 0.762881 4.87662 0.937589 4.2191 1.19344C3.53816 1.45766 2.9617 1.81212 2.38566 2.38725C1.80962 2.96238 1.45607 3.53974 1.19185 4.22069C0.936002 4.87862 0.761294 5.63111 0.711117 6.73293C0.660112 7.83649 0.648438 8.1893 0.648438 11C0.648438 13.8108 0.660112 14.1636 0.711117 15.2671C0.761294 16.369 0.936002 17.1214 1.19185 17.7794C1.45607 18.4599 1.80971 19.0379 2.38566 19.6128C2.96162 20.1877 3.53816 20.5417 4.2191 20.8066C4.87786 21.0625 5.62952 21.2372 6.73134 21.2873C7.83548 21.3375 8.18771 21.35 10.9984 21.35C13.8092 21.35 14.162 21.3384 15.2655 21.2873C16.3674 21.2372 17.1198 21.0625 17.7778 20.8066C18.4583 20.5417 19.0352 20.1879 19.6112 19.6128C20.1872 19.0377 20.5401 18.4599 20.805 17.7794C21.0609 17.1214 21.2364 16.3689 21.2858 15.2671C21.3359 14.1627 21.3476 13.8108 21.3476 11C21.3476 8.1893 21.3359 7.83649 21.2858 6.73293C21.2356 5.63102 21.0609 4.87821 20.805 4.22069C20.5401 3.54016 20.1863 2.96329 19.6112 2.38725C19.0361 1.81121 18.4583 1.45766 17.7786 1.19344C17.1198 0.937589 16.3674 0.762053 15.2664 0.712704C14.1628 0.662527 13.81 0.650024 10.9993 0.650024C8.18854 0.650024 7.83548 0.661699 6.73134 0.712704Z" fill="white"/>
</g>
<defs>
<clipPath id="clip0_25_2776">
<rect width="20.7" height="20.7" fill="white" transform="translate(0.648438 0.650024)"/>
</clipPath>
</defs>
</svg>
