<svg width="20" height="20" viewBox="0 0 20 20" fill="none" xmlns="http://www.w3.org/2000/svg">
<path d="M19.5045 1.88188V18.1182C19.5045 18.4858 19.3584 18.8383 19.0985 19.0983C18.8386 19.3582 18.486 19.5042 18.1184 19.5042H1.88212C1.51452 19.5042 1.16198 19.3582 0.902054 19.0983C0.642123 18.8383 0.496094 18.4858 0.496094 18.1182V1.88188C0.496094 1.51428 0.642123 1.16174 0.902054 0.901808C1.16198 0.641877 1.51452 0.49585 1.88212 0.49585L18.1184 0.49585C18.486 0.49585 18.8386 0.641877 19.0985 0.901808C19.3584 1.16174 19.5045 1.51428 19.5045 1.88188ZM6.0402 7.62399H3.26815V16.7322H6.0402V7.62399ZM6.27781 4.65393C6.2817 4.33284 6.19029 4.01781 6.01515 3.74867C5.84 3.47952 5.58898 3.26836 5.29382 3.14188C4.99867 3.0154 4.67264 2.97927 4.35695 3.03808C4.04127 3.09689 3.75011 3.24798 3.5203 3.47226C3.29049 3.69653 3.13234 3.98392 3.06585 4.29808C2.99936 4.61223 3.02752 4.93905 3.14677 5.2372C3.26601 5.53535 3.471 5.79145 3.73579 5.9731C4.00058 6.15476 4.31329 6.25383 4.63438 6.25776H4.65418C4.86221 6.26303 5.06924 6.22725 5.26345 6.15248C5.45765 6.0777 5.63522 5.96539 5.786 5.82196C5.93678 5.67854 6.05782 5.50681 6.14221 5.31658C6.2266 5.12636 6.27268 4.92137 6.27781 4.71333V4.65393ZM16.7324 11.2752C16.7324 8.50313 14.8989 7.42599 13.307 7.42599C11.715 7.42599 10.5349 8.35265 10.2735 8.91102H10.2379V7.62399H7.62424V16.7322H10.3963V11.9801C10.3963 10.5188 11.3903 9.86936 12.3565 9.86936C13.1485 9.86936 13.9604 10.4792 13.9604 11.9444V16.7322H16.7324V11.2752Z" fill="white"/>
</svg>
