<svg width="20" height="24" viewBox="0 0 20 24" fill="none" xmlns="http://www.w3.org/2000/svg">
<path d="M17.1675 9.61176H2.83824C1.95893 9.61176 1.24609 10.3246 1.24609 11.2039V20.7568C1.24609 21.6361 1.95893 22.3489 2.83824 22.3489H17.1675C18.0469 22.3489 18.7597 21.6361 18.7597 20.7568V11.2039C18.7597 10.3246 18.0469 9.61176 17.1675 9.61176Z" stroke="white" stroke-width="1.71003" stroke-linecap="round" stroke-linejoin="round"/>
<path d="M15.5749 9.61175V7.22349C15.5749 5.74554 14.9879 4.32812 13.9427 3.28306C12.8977 2.23799 11.4803 1.65088 10.0023 1.65088C8.52435 1.65088 7.10693 2.23799 6.06187 3.28306C5.0168 4.32812 4.42969 5.74554 4.42969 7.22349V9.61175" stroke="white" stroke-width="1.71003" stroke-linecap="round" stroke-linejoin="round"/>
<path d="M10.0031 16.7764C10.4428 16.7764 10.7992 16.42 10.7992 15.9804C10.7992 15.5407 10.4428 15.1843 10.0031 15.1843C9.56346 15.1843 9.20703 15.5407 9.20703 15.9804C9.20703 16.42 9.56346 16.7764 10.0031 16.7764Z" stroke="white" stroke-width="1.71003" stroke-linecap="round" stroke-linejoin="round"/>
</svg>
