<svg width="25" height="24" viewBox="0 0 25 24" fill="none" xmlns="http://www.w3.org/2000/svg">
<path d="M9.31503 15.9781H3.74253C3.32027 15.9781 2.9153 15.8103 2.61672 15.5118C2.31813 15.2132 2.15039 14.8082 2.15039 14.3859V3.24095C2.15039 2.81868 2.31813 2.41372 2.61672 2.11513C2.9153 1.81655 3.32027 1.6488 3.74253 1.6488H19.664C20.0862 1.6488 20.4912 1.81655 20.7898 2.11513C21.0883 2.41372 21.2561 2.81868 21.2561 3.24095V11.5997" stroke="white" stroke-width="1.71" stroke-linecap="round" stroke-linejoin="round"/>
<path d="M2.18945 2.88806L11.7033 9.61116L21.217 2.88806" stroke="white" stroke-width="1.71" stroke-linecap="round" stroke-linejoin="round"/>
<path d="M13.3091 17.8692C12.7589 17.7719 12.7589 16.9688 13.3091 16.8715C15.3023 16.5189 16.8876 14.9751 17.3203 12.9655L17.3534 12.8114C17.4725 12.2585 18.2466 12.2551 18.3704 12.8069L18.4107 12.9864C18.8592 14.9866 20.445 16.5173 22.4326 16.869C22.9856 16.9667 22.9856 17.774 22.4326 17.8717C20.445 18.2234 18.8592 19.7541 18.4107 21.7543L18.3704 21.9337C18.2466 22.4856 17.4725 22.4821 17.3534 21.9293L17.3203 21.7752C16.8876 19.7656 15.3023 18.2218 13.3091 17.8692Z" stroke="white" stroke-width="1.71" stroke-linecap="round" stroke-linejoin="round"/>
</svg>
