<svg width="20" height="20" viewBox="0 0 20 20" fill="none" xmlns="http://www.w3.org/2000/svg">
<path d="M15.9712 8.00952H4.02994C3.29717 8.00952 2.70312 8.60356 2.70312 9.33633V17.2972C2.70312 18.03 3.29717 18.624 4.02994 18.624H15.9712C16.704 18.624 17.2981 18.03 17.2981 17.2972V9.33633C17.2981 8.60356 16.704 8.00952 15.9712 8.00952Z" stroke="white" stroke-width="1.42503" stroke-linecap="round" stroke-linejoin="round"/>
<path d="M14.6451 8.00955V6.01933C14.6451 4.7877 14.1559 3.60652 13.285 2.73564C12.4141 1.86475 11.2329 1.37549 10.0013 1.37549C8.76964 1.37549 7.58846 1.86475 6.71758 2.73564C5.84668 3.60652 5.35742 4.7877 5.35742 6.01933V8.00955" stroke="white" stroke-width="1.42503" stroke-linecap="round" stroke-linejoin="round"/>
<path d="M10.0013 13.9801C10.3677 13.9801 10.6647 13.6831 10.6647 13.3167C10.6647 12.9503 10.3677 12.6533 10.0013 12.6533C9.63491 12.6533 9.33789 12.9503 9.33789 13.3167C9.33789 13.6831 9.63491 13.9801 10.0013 13.9801Z" stroke="white" stroke-width="1.42503" stroke-linecap="round" stroke-linejoin="round"/>
</svg>
