<svg width="40" height="40" viewBox="0 0 40 40" fill="none" xmlns="http://www.w3.org/2000/svg">
<path d="M31.9425 16.0204H8.05987C6.59433 16.0204 5.40625 17.2085 5.40625 18.6741V34.5958C5.40625 36.0614 6.59433 37.2494 8.05987 37.2494H31.9425C33.4081 37.2494 34.5961 36.0614 34.5961 34.5958V18.6741C34.5961 17.2085 33.4081 16.0204 31.9425 16.0204Z" stroke="#284655" stroke-width="2.85006" stroke-linecap="round" stroke-linejoin="round"/>
<path d="M29.2902 16.0195V12.0391C29.2902 9.57584 28.3118 7.21347 26.5699 5.47171C24.8281 3.72993 22.4658 2.7514 20.0025 2.7514C17.5393 2.7514 15.1769 3.72993 13.4352 5.47171C11.6934 7.21347 10.7148 9.57584 10.7148 12.0391V16.0195" stroke="#284655" stroke-width="2.85006" stroke-linecap="round" stroke-linejoin="round"/>
<path d="M20.0026 27.9612C20.7354 27.9612 21.3294 27.3671 21.3294 26.6344C21.3294 25.9016 20.7354 25.3076 20.0026 25.3076C19.2698 25.3076 18.6758 25.9016 18.6758 26.6344C18.6758 27.3671 19.2698 27.9612 20.0026 27.9612Z" stroke="#284655" stroke-width="2.85006" stroke-linecap="round" stroke-linejoin="round"/>
</svg>
