<svg width="25" height="25" viewBox="0 0 25 25" fill="none" xmlns="http://www.w3.org/2000/svg">
<path d="M6.38281 11.7042V7.72381C6.38281 7.28415 6.73923 6.92773 7.17888 6.92773H11.1592C11.5989 6.92773 11.9553 7.28415 11.9553 7.72381V11.7042C11.9553 12.1438 11.5989 12.5002 11.1592 12.5002H7.17888C6.73923 12.5002 6.38281 12.1438 6.38281 11.7042Z" stroke="#284655" stroke-width="1.71" stroke-linecap="round" stroke-linejoin="round"/>
<path d="M6.38281 16.4807H8.77103" stroke="#284655" stroke-width="1.71" stroke-linecap="round" stroke-linejoin="round"/>
<path d="M15.1367 19.6646C17.7747 19.6646 19.9131 17.5262 19.9131 14.8881V11.7039" stroke="#284655" stroke-width="1.71" stroke-linecap="round" stroke-linejoin="round"/>
<path d="M17.5273 9.31595V6.92773H22.3038V9.31595C22.3038 10.6349 21.2345 11.7042 19.9156 11.7042C18.5966 11.7042 17.5273 10.6349 17.5273 9.31595Z" stroke="#284655" stroke-width="1.71" stroke-linecap="round" stroke-linejoin="round"/>
<path d="M18.3203 6.92752V4.53931" stroke="#284655" stroke-width="1.71" stroke-linecap="round" stroke-linejoin="round"/>
<path d="M21.5078 6.92752V4.53931" stroke="#284655" stroke-width="1.71" stroke-linecap="round" stroke-linejoin="round"/>
<path d="M3.19531 6.92745V20.4607C3.19531 21.34 3.90815 22.0528 4.78746 22.0528H13.5442C14.4235 22.0528 15.1364 21.34 15.1364 20.4607V6.92745C15.1364 5.16882 13.7107 3.74316 11.9521 3.74316H6.3796C4.62097 3.74316 3.19531 5.16882 3.19531 6.92745Z" stroke="#284655" stroke-width="1.71" stroke-linecap="round" stroke-linejoin="round"/>
</svg>
