<svg width="32" height="32" viewBox="0 0 32 32" fill="none" xmlns="http://www.w3.org/2000/svg">
<path d="M2.20312 7.00586C2.75984 8.50532 3.8181 9.64028 4.89842 10.4438" stroke="white" stroke-width="2" stroke-linecap="round" stroke-linejoin="round"/>
<path d="M15.4691 11.5459H11.5312" stroke="white" stroke-width="2" stroke-linecap="round" stroke-linejoin="round"/>
<path d="M22.0151 14.7343C21.722 14.7343 21.4844 14.4967 21.4844 14.2036C21.4844 13.9105 21.722 13.6729 22.0151 13.6729" stroke="white" stroke-width="2" stroke-linecap="round" stroke-linejoin="round"/>
<path d="M22.0156 14.7343C22.3087 14.7343 22.5463 14.4967 22.5463 14.2036C22.5463 13.9105 22.3087 13.6729 22.0156 13.6729" stroke="white" stroke-width="2" stroke-linecap="round" stroke-linejoin="round"/>
<path d="M23.1715 5.1643V9.03369C25.2888 10.1621 26.4158 11.8663 26.4158 14.6373L29.7995 16.5401V20.2448C28.2742 22.0368 25.7308 23.4662 23.1715 24.3113V26.6142C23.1715 27.2003 22.6962 27.6757 22.11 27.6757H18.6024C18.0162 27.6757 17.541 27.2003 17.541 26.6142V24.3113H10.5797V26.6142C10.5797 27.2003 10.1045 27.6757 9.5183 27.6757H5.62797C5.19769 27.6757 4.80876 27.4179 4.65572 27.0157C3.05363 22.806 1.79762 16.4518 3.75994 12.397C5.18614 9.45005 7.50986 6.04904 17.1568 7.59198C18.2164 4.98235 21.0016 4.28132 22.461 4.32621C22.8974 4.33963 23.1715 4.7276 23.1715 5.1643Z" stroke="white" stroke-width="2" stroke-linecap="round" stroke-linejoin="round"/>
</svg>
