<svg width="24" height="24" viewBox="0 0 24 24" fill="none" xmlns="http://www.w3.org/2000/svg">
<path fill-rule="evenodd" clip-rule="evenodd" d="M12 24C18.6274 24 24 18.6274 24 12C24 5.37259 18.6274 0 12 0C5.37259 0 0 5.37259 0 12C0 18.6274 5.37259 24 12 24ZM18.0048 8.94603C18.4483 8.39155 18.3585 7.58247 17.8039 7.13889C17.2495 6.6953 16.4404 6.78519 15.9968 7.33968L9.91812 14.938L7.48647 13.1143C6.91841 12.6882 6.11253 12.8034 5.68647 13.3714C5.26044 13.9395 5.37555 14.7454 5.94362 15.1714L9.37219 17.7429C9.92775 18.1596 10.7138 18.0597 11.1476 17.5174L18.0048 8.94603Z" fill="#37B4B4"/>
</svg>
