<svg width="468" height="416" viewBox="0 0 468 416" fill="none" xmlns="http://www.w3.org/2000/svg">
<path d="M201.944 159.057C202.555 160.267 201.695 160.432 201.488 160.828C201.116 161.541 201.073 162.558 200.094 162.986L200.831 163.385C200.395 164.523 199.263 164.979 199.234 166.33L200.021 166.533L199.617 168.106L198.284 168.393C198.818 169.059 199.015 169.776 198.565 170.563C198.213 171.181 195.817 172.444 196.868 173.901L195.879 174.486C196.331 175.256 195.832 175.695 195.766 176.554C195.734 176.991 195.479 177.475 195.412 177.931L194.625 177.729C194.544 179.105 195.568 179.494 194.26 180.781L194.552 181.276L193.563 181.86L193.501 183.732L192.714 183.53C192.344 184.072 192.876 184.532 192.854 184.614C192.83 184.709 191.739 185.821 191.663 185.986C191.095 187.216 191.821 188.161 190.853 189.133L191.236 190.91C190.051 192.01 189.182 193.985 189.577 195.726L188.791 195.524C188.737 195.976 188.445 196.492 188.436 196.901C188.424 197.355 188.953 197.567 188.032 198.475L189.06 199.369L188.02 200.15L188.313 200.645L187.666 201.527C189.441 201.853 187.663 203.187 186.576 202.505L186.907 204.478L185.716 205.849L185.654 207.721L184.867 207.519C184.492 208.114 184.987 208.359 185.008 208.603C185.029 208.848 184.804 209.117 184.805 209.39C184.808 209.626 184.916 210.589 184.895 210.672C184.735 211.294 183.609 213.273 183.591 214.112C183.589 214.266 184.111 214.682 183.681 215.393L183.035 216.276L182.248 216.073L181.832 219.322L181.045 219.12L180.932 221.188L181.719 221.391L180.477 222.959L180.567 224.24C178.943 225.073 180.245 226.616 180.252 227.096C180.263 227.69 179.755 228.587 179.696 229.259L178.858 229.254C179.581 231.059 178.426 233.103 178.228 234.964C177.939 237.688 176.553 242.034 175.114 243.811C176.599 245.64 173.542 247.006 174.979 249.23L174.384 249.916L174.676 250.41L173.585 251.388L173.422 253.653L174.209 253.856L173.046 258.38L174.316 259.965L173.366 262.028L172.579 261.826C172.742 263.638 172.29 265.43 170.921 266.643L171.202 268.812C170.297 269.687 169.186 271.301 169.797 272.646L168.009 274.703C167.968 274.864 168.786 275.809 168.886 276.187C168.941 276.398 168.679 276.683 168.734 276.777C168.784 276.861 169.134 276.787 169.325 276.929C169.473 277.038 169.478 277.342 169.617 277.423C169.911 277.6 170.468 277.554 170.797 277.727C171.051 277.863 171.239 278.503 172.27 278.525C173.792 278.56 173.762 278.921 175.316 279.728C175.453 279.801 175.564 280.459 176.395 280.425C176.62 280.415 176.889 279.906 177.48 280.284L177.278 281.071C177.856 281.451 178.202 280.919 178.363 280.931C181.345 281.161 183.769 283.135 186.721 283.5L186.923 282.713L190.07 283.522L189.868 284.309C191.039 284.325 191.65 285.438 192.718 285.461C194.749 285.505 193.849 286.134 195.764 286.664L197.934 286.383C198.641 287.337 200.206 287.597 201.272 288.081C204.186 289.409 207.111 291.428 210.412 291.689L212.075 293.376C213.285 292.701 215.216 294.116 216.504 294.095C216.601 294.095 217.458 293.778 218.281 293.713C218.525 293.692 218.77 293.197 219.365 293.572L219.163 294.359L219.854 294.118L220.934 294.815L222.71 294.432C223.855 295.818 225.689 297.317 227.33 296.04L227.622 296.535C228.648 295.905 230.029 296.654 229.584 297.878L231.253 298.727C231.523 298.607 232.528 298.241 232.636 298.244C233.571 298.278 234.87 298.722 235.39 298.952C236.602 299.49 237.656 299.241 238.538 299.761C239.015 300.043 239.356 299.254 239.915 300.115L239.583 298.142L240.876 296.378L240.544 294.405L241.876 294.118L241.685 293.23L242.433 291.954L243.22 292.156L242.888 290.184L244.333 287.829L243.546 287.626L244.648 284.973L242.782 284.074C243.02 283.569 243.094 282.648 242.596 282.348C242.011 281.997 241.323 283.17 240.623 282.68L240.421 283.467C239.035 283.375 239.198 281.957 237.672 281.921C237.51 281.917 237.34 282.217 237.178 282.213C235.393 282.174 235.243 280.26 234.637 279.043L232.867 278.588L232.664 279.375C232.147 279.154 231.322 279.164 230.894 278.919C230.554 278.723 230.566 277.602 229.129 277.627C228.766 277.634 228.218 278.542 227.549 278.059L227.752 277.273C227.22 277.056 226.453 277.056 225.981 276.817C225.833 276.741 225.851 276.213 225.296 276.221C225.127 276.224 224.96 276.517 224.801 276.514C223.19 276.464 221.442 275.386 223.092 274.187L221.631 271.714C222.046 271.174 222.836 270.811 223.216 270.443C223.76 269.912 225.226 268.288 225.206 267.599C225.166 266.125 226.974 264.002 227.803 262.394L227.319 261.012L228.41 260.034L227.825 259.045L229.41 257.774C229.797 256.905 229.802 255.354 230.22 254.627C230.396 254.316 231.442 254.328 231.411 253.255C231.405 253.019 230.83 252.498 230.827 252.266C230.816 251.672 231.324 250.775 231.383 250.102L232.564 250.406C232.918 249.289 233.126 248.398 232.929 247.354C233.301 246.707 234.886 246.007 235.009 245.791C235.398 245.111 235.107 243.845 236.009 243.532L235.526 242.149C235.652 241.023 236.413 240.737 237.454 241.176C237.921 240.487 237.028 239.947 237.021 239.597C236.994 238.399 238.445 238.382 238.707 237.933C238.842 237.704 238.775 237.359 238.91 237.146C239.002 236.998 239.33 236.995 239.404 236.854C239.836 236.025 239.674 235.38 239.123 234.685C239.63 234.588 240.778 233.143 240.81 233.021C240.843 232.891 240.502 232.682 240.517 232.526C240.565 231.964 240.886 231.337 240.973 230.756L241.76 230.958C241.551 230.284 241.509 229.778 241.821 229.086C242.085 228.5 243.191 227.35 242.53 226.332L243.62 225.354L243.328 224.86C244.395 224.559 244.269 223.629 245.014 223.196L244.531 221.813C244.612 221.498 246.17 220.054 246.318 219.756C246.957 218.477 247.33 216.115 248.027 214.742C248.172 214.457 248.939 214.524 248.381 213.365L249.713 213.079L249.522 212.191L250.613 211.213L250.472 210.128L249.685 209.925L251.422 208.065L251.13 207.57L251.967 207.576L251.776 206.688C253 207.133 253.749 205.752 253.119 204.726L253.221 204.333L254.553 204.046C254.731 203.941 254.951 202.009 255.21 201.489C255.651 200.608 257.989 199.934 256.908 198.15L257.897 197.566L258.01 195.497L258.757 194.221C258.935 194.116 261.416 195.023 262.102 195.081C263.374 195.19 263.46 195.703 264.361 196.082C265.05 196.372 267.623 197.068 268.296 197.094C269.077 197.123 270.075 195.999 270.96 196.52C271.244 196.686 271.044 197.335 271.747 196.723L272.14 196.824L272.427 198.156C273.522 198.79 274.016 197.638 274.99 197.976L274.787 198.763L278.716 200.612L280.594 199.837L281.369 201.714L283.145 201.332C284.293 201.371 285.656 202.938 286.091 202.928C287.872 202.9 288.255 203.661 288.845 203.637C290.499 203.567 291.657 203.793 292.577 205.435L296.421 205.166L297.984 207.245L298.479 206.953C298.926 207.987 300.583 207.415 301.03 208.448L302.413 207.965C302.796 208.957 303.349 209.154 304.375 209.308L304.172 210.095C305.828 210.752 307.339 210.259 308.995 210.916L308.793 211.703L310.76 212.209L310.507 213.192L312.221 214.682L312.424 213.895L313.699 214.642C314.568 213.775 315.073 214.341 315.869 214.361C316.028 214.364 316.421 213.845 317.151 214.272L317.78 215.902C317.349 216.47 317.873 217.024 317.87 217.183C317.835 218.672 316.781 218.594 316.577 218.948C316.082 219.815 316.571 220.36 316.566 220.623C316.543 221.641 315.157 222.887 315.211 224.26L314.424 224.057C314.109 225.104 314.58 225.981 314.059 227.109C313.489 228.347 313.389 230.238 313.148 230.65C312.804 231.237 312.711 231.729 312.249 232.516C312.144 232.695 311.492 232.884 311.26 233.101C311.944 233.914 311.849 234.494 311.49 235.467L312.277 235.67C312.294 236.484 311.561 236.446 311.136 236.844C311.053 236.923 311.118 237.158 311.035 237.238C309.981 238.221 308.495 238.598 309.832 240.284C309.719 241.262 309.427 241.678 308.539 242.049L308.73 242.937C307.854 243.882 306.122 247.271 306.032 248.535C306.022 248.654 306.551 249.109 306.122 249.817C306.005 250.009 305.429 249.999 305.476 250.699L306.161 251.295L304.981 250.991L303.486 253.543L304.273 253.746L303.767 255.713L302.586 255.409C302.382 255.961 302.36 256.664 302.131 257.18C301.923 257.646 301.533 258.477 300.838 258.945L301.423 259.934L300.625 261.407L300.917 261.901C300.219 262.183 300.037 262.891 300.512 263.475C299.199 264.014 298.248 265.053 298.916 266.42C296.785 266.992 297.438 268.809 296.724 270.051C296.609 270.252 295.849 270.434 295.735 270.636C295.391 271.239 295.392 272.473 295.077 273.193L295.864 273.395C296.065 274.651 294.38 274.809 294.127 275.256C293.634 276.111 294.078 277.42 292.632 277.808L292.317 280.663L290.985 280.95L291.075 282.231L290.288 282.029L290.53 282.72C290.496 282.85 290.125 282.859 290.035 283.012C289.722 283.544 290.04 285.472 289.327 285.767C289.573 286.602 288.493 290.036 288.011 290.881C287.943 291.002 286.632 291.743 286.426 292.152C285.798 293.404 285.868 295.007 284.92 296.378C284.645 296.778 283.704 297.223 283.678 297.947C282.317 297.886 281.893 296.926 281.03 296.007L279.355 295.996C278.99 295.231 278.131 295.618 278.675 294.563L277.838 294.557L278.13 295.052L277.388 295.49L276.309 294.793L275.814 295.085L274.342 294.287C273.334 294.683 272.179 292.615 270.806 292.539L270.958 291.949L270.126 291.106L269.727 291.842C268.349 291.165 268.155 292.281 267.158 292.859C266.728 291.482 265.655 291.806 264.607 291.364C263.793 291.021 262.699 290.123 261.364 290.111L261.566 289.324C259.978 288.664 258.492 288.164 257.446 286.587C257.094 286.731 256.358 287.033 256.063 287.07C254.827 287.23 254.183 286.616 252.814 286.654C252.38 286.664 251.937 285.694 251.145 285.805L250.943 286.592L249.864 285.895C249.619 286.57 249.576 287.419 249.307 288.059C249.178 288.366 247.97 289.099 248.801 290.026L247.711 291.004C247.665 291.395 247.416 291.826 247.407 292.185C247.393 292.63 247.924 292.85 247.003 293.758L247.244 294.45L246.457 294.247C246.385 294.82 246.021 295.486 246.002 296.018C245.989 296.312 246.263 297.419 246.283 298.188C246.289 298.458 246.96 298.949 246.817 299.374L246.03 299.171C246.099 299.831 244.961 300.394 244.788 300.739C244.349 301.612 244.564 301.969 243.787 302.999C243.646 303.189 243.72 303.539 243.636 303.589C243.532 303.65 242.117 303.245 242.152 304.466L240.578 304.061L240.668 305.343L239.19 305.382C239.047 305.299 239.041 304.979 238.897 304.887C237.605 304.073 235.294 303.713 233.681 303.965L231.916 302.673L230.927 303.257L229.454 302.459L228.566 302.65C227.978 301.61 225.956 301.937 224.924 302.133L223.26 300.447L222.372 300.638C222.243 300.604 222.233 300.233 222.08 300.143C221.355 299.718 221.028 300.221 220.799 300.233C219.243 300.328 216.947 298.718 216.572 298.727C216.403 298.729 216.235 299.026 216.077 299.019C214.935 298.96 214.564 298.575 213.413 299.592L210.664 298.046L210.867 297.259C210.415 297.206 209.899 296.914 209.49 296.905C208.572 296.887 206.689 296.542 205.949 295.995L204.959 296.579C204.706 295.738 203.678 296.015 203.093 295.68C202.867 295.55 202.524 294.518 202.217 294.196C202.128 294.102 201.61 294.09 201.531 293.6L200.053 293.64L199.85 294.426L199.063 294.224L199.266 293.437C198.687 293.355 198.048 293.019 197.495 292.982C197.371 292.975 196.939 293.497 196.214 293.072C195.488 292.646 194.09 291.46 192.875 291.374C192.756 291.365 192.301 291.894 191.594 291.464C190.121 290.569 188.72 290.65 188.064 288.879L186.681 289.362L186.389 288.867C184.607 288.749 183.065 288.482 181.971 286.473C180.166 286.625 178.458 284.655 176.654 285.944L176.26 285.843C176.118 285.76 176.116 285.441 175.968 285.349C175.062 284.776 174.255 285.063 173.709 284.348L172.624 284.489C173.062 283.305 171.884 282.83 170.763 282.752C170.64 282.741 170.207 283.267 169.482 282.842C169.143 282.641 168.871 281.317 167.52 281.498L167.318 282.285C166.529 282.401 166.152 281.583 166.042 281.538C164.687 280.967 163.478 281.168 162.203 280.97C162.638 280.255 161.293 278.504 161.287 278.008C161.262 276.424 162.111 276.466 162.681 275.849C163 275.504 163.285 274.708 163.872 274.478L163.591 272.308C164.122 271.778 165.169 270.105 165.188 269.363C165.194 269.176 164.667 268.86 165.047 268.278L165.935 268.087L165.199 267.688C165.26 267.175 165.587 266.588 165.604 266.114C165.619 265.682 165.084 265.444 166.009 264.54L165.424 263.551L166.88 259.521L167.667 259.724C167.72 259.272 168.012 258.755 168.021 258.346C168.037 257.533 168.341 256.222 168.83 255.199C168.892 255.072 169.531 254.922 169.375 254.71L168.589 254.508C168.966 253.677 168.767 253.228 168.257 252.535C168.29 252.405 168.662 252.396 168.752 252.242C169.153 251.561 168.755 251.056 168.369 250.466L169.763 248.308C169.286 247.636 169.628 246.306 170.371 245.947L169.938 244.368L170.775 244.373L170.483 243.879C170.596 243.635 170.559 243.307 170.685 243.092C171.163 242.279 171.372 240.861 171.989 239.652C172.063 239.512 172.4 239.506 172.484 239.36L172.152 237.387L172.939 237.589C173.299 236.616 173.393 236.037 172.709 235.223L173.305 234.537C172.736 233.682 173.531 232.515 173.67 231.485L174.508 231.491C173.917 230.869 174.592 230.137 174.62 229.422C174.641 228.933 173.877 227.809 173.844 227.545C173.821 227.359 173.971 227.15 173.996 226.955L174.783 227.157C174.848 226.335 175.741 226.435 175.137 225.78L175.834 224.701L175.261 222.037L177.543 219.687C177.539 219.523 177.26 219.367 177.251 219.193C177.203 218.383 177.651 216.934 178.06 216.045C178.469 215.156 178.668 214.545 179.061 213.786C179.729 212.493 178.667 212.103 178.932 211.026L179.718 211.228C179.765 210.9 179.957 210.547 179.971 210.245C180.025 209.105 180.406 207.152 181.478 206.018L181.59 203.949L182.922 203.663C182.774 202.803 183.746 202.092 183.771 201.993C183.804 201.864 183.464 201.654 183.479 201.499C183.55 200.666 184.253 197.935 184.592 197.171C184.654 197.027 185.053 197.008 185.086 196.879L184.019 194.507L185.997 193.338C185.994 193.169 185.702 193.002 185.705 192.843C185.785 190.263 187.941 187.524 187.627 185.367L187.728 184.974C188.716 184.708 188.608 184.097 188.92 183.603C189.803 182.206 190.395 180.182 190.337 178.094L192.023 176.431L191.438 175.441L191.641 174.654C192.308 174.36 193.734 171.619 193.732 171.417C193.729 171.248 193.436 171.081 193.439 170.922C193.5 169.021 195.536 168.446 195.238 167.19L196.227 166.606L196.036 165.718C196.858 164.901 197.455 162.714 197.441 161.884C199.677 160.97 197.525 158.475 199.887 157.27L200.477 157.421C200.815 158.192 201.981 157.951 201.944 159.057ZM277.114 204.395L276.131 204.142L274.467 202.456L273.185 202.546C271.666 202.159 269.99 201.187 268.666 200.545C266.544 199.517 264.715 199.91 262.765 199.027C262.618 198.96 262.571 198.327 261.882 198.381C261.709 199.397 260.461 199.274 260.488 200.539L259.701 200.337C259.223 201.006 260.125 201.545 260.134 201.916C260.157 202.723 259.349 202.864 259.285 203.585L258.499 203.383L258.437 205.255L257.346 206.233L258.223 207.717C257.638 208.212 257.198 208.179 256.497 207.902C257.148 209.059 255.56 208.936 255.255 209.47C254.784 210.293 254.797 211.332 255.435 212.033L254.485 214.096C253.777 213.75 253.303 214.337 252.658 214.675L253.395 215.074L253.535 216.159L252.04 218.711L252.332 219.205C250.528 219.828 251.708 221.65 250.876 223.235C249.311 222.715 249.685 224.41 248.746 224.995L249.331 225.984L248.038 227.749L248.128 229.03L247.139 229.615L247.431 230.109L246.936 230.402L247.369 231.981C246.316 231.362 245.989 232.797 245.885 232.858C245.821 232.896 244.958 232.582 244.553 233.145L244.845 233.639C244.066 233.879 244.862 234.57 244.39 235.41L243.603 235.207C243.357 236.424 243.674 237.784 243.035 239.046C242.941 239.232 241.549 240.208 241.793 240.614L242.529 241.014L241.54 241.598L241.922 243.374L240.781 244.549L239.994 244.347L240.236 245.038L238.904 245.325C238.58 246.193 238.703 247.395 237.853 247.781C238.836 248.915 238.361 250.651 236.802 250.237L237.043 250.928C235.968 251.357 236.733 251.809 236.74 252.109C236.747 252.408 236.526 252.763 236.487 253.092L235.7 252.89C235.129 254.345 235.657 255.652 235.031 257.122L234.289 257.561L233.305 257.308C232.924 257.894 233.449 258.201 233.446 258.393C233.425 259.566 233.16 260.27 233.131 261.248C233.086 262.663 232.269 264.046 231.726 265.081C231.39 265.72 231.476 266.313 231.664 266.953C229.991 266.267 228.608 267.941 229.331 269.499L227.887 271.854L231.72 273.259L231.518 274.046C232.741 274.608 233.358 274.23 234.379 273.524L234.772 273.625C235.155 274.617 235.708 274.813 236.734 274.968L236.531 275.755C237.986 276.444 239.214 275.291 240.668 275.98L240.955 277.312L243.911 277.233L244.198 278.566C244.973 278.832 245.951 278.731 246.261 279.516L247.936 279.527L248.228 280.021C250.222 278.399 250.237 280.756 250.881 281.123C251.788 281.642 253.238 281.696 253.349 280.499C254.693 280.312 254.985 281.654 255.31 281.843C255.785 282.116 256.714 282.095 257.277 282.349C257.424 282.416 257.471 283.048 258.16 282.995L257.957 283.782C258.871 283.673 260.29 283.325 261.111 283.754C262.798 284.632 264.375 284.681 265.731 285.361C266.526 285.759 267.615 287.641 269.171 286.666L270.542 287.857C272.073 287.743 274.436 288.879 275.949 289.667C276.778 290.098 277.423 289.937 278.119 289.386L278.406 290.718L279.192 290.921L279.479 292.253L281.053 292.657C282.042 292.383 281.785 291.638 282.098 291.039C282.173 290.894 282.523 290.888 282.593 290.746C282.78 290.362 282.783 289.797 282.947 289.369L284.127 289.673L283.886 288.982C284.34 288.83 284.605 288.386 284.583 287.902C284.554 287.232 284.936 285.552 285.392 284.755C285.507 284.554 286.267 284.371 286.381 284.17C287.12 282.879 286.874 280.182 288.484 279.258L288.394 277.976L289.383 277.392L288.9 276.009L289.99 275.031C289.63 273.789 290.169 273.877 290.395 273.457C290.533 273.199 290.526 272.782 290.648 272.474L291.435 272.676L292.283 271.007L291.901 269.23C292.959 268.689 294.254 266.996 293.599 265.892C294.813 265.151 294.999 263.857 295.296 262.553L296.628 262.266L296.387 261.575L296.881 261.283L296.398 259.9L297.488 258.922L297.399 257.641C299.195 255.858 301.258 253.105 300.895 250.57C301.813 249.61 301.257 248.201 301.704 247.422C301.993 246.918 303.45 247.062 303.492 245.365C303.511 244.636 303.102 245.282 303.795 244.185C304.006 243.853 303.816 243.271 304.492 243.106L303.908 242.116L304.402 241.824L304.11 241.329C304.162 241.129 306.031 240.808 305.999 238.879C305.991 238.516 305.083 237.968 305.566 237.299L306.353 237.502L306.999 236.619L306.808 235.731C308.45 235.235 307.458 234.086 308.202 233.573L307.921 231.403L309.113 230.032L309.023 228.75L310.355 228.464L310.023 226.491L311.164 225.316L310.377 225.114L311.125 223.838C310.702 223.23 311.66 222.033 312.519 221.68C311.713 220.768 312.809 220.357 312.924 220.106C313.158 219.604 313.171 218.882 313.379 218.335C312.104 218.137 311.416 217.126 310.833 216.003C309.71 216.129 308.364 215.439 307.494 214.305C306.299 214.384 305.044 213.507 304.054 213.001C303.349 212.644 300.894 211.622 300.221 211.596C300.113 211.593 299.108 211.96 298.838 212.079L298.445 211.978C298.135 211.273 297.358 210.641 296.781 210.292C295.874 209.74 295.359 210.668 295.005 210.674C293.631 210.698 291.125 209.533 290.587 208.279C289.888 208.909 290.049 208.187 289.8 208.077C289.221 207.819 286.949 207.486 286.849 207.318L287.052 206.531L285.472 206.964L284.393 206.267L283.499 207.296L282.713 207.093L282.915 206.306C281.933 206.209 281.295 205.688 281.645 204.721L281.251 204.62L281.049 205.407L279.082 204.901L279.284 204.114L277.317 203.608L277.114 204.395Z" fill="#37B4B4"/>
<path d="M174.975 169.319L174.671 170.499L173.885 170.297C173.632 171.604 175.154 172.213 174.255 173.748L173.469 173.546L173.8 175.519L172.356 177.874C173.219 178.024 173.296 179.047 174.126 178.329L174.418 178.824L175.16 178.385L174.868 177.891L175.616 176.615L177.189 177.02L176.543 177.902C177.053 178.595 177.252 179.045 176.875 179.875L177.661 180.077C177.711 180.161 177.488 180.427 177.51 180.667C177.577 181.368 177.296 181.938 177.791 182.837C177.756 182.971 177.362 182.987 177.296 183.129C176.9 184.017 176.995 184.562 177.577 185.299L176.385 186.67C177.479 190.018 174.307 193.627 175.823 197.012L175.025 198.485L175.317 198.98L174.62 200.059C175.31 200.916 175.162 201.947 175.143 202.92L175.93 203.122C176.117 204.466 174.775 204.759 174.586 205.084C174.055 206.008 173.191 209.582 174.058 210.401L173.361 211.48L173.653 211.975L172.805 213.644L173.591 213.846L173.086 215.814L173.872 216.016L172.276 218.961L173.063 219.164C173.156 219.993 172.206 220.39 172.214 220.833C172.224 221.381 172.444 222.956 172.394 223.396C172.304 224.153 171.912 224.975 171.787 225.757L172.816 226.65L172.411 228.224L171.624 228.022L171.764 229.107C170.834 229.66 170.484 231.248 169.241 230.765C168.412 232.389 169.563 233.721 168.915 235.295L167.24 235.284C167.293 235.973 166.66 236.02 166.593 236.166C166.206 237.019 165.592 240.892 165.329 241.084L164.84 240.539L164.098 240.977L164.339 241.669C163.442 240.998 162.742 241.992 162.366 242C161.952 242.011 161.559 241.583 161.085 242.09L160.691 241.989C160.521 241.316 159.969 241.501 159.612 241.292C159.2 241.052 158.655 238.001 158.752 237.296L157.965 237.093C158.373 235.768 157.904 235.018 158.775 233.946L157.746 233.052C158.035 232.354 158.039 231.311 158.353 230.691C158.471 230.462 159.397 230.402 158.657 229.511L159.152 229.219C158.284 228.4 158.466 227.268 158.185 226.453C158.042 226.031 157.313 225.227 157.308 224.97C157.298 224.518 157.692 223.885 157.713 223.396C157.734 222.906 156.886 221.145 156.847 220.237L157.05 219.45C158.273 218.951 157.263 217.512 158.05 217.19L157.274 215.313C157.85 215.113 158.025 214.432 158.073 213.841C158.127 213.171 157.665 211.315 158.095 210.491C158.715 209.303 158.807 208.522 159.298 207.444C159.347 207.335 160.018 207.206 159.995 206.365C159.837 205.871 158.831 204.711 158.826 204.386C158.809 203.359 159.813 202.912 159.877 201.93L159.09 201.728C159.038 201.035 159.652 201.012 159.737 200.845C160.265 199.819 159.426 198.987 160.445 198.091L159.86 197.102L161.052 195.731C159.93 193.861 161.658 192.38 161.479 190.807C161.395 190.072 161.066 189.153 161.198 188.637C161.232 188.507 161.631 188.488 161.693 188.345C162.136 187.339 161.887 186.595 161.957 185.686L160.777 185.383L162.446 178.891C162.851 178.328 163.714 178.642 163.778 178.604C163.843 178.566 163.984 177.659 164.672 177.576L165.751 178.273C166.743 177.269 167.709 178.357 168.663 177.553L168.764 177.16C168.285 176.542 168.552 175.503 169.27 175.193L168.685 174.203C169.831 173.647 169.78 172.522 170.18 171.652C170.248 171.501 170.88 171.458 170.827 170.769L170.04 170.567L170.293 169.583C170.754 169.324 171.548 168.178 172.125 168.167C173.149 168.149 173.828 169.326 174.975 169.319ZM169.713 204.46C169.681 204.405 170.025 203.705 169.573 203.375L171.259 201.711L170.585 199.44L171.675 198.462L171.091 197.473C171.787 195.824 172.517 192.383 171.63 190.481C172.65 189.028 172.205 186.371 173.44 185.074L173.148 184.579L173.744 183.894L171.934 181.96L170.259 181.949L169.573 181.353L168.089 182.23C167.524 181.099 166.636 181.667 165.774 182.263L166.066 182.758L165.571 183.05L165.762 183.938C164.596 184.444 165.579 185.582 165.105 186.496L166.819 187.985L165.425 190.144C166.123 193.008 165.703 195.471 163.896 197.72L164.166 201.565L162.659 205.792L163.626 208.557L162.294 208.844C161.816 209.526 162.321 210.059 162.333 210.322C162.367 211.153 161.709 211.265 161.636 211.401C161.165 212.304 161.302 213.337 162.361 213.475C161.313 214.225 162.018 214.532 162.007 214.852C161.983 215.647 161.456 217.534 160.804 217.899L160.602 218.686C161.215 219.972 160.773 220.613 160.287 221.541C159.833 222.41 160.302 223.034 160.124 223.806C160.788 224.061 161.672 224.083 162.288 224.363C162.426 224.428 162.432 224.765 162.58 224.857C163.121 225.185 164.949 224.749 165.537 224.779C165.963 224.8 166.46 225.071 166.914 225.133C167.001 224.551 167.321 223.924 167.369 223.362C167.446 222.493 167.859 222.125 167.875 221.395C167.903 220.194 167.927 218.715 167.605 217.55L168.999 215.392L168.707 214.897L169.797 213.919L169.123 211.649C169.783 210.421 170.289 208.861 169.348 207.512L169.651 206.331L170.742 205.353C170.659 204.665 169.751 204.524 169.713 204.46ZM162.507 235.745L163.255 234.469L163.075 231.906C164.244 231.225 164.569 231.38 164.615 229.995C164.629 229.566 164.317 229.31 165.065 229.062L164.233 228.218L163.345 228.41L163.052 227.915C162.713 228.469 161.212 227.534 161.422 228.544C161.52 229.014 161.878 229.333 161.462 230.023L162.642 230.326C162.545 231.031 162.137 231.816 162.086 232.49C162.073 232.667 162.492 234.172 162.468 234.266C162.443 234.361 160.791 235.551 162.507 235.745Z" fill="#37B4B4"/>
<path d="M240.931 178.731L240.729 179.518C242.073 179.331 242.366 180.673 242.69 180.861C243.415 181.274 244.627 181.028 244.157 182.497L244.944 182.699L244.641 183.88C246.31 184.531 246.619 185.437 245.9 187.14C246.602 187.102 246.558 187.615 246.782 187.786C247.007 187.957 247.993 187.988 248.007 188.73C248.022 189.472 247.431 191.46 246.805 191.777L247.288 193.159L246.591 194.239L246.124 197.684L244.792 197.971C245.508 199.12 244.293 200.351 243.196 200.916C243.765 201.771 242.969 202.938 242.831 203.968L241.65 203.665L241.245 205.238L239.177 205.126L239.419 205.817C238.149 206.661 236.654 206.91 236.591 208.656L236.102 208.11L235.361 208.549L235.108 209.532L233.14 209.027L232.247 210.055C231.687 209.622 231.106 210.152 230.965 210.145C229.345 210.068 229.347 209.326 227.806 211.011L227.514 210.516L226.626 210.707C225.134 209.136 222.333 209.913 220.825 208.796C220.336 208.431 218.914 206.899 218.375 206.907C215.531 206.956 216.647 206.287 214.643 205.109C214.438 204.989 214.262 204.239 214.058 204.119C213.661 203.887 212.942 203.698 212.585 203.321C211.604 202.276 212.576 200.731 211.821 199.769L211.326 200.061L211.04 198.729L209.859 198.425C210.644 197.037 209.337 196.345 209.882 195.075L209.095 194.873L208.955 193.788L210.652 190.45L210.169 189.067L211.018 187.398L210.231 187.195C210.395 186.768 210.399 186.198 210.585 185.818C211.415 184.123 212.68 182.057 213.676 180.321C213.791 180.12 214.551 179.938 214.666 179.737C215.13 178.925 214.763 177.383 216.402 177.876L217.302 176.01C218.435 176.528 220.264 175.421 220.663 174.358L221.45 174.56C221.815 173.4 222.358 173.2 223.333 172.947C223.625 172.871 224.575 172.457 224.716 172.464C225.31 172.486 226.055 172.913 226.683 172.969C226.921 172.989 228.632 172.665 228.852 172.688C230.783 172.896 231.958 174.217 233.574 173.903C233.833 174.72 234.801 174.482 235.44 174.802C235.852 175.009 236.576 176.306 236.71 176.387C238.234 177.295 239.279 178.369 240.931 178.731ZM234.04 177.798C232.678 177.502 231.427 176.673 230.606 175.656C229.8 176.263 228.709 175.416 227.751 175.341C227.607 175.33 227.443 175.606 227.256 175.634C227.021 175.666 226.75 175.432 226.666 175.482C226.359 175.663 225.757 177.467 224.294 176.55L224.092 177.337L222.759 177.623L222.506 178.607L220.438 178.495L220.134 179.675L219.348 179.473L219.145 180.259L218.358 180.057L217.51 181.726L217.701 182.614C215.995 183.585 215.605 185.448 214.227 186.335L214.71 187.718C214.627 188.905 213.258 188.767 213.266 190.073C214.043 190.151 214.449 190.839 214.143 191.557L213.356 191.355L213.153 192.142L213.94 192.344C213.688 193.013 213.662 193.883 213.384 194.508C213.322 194.651 212.923 194.67 212.889 194.8C212.856 194.93 213.18 195.122 213.181 195.295C213.187 196.039 212.951 197.073 213.609 197.712C214.401 198.478 214.505 199.868 215.362 200.679C215.521 200.829 215.897 200.737 215.952 200.831L215.649 202.012L218.009 202.619L218.296 203.951C219.284 204.154 219.977 205.423 221.05 204.659L221.045 205.496C221.874 205.877 222.338 205.67 223.017 205.165C223.723 205.422 225.785 206.456 226.457 206.469C226.616 206.472 226.777 206.186 226.952 206.177C227.203 206.162 227.473 206.386 227.739 206.379C228.114 206.371 228.815 205.376 229.712 206.047C230.083 204.817 233.183 204.604 234.45 204.749L235.192 204.311C234.963 202.444 237.403 202.874 237.867 202.063C238.096 201.664 238.044 200.887 238.272 200.489C238.621 199.882 241.805 198.432 240.566 196.464L242.252 194.801C242.22 193.588 242.37 193.573 242.758 192.833C242.947 192.471 242.94 191.878 243.112 191.456L242.083 190.563C242.438 189.639 241.55 188.672 242.69 188.202L241.87 185.684L241.178 185.926L241.381 185.139L239.413 184.633L239.919 182.665C239.101 182.765 239.059 181.706 238.745 181.524C238.196 181.211 235.922 180.983 235.794 180.766C236.388 179.106 234.214 179.583 233.888 178.388C233.83 178.176 234.096 177.892 234.04 177.798Z" fill="#37B4B4"/>
<path d="M199.885 157.269C198.541 156.232 199.749 155.317 201.076 155.898L201.38 154.717L200.351 153.824L201.099 152.548L202.082 152.801L202.976 151.772L203.859 152.419L205.927 152.531C206.81 153.714 208.76 153.52 209.963 153.149L212.02 154.937C213.783 154.572 216.573 154.766 218.023 156.061L220.192 155.78C220.341 155.869 220.344 156.201 220.485 156.275C221.605 156.861 222.568 156.018 223.638 156.247L223.435 157.034C224.384 157.16 225.477 157.722 226.386 157.792C226.502 157.801 226.96 157.273 227.668 157.703C227.839 158.376 228.39 158.19 228.747 158.4C229.06 158.585 229.058 159.637 230.118 159.591C232.473 159.488 233.211 161.137 235.436 160.12L236.515 160.817L237.796 160.727C238.241 162.016 239.346 161.943 240.545 162.272L240.747 161.486L242.714 161.991L242.512 162.778C244.496 164.165 247.521 164.083 249.69 165.044C249.833 165.106 249.852 165.505 249.982 165.538C250.112 165.572 250.321 165.231 250.477 165.246C252.224 165.398 254.371 166.461 256.182 166.713L255.979 167.5C256.899 167.904 257.698 167.275 258.638 167.764C259.858 168.401 260.236 168.418 261.392 168.472C261.694 168.487 262.048 168.679 262.376 168.725L262.173 169.512C262.755 169.599 263.382 169.916 263.944 169.968C264.099 169.982 264.287 169.662 264.438 169.675C265.406 169.777 267.012 170.53 267.878 170.979C269.148 171.637 269.803 171.323 270.239 171.586C270.442 171.71 270.622 172.461 270.823 172.576C271.08 172.721 274.817 174.077 275.05 174.082C275.205 174.084 275.62 173.562 276.332 173.992C276.481 174.081 276.484 174.413 276.624 174.487C277.638 175.012 278.664 174.71 277.99 176.516L275.82 176.797L276.023 176.01L275.236 175.808L275.033 176.595C274.244 176.711 273.867 175.892 273.757 175.847C271.179 174.765 267.99 173.919 265.394 174.116L263.14 172.278C263.631 173.696 262.252 173.413 261.263 173.053L261.465 172.266C260.55 172.447 259.146 171.251 259.009 171.215C258.871 171.18 258.67 171.522 258.514 171.508C256.824 171.358 255.475 170.357 253.59 171.08C253 169.561 250.901 169.81 250.061 168.495L247.79 169.169L245.339 167.281C243.925 167.852 242.34 166.48 240.809 166.954L239.926 166.308L240.129 165.521L239.342 165.319L238.746 166.005L238.752 165.167L237.47 165.257L236.492 164.167C235.773 164.518 235.195 165.247 234.418 164.892L234.621 164.105L233.44 163.801L233.238 164.588C232.656 164.501 232.03 164.181 231.467 164.133C231.312 164.118 231.103 164.458 230.973 164.425C230.843 164.392 230.831 164.015 230.68 163.93C229.68 163.367 229.176 162.52 228.129 162.435C227.578 162.39 227.005 162.369 226.161 161.929C226.025 161.856 225.913 161.198 225.082 161.232L223.997 161.373L223.795 162.16L221.828 161.654L222.131 160.473C221.424 160.371 220.649 159.975 219.967 159.917C219.697 159.893 219.489 160.603 219.181 159.715L218.686 160.007L218.197 159.462L217.893 160.642L214.746 159.833L215.049 158.652C214.358 158.374 213.859 158.992 213.178 158.59C212.1 157.952 210.408 157.681 209.052 156.69C208.766 156.483 208.184 155.989 207.973 155.993C207.253 156.345 206.676 157.074 205.899 156.719L205.696 157.505L204.91 157.303L205.112 156.516L203.69 155.521L202.459 155.414C201.992 156.104 202.888 156.649 202.892 156.994C202.898 157.671 202.169 158.435 202.779 159.062L201.942 159.057C201.979 157.95 200.813 158.192 200.475 157.421L199.885 157.269Z" fill="#37B4B4"/>
<path d="M192.869 248.168L194.049 248.471L194.252 247.684L199.76 249.101L200.047 250.433L204.661 252.878L203.458 255.924L202.672 255.722L202.469 256.509C201.604 256.152 200.295 256.139 199.518 255.75C199.079 255.532 198.464 254.321 198.248 254.165C198.096 254.055 197.841 254.085 197.658 254.013L197.456 254.8L195.488 254.294L195.691 253.507C195.361 253.469 194.99 253.247 194.707 253.254C194.407 253.261 193.955 254.026 193.527 252.951L191.256 253.625L190.964 253.131L189.485 253.17L189.789 251.99L187.822 251.484L187.619 252.271C187.441 252.196 187.18 252.233 187.029 252.119C186.386 251.635 186.659 251.487 185.455 251.714C184.836 250.535 182.885 250.554 183.404 249.089C181.091 248.801 181.119 247.256 181.853 245.335L183.033 245.638L183.235 244.851C183.539 244.975 183.982 244.964 184.219 245.104C184.771 245.435 184.816 247.154 186.58 245.711C186.954 245.854 187.414 245.859 187.76 246.015C188.29 246.252 190.742 246.996 191.694 247.027C191.853 247.03 192.021 246.737 192.189 246.734L192.583 246.835L192.869 248.168Z" fill="#37B4B4"/>
<path d="M198.412 229.878L198.21 230.664L200.666 231.716L201.166 230.586L201.357 231.474C202.58 231.679 203.893 232.281 205.095 232.435C205.237 232.455 206.289 231.953 206.967 232.497L206.765 233.284L209.62 233.599L209.822 232.812L210.609 233.014C209.964 234.463 211.793 235.831 211.171 237.353L209.991 237.05L209.091 238.916L206.933 237.522L206.731 238.309C206.303 238.144 205.734 238.14 205.354 237.955C205.212 237.885 205.206 237.535 205.061 237.46C204.459 237.146 203.604 236.976 202.999 236.51L203.201 235.723L200.739 235.51C200.7 236.297 199.957 236.428 199.351 236.83C199.024 235.949 197.831 236.2 197.091 235.83C196.352 235.459 195.552 234.004 193.949 234.183L194.152 233.396C192.708 232.664 190.842 232.369 190.032 230.659L188.256 231.041L185.799 229.99L186.609 226.842C187.447 226.974 188.35 227.412 189.166 227.5C189.33 227.517 189.924 227.032 190.841 227.511C193.094 228.686 195.774 229.207 198.412 229.878Z" fill="#37B4B4"/>
<path d="M197.041 214.005L196.838 214.792C197.507 215.274 198.055 214.366 198.418 214.359C199.466 214.343 199.934 215.378 200.677 215.359C202.536 215.309 202.509 216.443 203.229 216.855C203.778 217.168 206.051 217.396 206.18 217.613L206.467 218.945C207.325 219.439 209.053 219.132 209.513 220.148C210.432 219.332 211.176 219.699 212.273 220.019L212.02 221.003L213.684 222.689L211.548 225.286L210.665 224.639L210.868 223.852C210.272 223.477 210.031 223.973 209.783 223.993C209.521 224.014 208.571 224.088 208.501 224.083C207.949 224.046 207.31 223.709 206.731 223.628L206.933 222.841L202.796 222.616L202.999 221.829C201.928 221.474 200.702 221.347 199.654 220.969C197.405 220.156 195.09 218.344 193.179 216.787C192.575 217.311 191.867 216.818 191.111 216.674C190.519 215.373 189.97 214.359 190.594 212.976C190.661 212.83 191.295 212.779 191.24 212.094C191.663 212.261 192.251 212.257 192.617 212.448C192.751 212.516 193.469 213.476 193.595 213.538C194.755 214.117 195.883 213.497 197.041 214.005Z" fill="#37B4B4"/>
<path d="M187.045 264.288C187.499 264.35 188 264.621 188.422 264.642C189.91 264.714 192.519 264.907 194.032 265.665C194.158 265.727 194.883 266.693 195.01 266.755C196.161 267.332 197.408 267.41 198.843 268.16C199.668 268.591 201.134 268.108 202.485 268.678C202.626 268.735 202.629 269.096 202.777 269.172C203.466 269.53 205.036 269.623 204.194 271.005C204.077 271.197 203.501 271.187 203.547 271.887L202.76 271.685L202.558 272.472L199.703 272.157L199.905 271.37C198.188 270.723 196.595 271.681 195.482 269.813C194.491 270.372 193.219 269.818 192.829 268.711L191.053 269.093C189.841 267.523 187.568 268.063 186.039 267.385C185.895 267.322 185.876 266.923 185.747 266.89C185.4 266.801 183.954 267.629 183.487 265.889C182.821 266.423 182.104 266.62 181.318 266.17C181.131 266.064 180.967 265.397 180.733 265.181C180.411 264.884 179.234 264.322 179.215 263.742C179.193 263.078 179.514 262.972 179.912 262.663C181.012 261.813 182.814 262.927 184.195 263.135C184.341 263.156 184.535 262.824 184.69 262.843C185.633 262.943 186.369 263.556 187.349 263.107L187.045 264.288Z" fill="#37B4B4"/>
<path d="M281.442 176.145C281.176 176.916 281.831 177.126 281.037 177.719L282.217 178.022C282.155 178.476 281.884 178.977 281.863 179.399C281.857 179.536 282.383 179.969 281.953 180.681C281.86 180.829 281.523 180.835 281.458 180.973C281.178 181.589 281.157 182.473 280.902 183.137L281.689 183.339L280.143 186.088L280.626 187.471L280.373 188.454L279.587 188.252L279.828 188.943C278.682 189.353 279.442 190.249 279.423 190.517C279.324 191.817 278.205 193.413 278.805 194.553L276.973 195.969L274.612 195.362C273.969 194.764 274.402 194.301 274.376 193.833C274.35 193.365 273.675 192.692 274.781 192.259L274.59 191.371L275.68 190.393L275.691 188.718C276.58 188.41 275.87 188.202 275.894 187.931C276.044 186.204 277.009 186.138 277.389 185.38C277.871 184.417 278.276 182.6 278.299 181.839C278.338 180.582 279.076 180.042 279.109 178.691C279.149 177.199 280.105 177.362 280.402 176.926C280.747 176.415 280.248 175.599 281.442 176.145Z" fill="#37B4B4"/>
<path d="M236.035 232.003C235.347 231.922 234.512 231.468 233.871 231.446C232.543 231.407 232.312 230.823 231.117 230.738C229.679 230.637 227.104 231.287 226.396 229.524L224.721 229.513C224.027 228.671 223.829 227.698 224.395 226.702C224.504 226.508 225.722 226.125 226.025 226.073C226.249 226.034 226.533 226.283 226.812 226.275C227.183 226.266 227.635 225.358 228.588 225.893L229.077 226.438L229.279 225.651C230.569 226.23 231.776 224.523 232.725 226.118L234.501 225.736L236.997 228.265C236.63 229.006 236.965 229.415 237.379 230.041C236.387 230.424 236.19 230.977 236.035 232.003Z" fill="#37B4B4"/>
<path d="M229.348 244.964L227.673 244.953L227.875 244.166L227.184 244.408L226.892 243.913C226.434 244.324 225.384 244.083 224.823 243.801C223.843 243.306 223.424 243.5 223.25 243.396C223.104 243.308 223.099 242.971 222.957 242.901C222.527 242.682 221.826 242.716 221.384 242.497C221.246 242.428 221.239 242.095 221.091 242.002C220.878 241.868 220.534 241.934 220.304 241.8C219.845 241.531 218.805 238.839 219.242 238.59C219.915 238.65 220.812 239.158 221.406 239.147C221.819 239.14 222.242 238.179 223.576 238.866C223.972 239.069 223.909 239.64 225.149 239.271L225.734 240.26C225.864 240.293 226.073 239.953 226.229 239.968C226.836 240.019 229.731 240.734 230.163 240.979C230.712 241.292 230.539 242.372 230.298 242.902C230.183 243.153 229.467 242.986 230.096 243.689L229.348 244.964Z" fill="#37B4B4"/>
<path d="M221.254 261.759C220.725 261.174 220.012 260.882 219.191 260.809C218.65 260.762 217.83 260.866 217.325 259.91L216.336 260.494L215.549 260.292C215.239 259.575 214.2 259.307 213.582 259.786L212.267 257.56C212.94 257.389 212.754 256.838 212.964 256.481C213.262 255.975 214.634 255.841 215.088 255.559C215.218 255.593 215.237 255.992 215.38 256.054C216.8 256.683 218.715 256.983 220.012 255.987L222.597 259.797L221.254 261.759Z" fill="#37B4B4"/>
<path d="M205.753 193.175L205.793 194.653C205.208 195.149 204.768 195.115 204.067 194.839L203.764 196.019L202.583 195.715L201.684 197.581C200.271 196.925 199.381 197.371 198.036 197.902L196.417 196.856L196.327 195.575C197.605 195.19 197.393 193.403 198.851 193.917L199.155 192.736L201.515 193.343L201.718 192.556L205.753 193.175Z" fill="#37B4B4"/>
<path d="M242.974 211.555L242.772 212.342L244.93 213.736C244.089 214.544 243.774 215.771 244.121 216.884C243.194 216.377 242.353 217.365 241.957 216.327L240.574 216.811L239.59 216.558L239.793 215.771C237.851 215.1 238.745 213.27 239.18 211.628L240.417 210.898L242.974 211.555Z" fill="#37B4B4"/>
<path d="M259.046 180.033C259.098 180.726 258.488 180.75 258.399 180.916C257.895 181.881 258.298 182.223 256.859 182.827C256.761 182.868 256.565 182.684 256.466 182.726C255.165 183.268 254.774 184.883 253.206 183.984C253.005 183.87 252.822 183.114 252.621 182.995C252.213 182.756 251.028 182.812 251.003 181.95C250.977 181.15 251.784 180.997 251.851 180.28L253.819 180.786C253.897 180.009 254.584 179.603 255.302 179.91L255.505 179.123C256.186 179.604 256.993 178.964 257.377 179.184C257.523 179.268 257.524 179.604 257.669 179.679C258.031 179.869 258.624 179.862 259.046 180.033Z" fill="#37B4B4"/>
<path d="M208.991 180.585L208.334 183.142L207.002 183.429L206.698 184.609C206.322 184.017 205.671 184.051 205.422 183.861C205.211 183.702 204.585 182.845 204.444 182.771C204.078 182.58 203.49 182.584 203.067 182.417C203.089 181.42 202.951 180.437 203.432 179.365C203.499 179.218 204.133 179.167 204.079 178.482L206.434 179.927L208.991 180.585Z" fill="#37B4B4"/>
<path d="M212.025 271.55C212.792 271.421 213.18 272.246 213.301 272.298C214.599 272.842 216.706 272.628 217.28 273.951C217.48 274.413 217.713 274.666 217.37 275.232C216.679 276.384 215.073 275.552 214.166 275.457C214.014 275.443 213.362 275.942 212.491 275.446L211.075 273.613L212.025 271.55Z" fill="#37B4B4"/>
<path d="M214.59 168.601L214.387 169.388L215.174 169.59L214.972 170.377L216.152 170.681L216.281 173.441C215.888 173.583 215.375 174.11 215.045 174.171C214.154 174.341 214.782 173.038 214.168 172.687C213.857 172.511 213.299 172.56 212.988 172.384C212.593 172.157 211.596 169.706 211.088 169.169L211.835 167.893L214.59 168.601Z" fill="#37B4B4"/>
<path d="M253.796 198.818L251.823 199.15C251.3 198.411 249.738 198.203 250.508 196.924C250.903 196.266 253.056 196.329 253.711 196.699C254.444 197.114 253.82 197.629 253.554 198.127L253.796 198.818Z" fill="#37B4B4"/>
<path d="M282.499 209.555L282.195 210.735C283.002 210.876 283.81 211.436 284.46 210.899L285.832 212.09L287.113 212L287.698 212.989L288.485 213.192L289.474 212.607C290.232 215.256 293.486 213.824 294.476 215.991L296.354 215.215L297.23 216.699C298.574 215.975 299.75 217.356 300.968 217.661L301.171 216.874C301.353 216.946 301.609 216.915 301.761 217.025C301.976 217.182 302.592 218.393 303.031 218.61C303.867 219.031 304.905 219.168 305.684 219.712L306.415 220.949L305.718 222.028L306.392 224.299L304.515 225.074L304.936 228.329L304.149 228.126L303.947 228.913L303.16 228.711C303.134 229.74 301.725 230.263 302.502 231.268L301.513 231.853L301.603 233.134L301.108 233.427L301.845 233.826L300.805 234.607L301.097 235.102L300.603 235.394L301.035 236.973L301.822 237.176L301.569 238.159C300.854 238.869 300.359 238.347 299.647 238.294C299.384 238.273 299.262 238.749 298.467 237.991L296.196 238.665L295.027 236.687C293.907 236.277 292.952 236.812 291.778 236.271C291.636 236.205 291.626 235.833 291.486 235.776C289.798 235.111 287.623 235.366 286.573 233.674L286.174 234.41C285.471 234.452 285.496 233.9 285.292 233.764C285.088 233.627 284.735 233.696 284.505 233.561C284.301 233.442 284.122 232.687 283.92 232.572C283.492 232.328 282.668 232.338 282.15 232.117L282.24 233.398C281.6 232.919 280.744 233.555 280.368 233.336L279.092 232.589L279.396 231.408C278.839 231.207 278.146 231.179 277.625 230.953C275.379 229.981 273.321 228.752 271.038 228.84L270.453 227.85L269.959 228.143L268.981 227.052L267.109 226.99L266.828 224.821L266.232 225.506C265.3 225.183 264.18 225.1 263.281 224.748C261.959 224.227 260.643 223.687 258.953 223.635C258.762 223.627 258.432 224.159 258.065 223.826C257.994 223.27 257.215 223.234 257.183 223.179C257.133 223.095 257.366 222.824 257.334 222.589C257.307 222.402 257.03 222.238 257.042 222.094C257.089 221.473 257.482 220.76 257.548 220.127C257.563 219.972 257.235 219.778 257.256 219.633C257.376 218.824 258.058 215.845 258.369 215.305C258.588 214.925 259.531 215.109 259.662 213.54C259.749 212.467 260.478 211.262 261.359 210.201L260.977 208.425C261.735 208.234 261.493 207.446 261.775 206.952C261.89 206.751 262.645 206.572 262.764 206.368C263.019 205.934 262.863 205.365 263.709 205.143L264.293 206.132L265.282 205.547L265.968 206.143C266.098 206.176 266.285 205.855 266.463 205.851C267.27 205.828 267.41 206.636 268.132 206.7L269.026 205.671L269.712 206.267L271.387 206.278L272.758 207.47L274.635 206.694C275.662 207.285 277.035 207.475 278.075 207.998C278.926 208.427 279.203 210.121 280.829 208.706L282.499 209.555ZM299.855 221.988L297.601 220.15C295.907 219.84 293.087 220.089 291.497 219.42C290.79 219.12 289.478 217.827 288.35 218.61C287.353 217.297 285.789 217.411 284.82 216.025L283.932 216.216C283.41 215.016 281.862 214.576 280.694 214.125L279.312 214.608C278.192 213.645 276.761 212.912 275.58 212.809C273.992 212.67 271.424 212.055 269.97 211.786C268.517 211.517 267.217 211.007 265.839 210.724C265.752 211.306 265.436 211.933 265.384 212.494C265.286 213.56 265.097 214.442 265.069 215.35C265.058 215.687 264.815 216.597 264.664 216.924C264.605 217.055 264.284 217.065 264.169 217.216C264.028 217.406 264.104 217.748 264.018 217.806C263.962 217.842 263.064 217.536 262.685 218.093L264.889 220.127C266.837 219.55 267.486 221.236 269.014 222.027C269.536 222.3 270.278 222.071 270.487 222.825L272.066 222.393C271.751 223.587 272.966 224.52 273.623 225.31C274.791 225.073 275.824 225.431 277.069 225.776L276.866 226.563C278.399 226.475 279.905 226.51 280.896 228.019L283.555 228.283L283.757 227.496C284.44 228.041 285.531 227.533 285.629 227.558C285.759 227.592 285.778 227.991 285.921 228.053C286.385 228.256 287.111 228.237 287.495 228.458C287.696 228.572 287.878 229.332 288.08 229.447C289.012 229.98 291.065 230.366 291.913 230.852C292.407 231.134 293.357 233.082 294.959 232.055L296.629 232.904L296.623 233.741L297.86 233.011L298.416 230.847L299.597 231.15L298.782 227.795L299.619 227.8C300.103 227.191 299.558 226.392 299.58 226.322C299.791 225.68 300.542 223.642 300.884 222.882C300.951 222.736 301.584 222.689 301.53 222L300.058 221.202L299.855 221.988Z" fill="#37B4B4"/>
<path d="M289.636 261.727L289.147 261.181L287.668 261.221L287.809 262.306L286.617 263.677C287.551 264.63 286.503 266.093 288.028 266.347C288.184 267.452 286.967 267.601 286.786 267.915C286.124 269.07 286.4 272.073 284.15 271.642C283.92 272.778 283.327 273.796 283.734 274.89L282.947 274.688C282.803 275.997 281.362 276.445 281.3 277.83L281.631 279.803C280.624 279.51 279.615 280.287 279.552 281.365L278.765 281.163C278.806 281.866 278.261 281.834 278.118 282.045C277.492 282.962 277.089 284.482 275.494 284.097L275.291 284.884L273.717 284.479L273.92 283.692C273.744 283.395 271.355 283.796 271.548 284.76L269.682 283.861C269.626 283.767 269.892 283.483 269.833 283.271C269.534 282.166 267.955 282.565 267.63 281.236L266.641 281.82L266.349 281.326L264.179 281.607L262.279 278.392C263.018 277.608 264.056 277.242 264.117 276.138L264.904 276.34C265.045 275.533 265.605 274.725 265.067 274.075L266.208 272.9L265.18 272.007L265.382 271.22C266.144 271.03 265.893 270.227 266.18 269.747C266.883 268.564 268.56 267.8 269.058 266.712C269.338 266.096 269.36 265.212 269.615 264.548L270.947 264.261L270.756 263.373C271.473 263.063 271.74 262.024 271.262 261.406L272.251 260.821L272.453 260.035C271.637 259.116 272.004 258.371 272.324 257.275L273.111 257.477L275.792 254.391L276.478 254.987L277.759 254.897C278.07 255.955 279.647 256.461 280.704 256.494C282.336 256.544 282.951 256.874 284.437 258.292C285.897 258.957 288.699 259.007 289.945 259.709C290.04 259.763 290.576 260.5 290.136 260.597L289.636 261.727ZM284.824 259.231C283.48 259.061 282.311 259.445 281.075 259.945C280.501 258.979 278.906 259.114 277.832 258.691L277.529 259.872L276.742 259.669L276.983 260.361L276.489 260.653C277.061 261.673 275.268 262.596 276.022 264.098L275.235 263.896C274.94 264.684 274.901 265.719 274.578 266.453C274.516 266.597 274.116 266.616 274.083 266.746C274.063 266.824 274.605 267.589 274.122 268.224L273.335 268.022L273.577 268.713L272.931 269.595L272.144 269.393L272.386 270.084L270.508 270.86L270.879 274.311L269.586 276.076L269.676 277.358L269.03 278.24L271.396 278.01C272.129 279.939 273.903 278.914 275.426 279.465L275.286 278.381C275.841 278.309 275.878 277.53 275.932 277.498C276.041 277.434 277.508 277.895 277.467 276.425L276.882 275.435L277.186 274.255L278.276 273.277L278.085 272.389L279.175 271.411C278.697 270.793 278.964 269.754 279.681 269.444L279.389 268.949L280.378 268.365C279.92 266.183 282.473 263.97 283.177 262.373C283.679 261.239 283.617 260.045 284.824 259.231Z" fill="#37B4B4"/>
<path d="M262.955 230.117L263.241 231.449L264.719 231.409C264.37 232.377 265.008 232.897 265.99 232.994C266.089 233.163 265.284 235.313 265.231 235.945C265.196 236.343 265.366 236.756 264.826 237.519C264.668 237.743 264.02 238.272 263.736 238.497L263.826 239.779L261.988 242.033C261.061 241.526 260.22 242.513 259.824 241.476L259.329 241.768L258.25 241.071C257.067 241.87 255.726 240.17 254.81 239.767C254.241 239.516 253.315 239.53 252.843 239.261C252.729 239.198 251.532 237.167 251.528 237.036C251.517 236.622 251.945 236.228 251.438 235.754C251.733 234.068 252.76 233.204 252.551 231.426L253.197 230.544L254.771 230.948L254.973 230.161L255.76 230.364C255.99 229.341 257.157 228.831 258.132 229.296L258.334 228.509L260.689 229.954L262.955 230.117ZM260.178 232.758C259.091 231.946 258.187 232.98 257.812 232.989C257.436 232.997 256.88 232.682 256.434 232.635L255.485 234.697L254.647 234.692C254.292 235.418 255.606 235.186 255.726 235.389C255.261 236.498 255.401 237.079 256.103 238.002L257.193 237.024L259.649 238.075L259.852 237.289L261.426 237.693C260.598 236.507 261.312 235.852 261.296 234.934C261.287 234.302 259.538 233.764 260.178 232.758Z" fill="#37B4B4"/>
<path d="M254.51 254.791L253.723 254.589C253.562 255.604 252.752 255.753 251.846 255.364L252.087 256.056C250.994 256.832 249.863 257.136 248.586 256.623L248.383 257.41L244.156 255.904L244.168 254.229C243.287 253.969 242.32 254.056 241.959 253.032L242.847 252.84C242.296 252.145 242.135 251.5 242.566 250.671C242.757 250.305 243.967 248.812 243.96 248.513C243.955 248.302 243.441 248.018 243.819 247.428L245.494 247.439L245.708 244.977C245.797 244.925 246.062 245.165 246.298 245.129C246.795 245.055 248.062 244.354 248.175 244.353C248.542 244.347 251.792 245.183 252.11 245.365C252.345 245.497 252.697 246.54 252.987 246.849L253.875 246.658L254.606 247.894C254.163 248.62 254.816 249.425 254.887 250.064C254.999 251.062 254.458 252.479 254.369 253.706C254.356 253.871 254.889 254.213 254.51 254.791ZM248.338 249.429L248.147 248.541L247.743 250.115L246.41 250.401C246.665 250.831 246.846 250.811 246.455 251.042C246.065 251.273 246.507 251.852 246.646 251.93C246.976 252.115 248.567 252.504 249.007 252.537C249.168 252.549 249.514 252.017 250.092 252.397C250.04 251.704 250.654 251.681 250.738 251.514C251.248 250.529 250.888 249.921 250.311 249.097L248.338 249.429Z" fill="#37B4B4"/>
<path d="M268.895 254.296L269.682 254.498C269.915 255.581 269.394 256.55 269.317 257.55C269.308 257.665 269.836 258.124 269.407 258.832C269.318 258.981 268.977 258.985 268.912 259.124C268.571 259.862 268.499 260.649 268.749 261.389C267.4 261.071 266.703 261.857 265.686 262.699L265.394 262.204L264.505 262.395C263.99 261.595 262.898 260.883 261.954 260.9C261.596 260.904 260.869 261.904 259.981 261.231L260.335 259.854C260.326 259.399 258.783 258.453 258.772 257.775C258.762 257.063 259.266 256.052 258.593 255.212L259.391 253.739L259.099 253.244C260.059 252.594 261.273 252.39 261.33 251.092L262.51 251.395L262.319 250.507L264.787 249.883C265.13 251.062 265.845 250.81 266.552 251.176C266.696 251.251 266.702 251.601 266.844 251.671C267.287 251.889 268.026 251.853 268.418 252.075C268.787 252.288 269.068 253.82 268.895 254.296ZM265.523 257.623C265.663 256.816 266.224 256.008 265.686 255.358L266.282 254.672L265.843 253.93L265.349 254.223L264.174 253.081C264 254.232 263.304 255.11 262.578 256.027L264.545 256.533L264.343 257.319L265.523 257.623Z" fill="#37B4B4"/>
<path d="M245.738 269.314C244.52 268.879 244.584 269.739 244.203 270.387C244.048 270.649 242.82 271.084 242.472 271.41L240.803 270.561L240.6 271.348L239.617 271.095L238.723 272.124C238.029 272.147 238.093 271.702 237.841 271.478C237.742 271.389 237.517 271.449 237.447 271.376C236.957 270.852 237.109 269.754 236.672 269.499C236.446 269.366 236.11 269.43 235.885 269.297C235.225 268.909 235.661 267.28 235.952 266.588C236.013 266.448 236.376 266.441 236.447 266.295C237.025 265.106 237.603 263.69 238.245 262.563C238.466 262.179 240.302 261.448 240.083 260.309L240.87 260.512L241.073 259.725C241.708 260.207 242.433 259.672 242.551 259.685C243.804 259.819 245.207 260.301 245.89 261.383C246.385 261.674 246.853 260.754 247.216 261.934L246.227 262.518C246.963 263.228 246.575 263.711 246.609 264.294C246.71 265.94 246.097 265.828 246.103 266.262C246.132 267.976 245.733 267.702 245.597 268.229C245.576 268.312 246.108 268.771 245.738 269.314ZM241.815 266.627C241.851 265.407 242.336 265.364 242.911 264.811C243.872 263.88 243.458 262.553 242.039 262.49L242.422 264.266C240.292 263.396 239.525 266.361 241.815 266.627Z" fill="#37B4B4"/>
<path d="M279.151 238.896L280.916 240.189L280.955 241.667C280.922 241.797 280.545 241.809 280.46 241.959C280.044 242.699 279.272 243.692 279.066 244.117C278.861 244.543 278.879 245.252 278.662 245.691C278.593 245.829 278.26 245.835 278.167 245.984C278.033 246.196 278.099 246.541 277.965 246.77C277.68 247.259 276.747 247.2 276.239 246.956L276.037 247.743C275.063 247.387 273.994 247.956 272.985 247.377C272.476 247.087 271.767 245.311 270.433 245.882C270.351 245.387 269.843 245.387 269.747 245.286C269.029 244.556 268.827 242.831 267.696 242.662C268.193 241.25 268.32 239.5 268.859 238.137C268.916 237.996 269.283 237.99 269.354 237.845C269.541 237.461 269.544 236.895 269.708 236.468L271.383 236.479L271.585 235.692L272.372 235.894L272.575 235.107L274.244 235.956L277.201 235.877C278.012 237.177 279.987 237.064 279.151 238.896ZM270.855 241.796L274.581 244.432L276.312 243.409L276.222 242.128C277.315 241.419 278.471 239.434 276.886 238.733C276.211 239.465 273.398 237.958 273.047 238.165L271.602 240.52L271.894 241.015L270.855 241.796Z" fill="#37B4B4"/>
<path d="M294.186 244.021L293.489 245.1C294.535 245.44 294.566 246.622 296.041 246.595L296.03 248.27L297.058 249.164C296.245 249.424 296.475 250.389 296.159 251.03C296.13 251.094 295.603 251.902 295.462 252.109C295.321 252.316 294.774 252.288 294.816 252.991L293.146 252.143L292.253 253.171C291.356 253.07 290.514 252.984 289.594 252.907C289.438 252.896 289.229 253.233 289.099 253.199C288.97 253.166 288.95 252.771 288.807 252.705C287.156 251.965 286.943 251.718 285.57 250.614C285.274 250.378 284.655 250.613 284.344 249.669C284.312 249.569 284.477 249.397 284.446 249.276C284.357 248.934 283.992 248.169 283.962 247.893C283.936 247.652 284.171 247.376 284.165 247.106C284.154 246.772 283.683 246.286 284.176 245.431C284.285 245.237 284.82 245.031 285.367 244.06C285.452 243.91 285.829 243.897 285.862 243.768C285.883 243.685 285.351 243.225 285.722 242.683L286.902 242.986C287.268 241.382 288.319 242.289 289.369 242.362C289.526 242.373 289.708 242.059 289.864 242.07C291.726 242.201 291.569 243.205 292.022 243.464C292.538 243.76 293.568 243.748 294.186 244.021ZM291.129 244.493L289.161 243.987C289.083 244.764 288.396 245.17 287.678 244.864C288.195 245.999 287.011 246.362 286.969 247.618C288.256 247.898 288.544 249.684 290.01 249.658C290.46 249.652 291.312 248.428 292.084 248.933C292.483 247.87 291.301 247.15 290.522 246.853L290.583 244.982L291.129 244.493Z" fill="#37B4B4"/>
<path d="M250.729 274.372L250.931 273.585L250.144 273.383L250.549 271.809L249.762 271.607L250.572 268.459L251.359 268.662L252.258 266.796C253.639 267.331 255.2 265.958 256.502 265.79C256.736 265.758 257.017 266.002 257.288 265.992C257.458 265.985 257.625 265.697 257.783 265.7C258.868 265.723 259.34 266.759 260.436 266.801C260.608 267.341 261.746 268.673 261.751 269.027C261.759 269.583 261.264 270.399 261.245 270.994C261.24 271.161 261.712 271.4 261.436 271.883C261.011 272.625 260.532 273.558 259.649 273.94C260.476 275.209 258.999 275.635 258.008 276.244L257.715 275.75C256.809 276.389 255.507 275.366 254.467 275.334C253.518 275.304 253.242 275.237 252.106 274.726C251.964 274.66 251.944 274.265 251.814 274.232C251.731 274.211 251.271 274.743 250.729 274.372ZM257.35 271.461C257.234 270.672 258.078 270.264 258.098 270.185C258.151 269.977 257.548 269.842 258.053 269.544C259.121 268.913 256.911 267.002 256.777 268.797C255.802 268.332 254.635 268.841 254.405 269.865L253.618 269.662L253.506 271.731L254.388 272.377C255.48 272.226 256.347 271.203 257.35 271.461Z" fill="#37B4B4"/>
<path d="M231.238 183.789L230.451 183.586L230.49 185.065L228.512 186.234L228.804 186.728C227.815 186.986 227.921 187.634 227.612 188.1C227.476 188.304 226.923 188.283 226.966 188.982C227.42 189.044 227.921 189.316 228.343 189.336C228.505 189.344 228.686 189.03 228.838 189.044C230.337 189.199 231.116 190.133 232.474 190.399L232.907 191.978L231.513 194.136C230.868 194.474 230.394 195.061 229.686 194.715L229.776 195.997L228.989 195.794C228.811 195.9 228.595 197.832 228.332 198.352C228.263 198.489 227.947 198.492 227.837 198.644C227.246 199.457 226.679 200.373 225.802 200.847L223.537 200.684C223.844 199.966 223.437 199.279 222.66 199.201C222.825 198.773 222.829 198.204 223.014 197.823C223.085 197.678 223.448 197.671 223.509 197.531C223.918 196.562 223.945 195.542 224.661 194.681L225.448 194.884L226.095 194.001L224.971 192.664C224.017 192.179 223.382 192.675 223.296 192.652C223.166 192.619 223.147 192.22 223.003 192.158C222.379 191.88 221.509 191.853 220.839 191.601L220.609 189.235C221.58 188.835 221.255 187.375 221.711 186.582C221.833 186.366 223.419 185.666 223.79 185.019C224.308 184.116 224.271 183.721 225.184 182.861C225.809 182.275 227.741 182.185 227.899 182.091C227.963 182.053 228.105 181.146 228.793 181.063L230.76 181.568L231.238 183.789Z" fill="#37B4B4"/>
</svg>
