<svg width="168" height="168" viewBox="0 0 168 168" fill="none" xmlns="http://www.w3.org/2000/svg">
<path d="M83.9997 31.3752V31.8752L85.2497 31.6252V32.1252C86.1047 32.4652 86.7172 33.0802 87.7497 33.1252V33.6252H88.4997V34.1252L89.4997 34.3752C89.2372 35.0127 89.9372 35.2777 89.9997 35.5002C90.0447 35.6552 89.9548 35.8452 89.9997 36.0002C90.0947 36.3352 90.6597 36.4427 90.9997 36.3752V37.5002L91.3747 37.8752H92.7497C92.7747 38.0777 92.7048 38.3302 92.7497 38.5002C93.1097 39.8352 93.9147 40.9552 93.9997 42.3752H94.4997V44.0002L95.7497 45.0002C95.8222 45.6577 95.7097 46.2552 95.2497 46.7502L95.7497 48.2502L94.9997 48.6252C95.3997 49.2902 95.6097 49.8302 95.4997 50.6252H94.9997C94.6872 51.3427 95.6672 51.6952 95.7497 52.0002C95.8247 52.2702 95.6847 52.7077 95.7497 53.0002C95.7747 53.1152 96.1423 53.2302 95.9997 53.5002L95.7497 54.1252H95.2497C95.1897 54.6377 94.8322 55.1452 94.9997 55.7502C95.1197 56.1827 96.6072 56.8052 96.2497 57.6252H95.7497C95.5347 58.3652 95.3547 58.7577 95.7497 59.5002L94.7497 60.7502L95.4997 61.1252C95.4322 61.5352 95.5972 62.1477 95.4997 62.5002C95.4222 62.7777 94.5497 63.1052 94.7497 63.6252H95.2497C95.2172 63.9052 95.3022 64.2452 95.2497 64.5002C95.2297 64.5952 95.0222 64.6527 94.9997 64.7502C94.7673 65.7477 95.5847 65.8777 95.9997 66.5002C96.0397 66.5602 95.9697 66.8802 96.2497 67.0002C96.3647 67.2177 95.4922 66.9477 95.7497 67.5002C95.9247 67.8777 96.3672 67.9277 96.7497 67.8752V70.2502L97.1247 70.6252H98.2497V70.1252L99.3747 69.6252C99.4572 69.6252 99.5197 69.8452 99.6247 69.8752C100.232 70.0502 100.655 69.2277 101.125 69.1252C101.87 68.9652 103.61 68.7077 104.125 68.8752C104.485 68.4277 105.182 68.6852 105.75 68.6252V68.1252C106.225 68.1977 106.572 67.8502 106.5 67.3752L107.75 67.6252V67.1252H108.25V66.6252C108.985 66.7127 109.93 66.5027 110.625 66.6252C110.697 66.6377 110.877 67.0177 111.375 66.8752C112.257 65.5527 112.885 66.0277 114.125 65.8752C114.217 65.8627 114.28 65.6427 114.375 65.6252C115.13 65.4877 115.92 65.7827 116 64.6252C116.36 64.6627 116.782 64.5702 117.125 64.6252C117.692 64.7177 118.575 65.1627 119.25 65.1252V65.6252C120.135 65.8052 121.02 65.1402 121.875 65.3752C122.012 65.4127 122.237 65.8377 122.375 65.8752C123.055 66.0627 123.605 65.6602 123.875 65.6252C124.305 65.5677 124.805 65.6652 125.25 65.6252V66.6252C126.005 66.8327 126.13 66.0627 126.75 66.1252L127 67.1252H127.75C127.705 67.7477 128.315 69.0627 128.875 69.3752C128.992 69.4402 129.202 69.3277 129.25 69.3752C129.315 69.4402 129.447 70.2877 129.5 70.5002C129.525 70.6002 129.732 70.6577 129.75 70.7502C129.835 71.2302 129.69 71.8652 129.75 72.3752H130.5C130.37 73.2152 131.255 73.4277 131 74.3752H131.5C131.437 75.5752 131.825 75.9302 131.5 77.0002C131.35 77.4927 131.75 77.7077 131.75 77.7502C131.75 77.8327 131.527 77.8977 131.5 78.0002C131.377 78.4602 131.535 78.9427 130.75 78.8752C131.02 79.5177 130.147 79.8727 130.25 80.2502C130.577 80.3652 131.495 81.3377 131.625 81.3752C131.78 81.4202 131.97 81.3302 132.125 81.3752C132.41 81.4577 133.202 82.7052 134 82.3752L133.5 83.3752L134.5 83.6252L134.75 84.8752H135.25C135.152 85.4402 134.817 86.0877 135 86.7502C135.037 86.8877 135.462 87.1127 135.5 87.2502C135.687 87.9277 135.54 89.4777 135 90.0002V90.6252H135.5V91.3752C134.552 91.3202 134.885 92.0052 134.75 92.5002C134.702 92.6752 134.047 93.0752 134 93.2502C133.832 93.8602 134.362 94.2802 134.25 94.8752L135.25 95.1252L135 96.3752H135.75C135.735 96.4952 135.792 96.6427 135.75 96.7502C135.612 97.0952 135.49 96.8777 135.75 97.5002C135.34 97.8352 135.152 98.0727 135.25 98.6252H135.75C135.675 99.2602 135.97 100.078 135.5 100.5V100.75C135.745 101.24 136.617 101.04 136.75 101.5C136.935 102.145 136.282 102.328 136 102.75C135.962 102.805 136.04 102.935 136 103C135.69 103.508 135.287 104.055 135.25 104.625H134.625L134.25 105L134.75 105.75C134.417 106.05 134.225 106.473 133.75 106.375C133.82 107.183 133.805 107.638 133.125 108.125L131.875 108.375L131.125 109.375H130.5C130.562 110.085 130.552 110.748 129.875 111.125C129.757 111.19 129.547 111.078 129.5 111.125C129.447 111.178 129.472 112.083 128.75 111.875C128.572 112.053 129.04 113.96 128.5 114.25V114.5C128.655 114.898 129.217 114.843 129.25 114.875C129.277 114.903 129.18 115.373 129.5 115.5C129.5 115.583 129.265 115.655 129.25 115.75C129.125 116.503 129.435 116.7 129.25 117.5C129.077 118.248 129.507 118.535 130 119V119.25C129.625 119.455 129.82 119.755 129.75 120C129.655 120.335 129.09 120.443 128.75 120.375C128.612 120.755 129 120.948 129 121C129 121.083 128.765 121.155 128.75 121.25C128.685 121.635 128.835 123.04 128.75 123.125L127.5 123.375V124.875C126.685 124.67 126.427 125.473 125.875 125.875C125.772 125.95 125.285 126.008 125.125 126.375C123.985 126.665 122.772 127.06 121.625 127.375C121.52 127.405 120.422 128.465 120.125 128.625H119.5L119.125 127.875H118.625C118.47 127.993 117.97 128.35 117.875 128.375C117.205 128.558 116.17 128.463 115.625 128.875H115.375C114.675 127.91 113.81 128.243 112.875 128.125C112.782 128.113 112.715 127.883 112.625 127.875C111.942 127.81 111.192 127.923 110.5 127.875V128.375C109.33 128.375 108.185 128.593 107.125 128.875C106.895 128.938 106.987 129.188 106.375 128.875L105.875 129.375C104.522 128.96 103.05 129.335 101.875 129.125C101.19 129.003 99.0747 129.223 98.3747 129.375C98.2897 129.393 97.7097 129.858 97.6247 129.875C96.8923 130.033 95.6772 129.913 95.1247 129.375L93.8747 129.875L93.6247 129.625L92.9997 129.875V129.375C91.9847 129.53 91.2372 129.025 90.2497 129.125V129.625L89.1247 129.875L88.3747 129.125L86.7497 129.375V128.875L85.8747 128.375L84.3747 128.875C83.4997 127.963 82.8772 128.263 81.8747 128.125C80.4947 127.938 79.5397 127.048 78.1247 127.375C76.8572 127.668 76.7697 126.233 76.3747 126.125C75.3797 126.345 74.9972 125.835 74.2497 125.625V125.125L72.8747 125.375L72.2497 125.125L71.9997 124.125L70.8747 123.625C70.6822 123.923 70.2147 123.953 69.8747 123.875C69.7847 123.855 69.7322 123.675 69.6247 123.625C68.7097 123.208 68.7648 122.53 67.8748 122.125C67.7922 122.125 67.7197 122.358 67.6248 122.375C66.7122 122.533 66.7073 121.913 65.9998 121.875L66.2498 121.375C65.9722 121.338 65.6198 121.433 65.3748 121.375C65.2297 121.34 64.5373 120.92 64.3748 120.875C64.2122 120.83 63.9522 120.903 63.7498 120.875V122.875L62.9998 123.25C63.8447 123.978 62.5597 124.628 62.7498 125.25C62.7798 125.353 62.9773 125.405 62.9998 125.5C63.2173 126.433 62.5198 126.78 61.7498 126.875V127.375H61.2498C61.2323 128.42 60.0373 128.538 59.1248 128.375C58.7423 128.308 58.4648 127.745 57.8748 128.625H57.1248C56.6373 128.065 55.1798 127.623 54.6248 128.125L53.6248 127.625C53.1248 128.433 52.3747 128 51.6247 128.125C51.5297 128.14 51.4572 128.375 51.3747 128.375C51.3247 128.375 50.9522 127.935 50.4997 128.125L50.1247 127.375C49.5222 127.443 48.7647 127.165 48.3747 127.625L47.6247 126.875L47.4997 127.375H46.8747C46.6997 127.245 46.2697 126.928 46.1247 126.875C44.9022 126.433 43.8122 126.213 42.6247 126.625C41.7947 125.903 40.7822 125.885 39.8747 125.625C39.6547 125.563 39.4722 124.943 38.9997 125.125L38.7497 123.875H37.6247C37.0422 123.168 36.2997 122.29 36.9997 121.5L36.4997 120.75C36.3897 120.26 36.7297 119.388 36.9997 119L36.4997 118.5C37.2972 118 36.8872 117.263 36.9997 116.5C37.0097 116.428 37.4397 116.078 37.2497 115.625H37.9997C38.3122 114.788 37.3247 114.35 37.4997 113.75L37.9997 113L37.7497 112.5C38.5072 111.755 37.2647 110.603 37.4997 109.75C37.5372 109.613 37.9572 109.39 37.9997 109.25C38.4247 107.81 38.8347 106.035 38.4997 104.75L38.9997 104L38.2497 102.125C38.5272 102.25 39.1947 101.703 39.2497 101.5C39.5147 100.538 39.0822 99.2052 40.2497 98.5002L39.9997 98.2502L40.2497 97.8752H39.7497L39.4997 97.0002C39.6397 96.7777 40.2022 96.4127 40.2497 96.2502C40.5847 95.0902 41.2122 94.3052 40.7497 93.2502C41.1372 91.9052 42.2797 90.8302 41.7497 89.5002L41.9997 88.8752H42.4997C42.6097 88.7652 42.4097 86.2902 42.4997 85.7502C42.5272 85.5852 42.9822 85.5702 42.4997 85.2502C42.9847 85.0202 43.4872 84.3552 43.8747 84.1252C44.1597 83.9552 44.5947 83.9552 44.8747 83.8752C45.0147 83.8352 45.2372 83.4127 45.3747 83.3752C45.5872 83.3177 45.9122 83.4327 46.1247 83.3752C46.3697 83.3077 46.4772 82.6677 47.3747 82.8752C48.1847 83.0627 48.5522 82.7277 49.3747 82.8752C49.4472 82.8877 49.6272 83.2677 50.1247 83.1252L50.4997 82.3752H51.8747C52.5572 83.2402 53.8398 83.2527 54.8748 83.1252C54.9673 83.1127 55.0298 82.8927 55.1248 82.8752C56.0623 82.7102 57.1023 82.8377 57.8748 82.6252C57.9948 82.5927 58.2097 82.2302 58.3748 82.1252H58.6248C58.9597 82.5352 59.1973 82.7227 59.7498 82.6252V83.1252C60.2297 83.3027 60.4673 82.9227 60.6248 82.8752C61.4347 82.6252 62.5573 82.4702 63.1248 81.8752L63.8748 82.1252C64.2673 81.7752 64.8647 81.7777 64.7498 81.1252L66.2498 80.8752V80.1252H66.7498V79.6252C67.3022 79.8077 67.6173 79.4577 67.8748 79.3752C68.0222 79.3277 68.2173 79.4202 68.3748 79.3752C68.8823 79.2302 68.6697 78.5452 68.7497 78.2502C68.8097 78.0352 69.4347 77.8477 69.2497 77.3752C69.8497 77.2777 70.5897 76.7977 71.1247 77.3752L71.4997 77.0002L71.2497 76.6252C71.3022 76.5827 71.4897 76.6802 71.6247 76.6252C72.1697 76.4002 72.6772 75.9927 73.2497 75.8752V75.1252H73.7497C73.5397 74.3752 74.3022 74.2577 74.2497 73.6252H74.7497V73.1252L75.6247 73.3752L76.7497 72.8752C76.7673 71.8327 77.5622 70.8277 78.2497 70.0002C78.2372 69.0227 79.0173 67.9852 77.9997 67.2502C78.6423 66.8252 78.4548 66.0377 78.9997 65.5002V65.2502C78.4672 64.8702 78.4347 64.5102 78.4997 63.8752H78.9997L78.7497 63.2502L78.9997 63.0002C78.6197 62.7052 78.6197 62.0452 78.9997 61.7502L78.4997 61.0002L78.7497 60.7502C78.4697 60.6277 78.5422 60.3177 78.4997 60.2502C78.0047 59.4652 77.2072 59.5052 78.2497 58.2502L76.9997 57.0002L77.9997 55.1252C77.6472 55.2077 77.1822 54.8077 76.9997 54.5002C76.8347 54.2202 76.8222 53.6677 76.7497 53.5002C76.6222 53.2052 76.0173 52.5652 75.9997 52.5002C75.9297 52.2527 76.1247 51.9552 75.7497 51.7502L76.2497 50.7502C75.8347 50.0952 75.3272 49.6952 75.4997 48.8752H74.9997C74.8172 48.6927 74.8447 47.0977 74.7497 46.7502C74.6047 46.2252 73.2722 45.4377 73.7497 44.3752C73.0497 44.3427 72.0447 43.3302 72.7497 42.7502L72.2497 41.7502V41.0002C73.2222 39.9702 72.8747 38.9452 72.9997 37.7502C73.0197 37.5552 73.4997 36.1202 73.4997 36.0002C73.4997 35.9477 73.1122 35.7552 73.2497 35.3752C73.6622 35.5052 73.7147 35.1902 73.8747 35.1252C74.0097 35.0702 74.2122 35.1727 74.3747 35.1252C74.8747 34.9827 74.9548 34.1702 74.9997 34.1252C75.2172 33.9077 75.3947 34.4877 75.7497 33.2502C75.9247 32.6427 76.9522 32.9902 77.3747 32.8752C77.5097 32.8377 78.4897 31.9127 78.6247 31.8752C79.2022 31.7152 80.5772 31.7852 81.3747 31.6252C81.8847 31.5227 82.3122 31.4802 82.8747 31.3752C83.2097 31.3127 83.6423 31.4152 83.9997 31.3752ZM86.7497 38.6252C86.3372 38.7552 86.2847 38.4427 86.1247 38.3752C85.9647 38.3077 85.3722 38.4402 85.2497 38.0002C85.1397 37.6027 85.3822 36.5852 84.6247 36.3752C84.2322 36.2677 83.5173 36.4827 83.1247 36.3752C82.9347 36.3227 80.5798 35.0852 80.1247 34.8752C79.8722 34.7577 79.5972 34.7452 79.3747 34.3752C78.8772 34.2327 78.7597 34.5802 78.6247 34.6252C78.4697 34.6752 78.2647 34.5702 78.1247 34.6252C78.0272 34.6652 77.9772 34.8277 77.8747 34.8752C77.7972 34.9102 77.6797 34.8427 77.6247 34.8752C77.4922 34.9552 76.5197 35.9227 76.4997 36.0002C76.3947 36.3777 76.6897 36.8027 76.1247 37.1252C76.0072 37.1927 75.7972 37.0777 75.7497 37.1252C75.9197 37.9927 75.3472 38.6727 75.4997 39.5002C75.5173 39.5952 75.7272 39.6527 75.7497 39.7502C75.8872 40.3352 75.5122 40.6377 75.4997 41.1252H74.9997V41.8752H75.7497L75.4997 42.6252H76.2497V44.1252H76.7497V44.8752H77.2497V46.1252L77.8747 46.3752L78.4997 46.1252C78.5622 46.8252 78.4997 47.4702 77.9997 48.0002C78.4097 48.3352 78.5972 48.5727 78.4997 49.1252H79.2497L79.4997 50.2502C78.9422 50.6452 79.6597 50.9952 79.4997 51.6252C80.0922 51.6477 80.5897 52.0302 80.9997 52.5002V52.7502C80.5647 53.0827 80.7997 53.7127 80.7497 54.2502L81.4997 54.6252C81.5972 55.1777 81.4097 55.4152 80.9997 55.7502V56.0002C81.6447 56.4252 81.7147 57.4552 81.2497 58.0002V58.2502C82.3897 58.9952 81.9222 60.1602 81.9997 61.3752H82.4997V62.1252H82.9997C83.0922 62.7252 82.8797 63.1852 82.2497 63.1252C82.0798 63.9952 82.6497 64.6702 82.4997 65.5002C82.4297 65.8852 81.7722 66.6727 81.7497 66.7502C81.6947 66.9527 81.4747 68.6452 81.4997 68.7502C81.5222 68.8502 81.7372 68.9077 81.7497 69.0002C81.7872 69.2577 81.8072 70.0427 81.7497 70.2502C81.6922 70.4577 81.0647 70.6527 81.2497 71.1252H80.7497C80.8447 72.0227 80.4497 73.5752 79.4997 73.6252V74.1252L78.4997 74.3752C78.5272 74.6852 78.1297 75.5527 77.8747 75.6252C76.5397 76.0077 77.2872 76.0952 76.7497 77.0002C76.4122 77.5652 75.8797 77.7227 75.2497 77.6252V78.1252C74.7747 78.0527 74.4272 78.4002 74.4997 78.8752C74.0472 78.6852 73.6747 79.1252 73.6247 79.1252C73.5722 79.1252 73.3797 78.7377 72.9997 78.8752L73.2497 79.2502C72.8597 79.6777 72.6247 80.0027 71.9997 79.8752C72.0272 80.6252 72.1497 81.4202 71.2497 81.3752V81.8752L70.6247 82.1252C70.2897 81.7152 70.0522 81.5277 69.4997 81.6252L69.2497 82.6252H68.2498L67.9998 83.6252H67.4998C67.6047 83.9777 67.1947 85.0377 66.8748 85.1252C66.6623 85.1827 66.3372 85.0677 66.1248 85.1252C66.0147 85.1552 65.7898 85.5427 65.3748 85.3752L64.4998 86.5002C64.9748 86.8902 64.6623 87.6552 64.7498 88.2502C64.7598 88.3227 65.1898 88.6727 64.9998 89.1252H64.4998L64.7498 90.0002C64.5947 90.3977 64.0322 90.3427 63.9998 90.3752C63.7647 90.6102 63.8372 91.6827 63.7498 92.0002C63.6823 92.2452 62.8897 92.7552 63.2498 93.6252H62.7498V95.6252H62.2498C62.3523 96.3327 62.1047 97.3552 62.2498 98.0002C62.2722 98.0952 62.4722 98.1502 62.4998 98.2502C62.5898 98.5802 62.2798 98.6402 62.2498 98.7502C62.2022 98.9177 62.2773 99.1727 62.2498 99.3752H61.7498L61.4998 100.625H62.4998C62.5123 101.113 62.8873 101.415 62.7498 102C62.6572 102.398 62.2898 103.4 62.2498 103.75C62.1472 104.633 62.4948 105.533 61.7498 106.25L62.3748 107.375H62.9998C63.2948 107.67 62.3197 108.965 61.9998 109.25L61.7498 111.5C62.1322 111.698 61.9198 112.053 61.9998 112.25C62.0398 112.348 62.2022 112.398 62.2498 112.5C62.5772 113.203 63.1798 113.255 63.2498 113.5C63.3573 113.875 63.2097 114.18 63.7498 114.5L63.4998 115.5L63.9998 116L63.7498 116.75L63.9998 117.375H65.2498L65.6248 118.125H66.2498C66.1973 118.758 66.9597 118.875 66.7498 119.625C67.2048 119.348 68.3622 119.235 68.8747 119.375C69.0122 119.413 69.2347 119.835 69.3747 119.875C70.5122 120.203 70.2972 120.783 70.6247 120.875C70.9697 120.933 71.5798 121.02 71.8747 121.125C72.6247 121.395 72.3547 121.493 72.4997 121.75C72.7747 122.233 73.5347 122.303 73.8747 121.875H74.1247C74.6847 122.318 74.8572 122.643 74.7497 123.375C75.5122 123.163 76.2472 123.773 76.8747 123.625C77.1697 123.555 77.6522 123.178 78.2497 123.375V123.875C78.7222 123.69 78.9097 124.315 79.1247 124.375C79.4647 124.47 80.6497 124.275 80.7497 124.375V124.875C81.6347 124.77 82.7872 125.023 83.6247 124.875C83.7222 124.858 83.8472 124.488 84.2497 124.625L84.4997 125.625C84.9522 125.815 85.3022 125.385 85.3747 125.375C85.6947 125.328 86.8747 125.305 87.1247 125.375C87.3397 125.435 87.5272 126.06 87.9997 125.875V126.375C89.6222 126.485 91.3347 126.568 92.8747 126.875C93.3097 126.963 93.9197 127.32 94.6247 127.125C94.7622 127.088 94.9872 126.663 95.1247 126.625C95.5747 126.503 96.3822 126.733 96.8747 126.625C96.9597 126.608 97.5372 126.145 97.6247 126.125C98.3772 125.958 98.6572 126.378 99.1247 126.875H99.3747C99.6797 126.455 100.247 126.665 100.75 126.625V126.125H101.25V126.625C101.352 126.75 101.54 126.393 101.625 126.375C103.765 125.95 105.442 126.588 107.375 126.125L108.375 126.375L109.25 125.75V125.125L110.875 124.375L111.25 125.125C112.03 125.168 112.845 125.063 113.625 125.125C115.017 125.235 116.405 125.398 117.625 125.125C118.735 124.875 120.13 125.148 121.125 124.875C121.235 124.845 121.78 124.395 121.875 124.375C122.37 124.268 123.102 124.468 123.625 124.375C123.722 124.358 123.847 123.988 124.25 124.125L124.75 122.375H125.375L125.75 122V121.25L126.75 120.5L126.25 119.375H126.75L127 118L126.5 117.25C126.795 116.703 126.505 116.598 126.5 116L127.25 114.5C126.777 114.128 126.477 113.685 127 113.25L126.125 112.875C125.812 113.303 125.217 113.263 124.875 113.375C124.705 113.43 124.485 113.8 124 113.625C124.132 114.23 123.765 114.81 123.125 114.625C122.985 114.585 122.762 114.163 122.625 114.125C121.95 113.94 121.45 114.315 121.125 114.375C120.827 114.43 120.445 114.338 120.125 114.375L119 112.75L119.25 111.375C119.652 111.513 119.775 111.143 119.875 111.125C121.152 110.895 121.94 110.905 123.125 110.125C123.355 109.975 123.722 109.418 123.875 109.375C124.265 109.268 124.947 109.468 125.375 109.375C125.472 109.353 126.155 108.9 126.25 108.75C126.29 108.685 126.215 108.55 126.25 108.5C126.525 108.113 126.92 108.055 126.75 107.375L128.5 107.125C128.072 106.66 128.595 106.578 128.5 106.25L128 105.375C128.662 105.548 129.427 105.08 129.75 104.5C129.815 104.383 129.702 104.173 129.75 104.125C129.797 104.078 130.007 104.19 130.125 104.125C130.5 103.915 130.697 103.23 131.25 103.375L130.75 102.5C131.412 102.105 130.75 101.11 130.75 101C130.75 100.918 130.985 100.845 131 100.75C131.045 100.475 131.06 99.4752 131 99.2502C130.95 99.0702 130.38 98.8677 130.5 98.5002L130 98.3752L129.75 99.3752C128.662 99.2152 127.665 99.5027 127.5 100.625C127.41 100.715 126.43 100.54 126.125 100.625C125.987 100.663 125.762 101.088 125.625 101.125C125.052 101.283 122.832 101.4 122.375 101.125L121.625 101.375L121.25 100.75C121.677 100.488 121.097 100.198 121.25 99.6252C121.82 99.8252 122.295 98.7152 122.625 98.6252C123.23 98.4577 123.737 98.8152 124.25 98.8752V98.1252C124.722 98.3077 124.905 97.6877 125.125 97.6252C126.55 97.2152 126.29 96.6877 127.375 96.3752C127.957 96.2077 128.105 95.1802 128 94.6252C128.34 94.6927 128.905 94.5852 129 94.2502C129.07 94.0052 128.875 93.7052 129.25 93.5002L129 93.2502C129.51 93.0727 129.7 92.1752 129.75 92.1252C129.815 92.0602 130.505 92.0902 130.75 91.2502C130.622 90.5952 130.49 90.1577 130.75 89.5002C130.81 89.3502 131.327 88.6902 131.25 88.6252C130.597 88.7402 130.6 88.1427 130.25 87.7502L130.75 86.7502L130.5 85.5002C130.147 85.2727 129.69 84.8177 129.375 84.6252C128.34 83.9952 128.007 84.0852 126.875 83.8752C126.782 83.8577 126.46 83.4352 126 83.6252L125.75 85.0002C125.49 85.3927 125.022 85.4427 124.625 85.6252C123.53 86.1252 122.337 86.7652 121.125 86.8752C120.32 87.5977 119.8 87.6752 118.875 87.8752C118.777 87.8977 118.717 88.1127 118.625 88.1252C118.182 88.1902 116.88 88.2302 116.75 87.7502C116.78 87.2777 116.595 86.7802 117 86.5002L116.75 85.8752L118.25 85.6252C117.98 84.4427 119.45 84.4727 120.375 84.6252C120.47 84.6402 120.542 84.8752 120.625 84.8752L121.25 83.6252H122.25C122.07 82.6002 123.125 82.3102 124 82.3752V81.8752L125.25 81.3752C125.2 80.9552 125.237 80.5952 125.625 80.3752C125.742 80.3077 125.952 80.4227 126 80.3752V79.8752C126.787 80.0902 127.132 78.7427 127.25 78.6252C127.297 78.5777 127.507 78.6927 127.625 78.6252C128.305 78.2377 127.727 77.4277 128.25 77.0002L128 76.5002C128.475 76.1752 128.05 76.1902 128 76.0002C127.76 75.1077 127.595 74.7452 127.25 74.0002C127.085 73.6427 127.072 73.4177 127 73.2502C126.787 72.7602 126.212 72.4027 126.25 71.8752C125.86 72.0327 125.095 71.5852 125 71.2502C124.952 71.0877 125.055 70.8852 125 70.7502C124.935 70.5902 124.62 70.5377 124.75 70.1252H123.5C123.52 69.5702 122.805 68.8552 122.25 68.8752V68.3752L120.5 68.1252V68.6252L119.875 68.8752L119.375 68.6252C117.305 69.7777 114.532 69.3102 112.125 69.8752C111.562 70.0077 111.26 69.6552 110.75 69.6252V70.3752C110.032 70.0627 109.68 71.0427 109.375 71.1252C108.807 71.2802 107.93 71.2552 107.375 71.3752C107.29 71.3927 106.71 71.8577 106.625 71.8752C106.02 72.0052 105.332 71.7927 104.875 71.3752L102.375 72.6252L101.125 72.3752C100.375 73.0877 99.6922 73.5627 98.6247 73.3752C98.5272 73.3577 98.4022 72.9877 97.9997 73.1252C98.1097 74.2577 97.6197 73.9977 96.8747 74.1252C96.7797 74.1427 96.7072 74.3752 96.6247 74.3752L96.1247 73.6252L95.3747 74.1252L94.3747 73.8752C93.7472 74.4852 92.9472 74.3977 92.1247 74.3752L90.6247 74.8752C89.9622 74.3677 89.2297 73.4527 90.1247 72.8752C90.2347 72.8052 90.7472 72.6977 90.8747 72.6252C91.0422 72.5277 91.1972 72.2552 91.3747 72.1252C92.1547 72.4627 93.0347 72.0652 93.8747 71.8752C95.2673 71.5602 93.7872 70.0702 93.1247 70.8752L92.3747 69.8752H91.7497V68.5002C91.6522 68.1452 89.9872 67.8352 90.9997 66.7502L89.9997 65.5002L90.4997 65.3752L90.2497 64.0002C90.5322 63.8752 90.4548 63.5752 90.4997 63.5002C90.6397 63.2652 91.2022 62.9152 91.2497 62.7502C91.3197 62.5052 91.1247 62.2052 91.4997 62.0002C91.3597 61.7802 90.7922 61.4102 90.7497 61.2502C90.6397 60.8502 90.9622 60.2802 90.4997 60.0002L90.9997 59.0002C90.3572 58.2277 90.7422 57.0552 89.9997 56.2502C90.3347 55.4802 90.8972 54.3377 89.9997 53.7502C90.3972 53.3302 90.3972 52.1702 89.9997 51.7502V51.2502C90.5197 50.5252 90.9097 49.3952 90.7497 48.5002C90.6697 48.0577 90.5572 47.5952 90.4997 47.2502C90.3147 46.1327 90.8272 45.7402 90.9997 45.0002C91.1322 44.4352 90.8872 44.3002 90.7497 44.0002C90.7147 43.9227 90.7822 43.8052 90.7497 43.7502C90.5173 43.3577 89.3197 42.5077 89.2497 42.2502C89.1447 41.8727 89.4397 41.4477 88.8747 41.1252C88.7572 41.0577 88.5472 41.1727 88.4997 41.1252V40.6252C88.0798 40.7227 87.7072 40.2652 87.3747 40.1252C87.2397 40.0677 87.0422 40.1677 86.9997 40.1252C86.9622 40.0877 86.9497 39.4177 86.4997 39.2502L86.7497 38.6252ZM59.4998 86.6252C58.4872 86.7527 57.5548 86.3152 56.8748 85.6252C56.4648 86.1402 55.8647 86.0177 55.3748 86.1252C55.2773 86.1477 55.2173 86.3602 55.1248 86.3752C54.7822 86.4302 54.3598 86.3377 53.9998 86.3752V85.8752L52.3747 86.6252C51.8297 85.9752 50.8147 86.5677 50.3747 86.6252C49.7747 86.7027 49.0147 86.4102 48.6247 86.8752L47.7497 86.5002V85.8752C47.3397 85.9427 46.7272 85.7777 46.3747 85.8752C46.1597 85.9352 45.9722 86.5602 45.4997 86.3752C45.6322 87.6727 45.2972 88.7602 44.9997 89.8752L44.2497 90.2502C45.0172 90.8652 44.0947 91.5627 43.9997 92.0002C43.8447 92.7177 43.8772 93.8202 44.4997 94.2502L43.7497 94.6252C43.6597 94.7152 43.8347 95.6952 43.7497 96.0002C43.6547 96.3452 42.7622 96.4852 42.9997 97.5002C43.0297 97.6252 43.4797 98.3977 43.4997 98.5002C43.5622 98.8352 43.4597 99.2677 43.4997 99.6252C42.3197 99.5002 42.6597 100.065 42.4997 100.75C42.3647 101.33 42.3422 101.628 42.2497 102.25C42.2397 102.325 41.8097 102.67 41.9997 103.125H42.7497C42.7222 103.328 42.7972 103.583 42.7497 103.75C42.6872 103.975 42.2747 104.835 42.2497 105C42.1647 105.575 42.3097 106.278 42.2497 106.875C41.4772 106.795 41.3747 107.57 41.4997 108.25C41.5172 108.345 41.7372 108.408 41.7497 108.5C41.8322 109.165 41.6922 109.943 41.7497 110.625H41.2497C41.5122 111.825 41.6147 113.383 40.4997 114.25C41.2772 115.405 40.5572 116.488 40.9997 117.75C41.0497 117.895 41.3822 117.963 41.2497 118.375H40.7497C40.5647 118.848 41.1897 119.035 41.2497 119.25C41.2947 119.413 41.2897 120.065 41.2497 120.25C41.2297 120.34 40.8022 120.86 40.7497 121C40.6722 121.205 40.8822 121.55 40.4997 121.75C40.7622 122.22 41.0772 122.04 41.3747 122.125C41.5147 122.165 41.7372 122.588 41.8747 122.625C42.0872 122.683 42.4122 122.568 42.6247 122.625C42.7072 122.648 43.3322 123.295 43.6247 123.375C44.8597 123.713 45.9147 123.708 47.1247 123.375C47.4047 123.298 48.6497 124.123 49.2497 123.875V124.375C50.6022 124.208 51.7048 124.67 52.9998 124.625V125.125C53.7822 125.163 54.5298 125.2 55.1248 124.625H55.3748C55.5398 124.73 55.7547 125.093 55.8748 125.125C56.1147 125.19 58.8848 125.19 59.1248 125.125C60.0597 124.868 59.6322 123.213 59.7498 122.5C59.7647 122.405 59.9998 122.333 59.9998 122.25C59.9998 122.168 59.7798 122.105 59.7498 122C59.6047 121.5 60.0898 121.13 60.2498 120.75C60.3073 120.615 60.2073 120.418 60.2498 120.375C60.2973 120.328 60.5072 120.443 60.6248 120.375C61.2623 120.013 61.0972 119.128 60.4998 118.75C60.9272 118.488 60.3472 118.198 60.4998 117.625H59.9998V117L58.9998 116.25L58.7498 114.125L59.2498 114C58.3997 113.465 59.0123 112.603 58.4998 111.875H58.9998L59.2498 110.625H58.7498L57.9998 108.625H58.4998C58.6898 108.17 58.2598 107.825 58.2498 107.75C58.1698 107.225 58.4548 106.583 57.9998 106.25L58.4998 104.5L57.7498 103.75L58.4998 103L57.9998 101.875H58.4998L57.9998 100.25C58.3022 98.9877 58.8347 97.2802 58.2498 96.0002V95.7502C59.0347 95.2652 58.8722 94.5052 59.4998 94.0002C59.0347 93.4552 59.1047 92.4252 59.7498 92.0002L59.4998 90.8752C60.2873 91.0152 60.6823 90.5277 60.4998 89.7502C60.4773 89.6502 60.2647 89.5927 60.2498 89.5002C60.1947 89.1577 60.2873 88.7352 60.2498 88.3752L60.9998 88.0002L60.4998 87.0002L61.2498 86.2502C60.8997 85.7802 60.1873 86.3752 60.1248 86.3752C60.0473 86.3752 59.9848 86.1702 59.8748 86.1252C59.7647 86.0802 59.6198 86.1402 59.4998 86.1252V86.6252Z" fill="#284655"/>
<path d="M85 14.125C84.8775 14.4 85.41 15.0625 85.625 15.125C85.7775 15.1675 85.9675 15.0825 86.125 15.125C86.2275 15.1525 86.2925 15.375 86.375 15.375C86.4575 15.375 86.53 15.14 86.625 15.125C88.1975 14.8625 90.5675 16.2075 92.25 16.125V16.625C92.2925 16.6675 92.485 16.575 92.625 16.625C92.7325 16.665 92.795 16.875 92.875 16.875C92.955 16.875 93.02 16.655 93.125 16.625C93.6025 16.4875 93.81 16.9475 94.25 16.875V17.375C95.0225 17.37 95.935 18.0125 96.625 17.375C97.1025 17.6925 97.02 18.09 97 18.625H97.75C97.5225 19.035 98.3275 20.0425 98.625 20.125C99.0175 20.2325 99.7325 20.0175 100.125 20.125C100.517 20.2325 101.145 21.4225 101 21.875H101.5C101.635 22.7025 102.585 23.585 103.5 23.375C103.76 24.365 105.02 25.2625 105 26.375H105.5C105.64 26.9575 105.708 27.595 106.25 28L106 28.5L106.25 29L105.75 29.375C105.79 28.825 105.228 28.315 104.75 28.375V27.625H104.25V27.125C103.38 26.8975 103.382 26.415 102.375 26.125C101.452 25.86 101.46 24.6275 100.375 24.125C99.92 23.9125 98.9675 23.1525 98.875 23.125C97.9875 22.87 97.045 22.37 96.125 21.875C95.205 21.38 95.4475 21.6025 94.625 21.375C94.415 21.3175 93.835 20.4325 93.625 20.375C93.2375 20.2675 93.15 20.3675 92.625 20.125C92.545 20.0875 92.425 20.1575 92.375 20.125C91.895 19.8175 91.985 19.4025 92 18.875L91.125 19.375L90.875 19.125C90.3325 19.6625 89.4225 19.3525 88.875 18.875H88.625C88.525 18.9025 88.47 19.1025 88.375 19.125C87.8125 19.255 87.455 19.06 87.125 18.625L86 19.125V18.625H85V18.125L84.125 17.875C83.5175 18.375 82.5175 17.8775 81.875 18.625C81.6825 18.34 80.5325 17.12 80.5 17C80.385 16.5825 80.665 16.0725 80.25 15.625C81.1725 15.59 81.2525 14.3625 82.375 14.625C82.4725 14.6475 82.5275 14.8525 82.625 14.875C83.235 15.0175 83.83 14.7775 83.75 14.125H85Z" fill="#284655"/>
<path d="M86.7503 24.1245C86.6628 24.947 87.6428 24.8995 88.1253 25.3745H88.3753C88.8653 24.887 89.7953 25.212 90.5003 25.1245C90.4503 25.6395 90.9853 26.1745 91.5003 26.1245V27.1245C92.1778 27.0145 92.6778 27.2495 93.2503 27.3745V28.6245L94.2503 28.3745C94.1828 29.062 94.2253 29.677 95.0003 29.6245V30.1245H95.5003V30.8745H96.0003V32.3745C95.3228 32.4845 94.8228 32.2495 94.2503 32.1245C94.4078 31.7395 93.9553 30.9645 93.6253 30.8745C93.2953 30.7845 92.7103 30.967 92.3753 30.8745C92.2903 30.852 91.0853 29.902 91.0003 29.7495C90.6753 29.167 90.4953 29.2545 89.8753 28.8745C89.6428 28.732 89.1678 28.187 88.8753 28.1245C88.5828 28.062 88.1428 28.1995 87.8753 28.1245C87.7378 28.087 87.5128 27.662 87.3753 27.6245C87.1128 27.552 86.6828 27.6745 86.3753 27.6245C86.2853 27.6095 86.2278 27.407 86.1253 27.3745C85.6928 27.2395 84.8928 27.827 84.6253 27.8745C83.4578 28.082 82.3253 27.6745 81.2503 27.6245C81.2028 27.577 81.3178 27.367 81.2503 27.2495C80.9278 26.6845 80.5028 26.9795 80.1253 26.8745C80.0653 26.857 79.2678 26.0595 79.2503 25.9995C79.1203 25.5295 79.3403 24.667 79.2503 24.1245C79.6528 24.262 79.7778 23.892 79.8753 23.8745C80.2553 23.807 80.7478 23.942 81.1253 23.8745C81.4353 23.8195 82.1753 23.2445 82.6253 23.3745C82.7128 23.3995 83.5153 24.077 83.8753 24.1245C84.6328 23.1145 85.3028 23.797 86.1253 24.3745L86.7503 24.1245Z" fill="#284655"/>
<path d="M50.5 111.375V111.875L51.625 111.625C51.7475 111.905 52.0575 111.833 52.125 111.875C52.4825 112.1 52.7325 113.013 53.125 113.125C53.2875 113.173 53.49 113.07 53.625 113.125C53.785 113.19 53.8375 113.505 54.25 113.375C54.3075 113.8 54.165 114.36 54.25 114.75C54.3825 115.358 55.395 115.955 54.25 116.75L54.5 117.875L55 118C54.3225 118.665 53.8875 119.998 52.75 119.875V120.625C52.275 120.443 52.01 120.84 51.875 120.875C51.24 121.045 50.4675 121.01 49.875 121.625H49.625C49.34 121.188 48.8225 121.453 48.375 121.375C48.28 121.358 48.22 121.14 48.125 121.125C47.7475 121.063 47.1975 121.213 46.875 121.125C46.7975 121.105 45.77 120.078 45.75 120C45.6775 119.733 45.81 119.298 45.75 119C45.6975 118.743 45.385 117.958 45.25 117.5C45.2125 117.375 44.855 117.165 44.75 117L45.75 115.75C45.2625 115.26 45.5875 114.33 45.5 113.625C46.42 113.69 46.145 112.343 47.25 112.625V112.125C47.91 112.355 48.665 111.475 49.125 111.375C49.5125 111.29 50.075 111.433 50.5 111.375ZM51.5 114.125C50.99 114.533 51.025 114.148 50.875 114.125C50.6175 114.088 49.41 114.29 49.125 114.375C48.995 114.415 48.91 114.76 48.5 114.625C48.53 114.908 48.4525 115.235 48.5 115.5C48.5175 115.598 48.75 115.668 48.75 115.75C48.75 115.833 48.5175 115.905 48.5 116C48.4 116.58 48.65 117.163 47.75 117.125L48 117.875C48.41 118.01 48.4925 117.665 48.625 117.625C49.25 117.435 49.415 118.068 49.625 118.125C50.1475 118.27 51.1925 117.985 51.5 117.5C51.5425 117.433 51.47 117.123 51.75 117L51.25 115.75L51.75 115.25L51.5 114.125Z" fill="#284655"/>
</svg>
