<svg width="40" height="40" viewBox="0 0 40 40" fill="none" xmlns="http://www.w3.org/2000/svg">
<path d="M31.9433 34.5956H37.2506V33.2688C37.2506 27.5859 33.2808 22.8302 27.9629 21.6235" stroke="#284655" stroke-width="2.85006" stroke-linecap="round" stroke-linejoin="round"/>
<path d="M23.9844 5.57242C24.4085 5.46327 24.853 5.40521 25.3112 5.40521C28.2424 5.40521 30.6184 7.78135 30.6184 10.7125C30.6184 13.6436 28.2424 16.0197 25.3112 16.0197C24.853 16.0197 24.4085 15.9616 23.9844 15.8525" stroke="#284655" stroke-width="2.85006" stroke-linecap="round" stroke-linejoin="round"/>
<path d="M14.6952 21.3256C8.10022 21.3256 2.75391 26.6719 2.75391 33.2669V34.5937H26.6365V33.2669C26.6365 26.6719 21.2902 21.3256 14.6952 21.3256Z" stroke="#284655" stroke-width="2.85006" stroke-linecap="round" stroke-linejoin="round"/>
<path d="M14.6959 16.0197C17.627 16.0197 20.0032 13.6436 20.0032 10.7125C20.0032 7.78135 17.627 5.40521 14.6959 5.40521C11.7648 5.40521 9.38867 7.78135 9.38867 10.7125C9.38867 13.6436 11.7648 16.0197 14.6959 16.0197Z" stroke="#284655" stroke-width="2.85006" stroke-linecap="round" stroke-linejoin="round"/>
</svg>
