<svg width="24" height="24" viewBox="0 0 24 24" fill="none" xmlns="http://www.w3.org/2000/svg">
<g clip-path="url(#clip0_1_8774)">
<path d="M11.9999 13.5923C14.1982 13.5923 15.9802 11.8102 15.9802 9.61195C15.9802 7.41366 14.1982 5.63159 11.9999 5.63159C9.8016 5.63159 8.01953 7.41366 8.01953 9.61195C8.01953 11.8102 9.8016 13.5923 11.9999 13.5923Z" stroke="#284655" stroke-width="1.71" stroke-linecap="round" stroke-linejoin="round"/>
<path d="M5.20312 19.8014C5.9136 18.6352 6.91215 17.6713 8.10275 17.0026C9.29336 16.3337 10.636 15.9824 12.0016 15.9824C13.3672 15.9824 14.7098 16.3337 15.9004 17.0026C17.0911 17.6713 18.0895 18.6352 18.8001 19.8014" stroke="#284655" stroke-width="1.71" stroke-linecap="round" stroke-linejoin="round"/>
<path d="M12.0013 22.349C17.7169 22.349 22.3502 17.7157 22.3502 12.0001C22.3502 6.2845 17.7169 1.65112 12.0013 1.65112C6.28572 1.65112 1.65234 6.2845 1.65234 12.0001C1.65234 17.7157 6.28572 22.349 12.0013 22.349Z" stroke="#284655" stroke-width="1.71" stroke-linecap="round" stroke-linejoin="round"/>
</g>
<defs>
<clipPath id="clip0_1_8774">
<rect width="24" height="24" fill="white"/>
</clipPath>
</defs>
</svg>
