<svg width="105" height="75" viewBox="0 0 105 75" fill="none" xmlns="http://www.w3.org/2000/svg">
<path d="M92.5131 0.194036C80.7086 -1.79042 76.7707 12.1008 76.7707 12.1008L67.7763 34.5943C67.7763 34.5943 64.6751 36.7972 62.6107 37.9624C54.9259 42.2863 50.9425 35.541 50.9425 35.541C50.9425 35.541 56.1172 32.4551 60.8554 29.4784C65.5936 26.5017 69.0859 24.0621 68.231 17.4533C67.3761 10.8445 55.7353 7.69491 45.5495 15.0046C34.7635 22.7513 39.0561 34.4851 39.0561 34.4851C39.1561 34.7672 39.2562 35.0312 39.3653 35.2861C36.5006 36.9338 33.8541 38.2355 32.8992 38.0807C29.2432 37.4981 31.6805 31.9999 31.6805 31.9999C31.6805 31.9999 33.5085 27.1389 34.2179 25.0634C36.255 19.5015 37.0371 13.1385 32.4535 11.5546C25.7146 9.21511 19.7122 11.7822 15.4379 14.8499C15.4288 14.8317 15.4106 14.8044 15.4015 14.7861C15.3833 14.8044 15.356 14.8226 15.3378 14.8408C11.891 10.3439 4.6155 11.9096 4.6155 11.9096L3.38775 16.5885C7.17103 16.625 8.97173 18.1725 9.73566 20.1023C9.38098 20.5119 9.11724 20.8396 8.93535 21.0763C3.85156 27.2573 1.13233 34.2484 0.450249 38.7544C-0.0954169 42.3774 0.141038 44.8079 1.80532 45.3267C3.17858 45.7546 6.2434 44.4073 8.21689 42.1498C10.927 39.0548 16.2473 30.9713 17.0112 23.2975C17.1294 22.4145 17.1749 21.5861 17.1658 20.8305C18.5845 19.1192 20.367 17.7173 22.3042 17.8994C27.0424 18.3454 24.6141 23.8709 24.6141 23.8709C24.6141 23.8709 19.8487 33.8296 20.8036 38.108C21.7767 42.9053 24.8415 45.2266 30.5437 45.2266C33.4448 45.2266 38.4559 42.8234 42.7666 40.4111C44.4582 41.9586 48.2688 44.8534 53.4435 45.3358C47.8231 50.7339 44.4946 58.0254 44.8583 64.5159C45.0857 68.6941 47.6867 74.1832 53.4253 74.9115C60.4098 75.7945 64.1203 69.8957 66.1484 65.0256C67.4671 61.8669 73.6058 46.319 73.6058 46.319L75.8612 40.5841L77.4619 36.6334C86.429 31.918 89.994 29.1325 94.9232 23.2884C100.935 16.1698 104.309 2.18759 92.504 0.203139M52.3158 19.7655C57.9907 16.361 58.891 20.6212 58.982 21.1036C59.1548 22.0048 59.0366 22.9789 55.6807 25.1818C52.3249 27.3847 48.7417 29.3692 48.7417 29.3692C48.7417 29.3692 46.5499 23.2337 52.3158 19.7655ZM55.7989 64.8163C54.7804 66.7461 52.2885 66.5458 52.243 64.2064C52.143 58.2166 57.6269 48.9679 63.9112 45.9184C62.4924 49.4777 56.8084 62.8864 55.7898 64.8163M92.5586 16.0515C90.8852 20.2571 85.2194 26.3014 80.5267 28.6045C82.9913 22.5965 87.2748 12.3192 87.784 10.9993C88.5571 9.01485 89.8758 7.80415 90.9762 7.80415C92.7314 7.80415 95.1051 9.64295 92.5586 16.0515Z" fill="white"/>
<mask id="mask0_548_27747" style="mask-type:luminance" maskUnits="userSpaceOnUse" x="65" y="34" width="36" height="13">
<path d="M100.198 34.2484H65.1387V46.6375H100.198V34.2484Z" fill="white"/>
</mask>
<g mask="url(#mask0_548_27747)">
<mask id="mask1_548_27747" style="mask-type:luminance" maskUnits="userSpaceOnUse" x="65" y="34" width="36" height="13">
<path d="M67.9761 38.809L65.1387 46.6284C75.5882 38.6997 99.943 38.8545 99.943 38.8545L100.198 34.3121C100.198 34.3121 98.9336 34.2393 96.8146 34.2393C90.9487 34.2393 78.4893 34.7763 67.9761 38.7999" fill="white"/>
</mask>
<g mask="url(#mask1_548_27747)">
<path d="M69.2381 22.9684L61.1602 45.1832L96.0961 57.9108L104.174 35.696L69.2381 22.9684Z" fill="url(#paint0_linear_548_27747)"/>
</g>
</g>
<g opacity="0.4">
<mask id="mask2_548_27747" style="mask-type:luminance" maskUnits="userSpaceOnUse" x="99" y="35" width="2" height="2">
<path d="M100.215 35.0768H99.2051V36.0872H100.215V35.0768Z" fill="white"/>
</mask>
<g mask="url(#mask2_548_27747)">
<mask id="mask3_548_27747" style="mask-type:luminance" maskUnits="userSpaceOnUse" x="99" y="35" width="2" height="2">
<path d="M100.214 35.0768H99.2041V36.0872H100.214V35.0768Z" fill="white"/>
</mask>
<g mask="url(#mask3_548_27747)">
<path d="M99.6412 36.0781C99.914 36.1145 100.169 35.9234 100.205 35.6412C100.241 35.3681 100.05 35.1132 99.7685 35.0768C99.4957 35.0404 99.241 35.2315 99.2046 35.5137C99.1683 35.7868 99.3592 36.0417 99.6412 36.0781Z" fill="white"/>
</g>
</g>
</g>
<g opacity="0.2">
<mask id="mask4_548_27747" style="mask-type:luminance" maskUnits="userSpaceOnUse" x="92" y="37" width="2" height="2">
<path d="M93.2395 37.2341H92.3027V38.1717H93.2395V37.2341Z" fill="white"/>
</mask>
<g mask="url(#mask4_548_27747)">
<mask id="mask5_548_27747" style="mask-type:luminance" maskUnits="userSpaceOnUse" x="92" y="37" width="2" height="2">
<path d="M93.2385 37.2341H92.3018V38.1717H93.2385V37.2341Z" fill="white"/>
</mask>
<g mask="url(#mask5_548_27747)">
<path d="M92.7114 38.1717C92.9661 38.2081 93.2025 38.0261 93.2389 37.7621C93.2753 37.5072 93.0934 37.2705 92.8387 37.2341C92.5841 37.1977 92.3476 37.3797 92.3113 37.6346C92.2749 37.8895 92.4568 38.1262 92.7205 38.1626" fill="white"/>
</g>
</g>
</g>
<path d="M101.853 35.8414C101.962 35.8596 102.062 35.7777 102.072 35.6685C102.09 35.5592 102.008 35.4591 101.899 35.45C101.79 35.4318 101.69 35.5137 101.68 35.6229C101.671 35.7322 101.744 35.8323 101.853 35.8414Z" fill="white"/>
<g opacity="0.3">
<mask id="mask6_548_27747" style="mask-type:luminance" maskUnits="userSpaceOnUse" x="97" y="36" width="2" height="3">
<path d="M98.2419 36.9247H97.0869V38.0717H98.2419V36.9247Z" fill="white"/>
</mask>
<g mask="url(#mask6_548_27747)">
<mask id="mask7_548_27747" style="mask-type:luminance" maskUnits="userSpaceOnUse" x="97" y="36" width="2" height="3">
<path d="M98.2419 36.9247H97.0869V38.0717H98.2419V36.9247Z" fill="white"/>
</mask>
<g mask="url(#mask7_548_27747)">
<path d="M97.5774 37.1067C97.541 37.2342 97.4046 37.3707 97.2773 37.4071L97.1863 37.4344C97.059 37.4708 97.059 37.5346 97.1863 37.571L97.2773 37.5983C97.4046 37.6347 97.541 37.7712 97.5774 37.8987L97.6047 37.9806C97.641 38.108 97.7047 38.108 97.7411 37.9806L97.7684 37.8987C97.8047 37.7712 97.9412 37.6347 98.0685 37.5983L98.1594 37.571C98.2867 37.5346 98.2867 37.4708 98.1594 37.4344L98.0685 37.4071C97.9412 37.3707 97.8047 37.2342 97.7684 37.1067L97.7411 37.0157C97.7047 36.8882 97.641 36.8882 97.6047 37.0157L97.5774 37.1067Z" fill="white"/>
</g>
</g>
</g>
<g opacity="0.5">
<mask id="mask8_548_27747" style="mask-type:luminance" maskUnits="userSpaceOnUse" x="103" y="35" width="2" height="2">
<path d="M104.881 35.2861H103.28V36.8883H104.881V35.2861Z" fill="white"/>
</mask>
<g mask="url(#mask8_548_27747)">
<mask id="mask9_548_27747" style="mask-type:luminance" maskUnits="userSpaceOnUse" x="103" y="35" width="2" height="2">
<path d="M104.881 35.2861H103.28V36.8883H104.881V35.2861Z" fill="white"/>
</mask>
<g mask="url(#mask9_548_27747)">
<path d="M103.953 35.541C103.899 35.7231 103.717 35.9051 103.535 35.9598L103.417 35.9962C103.235 36.0508 103.235 36.1327 103.417 36.1873L103.535 36.2237C103.717 36.2784 103.899 36.4604 103.953 36.6425L103.99 36.7608C104.044 36.9338 104.126 36.9338 104.181 36.7608L104.217 36.6425C104.272 36.4604 104.453 36.2784 104.635 36.2237L104.754 36.1873C104.926 36.1327 104.926 36.0508 104.754 35.9962L104.635 35.9598C104.453 35.9051 104.272 35.7231 104.217 35.541L104.181 35.4227C104.126 35.2406 104.044 35.2406 103.99 35.4227L103.953 35.541Z" fill="white"/>
</g>
</g>
</g>
<g opacity="0.8">
<mask id="mask10_548_27747" style="mask-type:luminance" maskUnits="userSpaceOnUse" x="100" y="37" width="2" height="1">
<path d="M101.444 37.1431H100.734V37.8532H101.444V37.1431Z" fill="white"/>
</mask>
<g mask="url(#mask10_548_27747)">
<mask id="mask11_548_27747" style="mask-type:luminance" maskUnits="userSpaceOnUse" x="100" y="37" width="2" height="1">
<path d="M101.444 37.1431H100.734V37.8532H101.444V37.1431Z" fill="white"/>
</mask>
<g mask="url(#mask11_548_27747)">
<path d="M101.007 37.225C100.971 37.2888 100.889 37.3707 100.825 37.4071L100.789 37.4253C100.725 37.4617 100.725 37.5254 100.789 37.5619L100.825 37.5801C100.889 37.6165 100.971 37.6984 101.007 37.7621L101.025 37.7985C101.062 37.8622 101.125 37.8622 101.162 37.7985L101.18 37.7621C101.216 37.6984 101.298 37.6165 101.371 37.5801L101.407 37.5619C101.471 37.5254 101.471 37.4617 101.407 37.4253L101.371 37.4071C101.307 37.3707 101.225 37.2888 101.18 37.225L101.162 37.1886C101.125 37.1249 101.062 37.1249 101.025 37.1886L101.007 37.225Z" fill="white"/>
</g>
</g>
</g>
<path d="M6.39757 52.8458C6.71587 52.8458 6.96142 53.1189 6.96142 53.4375C6.96142 53.7561 6.71587 54.011 6.39757 54.011H2.61429V56.2504H5.84281C6.16111 56.2504 6.40666 56.5052 6.40666 56.8238C6.40666 57.1425 6.16111 57.4155 5.84281 57.4155H2.61429V60.3285C2.61429 60.6835 2.31417 60.9657 1.95949 60.9657C1.6048 60.9657 1.30469 60.6835 1.30469 60.3285V53.4739C1.30469 53.1189 1.59571 52.8367 1.95949 52.8367H6.39757V52.8458Z" fill="white"/>
<path d="M7.74294 56.1684C8.26132 55.6859 8.97978 55.3946 9.771 55.3946C10.5622 55.3946 11.2898 55.6859 11.7991 56.1684C12.3174 56.6599 12.6176 57.3518 12.6176 58.1801C12.6176 59.0085 12.3265 59.7186 11.7991 60.201C11.2989 60.6835 10.5531 60.9657 9.771 60.9657C8.98887 60.9657 8.24313 60.6835 7.74294 60.201C7.21546 59.7186 6.90625 59.0176 6.90625 58.1801C6.90625 57.3427 7.22455 56.6599 7.74294 56.1684ZM8.56144 59.4364C8.85246 59.755 9.2799 59.9552 9.771 59.9552C10.2621 59.9552 10.6713 59.755 10.9715 59.4364C11.2625 59.1086 11.4444 58.6808 11.4444 58.1801C11.4444 57.6795 11.2716 57.2516 10.9715 56.9239C10.6804 56.6053 10.253 56.4051 9.771 56.4051C9.28899 56.4051 8.85246 56.6053 8.56144 56.9239C8.27041 57.2516 8.10671 57.6795 8.10671 58.1801C8.10671 58.6808 8.27041 59.1086 8.56144 59.4364Z" fill="white"/>
<path d="M13.6819 55.9863C13.6819 55.6586 13.9548 55.3946 14.2822 55.3946C14.6096 55.3946 14.8824 55.6495 14.8824 55.9863V56.223C15.2735 55.6859 15.8828 55.4037 16.6194 55.4037C17.2288 55.4037 17.7835 55.5585 18.1655 55.9135C18.5657 56.2685 18.7839 56.842 18.7839 57.6522V60.3922C18.7839 60.7199 18.502 60.9839 18.1837 60.9839C17.8381 60.9839 17.5744 60.729 17.5744 60.3922V57.9526C17.5744 57.4701 17.5016 57.0332 17.2288 56.751C17.0378 56.5598 16.7741 56.4415 16.3739 56.4415C15.8373 56.4415 15.4099 56.6872 15.1552 57.1424C14.9552 57.5065 14.8733 57.9526 14.8733 58.3895V60.3922C14.8733 60.7199 14.5914 60.9839 14.2731 60.9839C13.9548 60.9839 13.6729 60.729 13.6729 60.3922V55.9954L13.6819 55.9863Z" fill="white"/>
<path d="M22.8499 60.8474C21.9223 60.8474 21.0856 60.6016 20.5308 60.0827C20.0488 59.664 19.7578 59.0268 19.7578 58.1984C19.7578 57.5248 19.9306 56.8784 20.3217 56.3778C20.7764 55.777 21.5221 55.3856 22.5316 55.3856C22.9227 55.3856 23.2228 55.4311 23.5411 55.5403V53.3192C23.5411 52.9915 23.8139 52.7275 24.1413 52.7275C24.4687 52.7275 24.7507 52.9824 24.7507 53.3192V60.1919C24.7507 60.6198 24.4323 60.8383 24.0686 60.8383H22.859L22.8499 60.8474ZM23.532 59.8369V56.5689C23.2228 56.4779 22.9681 56.4324 22.5953 56.4324C22.0587 56.4324 21.5949 56.6782 21.313 57.0787C21.1038 57.37 20.9856 57.7523 20.9856 58.1802C20.9856 58.7082 21.1584 59.0996 21.4403 59.3545C21.8132 59.7095 22.3679 59.8369 22.9772 59.8369H23.532Z" fill="white"/>
<path d="M30.7981 60.0463C30.7981 60.3012 30.6072 60.4833 30.2434 60.6471C29.7887 60.8474 29.2248 60.9657 28.6337 60.9657C27.7424 60.9657 27.0149 60.6744 26.5238 60.1464C26.0508 59.6549 25.7871 58.9448 25.7871 58.1165C25.7871 57.3427 26.0599 56.66 26.5238 56.1684C26.9694 55.6951 27.6424 55.4038 28.4882 55.4038C29.3339 55.4038 29.9524 55.7042 30.3798 56.132C30.8618 56.6327 31.0255 57.2608 31.0255 57.8434C31.0255 58.2166 30.8072 58.517 30.4162 58.517H27.0603C27.0967 58.9084 27.2331 59.2452 27.4605 59.491C27.7515 59.8278 28.188 60.019 28.7246 60.019C29.143 60.019 29.5158 59.9098 29.7887 59.7823C30.0524 59.664 30.1797 59.5547 30.3525 59.5547C30.6072 59.5547 30.7981 59.7914 30.7981 60.0463ZM29.8523 57.6886C29.8432 57.3154 29.725 57.0059 29.5158 56.7601C29.2976 56.5234 28.9429 56.3596 28.5063 56.3596C28.0334 56.3596 27.6515 56.5234 27.415 56.7783C27.2149 57.015 27.0876 57.3518 27.0603 57.6795H29.8523V57.6886Z" fill="white"/>
<path d="M32.0442 55.9863C32.0442 55.6586 32.3171 55.3946 32.6445 55.3946C32.9719 55.3946 33.2447 55.6495 33.2447 55.9863V56.223C33.6358 55.6859 34.2451 55.4037 34.9817 55.4037C35.5911 55.4037 36.1458 55.5585 36.5278 55.9135C36.928 56.2685 37.1462 56.842 37.1462 57.6522V60.3922C37.1462 60.7199 36.8643 60.9839 36.546 60.9839C36.2004 60.9839 35.9367 60.729 35.9367 60.3922V57.9526C35.9367 57.4701 35.8639 57.0332 35.5911 56.751C35.4001 56.5598 35.1364 56.4415 34.7362 56.4415C34.1996 56.4415 33.7722 56.6872 33.5175 57.1424C33.3175 57.5065 33.2356 57.9526 33.2356 58.3895V60.3922C33.2356 60.7199 32.9537 60.9839 32.6354 60.9839C32.3171 60.9839 32.0352 60.729 32.0352 60.3922V55.9954L32.0442 55.9863Z" fill="white"/>
<defs>
<linearGradient id="paint0_linear_548_27747" x1="69.6403" y1="36.5391" x2="97.9741" y2="42.5454" gradientUnits="userSpaceOnUse">
<stop stop-color="white"/>
<stop offset="0.26" stop-color="white"/>
<stop offset="0.31" stop-color="white"/>
<stop offset="0.36" stop-color="white"/>
<stop offset="0.42" stop-color="white"/>
<stop offset="0.47" stop-color="white"/>
<stop offset="0.52" stop-color="white"/>
<stop offset="0.53" stop-color="white"/>
<stop offset="1" stop-color="#192A33"/>
</linearGradient>
</defs>
</svg>
