<svg width="70" height="50" viewBox="0 0 70 50" fill="none" xmlns="http://www.w3.org/2000/svg">
<path d="M61.6754 0.129357C53.8057 -1.19361 51.1805 8.06718 51.1805 8.06718L45.1842 23.0629C45.1842 23.0629 43.1167 24.5315 41.7404 25.3083C36.6173 28.1909 33.9617 23.694 33.9617 23.694C33.9617 23.694 37.4115 21.6367 40.5703 19.6523C43.7291 17.6678 46.0573 16.0414 45.4874 11.6356C44.9174 7.2297 37.1569 5.12994 30.3663 10.0031C23.1757 15.1675 26.0374 22.99 26.0374 22.99C26.1041 23.1782 26.1708 23.3542 26.2435 23.5241C24.3337 24.6225 22.5694 25.4903 21.9328 25.3872C19.4955 24.9988 21.1203 21.3333 21.1203 21.3333C21.1203 21.3333 22.339 18.0926 22.8119 16.709C24.17 13.001 24.6914 8.759 21.6357 7.70306C17.143 6.14341 13.1415 7.85477 10.2919 9.89991C10.2858 9.88778 10.2737 9.86957 10.2677 9.85743C10.2555 9.86957 10.2373 9.88171 10.2252 9.89384C7.92736 6.89592 3.077 7.93973 3.077 7.93973L2.2585 11.059C4.78069 11.0833 5.98115 12.115 6.49044 13.4015C6.25398 13.6746 6.07816 13.8931 5.9569 14.0509C2.56771 18.1715 0.754887 22.8322 0.300166 25.8362C-0.0636113 28.2516 0.0940254 29.8719 1.20355 30.2178C2.11905 30.503 4.16227 29.6049 5.47793 28.0999C7.28469 26.0365 10.8315 20.6475 11.3408 15.5316C11.4196 14.943 11.4499 14.3907 11.4439 13.887C12.3897 12.7461 13.578 11.8115 14.8694 11.9329C18.0282 12.2303 16.4094 15.914 16.4094 15.914C16.4094 15.914 13.2324 22.5531 13.8691 25.4054C14.5178 28.6036 16.561 30.1511 20.3625 30.1511C22.2966 30.1511 25.6372 28.5489 28.5111 26.9407C29.6388 27.9724 32.1792 29.9022 35.629 30.2239C31.8821 33.8226 29.663 38.6836 29.9056 43.0106C30.0571 45.7961 31.7911 49.4555 35.6169 49.941C40.2732 50.5297 42.7469 46.5972 44.0989 43.3504C44.9781 41.2446 49.0706 30.8793 49.0706 30.8793L50.5742 27.056L51.6412 24.4222C57.6193 21.2787 59.996 19.4217 63.2821 15.5256C67.2897 10.7799 69.5391 1.4584 61.6694 0.135426M34.8772 13.177C38.6605 10.9073 39.2607 13.7474 39.3213 14.0691C39.4365 14.6699 39.3577 15.3192 37.1205 16.7879C34.8832 18.2565 32.4944 19.5794 32.4944 19.5794C32.4944 19.5794 31.0333 15.4892 34.8772 13.177ZM37.1993 43.2108C36.5202 44.4974 34.859 44.3639 34.8287 42.8042C34.762 38.8111 38.4179 32.6453 42.6074 30.6123C41.6616 32.9851 37.8723 41.9243 37.1932 43.2108M61.7057 10.701C60.5902 13.5047 56.8129 17.5343 53.6845 19.0697C55.3275 15.0644 58.1832 8.21282 58.5227 7.33287C59.0381 6.0099 59.9172 5.20276 60.6508 5.20276C61.8209 5.20276 63.4034 6.42863 61.7057 10.701Z" fill="#2A4854"/>
<mask id="mask0_400_4706" style="mask-type:luminance" maskUnits="userSpaceOnUse" x="43" y="22" width="24" height="10">
<path d="M66.7985 22.8323H43.4258V31.0917H66.7985V22.8323Z" fill="white"/>
</mask>
<g mask="url(#mask0_400_4706)">
<mask id="mask1_400_4706" style="mask-type:luminance" maskUnits="userSpaceOnUse" x="43" y="22" width="24" height="10">
<path d="M45.3174 25.8726L43.4258 31.0856C50.3921 25.7998 66.6287 25.903 66.6287 25.903L66.7985 22.8747C66.7985 22.8747 65.9557 22.8262 64.543 22.8262C60.6324 22.8262 52.3262 23.1842 45.3174 25.8666" fill="white"/>
</mask>
<g mask="url(#mask1_400_4706)">
<path d="M46.1587 15.3122L40.7734 30.1221L64.064 38.6072L69.4493 23.7973L46.1587 15.3122Z" fill="url(#paint0_linear_400_4706)"/>
</g>
</g>
<g opacity="0.4">
<mask id="mask2_400_4706" style="mask-type:luminance" maskUnits="userSpaceOnUse" x="66" y="23" width="1" height="2">
<path d="M66.8097 23.3845H66.1367V24.0581H66.8097V23.3845Z" fill="white"/>
</mask>
<g mask="url(#mask2_400_4706)">
<mask id="mask3_400_4706" style="mask-type:luminance" maskUnits="userSpaceOnUse" x="66" y="23" width="1" height="2">
<path d="M66.8097 23.3845H66.1367V24.0581H66.8097V23.3845Z" fill="white"/>
</mask>
<g mask="url(#mask3_400_4706)">
<path d="M66.4268 24.0521C66.6087 24.0764 66.7784 23.9489 66.8027 23.7608C66.8269 23.5787 66.6996 23.4088 66.5117 23.3846C66.3298 23.3603 66.16 23.4877 66.1358 23.6758C66.1115 23.8579 66.2388 24.0278 66.4268 24.0521Z" fill="#97C998"/>
</g>
</g>
</g>
<g opacity="0.2">
<mask id="mask4_400_4706" style="mask-type:luminance" maskUnits="userSpaceOnUse" x="61" y="24" width="2" height="2">
<path d="M62.1596 24.8228H61.5352V25.4478H62.1596V24.8228Z" fill="white"/>
</mask>
<g mask="url(#mask4_400_4706)">
<mask id="mask5_400_4706" style="mask-type:luminance" maskUnits="userSpaceOnUse" x="61" y="24" width="2" height="2">
<path d="M62.1596 24.8228H61.5352V25.4478H62.1596V24.8228Z" fill="white"/>
</mask>
<g mask="url(#mask5_400_4706)">
<path d="M61.8089 25.4477C61.9787 25.472 62.1363 25.3506 62.1606 25.1747C62.1848 25.0047 62.0636 24.8469 61.8938 24.8227C61.724 24.7984 61.5664 24.9198 61.5421 25.0897C61.5179 25.2596 61.6392 25.4174 61.815 25.4417" fill="#3AB4AF"/>
</g>
</g>
</g>
<path d="M67.9009 23.8942C67.9736 23.9064 68.0403 23.8518 68.0464 23.7789C68.0585 23.7061 68.0039 23.6394 67.9312 23.6333C67.8584 23.6211 67.7917 23.6758 67.7857 23.7486C67.7796 23.8214 67.8281 23.8882 67.9009 23.8942Z" fill="#3AB4AF"/>
<g opacity="0.3">
<mask id="mask6_400_4706" style="mask-type:luminance" maskUnits="userSpaceOnUse" x="64" y="24" width="2" height="2">
<path d="M65.4966 24.6165H64.7266V25.3811H65.4966V24.6165Z" fill="white"/>
</mask>
<g mask="url(#mask6_400_4706)">
<mask id="mask7_400_4706" style="mask-type:luminance" maskUnits="userSpaceOnUse" x="64" y="24" width="2" height="2">
<path d="M65.4966 24.6165H64.7266V25.3811H65.4966V24.6165Z" fill="white"/>
</mask>
<g mask="url(#mask7_400_4706)">
<path d="M65.0548 24.7379C65.0306 24.8229 64.9396 24.9139 64.8548 24.9382L64.7941 24.9564C64.7092 24.9807 64.7092 25.0232 64.7941 25.0474L64.8548 25.0656C64.9396 25.0899 65.0306 25.1809 65.0548 25.2659L65.073 25.3205C65.0973 25.4055 65.1397 25.4055 65.164 25.3205L65.1822 25.2659C65.2064 25.1809 65.2974 25.0899 65.3822 25.0656L65.4429 25.0474C65.5277 25.0232 65.5277 24.9807 65.4429 24.9564L65.3822 24.9382C65.2974 24.9139 65.2064 24.8229 65.1822 24.7379L65.164 24.6772C65.1397 24.5923 65.0973 24.5923 65.073 24.6772L65.0548 24.7379Z" fill="#3AB4AF"/>
</g>
</g>
</g>
<g opacity="0.5">
<mask id="mask8_400_4706" style="mask-type:luminance" maskUnits="userSpaceOnUse" x="68" y="23" width="2" height="2">
<path d="M69.9225 23.5242H68.8555V24.5923H69.9225V23.5242Z" fill="white"/>
</mask>
<g mask="url(#mask8_400_4706)">
<mask id="mask9_400_4706" style="mask-type:luminance" maskUnits="userSpaceOnUse" x="68" y="23" width="2" height="2">
<path d="M69.9225 23.5242H68.8555V24.5923H69.9225V23.5242Z" fill="white"/>
</mask>
<g mask="url(#mask9_400_4706)">
<path d="M69.3041 23.6941C69.2678 23.8155 69.1465 23.9368 69.0252 23.9732L68.9464 23.9975C68.8252 24.0339 68.8252 24.0886 68.9464 24.125L69.0252 24.1492C69.1465 24.1857 69.2678 24.307 69.3041 24.4284L69.3284 24.5073C69.3648 24.6226 69.4193 24.6226 69.4557 24.5073L69.48 24.4284C69.5163 24.307 69.6376 24.1857 69.7589 24.1492L69.8377 24.125C69.9529 24.0886 69.9529 24.0339 69.8377 23.9975L69.7589 23.9732C69.6376 23.9368 69.5163 23.8155 69.48 23.6941L69.4557 23.6152C69.4193 23.4938 69.3648 23.4938 69.3284 23.6152L69.3041 23.6941Z" fill="#3AB4AF"/>
</g>
</g>
</g>
<g opacity="0.8">
<mask id="mask10_400_4706" style="mask-type:luminance" maskUnits="userSpaceOnUse" x="67" y="24" width="1" height="2">
<path d="M67.6292 24.7622H67.1562V25.2356H67.6292V24.7622Z" fill="white"/>
</mask>
<g mask="url(#mask10_400_4706)">
<mask id="mask11_400_4706" style="mask-type:luminance" maskUnits="userSpaceOnUse" x="67" y="24" width="1" height="2">
<path d="M67.6292 24.7622H67.1562V25.2356H67.6292V24.7622Z" fill="white"/>
</mask>
<g mask="url(#mask11_400_4706)">
<path d="M67.3375 24.8169C67.3132 24.8594 67.2587 24.914 67.2162 24.9382L67.192 24.9504C67.1495 24.9747 67.1495 25.0171 67.192 25.0414L67.2162 25.0536C67.2587 25.0778 67.3132 25.1324 67.3375 25.1749L67.3496 25.1992C67.3739 25.2417 67.4163 25.2417 67.4406 25.1992L67.4527 25.1749C67.4769 25.1324 67.5315 25.0778 67.58 25.0536L67.6043 25.0414C67.6467 25.0171 67.6467 24.9747 67.6043 24.9504L67.58 24.9382C67.5376 24.914 67.483 24.8594 67.4527 24.8169L67.4406 24.7926C67.4163 24.7501 67.3739 24.7501 67.3496 24.7926L67.3375 24.8169Z" fill="#97C998"/>
</g>
</g>
</g>
<path d="M4.26635 35.2304C4.47855 35.2304 4.64225 35.4125 4.64225 35.6249C4.64225 35.8373 4.47855 36.0072 4.26635 36.0072H1.74416V37.5001H3.89651C4.10871 37.5001 4.27241 37.67 4.27241 37.8824C4.27241 38.0948 4.10871 38.2769 3.89651 38.2769H1.74416V40.2189C1.74416 40.4556 1.54408 40.6437 1.30763 40.6437C1.07117 40.6437 0.871094 40.4556 0.871094 40.2189V35.6492C0.871094 35.4125 1.06511 35.2244 1.30763 35.2244H4.26635V35.2304Z" fill="#2A4854"/>
<path d="M5.16326 37.4455C5.50885 37.1239 5.98782 36.9297 6.5153 36.9297C7.04278 36.9297 7.52781 37.1239 7.86734 37.4455C8.21293 37.7732 8.413 38.2345 8.413 38.7867C8.413 39.339 8.21899 39.8123 7.86734 40.1339C7.53387 40.4556 7.03671 40.6437 6.5153 40.6437C5.99388 40.6437 5.49672 40.4556 5.16326 40.1339C4.81161 39.8123 4.60547 39.345 4.60547 38.7867C4.60547 38.2284 4.81767 37.7732 5.16326 37.4455ZM5.70893 39.6242C5.90294 39.8366 6.1879 39.9701 6.5153 39.9701C6.8427 39.9701 7.11553 39.8366 7.31561 39.6242C7.50962 39.4057 7.63088 39.1205 7.63088 38.7867C7.63088 38.4529 7.51569 38.1677 7.31561 37.9492C7.12159 37.7368 6.83664 37.6033 6.5153 37.6033C6.19396 37.6033 5.90294 37.7368 5.70893 37.9492C5.51491 38.1677 5.40578 38.4529 5.40578 38.7867C5.40578 39.1205 5.51491 39.4057 5.70893 39.6242Z" fill="#2A4854"/>
<path d="M9.12325 37.3241C9.12325 37.1057 9.30514 36.9297 9.52341 36.9297C9.74167 36.9297 9.92356 37.0996 9.92356 37.3241V37.4819C10.1843 37.1239 10.5905 36.9358 11.0816 36.9358C11.4878 36.9358 11.8576 37.0389 12.1123 37.2756C12.3791 37.5123 12.5246 37.8946 12.5246 38.4347V40.2614C12.5246 40.4799 12.3366 40.6559 12.1244 40.6559C11.894 40.6559 11.7182 40.4859 11.7182 40.2614V38.635C11.7182 38.3133 11.6697 38.022 11.4878 37.8339C11.3605 37.7065 11.1847 37.6276 10.9179 37.6276C10.5602 37.6276 10.2752 37.7914 10.1054 38.0949C9.97206 38.3376 9.9175 38.635 9.9175 38.9263V40.2614C9.9175 40.4799 9.72955 40.6559 9.51734 40.6559C9.30514 40.6559 9.11719 40.4859 9.11719 40.2614V37.3302L9.12325 37.3241Z" fill="#2A4854"/>
<path d="M15.2333 40.5649C14.6149 40.5649 14.0571 40.401 13.6872 40.0551C13.3659 39.7759 13.1719 39.3511 13.1719 38.7989C13.1719 38.3498 13.2871 37.9189 13.5478 37.5851C13.8509 37.1846 14.3481 36.9237 15.0211 36.9237C15.2818 36.9237 15.4819 36.954 15.6941 37.0268V35.5461C15.6941 35.3276 15.876 35.1516 16.0942 35.1516C16.3125 35.1516 16.5004 35.3215 16.5004 35.5461V40.1279C16.5004 40.4131 16.2882 40.5588 16.0457 40.5588H15.2393L15.2333 40.5649ZM15.688 39.8912V37.7126C15.4819 37.6519 15.3121 37.6216 15.0635 37.6216C14.7058 37.6216 14.3966 37.7854 14.2086 38.0524C14.0692 38.2466 13.9904 38.5015 13.9904 38.7867C13.9904 39.1387 14.1056 39.3997 14.2935 39.5696C14.5421 39.8063 14.9119 39.8912 15.3182 39.8912H15.688Z" fill="#2A4854"/>
<path d="M20.5321 40.0308C20.5321 40.2007 20.4048 40.3221 20.1623 40.4313C19.8591 40.5649 19.4832 40.6437 19.0891 40.6437C18.4949 40.6437 18.0099 40.4495 17.6825 40.0976C17.3672 39.7699 17.1914 39.2965 17.1914 38.7443C17.1914 38.2284 17.3733 37.7733 17.6825 37.4456C17.9796 37.13 18.4282 36.9358 18.9921 36.9358C19.556 36.9358 19.9682 37.1361 20.2532 37.4213C20.5745 37.7551 20.6837 38.1738 20.6837 38.5622C20.6837 38.811 20.5382 39.0113 20.2774 39.0113H18.0402C18.0645 39.2722 18.1554 39.4968 18.307 39.6606C18.501 39.8852 18.792 40.0126 19.1497 40.0126C19.4286 40.0126 19.6772 39.9398 19.8591 39.8548C20.0349 39.7759 20.1198 39.7031 20.235 39.7031C20.4048 39.7031 20.5321 39.8609 20.5321 40.0308ZM19.9015 38.459C19.8955 38.2102 19.8167 38.0039 19.6772 37.84C19.5317 37.6822 19.2953 37.573 19.0042 37.573C18.689 37.573 18.4343 37.6822 18.2767 37.8522C18.1433 38.0099 18.0584 38.2345 18.0402 38.453H19.9015V38.459Z" fill="#2A4854"/>
<path d="M21.3615 37.3241C21.3615 37.1057 21.5434 36.9297 21.7617 36.9297C21.98 36.9297 22.1618 37.0996 22.1618 37.3241V37.4819C22.4225 37.1239 22.8288 36.9358 23.3199 36.9358C23.7261 36.9358 24.0959 37.0389 24.3506 37.2756C24.6173 37.5123 24.7628 37.8946 24.7628 38.4347V40.2614C24.7628 40.4799 24.5749 40.6559 24.3627 40.6559C24.1323 40.6559 23.9565 40.4859 23.9565 40.2614V38.635C23.9565 38.3133 23.908 38.022 23.7261 37.8339C23.5988 37.7065 23.4229 37.6276 23.1562 37.6276C22.7985 37.6276 22.5135 37.7914 22.3437 38.0949C22.2103 38.3376 22.1558 38.635 22.1558 38.9263V40.2614C22.1558 40.4799 21.9678 40.6559 21.7556 40.6559C21.5434 40.6559 21.3555 40.4859 21.3555 40.2614V37.3302L21.3615 37.3241Z" fill="#2A4854"/>
<defs>
<linearGradient id="paint0_linear_400_4706" x1="46.4269" y1="24.3593" x2="65.2549" y2="31.2057" gradientUnits="userSpaceOnUse">
<stop stop-color="#2A4854"/>
<stop offset="0.26" stop-color="#2A4854"/>
<stop offset="0.31" stop-color="#2A4C58"/>
<stop offset="0.36" stop-color="#2C5A63"/>
<stop offset="0.42" stop-color="#307177"/>
<stop offset="0.47" stop-color="#349192"/>
<stop offset="0.52" stop-color="#3AB4AF"/>
<stop offset="0.53" stop-color="#3BB4AE"/>
<stop offset="0.59" stop-color="#6AC0A5"/>
<stop offset="0.65" stop-color="#8DC99F"/>
<stop offset="0.7" stop-color="#A2CF9B"/>
<stop offset="0.73" stop-color="#AAD19A"/>
<stop offset="1" stop-color="white"/>
</linearGradient>
</defs>
</svg>
