<svg width="56" height="40" viewBox="0 0 56 40" fill="none" xmlns="http://www.w3.org/2000/svg">
<path d="M49.3419 0.103486C43.0461 -0.95489 40.9459 6.45374 40.9459 6.45374L36.1489 18.4503C36.1489 18.4503 34.4949 19.6252 33.3939 20.2466C29.2954 22.5527 27.1709 18.9552 27.1709 18.9552C27.1709 18.9552 29.9308 17.3094 32.4578 15.7218C34.9848 14.1342 36.8474 12.8331 36.3914 9.30844C35.9355 5.78376 29.727 4.10395 24.2946 8.00246C18.5421 12.134 20.8315 18.392 20.8315 18.392C20.8848 18.5425 20.9382 18.6833 20.9964 18.8193C19.4685 19.698 18.0571 20.3923 17.5478 20.3097C15.5979 19.999 16.8978 17.0666 16.8978 17.0666C16.8978 17.0666 17.8728 14.4741 18.2511 13.3672C19.3376 10.4008 19.7547 7.0072 17.3101 6.16244C13.716 4.91473 10.5148 6.28382 8.23509 7.91993C8.23024 7.91022 8.22054 7.89566 8.21569 7.88595C8.20599 7.89566 8.19144 7.90536 8.18174 7.91507C6.34345 5.51674 2.46316 6.35179 2.46316 6.35179L1.80836 8.84722C3.82611 8.86664 4.78648 9.69198 5.19391 10.7212C5.00475 10.9397 4.86409 11.1145 4.76708 11.2407C2.05573 14.5372 0.605472 18.2658 0.241695 20.669C-0.0493265 22.6013 0.0767828 23.8975 0.964399 24.1743C1.6968 24.4024 3.33138 23.6839 4.3839 22.4799C5.82931 20.8292 8.66677 16.518 9.0742 12.4253C9.13726 11.9544 9.16151 11.5126 9.15666 11.1096C9.91332 10.1969 10.864 9.44923 11.8971 9.54633C14.4242 9.78423 13.1291 12.7312 13.1291 12.7312C13.1291 12.7312 10.5875 18.0425 11.0968 20.3243C11.6158 22.8828 13.2504 24.1208 16.2915 24.1208C17.8388 24.1208 20.5114 22.8391 22.8104 21.5526C23.7126 22.3779 25.7449 23.9218 28.5047 24.1791C25.5072 27.0581 23.732 30.9469 23.926 34.4085C24.0473 36.6369 25.4345 39.5644 28.495 39.9528C32.2201 40.4237 34.1991 37.2777 35.2807 34.6803C35.984 32.9957 39.258 24.7034 39.258 24.7034L40.4609 21.6448L41.3146 19.5378C46.097 17.0229 47.9984 15.5373 50.6272 12.4205C53.8333 8.6239 55.6328 1.16672 49.337 0.108341M27.9033 10.5416C30.9299 8.72585 31.4101 10.998 31.4586 11.2553C31.5508 11.7359 31.4877 12.2554 29.6979 13.4303C27.9082 14.6052 25.9971 15.6636 25.9971 15.6636C25.9971 15.6636 24.8282 12.3913 27.9033 10.5416ZM29.761 34.5687C29.2178 35.5979 27.8888 35.4911 27.8645 34.2434C27.8111 31.0488 30.7359 26.1162 34.0875 24.4898C33.3309 26.3881 30.2994 33.5394 29.7561 34.5687M49.3662 8.56078C48.4737 10.8038 45.4519 14.0274 42.9491 15.2557C44.2636 12.0515 46.5481 6.57026 46.8197 5.86629C47.232 4.80792 47.9353 4.16221 48.5222 4.16221C49.4583 4.16221 50.7243 5.14291 49.3662 8.56078Z" fill="white"/>
<mask id="mask0_400_2692" style="mask-type:luminance" maskUnits="userSpaceOnUse" x="34" y="18" width="20" height="7">
<path d="M53.4403 18.2659H34.7422V24.8734H53.4403V18.2659Z" fill="white"/>
</mask>
<g mask="url(#mask0_400_2692)">
<mask id="mask1_400_2692" style="mask-type:luminance" maskUnits="userSpaceOnUse" x="34" y="18" width="20" height="7">
<path d="M36.2555 20.6982L34.7422 24.8686C40.3153 20.6399 53.3045 20.7224 53.3045 20.7224L53.4403 18.2998C53.4403 18.2998 52.7661 18.261 51.636 18.261C48.5075 18.261 41.8625 18.5474 36.2555 20.6933" fill="white"/>
</mask>
<g mask="url(#mask1_400_2692)">
<path d="M36.9293 12.2498L32.6211 24.0977L51.2536 30.8857L55.5618 19.0378L36.9293 12.2498Z" fill="url(#paint0_linear_400_2692)"/>
</g>
</g>
<g opacity="0.4">
<mask id="mask2_400_2692" style="mask-type:luminance" maskUnits="userSpaceOnUse" x="52" y="18" width="2" height="2">
<path d="M53.4485 18.7076H52.9102V19.2465H53.4485V18.7076Z" fill="white"/>
</mask>
<g mask="url(#mask2_400_2692)">
<mask id="mask3_400_2692" style="mask-type:luminance" maskUnits="userSpaceOnUse" x="52" y="18" width="2" height="2">
<path d="M53.4485 18.7076H52.9102V19.2465H53.4485V18.7076Z" fill="white"/>
</mask>
<g mask="url(#mask3_400_2692)">
<path d="M53.1414 19.2419C53.2869 19.2613 53.4228 19.1593 53.4422 19.0088C53.4616 18.8632 53.3597 18.7272 53.2093 18.7078C53.0638 18.6884 52.928 18.7903 52.9086 18.9409C52.8892 19.0865 52.9911 19.2224 53.1414 19.2419Z" fill="white"/>
</g>
</g>
</g>
<g opacity="0.2">
<mask id="mask4_400_2692" style="mask-type:luminance" maskUnits="userSpaceOnUse" x="49" y="19" width="1" height="2">
<path d="M49.7301 19.8582H49.2305V20.3582H49.7301V19.8582Z" fill="white"/>
</mask>
<g mask="url(#mask4_400_2692)">
<mask id="mask5_400_2692" style="mask-type:luminance" maskUnits="userSpaceOnUse" x="49" y="19" width="1" height="2">
<path d="M49.7301 19.8582H49.2305V20.3582H49.7301V19.8582Z" fill="white"/>
</mask>
<g mask="url(#mask5_400_2692)">
<path d="M49.4503 20.3582C49.5861 20.3777 49.7122 20.2806 49.7316 20.1398C49.751 20.0038 49.654 19.8776 49.5182 19.8582C49.3824 19.8388 49.2562 19.9359 49.2368 20.0718C49.2174 20.2077 49.3144 20.334 49.4551 20.3534" fill="white"/>
</g>
</g>
</g>
<path d="M54.323 19.1154C54.3812 19.1251 54.4346 19.0814 54.4394 19.0231C54.4491 18.9649 54.4055 18.9115 54.3473 18.9066C54.2891 18.8969 54.2357 18.9406 54.2309 18.9989C54.226 19.0571 54.2648 19.1105 54.323 19.1154Z" fill="white"/>
<g opacity="0.3">
<mask id="mask6_400_2692" style="mask-type:luminance" maskUnits="userSpaceOnUse" x="51" y="19" width="2" height="2">
<path d="M52.3972 19.6931H51.7812V20.3048H52.3972V19.6931Z" fill="white"/>
</mask>
<g mask="url(#mask6_400_2692)">
<mask id="mask7_400_2692" style="mask-type:luminance" maskUnits="userSpaceOnUse" x="51" y="19" width="2" height="2">
<path d="M52.3972 19.6931H51.7812V20.3048H52.3972V19.6931Z" fill="white"/>
</mask>
<g mask="url(#mask7_400_2692)">
<path d="M52.0447 19.7903C52.0252 19.8583 51.9525 19.9311 51.8846 19.9505L51.8361 19.9651C51.7682 19.9845 51.7682 20.0185 51.8361 20.0379L51.8846 20.0525C51.9525 20.0719 52.0252 20.1447 52.0447 20.2127L52.0592 20.2564C52.0786 20.3244 52.1126 20.3244 52.132 20.2564L52.1465 20.2127C52.1659 20.1447 52.2387 20.0719 52.3066 20.0525L52.3551 20.0379C52.423 20.0185 52.423 19.9845 52.3551 19.9651L52.3066 19.9505C52.2387 19.9311 52.1659 19.8583 52.1465 19.7903L52.132 19.7418C52.1126 19.6738 52.0786 19.6738 52.0592 19.7418L52.0447 19.7903Z" fill="white"/>
</g>
</g>
</g>
<g opacity="0.5">
<mask id="mask8_400_2692" style="mask-type:luminance" maskUnits="userSpaceOnUse" x="55" y="18" width="1" height="2">
<path d="M55.9357 18.8193H55.082V19.6738H55.9357V18.8193Z" fill="white"/>
</mask>
<g mask="url(#mask8_400_2692)">
<mask id="mask9_400_2692" style="mask-type:luminance" maskUnits="userSpaceOnUse" x="55" y="18" width="1" height="2">
<path d="M55.9357 18.8193H55.082V19.6738H55.9357V18.8193Z" fill="white"/>
</mask>
<g mask="url(#mask9_400_2692)">
<path d="M55.441 18.9553C55.4119 19.0524 55.3149 19.1495 55.2178 19.1786L55.1548 19.198C55.0578 19.2271 55.0578 19.2708 55.1548 19.3L55.2178 19.3194C55.3149 19.3485 55.4119 19.4456 55.441 19.5427L55.4604 19.6058C55.4895 19.6981 55.5331 19.6981 55.5622 19.6058L55.5816 19.5427C55.6107 19.4456 55.7077 19.3485 55.8047 19.3194L55.8678 19.3C55.9599 19.2708 55.9599 19.2271 55.8678 19.198L55.8047 19.1786C55.7077 19.1495 55.6107 19.0524 55.5816 18.9553L55.5622 18.8922C55.5331 18.7951 55.4895 18.7951 55.4604 18.8922L55.441 18.9553Z" fill="white"/>
</g>
</g>
</g>
<g opacity="0.8">
<mask id="mask10_400_2692" style="mask-type:luminance" maskUnits="userSpaceOnUse" x="53" y="19" width="2" height="2">
<path d="M54.1049 19.8098H53.7266V20.1885H54.1049V19.8098Z" fill="white"/>
</mask>
<g mask="url(#mask10_400_2692)">
<mask id="mask11_400_2692" style="mask-type:luminance" maskUnits="userSpaceOnUse" x="53" y="19" width="2" height="2">
<path d="M54.1049 19.8098H53.7266V20.1885H54.1049V19.8098Z" fill="white"/>
</mask>
<g mask="url(#mask11_400_2692)">
<path d="M53.8723 19.8535C53.8529 19.8875 53.8093 19.9312 53.7753 19.9506L53.7559 19.9603C53.722 19.9797 53.722 20.0137 53.7559 20.0331L53.7753 20.0428C53.8093 20.0623 53.8529 20.106 53.8723 20.1399L53.882 20.1594C53.9014 20.1933 53.9354 20.1933 53.9548 20.1594L53.9645 20.1399C53.9839 20.106 54.0276 20.0623 54.0664 20.0428L54.0858 20.0331C54.1197 20.0137 54.1197 19.9797 54.0858 19.9603L54.0664 19.9506C54.0324 19.9312 53.9888 19.8875 53.9645 19.8535L53.9548 19.8341C53.9354 19.8001 53.9014 19.8001 53.882 19.8341L53.8723 19.8535Z" fill="white"/>
</g>
</g>
</g>
<path d="M3.41151 28.1843C3.58128 28.1843 3.71224 28.3299 3.71224 28.4999C3.71224 28.6698 3.58128 28.8057 3.41151 28.8057H1.39376V30H3.11564C3.28541 30 3.41637 30.136 3.41637 30.3059C3.41637 30.4758 3.28541 30.6215 3.11564 30.6215H1.39376V32.1751C1.39376 32.3644 1.2337 32.5149 1.04454 32.5149C0.855374 32.5149 0.695312 32.3644 0.695312 32.1751V28.5193C0.695312 28.3299 0.850524 28.1794 1.04454 28.1794H3.41151V28.1843Z" fill="white"/>
<path d="M4.12983 29.9564C4.4063 29.6991 4.78948 29.5437 5.21146 29.5437C5.63344 29.5437 6.02147 29.6991 6.29309 29.9564C6.56956 30.2185 6.72962 30.5875 6.72962 31.0293C6.72962 31.4711 6.57441 31.8498 6.29309 32.1071C6.02632 32.3644 5.62859 32.5149 5.21146 32.5149C4.79433 32.5149 4.3966 32.3644 4.12983 32.1071C3.84851 31.8498 3.68359 31.476 3.68359 31.0293C3.68359 30.5827 3.85336 30.2185 4.12983 29.9564ZM4.56636 31.6993C4.72157 31.8692 4.94954 31.976 5.21146 31.976C5.47338 31.976 5.69164 31.8692 5.85171 31.6993C6.00692 31.5245 6.10392 31.2963 6.10392 31.0293C6.10392 30.7623 6.01177 30.5341 5.85171 30.3593C5.69649 30.1894 5.46853 30.0826 5.21146 30.0826C4.95439 30.0826 4.72157 30.1894 4.56636 30.3593C4.41115 30.5341 4.32384 30.7623 4.32384 31.0293C4.32384 31.2963 4.41115 31.5245 4.56636 31.6993Z" fill="white"/>
<path d="M7.29782 29.8593C7.29782 29.6845 7.44333 29.5437 7.61794 29.5437C7.79256 29.5437 7.93807 29.6796 7.93807 29.8593V29.9855C8.14663 29.6991 8.47161 29.5486 8.86449 29.5486C9.18946 29.5486 9.48533 29.6311 9.68905 29.8204C9.90246 30.0098 10.0189 30.3156 10.0189 30.7477V32.2091C10.0189 32.3838 9.86851 32.5246 9.69875 32.5246C9.51443 32.5246 9.37377 32.3887 9.37377 32.2091V30.9079C9.37377 30.6506 9.33497 30.4176 9.18946 30.2671C9.0876 30.1651 8.94694 30.102 8.73353 30.102C8.44735 30.102 8.21939 30.2331 8.08358 30.4758C7.97687 30.67 7.93322 30.9079 7.93322 31.141V32.2091C7.93322 32.3838 7.78286 32.5246 7.61309 32.5246C7.44333 32.5246 7.29297 32.3887 7.29297 32.2091V29.8641L7.29782 29.8593Z" fill="white"/>
<path d="M12.1882 32.4519C11.6934 32.4519 11.2472 32.3209 10.9513 32.0441C10.6943 31.8208 10.5391 31.481 10.5391 31.0392C10.5391 30.6799 10.6312 30.3352 10.8398 30.0682C11.0823 29.7477 11.48 29.539 12.0184 29.539C12.227 29.539 12.3871 29.5633 12.5568 29.6215V28.4369C12.5568 28.2621 12.7023 28.1213 12.8769 28.1213C13.0515 28.1213 13.2019 28.2573 13.2019 28.4369V32.1024C13.2019 32.3306 13.0321 32.4471 12.8381 32.4471H12.193L12.1882 32.4519ZM12.552 31.913V30.1701C12.3871 30.1216 12.2512 30.0973 12.0524 30.0973C11.7662 30.0973 11.5188 30.2284 11.3685 30.442C11.2569 30.5974 11.1939 30.8013 11.1939 31.0294C11.1939 31.311 11.286 31.5198 11.4364 31.6557C11.6352 31.8451 11.9311 31.913 12.2561 31.913H12.552Z" fill="white"/>
<path d="M16.4265 32.0246C16.4265 32.1605 16.3246 32.2576 16.1306 32.345C15.8881 32.4518 15.5873 32.5149 15.2721 32.5149C14.7967 32.5149 14.4087 32.3596 14.1468 32.078C13.8946 31.8158 13.7539 31.4372 13.7539 30.9954C13.7539 30.5827 13.8994 30.2186 14.1468 29.9564C14.3845 29.7039 14.7434 29.5486 15.1945 29.5486C15.6455 29.5486 15.9754 29.7088 16.2033 29.937C16.4604 30.204 16.5477 30.539 16.5477 30.8497C16.5477 31.0488 16.4313 31.209 16.2227 31.209H14.433C14.4524 31.4177 14.5251 31.5974 14.6464 31.7284C14.8016 31.9081 15.0344 32.01 15.3206 32.01C15.5437 32.01 15.7426 31.9518 15.8881 31.8838C16.0287 31.8207 16.0966 31.7624 16.1888 31.7624C16.3246 31.7624 16.4265 31.8887 16.4265 32.0246ZM15.922 30.7672C15.9172 30.5681 15.8541 30.4031 15.7426 30.272C15.6261 30.1457 15.437 30.0584 15.2042 30.0584C14.9519 30.0584 14.7482 30.1457 14.6221 30.2817C14.5154 30.4079 14.4475 30.5875 14.433 30.7623H15.922V30.7672Z" fill="white"/>
<path d="M17.0908 29.8593C17.0908 29.6845 17.2363 29.5437 17.4109 29.5437C17.5855 29.5437 17.731 29.6796 17.731 29.8593V29.9855C17.9396 29.6991 18.2646 29.5486 18.6575 29.5486C18.9824 29.5486 19.2783 29.6311 19.482 29.8204C19.6954 30.0098 19.8118 30.3156 19.8118 30.7477V32.2091C19.8118 32.3838 19.6615 32.5246 19.4917 32.5246C19.3074 32.5246 19.1667 32.3887 19.1667 32.2091V30.9079C19.1667 30.6506 19.1279 30.4176 18.9824 30.2671C18.8806 30.1651 18.7399 30.102 18.5265 30.102C18.2403 30.102 18.0124 30.2331 17.8765 30.4758C17.7698 30.67 17.7262 30.9079 17.7262 31.141V32.2091C17.7262 32.3838 17.5758 32.5246 17.4061 32.5246C17.2363 32.5246 17.0859 32.3887 17.0859 32.2091V29.8641L17.0908 29.8593Z" fill="white"/>
<defs>
<linearGradient id="paint0_linear_400_2692" x1="37.1438" y1="19.4875" x2="52.2552" y2="22.6908" gradientUnits="userSpaceOnUse">
<stop stop-color="white"/>
<stop offset="0.26" stop-color="white"/>
<stop offset="0.31" stop-color="white"/>
<stop offset="0.36" stop-color="white"/>
<stop offset="0.42" stop-color="white"/>
<stop offset="0.47" stop-color="white"/>
<stop offset="0.52" stop-color="white"/>
<stop offset="0.53" stop-color="white"/>
<stop offset="1" stop-color="#284655"/>
</linearGradient>
</defs>
</svg>
